<svg width="71" height="93" viewBox="0 0 71 93" fill="none" xmlns="http://www.w3.org/2000/svg">
<rect width="70.0078" height="92.5047" rx="0.629284" transform="matrix(-1 0 0 1 70.0234 0.097168)" fill="#F7F7F7"/>
<rect x="-0.0786604" y="0.0786604" width="69.8505" height="92.3473" rx="0.550623" transform="matrix(-1 0 0 1 69.8661 0.097168)" stroke="#361D5F" stroke-opacity="0.5" stroke-width="0.157321"/>
<rect width="70.0078" height="92.5047" rx="0.629284" transform="matrix(-1 0 0 1 70.0234 0.097168)" fill="#F7F7F7"/>
<rect x="-0.0786604" y="0.0786604" width="69.8505" height="92.3473" rx="0.550623" transform="matrix(-1 0 0 1 69.8661 0.097168)" stroke="#361D5F" stroke-opacity="0.5" stroke-width="0.157321"/>
<mask id="path-5-inside-1_382_4550" fill="white">
<path fill-rule="evenodd" clip-rule="evenodd" d="M5.90215 24.1934L6.55798 24.8743L9.95748 21.6004L9.33411 20.9532L10.0962 20.2337C10.4121 19.9355 10.4264 19.4376 10.1282 19.1217L7.98479 16.8515C7.68655 16.5356 7.18871 16.5213 6.87282 16.8195L6.0765 17.5713L5.29126 16.7561C4.98987 16.4432 4.49188 16.4339 4.17897 16.7352L1.91263 18.9178C1.59972 19.2192 1.59037 19.7171 1.89175 20.03L2.64453 20.8115L1.95392 21.4635L5.17734 24.8777L5.90215 24.1934Z"/>
</mask>
<path fill-rule="evenodd" clip-rule="evenodd" d="M5.90215 24.1934L6.55798 24.8743L9.95748 21.6004L9.33411 20.9532L10.0962 20.2337C10.4121 19.9355 10.4264 19.4376 10.1282 19.1217L7.98479 16.8515C7.68655 16.5356 7.18871 16.5213 6.87282 16.8195L6.0765 17.5713L5.29126 16.7561C4.98987 16.4432 4.49188 16.4339 4.17897 16.7352L1.91263 18.9178C1.59972 19.2192 1.59037 19.7171 1.89175 20.03L2.64453 20.8115L1.95392 21.4635L5.17734 24.8777L5.90215 24.1934Z" fill="#361D5F"/>
<path d="M6.55798 24.8743L6.44467 24.9834L6.5538 25.0967L6.66711 24.9876L6.55798 24.8743ZM5.90215 24.1934L6.01545 24.0843L5.9074 23.9721L5.79415 24.079L5.90215 24.1934ZM9.95748 21.6004L10.0666 21.7137L10.1799 21.6046L10.0708 21.4913L9.95748 21.6004ZM9.33411 20.9532L9.22611 20.8389L9.11057 20.9479L9.22081 21.0624L9.33411 20.9532ZM10.0962 20.2337L10.2042 20.3481L10.0962 20.2337ZM10.1282 19.1217L10.2426 19.0137L10.1282 19.1217ZM7.98479 16.8515L7.8704 16.9595L7.98479 16.8515ZM6.0765 17.5713L5.96319 17.6805L6.07124 17.7926L6.1845 17.6857L6.0765 17.5713ZM5.29126 16.7561L5.17795 16.8652L5.29126 16.7561ZM4.17897 16.7352L4.06984 16.6219L4.17897 16.7352ZM1.91263 18.9178L1.8035 18.8045L1.91263 18.9178ZM1.89175 20.03L1.77845 20.1391L1.89175 20.03ZM2.64453 20.8115L2.75253 20.9259L2.86808 20.8168L2.75784 20.7023L2.64453 20.8115ZM1.95392 21.4635L1.84592 21.3491L1.73152 21.4571L1.83952 21.5715L1.95392 21.4635ZM5.17734 24.8777L5.06294 24.9857L5.17094 25.1001L5.28534 24.9921L5.17734 24.8777ZM6.67128 24.7651L6.01545 24.0843L5.78884 24.3026L6.44467 24.9834L6.67128 24.7651ZM9.84835 21.4871L6.44885 24.761L6.66711 24.9876L10.0666 21.7137L9.84835 21.4871ZM9.22081 21.0624L9.84418 21.7095L10.0708 21.4913L9.44742 20.8441L9.22081 21.0624ZM9.98824 20.1193L9.22611 20.8389L9.44211 21.0676L10.2042 20.3481L9.98824 20.1193ZM10.0138 19.2297C10.2524 19.4825 10.241 19.8807 9.98824 20.1193L10.2042 20.3481C10.5833 19.9902 10.6005 19.3928 10.2426 19.0137L10.0138 19.2297ZM7.8704 16.9595L10.0138 19.2297L10.2426 19.0137L8.09918 16.7435L7.8704 16.9595ZM6.98082 16.9339C7.23353 16.6953 7.63181 16.7067 7.8704 16.9595L8.09918 16.7435C7.7413 16.3644 7.14389 16.3472 6.76482 16.7051L6.98082 16.9339ZM6.1845 17.6857L6.98082 16.9339L6.76482 16.7051L5.9685 17.4569L6.1845 17.6857ZM5.17795 16.8652L5.96319 17.6805L6.1898 17.4622L5.40456 16.647L5.17795 16.8652ZM4.2881 16.8485C4.53843 16.6075 4.93684 16.6149 5.17795 16.8652L5.40456 16.647C5.04291 16.2715 4.44533 16.2603 4.06984 16.6219L4.2881 16.8485ZM2.02176 19.0311L4.2881 16.8485L4.06984 16.6219L1.8035 18.8045L2.02176 19.0311ZM2.00506 19.9208C1.76396 19.6705 1.77143 19.2722 2.02176 19.0311L1.8035 18.8045C1.428 19.1661 1.41678 19.7637 1.77845 20.1391L2.00506 19.9208ZM2.75784 20.7023L2.00506 19.9208L1.77845 20.1391L2.53123 20.9206L2.75784 20.7023ZM2.06192 21.5779L2.75253 20.9259L2.53653 20.6971L1.84592 21.3491L2.06192 21.5779ZM5.29173 24.7697L2.06831 21.3555L1.83952 21.5715L5.06294 24.9857L5.29173 24.7697ZM5.79415 24.079L5.06934 24.7633L5.28534 24.9921L6.01015 24.3078L5.79415 24.079Z" fill="#361D5F" fill-opacity="0.1" mask="url(#path-5-inside-1_382_4550)"/>
<mask id="path-7-inside-2_382_4550" fill="white">
<path fill-rule="evenodd" clip-rule="evenodd" d="M64.1136 77.9927L64.7695 78.6736L68.169 75.3997L67.5456 74.7526L68.3077 74.033C68.6236 73.7348 68.6379 73.2369 68.3397 72.9211L66.1963 70.6508C65.898 70.3349 65.4002 70.3206 65.0843 70.6188L64.288 71.3706L63.5027 70.5554C63.2014 70.2425 62.7034 70.2332 62.3905 70.5345L60.1241 72.7171C59.8112 73.0185 59.8019 73.5164 60.1032 73.8293L60.856 74.6108L60.1654 75.2628L63.3888 78.677L64.1136 77.9927Z"/>
</mask>
<path fill-rule="evenodd" clip-rule="evenodd" d="M64.1136 77.9927L64.7695 78.6736L68.169 75.3997L67.5456 74.7526L68.3077 74.033C68.6236 73.7348 68.6379 73.2369 68.3397 72.9211L66.1963 70.6508C65.898 70.3349 65.4002 70.3206 65.0843 70.6188L64.288 71.3706L63.5027 70.5554C63.2014 70.2425 62.7034 70.2332 62.3905 70.5345L60.1241 72.7171C59.8112 73.0185 59.8019 73.5164 60.1032 73.8293L60.856 74.6108L60.1654 75.2628L63.3888 78.677L64.1136 77.9927Z" fill="#361D5F"/>
<path d="M64.7695 78.6736L64.6562 78.7827L64.7653 78.896L64.8786 78.7869L64.7695 78.6736ZM64.1136 77.9927L64.2269 77.8836L64.1189 77.7714L64.0056 77.8783L64.1136 77.9927ZM68.169 75.3997L68.2781 75.513L68.3914 75.4039L68.2823 75.2906L68.169 75.3997ZM67.5456 74.7526L67.4376 74.6382L67.3221 74.7473L67.4323 74.8617L67.5456 74.7526ZM68.3397 72.9211L68.4541 72.8131L68.3397 72.9211ZM66.1963 70.6508L66.0819 70.7588L66.1963 70.6508ZM65.0843 70.6188L65.1923 70.7332L65.0843 70.6188ZM64.288 71.3706L64.1747 71.4798L64.2827 71.5919L64.396 71.485L64.288 71.3706ZM63.5027 70.5554L63.3894 70.6646L63.5027 70.5554ZM62.3905 70.5345L62.2813 70.4212L62.3905 70.5345ZM60.1241 72.7171L60.2332 72.8304L60.1241 72.7171ZM60.1032 73.8293L59.9899 73.9384L60.1032 73.8293ZM60.856 74.6108L60.964 74.7252L61.0796 74.6161L60.9693 74.5017L60.856 74.6108ZM60.1654 75.2628L60.0574 75.1484L59.943 75.2564L60.051 75.3708L60.1654 75.2628ZM63.3888 78.677L63.2744 78.785L63.3824 78.8994L63.4968 78.7914L63.3888 78.677ZM64.8828 78.5645L64.2269 77.8836L64.0003 78.1019L64.6562 78.7827L64.8828 78.5645ZM68.0598 75.2864L64.6603 78.5603L64.8786 78.7869L68.2781 75.513L68.0598 75.2864ZM67.4323 74.8617L68.0557 75.5089L68.2823 75.2906L67.6589 74.6434L67.4323 74.8617ZM68.1997 73.9186L67.4376 74.6382L67.6536 74.867L68.4157 74.1474L68.1997 73.9186ZM68.2253 73.0291C68.4639 73.2818 68.4524 73.68 68.1997 73.9186L68.4157 74.1474C68.7948 73.7895 68.812 73.1921 68.4541 72.8131L68.2253 73.0291ZM66.0819 70.7588L68.2253 73.0291L68.4541 72.8131L66.3107 70.5428L66.0819 70.7588ZM65.1923 70.7332C65.445 70.4946 65.8433 70.5061 66.0819 70.7588L66.3107 70.5428C65.9528 70.1637 65.3554 70.1465 64.9763 70.5044L65.1923 70.7332ZM64.396 71.485L65.1923 70.7332L64.9763 70.5044L64.18 71.2562L64.396 71.485ZM63.3894 70.6646L64.1747 71.4798L64.4013 71.2615L63.616 70.4463L63.3894 70.6646ZM62.4996 70.6479C62.7499 70.4068 63.1483 70.4143 63.3894 70.6646L63.616 70.4463C63.2544 70.0708 62.6568 70.0596 62.2813 70.4212L62.4996 70.6479ZM60.2332 72.8304L62.4996 70.6479L62.2813 70.4212L60.015 72.6038L60.2332 72.8304ZM60.2165 73.7202C59.9754 73.4698 59.9829 73.0715 60.2332 72.8304L60.015 72.6038C59.6395 72.9654 59.6283 73.563 59.9899 73.9384L60.2165 73.7202ZM60.9693 74.5017L60.2165 73.7202L59.9899 73.9384L60.7427 74.7199L60.9693 74.5017ZM60.2734 75.3772L60.964 74.7252L60.748 74.4964L60.0574 75.1484L60.2734 75.3772ZM63.5032 78.569L60.2798 75.1548L60.051 75.3708L63.2744 78.785L63.5032 78.569ZM64.0056 77.8783L63.2808 78.5626L63.4968 78.7914L64.2216 78.1071L64.0056 77.8783Z" fill="black" fill-opacity="0.1" mask="url(#path-7-inside-2_382_4550)"/>
<path d="M5.70321 12.4414L5.70321 7.4373L6.02918 7.68397L4.8134 8.3271L4.55791 7.49897L6.20537 6.61797L6.66349 6.61797L6.66349 12.4414L5.70321 12.4414ZM4.7253 12.873L4.7253 11.9568L7.66783 11.9568L7.66783 12.873L4.7253 12.873Z" fill="#361D5F"/>
<path d="M63.7546 86.3823L63.7546 81.3782L64.0806 81.6249L62.8648 82.268L62.6093 81.4399L64.2568 80.5589L64.7149 80.5589L64.7149 86.3823L63.7546 86.3823ZM62.7767 86.814L62.7767 85.8977L65.7192 85.8977L65.7192 86.814L62.7767 86.814Z" fill="#361D5F"/>
<path opacity="0.18" d="M28.2128 66.7175C40.8315 66.7175 51.061 56.488 51.061 43.8693C51.061 31.2505 40.8315 21.021 28.2128 21.021C15.594 21.021 5.3645 31.2505 5.3645 43.8693C5.3645 56.488 15.594 66.7175 28.2128 66.7175Z" fill="#F90093"/>
<path opacity="0.18" d="M28.6358 61.1228C38.3985 61.1228 46.3127 53.2086 46.3127 43.4459C46.3127 33.6832 38.3985 25.769 28.6358 25.769C18.8732 25.769 10.959 33.6832 10.959 43.4459C10.959 53.2086 18.8732 61.1228 28.6358 61.1228Z" fill="#F90093"/>
<path d="M31.0208 55.7322L34.3931 64.7774C34.8185 65.9193 35.2463 67.0672 35.4709 68.265C35.4902 68.3263 35.4969 68.3908 35.4906 68.4547C35.4842 68.5186 35.465 68.5806 35.434 68.6369C35.3559 68.7175 35.2512 68.7669 35.1394 68.7759C31.0029 69.5994 26.7537 67.9061 22.5436 68.2175C20.9275 68.3363 19.2485 68.7439 17.7275 68.1866C17.4827 68.0974 17.2284 67.9655 17.1215 67.7279C17.0723 67.5969 17.0489 67.4577 17.0525 67.3179C16.9364 64.4139 17.2163 61.5076 17.8843 58.6791C18.122 57.6524 18.425 56.627 18.9407 55.7084C20.5687 52.8078 24.1691 51.2643 25.323 48.145C25.2184 48.429 27.4892 49.4189 27.7411 49.5092C28.3662 49.7361 29.2669 49.7623 29.6614 50.3778C30.0357 50.9624 29.9204 51.8988 30.0404 52.5535C30.246 53.6503 30.6334 54.6996 31.0208 55.7322Z" fill="#F90093"/>
<path opacity="0.69" d="M31.0208 55.7322L34.3931 64.7774C34.8185 65.9193 35.2463 67.0672 35.4709 68.265C35.4902 68.3263 35.4969 68.3908 35.4906 68.4547C35.4842 68.5186 35.465 68.5806 35.434 68.6369C35.3559 68.7175 35.2512 68.7669 35.1394 68.7759C31.0029 69.5994 26.7537 67.9061 22.5436 68.2175C20.9275 68.3363 19.2485 68.7439 17.7275 68.1866C17.4827 68.0974 17.2284 67.9655 17.1215 67.7279C17.0723 67.5969 17.0489 67.4577 17.0525 67.3179C16.9364 64.4139 17.2163 61.5076 17.8843 58.6791C18.122 57.6524 18.425 56.627 18.9407 55.7084C20.5687 52.8078 24.1691 51.2643 25.323 48.145C25.2184 48.429 27.4892 49.4189 27.7411 49.5092C28.3662 49.7361 29.2669 49.7623 29.6614 50.3778C30.0357 50.9624 29.9204 51.8988 30.0404 52.5535C30.246 53.6503 30.6334 54.6996 31.0208 55.7322Z" fill="url(#paint0_radial_382_4550)"/>
<path d="M24.5493 53.2674C24.9451 53.5734 25.3598 53.854 25.7911 54.1075C26.044 54.2735 26.3263 54.3897 26.6229 54.4498C26.9268 54.4784 27.2334 54.4527 27.5283 54.3737C27.9941 54.2775 28.4588 54.1776 28.9222 54.0683C29.1779 54.0221 29.4231 53.9299 29.6459 53.7962C29.7554 53.7271 29.8456 53.6314 29.9079 53.5179C29.9703 53.4044 30.0028 53.2769 30.0023 53.1474C29.9845 52.8896 29.7314 52.6495 29.4783 52.7066C29.3638 52.7442 29.2573 52.803 29.1646 52.88C28.6976 53.1997 28.113 53.2852 27.5497 53.3435C27.1754 53.3827 26.788 53.4112 26.4292 53.2948C26.0121 53.1581 25.6841 52.8396 25.3704 52.5319C24.9961 52.1623 24.0728 50.8053 23.588 51.4993C23.1638 52.1124 24.1477 52.9585 24.5493 53.2674Z" fill="#F90093"/>
<path d="M26.5124 31.0558C26.2974 31.3113 25.8743 31.2531 25.6676 31.5145C25.4608 31.7759 25.3206 32.0849 25.1221 32.3534C24.9237 32.622 24.6468 32.8679 24.4852 33.1781C24.1383 33.8566 24.4674 34.7502 25.0972 35.1791C25.3491 35.3514 25.6569 35.4798 25.7935 35.7519C25.8458 35.8707 25.8786 35.997 25.891 36.1262C25.9789 36.712 26.0526 37.3656 25.7103 37.8492C25.5036 38.1403 25.178 38.3245 24.9166 38.5622C24.1489 39.2751 24.0099 40.5098 24.4591 41.4521C24.9083 42.3944 25.8494 43.0432 26.8594 43.307C27.5046 43.4745 28.2164 43.5197 28.7345 43.938C29.0173 44.1661 29.2098 44.4846 29.476 44.7317C29.8598 45.0882 30.3696 45.2831 30.877 45.4174C31.3844 45.5516 31.9975 45.6289 32.4526 45.3354C33.1858 44.8601 33.1514 43.7431 33.7491 43.1085C34.2921 42.5358 35.2867 42.436 35.6265 41.7242C35.8844 41.1859 35.6337 40.5466 35.3307 40.0333C35.0487 39.5566 34.7195 39.1095 34.348 38.6988C33.9344 38.2413 33.4294 37.6947 33.5958 37.1006C33.7407 36.5873 34.3206 36.3413 34.6426 35.9123C34.781 35.7163 34.8741 35.4921 34.9152 35.2558C34.9563 35.0195 34.9444 34.7769 34.8803 34.5458C34.748 34.0826 34.4882 33.6659 34.1305 33.3432C33.8489 33.0747 33.5162 32.8394 33.3403 32.4913C33.1644 32.1431 33.1751 31.7355 33.1026 31.3529C33.0326 30.9901 32.8864 30.6462 32.6737 30.344C32.5406 30.161 28.1939 29.0595 26.5124 31.0558Z" fill="#161419"/>
<path d="M26.5124 31.0558C26.2974 31.3113 25.8743 31.2531 25.6676 31.5145C25.4608 31.7759 25.3206 32.0849 25.1221 32.3534C24.9237 32.622 24.6468 32.8679 24.4852 33.1781C24.1383 33.8566 24.4674 34.7502 25.0972 35.1791C25.3491 35.3514 25.6569 35.4798 25.7935 35.7519C25.8458 35.8707 25.8786 35.997 25.891 36.1262C25.9789 36.712 26.0526 37.3656 25.7103 37.8492C25.5036 38.1403 25.178 38.3245 24.9166 38.5622C24.1489 39.2751 24.0099 40.5098 24.4591 41.4521C24.9083 42.3944 25.8494 43.0432 26.8594 43.307C27.5046 43.4745 28.2164 43.5197 28.7345 43.938C29.0173 44.1661 29.2098 44.4846 29.476 44.7317C29.8598 45.0882 30.3696 45.2831 30.877 45.4174C31.3844 45.5516 31.9975 45.6289 32.4526 45.3354C33.1858 44.8601 33.1514 43.7431 33.7491 43.1085C34.2921 42.5358 35.2867 42.436 35.6265 41.7242C35.8844 41.1859 35.6337 40.5466 35.3307 40.0333C35.0487 39.5566 34.7195 39.1095 34.348 38.6988C33.9344 38.2413 33.4294 37.6947 33.5958 37.1006C33.7407 36.5873 34.3206 36.3413 34.6426 35.9123C34.781 35.7163 34.8741 35.4921 34.9152 35.2558C34.9563 35.0195 34.9444 34.7769 34.8803 34.5458C34.748 34.0826 34.4882 33.6659 34.1305 33.3432C33.8489 33.0747 33.5162 32.8394 33.3403 32.4913C33.1644 32.1431 33.1751 31.7355 33.1026 31.3529C33.0326 30.9901 32.8864 30.6462 32.6737 30.344C32.5406 30.161 28.1939 29.0595 26.5124 31.0558Z" fill="url(#paint1_linear_382_4550)"/>
<path d="M31.4271 39.8896C32.1472 40.119 32.9065 40.3745 33.3901 40.9591C33.6155 41.2433 33.7834 41.5686 33.8845 41.9169C34.3824 43.489 34.0033 45.1929 34.1471 46.8363C34.2669 48.2033 34.7443 49.5147 35.5314 50.6388C36.1256 51.4801 36.2099 52.6149 36.2313 53.6428C36.2527 54.6707 35.9069 55.7449 35.1298 56.4174C34.3526 57.09 33.1097 57.2492 32.2839 56.6408C31.6018 56.1346 31.3332 55.2553 31.1217 54.4306C30.6773 52.6672 30.341 50.8468 30.5169 49.037C30.6179 47.9925 30.8888 46.9718 31.0766 45.9404C31.4378 43.9512 31.6802 41.8919 31.4271 39.8896Z" fill="#F90093"/>
<path d="M31.4271 39.8896C32.1472 40.119 32.9065 40.3745 33.3901 40.9591C33.6155 41.2433 33.7834 41.5686 33.8845 41.9169C34.3824 43.489 34.0033 45.1929 34.1471 46.8363C34.2669 48.2033 34.7443 49.5147 35.5314 50.6388C36.1256 51.4801 36.2099 52.6149 36.2313 53.6428C36.2527 54.6707 35.9069 55.7449 35.1298 56.4174C34.3526 57.09 33.1097 57.2492 32.2839 56.6408C31.6018 56.1346 31.3332 55.2553 31.1217 54.4306C30.6773 52.6672 30.341 50.8468 30.5169 49.037C30.6179 47.9925 30.8888 46.9718 31.0766 45.9404C31.4378 43.9512 31.6802 41.8919 31.4271 39.8896Z" fill="url(#paint2_linear_382_4550)"/>
<path d="M33.1776 43.0103C33.3005 43.513 33.31 44.0368 33.2053 44.5436C33.1007 45.0504 32.8846 45.5276 32.5727 45.9406C32.0344 46.6429 31.2252 47.1396 30.8414 47.9357C30.4849 48.6796 30.5479 49.5874 30.1189 50.2921C29.804 50.8102 29.2657 51.1453 28.7465 51.4601C28.4326 51.6722 28.0895 51.8375 27.7281 51.9509C26.9141 52.1612 26.0099 51.7976 25.4799 51.1453C24.9499 50.4929 24.7728 49.6005 24.8988 48.7687C24.963 48.3385 25.1032 47.9238 25.2066 47.502C25.5939 45.8959 25.4561 44.2079 24.8133 42.6859C24.616 42.2201 24.3676 41.7638 24.294 41.26C24.2203 40.7561 24.3641 40.1822 24.7942 39.9148C25.064 39.7473 25.3967 39.7271 25.714 39.7223C26.7989 39.7081 27.8802 39.8316 28.958 39.96C29.9003 40.0681 30.8818 40.1869 31.7148 40.6729C32.4491 41.1055 32.9744 42.1999 33.1776 43.0103Z" fill="#F90093"/>
<path d="M33.1776 43.0103C33.3005 43.513 33.31 44.0368 33.2053 44.5436C33.1007 45.0504 32.8846 45.5276 32.5727 45.9406C32.0344 46.6429 31.2252 47.1396 30.8414 47.9357C30.4849 48.6796 30.5479 49.5874 30.1189 50.2921C29.804 50.8102 29.2657 51.1453 28.7465 51.4601C28.4326 51.6722 28.0895 51.8375 27.7281 51.9509C26.9141 52.1612 26.0099 51.7976 25.4799 51.1453C24.9499 50.4929 24.7728 49.6005 24.8988 48.7687C24.963 48.3385 25.1032 47.9238 25.2066 47.502C25.5939 45.8959 25.4561 44.2079 24.8133 42.6859C24.616 42.2201 24.3676 41.7638 24.294 41.26C24.2203 40.7561 24.3641 40.1822 24.7942 39.9148C25.064 39.7473 25.3967 39.7271 25.714 39.7223C26.7989 39.7081 27.8802 39.8316 28.958 39.96C29.9003 40.0681 30.8818 40.1869 31.7148 40.6729C32.4491 41.1055 32.9744 42.1999 33.1776 43.0103Z" fill="url(#paint3_linear_382_4550)"/>
<path d="M28.8927 38.8188C28.8665 39.1467 28.5944 39.4129 28.289 39.5317C27.9836 39.6506 27.6438 39.6565 27.3146 39.6577C26.9665 39.6577 26.3046 39.4949 25.9873 39.6339C25.67 39.7729 25.7901 40.2079 25.8792 40.5525C25.9778 40.9371 26.1588 41.2957 26.4098 41.6035C26.6607 41.9113 26.9755 42.1608 27.3325 42.3349C27.7001 42.4901 28.0839 42.6037 28.4768 42.6735L30.8807 43.1916C31.3488 43.2926 31.8313 43.4839 32.1878 43.1013C32.5443 42.7187 32.5799 42.1222 32.4254 41.6552C32.2294 41.0789 31.8182 40.5976 31.6019 40.0284C31.3429 39.3452 30.8474 38.8651 31.2098 36.6181C31.2597 36.3103 30.5301 37.438 30.2235 37.4938C30.0561 37.5377 29.9053 37.6299 29.7898 37.7588C29.4654 38.0701 28.9283 38.3827 28.8927 38.8188Z" fill="url(#paint4_linear_382_4550)"/>
<path d="M26.049 34.7481C26.1529 35.4772 26.3424 36.1916 26.6134 36.8763C26.8852 37.5635 27.3113 38.1791 27.8588 38.6754C28.1832 38.957 28.5907 39.1935 29.0185 39.1507C29.2484 39.1164 29.4674 39.0303 29.659 38.8988C30.6251 38.2904 31.2038 37.215 31.5198 36.117C31.8359 36.0636 32.0688 35.7914 32.2233 35.5098C32.4134 35.1652 32.5287 34.7493 32.3956 34.3786C32.3649 34.2852 32.308 34.2027 32.2316 34.1409C32.167 34.1007 32.0937 34.0765 32.0178 34.0705C31.9419 34.0645 31.8657 34.0769 31.7955 34.1065C31.6566 34.168 31.5288 34.2524 31.4177 34.356C31.0992 33.8534 30.7712 33.3388 30.2983 32.9764C29.8268 32.6275 29.2591 32.4325 28.6727 32.4179C28.0884 32.405 27.509 32.527 26.9794 32.7744C26.6562 32.9217 26.1809 33.1594 26.0027 33.4874C25.8244 33.8153 25.9932 34.4 26.049 34.7481Z" fill="url(#paint5_linear_382_4550)"/>
<path d="M25.3954 39.6904C22.6826 40.0469 20.1242 41.1924 17.8118 42.654C17.0489 43.1293 16.2599 43.7163 15.9997 44.579C15.9115 44.9097 15.8758 45.2521 15.8939 45.5938C15.9141 46.5123 16.0959 47.4499 16.5819 48.2318C17.0679 49.0137 17.889 49.6173 18.8076 49.6862C19.3221 49.7255 19.877 49.6043 20.3369 49.8276C20.5603 49.9358 20.7528 50.1188 20.9964 50.1616C21.4646 50.2447 21.8603 49.7635 21.9399 49.2941C22.0195 48.8247 21.9007 48.3435 21.9399 47.8682C21.9648 47.5473 22.0587 47.236 22.1003 46.9176C22.1419 46.5991 22.1193 46.2533 21.9351 45.9907C21.7367 45.7091 21.3778 45.5582 21.2222 45.2516C22.4889 44.396 24.0515 43.916 25.0247 42.7407C25.1744 42.5613 25.3146 42.3415 25.2789 42.1098C25.2279 41.7771 24.8298 41.5156 24.9225 41.1936C25.0841 40.6636 25.0437 40.117 25.3954 39.6904Z" fill="#F90093"/>
<path d="M25.2825 42.1098C25.3182 42.3415 25.178 42.5625 25.0282 42.7419C24.0503 43.9183 22.4877 44.3972 21.2257 45.2516C21.3814 45.5593 21.7391 45.7103 21.9387 45.9919C22.1241 46.2545 22.1455 46.5991 22.1051 46.9187C22.0647 47.2384 21.9684 47.5473 21.9435 47.8694C21.909 48.3233 22.0136 48.7808 21.9553 49.2288C21.9553 49.2513 21.9553 49.2727 21.947 49.2941C21.8662 49.7635 21.4717 50.2447 21.0023 50.1616C20.7587 50.1188 20.5662 49.9358 20.3429 49.8276C19.8782 49.6043 19.3281 49.7243 18.8123 49.6874C17.8974 49.6173 17.0739 49.0125 16.5891 48.2306C16.1043 47.4487 15.9201 46.5123 15.8999 45.5926C15.8813 45.2513 15.917 44.9092 16.0056 44.579C16.2647 43.7163 17.0549 43.1341 17.8166 42.654C20.1313 41.1924 22.6885 40.0398 25.4002 39.6904C25.0746 40.0885 25.0853 40.5876 24.9641 41.0819C24.9546 41.1199 24.9451 41.158 24.9344 41.2007C24.8334 41.518 25.2338 41.7782 25.2825 42.1098Z" fill="url(#paint6_linear_382_4550)"/>
<path d="M34.658 60.1344C34.7768 59.7934 34.7638 59.4215 34.7507 59.065C35.1702 59.6092 35.8629 59.8849 36.5462 59.9479C37.2295 60.0109 37.9151 59.8861 38.59 59.7625C38.6423 59.652 38.4926 59.5581 38.3738 59.5248L37.2817 59.2385C37.3955 59.2622 37.5129 59.2626 37.6269 59.2397C37.7408 59.2168 37.849 59.1711 37.9448 59.1054L36.9942 58.8345L37.5515 58.5909C36.9471 58.4961 36.368 58.2807 35.8487 57.9575C35.5081 57.761 35.2189 57.4865 35.005 57.1566C34.8731 56.9344 34.7792 56.6682 34.5582 56.5316C34.3098 56.3771 33.7561 56.4591 33.5993 56.7419C33.4602 56.9938 33.6575 57.3657 33.7347 57.6224C33.9894 58.4783 34.2978 59.3173 34.658 60.1344Z" fill="url(#paint7_linear_382_4550)"/>
<path d="M15.8381 61.0792C15.6765 61.3473 15.5884 61.6531 15.5826 61.966C15.5767 62.2789 15.6534 62.5878 15.8048 62.8617C14.8043 63.7541 14.6462 65.439 15.4638 66.5014C16.2611 67.5375 17.7453 67.856 19.0215 67.5708C20.2977 67.2856 21.404 66.5014 22.4057 65.6636C23.7389 64.5455 24.9961 63.2372 25.5725 61.595C25.9979 60.3829 26.0228 59.0722 26.0157 57.7925C26.0109 56.7476 25.988 55.7031 25.9468 54.659C25.9361 54.3714 25.7899 53.9769 25.5119 54.0518C24.9617 55.3339 24.5612 56.6802 23.9243 57.9232C23.2874 59.1661 22.3795 60.3318 21.1164 60.9236C20.6502 61.1461 20.1426 61.2685 19.6262 61.2829C19.1098 61.2972 18.5962 61.2031 18.1184 61.0068C17.2105 60.6039 16.6318 59.7888 15.8381 61.0792Z" fill="#F90093"/>
<path d="M27.3941 54.1607C27.4436 54.0834 27.5171 54.0245 27.6033 53.9931C27.8492 53.929 28.0013 54.251 28.0524 54.4994C28.4755 56.6026 29.085 58.6975 30.1985 60.5299C31.3119 62.3622 32.9767 63.926 35.0158 64.589C35.1725 64.6291 35.3215 64.6949 35.4566 64.7839C35.7406 65.0026 35.7953 65.4303 35.6646 65.7643C35.6114 65.8728 35.5715 65.9873 35.5457 66.1053C35.5404 66.2797 35.5741 66.453 35.6443 66.6127C35.8214 67.1831 35.7454 67.8651 35.3235 68.2882C34.8268 68.7872 33.9879 68.7932 33.3557 68.4842C32.7236 68.1753 32.2542 67.6144 31.824 67.0583C29.4142 63.945 27.9384 60.6202 27.4523 56.7202C27.3335 55.8124 26.7251 55.0472 27.3941 54.1607Z" fill="#F90093"/>
<path d="M24.5493 53.2674C24.9451 53.5734 25.3598 53.854 25.7911 54.1075C26.044 54.2735 26.3263 54.3897 26.6229 54.4498C26.9268 54.4784 27.2334 54.4527 27.5283 54.3737C27.9941 54.2775 28.4588 54.1776 28.9222 54.0683C29.1779 54.0221 29.4231 53.9299 29.6459 53.7962C29.7554 53.7271 29.8456 53.6314 29.9079 53.5179C29.9703 53.4044 30.0028 53.2769 30.0023 53.1474C29.9845 52.8896 29.7314 52.6495 29.4783 52.7066C29.3638 52.7442 29.2573 52.803 29.1646 52.88C28.6976 53.1997 28.113 53.2852 27.5497 53.3435C27.1754 53.3827 26.788 53.4112 26.4292 53.2948C26.0121 53.1581 25.6841 52.8396 25.3704 52.5319C24.9961 52.1623 24.0728 50.8053 23.588 51.4993C23.1638 52.1124 24.1477 52.9585 24.5493 53.2674Z" fill="url(#paint8_linear_382_4550)"/>
<path opacity="0.25" d="M24.9119 52.129C24.7384 52.2098 24.5197 52.1112 24.3486 52.1979C24.2852 52.2392 24.2259 52.2866 24.1716 52.3394C23.9696 52.501 23.6844 52.5069 23.4277 52.4677C23.3172 52.4415 23.2028 52.4358 23.0902 52.4511C22.8312 52.5093 22.7017 52.8004 22.4806 52.9478C22.3752 53.0179 22.2507 53.0536 22.1242 53.0499C22.0634 53.0529 22.0029 53.0403 21.9484 53.0132C21.8939 52.9862 21.8472 52.9456 21.8128 52.8955C21.7047 52.7065 21.8711 52.4843 22.0255 52.331L24.3605 50.0198C24.4713 49.8928 24.61 49.7932 24.7657 49.7287C24.8058 49.713 24.8498 49.7101 24.8917 49.7204C24.9282 49.7353 24.9611 49.758 24.9879 49.7869C25.3004 50.0816 25.8007 50.5284 25.4347 50.9431C25.2981 51.0988 25.1911 51.2022 25.1543 51.4184C25.1151 51.6525 25.1816 52.0019 24.9119 52.129Z" fill="url(#paint9_linear_382_4550)"/>
<path d="M25.5726 61.5851C24.9963 63.2273 23.7391 64.5355 22.4058 65.6537C21.4029 66.4938 20.2978 67.2769 19.0216 67.5609C17.7454 67.8449 16.2624 67.5276 15.4639 66.4915C15.267 66.2341 15.1224 65.9406 15.0385 65.6276C14.7735 64.6579 15.048 63.5291 15.8049 62.8541C15.6535 62.5803 15.5769 62.2713 15.5827 61.9585C15.5886 61.6456 15.6767 61.3397 15.8382 61.0717C16.632 59.7884 17.2107 60.5964 18.1185 60.9921C18.5964 61.1881 19.1099 61.282 19.6262 61.2679C20.1425 61.2538 20.6501 61.1319 21.1165 60.9101C22.3785 60.316 23.2899 59.1503 23.9244 57.9085C24.559 56.6668 24.9618 55.3192 25.5132 54.0359C25.5667 54.0231 25.6228 54.0277 25.6735 54.0491C25.7242 54.0705 25.7667 54.1075 25.7948 54.1547C25.8007 54.1619 25.8043 54.169 25.8091 54.1749C25.8962 54.3184 25.9437 54.4824 25.9469 54.6502L25.9469 54.6859C25.9865 55.7157 26.0091 56.7484 26.0146 57.7837C26.0229 59.0588 25.9968 60.3742 25.5726 61.5851Z" fill="url(#paint10_linear_382_4550)"/>
<path d="M27.3941 54.1607C27.4436 54.0834 27.5171 54.0245 27.6033 53.9931C27.8492 53.929 28.0013 54.251 28.0524 54.4994C28.4755 56.6026 29.085 58.6975 30.1985 60.5299C31.3119 62.3622 32.9767 63.926 35.0158 64.589C35.1725 64.6291 35.3215 64.6949 35.4566 64.7839C35.7406 65.0026 35.7953 65.4303 35.6646 65.7643C35.6114 65.8728 35.5715 65.9873 35.5457 66.1053C35.5404 66.2797 35.5741 66.453 35.6443 66.6127C35.8214 67.1831 35.7454 67.8651 35.3235 68.2882C34.8268 68.7872 33.9879 68.7932 33.3557 68.4842C32.7236 68.1753 32.2542 67.6144 31.824 67.0583C29.4142 63.945 27.9384 60.6202 27.4523 56.7202C27.3335 55.8124 26.7251 55.0472 27.3941 54.1607Z" fill="url(#paint11_linear_382_4550)"/>
<path d="M29.3262 34.5033C29.3531 34.5031 29.3795 34.4965 29.4035 34.4843C29.5377 34.3987 29.2846 34.2003 29.3405 34.0517C29.6007 34.3928 30.063 34.527 30.4919 34.5021C30.9209 34.4771 31.3237 34.3096 31.7254 34.1456C30.9375 33.5111 30.4622 32.4939 29.5544 32.0435C28.9816 31.7595 28.315 31.7477 27.6781 31.7904C27.3941 31.8106 26.6597 31.8665 26.5718 32.2384C26.4957 32.5616 26.9283 32.6769 27.1505 32.8135C27.8706 33.252 28.3708 34.5496 29.3262 34.5033Z" fill="#161419"/>
<path d="M26.3459 29.421L27.2419 31.2118C27.2419 31.2118 29.0517 31.2498 30.0938 30.8315L30.3992 28.3361L29.5412 29.6504L28.7273 28.0117L28.347 29.5743L27.356 28.0688L27.1659 29.9926L26.3459 29.421Z" fill="#F4A324"/>
<path d="M31.47 35.1448C31.5111 35.0729 31.5258 34.9888 31.5116 34.9072C31.5031 34.8054 31.522 34.7033 31.5663 34.6113C31.5888 34.5658 31.6235 34.5274 31.6665 34.5003C31.7095 34.4733 31.7591 34.4586 31.8099 34.458C31.8366 34.4586 31.8626 34.4669 31.8847 34.4818C31.9143 34.5104 31.9336 34.548 31.9394 34.5887C31.9923 34.8116 31.9803 35.045 31.9049 35.2613C31.8746 35.3616 31.8189 35.4524 31.7433 35.5251C31.705 35.5605 31.6583 35.5857 31.6076 35.5984C31.557 35.6111 31.5039 35.6108 31.4534 35.5976C31.3957 35.5732 31.3448 35.5353 31.3049 35.4872C31.265 35.439 31.2372 35.3819 31.2241 35.3207C31.2062 35.1627 31.3892 35.2411 31.47 35.1448Z" fill="url(#paint12_linear_382_4550)"/>
<path d="M15.8049 62.8506C15.8049 62.8506 18.4417 65.1416 21.4896 62.9575C21.4896 62.9575 19.7072 67.1736 14.9873 64.8374C14.9873 64.8374 14.7925 63.8119 15.8049 62.8506Z" fill="url(#paint13_linear_382_4550)"/>
<path d="M35.5398 66.1053C35.5398 66.1053 34.3908 66.1838 32.486 64.1768C32.486 64.1768 33.9844 66.488 35.6361 66.9454L35.5398 66.1053Z" fill="url(#paint14_linear_382_4550)"/>
<path d="M25.5724 61.5851C24.9961 63.2273 23.7389 64.5356 22.4057 65.6538C21.4028 66.4939 20.2977 67.277 19.0214 67.561C17.7452 67.845 16.2623 67.5277 15.4637 66.4915C15.2668 66.2342 15.1223 65.9407 15.0383 65.6277C16.0222 66.9276 17.927 68.1373 21.1841 65.6003C26.2284 61.6731 25.8398 54.7703 25.7946 54.1536L25.7946 54.1108L25.8125 54.175L25.9515 54.6824C25.9911 55.7122 26.0137 56.7449 26.0192 57.7803C26.0228 59.0588 25.9967 60.3743 25.5724 61.5851Z" fill="url(#paint15_linear_382_4550)"/>
<path d="M23.2565 49.2094C23.4454 49.0692 23.6331 48.8779 23.8684 48.8886C23.996 48.9037 24.1165 48.9552 24.2154 49.0371C24.5622 49.2951 24.8268 49.6479 24.9774 50.053C25.1279 50.458 25.158 50.8981 25.0638 51.3198L24.6634 50.7162C24.7566 50.8557 24.8144 51.0158 24.8318 51.1827C24.8492 51.3496 24.8256 51.5182 24.7632 51.6739C24.5478 51.5009 24.3641 51.2919 24.2202 51.056C24.2522 51.2331 24.3687 51.3828 24.4329 51.5515C24.497 51.7203 24.4875 51.9484 24.3307 52.0364L23.6961 51.4101C23.7044 51.529 23.7508 51.6407 23.7508 51.7571C23.7508 51.8736 23.6831 52.0078 23.5666 52.0185C23.3884 52.0352 23.3289 51.7928 23.1982 51.6621C23.0247 51.4886 22.7336 51.5492 22.5031 51.6335C22.2726 51.7179 22.0016 51.8106 21.7901 51.6775C21.6829 51.5915 21.6008 51.4782 21.5525 51.3495C21.373 50.9752 21.1889 50.5783 21.2186 50.1613C21.2495 49.7263 21.5263 49.3746 21.9612 49.4424C22.4413 49.5232 22.8477 49.5148 23.2565 49.2094Z" fill="url(#paint16_linear_382_4550)"/>
<path d="M25.0282 42.7414C24.0503 43.9178 22.4877 44.3967 21.2257 45.251C21.3814 45.5588 21.7391 45.7097 21.9387 45.9913C22.1241 46.2539 22.1455 46.5985 22.1051 46.9182C22.0647 47.2378 21.9684 47.5468 21.9435 47.8688C21.909 48.3227 22.0136 48.7802 21.9553 49.2282C21.8485 49.2302 21.7423 49.2101 21.6436 49.1692C21.5448 49.1283 21.4556 49.0675 21.3814 48.9905C20.9774 48.558 21.2115 47.8367 20.9857 47.2901C20.893 47.0632 20.7207 46.8707 20.6435 46.6377C20.5567 46.3716 20.6031 46.0828 20.6161 45.806C20.6212 45.7723 20.6145 45.7379 20.5971 45.7085C20.5755 45.6859 20.5472 45.6709 20.5163 45.6657L19.5574 45.4019C19.8629 45.3886 20.1617 45.3074 20.432 45.1643L18.8955 44.8981C18.6733 44.8601 18.438 44.8137 18.2717 44.6605C18.8197 44.5728 19.3744 44.533 19.9293 44.5416C19.8236 44.2398 19.9638 43.8988 20.1824 43.6635C20.5246 43.2916 21.0249 43.1169 21.5026 42.9505C21.9803 42.7842 22.4413 42.6166 22.8976 42.4146C23.651 42.0831 24.383 41.6636 24.9641 41.0742C24.9546 41.1122 24.945 41.1503 24.9344 41.193C24.8393 41.5174 25.2374 41.7777 25.2908 42.1092C25.3182 42.3409 25.178 42.5619 25.0282 42.7414Z" fill="url(#paint17_linear_382_4550)"/>
<path d="M31.7028 39.7163C31.6149 40.2724 31.527 40.844 31.6482 41.3942C31.7825 42.0061 32.1675 42.5492 32.2423 43.1766C32.3124 43.7553 32.1033 44.3447 32.19 44.9222C32.2174 45.1075 32.3089 45.319 32.4954 45.3464C32.6392 45.3666 32.7699 45.2632 32.8721 45.1598C33.5506 44.4682 33.8691 43.5093 34.1661 42.5872C34.3254 42.0917 34.4858 41.5831 34.4573 41.0638C34.424 40.4602 34.1388 39.9029 33.8453 39.3741C33.5328 38.8085 33.0931 37.9992 32.4538 37.7449C31.9785 37.556 31.9975 37.8721 31.9298 38.2927C31.8526 38.7645 31.7789 39.241 31.7028 39.7163Z" fill="#161419"/>
<path opacity="0.18" d="M42.057 66.7175C29.4383 66.7175 19.2088 56.488 19.2088 43.8693C19.2088 31.2505 29.4383 21.021 42.057 21.021C54.6758 21.021 64.9053 31.2505 64.9053 43.8693C64.9053 56.488 54.6758 66.7175 42.057 66.7175Z" fill="#F90093"/>
<path opacity="0.18" d="M41.6342 61.1228C31.8716 61.1228 23.9574 53.2086 23.9574 43.4459C23.9574 33.6832 31.8716 25.769 41.6342 25.769C51.3969 25.769 59.3111 33.6832 59.3111 43.4459C59.3111 53.2086 51.3969 61.1228 41.6342 61.1228Z" fill="#F90093"/>
<path d="M39.2494 55.7322L35.877 64.7774C35.4516 65.9193 35.0238 67.0672 34.7993 68.265C34.7799 68.3263 34.7733 68.3908 34.7796 68.4547C34.7859 68.5186 34.8051 68.5806 34.8361 68.6369C34.9142 68.7175 35.0189 68.7669 35.1308 68.7759C39.2672 69.5994 43.5165 67.9061 47.7266 68.2175C49.3426 68.3363 51.0217 68.7439 52.5427 68.1866C52.7874 68.0974 53.0417 67.9655 53.1487 67.7279C53.1978 67.5969 53.2212 67.4577 53.2176 67.3179C53.3337 64.4139 53.0539 61.5076 52.3858 58.6791C52.1482 57.6524 51.8451 56.627 51.3294 55.7084C49.7015 52.8078 46.101 51.2643 44.9472 48.145C45.0517 48.429 42.7809 49.4189 42.529 49.5092C41.904 49.7361 41.0033 49.7623 40.6088 50.3778C40.2345 50.9624 40.3497 51.8988 40.2297 52.5535C40.0241 53.6503 39.6367 54.6996 39.2494 55.7322Z" fill="#F90093"/>
<path opacity="0.69" d="M39.2494 55.7322L35.877 64.7774C35.4516 65.9193 35.0238 67.0672 34.7993 68.265C34.7799 68.3263 34.7733 68.3908 34.7796 68.4547C34.7859 68.5186 34.8051 68.5806 34.8361 68.6369C34.9142 68.7175 35.0189 68.7669 35.1308 68.7759C39.2672 69.5994 43.5165 67.9061 47.7266 68.2175C49.3426 68.3363 51.0217 68.7439 52.5427 68.1866C52.7874 68.0974 53.0417 67.9655 53.1487 67.7279C53.1978 67.5969 53.2212 67.4577 53.2176 67.3179C53.3337 64.4139 53.0539 61.5076 52.3858 58.6791C52.1482 57.6524 51.8451 56.627 51.3294 55.7084C49.7015 52.8078 46.101 51.2643 44.9472 48.145C45.0517 48.429 42.7809 49.4189 42.529 49.5092C41.904 49.7361 41.0033 49.7623 40.6088 50.3778C40.2345 50.9624 40.3497 51.8988 40.2297 52.5535C40.0241 53.6503 39.6367 54.6996 39.2494 55.7322Z" fill="url(#paint18_radial_382_4550)"/>
<path d="M45.7207 53.2674C45.3249 53.5734 44.9102 53.854 44.4789 54.1075C44.226 54.2735 43.9437 54.3897 43.6472 54.4498C43.3432 54.4784 43.0366 54.4527 42.7417 54.3737C42.2759 54.2775 41.8113 54.1776 41.3478 54.0683C41.0921 54.0221 40.847 53.9299 40.6242 53.7962C40.5146 53.7271 40.4245 53.6314 40.3621 53.5179C40.2997 53.4044 40.2673 53.2769 40.2677 53.1474C40.2855 52.8896 40.5386 52.6495 40.7917 52.7066C40.9062 52.7442 41.0127 52.803 41.1054 52.88C41.5724 53.1997 42.157 53.2852 42.7203 53.3435C43.0946 53.3827 43.482 53.4112 43.8408 53.2948C44.2579 53.1581 44.5859 52.8396 44.8996 52.5319C45.2739 52.1623 46.1972 50.8053 46.682 51.4993C47.1062 52.1124 46.1223 52.9585 45.7207 53.2674Z" fill="#F90093"/>
<path d="M43.7576 31.0558C43.9727 31.3113 44.3958 31.2531 44.6025 31.5145C44.8093 31.7759 44.9495 32.0849 45.1479 32.3534C45.3464 32.622 45.6232 32.8679 45.7849 33.1781C46.1318 33.8566 45.8027 34.7502 45.1729 35.1791C44.921 35.3514 44.6132 35.4798 44.4766 35.7519C44.4243 35.8707 44.3914 35.997 44.3791 36.1262C44.2912 36.712 44.2175 37.3656 44.5597 37.8492C44.7665 38.1403 45.0921 38.3245 45.3535 38.5622C46.1211 39.2751 46.2602 40.5098 45.811 41.4521C45.3618 42.3944 44.4207 43.0432 43.4107 43.307C42.7654 43.4745 42.0537 43.5197 41.5356 43.938C41.2527 44.1661 41.0602 44.4846 40.7941 44.7317C40.4103 45.0882 39.9005 45.2831 39.3931 45.4174C38.8857 45.5516 38.2725 45.6289 37.8174 45.3354C37.0843 44.8601 37.1187 43.7431 36.521 43.1085C35.978 42.5358 34.9834 42.436 34.6435 41.7242C34.3857 41.1859 34.6364 40.5466 34.9394 40.0333C35.2214 39.5566 35.5506 39.1095 35.9221 38.6988C36.3356 38.2413 36.8407 37.6947 36.6743 37.1006C36.5293 36.5873 35.9495 36.3413 35.6274 35.9123C35.4891 35.7163 35.396 35.4921 35.3549 35.2558C35.3138 35.0195 35.3257 34.7769 35.3898 34.5458C35.5221 34.0826 35.7819 33.6659 36.1396 33.3432C36.4212 33.0747 36.7539 32.8394 36.9298 32.4913C37.1057 32.1431 37.095 31.7355 37.1674 31.3529C37.2375 30.9901 37.3837 30.6462 37.5964 30.344C37.7295 30.161 42.0762 29.0595 43.7576 31.0558Z" fill="#161419"/>
<path d="M43.7576 31.0558C43.9727 31.3113 44.3958 31.2531 44.6025 31.5145C44.8093 31.7759 44.9495 32.0849 45.1479 32.3534C45.3464 32.622 45.6232 32.8679 45.7849 33.1781C46.1318 33.8566 45.8027 34.7502 45.1729 35.1791C44.921 35.3514 44.6132 35.4798 44.4766 35.7519C44.4243 35.8707 44.3914 35.997 44.3791 36.1262C44.2912 36.712 44.2175 37.3656 44.5597 37.8492C44.7665 38.1403 45.0921 38.3245 45.3535 38.5622C46.1211 39.2751 46.2602 40.5098 45.811 41.4521C45.3618 42.3944 44.4207 43.0432 43.4107 43.307C42.7654 43.4745 42.0537 43.5197 41.5356 43.938C41.2527 44.1661 41.0602 44.4846 40.7941 44.7317C40.4103 45.0882 39.9005 45.2831 39.3931 45.4174C38.8857 45.5516 38.2725 45.6289 37.8174 45.3354C37.0843 44.8601 37.1187 43.7431 36.521 43.1085C35.978 42.5358 34.9834 42.436 34.6435 41.7242C34.3857 41.1859 34.6364 40.5466 34.9394 40.0333C35.2214 39.5566 35.5506 39.1095 35.9221 38.6988C36.3356 38.2413 36.8407 37.6947 36.6743 37.1006C36.5293 36.5873 35.9495 36.3413 35.6274 35.9123C35.4891 35.7163 35.396 35.4921 35.3549 35.2558C35.3138 35.0195 35.3257 34.7769 35.3898 34.5458C35.5221 34.0826 35.7819 33.6659 36.1396 33.3432C36.4212 33.0747 36.7539 32.8394 36.9298 32.4913C37.1057 32.1431 37.095 31.7355 37.1674 31.3529C37.2375 30.9901 37.3837 30.6462 37.5964 30.344C37.7295 30.161 42.0762 29.0595 43.7576 31.0558Z" fill="url(#paint19_linear_382_4550)"/>
<path d="M38.8429 39.8896C38.1228 40.119 37.3634 40.3745 36.8798 40.9591C36.6545 41.2433 36.4866 41.5686 36.3855 41.9169C35.8876 43.489 36.2667 45.1929 36.1229 46.8363C36.0031 48.2033 35.5256 49.5147 34.7385 50.6388C34.1444 51.4801 34.06 52.6149 34.0386 53.6428C34.0173 54.6707 34.363 55.7449 35.1402 56.4174C35.9173 57.09 37.1603 57.2492 37.9861 56.6408C38.6682 56.1346 38.9367 55.2553 39.1482 54.4306C39.5927 52.6672 39.9289 50.8468 39.7531 49.037C39.6521 47.9925 39.3811 46.9718 39.1934 45.9404C38.8322 43.9512 38.5898 41.8919 38.8429 39.8896Z" fill="#F90093"/>
<path d="M38.8429 39.8896C38.1228 40.119 37.3634 40.3745 36.8798 40.9591C36.6545 41.2433 36.4866 41.5686 36.3855 41.9169C35.8876 43.489 36.2667 45.1929 36.1229 46.8363C36.0031 48.2033 35.5256 49.5147 34.7385 50.6388C34.1444 51.4801 34.06 52.6149 34.0386 53.6428C34.0173 54.6707 34.363 55.7449 35.1402 56.4174C35.9173 57.09 37.1603 57.2492 37.9861 56.6408C38.6682 56.1346 38.9367 55.2553 39.1482 54.4306C39.5927 52.6672 39.9289 50.8468 39.7531 49.037C39.6521 47.9925 39.3811 46.9718 39.1934 45.9404C38.8322 43.9512 38.5898 41.8919 38.8429 39.8896Z" fill="url(#paint20_linear_382_4550)"/>
<path d="M37.0926 43.0103C36.9697 43.513 36.9602 44.0368 37.0648 44.5436C37.1694 45.0504 37.3855 45.5276 37.6974 45.9406C38.2357 46.6429 39.0449 47.1396 39.4287 47.9357C39.7852 48.6796 39.7222 49.5874 40.1512 50.2921C40.4661 50.8102 41.0044 51.1453 41.5237 51.4601C41.8376 51.6722 42.1806 51.8375 42.542 51.9509C43.356 52.1612 44.2603 51.7976 44.7903 51.1453C45.3202 50.4929 45.4973 49.6005 45.3713 48.7687C45.3072 48.3385 45.1669 47.9238 45.0636 47.502C44.6762 45.8959 44.8141 44.2079 45.4569 42.6859C45.6541 42.2201 45.9025 41.7638 45.9762 41.26C46.0498 40.7561 45.9061 40.1822 45.4759 39.9148C45.2062 39.7473 44.8734 39.7271 44.5562 39.7223C43.4713 39.7081 42.3899 39.8316 41.3122 39.96C40.3699 40.0681 39.3883 40.1869 38.5554 40.6729C37.821 41.1055 37.2958 42.1999 37.0926 43.0103Z" fill="#F90093"/>
<path d="M37.0926 43.0103C36.9697 43.513 36.9602 44.0368 37.0648 44.5436C37.1694 45.0504 37.3855 45.5276 37.6974 45.9406C38.2357 46.6429 39.0449 47.1396 39.4287 47.9357C39.7852 48.6796 39.7222 49.5874 40.1512 50.2921C40.4661 50.8102 41.0044 51.1453 41.5237 51.4601C41.8376 51.6722 42.1806 51.8375 42.542 51.9509C43.356 52.1612 44.2603 51.7976 44.7903 51.1453C45.3202 50.4929 45.4973 49.6005 45.3713 48.7687C45.3072 48.3385 45.1669 47.9238 45.0636 47.502C44.6762 45.8959 44.8141 44.2079 45.4569 42.6859C45.6541 42.2201 45.9025 41.7638 45.9762 41.26C46.0498 40.7561 45.9061 40.1822 45.4759 39.9148C45.2062 39.7473 44.8734 39.7271 44.5562 39.7223C43.4713 39.7081 42.3899 39.8316 41.3122 39.96C40.3699 40.0681 39.3883 40.1869 38.5554 40.6729C37.821 41.1055 37.2958 42.1999 37.0926 43.0103Z" fill="url(#paint21_linear_382_4550)"/>
<path d="M41.3775 38.8188C41.4036 39.1467 41.6757 39.4129 41.9811 39.5317C42.2865 39.6506 42.6264 39.6565 42.9555 39.6577C43.3037 39.6577 43.9656 39.4949 44.2828 39.6339C44.6001 39.7729 44.4801 40.2079 44.391 40.5525C44.2923 40.9371 44.1113 41.2957 43.8604 41.6035C43.6094 41.9113 43.2946 42.1608 42.9377 42.3349C42.5701 42.4901 42.1863 42.6037 41.7934 42.6735L39.3895 43.1916C38.9213 43.2926 38.4389 43.4839 38.0824 43.1013C37.7259 42.7187 37.6902 42.1222 37.8447 41.6552C38.0408 41.0789 38.4519 40.5976 38.6682 40.0284C38.9272 39.3452 39.4228 38.8651 39.0603 36.6181C39.0104 36.3103 39.74 37.438 40.0466 37.4938C40.214 37.5377 40.3649 37.6299 40.4803 37.7588C40.8047 38.0701 41.3418 38.3827 41.3775 38.8188Z" fill="url(#paint22_linear_382_4550)"/>
<path d="M44.221 34.7481C44.1171 35.4772 43.9277 36.1916 43.6566 36.8763C43.3848 37.5635 42.9587 38.1791 42.4113 38.6754C42.0869 38.957 41.6793 39.1935 41.2515 39.1507C41.0217 39.1164 40.8026 39.0303 40.611 38.8988C39.6449 38.2904 39.0663 37.215 38.7502 36.117C38.4341 36.0636 38.2012 35.7914 38.0467 35.5098C37.8566 35.1652 37.7413 34.7493 37.8744 34.3786C37.9051 34.2852 37.962 34.2027 38.0384 34.1409C38.103 34.1007 38.1763 34.0765 38.2522 34.0705C38.3281 34.0645 38.4044 34.0769 38.4745 34.1065C38.6135 34.168 38.7412 34.2524 38.8524 34.356C39.1708 33.8534 39.4988 33.3388 39.9717 32.9764C40.4432 32.6275 41.0109 32.4325 41.5973 32.4179C42.1816 32.405 42.7611 32.527 43.2906 32.7744C43.6138 32.9217 44.0891 33.1594 44.2674 33.4874C44.4456 33.8153 44.2769 34.4 44.221 34.7481Z" fill="url(#paint23_linear_382_4550)"/>
<path d="M44.8746 39.6904C47.5874 40.0469 50.1458 41.1924 52.4582 42.654C53.221 43.1293 54.0101 43.7163 54.2703 44.579C54.3584 44.9097 54.3941 45.2521 54.376 45.5938C54.3558 46.5123 54.174 47.4499 53.688 48.2318C53.202 49.0137 52.3809 49.6173 51.4624 49.6862C50.9479 49.7255 50.3929 49.6043 49.9331 49.8276C49.7097 49.9358 49.5172 50.1188 49.2736 50.1616C48.8054 50.2447 48.4097 49.7635 48.3301 49.2941C48.2505 48.8247 48.3693 48.3435 48.3301 47.8682C48.3051 47.5473 48.2113 47.236 48.1697 46.9176C48.1281 46.5991 48.1506 46.2533 48.3348 45.9907C48.5333 45.7091 48.8921 45.5582 49.0478 45.2516C47.7811 44.396 46.2185 43.916 45.2453 42.7407C45.0956 42.5613 44.9554 42.3415 44.991 42.1098C45.0421 41.7771 45.4402 41.5156 45.3475 41.1936C45.1859 40.6636 45.2263 40.117 44.8746 39.6904Z" fill="#F90093"/>
<path d="M44.9876 42.1098C44.952 42.3415 45.0922 42.5625 45.2419 42.7419C46.2199 43.9183 47.7824 44.3972 49.0444 45.2516C48.8887 45.5593 48.5311 45.7103 48.3314 45.9919C48.1461 46.2545 48.1247 46.5991 48.1651 46.9187C48.2055 47.2384 48.3017 47.5473 48.3267 47.8694C48.3611 48.3233 48.2566 48.7808 48.3148 49.2288C48.3148 49.2513 48.3148 49.2727 48.3231 49.2941C48.4039 49.7635 48.7984 50.2447 49.2678 50.1616C49.5114 50.1188 49.7039 49.9358 49.9273 49.8276C50.3919 49.6043 50.9421 49.7243 51.4578 49.6874C52.3728 49.6173 53.1962 49.0125 53.6811 48.2306C54.1659 47.4487 54.3501 46.5123 54.3703 45.5926C54.3889 45.2513 54.3532 44.9092 54.2645 44.579C54.0055 43.7163 53.2153 43.1341 52.4536 42.654C50.1388 41.1924 47.5816 40.0398 44.87 39.6904C45.1956 40.0885 45.1849 40.5876 45.3061 41.0819C45.3156 41.1199 45.3251 41.158 45.3358 41.2007C45.4368 41.518 45.0363 41.7782 44.9876 42.1098Z" fill="url(#paint24_linear_382_4550)"/>
<path d="M35.612 60.1344C35.4932 59.7934 35.5063 59.4215 35.5193 59.065C35.0999 59.6092 34.4071 59.8849 33.7238 59.9479C33.0406 60.0109 32.3549 59.8861 31.68 59.7625C31.6277 59.652 31.7774 59.5581 31.8963 59.5248L32.9883 59.2385C32.8745 59.2622 32.7571 59.2626 32.6432 59.2397C32.5292 59.2168 32.4211 59.1711 32.3252 59.1054L33.2758 58.8345L32.7185 58.5909C33.3229 58.4961 33.902 58.2807 34.4214 57.9575C34.7619 57.761 35.0511 57.4865 35.265 57.1566C35.3969 56.9344 35.4908 56.6682 35.7118 56.5316C35.9602 56.3771 36.5139 56.4591 36.6708 56.7419C36.8098 56.9938 36.6125 57.3657 36.5353 57.6224C36.2806 58.4783 35.9722 59.3173 35.612 60.1344Z" fill="url(#paint25_linear_382_4550)"/>
<path d="M54.432 61.0792C54.5935 61.3473 54.6816 61.6531 54.6874 61.966C54.6933 62.2789 54.6166 62.5878 54.4652 62.8617C55.4658 63.7541 55.6238 65.439 54.8063 66.5014C54.0089 67.5375 52.5248 67.856 51.2486 67.5708C49.9723 67.2856 48.866 66.5014 47.8643 65.6636C46.5311 64.5455 45.2739 63.2372 44.6976 61.595C44.2722 60.3829 44.2472 59.0722 44.2543 57.7925C44.2591 56.7476 44.2821 55.7031 44.3233 54.659C44.3339 54.3714 44.4801 53.9769 44.7582 54.0518C45.3083 55.3339 45.7088 56.6802 46.3457 57.9232C46.9826 59.1661 47.8905 60.3318 49.1536 60.9236C49.6198 61.1461 50.1274 61.2685 50.6438 61.2829C51.1602 61.2972 51.6738 61.2031 52.1516 61.0068C53.0595 60.6039 53.6382 59.7888 54.432 61.0792Z" fill="#F90093"/>
<path d="M42.8758 54.1607C42.8263 54.0834 42.7528 54.0245 42.6666 53.9931C42.4207 53.929 42.2686 54.251 42.2175 54.4994C41.7944 56.6026 41.1849 58.6975 40.0714 60.5299C38.958 62.3622 37.2932 63.926 35.2541 64.589C35.0974 64.6291 34.9484 64.6949 34.8133 64.7839C34.5293 65.0026 34.4746 65.4303 34.6053 65.7643C34.6585 65.8728 34.6984 65.9873 34.7242 66.1053C34.7295 66.2797 34.6958 66.453 34.6255 66.6127C34.4485 67.1831 34.5245 67.8651 34.9464 68.2882C35.4431 68.7872 36.282 68.7932 36.9142 68.4842C37.5463 68.1753 38.0157 67.6144 38.4459 67.0583C40.8557 63.945 42.3315 60.6202 42.8176 56.7202C42.9364 55.8124 43.5448 55.0472 42.8758 54.1607Z" fill="#F90093"/>
<path d="M45.7207 53.2674C45.3249 53.5734 44.9102 53.854 44.4789 54.1075C44.226 54.2735 43.9437 54.3897 43.6472 54.4498C43.3432 54.4784 43.0366 54.4527 42.7417 54.3737C42.2759 54.2775 41.8113 54.1776 41.3478 54.0683C41.0921 54.0221 40.847 53.9299 40.6242 53.7962C40.5146 53.7271 40.4245 53.6314 40.3621 53.5179C40.2997 53.4044 40.2673 53.2769 40.2677 53.1474C40.2855 52.8896 40.5386 52.6495 40.7917 52.7066C40.9062 52.7442 41.0127 52.803 41.1054 52.88C41.5724 53.1997 42.157 53.2852 42.7203 53.3435C43.0946 53.3827 43.482 53.4112 43.8408 53.2948C44.2579 53.1581 44.5859 52.8396 44.8996 52.5319C45.2739 52.1623 46.1972 50.8053 46.682 51.4993C47.1062 52.1124 46.1223 52.9585 45.7207 53.2674Z" fill="url(#paint26_linear_382_4550)"/>
<path opacity="0.25" d="M45.3583 52.129C45.5318 52.2098 45.7504 52.1112 45.9215 52.1979C45.985 52.2392 46.0443 52.2866 46.0986 52.3394C46.3006 52.501 46.5858 52.5069 46.8424 52.4677C46.953 52.4415 47.0674 52.4358 47.1799 52.4511C47.439 52.5093 47.5685 52.8004 47.7895 52.9478C47.8949 53.0179 48.0194 53.0536 48.146 53.0499C48.2067 53.0529 48.2673 53.0403 48.3218 53.0132C48.3762 52.9862 48.4229 52.9456 48.4573 52.8955C48.5654 52.7065 48.3991 52.4843 48.2446 52.331L45.9096 50.0198C45.7988 49.8928 45.6601 49.7932 45.5044 49.7287C45.4643 49.713 45.4203 49.7101 45.3785 49.7204C45.3419 49.7353 45.3091 49.758 45.2822 49.7869C44.9697 50.0816 44.4694 50.5284 44.8354 50.9431C44.9721 51.0988 45.079 51.2022 45.1159 51.4184C45.1551 51.6525 45.0885 52.0019 45.3583 52.129Z" fill="url(#paint27_linear_382_4550)"/>
<path d="M44.6976 61.5851C45.2739 63.2273 46.5311 64.5355 47.8644 65.6537C48.8673 66.4938 49.9724 67.2769 51.2486 67.5609C52.5248 67.8449 54.0078 67.5276 54.8063 66.4915C55.0033 66.2341 55.1478 65.9406 55.2317 65.6276C55.4967 64.6579 55.2222 63.5291 54.4653 62.8541C54.6167 62.5803 54.6933 62.2713 54.6875 61.9585C54.6816 61.6456 54.5935 61.3397 54.432 61.0717C53.6382 59.7884 53.0595 60.5964 52.1517 60.9921C51.6738 61.1881 51.1603 61.282 50.644 61.2679C50.1277 61.2538 49.6201 61.1319 49.1537 60.9101C47.8917 60.316 46.9803 59.1503 46.3458 57.9085C45.7112 56.6668 45.3084 55.3192 44.757 54.0359C44.7035 54.0231 44.6474 54.0277 44.5967 54.0491C44.546 54.0705 44.5035 54.1075 44.4754 54.1547C44.4695 54.1619 44.4659 54.169 44.4611 54.1749C44.374 54.3184 44.3265 54.4824 44.3233 54.6502L44.3233 54.6859C44.2837 55.7157 44.2611 56.7484 44.2556 57.7837C44.2473 59.0588 44.2734 60.3742 44.6976 61.5851Z" fill="url(#paint28_linear_382_4550)"/>
<path d="M42.8758 54.1607C42.8263 54.0834 42.7528 54.0245 42.6666 53.9931C42.4207 53.929 42.2686 54.251 42.2175 54.4994C41.7944 56.6026 41.1849 58.6975 40.0714 60.5299C38.958 62.3622 37.2932 63.926 35.2541 64.589C35.0974 64.6291 34.9484 64.6949 34.8133 64.7839C34.5293 65.0026 34.4746 65.4303 34.6053 65.7643C34.6585 65.8728 34.6984 65.9873 34.7242 66.1053C34.7295 66.2797 34.6958 66.453 34.6255 66.6127C34.4485 67.1831 34.5245 67.8651 34.9464 68.2882C35.4431 68.7872 36.282 68.7932 36.9142 68.4842C37.5463 68.1753 38.0157 67.6144 38.4459 67.0583C40.8557 63.945 42.3315 60.6202 42.8176 56.7202C42.9364 55.8124 43.5448 55.0472 42.8758 54.1607Z" fill="url(#paint29_linear_382_4550)"/>
<path d="M40.9438 34.5033C40.9169 34.5031 40.8905 34.4965 40.8666 34.4843C40.7323 34.3987 40.9854 34.2003 40.9295 34.0517C40.6693 34.3928 40.2071 34.527 39.7781 34.5021C39.3491 34.4771 38.9463 34.3096 38.5447 34.1456C39.3325 33.5111 39.8078 32.4939 40.7157 32.0435C41.2884 31.7595 41.955 31.7477 42.5919 31.7904C42.8759 31.8106 43.6103 31.8665 43.6982 32.2384C43.7743 32.5616 43.3418 32.6769 43.1195 32.8135C42.3994 33.252 41.8992 34.5496 40.9438 34.5033Z" fill="#161419"/>
<path d="M43.924 29.421L43.028 31.2118C43.028 31.2118 41.2183 31.2498 40.1762 30.8315L39.8708 28.3361L40.7287 29.6504L41.5427 28.0117L41.9229 29.5743L42.914 28.0688L43.1041 29.9926L43.924 29.421Z" fill="#F4A324"/>
<path d="M38.8002 35.1448C38.7591 35.0729 38.7444 34.9888 38.7586 34.9072C38.7671 34.8054 38.7482 34.7033 38.7039 34.6113C38.6814 34.5658 38.6467 34.5274 38.6037 34.5003C38.5607 34.4733 38.5111 34.4586 38.4603 34.458C38.4336 34.4586 38.4076 34.4669 38.3855 34.4818C38.3559 34.5104 38.3367 34.548 38.3308 34.5887C38.2779 34.8116 38.2899 35.045 38.3653 35.2613C38.3957 35.3616 38.4513 35.4524 38.5269 35.5251C38.5652 35.5605 38.6119 35.5857 38.6626 35.5984C38.7132 35.6111 38.7663 35.6108 38.8168 35.5976C38.8745 35.5732 38.9254 35.5353 38.9653 35.4872C39.0052 35.439 39.033 35.3819 39.0461 35.3207C39.064 35.1627 38.881 35.2411 38.8002 35.1448Z" fill="url(#paint30_linear_382_4550)"/>
<path d="M54.4651 62.8506C54.4651 62.8506 51.8283 65.1416 48.7804 62.9575C48.7804 62.9575 50.5628 67.1736 55.2827 64.8374C55.2827 64.8374 55.4775 63.8119 54.4651 62.8506Z" fill="url(#paint31_linear_382_4550)"/>
<path d="M34.7302 66.1053C34.7302 66.1053 35.8793 66.1838 37.7841 64.1768C37.7841 64.1768 36.2857 66.488 34.634 66.9454L34.7302 66.1053Z" fill="url(#paint32_linear_382_4550)"/>
<path d="M44.6976 61.5851C45.2739 63.2273 46.5311 64.5356 47.8644 65.6538C48.8673 66.4939 49.9724 67.277 51.2486 67.561C52.5248 67.845 54.0078 67.5277 54.8063 66.4915C55.0032 66.2342 55.1478 65.9407 55.2317 65.6277C54.2478 66.9276 52.343 68.1373 49.0859 65.6003C44.0417 61.6731 44.4302 54.7703 44.4754 54.1536L44.4754 54.1108L44.4576 54.175L44.3185 54.6824C44.2789 55.7122 44.2563 56.7449 44.2508 57.7803C44.2472 59.0588 44.2734 60.3743 44.6976 61.5851Z" fill="url(#paint33_linear_382_4550)"/>
<path d="M47.0136 49.2094C46.8246 49.0692 46.6369 48.8779 46.4016 48.8886C46.274 48.9037 46.1535 48.9552 46.0546 49.0371C45.7079 49.2951 45.4432 49.6479 45.2927 50.053C45.1421 50.458 45.1121 50.8981 45.2062 51.3198L45.6066 50.7162C45.5134 50.8557 45.4556 51.0158 45.4382 51.1827C45.4209 51.3496 45.4444 51.5182 45.5068 51.6739C45.7222 51.5009 45.9059 51.2919 46.0499 51.056C46.0178 51.2331 45.9013 51.3828 45.8372 51.5515C45.773 51.7203 45.7825 51.9484 45.9393 52.0364L46.5739 51.4101C46.5656 51.529 46.5192 51.6407 46.5192 51.7571C46.5192 51.8736 46.587 52.0078 46.7034 52.0185C46.8817 52.0352 46.9411 51.7928 47.0718 51.6621C47.2453 51.4886 47.5364 51.5492 47.7669 51.6335C47.9975 51.7179 48.2684 51.8106 48.4799 51.6775C48.5871 51.5915 48.6692 51.4782 48.7175 51.3495C48.897 50.9752 49.0812 50.5783 49.0515 50.1613C49.0206 49.7263 48.7437 49.3746 48.3088 49.4424C47.8287 49.5232 47.4223 49.5148 47.0136 49.2094Z" fill="url(#paint34_linear_382_4550)"/>
<path d="M45.2417 42.7414C46.2196 43.9178 47.7822 44.3967 49.0442 45.251C48.8885 45.5588 48.5308 45.7097 48.3312 45.9913C48.1458 46.2539 48.1244 46.5985 48.1648 46.9182C48.2052 47.2378 48.3015 47.5468 48.3264 47.8688C48.3609 48.3227 48.2563 48.7802 48.3146 49.2282C48.4214 49.2302 48.5276 49.2101 48.6263 49.1692C48.7251 49.1283 48.8143 49.0675 48.8885 48.9905C49.2925 48.558 49.0584 47.8367 49.2842 47.2901C49.3769 47.0632 49.5492 46.8707 49.6264 46.6377C49.7132 46.3716 49.6668 46.0828 49.6538 45.806C49.6487 45.7723 49.6554 45.7379 49.6728 45.7085C49.6944 45.6859 49.7227 45.6709 49.7536 45.6657L50.7125 45.4019C50.407 45.3886 50.1082 45.3074 49.8379 45.1643L51.3744 44.8981C51.5966 44.8601 51.8319 44.8137 51.9982 44.6605C51.4502 44.5728 50.8955 44.533 50.3406 44.5416C50.4463 44.2398 50.3061 43.8988 50.0875 43.6635C49.7453 43.2916 49.245 43.1169 48.7673 42.9505C48.2896 42.7842 47.8286 42.6166 47.3723 42.4146C46.6189 42.0831 45.8869 41.6636 45.3058 41.0742C45.3153 41.1122 45.3248 41.1503 45.3355 41.193C45.4306 41.5174 45.0325 41.7777 44.9791 42.1092C44.9517 42.3409 45.0919 42.5619 45.2417 42.7414Z" fill="url(#paint35_linear_382_4550)"/>
<path d="M38.5671 39.7163C38.655 40.2724 38.7429 40.844 38.6217 41.3942C38.4874 42.0061 38.1024 42.5492 38.0276 43.1766C37.9575 43.7553 38.1666 44.3447 38.0799 44.9222C38.0525 45.1075 37.961 45.319 37.7745 45.3464C37.6307 45.3666 37.5 45.2632 37.3978 45.1598C36.7193 44.4682 36.4008 43.5093 36.1037 42.5872C35.9445 42.0917 35.7841 41.5831 35.8126 41.0638C35.8459 40.4602 36.1311 39.9029 36.4246 39.3741C36.7371 38.8085 37.1768 37.9992 37.8161 37.7449C38.2914 37.556 38.2724 37.8721 38.3401 38.2927C38.4173 38.7645 38.491 39.241 38.5671 39.7163Z" fill="#161419"/>
<rect x="16.0624" y="8.75" width="51.7586" height="0.629283" fill="#361D5F"/>
<rect width="51.7586" height="0.629283" transform="matrix(1 0 0 -1 1.43158 83.1626)" fill="#361D5F"/>
<rect x="13.2307" y="8.75" width="1.73053" height="0.629283" fill="#361D5F"/>
<rect width="1.73053" height="0.629283" transform="matrix(1 0 0 -1 57.5952 83.1626)" fill="#361D5F"/>
<rect x="10.7135" y="8.75" width="1.73053" height="0.629283" fill="#361D5F"/>
<rect width="1.73053" height="0.629283" transform="matrix(1 0 0 -1 55.0781 83.1626)" fill="#361D5F"/>
<defs>
<radialGradient id="paint0_radial_382_4550" cx="0" cy="0" r="1" gradientUnits="userSpaceOnUse" gradientTransform="translate(26.2605 58.5793) scale(9.84847 9.84847)">
<stop offset="0.34" stop-color="white"/>
<stop offset="1" stop-color="white" stop-opacity="0.39"/>
</radialGradient>
<linearGradient id="paint1_linear_382_4550" x1="30.473" y1="36.6692" x2="28.062" y2="41.1907" gradientUnits="userSpaceOnUse">
<stop offset="0.01"/>
<stop offset="0.13" stop-opacity="0.69"/>
<stop offset="1" stop-opacity="0"/>
</linearGradient>
<linearGradient id="paint2_linear_382_4550" x1="30.4693" y1="48.4536" x2="36.2325" y2="48.4536" gradientUnits="userSpaceOnUse">
<stop offset="0.01"/>
<stop offset="0.13" stop-opacity="0.69"/>
<stop offset="1" stop-opacity="0"/>
</linearGradient>
<linearGradient id="paint3_linear_382_4550" x1="22.2786" y1="49.5149" x2="33.3011" y2="40.2713" gradientUnits="userSpaceOnUse">
<stop offset="0.01"/>
<stop offset="0.13" stop-opacity="0.69"/>
<stop offset="1" stop-opacity="0"/>
</linearGradient>
<linearGradient id="paint4_linear_382_4550" x1="29.5581" y1="39.5151" x2="28.7572" y2="42.7151" gradientUnits="userSpaceOnUse">
<stop stop-color="#E5C5D5"/>
<stop offset="0.42" stop-color="#EAD4D1"/>
<stop offset="1" stop-color="#F0E9CB"/>
</linearGradient>
<linearGradient id="paint5_linear_382_4550" x1="32.7058" y1="34.4499" x2="26.9913" y2="36.2786" gradientUnits="userSpaceOnUse">
<stop stop-color="#E5C5D5"/>
<stop offset="0.42" stop-color="#EAD4D1"/>
<stop offset="1" stop-color="#F0E9CB"/>
</linearGradient>
<linearGradient id="paint6_linear_382_4550" x1="25.7495" y1="50.972" x2="18.3335" y2="40.0517" gradientUnits="userSpaceOnUse">
<stop offset="0.01"/>
<stop offset="0.13" stop-opacity="0.69"/>
<stop offset="1" stop-opacity="0"/>
</linearGradient>
<linearGradient id="paint7_linear_382_4550" x1="36.9074" y1="57.6141" x2="33.5541" y2="60.1534" gradientUnits="userSpaceOnUse">
<stop stop-color="#E5C5D5"/>
<stop offset="0.42" stop-color="#EAD4D1"/>
<stop offset="1" stop-color="#F0E9CB"/>
</linearGradient>
<linearGradient id="paint8_linear_382_4550" x1="26.3199" y1="55.7842" x2="26.8534" y2="51.6704" gradientUnits="userSpaceOnUse">
<stop offset="0.01"/>
<stop offset="0.13" stop-opacity="0.69"/>
<stop offset="1" stop-opacity="0"/>
</linearGradient>
<linearGradient id="paint9_linear_382_4550" x1="23.6475" y1="48.3111" x2="23.7248" y2="58.1405" gradientUnits="userSpaceOnUse">
<stop offset="0.01"/>
<stop offset="0.13" stop-opacity="0.69"/>
<stop offset="1" stop-opacity="0"/>
</linearGradient>
<linearGradient id="paint10_linear_382_4550" x1="26.3248" y1="70.1668" x2="18.5534" y2="56.7571" gradientUnits="userSpaceOnUse">
<stop offset="0.01"/>
<stop offset="0.13" stop-opacity="0.69"/>
<stop offset="1" stop-opacity="0"/>
</linearGradient>
<linearGradient id="paint11_linear_382_4550" x1="27.4131" y1="65.7987" x2="33.1276" y2="59.1705" gradientUnits="userSpaceOnUse">
<stop offset="0.01"/>
<stop offset="0.13" stop-opacity="0.69"/>
<stop offset="1" stop-opacity="0"/>
</linearGradient>
<linearGradient id="paint12_linear_382_4550" x1="31.2229" y1="35.0331" x2="31.9715" y2="35.0331" gradientUnits="userSpaceOnUse">
<stop stop-color="#E5C5D5"/>
<stop offset="0.42" stop-color="#EAD4D1"/>
<stop offset="1" stop-color="#F0E9CB"/>
</linearGradient>
<linearGradient id="paint13_linear_382_4550" x1="18.797" y1="59.685" x2="17.6538" y2="67.8378" gradientUnits="userSpaceOnUse">
<stop offset="0.01"/>
<stop offset="0.13" stop-opacity="0.69"/>
<stop offset="1" stop-opacity="0"/>
</linearGradient>
<linearGradient id="paint14_linear_382_4550" x1="34.5132" y1="62.3337" x2="33.6742" y2="68.3239" gradientUnits="userSpaceOnUse">
<stop offset="0.01"/>
<stop offset="0.13" stop-opacity="0.69"/>
<stop offset="1" stop-opacity="0"/>
</linearGradient>
<linearGradient id="paint15_linear_382_4550" x1="15.0383" y1="60.884" x2="26.0169" y2="60.884" gradientUnits="userSpaceOnUse">
<stop offset="0.01"/>
<stop offset="0.13" stop-opacity="0.69"/>
<stop offset="1" stop-opacity="0"/>
</linearGradient>
<linearGradient id="paint16_linear_382_4550" x1="23.2351" y1="52.6555" x2="23.159" y2="50.1803" gradientUnits="userSpaceOnUse">
<stop stop-color="#E5C5D5"/>
<stop offset="0.42" stop-color="#EAD4D1"/>
<stop offset="1" stop-color="#F0E9CB"/>
</linearGradient>
<linearGradient id="paint17_linear_382_4550" x1="27.5201" y1="49.4825" x2="15.6848" y2="37.3941" gradientUnits="userSpaceOnUse">
<stop offset="0.01"/>
<stop offset="0.13" stop-opacity="0.69"/>
<stop offset="1" stop-opacity="0"/>
</linearGradient>
<radialGradient id="paint18_radial_382_4550" cx="0" cy="0" r="1" gradientUnits="userSpaceOnUse" gradientTransform="translate(44.0096 58.5793) rotate(180) scale(9.84847 9.84847)">
<stop offset="0.34" stop-color="white"/>
<stop offset="1" stop-color="white" stop-opacity="0.39"/>
</radialGradient>
<linearGradient id="paint19_linear_382_4550" x1="39.7971" y1="36.6692" x2="42.2081" y2="41.1907" gradientUnits="userSpaceOnUse">
<stop offset="0.01"/>
<stop offset="0.13" stop-opacity="0.69"/>
<stop offset="1" stop-opacity="0"/>
</linearGradient>
<linearGradient id="paint20_linear_382_4550" x1="39.8006" y1="48.4536" x2="34.0375" y2="48.4536" gradientUnits="userSpaceOnUse">
<stop offset="0.01"/>
<stop offset="0.13" stop-opacity="0.69"/>
<stop offset="1" stop-opacity="0"/>
</linearGradient>
<linearGradient id="paint21_linear_382_4550" x1="47.9915" y1="49.5149" x2="36.969" y2="40.2713" gradientUnits="userSpaceOnUse">
<stop offset="0.01"/>
<stop offset="0.13" stop-opacity="0.69"/>
<stop offset="1" stop-opacity="0"/>
</linearGradient>
<linearGradient id="paint22_linear_382_4550" x1="40.712" y1="39.5151" x2="41.5129" y2="42.7151" gradientUnits="userSpaceOnUse">
<stop stop-color="#E5C5D5"/>
<stop offset="0.42" stop-color="#EAD4D1"/>
<stop offset="1" stop-color="#F0E9CB"/>
</linearGradient>
<linearGradient id="paint23_linear_382_4550" x1="37.5643" y1="34.4499" x2="43.2787" y2="36.2786" gradientUnits="userSpaceOnUse">
<stop stop-color="#E5C5D5"/>
<stop offset="0.42" stop-color="#EAD4D1"/>
<stop offset="1" stop-color="#F0E9CB"/>
</linearGradient>
<linearGradient id="paint24_linear_382_4550" x1="44.5206" y1="50.972" x2="51.9367" y2="40.0517" gradientUnits="userSpaceOnUse">
<stop offset="0.01"/>
<stop offset="0.13" stop-opacity="0.69"/>
<stop offset="1" stop-opacity="0"/>
</linearGradient>
<linearGradient id="paint25_linear_382_4550" x1="33.3626" y1="57.6141" x2="36.7159" y2="60.1534" gradientUnits="userSpaceOnUse">
<stop stop-color="#E5C5D5"/>
<stop offset="0.42" stop-color="#EAD4D1"/>
<stop offset="1" stop-color="#F0E9CB"/>
</linearGradient>
<linearGradient id="paint26_linear_382_4550" x1="43.9502" y1="55.7842" x2="43.4166" y2="51.6704" gradientUnits="userSpaceOnUse">
<stop offset="0.01"/>
<stop offset="0.13" stop-opacity="0.69"/>
<stop offset="1" stop-opacity="0"/>
</linearGradient>
<linearGradient id="paint27_linear_382_4550" x1="46.6226" y1="48.3111" x2="46.5454" y2="58.1405" gradientUnits="userSpaceOnUse">
<stop offset="0.01"/>
<stop offset="0.13" stop-opacity="0.69"/>
<stop offset="1" stop-opacity="0"/>
</linearGradient>
<linearGradient id="paint28_linear_382_4550" x1="43.9454" y1="70.1668" x2="51.7168" y2="56.7571" gradientUnits="userSpaceOnUse">
<stop offset="0.01"/>
<stop offset="0.13" stop-opacity="0.69"/>
<stop offset="1" stop-opacity="0"/>
</linearGradient>
<linearGradient id="paint29_linear_382_4550" x1="42.8568" y1="65.7987" x2="37.1423" y2="59.1705" gradientUnits="userSpaceOnUse">
<stop offset="0.01"/>
<stop offset="0.13" stop-opacity="0.69"/>
<stop offset="1" stop-opacity="0"/>
</linearGradient>
<linearGradient id="paint30_linear_382_4550" x1="39.0473" y1="35.0331" x2="38.2987" y2="35.0331" gradientUnits="userSpaceOnUse">
<stop stop-color="#E5C5D5"/>
<stop offset="0.42" stop-color="#EAD4D1"/>
<stop offset="1" stop-color="#F0E9CB"/>
</linearGradient>
<linearGradient id="paint31_linear_382_4550" x1="51.473" y1="59.685" x2="52.6162" y2="67.8378" gradientUnits="userSpaceOnUse">
<stop offset="0.01"/>
<stop offset="0.13" stop-opacity="0.69"/>
<stop offset="1" stop-opacity="0"/>
</linearGradient>
<linearGradient id="paint32_linear_382_4550" x1="35.7569" y1="62.3337" x2="36.5958" y2="68.3239" gradientUnits="userSpaceOnUse">
<stop offset="0.01"/>
<stop offset="0.13" stop-opacity="0.69"/>
<stop offset="1" stop-opacity="0"/>
</linearGradient>
<linearGradient id="paint33_linear_382_4550" x1="55.2317" y1="60.884" x2="44.2532" y2="60.884" gradientUnits="userSpaceOnUse">
<stop offset="0.01"/>
<stop offset="0.13" stop-opacity="0.69"/>
<stop offset="1" stop-opacity="0"/>
</linearGradient>
<linearGradient id="paint34_linear_382_4550" x1="47.0349" y1="52.6555" x2="47.111" y2="50.1803" gradientUnits="userSpaceOnUse">
<stop stop-color="#E5C5D5"/>
<stop offset="0.42" stop-color="#EAD4D1"/>
<stop offset="1" stop-color="#F0E9CB"/>
</linearGradient>
<linearGradient id="paint35_linear_382_4550" x1="42.7498" y1="49.4825" x2="54.5851" y2="37.3941" gradientUnits="userSpaceOnUse">
<stop offset="0.01"/>
<stop offset="0.13" stop-opacity="0.69"/>
<stop offset="1" stop-opacity="0"/>
</linearGradient>
</defs>
</svg>
