<svg width="456" height="588" viewBox="0 0 456 588" fill="none" xmlns="http://www.w3.org/2000/svg">
<rect width="455.224" height="588" rx="4" transform="matrix(-1 0 0 1 455.676 0)" fill="#F7F7F7"/>
<rect x="-0.5" y="0.5" width="454.224" height="587" rx="3.5" transform="matrix(-1 0 0 1 454.676 0)" stroke="#361D5F" stroke-opacity="0.5"/>
<rect width="455.224" height="588" rx="4" transform="matrix(-1 0 0 1 455.676 0)" fill="#F7F7F7"/>
<rect x="-0.5" y="0.5" width="454.224" height="587" rx="3.5" transform="matrix(-1 0 0 1 454.676 0)" stroke="#361D5F" stroke-opacity="0.5"/>
<mask id="path-5-inside-1_176_54" fill="white">
<path fill-rule="evenodd" clip-rule="evenodd" d="M38.729 153.165L42.9934 157.493L65.0986 136.683L61.0453 132.569L66.0454 127.955C68.0746 126.082 68.1645 122.953 66.2462 120.967L52.233 106.458C50.3146 104.472 47.1144 104.38 45.0851 106.252L39.8627 111.072L34.7183 105.851C32.7797 103.884 29.5786 103.823 27.5684 105.716L12.7427 119.673C10.7325 121.565 10.6745 124.694 12.6131 126.662L17.5464 131.668L13.0551 135.813L34.0154 157.515L38.729 153.165Z"/>
</mask>
<path fill-rule="evenodd" clip-rule="evenodd" d="M38.729 153.165L42.9934 157.493L65.0986 136.683L61.0453 132.569L66.0454 127.955C68.0746 126.082 68.1645 122.953 66.2462 120.967L52.233 106.458C50.3146 104.472 47.1144 104.38 45.0851 106.252L39.8627 111.072L34.7183 105.851C32.7797 103.884 29.5786 103.823 27.5684 105.716L12.7427 119.673C10.7325 121.565 10.6745 124.694 12.6131 126.662L17.5464 131.668L13.0551 135.813L34.0154 157.515L38.729 153.165Z" fill="#361D5F"/>
<path d="M42.9934 157.493L42.2655 158.178L42.9675 158.891L43.6954 158.205L42.9934 157.493ZM38.729 153.165L39.4569 152.48L38.7619 151.774L38.0343 152.446L38.729 153.165ZM65.0986 136.683L65.8006 137.395L66.5286 136.71L65.8265 135.997L65.0986 136.683ZM61.0453 132.569L60.3506 131.85L59.6084 132.535L60.3175 133.255L61.0453 132.569ZM66.0454 127.955L65.3507 127.235L66.0454 127.955ZM45.0851 106.252L44.3904 105.533L45.0851 106.252ZM39.8627 111.072L39.1349 111.758L39.8299 112.463L40.5574 111.791L39.8627 111.072ZM34.7183 105.851L33.9905 106.537L33.9905 106.537L34.7183 105.851ZM27.5684 105.716L28.2703 106.428L27.5684 105.716ZM12.7427 119.673L12.0407 118.96L12.7427 119.673ZM12.6131 126.662L13.341 125.976L13.341 125.976L12.6131 126.662ZM17.5464 131.668L18.2411 132.387L18.9834 131.702L18.2743 130.983L17.5464 131.668ZM13.0551 135.813L12.3604 135.094L11.6256 135.772L12.3203 136.491L13.0551 135.813ZM34.0154 157.515L33.2805 158.194L33.9752 158.913L34.7101 158.235L34.0154 157.515ZM43.7213 156.807L39.4569 152.48L38.0012 153.851L42.2655 158.178L43.7213 156.807ZM64.3967 135.97L42.2915 156.78L43.6954 158.205L65.8006 137.395L64.3967 135.97ZM60.3175 133.255L64.3708 137.368L65.8265 135.997L61.7732 131.884L60.3175 133.255ZM65.3507 127.235L60.3506 131.85L61.74 133.289L66.7401 128.674L65.3507 127.235ZM65.5113 121.645C67.046 123.234 66.9741 125.737 65.3507 127.235L66.7401 128.674C69.1752 126.427 69.2831 122.672 66.981 120.289L65.5113 121.645ZM51.4981 107.136L65.5113 121.645L66.981 120.289L52.9678 105.78L51.4981 107.136ZM45.7798 106.972C47.4032 105.473 49.9634 105.547 51.4981 107.136L52.9678 105.78C50.6658 103.396 46.8255 103.286 44.3904 105.533L45.7798 106.972ZM40.5574 111.791L45.7798 106.972L44.3904 105.533L39.168 110.353L40.5574 111.791ZM33.9905 106.537L39.1349 111.758L40.5906 110.387L35.4462 105.166L33.9905 106.537ZM28.2703 106.428C29.8785 104.914 32.4395 104.963 33.9905 106.537L35.4462 105.166C33.1199 102.805 29.2786 102.732 26.8664 105.003L28.2703 106.428ZM13.4446 120.385L28.2703 106.428L26.8664 105.003L12.0407 118.96L13.4446 120.385ZM13.341 125.976C11.7901 124.402 11.8365 121.899 13.4446 120.385L12.0407 118.96C9.62847 121.231 9.55887 124.986 11.8852 127.347L13.341 125.976ZM18.2743 130.983L13.341 125.976L11.8852 127.347L16.8186 132.354L18.2743 130.983ZM13.7498 136.532L18.2411 132.387L16.8517 130.949L12.3604 135.094L13.7498 136.532ZM34.7502 156.837L13.79 135.135L12.3203 136.491L33.2805 158.194L34.7502 156.837ZM38.0343 152.446L33.3207 156.796L34.7101 158.235L39.4237 153.884L38.0343 152.446Z" fill="#361D5F" fill-opacity="0.1" mask="url(#path-5-inside-1_176_54)"/>
<mask id="path-7-inside-2_176_54" fill="white">
<path fill-rule="evenodd" clip-rule="evenodd" d="M417.247 495.135L421.512 499.463L443.617 478.653L439.564 474.539L444.564 469.925C446.593 468.052 446.683 464.923 444.765 462.937L430.751 448.428C428.833 446.441 425.633 446.349 423.603 448.222L418.381 453.042L413.237 447.821C411.298 445.854 408.097 445.793 406.087 447.686L391.261 461.643C389.251 463.535 389.193 466.664 391.132 468.631L396.065 473.638L391.574 477.783L412.534 499.485L417.247 495.135Z"/>
</mask>
<path fill-rule="evenodd" clip-rule="evenodd" d="M417.247 495.135L421.512 499.463L443.617 478.653L439.564 474.539L444.564 469.925C446.593 468.052 446.683 464.923 444.765 462.937L430.751 448.428C428.833 446.441 425.633 446.349 423.603 448.222L418.381 453.042L413.237 447.821C411.298 445.854 408.097 445.793 406.087 447.686L391.261 461.643C389.251 463.535 389.193 466.664 391.132 468.631L396.065 473.638L391.574 477.783L412.534 499.485L417.247 495.135Z" fill="#361D5F"/>
<path d="M421.512 499.463L420.784 500.148L421.486 500.861L422.214 500.175L421.512 499.463ZM417.247 495.135L417.975 494.45L417.28 493.744L416.553 494.416L417.247 495.135ZM443.617 478.653L444.319 479.365L445.047 478.68L444.345 477.967L443.617 478.653ZM439.564 474.539L438.869 473.82L438.127 474.505L438.836 475.224L439.564 474.539ZM444.564 469.925L445.258 470.644L444.564 469.925ZM418.381 453.042L417.653 453.727L418.348 454.433L419.076 453.761L418.381 453.042ZM413.237 447.821L413.965 447.136L413.965 447.136L413.237 447.821ZM406.087 447.686L405.385 446.973L406.087 447.686ZM391.261 461.643L390.559 460.93L391.261 461.643ZM391.132 468.631L391.859 467.946L391.859 467.946L391.132 468.631ZM396.065 473.638L396.76 474.357L397.502 473.672L396.793 472.953L396.065 473.638ZM391.574 477.783L390.879 477.064L390.144 477.742L390.839 478.461L391.574 477.783ZM412.534 499.485L411.799 500.164L412.494 500.883L413.228 500.205L412.534 499.485ZM422.24 498.777L417.975 494.45L416.52 495.82L420.784 500.148L422.24 498.777ZM442.915 477.94L420.81 498.75L422.214 500.175L444.319 479.365L442.915 477.94ZM438.836 475.224L442.889 479.338L444.345 477.967L440.292 473.854L438.836 475.224ZM443.869 469.205L438.869 473.82L440.258 475.258L445.258 470.644L443.869 469.205ZM444.03 463.615C445.564 465.204 445.492 467.707 443.869 469.205L445.258 470.644C447.694 468.396 447.801 464.642 445.499 462.259L444.03 463.615ZM430.016 449.106L444.03 463.615L445.499 462.259L431.486 447.749L430.016 449.106ZM424.298 448.942C425.922 447.443 428.482 447.517 430.016 449.106L431.486 447.749C429.184 445.366 425.344 445.256 422.909 447.503L424.298 448.942ZM419.076 453.761L424.298 448.942L422.909 447.503L417.686 452.323L419.076 453.761ZM412.509 448.507L417.653 453.727L419.109 452.357L413.965 447.136L412.509 448.507ZM406.789 448.398C408.397 446.884 410.958 446.933 412.509 448.507L413.965 447.136C411.638 444.775 407.797 444.702 405.385 446.973L406.789 448.398ZM391.963 462.355L406.789 448.398L405.385 446.973L390.559 460.93L391.963 462.355ZM391.859 467.946C390.309 466.372 390.355 463.869 391.963 462.355L390.559 460.93C388.147 463.201 388.077 466.956 390.404 469.317L391.859 467.946ZM396.793 472.953L391.859 467.946L390.404 469.317L395.337 474.323L396.793 472.953ZM392.268 478.502L396.76 474.357L395.37 472.919L390.879 477.064L392.268 478.502ZM413.269 498.807L392.308 477.105L390.839 478.461L411.799 500.164L413.269 498.807ZM416.553 494.416L411.839 498.766L413.228 500.205L417.942 495.854L416.553 494.416Z" fill="black" fill-opacity="0.1" mask="url(#path-7-inside-2_176_54)"/>
<path d="M20.7873 77.256V45.448L22.8593 47.016L15.1313 51.104L13.5073 45.84L23.9793 40.24H26.8913V77.256H20.7873ZM14.5713 80V74.176H33.2753V80H14.5713ZM53.6033 80.56C50.6166 80.56 48.0406 79.7387 45.8753 78.096C43.7473 76.4533 42.1046 74.1387 40.9473 71.152C39.7899 68.128 39.2113 64.544 39.2113 60.4C39.2113 56.256 39.7899 52.6907 40.9473 49.704C42.1046 46.68 43.7473 44.3467 45.8753 42.704C48.0406 41.0613 50.6166 40.24 53.6033 40.24C56.5899 40.24 59.1659 41.0613 61.3313 42.704C63.4966 44.3467 65.1579 46.68 66.3153 49.704C67.4726 52.6907 68.0513 56.256 68.0513 60.4C68.0513 64.544 67.4726 68.128 66.3153 71.152C65.1579 74.1387 63.4966 76.4533 61.3313 78.096C59.1659 79.7387 56.5899 80.56 53.6033 80.56ZM53.6033 75.072C56.3286 75.072 58.4379 73.8027 59.9313 71.264C61.4246 68.688 62.1713 65.0667 62.1713 60.4C62.1713 55.7333 61.4246 52.1307 59.9313 49.592C58.4379 47.016 56.3286 45.728 53.6033 45.728C50.8779 45.728 48.7686 47.016 47.2753 49.592C45.7819 52.1307 45.0353 55.7333 45.0353 60.4C45.0353 65.0667 45.7819 68.688 47.2753 71.264C48.7686 73.8027 50.8779 75.072 53.6033 75.072Z" fill="#361D5F"/>
<path d="M395.197 547.256V515.448L397.269 517.016L389.541 521.104L387.917 515.84L398.389 510.24H401.301V547.256H395.197ZM388.981 550V544.176H407.685V550H388.981ZM428.013 550.56C425.026 550.56 422.45 549.739 420.285 548.096C418.157 546.453 416.514 544.139 415.357 541.152C414.199 538.128 413.621 534.544 413.621 530.4C413.621 526.256 414.199 522.691 415.357 519.704C416.514 516.68 418.157 514.347 420.285 512.704C422.45 511.061 425.026 510.24 428.013 510.24C430.999 510.24 433.575 511.061 435.741 512.704C437.906 514.347 439.567 516.68 440.725 519.704C441.882 522.691 442.461 526.256 442.461 530.4C442.461 534.544 441.882 538.128 440.725 541.152C439.567 544.139 437.906 546.453 435.741 548.096C433.575 549.739 430.999 550.56 428.013 550.56ZM428.013 545.072C430.738 545.072 432.847 543.803 434.341 541.264C435.834 538.688 436.581 535.067 436.581 530.4C436.581 525.733 435.834 522.131 434.341 519.592C432.847 517.016 430.738 515.728 428.013 515.728C425.287 515.728 423.178 517.016 421.685 519.592C420.191 522.131 419.445 525.733 419.445 530.4C419.445 535.067 420.191 538.688 421.685 541.264C423.178 543.803 425.287 545.072 428.013 545.072Z" fill="#361D5F"/>
<path opacity="0.18" d="M183.803 423.467C265.856 423.467 332.373 358.444 332.373 278.233C332.373 198.023 265.856 133 183.803 133C101.75 133 35.2325 198.023 35.2325 278.233C35.2325 358.444 101.75 423.467 183.803 423.467Z" fill="#F90093"/>
<path opacity="0.18" d="M186.554 387.906C250.035 387.906 301.497 337.6 301.497 275.544C301.497 213.489 250.035 163.183 186.554 163.183C123.072 163.183 71.6101 213.489 71.6101 275.544C71.6101 337.6 123.072 387.906 186.554 387.906Z" fill="#F90093"/>
<path d="M202.061 353.638L223.99 411.133C226.756 418.391 229.537 425.688 230.998 433.301C231.123 433.691 231.167 434.101 231.126 434.507C231.085 434.914 230.96 435.308 230.758 435.666C230.25 436.178 229.569 436.492 228.842 436.549C201.945 441.784 174.314 431.02 146.938 432.999C136.43 433.755 125.512 436.345 115.622 432.803C114.03 432.236 112.376 431.398 111.681 429.887C111.361 429.055 111.209 428.17 111.233 427.281C110.478 408.822 112.297 390.349 116.642 372.37C118.187 365.844 120.157 359.325 123.511 353.486C134.096 335.049 157.509 325.237 165.011 305.41C164.331 307.215 179.097 313.507 180.735 314.081C184.799 315.524 190.656 315.69 193.222 319.603C195.656 323.319 194.906 329.271 195.686 333.433C197.023 340.404 199.542 347.074 202.061 353.638Z" fill="#F90093"/>
<path opacity="0.69" d="M202.061 353.638L223.99 411.133C226.756 418.391 229.537 425.688 230.998 433.301C231.123 433.691 231.167 434.101 231.126 434.507C231.085 434.914 230.96 435.308 230.758 435.666C230.25 436.178 229.569 436.492 228.842 436.549C201.945 441.784 174.314 431.02 146.938 432.999C136.43 433.755 125.512 436.345 115.622 432.803C114.03 432.236 112.376 431.398 111.681 429.887C111.361 429.055 111.209 428.17 111.233 427.281C110.478 408.822 112.297 390.349 116.642 372.37C118.187 365.844 120.157 359.325 123.511 353.486C134.096 335.049 157.509 325.237 165.011 305.41C164.331 307.215 179.097 313.507 180.735 314.081C184.799 315.524 190.656 315.69 193.222 319.603C195.656 323.319 194.906 329.271 195.686 333.433C197.023 340.404 199.542 347.074 202.061 353.638Z" fill="url(#paint0_radial_176_54)"/>
<path d="M159.981 337.972C162.555 339.917 165.251 341.701 168.056 343.312C169.7 344.367 171.536 345.106 173.464 345.488C175.441 345.67 177.434 345.506 179.352 345.004C182.381 344.392 185.402 343.758 188.416 343.063C190.078 342.769 191.672 342.183 193.121 341.333C193.833 340.894 194.42 340.285 194.825 339.564C195.231 338.843 195.442 338.032 195.439 337.209C195.323 335.57 193.677 334.044 192.032 334.407C191.287 334.646 190.595 335.02 189.992 335.51C186.955 337.542 183.154 338.085 179.491 338.456C177.057 338.705 174.538 338.886 172.205 338.146C169.493 337.277 167.36 335.253 165.32 333.297C162.886 330.948 156.883 322.322 153.73 326.733C150.972 330.63 157.369 336.008 159.981 337.972Z" fill="#F90093"/>
<path d="M172.746 196.787C171.347 198.411 168.596 198.041 167.252 199.703C165.908 201.364 164.996 203.328 163.705 205.035C162.415 206.742 160.615 208.306 159.564 210.277C157.308 214.59 159.448 220.27 163.543 222.997C165.181 224.092 167.183 224.908 168.071 226.638C168.411 227.393 168.625 228.196 168.705 229.017C169.276 232.741 169.756 236.895 167.53 239.969C166.186 241.82 164.069 242.99 162.369 244.501C157.377 249.033 156.473 256.881 159.394 262.87C162.315 268.86 168.434 272.984 175.002 274.661C179.198 275.726 183.826 276.013 187.195 278.672C189.034 280.122 190.286 282.146 192.016 283.717C194.512 285.983 197.827 287.222 201.126 288.076C204.426 288.929 208.413 289.42 211.372 287.554C216.139 284.533 215.915 277.433 219.802 273.4C223.333 269.759 229.8 269.124 232.01 264.6C233.687 261.178 232.056 257.115 230.086 253.852C228.253 250.822 226.112 247.98 223.696 245.37C221.007 242.462 217.723 238.987 218.805 235.21C219.748 231.947 223.518 230.384 225.612 227.657C226.512 226.412 227.117 224.986 227.384 223.484C227.652 221.982 227.574 220.44 227.158 218.971C226.297 216.027 224.608 213.378 222.282 211.327C220.451 209.62 218.287 208.125 217.144 205.911C216 203.698 216.07 201.108 215.598 198.676C215.143 196.369 214.192 194.184 212.809 192.263C211.944 191.1 183.679 184.098 172.746 196.787Z" fill="#161419"/>
<path d="M172.746 196.787C171.347 198.411 168.596 198.041 167.252 199.703C165.908 201.364 164.996 203.328 163.705 205.035C162.415 206.742 160.615 208.306 159.564 210.277C157.308 214.59 159.448 220.27 163.543 222.997C165.181 224.092 167.183 224.908 168.071 226.638C168.411 227.393 168.625 228.196 168.705 229.017C169.276 232.741 169.756 236.895 167.53 239.969C166.186 241.82 164.069 242.99 162.369 244.501C157.377 249.033 156.473 256.881 159.394 262.87C162.315 268.86 168.434 272.984 175.002 274.661C179.198 275.726 183.826 276.013 187.195 278.672C189.034 280.122 190.286 282.146 192.016 283.717C194.512 285.983 197.827 287.222 201.126 288.076C204.426 288.929 208.413 289.42 211.372 287.554C216.139 284.533 215.915 277.433 219.802 273.4C223.333 269.759 229.8 269.124 232.01 264.6C233.687 261.178 232.056 257.115 230.086 253.852C228.253 250.822 226.112 247.98 223.696 245.37C221.007 242.462 217.723 238.987 218.805 235.21C219.748 231.947 223.518 230.384 225.612 227.657C226.512 226.412 227.117 224.986 227.384 223.484C227.652 221.982 227.574 220.44 227.158 218.971C226.297 216.027 224.608 213.378 222.282 211.327C220.451 209.62 218.287 208.125 217.144 205.911C216 203.698 216.07 201.108 215.598 198.676C215.143 196.369 214.192 194.184 212.809 192.263C211.944 191.1 183.679 184.098 172.746 196.787Z" fill="url(#paint1_linear_176_54)"/>
<path d="M204.704 252.938C209.386 254.396 214.324 256.019 217.468 259.736C218.934 261.542 220.025 263.61 220.683 265.824C223.92 275.816 221.455 286.648 222.39 297.094C223.169 305.783 226.274 314.119 231.392 321.264C235.255 326.612 235.804 333.825 235.943 340.359C236.082 346.892 233.834 353.72 228.78 357.996C223.727 362.271 215.645 363.283 210.275 359.416C205.84 356.198 204.093 350.609 202.718 345.367C199.828 334.158 197.641 322.586 198.785 311.083C199.442 304.443 201.203 297.955 202.424 291.399C204.773 278.755 206.349 265.665 204.704 252.938Z" fill="#F90093"/>
<path d="M204.704 252.938C209.386 254.396 214.324 256.019 217.468 259.736C218.934 261.542 220.025 263.61 220.683 265.824C223.92 275.816 221.455 286.648 222.39 297.094C223.169 305.783 226.274 314.119 231.392 321.264C235.255 326.612 235.804 333.825 235.943 340.359C236.082 346.892 233.834 353.72 228.78 357.996C223.727 362.271 215.645 363.283 210.275 359.416C205.84 356.198 204.093 350.609 202.718 345.367C199.828 334.158 197.641 322.586 198.785 311.083C199.442 304.443 201.203 297.955 202.424 291.399C204.773 278.755 206.349 265.665 204.704 252.938Z" fill="url(#paint2_linear_176_54)"/>
<path d="M216.085 272.773C216.884 275.968 216.946 279.297 216.266 282.519C215.586 285.741 214.18 288.774 212.152 291.399C208.652 295.863 203.39 299.02 200.894 304.081C198.576 308.809 198.986 314.58 196.196 319.059C194.149 322.352 190.649 324.482 187.272 326.484C185.231 327.832 183 328.883 180.65 329.603C175.357 330.94 169.477 328.629 166.031 324.482C162.585 320.335 161.434 314.663 162.253 309.376C162.67 306.641 163.582 304.005 164.254 301.324C166.773 291.115 165.876 280.385 161.696 270.711C160.414 267.75 158.799 264.849 158.32 261.647C157.841 258.444 158.776 254.796 161.573 253.096C163.327 252.031 165.49 251.903 167.553 251.873C174.608 251.782 181.639 252.568 188.647 253.384C194.775 254.071 201.157 254.826 206.574 257.915C211.349 260.665 214.764 267.621 216.085 272.773Z" fill="#F90093"/>
<path d="M216.085 272.773C216.884 275.968 216.946 279.297 216.266 282.519C215.586 285.741 214.18 288.774 212.152 291.399C208.652 295.863 203.39 299.02 200.894 304.081C198.576 308.809 198.986 314.58 196.196 319.059C194.149 322.352 190.649 324.482 187.272 326.484C185.231 327.832 183 328.883 180.65 329.603C175.357 330.94 169.477 328.629 166.031 324.482C162.585 320.335 161.434 314.663 162.253 309.376C162.67 306.641 163.582 304.005 164.254 301.324C166.773 291.115 165.876 280.385 161.696 270.711C160.414 267.75 158.799 264.849 158.32 261.647C157.841 258.444 158.776 254.796 161.573 253.096C163.327 252.031 165.49 251.903 167.553 251.873C174.608 251.782 181.639 252.568 188.647 253.384C194.775 254.071 201.157 254.826 206.574 257.915C211.349 260.665 214.764 267.621 216.085 272.773Z" fill="url(#paint3_linear_176_54)"/>
<path d="M188.223 246.132C188.053 248.217 186.283 249.909 184.298 250.664C182.312 251.419 180.102 251.457 177.962 251.465C175.698 251.465 171.394 250.43 169.331 251.314C167.268 252.197 168.048 254.962 168.628 257.152C169.269 259.597 170.446 261.877 172.078 263.833C173.709 265.79 175.757 267.376 178.077 268.482C180.468 269.469 182.964 270.191 185.518 270.635L201.15 273.928C204.194 274.57 207.331 275.786 209.649 273.354C211.967 270.922 212.199 267.13 211.194 264.162C209.92 260.498 207.246 257.439 205.84 253.821C204.155 249.478 200.933 246.427 203.29 232.144C203.614 230.187 198.87 237.355 196.877 237.71C195.788 237.989 194.807 238.575 194.056 239.395C191.947 241.374 188.455 243.36 188.223 246.132Z" fill="url(#paint4_linear_176_54)"/>
<path d="M169.732 220.255C170.408 224.889 171.64 229.43 173.402 233.783C175.17 238.151 177.94 242.063 181.5 245.218C183.61 247.008 186.26 248.511 189.041 248.239C190.536 248.021 191.96 247.474 193.206 246.638C199.488 242.771 203.251 235.935 205.306 228.956C207.362 228.616 208.876 226.886 209.881 225.096C211.117 222.906 211.866 220.262 211.001 217.906C210.801 217.312 210.431 216.788 209.935 216.395C209.514 216.139 209.038 215.986 208.544 215.948C208.051 215.91 207.555 215.988 207.099 216.176C206.195 216.567 205.365 217.103 204.642 217.762C202.571 214.567 200.438 211.297 197.363 208.993C194.297 206.775 190.606 205.535 186.793 205.443C182.993 205.361 179.226 206.136 175.782 207.709C173.681 208.645 170.59 210.156 169.431 212.241C168.272 214.325 169.369 218.042 169.732 220.255Z" fill="url(#paint5_linear_176_54)"/>
<path d="M165.483 251.669C147.843 253.935 131.207 261.216 116.17 270.507C111.21 273.528 106.079 277.259 104.387 282.743C103.814 284.845 103.582 287.021 103.699 289.193C103.831 295.032 105.013 300.992 108.173 305.962C111.334 310.932 116.673 314.769 122.646 315.207C125.991 315.456 129.6 314.686 132.59 316.106C134.043 316.793 135.294 317.956 136.878 318.228C139.923 318.757 142.496 315.698 143.013 312.714C143.531 309.731 142.758 306.672 143.013 303.65C143.176 301.611 143.786 299.632 144.056 297.608C144.327 295.583 144.18 293.385 142.982 291.716C141.692 289.926 139.359 288.967 138.346 287.018C146.583 281.58 156.744 278.528 163.072 271.058C164.046 269.918 164.957 268.52 164.726 267.047C164.393 264.932 161.805 263.271 162.408 261.224C163.458 257.855 163.196 254.381 165.483 251.669Z" fill="#F90093"/>
<path d="M164.749 267.047C164.98 268.52 164.069 269.925 163.095 271.066C156.736 278.543 146.575 281.587 138.369 287.018C139.382 288.974 141.707 289.934 143.005 291.724C144.211 293.393 144.35 295.583 144.087 297.615C143.824 299.647 143.199 301.611 143.036 303.658C142.812 306.543 143.492 309.451 143.114 312.299C143.114 312.442 143.114 312.578 143.059 312.714C142.534 315.698 139.969 318.757 136.917 318.228C135.333 317.956 134.081 316.793 132.628 316.106C129.607 314.686 126.03 315.448 122.676 315.214C116.727 314.769 111.372 310.924 108.219 305.954C105.067 300.984 103.869 295.032 103.738 289.186C103.617 287.016 103.849 284.841 104.426 282.743C106.11 277.259 111.248 273.558 116.201 270.507C131.253 261.216 147.881 253.89 165.513 251.669C163.396 254.199 163.466 257.372 162.678 260.514C162.616 260.755 162.554 260.997 162.485 261.269C161.828 263.286 164.432 264.94 164.749 267.047Z" fill="url(#paint6_linear_176_54)"/>
<path d="M225.713 381.622C226.485 379.455 226.4 377.09 226.315 374.824C229.043 378.284 233.548 380.036 237.991 380.437C242.433 380.837 246.892 380.044 251.281 379.258C251.621 378.556 250.647 377.959 249.874 377.748L242.773 375.927C243.513 376.078 244.277 376.08 245.018 375.935C245.759 375.79 246.462 375.499 247.085 375.081L240.904 373.359L244.527 371.811C240.598 371.208 236.832 369.839 233.455 367.785C231.24 366.536 229.36 364.791 227.969 362.694C227.111 361.282 226.501 359.59 225.064 358.721C223.449 357.739 219.848 358.26 218.828 360.058C217.924 361.659 219.207 364.023 219.709 365.655C221.365 371.095 223.371 376.428 225.713 381.622Z" fill="url(#paint7_linear_176_54)"/>
<path d="M103.336 387.627C102.286 389.331 101.713 391.275 101.675 393.264C101.637 395.253 102.135 397.216 103.12 398.957C96.6138 404.629 95.5862 415.34 100.902 422.093C106.087 428.679 115.738 430.703 124.036 428.89C132.335 427.078 139.528 422.093 146.042 416.768C154.711 409.66 162.886 401.344 166.634 390.905C169.4 383.201 169.562 374.87 169.516 366.735C169.485 360.093 169.336 353.454 169.068 346.817C168.998 344.989 168.048 342.482 166.24 342.957C162.662 351.107 160.058 359.665 155.917 367.566C151.775 375.466 145.872 382.876 137.658 386.638C134.627 388.052 131.326 388.83 127.968 388.921C124.611 389.013 121.271 388.415 118.164 387.166C112.261 384.606 108.498 379.424 103.336 387.627Z" fill="#F90093"/>
<path d="M178.479 343.652C178.801 343.161 179.278 342.786 179.839 342.587C181.438 342.179 182.427 344.226 182.76 345.805C185.51 359.174 189.474 372.49 196.714 384.137C203.954 395.784 214.779 405.724 228.039 409.939C229.058 410.193 230.027 410.612 230.905 411.178C232.752 412.567 233.107 415.287 232.257 417.409C231.912 418.099 231.653 418.827 231.485 419.577C231.45 420.685 231.669 421.787 232.126 422.802C233.277 426.428 232.783 430.763 230.04 433.452C226.81 436.625 221.355 436.662 217.244 434.698C213.134 432.735 210.082 429.169 207.284 425.635C191.615 405.845 182.018 384.711 178.858 359.921C178.085 354.151 174.129 349.287 178.479 343.652Z" fill="#F90093"/>
<path d="M159.981 337.972C162.555 339.917 165.251 341.701 168.056 343.312C169.7 344.367 171.536 345.106 173.464 345.488C175.441 345.67 177.434 345.506 179.352 345.004C182.381 344.392 185.402 343.758 188.416 343.063C190.078 342.769 191.672 342.183 193.121 341.333C193.833 340.894 194.42 340.285 194.825 339.564C195.231 338.843 195.442 338.032 195.439 337.209C195.323 335.57 193.677 334.044 192.032 334.407C191.287 334.646 190.595 335.02 189.992 335.51C186.955 337.542 183.154 338.085 179.491 338.456C177.057 338.705 174.538 338.886 172.205 338.146C169.493 337.277 167.36 335.253 165.32 333.297C162.886 330.948 156.883 322.322 153.73 326.733C150.972 330.63 157.369 336.008 159.981 337.972Z" fill="url(#paint8_linear_176_54)"/>
<path opacity="0.25" d="M162.338 330.736C161.21 331.25 159.788 330.623 158.675 331.174C158.263 331.437 157.877 331.738 157.524 332.073C156.211 333.1 154.356 333.138 152.687 332.889C151.968 332.722 151.225 332.686 150.493 332.783C148.808 333.153 147.966 335.004 146.529 335.94C145.844 336.386 145.034 336.613 144.211 336.59C143.816 336.609 143.422 336.528 143.068 336.356C142.714 336.185 142.41 335.927 142.186 335.608C141.483 334.407 142.565 332.995 143.57 332.02L158.753 317.329C159.473 316.522 160.375 315.889 161.387 315.479C161.648 315.379 161.934 315.36 162.206 315.426C162.444 315.52 162.658 315.665 162.832 315.849C164.865 317.722 168.117 320.562 165.738 323.198C164.849 324.187 164.154 324.845 163.914 326.219C163.659 327.707 164.092 329.928 162.338 330.736Z" fill="url(#paint9_linear_176_54)"/>
<path d="M166.634 390.844C162.886 401.283 154.711 409.599 146.042 416.707C139.521 422.047 132.335 427.024 124.036 428.83C115.738 430.635 106.095 428.618 100.902 422.032C99.6216 420.396 98.6818 418.53 98.136 416.541C96.4129 410.377 98.1978 403.202 103.12 398.911C102.135 397.17 101.637 395.207 101.675 393.218C101.713 391.229 102.286 389.285 103.336 387.581C108.498 379.424 112.261 384.56 118.164 387.075C121.271 388.321 124.61 388.918 127.967 388.829C131.325 388.739 134.625 387.964 137.658 386.554C145.864 382.778 151.791 375.368 155.917 367.475C160.043 359.582 162.662 351.016 166.247 342.859C166.595 342.777 166.96 342.807 167.29 342.943C167.619 343.079 167.896 343.314 168.079 343.614C168.117 343.659 168.141 343.705 168.171 343.743C168.738 344.655 169.047 345.697 169.068 346.764V346.99C169.325 353.537 169.472 360.1 169.508 366.682C169.562 374.786 169.392 383.148 166.634 390.844Z" fill="url(#paint10_linear_176_54)"/>
<path d="M178.479 343.652C178.801 343.161 179.278 342.786 179.839 342.587C181.438 342.179 182.427 344.226 182.76 345.805C185.51 359.174 189.474 372.49 196.714 384.137C203.954 395.784 214.779 405.724 228.039 409.939C229.058 410.193 230.027 410.612 230.905 411.178C232.752 412.567 233.107 415.287 232.257 417.409C231.912 418.099 231.653 418.827 231.485 419.577C231.45 420.685 231.669 421.787 232.126 422.802C233.277 426.428 232.783 430.763 230.04 433.452C226.81 436.625 221.355 436.662 217.244 434.698C213.134 432.735 210.082 429.169 207.284 425.635C191.615 405.845 182.018 384.711 178.858 359.921C178.085 354.151 174.129 349.287 178.479 343.652Z" fill="url(#paint11_linear_176_54)"/>
<path d="M191.043 218.699C191.218 218.697 191.39 218.656 191.545 218.578C192.418 218.034 190.772 216.773 191.136 215.829C192.828 217.996 195.833 218.85 198.623 218.691C201.412 218.533 204.032 217.468 206.643 216.425C201.52 212.392 198.43 205.926 192.526 203.064C188.802 201.258 184.467 201.183 180.326 201.455C178.479 201.583 173.704 201.938 173.132 204.302C172.638 206.357 175.45 207.089 176.895 207.958C181.578 210.745 184.831 218.993 191.043 218.699Z" fill="#161419"/>
<path d="M171.664 186.394L177.49 197.777C177.49 197.777 189.258 198.018 196.034 195.36L198.02 179.498L192.441 187.852L187.148 177.436L184.676 187.368L178.232 177.798L176.995 190.027L171.664 186.394Z" fill="#F4A324"/>
<path d="M204.982 222.778C205.249 222.32 205.344 221.786 205.252 221.267C205.197 220.62 205.32 219.971 205.608 219.386C205.754 219.097 205.98 218.853 206.259 218.681C206.539 218.509 206.861 218.416 207.192 218.412C207.365 218.416 207.534 218.468 207.678 218.563C207.871 218.745 207.996 218.984 208.034 219.243C208.378 220.66 208.3 222.143 207.81 223.518C207.612 224.156 207.25 224.733 206.759 225.195C206.51 225.42 206.206 225.58 205.877 225.661C205.547 225.741 205.202 225.739 204.874 225.655C204.499 225.501 204.168 225.26 203.908 224.954C203.648 224.647 203.468 224.284 203.382 223.896C203.267 222.891 204.456 223.389 204.982 222.778Z" fill="url(#paint12_linear_176_54)"/>
<path d="M103.12 398.889C103.12 398.889 120.266 413.451 140.085 399.568C140.085 399.568 128.495 426.367 97.804 411.518C97.804 411.518 96.5368 404.999 103.12 398.889Z" fill="url(#paint13_linear_176_54)"/>
<path d="M231.446 419.577C231.446 419.577 223.974 420.076 211.588 407.318C211.588 407.318 221.332 422.009 232.072 424.917L231.446 419.577Z" fill="url(#paint14_linear_176_54)"/>
<path d="M166.634 390.844C162.886 401.283 154.711 409.599 146.042 416.707C139.52 422.047 132.335 427.024 124.036 428.829C115.737 430.635 106.094 428.618 100.902 422.032C99.6215 420.396 98.6817 418.53 98.1359 416.54C104.534 424.804 116.92 432.493 138.099 416.367C170.899 391.403 168.372 347.527 168.079 343.606V343.334L168.195 343.742L169.099 346.968C169.356 353.514 169.503 360.077 169.539 366.659C169.562 374.786 169.392 383.148 166.634 390.844Z" fill="url(#paint15_linear_176_54)"/>
<path d="M151.574 312.178C152.803 311.287 154.024 310.07 155.554 310.138C156.383 310.234 157.167 310.562 157.81 311.083C160.065 312.722 161.786 314.965 162.765 317.54C163.744 320.114 163.939 322.911 163.327 325.592L160.723 321.755C161.329 322.642 161.705 323.66 161.818 324.721C161.931 325.782 161.778 326.853 161.372 327.843C159.971 326.744 158.777 325.415 157.841 323.916C158.049 325.041 158.807 325.993 159.224 327.065C159.641 328.138 159.579 329.588 158.559 330.147L154.433 326.166C154.487 326.922 154.789 327.632 154.789 328.372C154.789 329.112 154.348 329.966 153.591 330.034C152.432 330.139 152.046 328.599 151.196 327.768C150.068 326.665 148.175 327.05 146.676 327.586C145.177 328.123 143.415 328.712 142.04 327.866C141.343 327.319 140.809 326.599 140.494 325.781C139.327 323.402 138.13 320.879 138.323 318.228C138.524 315.463 140.324 313.228 143.152 313.658C146.274 314.172 148.916 314.119 151.574 312.178Z" fill="url(#paint16_linear_176_54)"/>
<path d="M163.095 271.065C156.736 278.543 146.575 281.587 138.37 287.018C139.382 288.974 141.707 289.933 143.006 291.724C144.211 293.393 144.35 295.583 144.087 297.615C143.825 299.647 143.199 301.611 143.036 303.658C142.812 306.543 143.492 309.451 143.114 312.299C142.419 312.311 141.729 312.183 141.087 311.924C140.444 311.664 139.864 311.277 139.382 310.788C136.755 308.039 138.277 303.454 136.809 299.979C136.206 298.537 135.086 297.313 134.583 295.832C134.019 294.141 134.321 292.305 134.406 290.545C134.438 290.331 134.395 290.112 134.282 289.926C134.142 289.782 133.957 289.687 133.757 289.654L127.521 287.977C129.508 287.892 131.45 287.376 133.208 286.466L123.217 284.775C121.772 284.533 120.243 284.238 119.161 283.264C122.724 282.707 126.331 282.454 129.94 282.509C129.252 280.59 130.164 278.422 131.585 276.927C133.811 274.563 137.064 273.452 140.17 272.395C143.276 271.337 146.274 270.272 149.241 268.988C154.14 266.881 158.9 264.215 162.678 260.468C162.616 260.71 162.554 260.952 162.485 261.224C161.867 263.286 164.455 264.94 164.803 267.047C164.981 268.52 164.069 269.925 163.095 271.065Z" fill="url(#paint17_linear_176_54)"/>
<path d="M206.497 251.835C205.925 255.37 205.353 259.003 206.141 262.5C207.014 266.39 209.518 269.842 210.004 273.83C210.46 277.508 209.1 281.255 209.664 284.926C209.842 286.104 210.437 287.448 211.65 287.622C212.585 287.75 213.435 287.093 214.1 286.436C218.512 282.04 220.582 275.945 222.514 270.083C223.55 266.934 224.593 263.701 224.407 260.4C224.191 256.563 222.336 253.021 220.428 249.66C218.396 246.064 215.537 240.92 211.38 239.304C208.289 238.103 208.413 240.112 207.972 242.786C207.47 245.785 206.991 248.814 206.497 251.835Z" fill="#161419"/>
<path opacity="0.18" d="M273.825 423.467C191.772 423.467 125.255 358.444 125.255 278.233C125.255 198.023 191.772 133 273.825 133C355.878 133 422.395 198.023 422.395 278.233C422.395 358.444 355.878 423.467 273.825 423.467Z" fill="#F90093"/>
<path opacity="0.18" d="M271.074 387.906C207.593 387.906 156.131 337.6 156.131 275.544C156.131 213.489 207.593 163.183 271.074 163.183C334.556 163.183 386.018 213.489 386.018 275.544C386.018 337.6 334.556 387.906 271.074 387.906Z" fill="#F90093"/>
<path d="M255.567 353.638L233.638 411.133C230.872 418.391 228.091 425.688 226.63 433.301C226.505 433.691 226.461 434.101 226.502 434.507C226.543 434.914 226.668 435.308 226.87 435.666C227.378 436.178 228.059 436.492 228.786 436.549C255.683 441.784 283.314 431.02 310.69 432.999C321.198 433.755 332.116 436.345 342.006 432.803C343.598 432.236 345.252 431.398 345.947 429.887C346.267 429.055 346.419 428.17 346.395 427.281C347.15 408.822 345.331 390.349 340.986 372.37C339.441 365.844 337.471 359.325 334.117 353.486C323.532 335.049 300.12 325.237 292.617 305.41C293.297 307.215 278.531 313.507 276.893 314.081C272.829 315.524 266.972 315.69 264.406 319.603C261.972 323.319 262.722 329.271 261.942 333.433C260.605 340.404 258.086 347.074 255.567 353.638Z" fill="#F90093"/>
<path opacity="0.69" d="M255.567 353.638L233.638 411.133C230.872 418.391 228.091 425.688 226.63 433.301C226.505 433.691 226.461 434.101 226.502 434.507C226.543 434.914 226.668 435.308 226.87 435.666C227.378 436.178 228.059 436.492 228.786 436.549C255.683 441.784 283.314 431.02 310.69 432.999C321.198 433.755 332.116 436.345 342.006 432.803C343.598 432.236 345.252 431.398 345.947 429.887C346.267 429.055 346.419 428.17 346.395 427.281C347.15 408.822 345.331 390.349 340.986 372.37C339.441 365.844 337.471 359.325 334.117 353.486C323.532 335.049 300.12 325.237 292.617 305.41C293.297 307.215 278.531 313.507 276.893 314.081C272.829 315.524 266.972 315.69 264.406 319.603C261.972 323.319 262.722 329.271 261.942 333.433C260.605 340.404 258.086 347.074 255.567 353.638Z" fill="url(#paint18_radial_176_54)"/>
<path d="M297.647 337.972C295.074 339.917 292.377 341.701 289.573 343.312C287.928 344.367 286.092 345.106 284.164 345.488C282.187 345.67 280.194 345.506 278.276 345.004C275.247 344.392 272.226 343.758 269.213 343.063C267.55 342.769 265.956 342.183 264.507 341.333C263.795 340.894 263.208 340.285 262.803 339.564C262.397 338.843 262.186 338.032 262.189 337.209C262.305 335.57 263.951 334.044 265.596 334.407C266.341 334.646 267.033 335.02 267.636 335.51C270.673 337.542 274.474 338.085 278.137 338.456C280.571 338.705 283.09 338.886 285.423 338.146C288.135 337.277 290.268 335.253 292.308 333.297C294.742 330.948 300.745 322.322 303.898 326.733C306.656 330.63 300.259 336.008 297.647 337.972Z" fill="#F90093"/>
<path d="M284.882 196.787C286.281 198.411 289.032 198.041 290.376 199.703C291.72 201.364 292.632 203.328 293.923 205.035C295.213 206.742 297.013 208.306 298.064 210.277C300.32 214.59 298.18 220.27 294.085 222.997C292.447 224.092 290.446 224.908 289.557 226.638C289.217 227.393 289.003 228.196 288.923 229.017C288.352 232.741 287.873 236.895 290.098 239.969C291.442 241.82 293.559 242.99 295.259 244.501C300.251 249.033 301.155 256.881 298.234 262.87C295.313 268.86 289.194 272.984 282.626 274.661C278.43 275.726 273.802 276.013 270.433 278.672C268.594 280.122 267.343 282.146 265.612 283.717C263.116 285.983 259.801 287.222 256.502 288.076C253.202 288.929 249.215 289.42 246.256 287.554C241.489 284.533 241.713 277.433 237.826 273.4C234.295 269.759 227.828 269.124 225.618 264.6C223.941 261.178 225.572 257.115 227.542 253.852C229.375 250.822 231.516 247.98 233.932 245.37C236.621 242.462 239.905 238.987 238.823 235.21C237.88 231.947 234.11 230.384 232.016 227.657C231.116 226.412 230.511 224.986 230.244 223.484C229.976 221.982 230.054 220.44 230.47 218.971C231.331 216.027 233.02 213.378 235.346 211.327C237.177 209.62 239.341 208.125 240.484 205.911C241.628 203.698 241.558 201.108 242.03 198.676C242.485 196.369 243.436 194.184 244.819 192.263C245.684 191.1 273.949 184.098 284.882 196.787Z" fill="#161419"/>
<path d="M284.882 196.787C286.281 198.411 289.032 198.041 290.376 199.703C291.72 201.364 292.632 203.328 293.923 205.035C295.213 206.742 297.013 208.306 298.064 210.277C300.32 214.59 298.18 220.27 294.085 222.997C292.447 224.092 290.446 224.908 289.557 226.638C289.217 227.393 289.003 228.196 288.923 229.017C288.352 232.741 287.873 236.895 290.098 239.969C291.442 241.82 293.559 242.99 295.259 244.501C300.251 249.033 301.155 256.881 298.234 262.87C295.313 268.86 289.194 272.984 282.626 274.661C278.43 275.726 273.802 276.013 270.433 278.672C268.594 280.122 267.343 282.146 265.612 283.717C263.116 285.983 259.801 287.222 256.502 288.076C253.202 288.929 249.215 289.42 246.256 287.554C241.489 284.533 241.713 277.433 237.826 273.4C234.295 269.759 227.828 269.124 225.618 264.6C223.941 261.178 225.572 257.115 227.542 253.852C229.375 250.822 231.516 247.98 233.932 245.37C236.621 242.462 239.905 238.987 238.823 235.21C237.88 231.947 234.11 230.384 232.016 227.657C231.116 226.412 230.511 224.986 230.244 223.484C229.976 221.982 230.054 220.44 230.47 218.971C231.331 216.027 233.02 213.378 235.346 211.327C237.177 209.62 239.341 208.125 240.484 205.911C241.628 203.698 241.558 201.108 242.03 198.676C242.485 196.369 243.436 194.184 244.819 192.263C245.684 191.1 273.949 184.098 284.882 196.787Z" fill="url(#paint19_linear_176_54)"/>
<path d="M252.924 252.938C248.242 254.396 243.305 256.019 240.16 259.736C238.695 261.542 237.603 263.61 236.945 265.824C233.708 275.816 236.173 286.648 235.238 297.094C234.459 305.783 231.354 314.119 226.236 321.264C222.373 326.612 221.824 333.825 221.685 340.359C221.546 346.892 223.794 353.72 228.848 357.996C233.901 362.271 241.983 363.283 247.353 359.416C251.789 356.198 253.535 350.609 254.91 345.367C257.8 334.158 259.987 322.586 258.843 311.083C258.186 304.443 256.425 297.955 255.204 291.399C252.855 278.755 251.279 265.665 252.924 252.938Z" fill="#F90093"/>
<path d="M252.924 252.938C248.242 254.396 243.305 256.019 240.16 259.736C238.695 261.542 237.603 263.61 236.945 265.824C233.708 275.816 236.173 286.648 235.238 297.094C234.459 305.783 231.354 314.119 226.236 321.264C222.373 326.612 221.824 333.825 221.685 340.359C221.546 346.892 223.794 353.72 228.848 357.996C233.901 362.271 241.983 363.283 247.353 359.416C251.789 356.198 253.535 350.609 254.91 345.367C257.8 334.158 259.987 322.586 258.843 311.083C258.186 304.443 256.425 297.955 255.204 291.399C252.855 278.755 251.279 265.665 252.924 252.938Z" fill="url(#paint20_linear_176_54)"/>
<path d="M241.543 272.773C240.744 275.968 240.682 279.297 241.362 282.519C242.042 285.741 243.448 288.774 245.476 291.399C248.976 295.863 254.238 299.02 256.734 304.081C259.052 308.809 258.642 314.58 261.432 319.059C263.479 322.352 266.979 324.482 270.356 326.484C272.397 327.832 274.628 328.883 276.978 329.603C282.271 330.94 288.151 328.629 291.597 324.482C295.043 320.335 296.194 314.663 295.375 309.376C294.958 306.641 294.046 304.005 293.374 301.324C290.855 291.115 291.752 280.385 295.932 270.711C297.214 267.75 298.829 264.849 299.308 261.647C299.787 258.444 298.852 254.796 296.055 253.096C294.301 252.031 292.138 251.903 290.075 251.873C283.02 251.782 275.989 252.568 268.981 253.384C262.853 254.071 256.471 254.826 251.055 257.915C246.279 260.665 242.864 267.621 241.543 272.773Z" fill="#F90093"/>
<path d="M241.543 272.773C240.744 275.968 240.682 279.297 241.362 282.519C242.042 285.741 243.448 288.774 245.476 291.399C248.976 295.863 254.238 299.02 256.734 304.081C259.052 308.809 258.642 314.58 261.432 319.059C263.479 322.352 266.979 324.482 270.356 326.484C272.397 327.832 274.628 328.883 276.978 329.603C282.271 330.94 288.151 328.629 291.597 324.482C295.043 320.335 296.194 314.663 295.375 309.376C294.958 306.641 294.046 304.005 293.374 301.324C290.855 291.115 291.752 280.385 295.932 270.711C297.214 267.75 298.829 264.849 299.308 261.647C299.787 258.444 298.852 254.796 296.055 253.096C294.301 252.031 292.138 251.903 290.075 251.873C283.02 251.782 275.989 252.568 268.981 253.384C262.853 254.071 256.471 254.826 251.055 257.915C246.279 260.665 242.864 267.621 241.543 272.773Z" fill="url(#paint21_linear_176_54)"/>
<path d="M269.405 246.132C269.575 248.217 271.345 249.909 273.331 250.664C275.316 251.419 277.526 251.457 279.666 251.465C281.93 251.465 286.234 250.43 288.297 251.314C290.36 252.197 289.58 254.962 289 257.152C288.359 259.597 287.182 261.877 285.55 263.833C283.919 265.79 281.871 267.376 279.551 268.482C277.16 269.469 274.664 270.191 272.11 270.635L256.478 273.928C253.434 274.57 250.297 275.786 247.979 273.354C245.661 270.922 245.429 267.13 246.434 264.162C247.709 260.498 250.382 257.439 251.788 253.821C253.473 249.478 256.695 246.427 254.338 232.144C254.014 230.187 258.758 237.355 260.751 237.71C261.84 237.989 262.821 238.575 263.572 239.395C265.681 241.374 269.174 243.36 269.405 246.132Z" fill="url(#paint22_linear_176_54)"/>
<path d="M287.896 220.255C287.22 224.889 285.988 229.43 284.225 233.783C282.458 238.151 279.688 242.063 276.128 245.218C274.018 247.008 271.368 248.511 268.586 248.239C267.092 248.021 265.668 247.474 264.422 246.638C258.14 242.771 254.377 235.935 252.322 228.956C250.266 228.616 248.752 226.886 247.747 225.096C246.511 222.906 245.762 220.262 246.627 217.906C246.826 217.312 247.197 216.788 247.693 216.395C248.113 216.139 248.59 215.986 249.084 215.948C249.577 215.91 250.073 215.988 250.529 216.176C251.433 216.567 252.263 217.103 252.986 217.762C255.057 214.567 257.19 211.297 260.265 208.993C263.331 206.775 267.022 205.535 270.835 205.443C274.635 205.361 278.402 206.136 281.846 207.709C283.947 208.645 287.038 210.156 288.197 212.241C289.356 214.325 288.259 218.042 287.896 220.255Z" fill="url(#paint23_linear_176_54)"/>
<path d="M292.145 251.669C309.786 253.935 326.421 261.216 341.458 270.507C346.418 273.528 351.549 277.259 353.241 282.743C353.814 284.845 354.046 287.021 353.929 289.193C353.797 295.032 352.615 300.992 349.455 305.962C346.295 310.932 340.955 314.769 334.983 315.207C331.637 315.456 328.028 314.686 325.038 316.106C323.586 316.793 322.334 317.956 320.75 318.228C317.705 318.757 315.132 315.698 314.615 312.714C314.097 309.731 314.87 306.672 314.615 303.65C314.452 301.611 313.842 299.632 313.572 297.608C313.301 295.583 313.448 293.385 314.646 291.716C315.936 289.926 318.27 288.967 319.282 287.018C311.045 281.58 300.884 278.528 294.556 271.058C293.582 269.918 292.671 268.52 292.903 267.047C293.235 264.932 295.823 263.271 295.221 261.224C294.17 257.855 294.432 254.381 292.145 251.669Z" fill="#F90093"/>
<path d="M292.88 267.047C292.648 268.52 293.559 269.925 294.533 271.066C300.892 278.543 311.053 281.587 319.259 287.018C318.247 288.974 315.921 289.934 314.623 291.724C313.417 293.393 313.278 295.583 313.541 297.615C313.804 299.647 314.429 301.611 314.592 303.658C314.816 306.543 314.136 309.451 314.514 312.299C314.514 312.442 314.514 312.578 314.569 312.714C315.094 315.698 317.659 318.757 320.711 318.228C322.295 317.956 323.547 316.793 325 316.106C328.021 314.686 331.598 315.448 334.952 315.214C340.901 314.769 346.256 310.924 349.409 305.954C352.561 300.984 353.759 295.032 353.89 289.186C354.011 287.016 353.779 284.841 353.202 282.743C351.518 277.259 346.38 273.558 341.427 270.507C326.375 261.216 309.747 253.89 292.115 251.669C294.232 254.199 294.162 257.372 294.95 260.514C295.012 260.755 295.074 260.997 295.143 261.269C295.8 263.286 293.196 264.94 292.88 267.047Z" fill="url(#paint24_linear_176_54)"/>
<path d="M231.915 381.622C231.143 379.455 231.228 377.09 231.313 374.824C228.585 378.284 224.08 380.036 219.637 380.437C215.195 380.837 210.736 380.044 206.347 379.258C206.007 378.556 206.981 377.959 207.754 377.748L214.855 375.927C214.115 376.078 213.351 376.08 212.61 375.935C211.869 375.79 211.166 375.499 210.543 375.081L216.724 373.359L213.101 371.811C217.03 371.208 220.796 369.839 224.173 367.785C226.388 366.536 228.268 364.791 229.659 362.694C230.517 361.282 231.127 359.59 232.564 358.721C234.179 357.739 237.78 358.26 238.8 360.058C239.704 361.659 238.421 364.023 237.919 365.655C236.263 371.095 234.257 376.428 231.915 381.622Z" fill="url(#paint25_linear_176_54)"/>
<path d="M354.292 387.627C355.342 389.331 355.915 391.275 355.953 393.264C355.991 395.253 355.493 397.216 354.508 398.957C361.014 404.629 362.042 415.34 356.726 422.093C351.541 428.679 341.89 430.703 333.592 428.89C325.293 427.078 318.1 422.093 311.586 416.768C302.916 409.66 294.742 401.344 290.994 390.905C288.228 383.201 288.066 374.87 288.112 366.735C288.143 360.093 288.292 353.454 288.56 346.817C288.63 344.989 289.58 342.482 291.388 342.957C294.966 351.107 297.57 359.665 301.711 367.566C305.853 375.466 311.756 382.876 319.969 386.638C323.001 388.052 326.302 388.83 329.659 388.921C333.017 389.013 336.357 388.415 339.464 387.166C345.367 384.606 349.13 379.424 354.292 387.627Z" fill="#F90093"/>
<path d="M279.149 343.652C278.827 343.161 278.35 342.786 277.789 342.587C276.19 342.179 275.201 344.226 274.868 345.805C272.118 359.174 268.154 372.49 260.914 384.137C253.674 395.784 242.849 405.724 229.59 409.939C228.57 410.193 227.601 410.612 226.723 411.178C224.876 412.567 224.521 415.287 225.371 417.409C225.716 418.099 225.976 418.827 226.143 419.577C226.178 420.685 225.959 421.787 225.502 422.802C224.351 426.428 224.845 430.763 227.588 433.452C230.818 436.625 236.273 436.662 240.384 434.698C244.494 432.735 247.547 429.169 250.344 425.635C266.014 405.845 275.61 384.711 278.77 359.921C279.543 354.151 283.499 349.287 279.149 343.652Z" fill="#F90093"/>
<path d="M297.647 337.972C295.074 339.917 292.377 341.701 289.573 343.312C287.928 344.367 286.092 345.106 284.164 345.488C282.187 345.67 280.194 345.506 278.276 345.004C275.247 344.392 272.226 343.758 269.213 343.063C267.55 342.769 265.956 342.183 264.507 341.333C263.795 340.894 263.208 340.285 262.803 339.564C262.397 338.843 262.186 338.032 262.189 337.209C262.305 335.57 263.951 334.044 265.596 334.407C266.341 334.646 267.033 335.02 267.636 335.51C270.673 337.542 274.474 338.085 278.137 338.456C280.571 338.705 283.09 338.886 285.423 338.146C288.135 337.277 290.268 335.253 292.308 333.297C294.742 330.948 300.745 322.322 303.898 326.733C306.656 330.63 300.259 336.008 297.647 337.972Z" fill="url(#paint26_linear_176_54)"/>
<path opacity="0.25" d="M295.29 330.736C296.418 331.25 297.84 330.623 298.953 331.174C299.365 331.437 299.751 331.738 300.104 332.073C301.418 333.1 303.272 333.138 304.941 332.889C305.66 332.722 306.403 332.686 307.135 332.783C308.82 333.153 309.662 335.004 311.099 335.94C311.785 336.386 312.594 336.613 313.417 336.59C313.812 336.609 314.206 336.528 314.56 336.356C314.914 336.185 315.218 335.927 315.442 335.608C316.145 334.407 315.063 332.995 314.059 332.02L298.875 317.329C298.155 316.522 297.253 315.889 296.241 315.479C295.98 315.379 295.694 315.36 295.422 315.426C295.184 315.52 294.97 315.665 294.796 315.849C292.764 317.722 289.511 320.562 291.89 323.198C292.779 324.187 293.474 324.845 293.714 326.219C293.969 327.707 293.536 329.928 295.29 330.736Z" fill="url(#paint27_linear_176_54)"/>
<path d="M290.994 390.844C294.742 401.283 302.917 409.599 311.586 416.707C318.107 422.047 325.293 427.024 333.592 428.83C341.89 430.635 351.533 428.618 356.726 422.032C358.006 420.396 358.946 418.53 359.492 416.541C361.215 410.377 359.43 403.202 354.508 398.911C355.493 397.17 355.991 395.207 355.953 393.218C355.915 391.229 355.342 389.285 354.292 387.581C349.13 379.424 345.367 384.56 339.464 387.075C336.357 388.321 333.018 388.918 329.66 388.829C326.303 388.739 323.002 387.964 319.97 386.554C311.764 382.778 305.837 375.368 301.711 367.475C297.585 359.582 294.966 351.016 291.38 342.859C291.033 342.777 290.667 342.807 290.338 342.943C290.009 343.079 289.732 343.314 289.549 343.614C289.511 343.659 289.487 343.705 289.456 343.743C288.89 344.655 288.581 345.697 288.56 346.764V346.99C288.303 353.537 288.156 360.1 288.12 366.682C288.066 374.786 288.236 383.148 290.994 390.844Z" fill="url(#paint28_linear_176_54)"/>
<path d="M279.149 343.652C278.827 343.161 278.35 342.786 277.789 342.587C276.19 342.179 275.201 344.226 274.868 345.805C272.118 359.174 268.154 372.49 260.914 384.137C253.674 395.784 242.849 405.724 229.59 409.939C228.57 410.193 227.601 410.612 226.723 411.178C224.876 412.567 224.521 415.287 225.371 417.409C225.716 418.099 225.976 418.827 226.143 419.577C226.178 420.685 225.959 421.787 225.502 422.802C224.351 426.428 224.845 430.763 227.588 433.452C230.818 436.625 236.273 436.662 240.384 434.698C244.494 432.735 247.547 429.169 250.344 425.635C266.014 405.845 275.61 384.711 278.77 359.921C279.543 354.151 283.499 349.287 279.149 343.652Z" fill="url(#paint29_linear_176_54)"/>
<path d="M266.585 218.699C266.41 218.697 266.238 218.656 266.083 218.578C265.21 218.034 266.856 216.773 266.492 215.829C264.8 217.996 261.795 218.85 259.005 218.691C256.216 218.533 253.597 217.468 250.985 216.425C256.108 212.392 259.198 205.926 265.102 203.064C268.826 201.258 273.161 201.183 277.302 201.455C279.149 201.583 283.924 201.938 284.496 204.302C284.99 206.357 282.178 207.089 280.733 207.958C276.051 210.745 272.798 218.993 266.585 218.699Z" fill="#161419"/>
<path d="M285.964 186.394L280.138 197.777C280.138 197.777 268.37 198.018 261.594 195.36L259.608 179.498L265.187 187.852L270.48 177.436L272.952 187.368L279.396 177.798L280.633 190.027L285.964 186.394Z" fill="#F4A324"/>
<path d="M252.646 222.778C252.379 222.32 252.284 221.786 252.376 221.267C252.431 220.62 252.309 219.971 252.02 219.386C251.874 219.097 251.648 218.853 251.369 218.681C251.089 218.509 250.767 218.416 250.436 218.412C250.263 218.416 250.094 218.468 249.95 218.563C249.757 218.745 249.632 218.984 249.594 219.243C249.25 220.66 249.328 222.143 249.818 223.518C250.016 224.156 250.378 224.733 250.869 225.195C251.119 225.42 251.422 225.58 251.751 225.661C252.081 225.741 252.426 225.739 252.754 225.655C253.129 225.501 253.46 225.26 253.72 224.954C253.98 224.647 254.16 224.284 254.246 223.896C254.362 222.891 253.172 223.389 252.646 222.778Z" fill="url(#paint30_linear_176_54)"/>
<path d="M354.508 398.889C354.508 398.889 337.362 413.451 317.543 399.568C317.543 399.568 329.133 426.367 359.824 411.518C359.824 411.518 361.091 404.999 354.508 398.889Z" fill="url(#paint31_linear_176_54)"/>
<path d="M226.182 419.577C226.182 419.577 233.654 420.076 246.04 407.318C246.04 407.318 236.296 422.009 225.556 424.917L226.182 419.577Z" fill="url(#paint32_linear_176_54)"/>
<path d="M290.994 390.844C294.742 401.283 302.917 409.599 311.586 416.707C318.108 422.047 325.293 427.024 333.592 428.829C341.891 430.635 351.534 428.618 356.726 422.032C358.007 420.396 358.946 418.53 359.492 416.54C353.094 424.804 340.708 432.493 319.529 416.367C286.729 391.403 289.256 347.527 289.549 343.606V343.334L289.434 343.742L288.529 346.968C288.272 353.514 288.125 360.077 288.089 366.659C288.066 374.786 288.236 383.148 290.994 390.844Z" fill="url(#paint33_linear_176_54)"/>
<path d="M306.054 312.178C304.825 311.287 303.604 310.07 302.074 310.138C301.245 310.234 300.461 310.562 299.818 311.083C297.563 312.722 295.843 314.965 294.864 317.54C293.884 320.114 293.689 322.911 294.301 325.592L296.905 321.755C296.299 322.642 295.923 323.66 295.81 324.721C295.697 325.782 295.85 326.853 296.256 327.843C297.657 326.744 298.851 325.415 299.787 323.916C299.579 325.041 298.821 325.993 298.404 327.065C297.987 328.138 298.049 329.588 299.069 330.147L303.195 326.166C303.141 326.922 302.839 327.632 302.839 328.372C302.839 329.112 303.28 329.966 304.037 330.034C305.196 330.139 305.582 328.599 306.432 327.768C307.56 326.665 309.453 327.05 310.952 327.586C312.451 328.123 314.213 328.712 315.588 327.866C316.286 327.319 316.819 326.599 317.134 325.781C318.301 323.402 319.498 320.879 319.305 318.228C319.104 315.463 317.304 313.228 314.476 313.658C311.354 314.172 308.712 314.119 306.054 312.178Z" fill="url(#paint34_linear_176_54)"/>
<path d="M294.533 271.065C300.892 278.543 311.053 281.587 319.259 287.018C318.246 288.974 315.921 289.933 314.622 291.724C313.417 293.393 313.278 295.583 313.541 297.615C313.803 299.647 314.429 301.611 314.592 303.658C314.816 306.543 314.136 309.451 314.514 312.299C315.209 312.311 315.899 312.183 316.541 311.924C317.184 311.664 317.764 311.277 318.246 310.788C320.873 308.039 319.351 303.454 320.819 299.979C321.422 298.537 322.542 297.313 323.045 295.832C323.609 294.141 323.307 292.305 323.222 290.545C323.19 290.331 323.233 290.112 323.346 289.926C323.487 289.782 323.671 289.687 323.871 289.654L330.107 287.977C328.12 287.892 326.178 287.376 324.42 286.466L334.411 284.775C335.856 284.533 337.386 284.238 338.467 283.264C334.904 282.707 331.297 282.454 327.688 282.509C328.376 280.59 327.464 278.422 326.043 276.927C323.817 274.563 320.564 273.452 317.458 272.395C314.352 271.337 311.354 270.272 308.387 268.988C303.488 266.881 298.728 264.215 294.95 260.468C295.012 260.71 295.074 260.952 295.143 261.224C295.761 263.286 293.173 264.94 292.825 267.047C292.648 268.52 293.559 269.925 294.533 271.065Z" fill="url(#paint35_linear_176_54)"/>
<path d="M251.132 251.835C251.703 255.37 252.275 259.003 251.487 262.5C250.614 266.39 248.11 269.842 247.624 273.83C247.168 277.508 248.528 281.255 247.964 284.926C247.786 286.104 247.191 287.448 245.978 287.622C245.043 287.75 244.193 287.093 243.528 286.436C239.116 282.04 237.046 275.945 235.114 270.083C234.079 266.934 233.035 263.701 233.221 260.4C233.437 256.563 235.292 253.021 237.2 249.66C239.232 246.064 242.091 240.92 246.248 239.304C249.339 238.103 249.215 240.112 249.656 242.786C250.158 245.785 250.637 248.814 251.132 251.835Z" fill="#161419"/>
<rect x="110.933" y="55" width="336.559" height="4" fill="#361D5F"/>
<rect width="336.559" height="4" transform="matrix(1 0 0 -1 8.63525 528)" fill="#361D5F"/>
<rect x="92.5193" y="55" width="11.2527" height="4" fill="#361D5F"/>
<rect width="11.2527" height="4" transform="matrix(1 0 0 -1 369.746 528)" fill="#361D5F"/>
<rect x="76.1516" y="55" width="11.2527" height="4" fill="#361D5F"/>
<rect width="11.2527" height="4" transform="matrix(1 0 0 -1 353.378 528)" fill="#361D5F"/>
<defs>
<radialGradient id="paint0_radial_176_54" cx="0" cy="0" r="1" gradientUnits="userSpaceOnUse" gradientTransform="translate(171.108 371.735) scale(64.0395 62.6011)">
<stop offset="0.34" stop-color="white"/>
<stop offset="1" stop-color="white" stop-opacity="0.39"/>
</radialGradient>
<linearGradient id="paint1_linear_176_54" x1="198.499" y1="232.469" x2="183.369" y2="261.494" gradientUnits="userSpaceOnUse">
<stop offset="0.01"/>
<stop offset="0.13" stop-opacity="0.69"/>
<stop offset="1" stop-opacity="0"/>
</linearGradient>
<linearGradient id="paint2_linear_176_54" x1="198.476" y1="307.374" x2="235.951" y2="307.374" gradientUnits="userSpaceOnUse">
<stop offset="0.01"/>
<stop offset="0.13" stop-opacity="0.69"/>
<stop offset="1" stop-opacity="0"/>
</linearGradient>
<linearGradient id="paint3_linear_176_54" x1="145.215" y1="314.119" x2="215.539" y2="253.789" gradientUnits="userSpaceOnUse">
<stop offset="0.01"/>
<stop offset="0.13" stop-opacity="0.69"/>
<stop offset="1" stop-opacity="0"/>
</linearGradient>
<linearGradient id="paint4_linear_176_54" x1="192.55" y1="250.558" x2="187.56" y2="270.953" gradientUnits="userSpaceOnUse">
<stop stop-color="#E5C5D5"/>
<stop offset="0.42" stop-color="#EAD4D1"/>
<stop offset="1" stop-color="#F0E9CB"/>
</linearGradient>
<linearGradient id="paint5_linear_176_54" x1="213.018" y1="218.359" x2="176.019" y2="230.471" gradientUnits="userSpaceOnUse">
<stop stop-color="#E5C5D5"/>
<stop offset="0.42" stop-color="#EAD4D1"/>
<stop offset="1" stop-color="#F0E9CB"/>
</linearGradient>
<linearGradient id="paint6_linear_176_54" x1="167.785" y1="323.379" x2="121.049" y2="252.978" gradientUnits="userSpaceOnUse">
<stop offset="0.01"/>
<stop offset="0.13" stop-opacity="0.69"/>
<stop offset="1" stop-opacity="0"/>
</linearGradient>
<linearGradient id="paint7_linear_176_54" x1="240.34" y1="365.602" x2="218.898" y2="382.212" gradientUnits="userSpaceOnUse">
<stop stop-color="#E5C5D5"/>
<stop offset="0.42" stop-color="#EAD4D1"/>
<stop offset="1" stop-color="#F0E9CB"/>
</linearGradient>
<linearGradient id="paint8_linear_176_54" x1="171.494" y1="353.97" x2="174.812" y2="327.801" gradientUnits="userSpaceOnUse">
<stop offset="0.01"/>
<stop offset="0.13" stop-opacity="0.69"/>
<stop offset="1" stop-opacity="0"/>
</linearGradient>
<linearGradient id="paint9_linear_176_54" x1="154.117" y1="306.468" x2="154.597" y2="368.948" gradientUnits="userSpaceOnUse">
<stop offset="0.01"/>
<stop offset="0.13" stop-opacity="0.69"/>
<stop offset="1" stop-opacity="0"/>
</linearGradient>
<linearGradient id="paint10_linear_176_54" x1="171.525" y1="445.394" x2="122.691" y2="359.193" gradientUnits="userSpaceOnUse">
<stop offset="0.01"/>
<stop offset="0.13" stop-opacity="0.69"/>
<stop offset="1" stop-opacity="0"/>
</linearGradient>
<linearGradient id="paint11_linear_176_54" x1="178.603" y1="417.628" x2="214.796" y2="374.683" gradientUnits="userSpaceOnUse">
<stop offset="0.01"/>
<stop offset="0.13" stop-opacity="0.69"/>
<stop offset="1" stop-opacity="0"/>
</linearGradient>
<linearGradient id="paint12_linear_176_54" x1="203.375" y1="222.068" x2="208.243" y2="222.068" gradientUnits="userSpaceOnUse">
<stop stop-color="#E5C5D5"/>
<stop offset="0.42" stop-color="#EAD4D1"/>
<stop offset="1" stop-color="#F0E9CB"/>
</linearGradient>
<linearGradient id="paint13_linear_176_54" x1="122.576" y1="378.767" x2="115.467" y2="430.634" gradientUnits="userSpaceOnUse">
<stop offset="0.01"/>
<stop offset="0.13" stop-opacity="0.69"/>
<stop offset="1" stop-opacity="0"/>
</linearGradient>
<linearGradient id="paint14_linear_176_54" x1="224.77" y1="395.603" x2="219.553" y2="433.712" gradientUnits="userSpaceOnUse">
<stop offset="0.01"/>
<stop offset="0.13" stop-opacity="0.69"/>
<stop offset="1" stop-opacity="0"/>
</linearGradient>
<linearGradient id="paint15_linear_176_54" x1="98.1359" y1="386.388" x2="169.524" y2="386.388" gradientUnits="userSpaceOnUse">
<stop offset="0.01"/>
<stop offset="0.13" stop-opacity="0.69"/>
<stop offset="1" stop-opacity="0"/>
</linearGradient>
<linearGradient id="paint16_linear_176_54" x1="151.435" y1="334.082" x2="150.963" y2="318.348" gradientUnits="userSpaceOnUse">
<stop stop-color="#E5C5D5"/>
<stop offset="0.42" stop-color="#EAD4D1"/>
<stop offset="1" stop-color="#F0E9CB"/>
</linearGradient>
<linearGradient id="paint17_linear_176_54" x1="179.298" y1="313.915" x2="104.124" y2="235.368" gradientUnits="userSpaceOnUse">
<stop offset="0.01"/>
<stop offset="0.13" stop-opacity="0.69"/>
<stop offset="1" stop-opacity="0"/>
</linearGradient>
<radialGradient id="paint18_radial_176_54" cx="0" cy="0" r="1" gradientUnits="userSpaceOnUse" gradientTransform="translate(286.52 371.735) rotate(180) scale(64.0395 62.6011)">
<stop offset="0.34" stop-color="white"/>
<stop offset="1" stop-color="white" stop-opacity="0.39"/>
</radialGradient>
<linearGradient id="paint19_linear_176_54" x1="259.129" y1="232.469" x2="274.259" y2="261.494" gradientUnits="userSpaceOnUse">
<stop offset="0.01"/>
<stop offset="0.13" stop-opacity="0.69"/>
<stop offset="1" stop-opacity="0"/>
</linearGradient>
<linearGradient id="paint20_linear_176_54" x1="259.152" y1="307.374" x2="221.677" y2="307.374" gradientUnits="userSpaceOnUse">
<stop offset="0.01"/>
<stop offset="0.13" stop-opacity="0.69"/>
<stop offset="1" stop-opacity="0"/>
</linearGradient>
<linearGradient id="paint21_linear_176_54" x1="312.413" y1="314.119" x2="242.089" y2="253.789" gradientUnits="userSpaceOnUse">
<stop offset="0.01"/>
<stop offset="0.13" stop-opacity="0.69"/>
<stop offset="1" stop-opacity="0"/>
</linearGradient>
<linearGradient id="paint22_linear_176_54" x1="265.078" y1="250.558" x2="270.068" y2="270.953" gradientUnits="userSpaceOnUse">
<stop stop-color="#E5C5D5"/>
<stop offset="0.42" stop-color="#EAD4D1"/>
<stop offset="1" stop-color="#F0E9CB"/>
</linearGradient>
<linearGradient id="paint23_linear_176_54" x1="244.61" y1="218.359" x2="281.609" y2="230.471" gradientUnits="userSpaceOnUse">
<stop stop-color="#E5C5D5"/>
<stop offset="0.42" stop-color="#EAD4D1"/>
<stop offset="1" stop-color="#F0E9CB"/>
</linearGradient>
<linearGradient id="paint24_linear_176_54" x1="289.843" y1="323.379" x2="336.579" y2="252.978" gradientUnits="userSpaceOnUse">
<stop offset="0.01"/>
<stop offset="0.13" stop-opacity="0.69"/>
<stop offset="1" stop-opacity="0"/>
</linearGradient>
<linearGradient id="paint25_linear_176_54" x1="217.289" y1="365.602" x2="238.73" y2="382.212" gradientUnits="userSpaceOnUse">
<stop stop-color="#E5C5D5"/>
<stop offset="0.42" stop-color="#EAD4D1"/>
<stop offset="1" stop-color="#F0E9CB"/>
</linearGradient>
<linearGradient id="paint26_linear_176_54" x1="286.134" y1="353.97" x2="282.816" y2="327.801" gradientUnits="userSpaceOnUse">
<stop offset="0.01"/>
<stop offset="0.13" stop-opacity="0.69"/>
<stop offset="1" stop-opacity="0"/>
</linearGradient>
<linearGradient id="paint27_linear_176_54" x1="303.511" y1="306.468" x2="303.032" y2="368.948" gradientUnits="userSpaceOnUse">
<stop offset="0.01"/>
<stop offset="0.13" stop-opacity="0.69"/>
<stop offset="1" stop-opacity="0"/>
</linearGradient>
<linearGradient id="paint28_linear_176_54" x1="286.103" y1="445.394" x2="334.937" y2="359.193" gradientUnits="userSpaceOnUse">
<stop offset="0.01"/>
<stop offset="0.13" stop-opacity="0.69"/>
<stop offset="1" stop-opacity="0"/>
</linearGradient>
<linearGradient id="paint29_linear_176_54" x1="279.025" y1="417.628" x2="242.832" y2="374.683" gradientUnits="userSpaceOnUse">
<stop offset="0.01"/>
<stop offset="0.13" stop-opacity="0.69"/>
<stop offset="1" stop-opacity="0"/>
</linearGradient>
<linearGradient id="paint30_linear_176_54" x1="254.253" y1="222.068" x2="249.386" y2="222.068" gradientUnits="userSpaceOnUse">
<stop stop-color="#E5C5D5"/>
<stop offset="0.42" stop-color="#EAD4D1"/>
<stop offset="1" stop-color="#F0E9CB"/>
</linearGradient>
<linearGradient id="paint31_linear_176_54" x1="335.052" y1="378.767" x2="342.161" y2="430.634" gradientUnits="userSpaceOnUse">
<stop offset="0.01"/>
<stop offset="0.13" stop-opacity="0.69"/>
<stop offset="1" stop-opacity="0"/>
</linearGradient>
<linearGradient id="paint32_linear_176_54" x1="232.858" y1="395.603" x2="238.075" y2="433.712" gradientUnits="userSpaceOnUse">
<stop offset="0.01"/>
<stop offset="0.13" stop-opacity="0.69"/>
<stop offset="1" stop-opacity="0"/>
</linearGradient>
<linearGradient id="paint33_linear_176_54" x1="359.492" y1="386.388" x2="288.105" y2="386.388" gradientUnits="userSpaceOnUse">
<stop offset="0.01"/>
<stop offset="0.13" stop-opacity="0.69"/>
<stop offset="1" stop-opacity="0"/>
</linearGradient>
<linearGradient id="paint34_linear_176_54" x1="306.193" y1="334.082" x2="306.665" y2="318.348" gradientUnits="userSpaceOnUse">
<stop stop-color="#E5C5D5"/>
<stop offset="0.42" stop-color="#EAD4D1"/>
<stop offset="1" stop-color="#F0E9CB"/>
</linearGradient>
<linearGradient id="paint35_linear_176_54" x1="278.33" y1="313.915" x2="353.504" y2="235.368" gradientUnits="userSpaceOnUse">
<stop offset="0.01"/>
<stop offset="0.13" stop-opacity="0.69"/>
<stop offset="1" stop-opacity="0"/>
</linearGradient>
</defs>
</svg>
