<svg width="71" height="93" viewBox="0 0 71 93" fill="none" xmlns="http://www.w3.org/2000/svg">
<rect x="0.0786604" y="-0.0786604" width="69.8505" height="92.3473" rx="1.17991" transform="matrix(1 0 0 -1 0.758606 92.3998)" fill="#F7F7F7" stroke="#796894" stroke-width="0.157321"/>
<rect x="8.30998" y="26.9541" width="0.629283" height="53.3318" fill="#24133F"/>
<rect width="0.629283" height="53.3318" transform="matrix(1 0 0 -1 62.743 65.812)" fill="#24133F"/>
<rect x="8.30998" y="20.9761" width="0.629283" height="1.73053" fill="#24133F"/>
<rect width="0.629283" height="1.73053" transform="matrix(1 0 0 -1 62.743 71.7905)" fill="#24133F"/>
<rect x="8.30998" y="23.3354" width="0.629283" height="1.73053" fill="#24133F"/>
<rect width="0.629283" height="1.73053" transform="matrix(1 0 0 -1 62.743 69.4307)" fill="#24133F"/>
<rect x="5.47826" y="14.0537" width="5.66355" height="5.03427" fill="black"/>
<rect width="5.66355" height="5.03427" transform="matrix(1 0 0 -1 59.9111 78.7124)" fill="black"/>
<path d="M38.417 62.647L26.0073 23.3014C25.9597 23.1378 25.8517 22.9984 25.7052 22.9114C25.5586 22.8244 25.3845 22.7964 25.2181 22.833C25.1329 22.8549 25.0531 22.8939 24.9835 22.9477C24.9139 23.0015 24.856 23.0689 24.8134 23.1458C24.7707 23.2227 24.7442 23.3075 24.7355 23.395C24.7268 23.4825 24.736 23.5709 24.7625 23.6548L37.1835 63.036C37.2351 63.1996 37.3496 63.3359 37.5017 63.4151C37.6539 63.4943 37.8312 63.5098 37.9948 63.4582C38.1584 63.4066 38.2948 63.2922 38.3739 63.14C38.4531 62.9879 38.4686 62.8105 38.417 62.647Z" fill="#093F68"/>
<path d="M38.0702 63.6962C37.8434 63.7677 37.5976 63.7462 37.3867 63.6365C37.1758 63.5267 37.0172 63.3377 36.9457 63.111L24.5247 23.7297C24.4875 23.6136 24.4744 23.4911 24.4864 23.3698C24.4983 23.2485 24.5349 23.1308 24.5939 23.0242C24.653 22.9175 24.7332 22.8241 24.8298 22.7496C24.9263 22.6751 25.037 22.6211 25.1551 22.591C25.3837 22.5369 25.6243 22.5727 25.8272 22.6909C26.0301 22.8091 26.1799 23.0007 26.2457 23.2262L38.6554 62.5717C38.7269 62.7984 38.7054 63.0443 38.5957 63.2552C38.4859 63.4661 38.2969 63.6247 38.0702 63.6962ZM25.2601 23.0815C25.21 23.0966 25.1634 23.1216 25.1231 23.1549C25.0828 23.1883 25.0496 23.2294 25.0255 23.2758C25.0013 23.3223 24.9867 23.373 24.9825 23.4252C24.9783 23.4774 24.9845 23.5298 25.0009 23.5795L37.4219 62.9608C37.4536 63.0612 37.5238 63.1449 37.6172 63.1935C37.7106 63.2421 37.8195 63.2516 37.9199 63.22C38.0204 63.1883 38.1041 63.118 38.1527 63.0246C38.2013 62.9312 38.2108 62.8223 38.1791 62.7219L25.7694 23.3764C25.7411 23.2739 25.6751 23.1859 25.5846 23.1299C25.4942 23.074 25.3859 23.0543 25.2815 23.0747L25.2601 23.0815Z" fill="#093F68"/>
<path d="M26.4384 66.6294C26.4538 59.2074 26.5297 52.7245 26.6567 46.4532C26.6645 46.2881 26.611 46.1259 26.5063 45.9979C26.4016 45.87 26.2533 45.7853 26.0899 45.7602C26 45.7491 25.9088 45.757 25.8222 45.7834C25.7356 45.8098 25.6555 45.8541 25.5871 45.9135C25.5187 45.9728 25.4635 46.0459 25.4251 46.1279C25.3867 46.2099 25.366 46.2991 25.3642 46.3896C25.2346 52.6774 25.1654 59.1817 25.1419 66.6195C25.1414 66.7214 25.165 66.8219 25.2108 66.913C25.2566 67.004 25.3233 67.0829 25.4054 67.1433C25.4875 67.2037 25.5826 67.2438 25.6832 67.2604C25.7837 67.277 25.8868 67.2696 25.9839 67.2388C26.1143 67.1982 26.2285 67.1174 26.3101 67.008C26.3918 66.8985 26.4367 66.766 26.4384 66.6294Z" fill="#093F68"/>
<path d="M26.0613 67.4838C25.9265 67.5264 25.7836 67.5366 25.6442 67.5134C25.5048 67.4903 25.3729 67.4345 25.2591 67.3507C25.1454 67.2668 25.0531 67.1573 24.9897 67.031C24.9264 66.9047 24.8938 66.7652 24.8946 66.6239C24.9133 59.1458 24.986 52.7189 25.117 46.394C25.1201 46.2686 25.1494 46.1451 25.2029 46.0316C25.2564 45.9182 25.3331 45.8171 25.4279 45.7349C25.5228 45.6528 25.6337 45.5913 25.7537 45.5545C25.8737 45.5177 26 45.5063 26.1246 45.5212C26.3486 45.5555 26.5522 45.6708 26.6969 45.8451C26.8417 46.0195 26.9175 46.2408 26.91 46.4673C26.7837 52.7907 26.7107 59.1915 26.6901 66.6388C26.6891 66.8283 26.6275 67.0125 26.5144 67.1645C26.4012 67.3165 26.2425 67.4284 26.0613 67.4838ZM25.8906 46.0243C25.8116 46.0492 25.7424 46.0983 25.6928 46.1647C25.6433 46.2311 25.6159 46.3114 25.6145 46.3942C25.4835 52.7191 25.4147 59.15 25.3921 66.624C25.392 66.687 25.4069 66.7491 25.4355 66.8051C25.4641 66.8612 25.5056 66.9097 25.5567 66.9465C25.6065 66.9841 25.6647 67.009 25.7263 67.0193C25.7879 67.0295 25.851 67.0246 25.9103 67.0052C25.9904 66.979 26.0603 66.9284 26.1102 66.8605C26.1601 66.7927 26.1876 66.7109 26.1889 66.6267C26.196 59.1784 26.2677 52.7649 26.4081 46.445C26.4158 46.3788 26.4067 46.3117 26.3817 46.2499C26.3566 46.1882 26.3164 46.1337 26.2648 46.0916C26.2132 46.0494 26.1517 46.021 26.0862 46.0088C26.0207 45.9966 25.9532 46.0012 25.8898 46.022L25.8906 46.0243Z" fill="#093F68"/>
<path d="M50.0038 59.6706C50.1007 59.6396 50.189 59.5863 50.2615 59.515C50.334 59.4436 50.3887 59.3563 50.4212 59.2599C50.4538 59.1635 50.4632 59.0608 50.4488 58.9602C50.4343 58.8595 50.3964 58.7636 50.3382 58.6802C46.0635 52.5982 42.2702 47.3199 38.5611 42.2508C38.473 42.1256 38.3442 42.0349 38.1967 41.9941C38.0492 41.9532 37.8921 41.9648 37.7522 42.0268C37.6653 42.0671 37.5885 42.1261 37.5273 42.1997C37.4661 42.2732 37.4219 42.3595 37.3981 42.4521C37.3742 42.5448 37.3712 42.6417 37.3893 42.7356C37.4074 42.8296 37.4461 42.9184 37.5027 42.9956C41.2094 48.0656 44.9956 53.3461 49.2773 59.4259C49.357 59.5382 49.4703 59.6224 49.6008 59.6664C49.7313 59.7103 49.8724 59.7118 50.0038 59.6706Z" fill="#093F68"/>
<path d="M50.0789 59.909C49.897 59.9671 49.7012 59.9655 49.5203 59.9043C49.3394 59.8431 49.1829 59.7255 49.0736 59.5689C44.774 53.4659 41.0334 48.247 37.3005 43.1434C37.2236 43.0381 37.1711 42.9171 37.1465 42.789C37.122 42.661 37.1261 42.5291 37.1585 42.4028C37.1911 42.2737 37.2522 42.1536 37.3372 42.0511C37.4222 41.9486 37.529 41.8665 37.6498 41.8106C37.8421 41.7235 38.0586 41.7061 38.2623 41.7612C38.4661 41.8164 38.6442 41.9408 38.7663 42.113C42.4976 47.2196 46.2406 52.4378 50.5478 58.5567C50.629 58.672 50.682 58.8048 50.7022 58.9444C50.7225 59.0839 50.7095 59.2263 50.6644 59.3599C50.6193 59.4935 50.5433 59.6146 50.4426 59.7133C50.3419 59.812 50.2194 59.8856 50.0849 59.928L50.0789 59.909ZM37.9043 42.2356L37.859 42.2499C37.8054 42.2745 37.7579 42.3107 37.7199 42.3559C37.6819 42.401 37.6544 42.4541 37.6394 42.5111C37.6243 42.5682 37.6221 42.6279 37.6329 42.6859C37.6437 42.7439 37.6672 42.7988 37.7017 42.8467C41.4378 47.9519 45.1792 53.1732 49.4856 59.2897C49.5347 59.3583 49.6041 59.4097 49.684 59.4366C49.764 59.4636 49.8503 59.4647 49.9309 59.4399C49.9906 59.421 50.0449 59.3882 50.0895 59.3443C50.134 59.3004 50.1676 59.2466 50.1874 59.1872C50.2073 59.1279 50.2128 59.0647 50.2035 59.0028C50.1943 58.9409 50.1706 58.8821 50.1343 58.8312C45.834 52.7258 42.0926 47.5045 38.3611 42.4057C38.3122 42.3333 38.2419 42.278 38.16 42.2475C38.078 42.217 37.9887 42.2128 37.9043 42.2356Z" fill="#093F68"/>
<path d="M36.3651 58.2911C45.4606 55.4223 50.5083 45.7234 47.6396 36.628C44.7708 27.5325 35.0719 22.4848 25.9765 25.3535C16.881 28.2223 11.8333 37.9212 14.702 47.0166C17.5707 56.1121 27.2696 61.1598 36.3651 58.2911Z" fill="#68E1FD"/>
<path d="M36.4409 58.5314C33.1362 59.5743 29.5964 59.6137 26.2693 58.6447C22.9421 57.6758 19.977 55.7419 17.749 53.0877C15.521 50.4335 14.1301 47.1783 13.7521 43.7335C13.3742 40.2888 14.0263 36.8094 15.626 33.7353C17.2256 30.6612 19.7009 28.1306 22.7388 26.4633C25.7767 24.796 29.2409 24.0671 32.6931 24.3687C36.1453 24.6702 39.4306 25.9888 42.1334 28.1575C44.8363 30.3263 46.8353 33.2478 47.8776 36.5527C49.2697 40.9839 48.8475 45.7864 46.7034 49.9067C44.5594 54.0269 40.8688 57.1286 36.4409 58.5314ZM26.0515 25.5915C22.8406 26.6037 20.0019 28.5454 17.8946 31.1711C15.7873 33.7967 14.5059 36.9883 14.2125 40.3422C13.9192 43.6961 14.627 47.0616 16.2465 50.0132C17.8661 52.9648 20.3245 55.3698 23.311 56.9241C26.2974 58.4784 29.6778 59.1122 33.0244 58.7452C36.3711 58.3782 39.5337 57.027 42.1124 54.8625C44.6911 52.698 46.57 49.8174 47.5114 46.585C48.4528 43.3526 48.4146 39.9136 47.4014 36.7029C46.0391 32.4014 43.0263 28.8159 39.0239 26.7328C35.0215 24.6498 30.3562 24.2393 26.0515 25.5915Z" fill="#093F68"/>
<path d="M35.4752 55.4692C43.0122 53.0919 47.195 45.0549 44.8178 37.5178C42.4406 29.9808 34.4036 25.798 26.8665 28.1752C19.3295 30.5524 15.1467 38.5895 17.5239 46.1265C19.9011 53.6635 27.9381 57.8464 35.4752 55.4692Z" fill="white"/>
<path d="M35.5504 55.7072C32.8042 56.5734 29.8628 56.6058 27.0982 55.8002C24.3335 54.9947 21.8699 53.3875 20.0187 51.1818C18.1676 48.9761 17.012 46.271 16.6983 43.4085C16.3845 40.5461 16.9266 37.6549 18.256 35.1006C19.5854 32.5462 21.6424 30.4435 24.1668 29.0582C26.6913 27.6729 29.5699 27.0673 32.4385 27.318C35.3071 27.5687 38.037 28.6644 40.2829 30.4666C42.5288 32.2688 44.1899 34.6965 45.0561 37.4427C46.2134 41.1253 45.8625 45.1166 44.0804 48.5408C42.2983 51.965 39.2306 54.5423 35.5504 55.7072ZM26.9425 28.4156C24.2904 29.2521 21.9459 30.8563 20.2055 33.0253C18.4651 35.1943 17.407 37.8307 17.165 40.601C16.9231 43.3714 17.508 46.1513 18.846 48.5892C20.184 51.0271 22.2149 53.0134 24.6818 54.2971C27.1488 55.5807 29.9409 56.1039 32.7053 55.8006C35.4696 55.4973 38.0819 54.381 40.2118 52.593C42.3417 50.805 43.8935 48.4255 44.671 45.7555C45.4485 43.0855 45.4168 40.2449 44.5798 37.5929C43.4542 34.0396 40.9652 31.0779 37.6587 29.3574C34.3523 27.6369 30.4984 27.2982 26.9425 28.4156Z" fill="#093F68"/>
<path d="M34.3667 51.9545C39.9626 50.1895 43.0681 44.2224 41.3032 38.6265C39.5382 33.0306 33.5711 29.925 27.9752 31.69C22.3793 33.455 19.2737 39.4221 21.0387 45.018C22.8036 50.6139 28.7708 53.7195 34.3667 51.9545Z" fill="#68E1FD"/>
<path d="M34.444 52.1996C32.3929 52.8492 30.1953 52.8758 28.129 52.2761C26.0628 51.6765 24.2209 50.4775 22.8361 48.8308C21.4514 47.1842 20.5862 45.1638 20.3499 43.0254C20.1135 40.8869 20.5167 38.7264 21.5084 36.8171C22.5002 34.9079 24.0359 33.3356 25.9213 32.2992C27.8067 31.2628 29.9571 30.8089 32.1006 30.9949C34.244 31.1808 36.2841 31.9983 37.9629 33.3439C39.6417 34.6895 40.8837 36.5027 41.5318 38.5543C42.3969 41.3037 42.1366 44.2839 40.808 46.8418C39.4794 49.3996 37.1909 51.3264 34.444 52.1996ZM28.0518 31.9328C26.0929 32.548 24.3605 33.7306 23.074 35.3307C21.7874 36.9309 21.0045 38.8768 20.8242 40.9221C20.644 42.9674 21.0746 45.0203 22.0615 46.8208C23.0484 48.6213 24.5472 50.0886 26.3683 51.0369C28.1894 51.9853 30.2509 52.372 32.292 52.1483C34.333 51.9246 36.2618 51.1004 37.8342 49.7801C39.4066 48.4598 40.552 46.7026 41.1255 44.7311C41.6989 42.7595 41.6745 40.6622 41.0555 38.7045C40.2255 36.084 38.3907 33.8993 35.953 32.6292C33.5153 31.359 30.6735 31.1068 28.0503 31.928L28.0518 31.9328Z" fill="#093F68"/>
<path d="M33.3565 48.752C37.1835 47.5449 39.3074 43.4639 38.1003 39.6369C36.8933 35.8099 32.8123 33.686 28.9853 34.893C25.1583 36.1001 23.0344 40.181 24.2414 44.0081C25.4485 47.8351 29.5294 49.959 33.3565 48.752Z" fill="white"/>
<path d="M33.4314 48.9898C32.0138 49.4374 30.4953 49.4546 29.068 49.0391C27.6407 48.6237 26.3686 47.7943 25.4126 46.6559C24.4567 45.5174 23.8599 44.1211 23.6976 42.6434C23.5353 41.1657 23.8149 39.6731 24.5009 38.3543C25.187 37.0355 26.2488 35.9499 27.5519 35.2345C28.8551 34.5192 30.3411 34.2065 31.822 34.3357C33.3029 34.465 34.7122 35.0306 35.8717 35.9609C37.0312 36.8912 37.8887 38.1445 38.3359 39.5622C38.9333 41.4628 38.7524 43.5227 37.8329 45.2901C36.9135 47.0575 35.3305 48.388 33.4314 48.9898ZM29.061 35.1332C27.7372 35.5502 26.5668 36.3505 25.6979 37.4327C24.829 38.515 24.3006 39.8306 24.1795 41.2132C24.0585 42.5958 24.3501 43.9833 25.0177 45.2001C25.6853 46.4169 26.6988 47.4084 27.9299 48.0491C29.161 48.6899 30.5546 48.9511 31.9342 48.7997C33.3138 48.6484 34.6175 48.0913 35.6805 47.1988C36.7434 46.3064 37.5178 45.1188 37.9057 43.7862C38.2936 42.4536 38.2776 41.0359 37.8596 39.7124C37.2978 37.94 36.0561 36.4626 34.4068 35.6042C32.7574 34.7458 30.835 34.5764 29.061 35.1332Z" fill="#093F68"/>
<path d="M32.3816 45.6608C34.5016 44.9921 35.6781 42.7315 35.0095 40.6115C34.3408 38.4915 32.0802 37.315 29.9602 37.9836C27.8402 38.6523 26.6636 40.9129 27.3323 43.0329C28.001 45.1529 30.2616 46.3295 32.3816 45.6608Z" fill="#68E1FD"/>
<path d="M32.4566 45.8994C31.6503 46.1537 30.7867 46.1632 29.975 45.9267C29.1633 45.6902 28.44 45.2183 27.8965 44.5707C27.353 43.9231 27.0137 43.1288 26.9216 42.2884C26.8295 41.448 26.9886 40.5991 27.3789 39.8492C27.7693 39.0992 28.3732 38.4818 29.1144 38.0751C29.8556 37.6684 30.7007 37.4906 31.543 37.5642C32.3852 37.6378 33.1867 37.9595 33.8461 38.4886C34.5055 39.0177 34.9932 39.7305 35.2475 40.5368C35.5872 41.6181 35.4841 42.7898 34.9609 43.7952C34.4377 44.8005 33.5371 45.5572 32.4566 45.8994ZM30.0352 38.2222C29.3231 38.4468 28.6936 38.8775 28.2263 39.4599C27.759 40.0422 27.4749 40.7501 27.4098 41.494C27.3448 42.2378 27.5019 42.9842 27.8611 43.6388C28.2203 44.2934 28.7655 44.8268 29.4279 45.1715C30.0902 45.5163 30.8399 45.6568 31.5822 45.5755C32.3244 45.4941 33.0259 45.1945 33.5978 44.7145C34.1698 44.2344 34.5865 43.5956 34.7954 42.8787C35.0043 42.1619 34.9959 41.3991 34.7713 40.687C34.469 39.7329 33.8006 38.9376 32.9128 38.4756C32.025 38.0135 30.9901 37.9224 30.0352 38.2222Z" fill="#093F68"/>
<path d="M12.6114 34.7683L9.3927 37.6371L16.1683 40.1185L19.6089 37.3472L12.6114 34.7683Z" fill="#F56132"/>
<path d="M16.2433 40.357C16.1903 40.3735 16.1335 40.3732 16.0807 40.3559L9.30748 37.8738C9.26718 37.8588 9.23142 37.8337 9.20366 37.8009C9.17591 37.7681 9.15709 37.7287 9.14904 37.6864C9.14099 37.6442 9.14397 37.6006 9.15771 37.5599C9.17144 37.5192 9.19545 37.4827 9.22743 37.454L12.4462 34.5851C12.4796 34.5562 12.52 34.5366 12.5634 34.5285C12.6069 34.5203 12.6517 34.5238 12.6933 34.5386L19.6908 37.1175C19.7326 37.1326 19.7697 37.1586 19.7982 37.1928C19.8267 37.227 19.8455 37.2682 19.8526 37.3122C19.8598 37.3561 19.8551 37.4012 19.839 37.4427C19.823 37.4842 19.7961 37.5206 19.7612 37.5482L16.3205 40.3195C16.2969 40.3359 16.2708 40.3485 16.2433 40.357ZM9.85924 37.5479L16.1119 39.8407L19.0997 37.4349L12.6747 35.0524L9.85924 37.5479Z" fill="#093F68"/>
<path d="M12.4562 34.5582L12.6845 30.7082L18.9755 33.8032L19.609 37.3474L12.4562 34.5582Z" fill="#F56132"/>
<path d="M19.684 37.5855C19.6296 37.603 19.5708 37.6012 19.5175 37.5805L12.3552 34.7943C12.3057 34.7753 12.2636 34.7409 12.2349 34.6963C12.2062 34.6517 12.1925 34.5991 12.1957 34.5462L12.4248 30.6985C12.4272 30.6572 12.4399 30.6171 12.4617 30.5819C12.4835 30.5467 12.5138 30.5175 12.5497 30.4968C12.5874 30.4722 12.6312 30.4582 12.6763 30.4565C12.7214 30.4547 12.7661 30.4652 12.8057 30.4868L19.0991 33.581C19.1341 33.5983 19.1646 33.6236 19.1881 33.6548C19.2116 33.6861 19.2275 33.7224 19.2344 33.7609L19.8655 37.3058C19.8733 37.3495 19.8693 37.3945 19.8539 37.4362C19.8385 37.4779 19.8123 37.5147 19.7779 37.5428C19.7499 37.5635 19.7179 37.578 19.684 37.5855ZM12.7266 34.3866L19.2955 36.9514L18.7657 33.9768L12.9228 31.107L12.7266 34.3866Z" fill="#093F68"/>
<path d="M31.4265 42.417C31.3016 42.4556 31.1673 42.4509 31.0453 42.4037L9.83812 34.2765C9.76315 34.2519 9.69395 34.2124 9.63474 34.1603C9.57552 34.1082 9.52753 34.0445 9.49367 33.9733C9.45981 33.902 9.4408 33.8246 9.43779 33.7458C9.43477 33.667 9.44782 33.5884 9.47614 33.5147C9.50446 33.4411 9.54747 33.374 9.60253 33.3175C9.65759 33.261 9.72357 33.2163 9.79645 33.1861C9.86933 33.1559 9.94759 33.1409 10.0265 33.1419C10.1054 33.1429 10.1832 33.1599 10.2553 33.1919L31.4616 41.3247C31.574 41.3681 31.6701 41.4453 31.7367 41.5457C31.8033 41.6461 31.8371 41.7647 31.8334 41.8851C31.8297 42.0055 31.7887 42.1218 31.7161 42.218C31.6435 42.3141 31.5428 42.3853 31.428 42.4218L31.4265 42.417Z" fill="#FFBC0E"/>
<path d="M31.5016 42.6551C31.3229 42.7109 31.1306 42.7041 30.9563 42.636L9.74908 34.5087C9.54445 34.4273 9.38049 34.268 9.29316 34.0659C9.20583 33.8637 9.20228 33.6351 9.28328 33.4304C9.36266 33.2254 9.51976 33.06 9.72042 32.9703C9.92107 32.8805 10.149 32.8736 10.3548 32.951L31.5642 41.0854C31.7249 41.1476 31.8622 41.2582 31.9573 41.4018C32.0524 41.5454 32.1006 41.7151 32.0951 41.8873C32.0896 42.0594 32.0308 42.2257 31.9267 42.363C31.8227 42.5003 31.6786 42.6019 31.5143 42.6537L31.5016 42.6551ZM9.94533 33.4127C9.87998 33.4338 9.82278 33.4746 9.7816 33.5296C9.74042 33.5845 9.71729 33.6509 9.7154 33.7195C9.71351 33.7882 9.73294 33.8557 9.77103 33.9129C9.80911 33.97 9.86398 34.0139 9.92807 34.0386L31.1344 42.1714C31.2163 42.2005 31.3063 42.197 31.3858 42.1617C31.4652 42.1264 31.5281 42.062 31.5615 41.9817C31.5772 41.941 31.5848 41.8976 31.5837 41.8539C31.5826 41.8103 31.573 41.7673 31.5553 41.7274C31.5376 41.6875 31.5122 41.6515 31.4806 41.6215C31.449 41.5914 31.4118 41.5678 31.3711 41.5521L10.1633 33.4146C10.0927 33.3921 10.0168 33.3931 9.94683 33.4174L9.94533 33.4127Z" fill="#093F68"/>
<path d="M28.9608 32.6648L41.3706 72.0103C41.4255 72.1716 41.417 72.3478 41.3469 72.5031C41.2768 72.6584 41.1503 72.7813 40.9929 72.8468C40.9106 72.8777 40.8229 72.8916 40.735 72.8874C40.6472 72.8833 40.5611 72.8613 40.482 72.8228C40.403 72.7842 40.3326 72.73 40.2752 72.6633C40.2178 72.5967 40.1747 72.519 40.1483 72.4351L27.7273 33.0538C27.6757 32.8903 27.6912 32.7129 27.7704 32.5608C27.8496 32.4086 27.986 32.2942 28.1496 32.2426C28.3131 32.191 28.4905 32.2065 28.6426 32.2857C28.7948 32.3648 28.9092 32.5012 28.9608 32.6648Z" fill="#093F68"/>
<path d="M28.0745 32.0043C27.8478 32.0758 27.6588 32.2344 27.549 32.4453C27.4393 32.6562 27.4178 32.902 27.4893 33.1288L39.9103 72.51C39.9465 72.6264 40.0061 72.7342 40.0854 72.8268C40.1648 72.9193 40.2623 72.9947 40.3719 73.0481C40.4814 73.1016 40.6008 73.1321 40.7226 73.1378C40.8443 73.1434 40.966 73.1241 41.08 73.081C41.2982 72.9941 41.4747 72.8268 41.5731 72.6135C41.6715 72.4003 41.6843 72.1574 41.6088 71.935L29.199 32.5895C29.1275 32.3628 28.9689 32.1737 28.758 32.064C28.5471 31.9542 28.3013 31.9328 28.0745 32.0043ZM40.8846 72.619C40.8349 72.6354 40.7824 72.6416 40.7303 72.6374C40.6781 72.6332 40.6273 72.6186 40.5809 72.5944C40.5345 72.5703 40.4934 72.5371 40.46 72.4968C40.4266 72.4565 40.4017 72.4099 40.3866 72.3598L27.9655 32.9786C27.9339 32.8781 27.9434 32.7693 27.992 32.6759C28.0406 32.5824 28.1243 32.5122 28.2248 32.4805C28.3252 32.4488 28.4341 32.4584 28.5275 32.507C28.6209 32.5556 28.6911 32.6393 28.7228 32.7397L41.1325 72.0852C41.1681 72.1855 41.1646 72.2954 41.1226 72.3931C41.0806 72.4909 41.0032 72.5691 40.906 72.6122L40.8846 72.619Z" fill="#093F68"/>
<path d="M16.865 36.2755C21.1359 42.3456 24.9176 47.6119 28.6196 52.6754C28.7208 52.8062 28.7699 52.9697 28.7577 53.1346C28.7454 53.2995 28.6725 53.4539 28.553 53.5682C28.4858 53.6289 28.4065 53.6747 28.3204 53.7028C28.2343 53.7309 28.1433 53.7405 28.0532 53.7312C27.9631 53.7218 27.876 53.6937 27.7975 53.6485C27.719 53.6033 27.6509 53.5422 27.5975 53.469C23.8838 48.3935 20.0954 43.1058 15.8089 37.0275C15.75 36.9443 15.7117 36.8484 15.697 36.7476C15.6822 36.6467 15.6916 36.5439 15.7241 36.4473C15.7567 36.3508 15.8117 36.2633 15.8845 36.192C15.9573 36.1207 16.0459 36.0677 16.1432 36.0371C16.2732 35.9956 16.4131 35.9962 16.5428 36.0391C16.6725 36.0819 16.7853 36.1646 16.865 36.2755Z" fill="#093F68"/>
<path d="M16.0658 35.792C15.931 35.8344 15.8081 35.908 15.7072 36.007C15.6063 36.1059 15.5302 36.2273 15.4852 36.3612C15.4401 36.4951 15.4273 36.6378 15.4479 36.7776C15.4685 36.9174 15.5219 37.0504 15.6036 37.1656C19.9093 43.2798 23.6562 48.502 27.3923 53.6071C27.4668 53.7081 27.5616 53.7924 27.6705 53.8547C27.7795 53.9169 27.9003 53.9557 28.0251 53.9686C28.1499 53.9815 28.276 53.9681 28.3954 53.9294C28.5148 53.8908 28.6248 53.8276 28.7183 53.744C28.8821 53.5873 28.9827 53.3761 29.0012 53.1502C29.0197 52.9244 28.9548 52.6996 28.8188 52.5184C25.0874 47.4117 21.3552 42.2111 17.0657 36.1233C16.9561 35.9687 16.7999 35.8532 16.6201 35.7936C16.4402 35.734 16.246 35.7334 16.0658 35.792ZM28.238 53.4661C28.159 53.4911 28.0742 53.4905 27.9955 53.4646C27.9168 53.4387 27.8483 53.3886 27.7997 53.3216C24.0635 48.2164 20.3176 42.9887 16.011 36.8801C15.9748 36.8286 15.9513 36.7692 15.9426 36.7068C15.9339 36.6445 15.9401 36.581 15.9607 36.5215C15.98 36.4621 16.0134 36.4083 16.0579 36.3646C16.1025 36.3209 16.157 36.2887 16.2167 36.2706C16.2973 36.2461 16.3836 36.2474 16.4634 36.2744C16.5433 36.3013 16.6127 36.3525 16.662 36.4208C20.9412 42.5171 24.6795 47.7289 28.4205 52.8247C28.4648 52.8745 28.4958 52.9346 28.5108 52.9996C28.5257 53.0645 28.524 53.1322 28.5059 53.1963C28.4878 53.2605 28.4538 53.319 28.4071 53.3666C28.3604 53.4141 28.3025 53.4492 28.2387 53.4685L28.238 53.4661Z" fill="#093F68"/>
<path d="M40.1581 28.4552C40.2552 28.425 40.3581 28.418 40.4584 28.4349C40.5587 28.4517 40.6537 28.4919 40.7356 28.5521C40.8175 28.6124 40.8842 28.6911 40.9301 28.7818C40.9761 28.8726 41 28.9729 41.0001 29.0746C40.9885 36.5085 40.9099 43.008 40.7804 49.2879C40.78 49.4409 40.7265 49.5891 40.6292 49.7072C40.5318 49.8253 40.3965 49.9059 40.2463 49.9354C40.1521 49.9523 40.0553 49.948 39.963 49.9228C39.8706 49.8977 39.785 49.8524 39.7122 49.7902C39.6395 49.728 39.5815 49.6504 39.5424 49.563C39.5033 49.4757 39.4841 49.3807 39.4861 49.285C39.6133 43.0059 39.6847 36.5087 39.7035 29.0725C39.7043 28.9348 39.7487 28.8008 39.8304 28.6899C39.9121 28.579 40.0268 28.4969 40.1581 28.4552Z" fill="#093F68"/>
<path d="M40.0832 28.2169C39.9008 28.2736 39.7415 28.3873 39.6284 28.5412C39.5153 28.6951 39.4546 28.8812 39.4549 29.0722C39.4349 36.5376 39.3655 42.9582 39.2361 49.28C39.2336 49.4103 39.26 49.5396 39.3133 49.6586C39.3667 49.7776 39.4457 49.8832 39.5447 49.9681C39.6455 50.0551 39.7644 50.1184 39.8928 50.1536C40.0212 50.1887 40.1559 50.1948 40.2869 50.1712C40.4943 50.1322 40.6817 50.0222 40.8169 49.8602C40.9521 49.6981 41.0267 49.494 41.0278 49.283C41.1541 42.9596 41.2259 36.5382 41.2431 29.0554C41.2435 28.9144 41.2106 28.7752 41.1472 28.6493C41.0837 28.5234 40.9914 28.4142 40.8778 28.3306C40.7642 28.2471 40.6325 28.1915 40.4934 28.1684C40.3543 28.1453 40.2117 28.1554 40.0772 28.1978L40.0832 28.2169ZM40.2515 49.6771L40.2062 49.6913C40.1482 49.702 40.0885 49.6996 40.0315 49.6844C39.9745 49.6692 39.9215 49.6415 39.8765 49.6034C39.8314 49.5653 39.7953 49.5177 39.7709 49.464C39.7464 49.4103 39.7341 49.3518 39.7349 49.2928C39.866 42.9679 39.9347 36.5449 39.9526 29.0645C39.9534 28.9801 39.9808 28.8982 40.0308 28.8303C40.0808 28.7623 40.1509 28.7119 40.2312 28.686C40.2909 28.6673 40.3541 28.6629 40.4158 28.6733C40.4775 28.6837 40.5359 28.7085 40.5862 28.7457C40.6365 28.783 40.6772 28.8315 40.7052 28.8875C40.7331 28.9435 40.7474 29.0053 40.7469 29.0679C40.7277 36.5357 40.659 42.9587 40.5281 49.2757C40.5295 49.363 40.5037 49.4487 40.4541 49.5207C40.4045 49.5926 40.3337 49.6473 40.2515 49.6771Z" fill="#093F68"/>
<path d="M29.7793 37.4096C38.8748 34.5409 48.5737 39.5886 51.4424 48.6841C54.3112 57.7795 49.2634 67.4784 40.168 70.3472C31.0725 73.2159 21.3736 68.1682 18.5049 59.0727C15.6361 49.9773 20.6839 40.2784 29.7793 37.4096Z" fill="#68E1FD"/>
<path d="M29.7034 37.1694C26.3983 38.2113 23.4765 40.2099 21.3074 42.9124C19.1382 45.6149 17.8192 48.9 17.5172 52.3522C17.2151 55.8044 17.9435 59.2686 19.6104 62.3068C21.2772 65.345 23.8075 67.8206 26.8814 69.4207C29.9553 71.0207 33.4346 71.6733 36.8793 71.2959C40.3241 70.9185 43.5796 69.528 46.2341 67.3004C48.8886 65.0727 50.8228 62.1079 51.7923 58.7809C52.7618 55.4539 52.7228 51.9141 51.6805 48.6092C50.2783 44.1812 47.1771 40.4901 43.0571 38.3455C38.9372 36.2009 34.1348 35.7779 29.7034 37.1694ZM40.0928 70.1093C36.8821 71.1225 33.4431 71.1608 30.2107 70.2193C26.9783 69.2779 24.0977 67.399 21.9332 64.8203C19.7687 62.2416 18.4175 59.079 18.0505 55.7323C17.6835 52.3857 18.3173 49.0054 19.8716 46.0189C21.4259 43.0324 23.8309 40.574 26.7825 38.9545C29.7341 37.3349 33.0996 36.6271 36.4535 36.9204C39.8075 37.2138 42.999 38.4952 45.6247 40.6025C48.2503 42.7099 50.192 45.5485 51.2042 48.7594C52.5564 53.0641 52.1459 57.7294 50.0629 61.7318C47.9798 65.7343 44.3943 68.7471 40.0928 70.1093Z" fill="#093F68"/>
<path d="M30.6695 40.2318C38.2065 37.8546 46.2436 42.0374 48.6208 49.5745C50.998 57.1115 46.8152 65.1486 39.2782 67.5258C31.7411 69.903 23.7041 65.7201 21.3268 58.1831C18.9496 50.6461 23.1325 42.609 30.6695 40.2318Z" fill="white"/>
<path d="M30.5944 39.9934C27.8481 40.8596 25.4205 42.5206 23.6183 44.7665C21.8161 47.0125 20.7204 49.7423 20.4697 52.611C20.219 55.4796 20.8246 58.3582 22.2099 60.8826C23.5951 63.4071 25.6979 65.4641 28.2522 66.7935C30.8066 68.1229 33.6978 68.665 36.5602 68.3512C39.4226 68.0375 42.1277 66.8819 44.3335 65.0308C46.5392 63.1796 48.1464 60.7159 48.9519 57.9513C49.7574 55.1867 49.7251 52.2453 48.8589 49.4991C47.694 45.8189 45.1167 42.7511 41.6925 40.969C38.2683 39.1869 34.277 38.8361 30.5944 39.9934ZM39.2022 67.285C36.5501 68.1215 33.7095 68.1527 31.0396 67.3747C28.3698 66.5968 25.9906 65.0445 24.2029 62.9143C22.4153 60.7841 21.2995 58.1716 20.9966 55.4072C20.6938 52.6428 21.2175 49.8507 22.5016 47.384C23.7857 44.9173 25.7724 42.8868 28.2105 41.5492C30.6486 40.2117 33.4286 39.6272 36.199 39.8697C38.9693 40.1122 41.6055 41.1707 43.7742 42.9115C45.9429 44.6523 47.5466 46.997 48.3826 49.6493C49.4994 53.2054 49.16 57.0592 47.439 60.3654C45.7179 63.6716 42.7557 66.1601 39.2022 67.285Z" fill="#093F68"/>
<path d="M31.778 43.7468C37.3739 41.9818 43.341 45.0874 45.106 50.6833C46.8709 56.2792 43.7654 62.2463 38.1695 64.0113C32.5736 65.7762 26.6064 62.6707 24.8415 57.0748C23.0765 51.4789 26.1821 45.5117 31.778 43.7468Z" fill="#68E1FD"/>
<path d="M31.7005 43.5011C29.6479 44.1459 27.8327 45.385 26.4844 47.0616C25.1361 48.7382 24.3154 50.777 24.126 52.9201C23.9366 55.0632 24.387 57.2144 25.4204 59.1015C26.4537 60.9886 28.0235 62.5268 29.9312 63.5216C31.8389 64.5164 33.9987 64.923 36.1376 64.6902C38.2764 64.4573 40.2981 63.5953 41.947 62.2132C43.5959 60.8311 44.7978 58.9911 45.4008 56.9258C46.0038 54.8606 45.9807 52.6629 45.3345 50.6108C44.4656 47.8625 42.5426 45.5709 39.9869 44.2382C37.4312 42.9055 34.4513 42.6404 31.7005 43.5011ZM38.0928 63.768C36.1354 64.3879 34.038 64.4133 32.0662 63.8408C30.0944 63.2683 28.3367 62.1238 27.0156 60.552C25.6945 58.9802 24.8694 57.0518 24.6447 55.0109C24.42 52.97 24.8058 50.9083 25.7533 49.0867C26.7007 47.2652 28.1673 45.7656 29.9673 44.7778C31.7674 43.7901 33.82 43.3585 35.8654 43.5378C37.9108 43.717 39.8571 44.499 41.4579 45.7848C43.0587 47.0706 44.242 48.8024 44.8582 50.761C45.6819 53.3834 45.4325 56.2255 44.1647 58.6644C42.8968 61.1033 40.714 62.9402 38.0943 63.7727L38.0928 63.768Z" fill="#093F68"/>
<path d="M32.7881 46.9492C36.6152 45.7421 40.6961 47.866 41.9032 51.693C43.1102 55.5201 40.9863 59.601 37.1593 60.8081C33.3323 62.0151 29.2513 59.8912 28.0443 56.0642C26.8372 52.2372 28.9611 48.1562 32.7881 46.9492Z" fill="white"/>
<path d="M32.713 46.7115C31.2952 47.1582 30.0416 48.0153 29.1109 49.1745C28.1802 50.3336 27.6142 51.7428 27.4844 53.2236C27.3546 54.7045 27.6669 56.1906 28.3818 57.494C29.0966 58.7974 30.182 59.8595 31.5005 60.546C32.8191 61.2326 34.3116 61.5126 35.7893 61.3508C37.2671 61.189 38.6636 60.5926 39.8024 59.6371C40.9411 58.6815 41.771 57.4097 42.1869 55.9825C42.6028 54.5553 42.5861 53.0369 42.1389 51.6191C41.5378 49.7198 40.2078 48.1364 38.4407 47.2164C36.6737 46.2963 34.6138 46.1148 32.713 46.7115ZM37.0834 60.568C35.76 60.986 34.3423 61.002 33.0097 60.6141C31.6771 60.2262 30.4895 59.4518 29.597 58.3889C28.7046 57.3259 28.1475 56.0222 27.9962 54.6426C27.8448 53.2629 28.106 51.8694 28.7468 50.6383C29.3875 49.4071 30.379 48.3937 31.5958 47.7261C32.8126 47.0585 34.2001 46.7668 35.5827 46.8879C36.9653 47.009 38.2809 47.5374 39.3632 48.4063C40.4454 49.2752 41.2457 50.4456 41.6627 51.7694C42.2194 53.5434 42.0501 55.4658 41.1917 57.1152C40.3333 58.7645 38.8559 60.0062 37.0834 60.568Z" fill="#093F68"/>
<path d="M33.7631 50.0403C35.8831 49.3717 38.1437 50.5482 38.8124 52.6682C39.481 54.7882 38.3045 57.0489 36.1845 57.7175C34.0645 58.3862 31.8039 57.2096 31.1352 55.0896C30.4666 52.9696 31.6431 50.709 33.7631 50.0403Z" fill="#68E1FD"/>
<path d="M33.6879 49.802C32.8816 50.0563 32.1689 50.544 31.6397 51.2034C31.1106 51.8628 30.7889 52.6643 30.7153 53.5065C30.6417 54.3488 30.8195 55.1939 31.2262 55.9351C31.6329 56.6763 32.2503 57.2802 33.0003 57.6706C33.7502 58.0609 34.5991 58.22 35.4395 58.1279C36.2799 58.0358 37.0742 57.6965 37.7218 57.153C38.3694 56.6095 38.8413 55.8862 39.0778 55.0745C39.3143 54.2628 39.3048 53.3992 39.0505 52.5929C38.7083 51.5124 37.9516 50.6118 36.9463 50.0886C35.941 49.5654 34.7692 49.4623 33.6879 49.802ZM36.1093 57.4791C35.3972 57.7037 34.6345 57.7121 33.9177 57.5033C33.2008 57.2944 32.5619 56.8776 32.0819 56.3057C31.6019 55.7337 31.3023 55.0323 31.2209 54.29C31.1396 53.5478 31.2801 52.7981 31.6248 52.1358C31.9696 51.4734 32.5029 50.9282 33.1576 50.5689C33.8122 50.2097 34.5586 50.0527 35.3024 50.1177C36.0463 50.1827 36.7541 50.4668 37.3365 50.9342C37.9189 51.4015 38.3496 52.031 38.5742 52.7431C38.874 53.698 38.7829 54.7328 38.3208 55.6207C37.8588 56.5085 37.0635 57.1768 36.1093 57.4791Z" fill="#093F68"/>
<path d="M23.8196 70.3044L19.5374 69.8014L23.6632 63.8817L28.0712 64.1774L23.8196 70.3044Z" fill="#F56132"/>
<path d="M23.5882 63.6434C23.5353 63.6603 23.4889 63.6932 23.4556 63.7376L19.3321 69.6566C19.3077 69.6919 19.2928 69.733 19.2889 69.7758C19.285 69.8186 19.2922 69.8617 19.3098 69.9009C19.3275 69.9401 19.3549 69.9741 19.3895 69.9996C19.4241 70.0251 19.4647 70.0412 19.5074 70.0464L23.7896 70.5494C23.8336 70.5539 23.878 70.5467 23.9182 70.5285C23.9585 70.5103 23.9932 70.4817 24.0188 70.4457L28.2704 64.3187C28.296 64.2824 28.3115 64.2398 28.3152 64.1954C28.3188 64.1511 28.3106 64.1065 28.2912 64.0664C28.2719 64.0263 28.2422 63.9921 28.2052 63.9674C28.1683 63.9426 28.1253 63.9282 28.0809 63.9256L23.6729 63.6298C23.6441 63.63 23.6156 63.6346 23.5882 63.6434ZM19.971 69.6069L23.7767 64.1416L27.6041 64.398L23.7087 70.0355L19.971 69.6069Z" fill="#093F68"/>
<path d="M23.8132 70.5653L26.209 73.5876L29.5859 67.4433L28.0714 64.1771L23.8132 70.5653Z" fill="#F56132"/>
<path d="M27.9962 63.9395C27.9416 63.9564 27.8945 63.9916 27.8627 64.0392L23.595 70.4304C23.5654 70.4744 23.5506 70.5267 23.5527 70.5797C23.5549 70.6327 23.5738 70.6836 23.6068 70.7251L26.0019 73.7451C26.0276 73.7775 26.061 73.8031 26.0991 73.8194C26.1372 73.8357 26.1787 73.8423 26.2199 73.8386C26.265 73.8371 26.3089 73.8235 26.3468 73.7991C26.3847 73.7746 26.4154 73.7404 26.4354 73.7L29.8147 67.5549C29.8335 67.5207 29.8439 67.4824 29.8453 67.4434C29.8466 67.4043 29.8387 67.3655 29.8223 67.33L28.3054 64.0645C28.2867 64.0242 28.2576 63.9896 28.221 63.9643C28.1845 63.939 28.1419 63.9239 28.0976 63.9206C28.0629 63.9197 28.0284 63.9262 27.9962 63.9395ZM24.1332 70.5512L28.0418 64.6817L29.3146 67.4221L26.1754 73.1248L24.1332 70.5512Z" fill="#093F68"/>
<path d="M34.8419 53.2452C34.7174 53.2853 34.6101 53.3662 34.5373 53.4748L21.8306 72.2986C21.7833 72.3617 21.7493 72.4338 21.7307 72.5105C21.7121 72.5871 21.7093 72.6668 21.7224 72.7446C21.7356 72.8224 21.7644 72.8967 21.8072 72.963C21.8499 73.0292 21.9057 73.0862 21.9712 73.1302C22.0366 73.1743 22.1103 73.2046 22.1878 73.2192C22.2654 73.2339 22.345 73.2327 22.4221 73.2156C22.4991 73.1985 22.5718 73.1659 22.6358 73.1199C22.6999 73.0738 22.7539 73.0152 22.7946 72.9476L35.4974 54.1198C35.5645 54.0197 35.5989 53.9013 35.5958 53.7809C35.5928 53.6604 35.5524 53.5439 35.4803 53.4474C35.4082 53.3509 35.3079 53.2792 35.1933 53.2421C35.0787 53.205 34.9554 53.2044 34.8404 53.2404L34.8419 53.2452Z" fill="#FFBC0E"/>
<path d="M34.7666 53.0069C34.5883 53.0637 34.4346 53.1796 34.3309 53.3354L21.6242 72.1593C21.5033 72.3434 21.4604 72.5679 21.5049 72.7836C21.5493 72.9993 21.6776 73.1885 21.8614 73.3098C22.044 73.4321 22.2676 73.4774 22.4834 73.4358C22.6992 73.3942 22.8899 73.2691 23.014 73.0876L35.7184 54.2566C35.8143 54.1135 35.8634 53.9442 35.8589 53.7719C35.8544 53.5997 35.7965 53.4332 35.6932 53.2953C35.5899 53.1574 35.4464 53.055 35.2824 53.0023C35.1184 52.9495 34.9421 52.949 34.7778 53.0008L34.7666 53.0069ZM22.4138 72.9444C22.3482 72.9646 22.2779 72.964 22.2126 72.9426C22.1474 72.9212 22.0903 72.8801 22.0494 72.825C22.0085 72.7698 21.9856 72.7034 21.984 72.6347C21.9825 72.5661 22.0022 72.4986 22.0405 72.4416L34.7433 53.6138C34.7938 53.543 34.8695 53.4942 34.9548 53.4775C35.0401 53.4608 35.1286 53.4775 35.202 53.5241C35.2383 53.5484 35.2693 53.5796 35.2935 53.616C35.3176 53.6523 35.3344 53.6931 35.3428 53.7359C35.3512 53.7787 35.3511 53.8228 35.3424 53.8655C35.3338 53.9083 35.3168 53.949 35.2925 53.9852L22.5912 72.8178C22.5463 72.8767 22.4835 72.9194 22.4123 72.9396L22.4138 72.9444Z" fill="#093F68"/>
<path d="M32.815 20.5933L45.2247 59.9388C45.2723 60.1024 45.3803 60.2419 45.5268 60.3288C45.6734 60.4158 45.8475 60.4439 46.0139 60.4073C46.0991 60.3854 46.1789 60.3464 46.2485 60.2926C46.3181 60.2388 46.376 60.1714 46.4186 60.0944C46.4612 60.0175 46.4878 59.9327 46.4965 59.8452C46.5052 59.7577 46.496 59.6693 46.4695 59.5855L34.0485 20.2042C33.9969 20.0407 33.8824 19.9043 33.7303 19.8251C33.5781 19.7459 33.4008 19.7304 33.2372 19.782C33.0736 19.8336 32.9372 19.9481 32.8581 20.1002C32.7789 20.2523 32.7634 20.4297 32.815 20.5933Z" fill="#093F68"/>
<path d="M33.1621 19.544C33.3888 19.4725 33.6347 19.494 33.8456 19.6037C34.0565 19.7135 34.2151 19.9025 34.2866 20.1293L46.7076 59.5105C46.7448 59.6266 46.7578 59.7491 46.7459 59.8704C46.734 59.9918 46.6974 60.1094 46.6383 60.2161C46.5793 60.3227 46.499 60.4162 46.4025 60.4907C46.306 60.5652 46.1953 60.6192 46.0771 60.6493C45.8486 60.7033 45.608 60.6675 45.4051 60.5493C45.2022 60.4311 45.0524 60.2395 44.9866 60.014L32.5769 20.6685C32.5054 20.4418 32.5268 20.1959 32.6366 19.9851C32.7464 19.7742 32.9354 19.6155 33.1621 19.544ZM45.9722 60.1587C46.0223 60.1437 46.0688 60.1187 46.1091 60.0853C46.1494 60.0519 46.1826 60.0108 46.2068 59.9644C46.2309 59.918 46.2456 59.8672 46.2498 59.815C46.254 59.7629 46.2477 59.7104 46.2314 59.6607L33.8104 20.2795C33.7787 20.1791 33.7084 20.0953 33.615 20.0467C33.5216 19.9981 33.4127 19.9886 33.3123 20.0203C33.2119 20.0519 33.1282 20.1222 33.0796 20.2156C33.031 20.309 33.0214 20.4179 33.0531 20.5183L45.4629 59.8638C45.4912 59.9663 45.5572 60.0544 45.6477 60.1103C45.7381 60.1662 45.8464 60.186 45.9507 60.1655L45.9722 60.1587Z" fill="#093F68"/>
<path d="M44.7939 16.6113C44.7785 24.0333 44.7026 30.5163 44.5755 36.7875C44.5677 36.9526 44.6213 37.1148 44.726 37.2428C44.8306 37.3708 44.979 37.4555 45.1424 37.4806C45.2322 37.4916 45.3234 37.4837 45.4101 37.4573C45.4967 37.4309 45.5768 37.3866 45.6452 37.3272C45.7136 37.2679 45.7688 37.1949 45.8072 37.1128C45.8456 37.0308 45.8663 36.9417 45.868 36.8511C45.9977 30.5633 46.0669 24.059 46.0904 16.6213C46.0909 16.5194 46.0672 16.4188 46.0214 16.3278C45.9756 16.2367 45.909 16.1578 45.8269 16.0974C45.7448 16.0371 45.6496 15.9969 45.5491 15.9803C45.4486 15.9637 45.3455 15.9711 45.2484 16.0019C45.118 16.0425 45.0038 16.1233 44.9221 16.2328C44.8405 16.3422 44.7956 16.4747 44.7939 16.6113Z" fill="#093F68"/>
<path d="M45.1709 15.7564C45.3056 15.7138 45.4485 15.7037 45.5879 15.7268C45.7273 15.7499 45.8593 15.8057 45.973 15.8896C46.0868 15.9734 46.1791 16.0829 46.2424 16.2093C46.3058 16.3356 46.3384 16.4751 46.3376 16.6164C46.3189 24.0944 46.2462 30.5214 46.1152 36.8462C46.1121 36.9717 46.0828 37.0951 46.0293 37.2086C45.9757 37.3221 45.8991 37.4231 45.8042 37.5053C45.7094 37.5875 45.5984 37.6489 45.4785 37.6857C45.3585 37.7225 45.2322 37.7339 45.1076 37.7191C44.8836 37.6847 44.68 37.5695 44.5352 37.3951C44.3905 37.2208 44.3147 36.9994 44.3222 36.7729C44.4485 30.4495 44.5215 24.0487 44.542 16.6015C44.5431 16.412 44.6047 16.2278 44.7178 16.0758C44.831 15.9237 44.9897 15.8119 45.1709 15.7564ZM45.3416 37.2159C45.4206 37.191 45.4898 37.1419 45.5393 37.0756C45.5889 37.0092 45.6163 36.9289 45.6177 36.8461C45.7487 30.5212 45.8175 24.0903 45.84 16.6162C45.8402 16.5533 45.8253 16.4912 45.7967 16.4351C45.7681 16.379 45.7265 16.3306 45.6755 16.2937C45.6257 16.2561 45.5675 16.2312 45.5059 16.221C45.4443 16.2108 45.3812 16.2156 45.3219 16.2351C45.2418 16.2613 45.1719 16.3118 45.122 16.3797C45.072 16.4475 45.0445 16.5293 45.0433 16.6135C45.0362 24.0618 44.9645 30.4753 44.8241 36.7953C44.8164 36.8615 44.8255 36.9286 44.8505 36.9903C44.8756 37.0521 44.9158 37.1065 44.9674 37.1487C45.019 37.1908 45.0804 37.2193 45.146 37.2314C45.2115 37.2436 45.279 37.2391 45.3423 37.2183L45.3416 37.2159Z" fill="#093F68"/>
<path d="M21.2286 23.5701C21.1317 23.6011 21.0435 23.6544 20.971 23.7257C20.8985 23.7971 20.8438 23.8845 20.8112 23.9808C20.7787 24.0772 20.7693 24.1799 20.7837 24.2806C20.7981 24.3812 20.836 24.4771 20.8943 24.5605C25.1689 30.6426 28.9623 35.9208 32.6713 40.99C32.7595 41.1151 32.8882 41.2058 33.0357 41.2467C33.1833 41.2875 33.3404 41.2759 33.4803 41.2139C33.5671 41.1737 33.6439 41.1146 33.7051 41.0411C33.7664 40.9675 33.8105 40.8813 33.8344 40.7886C33.8582 40.6959 33.8612 40.5991 33.8431 40.5051C33.8251 40.4111 33.7863 40.3223 33.7298 40.2451C30.0231 35.1752 26.2369 29.8947 21.9551 23.8149C21.8754 23.7025 21.7622 23.6183 21.6317 23.5744C21.5011 23.5304 21.36 23.5289 21.2286 23.5701Z" fill="#093F68"/>
<path d="M21.1535 23.3317C21.3354 23.2736 21.5311 23.2753 21.712 23.3365C21.893 23.3977 22.0495 23.5152 22.1588 23.6718C26.4583 29.7748 30.1989 34.9938 33.9319 40.0973C34.0087 40.2026 34.0613 40.3237 34.0859 40.4517C34.1104 40.5798 34.1063 40.7117 34.0739 40.838C34.0413 40.967 33.9802 41.0872 33.8952 41.1896C33.8102 41.2921 33.7034 41.3743 33.5826 41.4302C33.3903 41.5172 33.1737 41.5347 32.97 41.4795C32.7663 41.4243 32.5881 41.2999 32.4661 41.1278C28.7347 36.0211 24.9918 30.8029 20.6846 24.684C20.6033 24.5687 20.5504 24.4359 20.5301 24.2964C20.5099 24.1568 20.5228 24.0144 20.5679 23.8808C20.613 23.7472 20.689 23.6261 20.7897 23.5274C20.8904 23.4287 21.013 23.3551 21.1475 23.3127L21.1535 23.3317ZM33.3281 41.0051L33.3733 40.9908C33.4269 40.9662 33.4745 40.93 33.5124 40.8849C33.5504 40.8397 33.5779 40.7867 33.593 40.7296C33.608 40.6725 33.6102 40.6128 33.5995 40.5548C33.5887 40.4968 33.5652 40.4419 33.5307 40.394C29.7945 35.2889 26.0532 30.0675 21.7468 23.951C21.6977 23.8824 21.6282 23.831 21.5483 23.8041C21.4684 23.7771 21.382 23.776 21.3014 23.8008C21.2418 23.8198 21.1875 23.8525 21.1429 23.8964C21.0983 23.9403 21.0647 23.9941 21.0449 24.0535C21.0251 24.1128 21.0196 24.176 21.0288 24.2379C21.0381 24.2998 21.0618 24.3586 21.0981 24.4096C25.3984 30.5149 29.1397 35.7363 32.8712 40.835C32.9202 40.9074 32.9905 40.9628 33.0724 40.9932C33.1543 41.0237 33.2437 41.0279 33.3281 41.0051Z" fill="#093F68"/>
<path d="M34.867 24.9496C25.7716 27.8184 20.7238 37.5173 23.5926 46.6127C26.4613 55.7082 36.1602 60.7559 45.2557 57.8872C54.3511 55.0184 59.3989 45.3195 56.5301 36.2241C53.6614 27.1286 43.9625 22.0809 34.867 24.9496Z" fill="#68E1FD"/>
<path d="M34.7912 24.7093C38.0959 23.6664 41.6357 23.627 44.9629 24.596C48.29 25.565 51.2551 27.4988 53.4831 30.153C55.7112 32.8072 57.1021 36.0625 57.48 39.5072C57.8579 42.9519 57.2058 46.4313 55.6062 49.5054C54.0066 52.5795 51.5313 55.1102 48.4933 56.7774C45.4554 58.4447 41.9913 59.1736 38.539 58.8721C35.0868 58.5705 31.8015 57.2519 29.0987 55.0832C26.3959 52.9144 24.3969 49.9929 23.3545 46.688C21.9624 42.2568 22.3847 37.4543 24.5287 33.3341C26.6727 29.2138 30.3634 26.1121 34.7912 24.7093ZM45.1806 57.6492C48.3915 56.637 51.2302 54.6953 53.3375 52.0697C55.4449 49.4441 56.7262 46.2525 57.0196 42.8986C57.313 39.5447 56.6051 36.1791 54.9856 33.2275C53.3661 30.2759 50.9076 27.8709 47.9211 26.3166C44.9347 24.7623 41.5544 24.1286 38.2077 24.4955C34.8611 24.8625 31.6984 26.2137 29.1197 28.3782C26.541 30.5427 24.6622 33.4233 23.7207 36.6557C22.7793 39.8881 22.8176 43.3271 23.8307 46.5378C25.193 50.8393 28.2058 54.4248 32.2082 56.5079C36.2107 58.5909 40.8759 59.0014 45.1806 57.6492Z" fill="#093F68"/>
<path d="M35.7571 27.7716C28.2201 30.1488 24.0373 38.1859 26.4145 45.7229C28.7917 53.2599 36.8287 57.4428 44.3658 55.0655C51.9028 52.6883 56.0856 44.6513 53.7084 37.1142C51.3312 29.5772 43.2942 25.3944 35.7571 27.7716Z" fill="white"/>
<path d="M35.6819 27.5335C38.4281 26.6673 41.3695 26.635 44.1341 27.4405C46.8988 28.246 49.3624 29.8533 51.2136 32.059C53.0648 34.2647 54.2203 36.9698 54.534 39.8322C54.8478 42.6946 54.3057 45.5858 52.9763 48.1402C51.6469 50.6945 49.5899 52.7973 47.0655 54.1826C44.541 55.5678 41.6624 56.1734 38.7938 55.9227C35.9252 55.672 33.1953 54.5763 30.9494 52.7741C28.7035 50.972 27.0424 48.5443 26.1762 45.798C25.0189 42.1154 25.3698 38.1241 27.1519 34.6999C28.934 31.2757 32.0017 28.6984 35.6819 27.5335ZM44.2898 54.8251C46.9419 53.9886 49.2864 52.3844 51.0268 50.2154C52.7672 48.0464 53.8253 45.41 54.0673 42.6397C54.3093 39.8693 53.7243 37.0894 52.3863 34.6515C51.0483 32.2136 49.0174 30.2273 46.5505 28.9437C44.0835 27.66 41.2914 27.1368 38.527 27.4401C35.7627 27.7434 33.1504 28.8597 31.0205 30.6477C28.8906 32.4357 27.3388 34.8152 26.5613 37.4852C25.7838 40.1552 25.8155 42.9958 26.6525 45.6478C27.7781 49.2011 30.2671 52.1629 33.5736 53.8833C36.88 55.6038 40.7339 55.9425 44.2898 54.8251Z" fill="#093F68"/>
<path d="M36.8656 31.2867C31.2698 33.0517 28.1642 39.0188 29.9291 44.6147C31.6941 50.2106 37.6613 53.3162 43.2572 51.5512C48.853 49.7863 51.9586 43.8191 50.1937 38.2232C48.4287 32.6273 42.4615 29.5218 36.8656 31.2867Z" fill="#68E1FD"/>
<path d="M36.7883 31.0411C38.8394 30.3916 41.037 30.365 43.1033 30.9646C45.1695 31.5643 47.0115 32.7632 48.3962 34.4099C49.7809 36.0565 50.6461 38.0769 50.8825 40.2153C51.1188 42.3538 50.7156 44.5143 49.7239 46.4236C48.7321 48.3329 47.1964 49.9051 45.311 50.9415C43.4256 51.9779 41.2752 52.4318 39.1317 52.2458C36.9883 52.0599 34.9482 51.2424 33.2694 49.8968C31.5906 48.5512 30.3487 46.738 29.7006 44.6865C28.8354 41.937 29.0957 38.9568 30.4243 36.3989C31.7529 33.8411 34.0415 31.9144 36.7883 31.0411ZM43.1805 51.308C45.1394 50.6927 46.8718 49.5102 48.1584 47.91C49.4449 46.3098 50.2279 44.3639 50.4081 42.3186C50.5883 40.2733 50.1577 38.2205 49.1708 36.42C48.184 34.6194 46.6851 33.1522 44.864 32.2038C43.0429 31.2555 40.9814 30.8687 38.9403 31.0924C36.8993 31.3161 34.9706 32.1403 33.3981 33.4606C31.8257 34.781 30.6803 36.5381 30.1069 38.5096C29.5334 40.4812 29.5578 42.5785 30.1768 44.5362C31.0068 47.1567 32.8416 49.3414 35.2793 50.6116C37.717 51.8817 40.5588 52.1339 43.182 51.3127L43.1805 51.308Z" fill="#093F68"/>
<path d="M37.8758 34.4893C34.0488 35.6963 31.9249 39.7773 33.132 43.6043C34.339 47.4313 38.42 49.5552 42.247 48.3482C46.074 47.1411 48.1979 43.0602 46.9909 39.2331C45.7838 35.4061 41.7029 33.2822 37.8758 34.4893Z" fill="white"/>
<path d="M37.8008 34.251C39.2183 33.8033 40.7368 33.7862 42.1641 34.2016C43.5915 34.617 44.8635 35.4464 45.8195 36.5848C46.7754 37.7233 47.3723 39.1197 47.5346 40.5973C47.6968 42.075 47.4173 43.5676 46.7312 44.8864C46.0451 46.2052 44.9834 47.2909 43.6802 48.0062C42.3771 48.7215 40.8911 49.0343 39.4101 48.905C37.9292 48.7757 36.5199 48.2101 35.3604 47.2798C34.2009 46.3495 33.3434 45.0962 32.8962 43.6785C32.2989 41.7779 32.4797 39.718 33.3992 37.9506C34.3186 36.1833 35.9016 34.8527 37.8008 34.251ZM42.1712 48.1075C43.4949 47.6905 44.6653 46.8903 45.5342 45.808C46.4031 44.7258 46.9315 43.4101 47.0526 42.0275C47.1737 40.6449 46.882 39.2574 46.2144 38.0406C45.5468 36.8238 44.5334 35.8323 43.3022 35.1916C42.0711 34.5509 40.6776 34.2896 39.2979 34.441C37.9183 34.5923 36.6146 35.1495 35.5516 36.0419C34.4887 36.9343 33.7143 38.1219 33.3264 39.4545C32.9385 40.7871 32.9545 42.2048 33.3725 43.5283C33.9343 45.3007 35.176 46.7781 36.8253 47.6365C38.4747 48.4949 40.3971 48.6643 42.1712 48.1075Z" fill="#093F68"/>
<path d="M38.8509 37.5799C36.7309 38.2486 35.5543 40.5092 36.223 42.6292C36.8917 44.7492 39.1523 45.9257 41.2723 45.2571C43.3923 44.5884 44.5688 42.3278 43.9002 40.2078C43.2315 38.0878 40.9709 36.9113 38.8509 37.5799Z" fill="#68E1FD"/>
<path d="M38.7755 37.3419C39.5818 37.0875 40.4454 37.078 41.2571 37.3145C42.0688 37.5511 42.7921 38.0229 43.3356 38.6705C43.8792 39.3181 44.2184 40.1124 44.3105 40.9528C44.4027 41.7932 44.2435 42.6421 43.8532 43.392C43.4629 44.142 42.8589 44.7594 42.1177 45.1661C41.3766 45.5728 40.5314 45.7506 39.6892 45.677C38.8469 45.6034 38.0454 45.2817 37.386 44.7526C36.7266 44.2235 36.2389 43.5107 35.9846 42.7044C35.645 41.6232 35.7481 40.4514 36.2713 39.4461C36.7945 38.4407 37.6951 37.684 38.7755 37.3419ZM41.1969 45.019C41.909 44.7944 42.5385 44.3637 43.0058 43.7813C43.4732 43.199 43.7573 42.4911 43.8223 41.7473C43.8873 41.0034 43.7303 40.257 43.3711 39.6024C43.0118 38.9478 42.4666 38.4144 41.8042 38.0697C41.1419 37.725 40.3922 37.5844 39.65 37.6657C38.9077 37.7471 38.2063 38.0467 37.6343 38.5268C37.0624 39.0068 36.6456 39.6456 36.4367 40.3625C36.2279 41.0794 36.2363 41.8421 36.4609 42.5542C36.7632 43.5083 37.4315 44.3036 38.3193 44.7656C39.2072 45.2277 40.242 45.3188 41.1969 45.019Z" fill="#093F68"/>
<path d="M58.6209 48.4725L61.8396 45.6036L55.064 43.1223L51.6234 45.8935L58.6209 48.4725Z" fill="#F56132"/>
<path d="M54.9888 42.8838C55.0418 42.8672 55.0987 42.8676 55.1515 42.8848L61.9247 45.3669C61.965 45.3819 62.0007 45.407 62.0285 45.4398C62.0562 45.4726 62.075 45.5121 62.0831 45.5543C62.0911 45.5965 62.0882 45.6401 62.0744 45.6808C62.0607 45.7215 62.0367 45.758 62.0047 45.7868L58.786 48.6556C58.7526 48.6845 58.7121 48.7041 58.6687 48.7123C58.6253 48.7204 58.5805 48.717 58.5388 48.7022L51.5414 46.1232C51.4995 46.1081 51.4624 46.0821 51.4339 46.0479C51.4055 46.0137 51.3867 45.9725 51.3795 45.9285C51.3723 45.8846 51.377 45.8396 51.3931 45.7981C51.4092 45.7566 51.4361 45.7201 51.471 45.6925L54.9116 42.9212C54.9353 42.9049 54.9613 42.8922 54.9888 42.8838ZM61.3729 45.6928L55.1202 43.4L52.1325 45.8059L58.5574 48.1884L61.3729 45.6928Z" fill="#093F68"/>
<path d="M58.7763 48.6825L58.548 52.5325L52.257 49.4375L51.6235 45.8933L58.7763 48.6825Z" fill="#F56132"/>
<path d="M51.5483 45.6552C51.6027 45.6377 51.6615 45.6395 51.7148 45.6602L58.8771 48.4464C58.9266 48.4655 58.9688 48.4998 58.9974 48.5444C59.0261 48.589 59.0398 48.6416 59.0366 48.6946L58.8075 52.5422C58.8051 52.5835 58.7924 52.6236 58.7706 52.6588C58.7488 52.694 58.7186 52.7233 58.6826 52.7439C58.6449 52.7685 58.6011 52.7825 58.556 52.7843C58.5109 52.786 58.4662 52.7756 58.4266 52.754L52.1332 49.6597C52.0982 49.6424 52.0677 49.6171 52.0442 49.5859C52.0207 49.5546 52.0048 49.5183 51.998 49.4798L51.3669 45.9349C51.359 45.8912 51.363 45.8462 51.3784 45.8045C51.3938 45.7628 51.42 45.726 51.4544 45.6979C51.4824 45.6773 51.5144 45.6627 51.5483 45.6552ZM58.5057 48.8542L51.9368 46.2893L52.4666 49.264L58.3095 52.1337L58.5057 48.8542Z" fill="#093F68"/>
<path d="M39.8056 40.8237C39.9306 40.7852 40.0649 40.7898 40.1868 40.837L61.394 48.9642C61.469 48.9888 61.5382 49.0283 61.5974 49.0804C61.6566 49.1326 61.7046 49.1962 61.7385 49.2674C61.7723 49.3387 61.7913 49.4161 61.7943 49.4949C61.7974 49.5737 61.7843 49.6524 61.756 49.726C61.7277 49.7996 61.6847 49.8667 61.6296 49.9232C61.5745 49.9797 61.5086 50.0244 61.4357 50.0546C61.3628 50.0848 61.2845 50.0999 61.2057 50.0989C61.1268 50.0979 61.0489 50.0808 60.9768 50.0488L39.7705 41.9161C39.6582 41.8726 39.562 41.7954 39.4954 41.695C39.4289 41.5946 39.3951 41.476 39.3988 41.3556C39.4024 41.2352 39.4434 41.1189 39.516 41.0228C39.5886 40.9266 39.6893 40.8554 39.8041 40.8189L39.8056 40.8237Z" fill="#FFBC0E"/>
<path d="M39.7309 40.5856C39.9095 40.5299 40.1019 40.5366 40.2762 40.6047L61.4834 48.732C61.688 48.8134 61.852 48.9727 61.9393 49.1749C62.0266 49.377 62.0302 49.6056 61.9492 49.8104C61.8698 50.0154 61.7127 50.1807 61.5121 50.2705C61.3114 50.3602 61.0834 50.3671 60.8777 50.2897L39.6683 42.1553C39.5076 42.0931 39.3703 41.9826 39.2752 41.8389C39.1801 41.6953 39.1319 41.5256 39.1374 41.3535C39.1429 41.1813 39.2017 41.0151 39.3058 40.8777C39.4098 40.7404 39.5539 40.6389 39.7182 40.587L39.7309 40.5856ZM61.2872 49.8281C61.3525 49.807 61.4097 49.7661 61.4509 49.7112C61.4921 49.6562 61.5152 49.5898 61.5171 49.5212C61.519 49.4525 61.4995 49.385 61.4615 49.3279C61.4234 49.2707 61.3685 49.2268 61.3044 49.2021L40.0981 41.0693C40.0162 41.0403 39.9262 41.0437 39.8467 41.079C39.7673 41.1143 39.7043 41.1788 39.671 41.2591C39.6553 41.2998 39.6477 41.3432 39.6488 41.3868C39.6499 41.4304 39.6595 41.4734 39.6772 41.5133C39.6949 41.5532 39.7203 41.5892 39.7519 41.6193C39.7835 41.6493 39.8207 41.6729 39.8614 41.6886L61.0692 49.8261C61.1398 49.8486 61.2157 49.8476 61.2857 49.8233L61.2872 49.8281Z" fill="#093F68"/>
<path d="M5.18752 11.767L5.18752 6.76298L5.51349 7.00966L4.29771 7.65279L4.04222 6.82465L5.68969 5.94365L6.14781 5.94365L6.14781 11.767L5.18752 11.767ZM4.20961 12.1987L4.20961 11.2825L7.15214 11.2825L7.15214 12.1987L4.20961 12.1987ZM10.7819 12.1987L10.7819 7.22991L11.0021 7.28277L8.97581 9.75837L8.94057 9.65265L12.7729 9.65265L12.7729 10.5248L8.3503 10.5248L7.94504 9.73194L10.9669 6.03175L11.6981 6.03175L11.6981 12.1987L10.7819 12.1987Z" fill="black"/>
<path d="M59.6205 87.2807L59.6205 82.2767L59.9465 82.5233L58.7307 83.1665L58.4752 82.3383L60.1227 81.4573L60.5808 81.4573L60.5808 87.2807L59.6205 87.2807ZM58.6426 87.7124L58.6426 86.7962L61.5852 86.7962L61.5852 87.7124L58.6426 87.7124ZM65.2149 87.7124L65.2149 82.7436L65.4351 82.7964L63.4088 85.272L63.3736 85.1663L67.2059 85.1663L67.2059 86.0385L62.7833 86.0385L62.3781 85.2456L65.3999 81.5454L66.1311 81.5454L66.1311 87.7124L65.2149 87.7124Z" fill="black"/>
</svg>
