<svg width="456" height="588" viewBox="0 0 456 588" fill="none" xmlns="http://www.w3.org/2000/svg">
<rect x="0.5" y="-0.5" width="454.224" height="587" rx="7.5" transform="matrix(1 0 0 -1 0.775879 587)" fill="#F7F7F7" stroke="#796894"/>
<rect x="50.8782" y="188" width="4.09191" height="339" fill="#24133F"/>
<rect width="4.09191" height="339" transform="matrix(1 0 0 -1 403.828 402)" fill="#24133F"/>
<rect x="50.8782" y="150" width="4.09191" height="11" fill="#24133F"/>
<rect width="4.09191" height="11" transform="matrix(1 0 0 -1 403.828 440)" fill="#24133F"/>
<rect x="50.8782" y="165" width="4.09191" height="11" fill="#24133F"/>
<rect width="4.09191" height="11" transform="matrix(1 0 0 -1 403.828 425)" fill="#24133F"/>
<rect x="32.4648" y="106" width="36.8271" height="32" fill="black"/>
<rect width="36.8271" height="32" transform="matrix(1 0 0 -1 385.415 484)" fill="black"/>
<path d="M39.2953 73.256V41.448L41.3673 43.016L33.6393 47.104L32.0153 41.84L42.4873 36.24H45.3993V73.256H39.2953ZM33.0793 76V70.176H51.7833V76H33.0793ZM70.9913 76C69.05 76 67.2393 75.664 65.5593 74.992C63.9166 74.2827 62.4793 73.312 61.2473 72.08C60.0526 70.848 59.1006 69.392 58.3913 67.712C57.7193 66.032 57.3833 64.184 57.3833 62.168C57.3833 61.16 57.514 60.04 57.7753 58.808C58.074 57.5387 58.5033 56.1573 59.0633 54.664C59.6606 53.1707 60.37 51.6027 61.1913 49.96C62.0126 48.28 62.9646 46.544 64.0473 44.752L69.1433 36.128H75.0233L75.2473 36.688L69.0873 47.048C67.9673 48.952 66.9593 50.7627 66.0633 52.48C65.2046 54.1973 64.4766 55.8213 63.8793 57.352C63.282 58.8453 62.834 60.208 62.5353 61.44L61.1913 55.672C61.9006 54.5147 62.666 53.5067 63.4873 52.648C64.3086 51.752 65.186 51.0053 66.1193 50.408C67.09 49.8107 68.098 49.3627 69.1433 49.064C70.1886 48.7653 71.2713 48.616 72.3913 48.616C74.5566 48.616 76.5353 49.2133 78.3273 50.408C80.1566 51.5653 81.6126 53.1147 82.6953 55.056C83.8153 56.9973 84.3753 59.1253 84.3753 61.44C84.3753 64.24 83.7966 66.7413 82.6393 68.944C81.5193 71.1093 79.9513 72.8267 77.9353 74.096C75.9193 75.3653 73.6046 76 70.9913 76ZM70.9913 70.4C72.4473 70.4 73.7353 70.064 74.8553 69.392C76.0126 68.6827 76.9086 67.712 77.5433 66.48C78.2153 65.2107 78.5513 63.7733 78.5513 62.168C78.5513 60.7867 78.2153 59.4987 77.5433 58.304C76.8713 57.072 75.9753 56.0827 74.8553 55.336C73.7353 54.5893 72.4846 54.216 71.1033 54.216C69.5726 54.216 68.21 54.5707 67.0153 55.28C65.8206 55.9893 64.8873 56.9413 64.2153 58.136C63.5433 59.3307 63.2073 60.656 63.2073 62.112C63.2073 63.68 63.5433 65.0987 64.2153 66.368C64.8873 67.6 65.802 68.5893 66.9593 69.336C68.1166 70.0453 69.4606 70.4 70.9913 70.4ZM103.283 76.56C100.297 76.56 97.7205 75.7387 95.5552 74.096C93.4272 72.4533 91.7845 70.1387 90.6272 67.152C89.4699 64.128 88.8912 60.544 88.8912 56.4C88.8912 52.256 89.4699 48.6907 90.6272 45.704C91.7845 42.68 93.4272 40.3467 95.5552 38.704C97.7205 37.0613 100.297 36.24 103.283 36.24C106.27 36.24 108.846 37.0613 111.011 38.704C113.177 40.3467 114.838 42.68 115.995 45.704C117.153 48.6907 117.731 52.256 117.731 56.4C117.731 60.544 117.153 64.128 115.995 67.152C114.838 70.1387 113.177 72.4533 111.011 74.096C108.846 75.7387 106.27 76.56 103.283 76.56ZM103.283 71.072C106.009 71.072 108.118 69.8027 109.611 67.264C111.105 64.688 111.851 61.0667 111.851 56.4C111.851 51.7333 111.105 48.1307 109.611 45.592C108.118 43.016 106.009 41.728 103.283 41.728C100.558 41.728 98.4485 43.016 96.9552 45.592C95.4619 48.1307 94.7152 51.7333 94.7152 56.4C94.7152 61.0667 95.4619 64.688 96.9552 67.264C98.4485 69.8027 100.558 71.072 103.283 71.072Z" fill="black"/>
<path d="M345.625 553.256V521.448L347.697 523.016L339.969 527.104L338.345 521.84L348.817 516.24H351.729V553.256H345.625ZM339.409 556V550.176H358.113V556H339.409ZM377.321 556C375.379 556 373.569 555.664 371.889 554.992C370.246 554.283 368.809 553.312 367.577 552.08C366.382 550.848 365.43 549.392 364.721 547.712C364.049 546.032 363.713 544.184 363.713 542.168C363.713 541.16 363.843 540.04 364.105 538.808C364.403 537.539 364.833 536.157 365.393 534.664C365.99 533.171 366.699 531.603 367.521 529.96C368.342 528.28 369.294 526.544 370.377 524.752L375.473 516.128H381.353L381.577 516.688L375.417 527.048C374.297 528.952 373.289 530.763 372.393 532.48C371.534 534.197 370.806 535.821 370.209 537.352C369.611 538.845 369.163 540.208 368.865 541.44L367.521 535.672C368.23 534.515 368.995 533.507 369.817 532.648C370.638 531.752 371.515 531.005 372.449 530.408C373.419 529.811 374.427 529.363 375.473 529.064C376.518 528.765 377.601 528.616 378.721 528.616C380.886 528.616 382.865 529.213 384.657 530.408C386.486 531.565 387.942 533.115 389.025 535.056C390.145 536.997 390.705 539.125 390.705 541.44C390.705 544.24 390.126 546.741 388.969 548.944C387.849 551.109 386.281 552.827 384.265 554.096C382.249 555.365 379.934 556 377.321 556ZM377.321 550.4C378.777 550.4 380.065 550.064 381.185 549.392C382.342 548.683 383.238 547.712 383.873 546.48C384.545 545.211 384.881 543.773 384.881 542.168C384.881 540.787 384.545 539.499 383.873 538.304C383.201 537.072 382.305 536.083 381.185 535.336C380.065 534.589 378.814 534.216 377.433 534.216C375.902 534.216 374.539 534.571 373.345 535.28C372.15 535.989 371.217 536.941 370.545 538.136C369.873 539.331 369.537 540.656 369.537 542.112C369.537 543.68 369.873 545.099 370.545 546.368C371.217 547.6 372.131 548.589 373.289 549.336C374.446 550.045 375.79 550.4 377.321 550.4ZM409.613 556.56C406.626 556.56 404.05 555.739 401.885 554.096C399.757 552.453 398.114 550.139 396.957 547.152C395.799 544.128 395.221 540.544 395.221 536.4C395.221 532.256 395.799 528.691 396.957 525.704C398.114 522.68 399.757 520.347 401.885 518.704C404.05 517.061 406.626 516.24 409.613 516.24C412.599 516.24 415.175 517.061 417.341 518.704C419.506 520.347 421.167 522.68 422.325 525.704C423.482 528.691 424.061 532.256 424.061 536.4C424.061 540.544 423.482 544.128 422.325 547.152C421.167 550.139 419.506 552.453 417.341 554.096C415.175 555.739 412.599 556.56 409.613 556.56ZM409.613 551.072C412.338 551.072 414.447 549.803 415.941 547.264C417.434 544.688 418.181 541.067 418.181 536.4C418.181 531.733 417.434 528.131 415.941 525.592C414.447 523.016 412.338 521.728 409.613 521.728C406.887 521.728 404.778 523.016 403.285 525.592C401.791 528.131 401.045 531.733 401.045 536.4C401.045 541.067 401.791 544.688 403.285 547.264C404.778 549.803 406.887 551.072 409.613 551.072Z" fill="black"/>
<path d="M207.313 302.746C207.313 302.746 192.318 301.838 191.351 307.417C190.385 312.997 211.161 315.959 211.161 315.959L207.313 302.746Z" fill="#F4A28C"/>
<path d="M193.517 304.718C193.517 304.718 194.168 300.265 187.549 300.674C184.072 300.892 179.025 303.7 175.018 306.317C174.543 306.619 174.182 307.065 173.993 307.588C173.803 308.11 173.795 308.678 173.97 309.205C174.145 309.732 174.493 310.188 174.959 310.502C175.426 310.816 175.986 310.971 176.552 310.943L193.973 311.07C193.973 311.07 191.184 308.689 193.517 304.718Z" fill="#68E1FD"/>
<path d="M237.255 222.751C237.255 222.751 261.155 259.236 285 258.409C308.844 257.582 327.455 198.987 327.455 198.987C327.455 198.987 339.038 198.351 339.02 192.962C339.001 187.574 326.33 185.002 321.943 190.682C317.555 196.361 298.991 236.118 285.781 232.074C272.571 228.03 271.483 211.246 271.483 211.246L237.255 222.751Z" fill="#F4A28C"/>
<path opacity="0.3" d="M229.725 328.999C304.976 328.999 365.978 323.926 365.978 317.668C365.978 311.409 304.976 306.336 229.725 306.336C154.475 306.336 93.4725 311.409 93.4725 317.668C93.4725 323.926 154.475 328.999 229.725 328.999Z" fill="#E6E6E6"/>
<path d="M242.666 174.597C242.666 174.597 243.493 182.349 251.516 189.2C259.538 196.052 271.707 202.659 262.104 214.936C252.501 227.213 224.65 199.487 232.133 180.668C239.617 161.848 242.666 174.597 242.666 174.597Z" fill="#FFD200"/>
<path d="M216.395 156.532C216.395 156.532 220.262 173.834 209.618 178.741C198.974 183.648 166.754 198.597 184.323 223.787C201.893 248.977 228.879 232.711 231.733 218.907C234.587 205.103 234.569 173.861 234.569 173.861L216.395 156.532Z" fill="#FFD200"/>
<path d="M254.239 233.774C265.216 233.774 274.114 225.075 274.114 214.345C274.114 203.615 265.216 194.917 254.239 194.917C243.262 194.917 234.364 203.615 234.364 214.345C234.364 225.075 243.262 233.774 254.239 233.774Z" fill="#68E1FD"/>
<path opacity="0.44" d="M254.239 233.774C265.216 233.774 274.114 225.075 274.114 214.345C274.114 203.615 265.216 194.917 254.239 194.917C243.262 194.917 234.364 203.615 234.364 214.345C234.364 225.075 243.262 233.774 254.239 233.774Z" fill="white"/>
<path d="M230.413 156.068L223.441 187.574L240.119 193.817L237.702 167.146L230.413 156.068Z" fill="#F4A28C"/>
<path opacity="0.31" d="M238.176 171.853C235.098 171.13 232.122 170.041 229.317 168.608C229.317 168.608 229.921 177.741 239.012 181.63L238.176 171.853Z" fill="#CE8172"/>
<path d="M242.945 151.87C242.945 151.87 246.803 162.166 246.896 169.654C246.907 170.379 246.771 171.099 246.496 171.772C246.221 172.446 245.813 173.06 245.295 173.578C244.776 174.097 244.158 174.51 243.476 174.794C242.793 175.078 242.06 175.227 241.318 175.233C237.451 175.233 232.236 174.143 229.493 168.872L223.711 160.476C223.711 160.476 220.281 155.096 225.199 149.198C230.116 143.301 240.928 145.482 242.945 151.87Z" fill="#F4A28C"/>
<path d="M245.017 158.476L249.163 161.757C249.399 161.943 249.582 162.184 249.696 162.458C249.81 162.732 249.851 163.03 249.816 163.324C249.781 163.618 249.67 163.898 249.494 164.139C249.318 164.38 249.083 164.573 248.81 164.701L244.878 166.519L245.017 158.476Z" fill="#F4A28C"/>
<path d="M240.686 146.999C240.686 146.999 248.531 156.259 233.927 163.956L225.961 171.989C225.961 171.989 217.836 165.11 216.395 156.541C214.954 147.971 230.302 132.868 240.686 146.999Z" fill="#FFD200"/>
<path d="M233.927 163.956C233.927 163.956 232.728 159.903 229.688 161.039C226.648 162.175 228.34 168.045 232.746 167.473L233.927 163.956Z" fill="#F4A28C"/>
<path d="M223.442 187.574C223.442 187.574 171.7 192.845 179.704 213.882C187.708 234.919 208.921 265.07 208.921 265.07L251.451 267.306C251.958 257.738 254.571 248.39 259.111 239.899C266.548 226.458 277.87 212.637 240.156 193.817L223.442 187.574Z" fill="#68E1FD"/>
<path opacity="0.08" d="M204.449 203.204C204.449 203.204 214.489 214.427 211.524 226.731C208.558 239.035 209.283 260.4 223.98 258.409C233.556 257.179 243.206 256.593 252.863 256.656C252.863 256.656 251.339 264.934 251.413 267.306L208.921 265.07L191.955 238.454L204.449 203.204Z" fill="black"/>
<path d="M203.501 263.462C203.501 263.462 188.785 282.218 197.309 290.778C205.834 299.338 217.761 304.763 221.061 319.158L256.209 316.977C258.185 316.856 260.108 316.305 261.837 315.362C263.565 314.42 265.056 313.111 266.199 311.532C267.343 309.952 268.109 308.142 268.443 306.235C268.776 304.328 268.668 302.372 268.127 300.511C265.682 292.168 260.867 280.818 251.394 267.315L203.501 263.462Z" fill="#24285B"/>
<path d="M184.081 200.096C184.081 200.096 215.688 205.094 263.814 211.719C263.814 211.719 256.916 196.443 230.515 187.128C217.984 182.721 190.468 193.435 184.081 200.096Z" fill="#F4A28C"/>
<path d="M171.792 211.346C171.792 211.346 147.464 276.347 175.966 275.656C204.468 274.966 234.634 263.589 234.634 263.589C234.634 263.589 248.15 262.534 247.89 255.192C247.63 247.849 237.859 250.648 232.616 255.056C232.616 255.056 196.427 263.57 189.176 259.263C181.925 254.956 200.656 219.688 200.656 219.688L171.792 211.346Z" fill="#F4A28C"/>
<path d="M199.393 307.099C199.393 307.099 184.398 306.19 183.431 311.77C182.464 317.35 203.241 320.339 203.241 320.339L199.393 307.099Z" fill="#F4A28C"/>
<path d="M186.015 229.893C196.992 229.893 205.89 221.195 205.89 210.465C205.89 199.735 196.992 191.036 186.015 191.036C175.038 191.036 166.14 199.735 166.14 210.465C166.14 221.195 175.038 229.893 186.015 229.893Z" fill="#68E1FD"/>
<path opacity="0.44" d="M186.015 229.893C196.992 229.893 205.89 221.195 205.89 210.465C205.89 199.735 196.992 191.036 186.015 191.036C175.038 191.036 166.14 199.735 166.14 210.465C166.14 221.195 175.038 229.893 186.015 229.893Z" fill="white"/>
<path d="M207.638 296.949C207.638 296.949 190.524 302.228 192.867 316.032C194.503 325.719 232.282 324.211 254.714 322.466C257.168 322.281 259.552 321.576 261.7 320.4C263.847 319.223 265.707 317.604 267.149 315.653C268.591 313.703 269.581 311.469 270.051 309.106C270.52 306.744 270.457 304.31 269.866 301.974C267.542 292.959 262.374 281.073 251.414 267.297L207.638 296.949Z" fill="#24285B"/>
<path d="M185.616 309.071C185.616 309.071 186.257 304.618 179.648 305.027C176.171 305.245 171.114 308.053 167.107 310.67C166.631 310.972 166.27 311.419 166.081 311.942C165.891 312.466 165.884 313.035 166.06 313.563C166.236 314.09 166.585 314.546 167.054 314.86C167.522 315.173 168.084 315.326 168.65 315.296L186.071 315.414C186.071 315.414 183.282 313.015 185.616 309.071Z" fill="#68E1FD"/>
<path d="M287.092 315.05C287.092 315.05 278.53 309.598 284.303 302.401C290.076 295.204 294.631 306.263 296.899 298.257C299.167 290.251 305.21 288.779 308.742 291.732C312.275 294.686 312.014 300.819 312.014 300.819C312.014 300.819 320.818 297.866 323.718 302.637C326.619 307.408 322.612 315.05 322.612 315.05H287.092Z" fill="#E6E6E6"/>
<path d="M174.879 316.722C174.879 316.722 180.689 310.907 173.428 305.318C166.168 299.729 168.027 312.115 163.045 307.044C158.062 301.974 166.159 298.484 160.553 293.414C154.948 288.343 151.415 298.766 151.415 298.766C150.245 297.9 148.883 297.316 147.44 297.061C145.996 296.805 144.511 296.885 143.105 297.294C138.326 298.711 140.613 306.835 146.014 307.444C146.014 307.444 135.008 309.144 138.326 316.713L174.879 316.722Z" fill="#E6E6E6"/>
<path d="M323.82 152.897C323.82 152.897 323.058 146.118 328.543 141.701C334.027 137.285 342.44 148.798 334.037 153.878C334.037 153.878 344.736 152.57 343.5 159.331C342.264 166.091 332.642 163.756 332.642 163.756L323.82 152.897Z" fill="#68E1FD"/>
<path d="M321.115 155.205C321.115 155.205 314.347 153.569 309.132 158.286C303.917 163.002 314.468 172.707 320.743 165.237C320.743 165.237 317.954 175.424 325.001 175.133C332.047 174.843 330.941 165.21 330.941 165.21L321.115 155.205Z" fill="#68E1FD"/>
<path d="M321.241 152.688L321.136 152.778C320.39 153.415 320.314 154.523 320.966 155.252L329.452 164.742C330.105 165.471 331.238 165.545 331.984 164.908L332.089 164.818C332.835 164.18 332.911 163.073 332.259 162.343L323.773 152.854C323.121 152.125 321.987 152.05 321.241 152.688Z" fill="#24285B"/>
<path d="M204.637 285.959C204.637 285.959 189.643 286.867 188.676 281.288C187.709 275.708 208.486 272.746 208.486 272.746L204.637 285.959Z" fill="#F4A28C"/>
<path d="M190.842 283.987C190.842 283.987 191.493 288.44 184.874 288.031C181.397 287.812 176.349 285.005 172.343 282.387C171.867 282.086 171.507 281.639 171.317 281.117C171.128 280.595 171.12 280.027 171.295 279.5C171.47 278.973 171.817 278.517 172.284 278.203C172.751 277.888 173.311 277.734 173.876 277.762L191.297 277.635C191.297 277.635 188.509 280.016 190.842 283.987Z" fill="#68E1FD"/>
<path d="M234.579 365.954C234.579 365.954 258.48 329.469 282.324 330.296C306.169 331.123 324.779 389.718 324.779 389.718C324.779 389.718 336.362 390.354 336.344 395.742C336.325 401.131 323.655 403.703 319.267 398.023C314.879 392.344 296.315 352.587 283.105 356.631C269.895 360.675 268.808 377.459 268.808 377.459L234.579 365.954Z" fill="#F4A28C"/>
<path opacity="0.3" d="M227.05 259.705C302.3 259.705 363.303 264.779 363.303 271.037C363.303 277.296 302.3 282.369 227.05 282.369C151.8 282.369 90.7974 277.296 90.7974 271.037C90.7974 264.779 151.8 259.705 227.05 259.705Z" fill="#E6E6E6"/>
<path d="M239.99 414.108C239.99 414.108 240.818 406.356 248.84 399.504C256.863 392.653 269.031 386.046 259.429 373.769C249.826 361.492 221.975 389.218 229.458 408.037C236.941 426.857 239.99 414.108 239.99 414.108Z" fill="#FFD200"/>
<path d="M213.719 432.173C213.719 432.173 217.586 414.871 206.942 409.964C196.298 405.057 164.078 390.108 181.648 364.918C199.217 339.728 226.204 355.994 229.058 369.798C231.912 383.602 231.893 414.844 231.893 414.844L213.719 432.173Z" fill="#FFD200"/>
<path d="M251.564 354.931C262.54 354.931 271.439 363.63 271.439 374.36C271.439 385.09 262.54 393.788 251.564 393.788C240.587 393.788 231.689 385.09 231.689 374.36C231.689 363.63 240.587 354.931 251.564 354.931Z" fill="#68E1FD"/>
<path opacity="0.44" d="M251.564 354.931C262.54 354.931 271.439 363.63 271.439 374.36C271.439 385.09 262.54 393.788 251.564 393.788C240.587 393.788 231.689 385.09 231.689 374.36C231.689 363.63 240.587 354.931 251.564 354.931Z" fill="white"/>
<path d="M227.738 432.636L220.766 401.131L237.443 394.888L235.026 421.559L227.738 432.636Z" fill="#F4A28C"/>
<path opacity="0.31" d="M235.501 416.852C232.423 417.575 229.447 418.664 226.641 420.096C226.641 420.096 227.246 410.964 236.337 407.074L235.501 416.852Z" fill="#CE8172"/>
<path d="M240.269 436.835C240.269 436.835 244.127 426.539 244.22 419.051C244.231 418.326 244.095 417.606 243.821 416.933C243.546 416.259 243.138 415.645 242.619 415.127C242.101 414.608 241.482 414.195 240.8 413.911C240.118 413.627 239.384 413.477 238.643 413.471C234.775 413.471 229.56 414.562 226.818 419.833L221.036 428.229C221.036 428.229 217.606 433.609 222.523 439.507C227.441 445.404 238.252 443.223 240.269 436.835Z" fill="#F4A28C"/>
<path d="M242.342 430.229L246.488 426.948C246.723 426.762 246.907 426.52 247.021 426.246C247.135 425.972 247.176 425.675 247.141 425.381C247.106 425.087 246.995 424.807 246.819 424.566C246.643 424.325 246.408 424.132 246.135 424.004L242.203 422.186L242.342 430.229Z" fill="#F4A28C"/>
<path d="M238.01 441.706C238.01 441.706 245.856 432.446 231.252 424.749L223.285 416.716C223.285 416.716 215.161 423.595 213.72 432.164C212.279 440.733 227.627 455.837 238.01 441.706Z" fill="#FFD200"/>
<path d="M231.252 424.749C231.252 424.749 230.053 428.802 227.013 427.666C223.973 426.53 225.665 420.66 230.071 421.232L231.252 424.749Z" fill="#F4A28C"/>
<path d="M220.767 401.131C220.767 401.131 169.025 395.86 177.029 374.823C185.033 353.786 206.246 323.634 206.246 323.634L248.776 321.399C249.283 330.967 251.896 340.315 256.436 348.806C263.873 362.246 275.195 376.068 237.481 394.888L220.767 401.131Z" fill="#68E1FD"/>
<path opacity="0.08" d="M201.774 385.501C201.774 385.501 211.814 374.278 208.848 361.974C205.883 349.67 206.608 328.305 221.305 330.295C230.88 331.525 240.531 332.111 250.188 332.049C250.188 332.049 248.663 323.771 248.738 321.399L206.245 323.634L189.28 350.251L201.774 385.501Z" fill="black"/>
<path d="M200.826 325.243C200.826 325.243 186.11 306.487 194.635 297.927C203.159 289.367 215.086 283.941 218.386 269.547L253.535 271.728C255.51 271.848 257.433 272.4 259.162 273.342C260.89 274.285 262.381 275.594 263.524 277.173C264.668 278.753 265.434 280.563 265.768 282.47C266.101 284.377 265.994 286.333 265.452 288.194C263.007 296.536 258.192 307.886 248.719 321.39L200.826 325.243Z" fill="#24285B"/>
<path d="M181.406 388.609C181.406 388.609 213.013 383.611 261.138 376.986C261.138 376.986 254.241 392.262 227.84 401.576C215.309 405.984 187.792 395.27 181.406 388.609Z" fill="#F4A28C"/>
<path d="M169.116 377.359C169.116 377.359 144.789 312.357 173.29 313.048C201.792 313.739 231.958 325.116 231.958 325.116C231.958 325.116 245.475 326.17 245.214 333.513C244.954 340.855 235.184 338.056 229.941 333.649C229.941 333.649 193.751 325.134 186.5 329.442C179.249 333.749 197.981 369.017 197.981 369.017L169.116 377.359Z" fill="#F4A28C"/>
<path d="M196.717 281.606C196.717 281.606 181.722 282.514 180.756 276.935C179.789 271.355 200.566 268.365 200.566 268.365L196.717 281.606Z" fill="#F4A28C"/>
<path d="M183.34 358.811C194.317 358.811 203.215 367.51 203.215 378.24C203.215 388.97 194.317 397.669 183.34 397.669C172.363 397.669 163.465 388.97 163.465 378.24C163.465 367.51 172.363 358.811 183.34 358.811Z" fill="#68E1FD"/>
<path opacity="0.44" d="M183.34 358.811C194.317 358.811 203.215 367.51 203.215 378.24C203.215 388.97 194.317 397.669 183.34 397.669C172.363 397.669 163.465 388.97 163.465 378.24C163.465 367.51 172.363 358.811 183.34 358.811Z" fill="white"/>
<path d="M204.963 291.756C204.963 291.756 187.849 286.476 190.192 272.673C191.828 262.986 229.607 264.494 252.039 266.239C254.493 266.423 256.877 267.129 259.025 268.305C261.172 269.482 263.032 271.101 264.474 273.052C265.916 275.002 266.906 277.236 267.375 279.598C267.845 281.961 267.782 284.395 267.191 286.731C264.867 295.745 259.699 307.632 248.739 321.408L204.963 291.756Z" fill="#24285B"/>
<path d="M182.941 279.634C182.941 279.634 183.582 284.087 176.973 283.678C173.496 283.46 168.439 280.652 164.432 278.035C163.956 277.733 163.595 277.285 163.405 276.762C163.216 276.239 163.209 275.67 163.385 275.142C163.561 274.614 163.91 274.159 164.379 273.845C164.847 273.532 165.408 273.379 165.975 273.409L183.396 273.291C183.396 273.291 180.607 275.69 182.941 279.634Z" fill="#68E1FD"/>
<path d="M284.416 273.655C284.416 273.655 275.855 279.107 281.627 286.304C287.4 293.501 291.955 282.442 294.224 290.448C296.492 298.454 302.534 299.926 306.067 296.973C309.599 294.019 309.339 287.885 309.339 287.885C309.339 287.885 318.142 290.839 321.043 286.068C323.943 281.297 319.937 273.655 319.937 273.655H284.416Z" fill="#E6E6E6"/>
<path d="M172.203 271.982C172.203 271.982 178.013 277.798 170.753 283.387C163.493 288.976 165.352 276.59 160.369 281.66C155.386 286.731 163.483 290.221 157.878 295.291C152.272 300.362 148.74 289.939 148.74 289.939C147.57 290.804 146.208 291.389 144.764 291.644C143.32 291.9 141.835 291.82 140.429 291.411C135.651 289.993 137.938 281.869 143.339 281.261C143.339 281.261 132.332 279.561 135.651 271.991L172.203 271.982Z" fill="#E6E6E6"/>
<path d="M321.145 435.808C321.145 435.808 320.383 442.587 325.867 447.004C331.352 451.42 339.765 439.906 331.361 434.827C331.361 434.827 342.061 436.135 340.825 429.374C339.588 422.613 329.967 424.949 329.967 424.949L321.145 435.808Z" fill="#68E1FD"/>
<path d="M318.44 433.5C318.44 433.5 311.672 435.136 306.457 430.419C301.242 425.703 311.793 415.998 318.068 423.467C318.068 423.467 315.279 413.281 322.326 413.571C329.372 413.862 328.266 423.495 328.266 423.495L318.44 433.5Z" fill="#68E1FD"/>
<path d="M318.565 436.017L318.46 435.927C317.714 435.29 317.638 434.182 318.29 433.453L326.776 423.963C327.429 423.234 328.562 423.16 329.308 423.797L329.413 423.887C330.159 424.524 330.235 425.632 329.583 426.362L321.097 435.851C320.445 436.58 319.311 436.654 318.565 436.017Z" fill="#24285B"/>
</svg>
