<svg width="70" height="93" viewBox="0 0 70 93" fill="none" xmlns="http://www.w3.org/2000/svg">
<rect x="0.0786604" y="-0.0786604" width="69.8505" height="92.3473" rx="1.17991" transform="matrix(1 0 0 -1 -0.00779724 92.3998)" fill="#F7F7F7" stroke="#796894" stroke-width="0.157321"/>
<rect x="7.54358" y="26.9541" width="0.629283" height="53.3318" fill="#24133F"/>
<rect width="0.629283" height="53.3318" transform="matrix(1 0 0 -1 61.9766 65.812)" fill="#24133F"/>
<rect x="7.54358" y="20.9761" width="0.629283" height="1.73053" fill="#24133F"/>
<rect width="0.629283" height="1.73053" transform="matrix(1 0 0 -1 61.9766 71.7905)" fill="#24133F"/>
<rect x="7.54358" y="23.3354" width="0.629283" height="1.73053" fill="#24133F"/>
<rect width="0.629283" height="1.73053" transform="matrix(1 0 0 -1 61.9766 69.4307)" fill="#24133F"/>
<rect x="4.71185" y="14.0537" width="5.66355" height="5.03427" fill="black"/>
<rect width="5.66355" height="5.03427" transform="matrix(1 0 0 -1 59.1449 78.7124)" fill="black"/>
<path d="M4.42112 11.7666L4.42112 6.76249L4.74709 7.00917L3.53131 7.6523L3.27582 6.82416L4.92329 5.94316L5.3814 5.94316L5.3814 11.7666L4.42112 11.7666ZM3.44321 12.1982L3.44321 11.282L6.38574 11.282L6.38574 12.1982L3.44321 12.1982ZM9.40756 12.1982C9.10215 12.1982 8.81729 12.1454 8.55299 12.0397C8.29457 11.9281 8.06844 11.7754 7.87462 11.5815C7.68668 11.3877 7.53691 11.1587 7.42532 10.8944C7.3196 10.6301 7.26674 10.3393 7.26674 10.0222C7.26674 9.8636 7.28729 9.6874 7.32841 9.49358C7.37539 9.29389 7.44294 9.07658 7.53104 8.84164C7.62501 8.60671 7.7366 8.36003 7.86581 8.10161C7.99503 7.83731 8.1448 7.5642 8.31512 7.28228L9.11683 5.92554L10.0419 5.92554L10.0771 6.01364L9.10802 7.64349C8.93182 7.94303 8.77324 8.22788 8.63228 8.49806C8.4972 8.76823 8.38267 9.02372 8.28869 9.26452C8.19472 9.49945 8.12424 9.71383 8.07725 9.90765L7.86581 9.00022C7.97741 8.81815 8.09781 8.65957 8.22702 8.52448C8.35624 8.38353 8.49426 8.26606 8.64109 8.17209C8.7938 8.07811 8.95238 8.00763 9.11683 7.96065C9.28128 7.91366 9.45161 7.89017 9.62781 7.89017C9.96846 7.89017 10.2797 7.98414 10.5617 8.17209C10.8495 8.35416 11.0785 8.5979 11.2488 8.90331C11.425 9.20873 11.5131 9.5435 11.5131 9.90765C11.5131 10.3481 11.4221 10.7417 11.24 11.0882C11.0638 11.4288 10.8172 11.699 10.5 11.8987C10.1828 12.0984 9.81869 12.1982 9.40756 12.1982ZM9.40756 11.3172C9.63662 11.3172 9.83925 11.2644 10.0154 11.1587C10.1975 11.0471 10.3385 10.8944 10.4383 10.7005C10.544 10.5009 10.5969 10.2747 10.5969 10.0222C10.5969 9.80487 10.544 9.60224 10.4383 9.41429C10.3326 9.22047 10.1916 9.06483 10.0154 8.94736C9.83925 8.8299 9.64249 8.77116 9.42518 8.77116C9.18437 8.77116 8.97 8.82696 8.78205 8.93855C8.59411 9.05015 8.44727 9.19992 8.34155 9.38786C8.23583 9.57581 8.18297 9.78431 8.18297 10.0134C8.18297 10.26 8.23583 10.4832 8.34155 10.6829C8.44727 10.8767 8.59117 11.0324 8.77324 11.1499C8.95531 11.2614 9.16675 11.3172 9.40756 11.3172Z" fill="black"/>
<path d="M58.8543 87.2807L58.8543 82.2767L59.1803 82.5233L57.9645 83.1665L57.709 82.3383L59.3565 81.4573L59.8146 81.4573L59.8146 87.2807L58.8543 87.2807ZM57.8764 87.7124L57.8764 86.7962L60.8189 86.7962L60.8189 87.7124L57.8764 87.7124ZM63.8408 87.7124C63.5353 87.7124 63.2505 87.6595 62.9862 87.5538C62.7278 87.4422 62.5016 87.2895 62.3078 87.0957C62.1199 86.9019 61.9701 86.6728 61.8585 86.4085C61.7528 86.1442 61.6999 85.8535 61.6999 85.5363C61.6999 85.3778 61.7205 85.2016 61.7616 85.0077C61.8086 84.808 61.8761 84.5907 61.9642 84.3558C62.0582 84.1209 62.1698 83.8742 62.299 83.6158C62.4282 83.3515 62.578 83.0784 62.7483 82.7964L63.55 81.4397L64.4751 81.4397L64.5103 81.5278L63.5412 83.1576C63.365 83.4572 63.2064 83.742 63.0655 84.0122C62.9304 84.2824 62.8159 84.5379 62.7219 84.7787C62.6279 85.0136 62.5574 85.228 62.5105 85.4218L62.299 84.5144C62.4106 84.3323 62.531 84.1737 62.6602 84.0386C62.7894 83.8977 62.9275 83.7802 63.0743 83.6862C63.227 83.5923 63.3856 83.5218 63.55 83.4748C63.7145 83.4278 63.8848 83.4043 64.061 83.4043C64.4017 83.4043 64.7129 83.4983 64.9949 83.6862C65.2827 83.8683 65.5117 84.1121 65.682 84.4175C65.8582 84.7229 65.9463 85.0577 65.9463 85.4218C65.9463 85.8623 65.8553 86.2558 65.6732 86.6023C65.497 86.943 65.2504 87.2132 64.9332 87.4129C64.616 87.6126 64.2519 87.7124 63.8408 87.7124ZM63.8408 86.8314C64.0698 86.8314 64.2724 86.7785 64.4486 86.6728C64.6307 86.5612 64.7717 86.4085 64.8715 86.2147C64.9772 86.015 65.0301 85.7889 65.0301 85.5363C65.0301 85.319 64.9772 85.1164 64.8715 84.9285C64.7658 84.7346 64.6248 84.579 64.4486 84.4615C64.2724 84.3441 64.0757 84.2853 63.8584 84.2853C63.6176 84.2853 63.4032 84.3411 63.2152 84.4527C63.0273 84.5643 62.8805 84.7141 62.7748 84.902C62.669 85.09 62.6162 85.2985 62.6162 85.5275C62.6162 85.7742 62.669 85.9974 62.7748 86.1971C62.8805 86.3909 63.0244 86.5465 63.2064 86.664C63.3885 86.7756 63.6 86.8314 63.8408 86.8314Z" fill="black"/>
</svg>
