<svg width="445" height="588" viewBox="0 0 445 588" fill="none" xmlns="http://www.w3.org/2000/svg">
<rect x="0.5" y="-0.5" width="444" height="587" rx="7.5" transform="matrix(1 0 0 -1 0 587)" fill="#F7F7F7" stroke="#796894"/>
<mask id="path-2-inside-1_553_60" fill="white">
<path fill-rule="evenodd" clip-rule="evenodd" d="M222.56 223.227L232.875 213.488C260.221 187.671 303.319 188.91 329.137 216.256L330.434 217.63C356.252 244.976 355.013 288.074 327.667 313.892L220.226 415.329L220.063 415.155L113.783 304.757C87.945 277.919 88.7468 235.206 115.573 209.356C142.4 183.507 185.093 184.308 210.93 211.147L222.56 223.227Z"/>
</mask>
<path fill-rule="evenodd" clip-rule="evenodd" d="M222.56 223.227L232.875 213.488C260.221 187.671 303.319 188.91 329.137 216.256L330.434 217.63C356.252 244.976 355.013 288.074 327.667 313.892L220.226 415.329L220.063 415.155L113.783 304.757C87.945 277.919 88.7468 235.206 115.573 209.356C142.4 183.507 185.093 184.308 210.93 211.147L222.56 223.227Z" fill="#5C2E2E"/>
<path d="M222.56 223.227L212.749 232.672L222.103 242.389L231.909 233.13L222.56 223.227ZM327.667 313.892L318.318 303.989L327.667 313.892ZM220.226 415.329L210.323 424.678L219.673 434.581L229.576 425.231L220.226 415.329ZM220.063 415.155L229.966 405.806L229.92 405.758L229.874 405.71L220.063 415.155ZM113.783 304.757L103.971 314.203L113.783 304.757ZM115.573 209.356L106.123 199.549L115.573 209.356ZM210.93 211.147L220.742 201.701L210.93 211.147ZM231.909 233.13L242.224 223.391L223.525 203.586L213.211 213.324L231.909 233.13ZM242.224 223.391C264.101 202.737 298.579 203.728 319.234 225.605L339.039 206.906C308.058 174.091 256.341 172.604 223.525 203.586L242.224 223.391ZM319.234 225.605L320.531 226.98L340.337 208.281L339.039 206.906L319.234 225.605ZM320.531 226.98C341.186 248.856 340.195 283.335 318.318 303.989L337.017 323.795C369.832 292.813 371.319 241.096 340.337 208.281L320.531 226.98ZM318.318 303.989L210.877 405.426L229.576 425.231L337.017 323.795L318.318 303.989ZM230.129 405.979L229.966 405.806L210.16 424.505L210.323 424.678L230.129 405.979ZM229.874 405.71L123.594 295.312L103.971 314.203L210.251 424.601L229.874 405.71ZM123.594 295.312C102.971 273.89 103.611 239.796 125.023 219.163L106.123 199.549C73.8824 230.617 72.9187 281.947 103.971 314.203L123.594 295.312ZM125.023 219.163C146.432 198.534 180.5 199.174 201.119 220.592L220.742 201.701C189.686 169.442 138.368 168.479 106.123 199.549L125.023 219.163ZM201.119 220.592L212.749 232.672L232.371 213.781L220.742 201.701L201.119 220.592Z" fill="#D9D9D9" mask="url(#path-2-inside-1_553_60)"/>
<path fill-rule="evenodd" clip-rule="evenodd" d="M396.172 433.888L398.185 432.011C403.343 427.201 411.425 427.486 416.235 432.644C421.044 437.802 420.765 445.884 415.607 450.694L395.166 469.755L395.137 469.724L375.765 449.359C370.922 444.267 371.123 436.213 376.214 431.369C381.305 426.525 389.359 426.726 394.203 431.818L396.172 433.888Z" fill="#24133F"/>
<rect x="47" y="202" width="4" height="339" fill="#24133F"/>
<rect width="4" height="339" transform="matrix(1 0 0 -1 394 385)" fill="#24133F"/>
<path fill-rule="evenodd" clip-rule="evenodd" d="M49.1722 154.072L51.1851 155.949C56.3426 160.759 64.4252 160.474 69.2347 155.316C74.0442 150.159 73.7647 142.076 68.6071 137.266L48.1665 118.205L48.1374 118.236L28.7653 138.601C23.9218 143.693 24.1227 151.747 29.2141 156.591C34.3055 161.435 42.3593 161.234 47.2028 156.143L49.1722 154.072Z" fill="#24133F"/>
<rect x="47" y="164" width="4" height="11" fill="#24133F"/>
<rect width="4" height="11" transform="matrix(1 0 0 -1 394 423)" fill="#24133F"/>
<rect x="47" y="179" width="4" height="11" fill="#24133F"/>
<rect width="4" height="11" transform="matrix(1 0 0 -1 394 408)" fill="#24133F"/>
<path d="M36.152 77.256V45.448L38.224 47.016L30.496 51.104L28.872 45.84L39.344 40.24H42.256V77.256H36.152ZM29.936 80V74.176H48.64V80H29.936ZM58.272 80L74.512 44.608L75.184 46.4H55.36V40.8H79.608L80.392 44.664L64.768 80H58.272ZM99.3196 80.56C96.3329 80.56 93.7569 79.7387 91.5916 78.096C89.4636 76.4533 87.8209 74.1387 86.6636 71.152C85.5062 68.128 84.9276 64.544 84.9276 60.4C84.9276 56.256 85.5062 52.6907 86.6636 49.704C87.8209 46.68 89.4636 44.3467 91.5916 42.704C93.7569 41.0613 96.3329 40.24 99.3196 40.24C102.306 40.24 104.882 41.0613 107.048 42.704C109.213 44.3467 110.874 46.68 112.032 49.704C113.189 52.6907 113.768 56.256 113.768 60.4C113.768 64.544 113.189 68.128 112.032 71.152C110.874 74.1387 109.213 76.4533 107.048 78.096C104.882 79.7387 102.306 80.56 99.3196 80.56ZM99.3196 75.072C102.045 75.072 104.154 73.8027 105.648 71.264C107.141 68.688 107.888 65.0667 107.888 60.4C107.888 55.7333 107.141 52.1307 105.648 49.592C104.154 47.016 102.045 45.728 99.3196 45.728C96.5942 45.728 94.4849 47.016 92.9916 49.592C91.4982 52.1307 90.7516 55.7333 90.7516 60.4C90.7516 65.0667 91.4982 68.688 92.9916 71.264C94.4849 73.8027 96.5942 75.072 99.3196 75.072Z" fill="#24133F"/>
<path d="M348.152 547.256V515.448L350.224 517.016L342.496 521.104L340.872 515.84L351.344 510.24H354.256V547.256H348.152ZM341.936 550V544.176H360.64V550H341.936ZM370.272 550L386.512 514.608L387.184 516.4H367.36V510.8H391.608L392.392 514.664L376.768 550H370.272ZM411.32 550.56C408.333 550.56 405.757 549.739 403.592 548.096C401.464 546.453 399.821 544.139 398.664 541.152C397.506 538.128 396.928 534.544 396.928 530.4C396.928 526.256 397.506 522.691 398.664 519.704C399.821 516.68 401.464 514.347 403.592 512.704C405.757 511.061 408.333 510.24 411.32 510.24C414.306 510.24 416.882 511.061 419.048 512.704C421.213 514.347 422.874 516.68 424.032 519.704C425.189 522.691 425.768 526.256 425.768 530.4C425.768 534.544 425.189 538.128 424.032 541.152C422.874 544.139 421.213 546.453 419.048 548.096C416.882 549.739 414.306 550.56 411.32 550.56ZM411.32 545.072C414.045 545.072 416.154 543.803 417.648 541.264C419.141 538.688 419.888 535.067 419.888 530.4C419.888 525.733 419.141 522.131 417.648 519.592C416.154 517.016 414.045 515.728 411.32 515.728C408.594 515.728 406.485 517.016 404.992 519.592C403.498 522.131 402.752 525.733 402.752 530.4C402.752 535.067 403.498 538.688 404.992 541.264C406.485 543.803 408.594 545.072 411.32 545.072Z" fill="#24133F"/>
</svg>
