<svg width="70" height="93" viewBox="0 0 70 93" fill="none" xmlns="http://www.w3.org/2000/svg">
<rect x="0.0786604" y="-0.0786604" width="69.8505" height="92.3473" rx="1.17991" transform="matrix(1 0 0 -1 0 92.6576)" fill="#F7F7F7" stroke="#796894" stroke-width="0.157321"/>
<rect x="7.23669" y="27.3696" width="0.629283" height="53.3318" fill="#24133F"/>
<rect x="7.23669" y="23.7515" width="0.629283" height="1.73053" fill="#24133F"/>
<rect x="62.1417" y="70.0034" width="0.629283" height="1.73053" fill="#24133F"/>
<rect x="7.23669" y="21.3916" width="0.629283" height="1.73053" fill="#24133F"/>
<rect x="62.1417" y="67.6436" width="0.629283" height="1.73053" fill="#24133F"/>
<rect width="0.629283" height="53.3318" transform="matrix(1 0 0 -1 62.1417 65.7559)" fill="#24133F"/>
<path d="M5.85363 14.3447L5.5629 13.6223L7.44823 11.4991C7.54808 11.3934 7.65086 11.273 7.75658 11.1379C7.86818 10.9969 7.97389 10.853 8.07374 10.7062C8.17359 10.5594 8.25288 10.4155 8.31161 10.2745C8.37622 10.1277 8.40852 9.98967 8.40852 9.86045C8.40852 9.67251 8.37034 9.51393 8.29399 9.38471C8.22351 9.24963 8.11779 9.14684 7.97683 9.07636C7.84175 9.00589 7.67729 8.97065 7.48347 8.97065C7.31315 8.97065 7.14576 9.02057 6.98131 9.12041C6.81685 9.22026 6.66708 9.36122 6.532 9.54329C6.39691 9.72537 6.29119 9.93681 6.21484 10.1776L5.48361 9.71949C5.58346 9.37884 5.73323 9.08811 5.93292 8.84731C6.13848 8.60063 6.38223 8.41268 6.66415 8.28347C6.95194 8.15425 7.26322 8.08965 7.598 8.08965C7.94453 8.08965 8.25288 8.16306 8.52305 8.3099C8.79322 8.45086 9.00466 8.65055 9.15737 8.90898C9.31007 9.16153 9.38643 9.45519 9.38643 9.78997C9.38643 9.92506 9.37174 10.0631 9.34238 10.204C9.31301 10.345 9.26602 10.4918 9.20142 10.6445C9.13681 10.7914 9.05458 10.947 8.95474 11.1115C8.85489 11.27 8.73449 11.4374 8.59353 11.6136C8.45844 11.7898 8.3028 11.9748 8.1266 12.1687L6.72582 13.6928L6.54962 13.4285L9.58025 13.4285L9.58025 14.3447L5.85363 14.3447Z" fill="#24133F"/>
<path d="M60.9159 85.7686L60.6252 85.0461L62.5106 82.9229C62.6104 82.8172 62.7132 82.6968 62.8189 82.5617C62.9305 82.4208 63.0362 82.2769 63.1361 82.13C63.2359 81.9832 63.3152 81.8393 63.3739 81.6983C63.4385 81.5515 63.4708 81.4135 63.4708 81.2843C63.4708 81.0963 63.4327 80.9378 63.3563 80.8085C63.2858 80.6735 63.1801 80.5707 63.0391 80.5002C62.9041 80.4297 62.7396 80.3945 62.5458 80.3945C62.3755 80.3945 62.2081 80.4444 62.0436 80.5442C61.8792 80.6441 61.7294 80.785 61.5943 80.9671C61.4592 81.1492 61.3535 81.3606 61.2772 81.6014L60.5459 81.1433C60.6458 80.8027 60.7955 80.5119 60.9952 80.2711C61.2008 80.0245 61.4445 79.8365 61.7265 79.7073C62.0143 79.5781 62.3255 79.5135 62.6603 79.5135C63.0068 79.5135 63.3152 79.5869 63.5854 79.7337C63.8555 79.8747 64.067 80.0744 64.2197 80.3328C64.3724 80.5854 64.4487 80.879 64.4487 81.2138C64.4487 81.3489 64.4341 81.4869 64.4047 81.6279C64.3753 81.7688 64.3283 81.9157 64.2637 82.0684C64.1991 82.2152 64.1169 82.3708 64.0171 82.5353C63.9172 82.6939 63.7968 82.8613 63.6558 83.0375C63.5208 83.2137 63.3651 83.3987 63.1889 83.5925L61.7881 85.1166L61.6119 84.8523L64.6426 84.8523L64.6426 85.7686L60.9159 85.7686Z" fill="#24133F"/>
<path d="M34.1763 13.1506C34.1763 13.1506 29.3704 13.1047 28.6105 17.0951C27.8507 21.0855 28.567 24.7541 28.112 25.7753C27.6571 26.7965 26.0285 27.8491 26.0285 27.8491C26.0285 27.8491 27.6861 31.0434 34.7668 31.2999C41.8474 31.5564 43.3889 27.8491 43.3889 27.8491C43.3889 27.8491 41.1239 26.7965 41.0779 25.0275C41.0319 23.2586 41.6683 18.1381 40.3979 16.1416C39.1274 14.1452 37.3585 13.0611 34.1763 13.1506Z" fill="#24133F"/>
<path d="M35.5744 31.5545C35.3445 31.5545 35.1098 31.5545 34.8678 31.5545C27.7267 31.2956 25.9916 28.1086 25.9142 27.973C25.8864 27.9197 25.8794 27.858 25.8946 27.7999C25.9098 27.7417 25.9461 27.6913 25.9964 27.6585C26.0134 27.6585 27.5742 26.6324 27.9929 25.6886C28.1647 25.3039 28.1429 24.3843 28.1163 23.2228C28.08 21.599 28.0292 19.3751 28.4744 17.0617C28.8059 15.3436 29.9264 14.0804 31.705 13.4125C32.5313 13.1062 33.4035 12.9426 34.2846 12.9285C37.3022 12.8438 39.2817 13.7997 40.7022 16.0332C41.7186 17.6304 41.5661 21.0836 41.4669 23.3704C41.4354 24.0528 41.4112 24.6408 41.4209 25.0425C41.462 26.6372 43.5722 27.6415 43.5988 27.6512C43.6553 27.6776 43.6995 27.7248 43.722 27.783C43.7446 27.8411 43.7438 27.9058 43.7198 27.9634C43.6593 28.0965 42.142 31.5545 35.5744 31.5545ZM26.4683 27.9246C26.9523 28.5829 29.0262 30.8527 34.8848 31.0705C40.7433 31.2883 42.7228 28.7063 43.1681 27.9658C42.5655 27.6318 40.9902 26.6131 40.9442 25.0474C40.9442 24.6287 40.9587 24.0334 40.9902 23.3534C41.0894 21.1295 41.2322 17.7659 40.3029 16.297C38.9647 14.1965 37.174 13.335 34.3016 13.4173C33.475 13.4397 32.6577 13.5966 31.8816 13.8819C30.2385 14.4845 29.2512 15.5783 28.9584 17.1464C28.5204 19.409 28.5712 21.6014 28.6075 23.1961C28.6366 24.4666 28.6583 25.3741 28.443 25.858C28.0582 26.7365 26.9329 27.5907 26.4683 27.9174L26.4683 27.9246Z" fill="#093F68"/>
<path d="M35.9546 41.2144L33.358 41.2144L33.358 33.2117L35.9546 33.2117L35.9546 41.2144Z" fill="#FFC9B0"/>
<path d="M36.0989 41.4568L33.5024 41.4568C33.4382 41.4568 33.3766 41.4313 33.3313 41.3859C33.2859 41.3406 33.2604 41.279 33.2604 41.2148L33.2604 33.2122C33.2604 33.148 33.2859 33.0865 33.3313 33.0411C33.3766 32.9957 33.4382 32.9702 33.5024 32.9702L36.0989 32.9702C36.1631 32.9702 36.2247 32.9957 36.27 33.0411C36.3154 33.0865 36.3409 33.148 36.3409 33.2122L36.3409 41.2148C36.3409 41.279 36.3154 41.3406 36.27 41.3859C36.2247 41.4313 36.1631 41.4568 36.0989 41.4568ZM33.7444 40.9728L35.8569 40.9728L35.8569 33.4542L33.7444 33.4542L33.7444 40.9728Z" fill="#093F68"/>
<path d="M34.6998 32.8586C36.0429 32.8586 37.1318 31.7698 37.1318 30.4266C37.1318 29.0835 36.0429 27.9946 34.6998 27.9946C33.3566 27.9946 32.2678 29.0835 32.2678 30.4266C32.2678 31.7698 33.3566 32.8586 34.6998 32.8586Z" fill="#6B39BD"/>
<path d="M34.7757 33.1006C34.2502 33.0982 33.7373 32.9404 33.3014 32.647C32.8655 32.3536 32.5262 31.9377 32.3262 31.4518C32.1263 30.9659 32.0746 30.4317 32.1777 29.9165C32.2808 29.4012 32.534 28.9281 32.9056 28.5565C33.2771 28.185 33.7503 27.9317 34.2655 27.8286C34.7808 27.7255 35.315 27.7772 35.8009 27.9772C36.2868 28.1771 36.7026 28.5164 36.996 28.9523C37.2894 29.3882 37.4473 29.9012 37.4497 30.4266C37.4497 31.1358 37.168 31.816 36.6665 32.3174C36.165 32.8189 35.4849 33.1006 34.7757 33.1006ZM34.7757 28.239C34.3455 28.2414 33.9256 28.3712 33.569 28.6119C33.2125 28.8527 32.9352 29.1937 32.7722 29.5918C32.6092 29.99 32.5678 30.4275 32.6532 30.8492C32.7386 31.2709 32.947 31.6578 33.252 31.9612C33.5571 32.2646 33.9452 32.4708 34.3673 32.5539C34.7895 32.6369 35.2267 32.5931 35.624 32.4279C36.0213 32.2627 36.3607 31.9836 36.5995 31.6257C36.8383 31.2678 36.9657 30.8472 36.9657 30.4169C36.9619 29.8384 36.7295 29.2848 36.3193 28.8769C35.9091 28.4689 35.3542 28.2397 34.7757 28.239Z" fill="#093F68"/>
<path d="M36.3799 33.4468L33.1324 33.4468L33.1324 32.2683L36.3799 32.2683L36.3799 33.4468Z" fill="white"/>
<path d="M36.3245 33.6913L33.077 33.6913C33.0128 33.6913 32.9512 33.6658 32.9058 33.6204C32.8605 33.575 32.835 33.5135 32.835 33.4493L32.835 32.2708C32.835 32.2066 32.8605 32.1451 32.9058 32.0997C32.9512 32.0543 33.0128 32.0288 33.077 32.0288L36.3245 32.0288C36.3886 32.0288 36.4502 32.0543 36.4956 32.0997C36.541 32.1451 36.5665 32.2066 36.5665 32.2708L36.5665 33.4493C36.5665 33.5135 36.541 33.575 36.4956 33.6204C36.4502 33.6658 36.3886 33.6913 36.3245 33.6913ZM33.3189 33.2073L36.0825 33.2073L36.0825 32.5128L33.3189 32.5128L33.3189 33.2073Z" fill="#093F68"/>
<path d="M33.4021 33.2119L35.9987 33.2119L35.9987 41.2145L33.4021 41.2145L33.4021 33.2119Z" fill="#FFC9B0"/>
<path d="M36.0989 41.4568L33.5024 41.4568C33.4382 41.4568 33.3766 41.4313 33.3313 41.3859C33.2859 41.3406 33.2604 41.279 33.2604 41.2148L33.2604 33.2122C33.2604 33.148 33.2859 33.0865 33.3313 33.0411C33.3766 32.9957 33.4382 32.9702 33.5024 32.9702L36.0989 32.9702C36.1631 32.9702 36.2247 32.9957 36.27 33.0411C36.3154 33.0865 36.3409 33.148 36.3409 33.2122L36.3409 41.2148C36.3409 41.279 36.3154 41.3406 36.27 41.3859C36.2247 41.4313 36.1631 41.4568 36.0989 41.4568ZM33.7444 40.9728L35.8569 40.9728L35.8569 33.4542L33.7444 33.4542L33.7444 40.9728Z" fill="#093F68"/>
<path d="M34.6998 32.8586C36.0429 32.8586 37.1318 31.7698 37.1318 30.4266C37.1318 29.0835 36.0429 27.9946 34.6998 27.9946C33.3566 27.9946 32.2678 29.0835 32.2678 30.4266C32.2678 31.7698 33.3566 32.8586 34.6998 32.8586Z" fill="#6B39BD"/>
<path d="M34.7757 33.1006C34.2502 33.0982 33.7373 32.9404 33.3014 32.647C32.8655 32.3536 32.5262 31.9377 32.3262 31.4518C32.1263 30.9659 32.0746 30.4317 32.1777 29.9165C32.2808 29.4012 32.534 28.9281 32.9056 28.5565C33.2771 28.185 33.7503 27.9317 34.2655 27.8286C34.7808 27.7255 35.315 27.7772 35.8009 27.9772C36.2868 28.1771 36.7026 28.5164 36.996 28.9523C37.2894 29.3882 37.4473 29.9012 37.4497 30.4266C37.4497 30.7778 37.3805 31.1255 37.2461 31.4499C37.1118 31.7743 36.9148 32.0691 36.6665 32.3174C36.4182 32.5657 36.1234 32.7627 35.799 32.8971C35.4746 33.0315 35.1268 33.1006 34.7757 33.1006ZM34.7757 28.239C34.3455 28.2414 33.9256 28.3712 33.569 28.6119C33.2125 28.8527 32.9352 29.1937 32.7722 29.5918C32.6092 29.99 32.5678 30.4275 32.6532 30.8492C32.7386 31.2709 32.947 31.6578 33.252 31.9612C33.5571 32.2646 33.9452 32.4708 34.3673 32.5539C34.7895 32.6369 35.2267 32.5931 35.624 32.4279C36.0213 32.2627 36.3607 31.9836 36.5995 31.6257C36.8383 31.2678 36.9657 30.8472 36.9657 30.4169C36.9619 29.8384 36.7295 29.2848 36.3193 28.8769C35.9091 28.4689 35.3542 28.2397 34.7757 28.239Z" fill="#093F68"/>
<path d="M33.1186 32.2705L36.3661 32.2705L36.3661 33.449L33.1186 33.449L33.1186 32.2705Z" fill="white"/>
<path d="M36.3245 33.6913L33.077 33.6913C33.0128 33.6913 32.9512 33.6658 32.9058 33.6204C32.8605 33.575 32.835 33.5135 32.835 33.4493L32.835 32.2708C32.835 32.2066 32.8605 32.1451 32.9058 32.0997C32.9512 32.0543 33.0128 32.0288 33.077 32.0288L36.3245 32.0288C36.3886 32.0288 36.4502 32.0543 36.4956 32.0997C36.541 32.1451 36.5665 32.2066 36.5665 32.2708L36.5665 33.4493C36.5665 33.5135 36.541 33.575 36.4956 33.6204C36.4502 33.6658 36.3886 33.6913 36.3245 33.6913ZM33.3189 33.2073L36.0825 33.2073L36.0825 32.5128L33.3189 32.5128L33.3189 33.2073Z" fill="#093F68"/>
<path d="M48.3766 55.4121C48.3766 55.4121 43.6747 57.7061 34.7211 57.7061C25.7674 57.7061 21.0656 55.4121 21.0656 55.4121C21.4576 52.3049 22.1206 48.9316 23.0305 46.3858C25.373 39.8521 29.3634 35.5422 34.6727 35.5156L34.7695 35.5156C40.0787 35.5447 44.0716 39.8448 46.414 46.3858C47.3239 48.9316 47.9846 52.3049 48.3766 55.4121Z" fill="#6B39BD"/>
<path d="M34.8201 57.9484C31.3715 57.979 27.932 57.5914 24.5767 56.7941C23.3691 56.5169 22.1909 56.1247 21.0581 55.6229C21.0139 55.601 20.9774 55.566 20.9537 55.5228C20.9299 55.4795 20.9199 55.43 20.925 55.3809C21.3727 51.8406 22.0745 48.6173 22.9021 46.3038C25.4381 39.2159 29.6536 35.2981 34.7717 35.2739L34.8685 35.2739C39.989 35.3005 44.2045 39.2184 46.7406 46.3038C47.5682 48.6221 48.2699 51.8454 48.7152 55.3809C48.7204 55.43 48.7104 55.4795 48.6866 55.5228C48.6628 55.566 48.6263 55.601 48.5821 55.6229C48.5337 55.6519 43.7229 57.9484 34.8201 57.9484ZM21.4259 55.2648C22.3116 55.6471 26.9264 57.4644 34.8201 57.4644C42.7138 57.4644 47.3286 55.6471 48.2143 55.2648C47.7714 51.8309 47.089 48.7141 46.2784 46.4684C43.8222 39.5862 39.7664 35.7797 34.8685 35.7579L34.7717 35.7579C29.8738 35.7821 25.8181 39.5862 23.357 46.4684C22.556 48.7092 21.8712 51.8285 21.4259 55.2648Z" fill="#093F68"/>
<path d="M40.6034 35.5156C40.6034 35.7189 40.5768 35.9246 40.555 36.1279C40.4329 37.3625 40.1431 38.5747 39.6935 39.7311C37.6584 44.9871 32.896 47.862 28.8644 46.3858C31.2069 39.8521 35.1973 35.5422 40.5066 35.5156L40.6034 35.5156Z" fill="#6B39BD"/>
<path d="M31.0034 47.0129C30.2308 47.0144 29.464 46.8792 28.7384 46.6136C28.6785 46.5913 28.6299 46.5462 28.6032 46.4882C28.5764 46.4301 28.5737 46.3639 28.5956 46.3038C31.1317 39.2159 35.3471 35.2981 40.4652 35.2739L40.562 35.2739C40.5952 35.274 40.628 35.281 40.6584 35.2943C40.6888 35.3076 40.7161 35.327 40.7387 35.3514C40.7614 35.3755 40.779 35.4041 40.7902 35.4353C40.8015 35.4665 40.8062 35.4997 40.804 35.5329C40.804 35.7385 40.7774 35.9467 40.7556 36.1523C40.6313 37.4087 40.3358 38.6422 39.8772 39.8185C38.176 44.213 34.5607 47.0129 31.0034 47.0129ZM29.1401 46.2361C33.0119 47.4848 37.5009 44.6365 39.4319 39.6443C39.8729 38.5083 40.1555 37.317 40.2716 36.104C40.2837 35.9902 40.2934 35.862 40.3007 35.7603C35.5335 35.8644 31.5769 39.5765 29.1401 46.2361Z" fill="#093F68"/>
<path d="M40.6058 46.3858C36.5718 47.862 31.8119 44.9871 29.7743 39.7311C29.3248 38.5747 29.035 37.3625 28.9128 36.1279C28.8935 35.9246 28.8765 35.7189 28.8644 35.5156L28.9612 35.5156C34.2705 35.5374 38.2633 39.8448 40.6058 46.3858Z" fill="#6B39BD"/>
<path d="M38.3843 47.0129C34.827 47.0129 31.2117 44.213 29.5081 39.8185C29.0492 38.6415 28.7537 37.4071 28.6296 36.1499C28.6079 35.9491 28.5909 35.7385 28.5812 35.5304C28.5794 35.4977 28.5843 35.465 28.5955 35.4342C28.6068 35.4034 28.6241 35.3752 28.6466 35.3514C28.6689 35.3273 28.6958 35.3081 28.7257 35.2948C28.7557 35.2814 28.788 35.2744 28.8208 35.2739L28.9176 35.2739C34.0381 35.3005 38.2536 39.2184 40.7897 46.3038C40.8114 46.3642 40.8084 46.4307 40.7812 46.4888C40.7539 46.5469 40.7048 46.5918 40.6445 46.6136C39.9205 46.879 39.1553 47.0142 38.3843 47.0129ZM29.0822 35.7603C29.0822 35.8741 29.1015 35.9878 29.1136 36.1015C29.2316 37.3181 29.5166 38.5127 29.9606 39.6515C31.8965 44.6438 36.3757 47.492 40.2524 46.2434C37.8107 39.5789 33.8542 35.8668 29.0822 35.7603Z" fill="#093F68"/>
<path d="M30.4244 28.5776L39.2159 28.5776L39.2159 36.6311L30.4244 36.6311L30.4244 28.5776Z" fill="#6B39BD"/>
<path d="M39.1767 36.8758L30.3827 36.8758C30.3186 36.8758 30.257 36.8503 30.2116 36.8049C30.1662 36.7595 30.1407 36.698 30.1407 36.6338L30.1407 28.5779C30.1407 28.5137 30.1662 28.4522 30.2116 28.4068C30.257 28.3614 30.3186 28.3359 30.3827 28.3359L39.1767 28.3359C39.2408 28.3359 39.3024 28.3614 39.3478 28.4068C39.3932 28.4522 39.4187 28.5137 39.4187 28.5779L39.4187 36.6338C39.4187 36.698 39.3932 36.7595 39.3478 36.8049C39.3024 36.8503 39.2408 36.8758 39.1767 36.8758ZM30.6247 36.3918L38.9347 36.3918L38.9347 28.8199L30.6247 28.8199L30.6247 36.3918Z" fill="#093F68"/>
<path d="M31.9841 28.5776L37.5886 28.5776L37.5886 29.1463C37.5886 29.8895 37.2933 30.6023 36.7678 31.1278C36.2423 31.6533 35.5295 31.9486 34.7863 31.9486C34.4183 31.9486 34.0539 31.8761 33.7139 31.7353C33.374 31.5944 33.065 31.388 32.8048 31.1278C32.5446 30.8676 32.3382 30.5587 32.1974 30.2187C32.0566 29.8787 31.9841 29.5143 31.9841 29.1463L31.9841 28.5776Z" fill="#FFC9B0"/>
<path d="M34.7448 32.1908C33.9376 32.1902 33.1637 31.8693 32.5929 31.2985C32.0221 30.7277 31.7012 29.9538 31.7006 29.1466L31.7006 28.5779C31.7006 28.5137 31.7261 28.4522 31.7714 28.4068C31.8168 28.3614 31.8784 28.3359 31.9426 28.3359L37.5471 28.3359C37.6112 28.3359 37.6728 28.3614 37.7182 28.4068C37.7635 28.4522 37.789 28.5137 37.789 28.5779L37.789 29.1466C37.7884 29.9538 37.4675 30.7277 36.8967 31.2985C36.3259 31.8693 35.552 32.1902 34.7448 32.1908ZM32.1845 28.8199L32.1845 29.1466C32.1845 29.8256 32.4543 30.4768 32.9344 30.957C33.4146 31.4371 34.0658 31.7069 34.7448 31.7069C35.4238 31.7069 36.075 31.4371 36.5552 30.957C37.0353 30.4768 37.3051 29.8256 37.3051 29.1466L37.3051 28.8199L32.1845 28.8199Z" fill="#093F68"/>
<path d="M34.7767 33.8435C33.6078 33.8435 32.6931 32.1665 32.6931 30.0273C32.6931 29.1755 32.8407 28.6311 33.1626 28.3141C33.5328 27.9487 34.0434 27.9511 34.5806 27.9583L34.9751 27.9583C35.5171 27.9583 36.0229 27.9583 36.3931 28.3141C36.715 28.6311 36.8626 29.1755 36.8626 30.0273C36.8626 32.1714 35.9479 33.8435 34.7767 33.8435ZM34.387 28.4399C34.0023 28.4399 33.6974 28.4641 33.5014 28.6577C33.3054 28.8513 33.1771 29.3232 33.1771 30.0273C33.1771 31.8326 33.9031 33.3596 34.7767 33.3596C35.6502 33.3596 36.3786 31.8326 36.3786 30.0273C36.3786 29.3232 36.2722 28.8755 36.0544 28.6577C35.8366 28.4399 35.4518 28.4375 34.9799 28.4423L34.387 28.4423L34.387 28.4399Z" fill="#093F68"/>
<path d="M33.8275 29.4827L33.8275 27.9751L35.5844 27.9751L35.5844 29.4827" fill="#FFC9B0"/>
<path d="M35.6846 29.7294C35.6204 29.7294 35.5588 29.7039 35.5135 29.6585C35.4681 29.6131 35.4426 29.5516 35.4426 29.4874L35.4426 28.2218L34.1697 28.2218L34.1697 29.4874C34.1697 29.5516 34.1442 29.6131 34.0988 29.6585C34.0535 29.7039 33.9919 29.7294 33.9277 29.7294C33.8635 29.7294 33.802 29.7039 33.7566 29.6585C33.7112 29.6131 33.6857 29.5516 33.6857 29.4874L33.6857 27.9798C33.6857 27.9156 33.7112 27.8541 33.7566 27.8087C33.802 27.7633 33.8635 27.7378 33.9277 27.7378L35.6846 27.7378C35.7488 27.7378 35.8103 27.7633 35.8557 27.8087C35.9011 27.8541 35.9266 27.9156 35.9266 27.9798L35.9266 29.4874C35.9266 29.5516 35.9011 29.6131 35.8557 29.6585C35.8103 29.7039 35.7488 29.7294 35.6846 29.7294Z" fill="#093F68"/>
<path d="M34.6851 24.8777C35.6287 24.8777 36.3936 24.2189 36.3936 23.4064C36.3936 22.5938 35.6287 21.9351 34.6851 21.9351C33.7416 21.9351 32.9767 22.5938 32.9767 23.4064C32.9767 24.2189 33.7416 24.8777 34.6851 24.8777Z" fill="#FFC9B0"/>
<path d="M34.7854 25.1321C33.7085 25.1321 32.835 24.3626 32.835 23.4164C32.835 22.4702 33.7085 21.7031 34.7854 21.7031C35.8623 21.7031 36.7358 22.4702 36.7358 23.4164C36.7358 24.3626 35.8598 25.1321 34.7854 25.1321ZM34.7854 22.1871C33.9747 22.1871 33.3189 22.7388 33.3189 23.4164C33.3189 24.094 33.9747 24.6481 34.7854 24.6481C35.5961 24.6481 36.2519 24.094 36.2519 23.4164C36.2519 22.7388 35.5937 22.1774 34.7854 22.1774L34.7854 22.1871Z" fill="#093F68"/>
<path d="M34.6851 24.8777C35.6287 24.8777 36.3936 24.2189 36.3936 23.4064C36.3936 22.5938 35.6287 21.9351 34.6851 21.9351C33.7416 21.9351 32.9767 22.5938 32.9767 23.4064C32.9767 24.2189 33.7416 24.8777 34.6851 24.8777Z" fill="#FFC9B0"/>
<path d="M34.7854 25.1321C33.711 25.1321 32.835 24.3626 32.835 23.4164C32.835 22.4702 33.711 21.7031 34.7854 21.7031C35.8598 21.7031 36.7358 22.4702 36.7358 23.4164C36.7358 24.3626 35.855 25.1321 34.7854 25.1321ZM34.7854 22.1871C33.9772 22.1871 33.3189 22.7388 33.3189 23.4164C33.3189 24.094 33.9772 24.6481 34.7854 24.6481C35.5937 24.6481 36.2519 24.094 36.2519 23.4164C36.2519 22.7388 35.5961 22.1774 34.7854 22.1774L34.7854 22.1871Z" fill="#093F68"/>
<path d="M34.6723 16.8193C31.858 19.7595 29.5736 20.0644 29.5736 20.0644L29.5736 23.053C29.5743 24.4196 30.1176 25.73 31.0842 26.6962C32.0507 27.6623 33.3614 28.205 34.728 28.205C36.0946 28.205 37.4053 27.6623 38.3719 26.6962C39.3384 25.73 39.8818 24.4196 39.8824 23.053L39.8824 20.0959C37.8021 19.681 35.9474 18.5146 34.6723 16.8193Z" fill="#FFC9B0"/>
<path d="M34.6864 28.4473C33.256 28.446 31.8845 27.8774 30.8728 26.8662C29.8611 25.8549 29.2919 24.4837 29.29 23.0533L29.29 20.0672C29.2895 20.0081 29.3106 19.9509 29.3494 19.9063C29.3882 19.8617 29.4419 19.8329 29.5005 19.8252C29.5223 19.8252 31.7462 19.484 34.4565 16.6527C34.4808 16.6277 34.5103 16.6082 34.5429 16.5957C34.5755 16.5832 34.6104 16.5779 34.6452 16.5801C34.6795 16.582 34.713 16.5912 34.7435 16.607C34.7739 16.6229 34.8007 16.6451 34.8219 16.672C36.0613 18.3132 37.8571 19.4456 39.8722 19.8566C39.9308 19.8643 39.9846 19.8932 40.0233 19.9377C40.0621 19.9823 40.0833 20.0395 40.0828 20.0986L40.0828 23.0557C40.0802 24.4857 39.5107 25.8563 38.4991 26.867C37.4875 27.8777 36.1164 28.446 34.6864 28.4473ZM29.774 20.2656L29.774 23.0533C29.774 24.3562 30.2915 25.6057 31.2128 26.5269C32.134 27.4482 33.3835 27.9657 34.6864 27.9657C35.9892 27.9657 37.2387 27.4482 38.16 26.5269C39.0812 25.6057 39.5988 24.3562 39.5988 23.0533L39.5988 20.2922C37.6333 19.8478 35.8762 18.7509 34.6138 17.1802C32.3149 19.513 30.3959 20.1204 29.774 20.2656Z" fill="#093F68"/>
<path d="M32.1163 23.2033C32.3849 23.2033 32.6027 22.9855 32.6027 22.7169C32.6027 22.4482 32.3849 22.2305 32.1163 22.2305C31.8477 22.2305 31.6299 22.4482 31.6299 22.7169C31.6299 22.9855 31.8477 23.2033 32.1163 23.2033Z" fill="#093F68"/>
<path d="M37.1449 23.2033C37.4135 23.2033 37.6312 22.9855 37.6312 22.7169C37.6312 22.4482 37.4135 22.2305 37.1449 22.2305C36.8762 22.2305 36.6584 22.4482 36.6584 22.7169C36.6584 22.9855 36.8762 23.2033 37.1449 23.2033Z" fill="#093F68"/>
<path d="M34.6258 24.5972C34.4636 24.5972 34.3017 24.5834 34.1419 24.556C34.0791 24.5448 34.0234 24.5093 33.9867 24.4572C33.95 24.4051 33.9353 24.3406 33.9458 24.2777C33.9565 24.2145 33.9918 24.1582 34.044 24.121C34.0961 24.0838 34.1609 24.0688 34.2241 24.0793C34.4279 24.1146 34.6355 24.122 34.8412 24.1011C34.7579 23.7387 34.6234 23.3899 34.4419 23.0654C34.4273 23.0371 34.4183 23.0062 34.4156 22.9745C34.4129 22.9427 34.4165 22.9108 34.4261 22.8804C34.4358 22.8501 34.4514 22.8219 34.4719 22.7976C34.4925 22.7733 34.5177 22.7532 34.546 22.7387C34.6025 22.7096 34.6683 22.704 34.729 22.723C34.7896 22.742 34.8404 22.7842 34.8703 22.8403C35.0905 23.2614 35.4365 24.0188 35.2865 24.3527C35.2649 24.403 35.2317 24.4473 35.1896 24.4822C35.1476 24.5172 35.0978 24.5416 35.0445 24.5536C34.9072 24.5849 34.7666 24.5995 34.6258 24.5972Z" fill="#093F68"/>
<path d="M34.6306 26.3225C34.2211 26.3225 33.8284 26.1598 33.5389 25.8703C33.2493 25.5808 33.0867 25.1881 33.0867 24.7786C33.0867 24.7144 33.1122 24.6529 33.1575 24.6075C33.2029 24.5621 33.2645 24.5366 33.3287 24.5366C33.3928 24.5366 33.4544 24.5621 33.4998 24.6075C33.5452 24.6529 33.5707 24.7144 33.5707 24.7786C33.5707 25.0597 33.6823 25.3293 33.8811 25.5281C34.0799 25.7269 34.3495 25.8385 34.6306 25.8385C34.9117 25.8385 35.1813 25.7269 35.38 25.5281C35.5788 25.3293 35.6905 25.0597 35.6905 24.7786C35.6905 24.7144 35.716 24.6529 35.7614 24.6075C35.8067 24.5621 35.8683 24.5366 35.9325 24.5366C35.9967 24.5366 36.0582 24.5621 36.1036 24.6075C36.149 24.6529 36.1745 24.7144 36.1745 24.7786C36.1745 25.1881 36.0118 25.5808 35.7223 25.8703C35.4327 26.1598 35.04 26.3225 34.6306 26.3225Z" fill="#093F68"/>
<path d="M32.9488 21.5483L30.6862 21.5483C30.5841 21.5483 30.4862 21.5078 30.4141 21.4356C30.3419 21.3635 30.3014 21.2656 30.3014 21.1636C30.3014 21.0615 30.3419 20.9637 30.4141 20.8915C30.4862 20.8193 30.5841 20.7788 30.6862 20.7788L32.9488 20.7788C33.0508 20.7788 33.1487 20.8193 33.2208 20.8915C33.293 20.9637 33.3335 21.0615 33.3335 21.1636C33.3335 21.2656 33.293 21.3635 33.2208 21.4356C33.1487 21.5078 33.0508 21.5483 32.9488 21.5483Z" fill="#093F68"/>
<path d="M38.5774 21.5483L36.3148 21.5483C36.2128 21.5483 36.1149 21.5078 36.0427 21.4356C35.9706 21.3635 35.9301 21.2656 35.9301 21.1636C35.9301 21.0615 35.9706 20.9637 36.0427 20.8915C36.1149 20.8193 36.2128 20.7788 36.3148 20.7788L38.5774 20.7788C38.6795 20.7788 38.7773 20.8193 38.8495 20.8915C38.9217 20.9637 38.9622 21.0615 38.9622 21.1636C38.9622 21.2656 38.9217 21.3635 38.8495 21.4356C38.7773 21.5078 38.6795 21.5483 38.5774 21.5483Z" fill="#093F68"/>
<path d="M32.3119 14.2036L31.8424 9.36377L33.4347 11.8877L34.664 9.54526L36.2321 11.9773L37.6066 9.36377L36.9774 14.2036C36.9774 14.2036 35.2521 15.2853 32.3119 14.2036Z" fill="#FFBC0E"/>
<path d="M34.7909 14.927C33.9019 14.9215 33.021 14.7576 32.1895 14.4431C32.1469 14.4274 32.1095 14.4 32.0817 14.364C32.0538 14.3281 32.0367 14.285 32.0322 14.2398L31.5604 9.39998C31.5541 9.34509 31.5667 9.2897 31.5963 9.24302C31.6258 9.19633 31.6705 9.16117 31.7228 9.14336C31.7751 9.12555 31.8319 9.12617 31.8838 9.14512C31.9357 9.16407 31.9795 9.20021 32.008 9.24753L33.3753 11.4254L34.411 9.45322C34.4308 9.41599 34.4599 9.38457 34.4956 9.36207C34.5312 9.33957 34.5722 9.32678 34.6143 9.32496C34.6564 9.32337 34.6982 9.3328 34.7355 9.35232C34.7729 9.37185 34.8045 9.40079 34.8272 9.43628L36.1703 11.5198L37.3463 9.24995C37.3726 9.19997 37.4156 9.16076 37.4677 9.13911C37.5199 9.11745 37.5779 9.11472 37.6319 9.13137C37.6891 9.14728 37.7385 9.18369 37.7707 9.23367C37.8028 9.28366 37.8154 9.34371 37.8061 9.4024L37.177 14.2422C37.1721 14.2779 37.1594 14.312 37.1398 14.3422C37.1201 14.3723 37.0939 14.3977 37.0632 14.4164C37.0148 14.4406 36.2066 14.927 34.7909 14.927ZM32.5065 14.0268C34.82 14.8351 36.3348 14.2349 36.7196 14.0486L37.16 10.6608L36.4147 12.0764C36.3952 12.1141 36.3662 12.146 36.3305 12.1689C36.2948 12.1919 36.2538 12.205 36.2114 12.2071C36.1689 12.2091 36.1266 12.1999 36.0888 12.1803C36.051 12.1608 36.019 12.1316 35.996 12.0958L34.653 10.0122L33.6149 11.9869C33.5952 12.0249 33.5658 12.057 33.5297 12.08C33.4935 12.1029 33.4519 12.1159 33.4092 12.1175C33.3668 12.1189 33.3249 12.1091 33.2875 12.0891C33.2501 12.0692 33.2186 12.0397 33.1962 12.0038L32.1484 10.3437L32.5065 14.0268Z" fill="#093F68"/>
<path d="M34.7171 34.7703C35.1301 34.7703 35.4649 34.2492 35.4649 33.6064C35.4649 32.9635 35.1301 32.4424 34.7171 32.4424C34.3041 32.4424 33.9694 32.9635 33.9694 33.6064C33.9694 34.2492 34.3041 34.7703 34.7171 34.7703Z" fill="#F56132"/>
<path d="M34.8173 35.0121C34.2631 35.0121 33.8275 34.395 33.8275 33.6062C33.8275 32.8173 34.2631 32.2002 34.8173 32.2002C35.3714 32.2002 35.807 32.8173 35.807 33.6062C35.807 34.395 35.3714 35.0121 34.8173 35.0121ZM34.8173 32.6842C34.5753 32.6842 34.3115 33.0641 34.3115 33.6062C34.3115 34.1482 34.5777 34.5281 34.8173 34.5281C35.0568 34.5281 35.323 34.1482 35.323 33.6062C35.323 33.0641 35.0592 32.6842 34.8173 32.6842Z" fill="#093F68"/>
<path d="M34.1763 79.9773C34.1763 79.9773 29.3704 80.0233 28.6105 76.0328C27.8507 72.0424 28.567 68.3738 28.112 67.3526C27.6571 66.3314 26.0285 65.2788 26.0285 65.2788C26.0285 65.2788 27.6861 62.0845 34.7668 61.828C41.8474 61.5715 43.3889 65.2788 43.3889 65.2788C43.3889 65.2788 41.1239 66.3314 41.0779 68.1004C41.0319 69.8693 41.6683 74.9899 40.3979 76.9863C39.1274 78.9827 37.3585 80.0668 34.1763 79.9773Z" fill="#24133F"/>
<path d="M35.5744 61.5734C35.3445 61.5734 35.1098 61.5734 34.8678 61.5734C27.7267 61.8324 25.9916 65.0194 25.9142 65.1549C25.8864 65.2082 25.8794 65.2699 25.8946 65.3281C25.9098 65.3862 25.9461 65.4366 25.9964 65.4695C26.0134 65.4695 27.5742 66.4955 27.9929 67.4393C28.1647 67.824 28.1429 68.7436 28.1163 69.9052C28.08 71.5289 28.0292 73.7528 28.4744 76.0662C28.8059 77.7844 29.9264 79.0476 31.705 79.7155C32.5313 80.0217 33.4035 80.1854 34.2846 80.1994C37.3022 80.2841 39.2817 79.3283 40.7022 77.0947C41.7186 75.4976 41.5661 72.0444 41.4669 69.7575C41.4354 69.0751 41.4112 68.4871 41.4209 68.0854C41.462 66.4907 43.5722 65.4864 43.5988 65.4767C43.6553 65.4503 43.6995 65.4031 43.722 65.345C43.7446 65.2868 43.7438 65.2222 43.7198 65.1646C43.6593 65.0315 42.142 61.5734 35.5744 61.5734ZM26.4683 65.2033C26.9523 64.5451 29.0262 62.2752 34.8848 62.0574C40.7433 61.8396 42.7228 64.4217 43.1681 65.1622C42.5655 65.4961 40.9902 66.5149 40.9442 68.0806C40.9442 68.4992 40.9587 69.0945 40.9902 69.7745C41.0894 71.9984 41.2322 75.362 40.3029 76.8309C38.9647 78.9314 37.174 79.7929 34.3016 79.7106C33.475 79.6882 32.6577 79.5313 31.8816 79.246C30.2385 78.6434 29.2512 77.5496 28.9584 75.9815C28.5204 73.7189 28.5712 71.5265 28.6075 69.9318C28.6366 68.6613 28.6583 67.7539 28.443 67.2699C28.0582 66.3915 26.9329 65.5372 26.4683 65.2106L26.4683 65.2033Z" fill="#093F68"/>
<path d="M35.9545 51.9136L33.358 51.9136L33.358 59.9162L35.9545 59.9162L35.9545 51.9136Z" fill="#FFC9B0"/>
<path d="M36.0989 51.6716L33.5024 51.6716C33.4382 51.6716 33.3766 51.6971 33.3313 51.7425C33.2859 51.7879 33.2604 51.8494 33.2604 51.9136L33.2604 59.9162C33.2604 59.9804 33.2859 60.0419 33.3313 60.0873C33.3766 60.1327 33.4382 60.1582 33.5024 60.1582L36.0989 60.1582C36.1631 60.1582 36.2247 60.1327 36.27 60.0873C36.3154 60.0419 36.3409 59.9804 36.3409 59.9162L36.3409 51.9136C36.3409 51.8494 36.3154 51.7879 36.27 51.7425C36.2247 51.6971 36.1631 51.6716 36.0989 51.6716ZM33.7444 52.1556L35.8569 52.1556L35.8569 59.6742L33.7444 59.6742L33.7444 52.1556Z" fill="#093F68"/>
<path d="M34.6998 60.2693C36.0429 60.2693 37.1318 61.3581 37.1318 62.7013C37.1318 64.0445 36.0429 65.1333 34.6998 65.1333C33.3566 65.1333 32.2678 64.0445 32.2678 62.7013C32.2678 61.3581 33.3566 60.2693 34.6998 60.2693Z" fill="#6B39BD"/>
<path d="M34.7757 60.0273C34.2502 60.0297 33.7373 60.1876 33.3014 60.481C32.8655 60.7744 32.5262 61.1902 32.3262 61.6761C32.1263 62.162 32.0746 62.6962 32.1777 63.2115C32.2808 63.7267 32.534 64.1999 32.9056 64.5714C33.2771 64.943 33.7503 65.1962 34.2655 65.2993C34.7808 65.4024 35.315 65.3507 35.8009 65.1508C36.2868 64.9508 36.7026 64.6115 36.996 64.1756C37.2894 63.7397 37.4473 63.2267 37.4497 62.7013C37.4497 61.9921 37.168 61.312 36.6665 60.8105C36.165 60.309 35.4849 60.0273 34.7757 60.0273ZM34.7757 64.8889C34.3455 64.8865 33.9256 64.7567 33.569 64.516C33.2125 64.2752 32.9352 63.9343 32.7722 63.5361C32.6092 63.1379 32.5678 62.7004 32.6532 62.2787C32.7386 61.8571 32.947 61.4701 33.252 61.1667C33.5571 60.8634 33.9452 60.6571 34.3673 60.5741C34.7895 60.491 35.2267 60.5348 35.624 60.7C36.0213 60.8652 36.3607 61.1444 36.5995 61.5023C36.8383 61.8602 36.9657 62.2808 36.9657 62.711C36.9619 63.2895 36.7295 63.8431 36.3193 64.251C35.9091 64.659 35.3542 64.8883 34.7757 64.8889Z" fill="#093F68"/>
<path d="M36.3799 59.6816L33.1324 59.6816L33.1324 60.8601L36.3799 60.8601L36.3799 59.6816Z" fill="white"/>
<path d="M36.3245 59.4371L33.077 59.4371C33.0128 59.4371 32.9512 59.4626 32.9058 59.508C32.8605 59.5534 32.835 59.6149 32.835 59.6791L32.835 60.8576C32.835 60.9218 32.8605 60.9834 32.9058 61.0287C32.9512 61.0741 33.0128 61.0996 33.077 61.0996L36.3245 61.0996C36.3886 61.0996 36.4502 61.0741 36.4956 61.0287C36.541 60.9834 36.5665 60.9218 36.5665 60.8576L36.5665 59.6791C36.5665 59.6149 36.541 59.5534 36.4956 59.508C36.4502 59.4626 36.3886 59.4371 36.3245 59.4371ZM33.3189 59.9211L36.0825 59.9211L36.0825 60.6156L33.3189 60.6156L33.3189 59.9211Z" fill="#093F68"/>
<path d="M33.4021 59.916L35.9987 59.916L35.9987 51.9134L33.4021 51.9134L33.4021 59.916Z" fill="#FFC9B0"/>
<path d="M36.0989 51.6716L33.5024 51.6716C33.4382 51.6716 33.3766 51.6971 33.3313 51.7425C33.2859 51.7879 33.2604 51.8494 33.2604 51.9136L33.2604 59.9162C33.2604 59.9804 33.2859 60.0419 33.3313 60.0873C33.3766 60.1327 33.4382 60.1582 33.5024 60.1582L36.0989 60.1582C36.1631 60.1582 36.2247 60.1327 36.27 60.0873C36.3154 60.0419 36.3409 59.9804 36.3409 59.9162L36.3409 51.9136C36.3409 51.8494 36.3154 51.7879 36.27 51.7425C36.2247 51.6971 36.1631 51.6716 36.0989 51.6716ZM33.7444 52.1556L35.8569 52.1556L35.8569 59.6742L33.7444 59.6742L33.7444 52.1556Z" fill="#093F68"/>
<path d="M34.6998 60.2693C36.0429 60.2693 37.1318 61.3581 37.1318 62.7013C37.1318 64.0445 36.0429 65.1333 34.6998 65.1333C33.3566 65.1333 32.2678 64.0445 32.2678 62.7013C32.2678 61.3581 33.3566 60.2693 34.6998 60.2693Z" fill="#6B39BD"/>
<path d="M34.7757 60.0273C34.2502 60.0297 33.7373 60.1876 33.3014 60.481C32.8655 60.7744 32.5262 61.1902 32.3262 61.6761C32.1263 62.162 32.0746 62.6962 32.1777 63.2115C32.2808 63.7267 32.534 64.1999 32.9056 64.5714C33.2771 64.943 33.7503 65.1962 34.2655 65.2993C34.7808 65.4024 35.315 65.3507 35.8009 65.1508C36.2868 64.9508 36.7026 64.6115 36.996 64.1756C37.2894 63.7397 37.4473 63.2267 37.4497 62.7013C37.4497 62.3502 37.3805 62.0024 37.2461 61.678C37.1118 61.3536 36.9148 61.0588 36.6665 60.8105C36.4182 60.5622 36.1234 60.3652 35.799 60.2309C35.4746 60.0965 35.1268 60.0273 34.7757 60.0273ZM34.7757 64.8889C34.3455 64.8865 33.9256 64.7567 33.569 64.516C33.2125 64.2752 32.9352 63.9343 32.7722 63.5361C32.6092 63.1379 32.5678 62.7004 32.6532 62.2787C32.7386 61.8571 32.947 61.4701 33.252 61.1667C33.5571 60.8634 33.9452 60.6571 34.3673 60.5741C34.7895 60.491 35.2267 60.5348 35.624 60.7C36.0213 60.8652 36.3607 61.1444 36.5995 61.5023C36.8383 61.8602 36.9657 62.2808 36.9657 62.711C36.9619 63.2895 36.7295 63.8431 36.3193 64.251C35.9091 64.659 35.3542 64.8883 34.7757 64.8889Z" fill="#093F68"/>
<path d="M33.1186 60.8574L36.3661 60.8574L36.3661 59.6789L33.1186 59.6789L33.1186 60.8574Z" fill="white"/>
<path d="M36.3245 59.4371L33.077 59.4371C33.0128 59.4371 32.9512 59.4626 32.9058 59.508C32.8605 59.5534 32.835 59.6149 32.835 59.6791L32.835 60.8576C32.835 60.9218 32.8605 60.9834 32.9058 61.0287C32.9512 61.0741 33.0128 61.0996 33.077 61.0996L36.3245 61.0996C36.3886 61.0996 36.4502 61.0741 36.4956 61.0287C36.541 60.9834 36.5665 60.9218 36.5665 60.8576L36.5665 59.6791C36.5665 59.6149 36.541 59.5534 36.4956 59.508C36.4502 59.4626 36.3886 59.4371 36.3245 59.4371ZM33.3189 59.9211L36.0825 59.9211L36.0825 60.6156L33.3189 60.6156L33.3189 59.9211Z" fill="#093F68"/>
<path d="M48.3766 37.7159C48.3766 37.7159 43.6747 35.4218 34.7211 35.4218C25.7674 35.4218 21.0656 37.7159 21.0656 37.7159C21.4576 40.823 22.1206 44.1964 23.0305 46.7421C25.373 53.2758 29.3634 57.5857 34.6727 57.6123L34.7695 57.6123C40.0787 57.5833 44.0716 53.2831 46.414 46.7421C47.3239 44.1964 47.9846 40.823 48.3766 37.7159Z" fill="#6B39BD"/>
<path d="M34.8201 35.18C31.3715 35.1494 27.932 35.537 24.5767 36.3343C23.3691 36.6115 22.1909 37.0037 21.0581 37.5055C21.0139 37.5275 20.9774 37.5624 20.9537 37.6057C20.9299 37.6489 20.9199 37.6984 20.925 37.7475C21.3727 41.2878 22.0745 44.5111 22.9021 46.8246C25.4381 53.9125 29.6536 57.8303 34.7717 57.8545L34.8685 57.8545C39.989 57.8279 44.2045 53.91 46.7406 46.8246C47.5682 44.5063 48.2699 41.283 48.7152 37.7475C48.7204 37.6984 48.7104 37.6489 48.6866 37.6057C48.6628 37.5624 48.6263 37.5275 48.5821 37.5055C48.5337 37.4765 43.7229 35.18 34.8201 35.18ZM21.4259 37.8637C22.3116 37.4813 26.9264 35.664 34.8201 35.664C42.7138 35.664 47.3286 37.4813 48.2143 37.8637C47.7714 41.2975 47.089 44.4143 46.2784 46.66C43.8222 53.5422 39.7664 57.3487 34.8685 57.3705L34.7717 57.3705C29.8738 57.3463 25.8181 53.5422 23.357 46.66C22.556 44.4192 21.8712 41.2999 21.4259 37.8637Z" fill="#093F68"/>
<path d="M40.6034 57.6123C40.6034 57.409 40.5768 57.2033 40.555 57.0001C40.4329 55.7654 40.1431 54.5532 39.6935 53.3968C37.6584 48.1408 32.896 45.266 28.8644 46.7421C31.2069 53.2758 35.1973 57.5857 40.5066 57.6123L40.6034 57.6123Z" fill="#6B39BD"/>
<path d="M31.0034 46.1155C30.2308 46.1141 29.464 46.2492 28.7384 46.5148C28.6785 46.5371 28.6299 46.5822 28.6032 46.6403C28.5764 46.6983 28.5737 46.7645 28.5956 46.8246C31.1317 53.9125 35.3471 57.8303 40.4652 57.8545L40.562 57.8545C40.5952 57.8544 40.628 57.8475 40.6584 57.8341C40.6888 57.8208 40.7161 57.8014 40.7387 57.7771C40.7614 57.7529 40.779 57.7243 40.7902 57.6931C40.8015 57.6619 40.8062 57.6287 40.804 57.5956C40.804 57.3899 40.7774 57.1818 40.7556 56.9761C40.6313 55.7197 40.3358 54.4862 39.8772 53.3099C38.176 48.9154 34.5607 46.1155 31.0034 46.1155ZM29.1401 46.8923C33.0119 45.6437 37.5009 48.4919 39.4319 53.4841C39.8729 54.6201 40.1555 55.8114 40.2716 57.0245C40.2837 57.1382 40.2934 57.2665 40.3007 57.3681C35.5335 57.264 31.5769 53.5519 29.1401 46.8923Z" fill="#093F68"/>
<path d="M40.6058 46.7421C36.5718 45.266 31.8119 48.1408 29.7743 53.3968C29.3248 54.5532 29.035 55.7654 28.9128 57.0001C28.8935 57.2033 28.8765 57.409 28.8644 57.6123L28.9612 57.6123C34.2705 57.5905 38.2633 53.2831 40.6058 46.7421Z" fill="#6B39BD"/>
<path d="M38.3843 46.1155C34.827 46.1155 31.2117 48.9154 29.5081 53.3099C29.0492 54.487 28.7537 55.7213 28.6296 56.9785C28.6079 57.1793 28.5909 57.3899 28.5812 57.598C28.5794 57.6307 28.5843 57.6634 28.5955 57.6942C28.6068 57.725 28.6241 57.7532 28.6466 57.7771C28.6689 57.8011 28.6958 57.8203 28.7257 57.8337C28.7557 57.847 28.788 57.8541 28.8208 57.8545L28.9176 57.8545C34.0381 57.8279 38.2536 53.91 40.7897 46.8246C40.8114 46.7642 40.8084 46.6977 40.7812 46.6396C40.7539 46.5816 40.7048 46.5367 40.6445 46.5148C39.9205 46.2494 39.1553 46.1142 38.3843 46.1155ZM29.0822 57.3681C29.0822 57.2544 29.1015 57.1406 29.1136 57.0269C29.2316 55.8103 29.5166 54.6157 29.9606 53.4769C31.8965 48.4846 36.3757 45.6364 40.2524 46.8851C37.8107 53.5495 33.8542 57.2616 29.0822 57.3681Z" fill="#093F68"/>
<path d="M30.4244 64.5503L39.2159 64.5503L39.2159 56.4969L30.4244 56.4969L30.4244 64.5503Z" fill="#6B39BD"/>
<path d="M39.1767 56.2526L30.3827 56.2526C30.3186 56.2526 30.257 56.2781 30.2116 56.3235C30.1662 56.3689 30.1407 56.4305 30.1407 56.4946L30.1407 64.5505C30.1407 64.6147 30.1662 64.6762 30.2116 64.7216C30.257 64.767 30.3186 64.7925 30.3827 64.7925L39.1767 64.7925C39.2408 64.7925 39.3024 64.767 39.3478 64.7216C39.3932 64.6762 39.4187 64.6147 39.4187 64.5505L39.4187 56.4946C39.4187 56.4305 39.3932 56.3689 39.3478 56.3235C39.3024 56.2781 39.2408 56.2526 39.1767 56.2526ZM30.6247 56.7366L38.9347 56.7366L38.9347 64.3085L30.6247 64.3085L30.6247 56.7366Z" fill="#093F68"/>
<path d="M31.9841 64.5503L37.5886 64.5503L37.5886 63.9816C37.5886 63.2384 37.2933 62.5257 36.7678 62.0001C36.2423 61.4746 35.5295 61.1794 34.7863 61.1794C34.4183 61.1794 34.0539 61.2519 33.7139 61.3927C33.374 61.5335 33.065 61.7399 32.8048 62.0001C32.5446 62.2603 32.3382 62.5693 32.1974 62.9092C32.0566 63.2492 31.9841 63.6136 31.9841 63.9816L31.9841 64.5503Z" fill="#FFC9B0"/>
<path d="M34.7447 60.9376C33.9376 60.9382 33.1636 61.2591 32.5928 61.8299C32.0221 62.4007 31.7011 63.1746 31.7005 63.9818L31.7005 64.5505C31.7005 64.6147 31.726 64.6762 31.7714 64.7216C31.8168 64.767 31.8783 64.7925 31.9425 64.7925L37.547 64.7925C37.6112 64.7925 37.6727 64.767 37.7181 64.7216C37.7635 64.6762 37.789 64.6147 37.789 64.5505L37.789 63.9818C37.7883 63.1746 37.4674 62.4007 36.8966 61.8299C36.3259 61.2591 35.5519 60.9382 34.7447 60.9376ZM32.1845 64.3085L32.1845 63.9818C32.1845 63.3028 32.4542 62.6516 32.9344 62.1714C33.4145 61.6913 34.0657 61.4216 34.7447 61.4216C35.4238 61.4216 36.075 61.6913 36.5551 62.1714C37.0353 62.6516 37.305 63.3028 37.305 63.9818L37.305 64.3085L32.1845 64.3085Z" fill="#093F68"/>
<path d="M34.7767 59.2844C33.6078 59.2844 32.6931 60.9614 32.6931 63.1006C32.6931 63.9524 32.8407 64.4969 33.1626 64.8139C33.5328 65.1793 34.0434 65.1769 34.5806 65.1696L34.9751 65.1696C35.5171 65.1696 36.0229 65.1696 36.3931 64.8139C36.715 64.4969 36.8626 63.9524 36.8626 63.1006C36.8626 60.9565 35.9479 59.2844 34.7767 59.2844ZM34.387 64.688C34.0023 64.688 33.6974 64.6638 33.5014 64.4702C33.3054 64.2767 33.1771 63.8048 33.1771 63.1006C33.1771 61.2953 33.9031 59.7684 34.7767 59.7684C35.6502 59.7684 36.3786 61.2953 36.3786 63.1006C36.3786 63.8048 36.2722 64.2525 36.0544 64.4702C35.8366 64.688 35.4518 64.6905 34.9799 64.6856L34.387 64.6856L34.387 64.688Z" fill="#093F68"/>
<path d="M33.8275 63.6452L33.8275 65.1528L35.5844 65.1528L35.5844 63.6452" fill="#FFC9B0"/>
<path d="M35.6846 63.3986C35.6204 63.3986 35.5588 63.4241 35.5135 63.4694C35.4681 63.5148 35.4426 63.5764 35.4426 63.6405L35.4426 64.9062L34.1697 64.9062L34.1697 63.6405C34.1697 63.5764 34.1442 63.5148 34.0988 63.4694C34.0535 63.4241 33.9919 63.3986 33.9277 63.3986C33.8635 63.3986 33.802 63.4241 33.7566 63.4694C33.7112 63.5148 33.6857 63.5764 33.6857 63.6405L33.6857 65.1481C33.6857 65.2123 33.7112 65.2739 33.7566 65.3193C33.802 65.3646 33.8635 65.3901 33.9277 65.3901L35.6846 65.3901C35.7488 65.3901 35.8103 65.3646 35.8557 65.3193C35.9011 65.2739 35.9266 65.2123 35.9266 65.1481L35.9266 63.6405C35.9266 63.5764 35.9011 63.5148 35.8557 63.4694C35.8103 63.4241 35.7488 63.3986 35.6846 63.3986Z" fill="#093F68"/>
<path d="M34.6851 68.2503C35.6287 68.2503 36.3936 68.909 36.3936 69.7216C36.3936 70.5341 35.6287 71.1929 34.6851 71.1929C33.7416 71.1929 32.9767 70.5341 32.9767 69.7216C32.9767 68.909 33.7416 68.2503 34.6851 68.2503Z" fill="#FFC9B0"/>
<path d="M34.7854 67.9963C33.7085 67.9963 32.835 68.7658 32.835 69.712C32.835 70.6582 33.7085 71.4253 34.7854 71.4253C35.8623 71.4253 36.7358 70.6582 36.7358 69.712C36.7358 68.7658 35.8598 67.9963 34.7854 67.9963ZM34.7854 70.9413C33.9747 70.9413 33.3189 70.3896 33.3189 69.712C33.3189 69.0344 33.9747 68.4803 34.7854 68.4803C35.5961 68.4803 36.2519 69.0344 36.2519 69.712C36.2519 70.3896 35.5937 70.951 34.7854 70.951L34.7854 70.9413Z" fill="#093F68"/>
<path d="M34.6851 68.2503C35.6287 68.2503 36.3936 68.909 36.3936 69.7216C36.3936 70.5341 35.6287 71.1929 34.6851 71.1929C33.7416 71.1929 32.9767 70.5341 32.9767 69.7216C32.9767 68.909 33.7416 68.2503 34.6851 68.2503Z" fill="#FFC9B0"/>
<path d="M34.7854 67.9963C33.711 67.9963 32.835 68.7658 32.835 69.712C32.835 70.6582 33.711 71.4253 34.7854 71.4253C35.8598 71.4253 36.7358 70.6582 36.7358 69.712C36.7358 68.7658 35.855 67.9963 34.7854 67.9963ZM34.7854 70.9413C33.9772 70.9413 33.3189 70.3896 33.3189 69.712C33.3189 69.0344 33.9772 68.4803 34.7854 68.4803C35.5937 68.4803 36.2519 69.0344 36.2519 69.712C36.2519 70.3896 35.5961 70.951 34.7854 70.951L34.7854 70.9413Z" fill="#093F68"/>
<path d="M34.6723 76.3086C31.858 73.3684 29.5736 73.0635 29.5736 73.0635L29.5736 70.0749C29.5742 68.7083 30.1176 67.3979 31.0842 66.4318C32.0507 65.4657 33.3614 64.9229 34.728 64.9229C36.0946 64.9229 37.4053 65.4657 38.3719 66.4318C39.3384 67.3979 39.8818 68.7083 39.8824 70.0749L39.8824 73.032C37.8021 73.4469 35.9474 74.6133 34.6723 76.3086Z" fill="#FFC9B0"/>
<path d="M34.6864 64.6811C33.256 64.6824 31.8845 65.251 30.8728 66.2623C29.8611 67.2735 29.2919 68.6447 29.29 70.0751L29.29 73.0613C29.2895 73.1203 29.3106 73.1776 29.3494 73.2221C29.3882 73.2667 29.4419 73.2956 29.5005 73.3032C29.5223 73.3032 31.7462 73.6445 34.4565 76.4757C34.4808 76.5007 34.5103 76.5202 34.5429 76.5327C34.5755 76.5452 34.6104 76.5506 34.6452 76.5483C34.6795 76.5464 34.713 76.5372 34.7435 76.5214C34.7739 76.5055 34.8007 76.4834 34.8219 76.4564C36.0613 74.8152 37.8571 73.6828 39.8722 73.2718C39.9308 73.2641 39.9846 73.2353 40.0233 73.1907C40.0621 73.1461 40.0833 73.0889 40.0828 73.0298L40.0828 70.0727C40.0802 68.6427 39.5107 67.2721 38.4991 66.2614C37.4875 65.2507 36.1164 64.6824 34.6864 64.6811ZM29.774 72.8628L29.774 70.0751C29.774 68.7722 30.2915 67.5228 31.2128 66.6015C32.134 65.6802 33.3835 65.1627 34.6864 65.1627C35.9892 65.1627 37.2387 65.6802 38.16 66.6015C39.0812 67.5228 39.5988 68.7722 39.5988 70.0751L39.5988 72.8362C37.6333 73.2807 35.8762 74.3776 34.6138 75.9482C32.3149 73.6154 30.3959 73.008 29.774 72.8628Z" fill="#093F68"/>
<path d="M32.1163 69.9251C32.3849 69.9251 32.6027 70.1429 32.6027 70.4115C32.6027 70.6802 32.3849 70.8979 32.1163 70.8979C31.8477 70.8979 31.6299 70.6802 31.6299 70.4115C31.6299 70.1429 31.8477 69.9251 32.1163 69.9251Z" fill="#093F68"/>
<path d="M37.1449 69.9251C37.4135 69.9251 37.6312 70.1429 37.6312 70.4115C37.6312 70.6802 37.4135 70.8979 37.1449 70.8979C36.8762 70.8979 36.6584 70.6802 36.6584 70.4115C36.6584 70.1429 36.8762 69.9251 37.1449 69.9251Z" fill="#093F68"/>
<path d="M34.6258 68.5313C34.4636 68.5312 34.3017 68.545 34.1419 68.5724C34.0791 68.5836 34.0234 68.6192 33.9867 68.6713C33.95 68.7234 33.9353 68.7878 33.9458 68.8507C33.9565 68.9139 33.9918 68.9702 34.044 69.0074C34.0961 69.0446 34.1609 69.0596 34.2241 69.0491C34.4279 69.0138 34.6355 69.0065 34.8412 69.0273C34.7579 69.3898 34.6234 69.7385 34.4419 70.0631C34.4273 70.0913 34.4183 70.1222 34.4156 70.154C34.4129 70.1857 34.4165 70.2177 34.4261 70.248C34.4358 70.2784 34.4514 70.3065 34.4719 70.3308C34.4925 70.3552 34.5177 70.3752 34.546 70.3898C34.6025 70.4188 34.6683 70.4244 34.729 70.4054C34.7896 70.3864 34.8404 70.3443 34.8703 70.2881C35.0905 69.8671 35.4365 69.1096 35.2865 68.7757C35.2649 68.7255 35.2317 68.6811 35.1896 68.6462C35.1476 68.6113 35.0978 68.5868 35.0445 68.5748C34.9072 68.5435 34.7666 68.5289 34.6258 68.5313Z" fill="#093F68"/>
<path d="M34.6306 66.8059C34.2211 66.8059 33.8284 66.9686 33.5389 67.2581C33.2493 67.5476 33.0867 67.9403 33.0867 68.3498C33.0867 68.414 33.1122 68.4755 33.1575 68.5209C33.2029 68.5663 33.2645 68.5918 33.3287 68.5918C33.3928 68.5918 33.4544 68.5663 33.4998 68.5209C33.5452 68.4755 33.5707 68.414 33.5707 68.3498C33.5707 68.0687 33.6823 67.7991 33.8811 67.6003C34.0799 67.4016 34.3495 67.2899 34.6306 67.2899C34.9117 67.2899 35.1813 67.4016 35.38 67.6003C35.5788 67.7991 35.6905 68.0687 35.6905 68.3498C35.6905 68.414 35.716 68.4755 35.7614 68.5209C35.8067 68.5663 35.8683 68.5918 35.9325 68.5918C35.9967 68.5918 36.0582 68.5663 36.1036 68.5209C36.149 68.4755 36.1745 68.414 36.1745 68.3498C36.1745 67.9403 36.0118 67.5476 35.7223 67.2581C35.4327 66.9686 35.04 66.8059 34.6306 66.8059Z" fill="#093F68"/>
<path d="M32.9488 71.5801L30.6862 71.5801C30.5841 71.5801 30.4862 71.6206 30.4141 71.6928C30.3419 71.7649 30.3014 71.8628 30.3014 71.9648C30.3014 72.0669 30.3419 72.1648 30.4141 72.2369C30.4862 72.3091 30.5841 72.3496 30.6862 72.3496L32.9488 72.3496C33.0508 72.3496 33.1487 72.3091 33.2208 72.2369C33.293 72.1648 33.3335 72.0669 33.3335 71.9648C33.3335 71.8628 33.293 71.7649 33.2208 71.6928C33.1487 71.6206 33.0508 71.5801 32.9488 71.5801Z" fill="#093F68"/>
<path d="M38.5774 71.5801L36.3148 71.5801C36.2128 71.5801 36.1149 71.6206 36.0427 71.6928C35.9706 71.7649 35.9301 71.8628 35.9301 71.9648C35.9301 72.0669 35.9706 72.1648 36.0427 72.2369C36.1149 72.3091 36.2128 72.3496 36.3148 72.3496L38.5774 72.3496C38.6795 72.3496 38.7773 72.3091 38.8495 72.2369C38.9217 72.1648 38.9622 72.0669 38.9622 71.9648C38.9622 71.8628 38.9217 71.7649 38.8495 71.6928C38.7773 71.6206 38.6795 71.5801 38.5774 71.5801Z" fill="#093F68"/>
<path d="M32.3118 78.9244L31.8423 83.7642L33.4346 81.2402L34.664 83.5827L36.2321 81.1507L37.6066 83.7642L36.9774 78.9244C36.9774 78.9244 35.252 77.8427 32.3118 78.9244Z" fill="#FFBC0E"/>
<path d="M34.7909 78.2009C33.9019 78.2064 33.021 78.3703 32.1895 78.6849C32.1469 78.7006 32.1095 78.7279 32.0817 78.7639C32.0538 78.7998 32.0367 78.8429 32.0322 78.8881L31.5604 83.7279C31.5541 83.7828 31.5667 83.8382 31.5963 83.8849C31.6258 83.9316 31.6705 83.9668 31.7228 83.9846C31.7751 84.0024 31.8319 84.0018 31.8838 83.9828C31.9357 83.9639 31.9795 83.9277 32.008 83.8804L33.3753 81.7025L34.411 83.6747C34.4308 83.7119 34.4599 83.7434 34.4956 83.7659C34.5312 83.7884 34.5722 83.8011 34.6143 83.803C34.6564 83.8046 34.6982 83.7951 34.7355 83.7756C34.7729 83.7561 34.8045 83.7271 34.8272 83.6917L36.1703 81.6081L37.3463 83.878C37.3726 83.928 37.4156 83.9672 37.4677 83.9888C37.5199 84.0105 37.5779 84.0132 37.6319 83.9966C37.6891 83.9807 37.7385 83.9442 37.7707 83.8943C37.8028 83.8443 37.8154 83.7842 37.8061 83.7255L37.177 78.8857C37.1721 78.85 37.1594 78.8159 37.1398 78.7858C37.1201 78.7556 37.0939 78.7302 37.0632 78.7115C37.0148 78.6873 36.2066 78.2009 34.7909 78.2009ZM32.5065 79.1011C34.82 78.2928 36.3348 78.893 36.7196 79.0793L37.16 82.4672L36.4147 81.0515C36.3952 81.0139 36.3662 80.9819 36.3305 80.959C36.2948 80.9361 36.2538 80.9229 36.2114 80.9209C36.1689 80.9188 36.1266 80.9281 36.0888 80.9476C36.051 80.9671 36.019 80.9963 35.996 81.0322L34.653 83.1157L33.6149 81.1411C33.5952 81.103 33.5658 81.0709 33.5297 81.048C33.4935 81.025 33.4519 81.012 33.4092 81.0104C33.3668 81.0091 33.3249 81.0189 33.2875 81.0388C33.2501 81.0588 33.2186 81.0882 33.1962 81.1241L32.1484 82.7842L32.5065 79.1011Z" fill="#093F68"/>
<path d="M34.7171 58.3576C35.1301 58.3576 35.4649 58.8787 35.4649 59.5216C35.4649 60.1644 35.1301 60.6855 34.7171 60.6855C34.3041 60.6855 33.9694 60.1644 33.9694 59.5216C33.9694 58.8787 34.3041 58.3576 34.7171 58.3576Z" fill="#F56132"/>
<path d="M34.8173 58.1158C34.2631 58.1158 33.8275 58.7329 33.8275 59.5218C33.8275 60.3107 34.2631 60.9277 34.8173 60.9277C35.3714 60.9277 35.807 60.3107 35.807 59.5218C35.807 58.7329 35.3714 58.1158 34.8173 58.1158ZM34.8173 60.4438C34.5753 60.4438 34.3115 60.0638 34.3115 59.5218C34.3115 58.9797 34.5777 58.5998 34.8173 58.5998C35.0568 58.5998 35.323 58.9797 35.323 59.5218C35.323 60.0638 35.0592 60.4438 34.8173 60.4438Z" fill="#093F68"/>
<circle cx="7.55136" cy="18.2448" r="1.88785" fill="#24133F"/>
<circle cx="62.4564" cy="74.8805" r="1.88785" fill="#24133F"/>
</svg>
