<svg width="71" height="93" viewBox="0 0 71 93" fill="none" xmlns="http://www.w3.org/2000/svg">
<rect width="70.0078" height="92.5047" rx="0.629284" transform="matrix(-1 0 0 1 70.0314 0.097168)" fill="#F7F7F7"/>
<rect x="-0.0786604" y="0.0786604" width="69.8505" height="92.3473" rx="0.550623" transform="matrix(-1 0 0 1 69.8741 0.097168)" stroke="#361D5F" stroke-opacity="0.5" stroke-width="0.157321"/>
<path d="M6.32525 12.9611C5.89063 12.9611 5.5118 12.8613 5.18877 12.6616C4.87161 12.4619 4.57207 12.1271 4.29015 11.6573L5.03019 11.1903C5.17702 11.4077 5.32092 11.5868 5.46188 11.7278C5.60871 11.8628 5.75848 11.9627 5.91119 12.0273C6.06389 12.0919 6.22541 12.1242 6.39573 12.1242C6.6013 12.1242 6.79218 12.0743 6.96838 11.9744C7.14458 11.8687 7.28554 11.7248 7.39126 11.5427C7.49698 11.3607 7.54984 11.1551 7.54984 10.926C7.54984 10.697 7.50873 10.5032 7.4265 10.3446C7.34427 10.1801 7.22387 10.0568 7.06529 9.97457C6.90671 9.88647 6.71877 9.84242 6.50145 9.84242C6.40161 9.84242 6.29589 9.85416 6.1843 9.87766C6.07858 9.89528 5.96405 9.92464 5.84071 9.96576C5.71737 10.001 5.58228 10.048 5.43545 10.1067L5.17115 9.41073L7.0741 7.31396L7.25911 7.58707L4.63374 7.58707L4.63374 6.70607L8.16654 6.70607L8.34274 7.05847L6.32525 9.2962L6.10501 9.06714C6.15199 9.04365 6.22835 9.02309 6.33406 9.00547C6.44566 8.98198 6.53669 8.97023 6.60717 8.97023C6.8656 8.97023 7.10641 9.02015 7.32959 9.12C7.55865 9.21397 7.75541 9.34906 7.91986 9.52526C8.09019 9.69558 8.22234 9.89821 8.31631 10.1331C8.41615 10.3622 8.46608 10.6089 8.46608 10.8732C8.46608 11.2726 8.36917 11.6308 8.17535 11.948C7.9874 12.2593 7.73191 12.506 7.40888 12.688C7.08585 12.8701 6.72464 12.9611 6.32525 12.9611Z" fill="#000022"/>
<path d="M62.1741 79.7381C61.7395 79.7381 61.3607 79.8379 61.0376 80.0376C60.7205 80.2373 60.4209 80.5721 60.139 81.0419L60.8791 81.5089C61.0259 81.2916 61.1698 81.1124 61.3108 80.9715C61.4576 80.8364 61.6074 80.7365 61.7601 80.6719C61.9128 80.6073 62.0743 80.575 62.2446 80.575C62.4502 80.575 62.6411 80.6249 62.8173 80.7248C62.9935 80.8305 63.1344 80.9744 63.2401 81.1565C63.3459 81.3385 63.3987 81.5441 63.3987 81.7732C63.3987 82.0022 63.3576 82.1961 63.2754 82.3546C63.1932 82.5191 63.0727 82.6424 62.9142 82.7247C62.7556 82.8128 62.5676 82.8568 62.3503 82.8568C62.2505 82.8568 62.1448 82.8451 62.0332 82.8216C61.9275 82.8039 61.8129 82.7746 61.6896 82.7335C61.5662 82.6982 61.4312 82.6512 61.2843 82.5925L61.02 83.2885L62.923 85.3853L63.108 85.1122L60.4826 85.1122L60.4826 85.9932L64.0154 85.9932L64.1916 85.6408L62.1741 83.403L61.9539 83.6321C62.0009 83.6556 62.0772 83.6761 62.1829 83.6937C62.2945 83.7172 62.3856 83.729 62.4561 83.729C62.7145 83.729 62.9553 83.6791 63.1785 83.5792C63.4075 83.4852 63.6043 83.3502 63.7687 83.174C63.9391 83.0036 64.0712 82.801 64.1652 82.5661C64.265 82.337 64.315 82.0903 64.315 81.826C64.315 81.4266 64.218 81.0684 64.0242 80.7512C63.8363 80.4399 63.5808 80.1933 63.2578 80.0112C62.9347 79.8291 62.5735 79.7381 62.1741 79.7381Z" fill="#000022"/>
<path d="M32.7744 65.1959C39.6388 65.1959 45.2034 64.7089 45.2034 64.1082C45.2034 63.5075 39.6388 63.0205 32.7744 63.0205C25.91 63.0205 20.3453 63.5075 20.3453 64.1082C20.3453 64.7089 25.91 65.1959 32.7744 65.1959Z" fill="#E6E7E8"/>
<path d="M38.5275 16.8818C38.8957 18.0744 40.0541 18.8088 40.8356 19.7809C41.9553 21.1704 42.2829 23.0653 42.1074 24.8403C41.9318 26.6152 41.3023 28.3088 40.6771 29.9789C40.084 31.5633 39.3925 33.2783 37.8937 34.0962C36.8981 34.6486 35.7098 34.6957 34.5728 34.7385C33.3781 34.7728 32.1705 34.8092 30.9994 34.5715C28.4001 34.047 26.259 32.2613 24.3106 30.4649C23.6683 29.874 23.0088 29.2295 22.7883 28.3859C22.5592 27.5016 22.8718 26.5446 23.4092 25.8038C23.9466 25.0629 24.6938 24.502 25.4218 23.9539C26.1091 23.44 26.8585 22.8319 26.9527 21.9798C27.0469 21.1276 26.4945 20.2883 26.8456 19.5411C27.1968 18.7938 28.2952 18.6332 28.7726 17.9374C29.325 17.1452 28.9482 16.171 28.9268 15.3081C28.9024 14.395 29.1735 13.4983 29.6997 12.7516C30.2457 12.0108 31.2756 11.5441 32.1149 11.9252C32.2091 11.2122 32.9135 10.6962 33.6265 10.6191C34.3395 10.542 35.0439 10.814 35.6712 11.1651C36.5277 11.6468 37.7267 12.4497 38.157 13.3683C38.6795 14.4367 38.1849 15.7642 38.5275 16.8818Z" fill="#231F20"/>
<path d="M33.2904 34.8629C32.5186 34.875 31.7475 34.8097 30.9887 34.6681C28.3231 34.1307 26.1113 32.253 24.2486 30.5358C23.557 29.8935 22.9168 29.2511 22.6963 28.3947C22.4757 27.5383 22.7113 26.5812 23.3386 25.7226C23.8996 24.9497 24.6811 24.3652 25.3726 23.8492C26.0642 23.3332 26.7729 22.7422 26.8714 21.9479C26.8877 21.6074 26.8509 21.2664 26.7622 20.9373C26.6594 20.447 26.5481 19.9417 26.7622 19.4749C26.9763 19.0081 27.4045 18.7876 27.8113 18.5521C28.1572 18.3877 28.4632 18.1503 28.7085 17.8562C29.0853 17.3167 28.9997 16.6636 28.9226 16.032C28.8857 15.7872 28.8614 15.5406 28.8498 15.2933C28.8218 14.3555 29.0999 13.4341 29.642 12.6684C30.1601 11.9704 31.1643 11.4351 32.0636 11.7563C32.237 11.0283 32.9864 10.5658 33.6437 10.4951C34.301 10.4245 34.9605 10.6086 35.7527 11.054C36.6669 11.5657 37.8488 12.3729 38.2834 13.3021C38.5682 13.9123 38.5468 14.5868 38.5254 15.2569C38.4789 15.7873 38.5186 16.3216 38.6431 16.8392C38.8829 17.6143 39.4589 18.1838 40.0713 18.7855C40.3741 19.075 40.6601 19.3816 40.9277 19.704C41.964 20.9887 42.4265 22.8129 42.2124 24.8426C42.0325 26.6454 41.3945 28.354 40.7757 30.0069C40.1333 31.7434 39.4204 33.3706 37.9516 34.1821C36.911 34.758 35.6734 34.7944 34.5815 34.8244C34.1597 34.8501 33.725 34.8629 33.2904 34.8629ZM31.4897 11.8847C31.158 11.9026 30.8344 11.9946 30.5428 12.1539C30.2512 12.3132 29.999 12.5358 29.8047 12.8054C29.2947 13.5347 29.0314 14.408 29.0532 15.2976C29.0639 15.5378 29.0875 15.7772 29.1238 16.0149C29.2116 16.6872 29.3037 17.3809 28.8798 17.9911C28.6169 18.3111 28.2873 18.5697 27.9141 18.7491C27.5116 18.9782 27.1326 19.1944 26.9528 19.5777C26.7729 19.9609 26.8586 20.4341 26.9528 20.903C27.0463 21.2517 27.0839 21.6131 27.0641 21.9736C26.9656 22.8535 26.2334 23.4723 25.4904 24.0226C24.8117 24.53 24.043 25.1038 23.5013 25.8511C22.9147 26.6561 22.6941 27.564 22.8975 28.3433C23.1009 29.1227 23.7197 29.7543 24.3963 30.3688C26.2376 32.0667 28.4216 33.923 31.0337 34.4497C32.1985 34.6852 33.4103 34.6488 34.5815 34.6146C35.652 34.5825 36.8596 34.5461 37.8531 33.9958C39.2598 33.2186 39.9471 31.6406 40.5808 29.9277C41.1953 28.2876 41.8291 26.5919 42.0047 24.8169C42.1995 22.845 41.7563 21.0764 40.7585 19.8346C40.4929 19.52 40.2106 19.2198 39.9128 18.9353C39.309 18.3401 38.6838 17.7256 38.4312 16.9013C38.2983 16.361 38.2549 15.8027 38.3027 15.2484C38.3241 14.5825 38.3434 13.9637 38.0886 13.392C37.6797 12.5142 36.5363 11.737 35.6478 11.2381C34.8962 10.8099 34.2496 10.6429 33.6672 10.705C33.0506 10.7713 32.344 11.2188 32.252 11.9168C32.2499 11.9336 32.2438 11.9496 32.2341 11.9634C32.2243 11.9772 32.2114 11.9884 32.1963 11.9961C32.1815 12.0039 32.1649 12.008 32.1481 12.008C32.1313 12.008 32.1148 12.0039 32.1 11.9961C31.9069 11.9155 31.6988 11.8775 31.4897 11.8847Z" fill="#231F20"/>
<path d="M46.2763 27.7865C46.2226 27.5034 46.1854 27.2175 46.1649 26.9301C46.1649 26.8037 46.1521 26.6667 46.1521 26.5254C46.1371 26.5596 46.12 26.5918 46.105 26.626C46.0022 27.0735 45.8909 27.521 45.8031 27.9685L46.2763 27.7865Z" fill="white"/>
<path d="M45.8073 28.0756C45.782 28.076 45.7575 28.0668 45.7387 28.0499C45.7236 28.038 45.7122 28.022 45.7058 28.0038C45.6994 27.9856 45.6982 27.966 45.7023 27.9472C45.7794 27.5768 45.8651 27.1999 45.9507 26.8359L46.0042 26.6026L46.0535 26.4912C46.0643 26.4684 46.0823 26.4498 46.1048 26.4382C46.1272 26.4266 46.1528 26.4227 46.1777 26.427C46.201 26.4313 46.2221 26.4434 46.2377 26.4613C46.2532 26.4792 46.2623 26.5018 46.2633 26.5255C46.2633 26.6625 46.2633 26.7974 46.2762 26.9216C46.2947 27.2048 46.3312 27.4866 46.3853 27.7652C46.3896 27.7897 46.3854 27.815 46.3733 27.8368C46.3612 27.8587 46.3421 27.8757 46.319 27.8851C46.1648 27.9472 46.0064 28.0093 45.8458 28.0692C45.8334 28.0734 45.8204 28.0756 45.8073 28.0756ZM46.0856 27.1999C46.0406 27.3991 45.9957 27.6003 45.9528 27.7994L46.167 27.7181C46.1241 27.5618 46.1006 27.3905 46.0813 27.1914L46.0856 27.1999Z" fill="#231F20"/>
<path d="M43.5998 26.0739L42.692 26.2388C42.692 26.2388 40.1226 21.295 39.0735 20.4214C38.3348 19.809 36.6498 19.8776 35.7056 19.9718L35.2902 18.2589C35.2902 18.2589 36.4978 17.7343 36.4036 16.7045C36.2695 15.7392 36.0757 14.7831 35.8233 13.8418C35.3078 14.0488 34.7411 14.092 34.2002 13.9656C33.6593 13.8392 33.1704 13.5493 32.8001 13.1353C33.5966 15.1243 31.858 16.6938 31.858 16.6938L32.5924 20.3036C32.5924 20.3036 32.6074 20.3315 32.6352 20.3743C31.2178 20.5884 29.6377 20.8946 29.2095 21.2736C28.4558 21.9673 27.1583 27.5427 27.1583 27.5427L25.9529 27.4742C26.629 28.1958 27.1707 29.0326 27.5523 29.945C27.7852 29.946 28.0175 29.9186 28.2439 29.8636C30.0531 29.3819 31.0273 25.1918 31.0273 25.1918L37.5084 24.4552C37.5084 24.4552 40.1612 28.6282 41.6985 28.9515C41.9411 28.9897 42.1882 28.9897 42.4307 28.9515C42.5956 28.0116 43.2872 26.9774 43.5998 26.0739Z" fill="white"/>
<path d="M27.5609 30.0431C27.5392 30.043 27.5181 30.0364 27.5002 30.0242C27.4822 30.012 27.4684 29.9947 27.4603 29.9746C27.0844 29.0745 26.5499 28.2493 25.8823 27.5381C25.8676 27.5226 25.858 27.503 25.855 27.4819C25.8519 27.4608 25.8555 27.4393 25.8652 27.4203C25.8736 27.4005 25.8881 27.3838 25.9065 27.3727C25.925 27.3615 25.9465 27.3565 25.9679 27.3582L27.0834 27.4224C27.259 26.6816 28.4195 21.8556 29.1453 21.1854C29.4879 20.8707 30.6098 20.5667 32.4811 20.2797L31.7532 16.6998C31.7489 16.6817 31.7497 16.6628 31.7553 16.6451C31.761 16.6274 31.7713 16.6115 31.7853 16.5992C31.8024 16.5842 33.4596 15.0555 32.7017 13.1585C32.6926 13.1348 32.6923 13.1087 32.7006 13.0848C32.709 13.061 32.7256 13.0408 32.7474 13.028C32.7692 13.0151 32.7949 13.0104 32.8198 13.0147C32.8448 13.019 32.8674 13.032 32.8837 13.0514C33.237 13.4516 33.7063 13.7318 34.2262 13.8531C34.7461 13.9743 35.2909 13.9306 35.7849 13.728C35.7986 13.7217 35.8136 13.7184 35.8288 13.7184C35.8439 13.7184 35.8589 13.7217 35.8726 13.728C35.886 13.7346 35.8979 13.7439 35.9075 13.7553C35.9171 13.7667 35.9242 13.78 35.9283 13.7944C36.1823 14.7412 36.3768 15.703 36.5107 16.6741C36.5985 17.6184 35.6971 18.1536 35.4144 18.2971L35.7891 19.8451C36.7612 19.753 38.397 19.7102 39.1421 20.3268C40.1463 21.1576 42.4201 25.4783 42.7498 26.1078L43.5806 25.9579C43.5991 25.9546 43.6181 25.9563 43.6358 25.9627C43.6534 25.969 43.6691 25.98 43.6812 25.9943C43.6931 26.0083 43.7012 26.0251 43.7046 26.0431C43.7079 26.0612 43.7065 26.0798 43.7005 26.0971C43.5556 26.4886 43.3876 26.8711 43.1973 27.2426C42.9002 27.7812 42.6769 28.3573 42.5336 28.9555C42.53 28.9782 42.519 28.999 42.5024 29.0149C42.4857 29.0308 42.4644 29.0407 42.4415 29.0432C42.1876 29.0838 41.9289 29.0838 41.675 29.0432C40.1912 28.7221 37.7889 25.0694 37.4528 24.5469L31.113 25.2685C30.9695 25.853 30.0167 29.4822 28.2803 29.9446C28.045 30.003 27.8033 30.0318 27.5609 30.0303L27.5609 30.0431ZM26.2163 27.5873C26.8038 28.2541 27.2815 29.0101 27.6316 29.8269C27.8315 29.8246 28.0305 29.7994 28.2247 29.7519C29.9504 29.2916 30.9117 25.2 30.9224 25.1593C30.9275 25.1377 30.939 25.1181 30.9554 25.1032C30.9719 25.0883 30.9925 25.0787 31.0145 25.0758L37.4956 24.3393C37.5153 24.3369 37.5353 24.3402 37.5532 24.349C37.5711 24.3577 37.586 24.3714 37.5962 24.3885C37.6241 24.4292 40.2426 28.5272 41.72 28.8463C41.9244 28.8765 42.1322 28.8765 42.3366 28.8463C42.4893 28.2559 42.7136 27.6864 43.0046 27.1505C43.1652 26.8186 43.3172 26.5082 43.4328 26.202L42.7092 26.3326C42.6865 26.3367 42.6631 26.3336 42.6423 26.3236C42.6215 26.3136 42.6045 26.2972 42.5935 26.277C42.5678 26.2277 40.0242 21.3524 39.0029 20.496C38.2942 19.9093 36.6477 19.9779 35.7163 20.0678C35.6904 20.0711 35.6642 20.0645 35.6428 20.0495C35.6214 20.0344 35.6064 20.0119 35.6007 19.9864L35.1725 18.2628C35.1674 18.2385 35.1708 18.2131 35.182 18.1909C35.1933 18.1687 35.2119 18.151 35.2346 18.1408C35.2346 18.1408 36.3865 17.6441 36.2987 16.6998C36.171 15.7806 35.9858 14.8703 35.7442 13.9742C35.2886 14.1376 34.7982 14.1786 34.3219 14.0934C33.8455 14.0081 33.3998 13.7994 33.0293 13.4882C33.4425 15.1518 32.2264 16.4686 31.9737 16.7212L32.6953 20.2583L32.7252 20.3054C32.7337 20.3213 32.7381 20.3389 32.7381 20.3568C32.7381 20.3747 32.7337 20.3924 32.7252 20.4082C32.7181 20.4248 32.7069 20.4394 32.6927 20.4506C32.6785 20.4618 32.6617 20.4693 32.6439 20.4724C30.263 20.8257 29.5007 21.1426 29.2824 21.3439C28.7043 21.8749 27.7086 25.641 27.2633 27.553C27.2586 27.578 27.2449 27.6003 27.2247 27.6157C27.2046 27.6312 27.1794 27.6386 27.1541 27.6365L26.2163 27.5873Z" fill="#231F20"/>
<path d="M32.4361 16.4305C32.3137 16.2328 32.1276 16.0827 31.9085 16.0048C31.6894 15.927 31.4503 15.9261 31.2307 16.0023C30.6954 16.2164 30.8581 16.8587 31.1322 17.2163C31.2158 17.3266 31.3205 17.4192 31.4402 17.4887C31.5599 17.5582 31.6922 17.6032 31.8295 17.6211C31.9667 17.639 32.1062 17.6295 32.2397 17.5931C32.3733 17.5567 32.4982 17.4941 32.6074 17.409" fill="white"/>
<path d="M31.9631 17.7279C31.9146 17.7312 31.8659 17.7312 31.8175 17.7279C31.6662 17.7075 31.5205 17.6575 31.3886 17.5807C31.2567 17.504 31.1412 17.4019 31.0488 17.2804C30.9416 17.1498 30.8636 16.9978 30.82 16.8346C30.7765 16.6714 30.7683 16.5007 30.7962 16.3341C30.8235 16.2367 30.8734 16.1472 30.9419 16.0728C31.0103 15.9984 31.0954 15.9412 31.1901 15.9059C31.4343 15.8175 31.7016 15.8165 31.9464 15.9032C32.1913 15.9899 32.3984 16.1588 32.5326 16.3812C32.5454 16.4062 32.5479 16.4353 32.5395 16.4621C32.5311 16.489 32.5125 16.5114 32.4876 16.5246C32.4753 16.5314 32.4617 16.5357 32.4477 16.5372C32.4336 16.5387 32.4195 16.5375 32.4059 16.5335C32.3924 16.5295 32.3798 16.5229 32.3688 16.514C32.3579 16.5051 32.3488 16.4942 32.342 16.4818C32.2332 16.3061 32.0684 16.1722 31.8743 16.1015C31.6801 16.0308 31.4678 16.0275 31.2715 16.0921C31.2066 16.1151 31.1482 16.1533 31.1012 16.2037C31.0543 16.254 31.0201 16.3149 31.0017 16.3812C30.9828 16.5161 30.9921 16.6535 31.029 16.7847C31.0658 16.9159 31.1294 17.038 31.2158 17.1434C31.291 17.2421 31.385 17.3249 31.4923 17.3871C31.5997 17.4493 31.7183 17.4896 31.8413 17.5057C31.9643 17.5218 32.0893 17.5134 32.209 17.481C32.3288 17.4486 32.4409 17.3928 32.539 17.3168C32.5499 17.3079 32.5624 17.3012 32.5759 17.2972C32.5894 17.2932 32.6036 17.292 32.6176 17.2936C32.6316 17.2952 32.6451 17.2996 32.6573 17.3065C32.6696 17.3135 32.6803 17.3228 32.6889 17.334C32.6978 17.3448 32.7045 17.3574 32.7085 17.3709C32.7125 17.3844 32.7137 17.3985 32.7121 17.4125C32.7105 17.4265 32.7061 17.44 32.6992 17.4523C32.6922 17.4645 32.6829 17.4753 32.6718 17.4838C32.4689 17.6412 32.2198 17.727 31.9631 17.7279Z" fill="#231F20"/>
<path d="M34.2132 15.3921C34.2132 15.3921 35.1617 16.1907 35.0546 16.4091C34.9476 16.6275 34.4723 16.6403 34.4723 16.6403" fill="white"/>
<path d="M34.4723 16.747C34.4439 16.747 34.4167 16.7358 34.3966 16.7157C34.3765 16.6956 34.3652 16.6684 34.3652 16.64C34.3652 16.6116 34.3765 16.5844 34.3966 16.5643C34.4167 16.5442 34.4439 16.5329 34.4723 16.5329C34.6072 16.5329 34.9005 16.4815 34.9626 16.3616C34.9626 16.2632 34.5879 15.8435 34.1468 15.4731C34.1362 15.464 34.1274 15.4528 34.121 15.4403C34.1146 15.4277 34.1108 15.4141 34.1097 15.4001C34.1086 15.386 34.1103 15.3719 34.1146 15.3586C34.119 15.3452 34.1259 15.3328 34.1351 15.3221C34.1442 15.3115 34.1554 15.3027 34.1679 15.2963C34.1804 15.2899 34.1941 15.2861 34.2081 15.285C34.2221 15.2839 34.2362 15.2856 34.2496 15.2899C34.263 15.2943 34.2753 15.3012 34.286 15.3104C34.7485 15.7 35.2752 16.2139 35.1553 16.4559C35.0354 16.6978 34.5344 16.7449 34.4787 16.747L34.4723 16.747Z" fill="#231F20"/>
<path d="M35.2213 15.3472C35.3093 15.3362 35.3598 15.1617 35.3341 14.9575C35.3085 14.7534 35.2164 14.5969 35.1284 14.6079C35.0404 14.619 34.9898 14.7934 35.0155 14.9976C35.0411 15.2017 35.1333 15.3583 35.2213 15.3472Z" fill="#231F20"/>
<path d="M33.4658 15.3072C33.5538 15.2961 33.6044 15.1217 33.5787 14.9175C33.5531 14.7134 33.4609 14.5568 33.373 14.5679C33.285 14.5789 33.2344 14.7534 33.2601 14.9575C33.2857 15.1617 33.3778 15.3182 33.4658 15.3072Z" fill="#231F20"/>
<path d="M35.2901 18.25C34.7324 18.4418 34.1242 18.4258 33.5773 18.2051C33.5773 18.2051 34.2453 19.4833 35.5407 19.2885L35.2901 18.25Z" fill="#231F20"/>
<path d="M35.2815 19.4129C34.1017 19.4129 33.498 18.2674 33.4915 18.2546C33.4812 18.2359 33.4771 18.2144 33.4798 18.1932C33.4825 18.1721 33.4919 18.1523 33.5065 18.1368C33.5204 18.1205 33.5388 18.1088 33.5594 18.103C33.58 18.0973 33.6019 18.0979 33.6221 18.1047C34.1404 18.3123 34.7156 18.329 35.2451 18.1518C35.2596 18.1454 35.2753 18.1422 35.2912 18.1425C35.307 18.1428 35.3226 18.1465 35.3369 18.1535C35.3512 18.1604 35.3637 18.1703 35.3738 18.1826C35.3838 18.1949 35.391 18.2092 35.395 18.2246L35.6455 19.2694C35.6514 19.2989 35.646 19.3294 35.6305 19.3551C35.6216 19.3672 35.6104 19.3774 35.5975 19.3851C35.5847 19.3928 35.5704 19.3979 35.5555 19.4001C35.4646 19.4105 35.373 19.4148 35.2815 19.4129ZM33.832 18.3916C34.0029 18.6501 34.2379 18.86 34.5141 19.0007C34.7903 19.1414 35.0982 19.2082 35.4078 19.1945L35.213 18.3895C34.7615 18.5162 34.2839 18.5169 33.832 18.3916Z" fill="#231F20"/>
<path d="M34.5536 17.368C34.3451 17.3829 34.1364 17.341 33.9498 17.2468C33.7631 17.1525 33.6055 17.0094 33.4938 16.8327C33.479 16.8083 33.4746 16.779 33.4814 16.7513C33.4882 16.7236 33.5058 16.6997 33.5302 16.685C33.5546 16.6702 33.5839 16.6657 33.6116 16.6726C33.6393 16.6794 33.6632 16.6969 33.6779 16.7214C34.1533 17.52 35.485 16.959 35.4979 16.9547C35.5107 16.9488 35.5247 16.9455 35.5389 16.945C35.5531 16.9446 35.5672 16.9471 35.5804 16.9523C35.5936 16.9575 35.6057 16.9653 35.6158 16.9753C35.6259 16.9853 35.6338 16.9972 35.6392 17.0104C35.65 17.0363 35.6502 17.0653 35.6398 17.0914C35.6293 17.1174 35.6092 17.1383 35.5835 17.1496C35.2564 17.2845 34.9074 17.3585 34.5536 17.368Z" fill="#231F20"/>
<path d="M27.2182 59.5626C27.2182 59.5626 26.8264 61.9435 26.3618 62.6073C25.8972 63.271 24.6146 64.5342 23.891 63.9626C23.1673 63.3909 22.9874 61.7016 23.1972 60.888C23.4071 60.0743 25.8201 57.1196 25.8201 57.1196L27.2182 59.5626Z" fill="#231F20"/>
<path d="M24.3298 64.2151C24.1502 64.2184 23.9752 64.1585 23.8352 64.0459C23.0859 63.4529 22.8782 61.7336 23.1051 60.8621C23.3192 60.0335 25.6487 57.1752 25.7472 57.0531C25.7583 57.0397 25.7725 57.0292 25.7885 57.0225C25.8046 57.0158 25.822 57.013 25.8393 57.0146C25.8567 57.0153 25.8736 57.0207 25.8883 57.0301C25.903 57.0395 25.9149 57.0526 25.9228 57.0681L27.3102 59.509C27.3229 59.5302 27.3274 59.5553 27.3231 59.5796C27.306 59.6781 26.9227 61.9926 26.4666 62.6671C26.0748 63.2387 25.2055 64.093 24.4904 64.2022C24.4373 64.2108 24.3836 64.2151 24.3298 64.2151ZM25.8158 57.3101C25.3618 57.8732 23.4905 60.2241 23.3128 60.9157C23.0987 61.7121 23.2935 63.3458 23.968 63.8789C24.0358 63.9314 24.1142 63.9685 24.1977 63.9877C24.2813 64.0069 24.368 64.0078 24.4519 63.9903C25.0942 63.8918 25.9271 63.0717 26.2847 62.5472C26.6893 61.9541 27.0533 59.8858 27.1047 59.5818L25.8158 57.3101Z" fill="#231F20"/>
<path d="M27.0534 59.2735C27.0534 59.2735 26.5545 61.6416 25.7109 61.8835C24.8673 62.1255 23.5805 61.9135 23.7711 61.0099C23.9616 60.1064 26.1263 57.3315 26.1263 57.3315L27.0534 59.2735Z" fill="white"/>
<path d="M25.0217 62.0911C24.6133 62.1159 24.2099 61.9911 23.8869 61.74C23.7868 61.647 23.7141 61.5285 23.6763 61.3972C23.6386 61.2659 23.6374 61.1268 23.6728 60.9949C23.8676 60.0785 25.9552 57.3893 26.0451 57.2737C26.056 57.2594 26.0704 57.2481 26.0869 57.241C26.1034 57.2339 26.1214 57.2311 26.1393 57.233C26.1575 57.2348 26.1749 57.2413 26.1899 57.2518C26.2049 57.2623 26.217 57.2765 26.2249 57.2929L27.1563 59.2349C27.1638 59.2571 27.1638 59.2812 27.1563 59.3034C27.1349 59.4019 26.6339 61.7378 25.7368 61.9948C25.504 62.0596 25.2633 62.092 25.0217 62.0911ZM26.0922 57.5434C25.664 58.113 24.0282 60.2819 23.8676 61.0398C23.8412 61.1361 23.8419 61.2378 23.8695 61.3337C23.897 61.4296 23.9505 61.5161 24.0239 61.5837C24.3708 61.907 25.1351 61.9434 25.6725 61.7978C26.302 61.6179 26.7881 59.9693 26.9315 59.3034L26.0922 57.5434Z" fill="#231F20"/>
<path d="M35.6072 60.5262C35.6072 60.6182 35.5366 61.4319 35.7528 61.8836C35.9691 62.3354 35.922 64.4144 35.922 64.4144L36.6307 64.4144C36.6307 64.4144 36.5108 62.4253 36.6307 62.3054C36.7506 62.1855 36.924 61.9736 37.1253 62.4703C37.3265 62.967 37.6563 64.3545 38.078 64.4144C38.4998 64.4744 41.4845 64.8426 41.3946 64.4144C41.3047 63.9862 39.5854 63.0291 39.5854 63.0291C39.5854 63.0291 37.956 63.4209 37.7162 61.8237C37.4764 60.2264 37.4443 60.0444 37.4443 60.0444L35.6072 60.5262Z" fill="#231F20"/>
<path d="M40.5144 64.7229C39.6942 64.701 38.8757 64.6338 38.0629 64.5216C37.701 64.4703 37.4612 63.8172 37.1829 62.9693C37.123 62.7831 37.0694 62.6246 37.0245 62.5111C36.9345 62.2842 36.8682 62.2649 36.8617 62.2628C36.8553 62.2606 36.7632 62.3227 36.7247 62.3634L36.7076 62.3805C36.6605 62.494 36.684 63.5046 36.7376 64.4082C36.7385 64.4229 36.7366 64.4377 36.7318 64.4516C36.727 64.4656 36.7195 64.4785 36.7097 64.4895C36.6994 64.4999 36.687 64.5081 36.6734 64.5137C36.6598 64.5192 36.6452 64.5219 36.6305 64.5216L35.9218 64.5216C35.9074 64.5218 35.8932 64.5191 35.8799 64.5136C35.8667 64.5081 35.8547 64.4999 35.8447 64.4895C35.825 64.4688 35.8142 64.4411 35.8147 64.4124C35.8276 63.8408 35.8147 62.2821 35.6563 61.9288C35.455 61.5006 35.4872 60.8111 35.4979 60.582C35.4979 60.5563 35.4979 60.5371 35.4979 60.5264C35.498 60.5029 35.5058 60.4802 35.5201 60.4616C35.5344 60.443 35.5544 60.4297 35.5771 60.4236L37.4163 59.9418C37.4303 59.9375 37.445 59.9364 37.4595 59.9386C37.474 59.9408 37.4878 59.9463 37.4998 59.9547C37.5251 59.9715 37.5428 59.9977 37.549 60.0275C37.549 60.0275 37.579 60.2073 37.8188 61.8067C37.8345 61.9911 37.8894 62.1699 37.9799 62.3313C38.0703 62.4927 38.1943 62.6328 38.3434 62.7424C38.853 63.0871 39.551 62.9265 39.5574 62.9244C39.5835 62.9182 39.611 62.922 39.6345 62.9351C39.9299 63.1 41.4009 63.9457 41.4972 64.3932C41.5036 64.4236 41.5024 64.4551 41.4938 64.4849C41.4853 64.5148 41.4695 64.5421 41.448 64.5645C41.3388 64.6822 40.9705 64.7229 40.5144 64.7229ZM36.8575 62.0487L36.9046 62.0487C37.0287 62.0744 37.1294 62.1943 37.2236 62.4276C37.2707 62.5454 37.3242 62.7103 37.3863 62.8987C37.5426 63.3762 37.8359 64.269 38.0929 64.3054C39.264 64.4724 41.1375 64.6009 41.2938 64.4124C41.2339 64.1791 40.2618 63.5303 39.5681 63.1385C39.1102 63.2343 38.633 63.158 38.2278 62.9244C38.0534 62.7983 37.9079 62.6365 37.8012 62.4496C37.6945 62.2628 37.6289 62.0552 37.609 61.841C37.4527 60.7983 37.3949 60.3594 37.3585 60.1795L35.7098 60.6077C35.6638 61.0219 35.7113 61.4412 35.849 61.8346C36.0481 62.2521 36.0374 63.8408 36.031 64.3054L36.517 64.3054C36.4421 63.0207 36.4549 62.327 36.5556 62.2285L36.5727 62.2093C36.6426 62.1202 36.745 62.0624 36.8575 62.0487Z" fill="#231F20"/>
<path d="M39.5852 63.029C39.299 62.5027 39.1441 61.9151 39.1335 61.3161L37.1251 60.7744C37.1251 60.7744 37.1251 63.5172 38.3541 63.2752L39.5852 63.029Z" fill="white"/>
<path d="M38.2042 63.3909C38.0267 63.3921 37.8548 63.329 37.7203 63.2132C37.0287 62.6415 37.0287 60.8452 37.0287 60.7681C37.0287 60.7517 37.0323 60.7354 37.0393 60.7206C37.0464 60.7058 37.0566 60.6927 37.0694 60.6824C37.0829 60.6729 37.0984 60.6664 37.1146 60.6635C37.1309 60.6605 37.1476 60.6611 37.1636 60.6653L39.172 61.207C39.195 61.2139 39.2151 61.2281 39.2294 61.2474C39.2436 61.2667 39.2513 61.2901 39.2512 61.3141C39.2595 61.8941 39.4063 62.4638 39.6794 62.9756C39.6879 62.9903 39.6927 63.007 39.6935 63.024C39.6943 63.041 39.691 63.058 39.6838 63.0735C39.6767 63.089 39.666 63.1026 39.6526 63.1131C39.6391 63.1236 39.6234 63.1308 39.6066 63.134L38.3755 63.3759C38.3191 63.3872 38.2617 63.3922 38.2042 63.3909ZM37.2429 60.9094C37.26 61.3376 37.3499 62.6223 37.8638 63.0505C37.9291 63.1059 38.0065 63.1452 38.0898 63.1653C38.1731 63.1854 38.26 63.1857 38.3434 63.1661L39.4332 62.952C39.1885 62.4668 39.0519 61.9343 39.0328 61.3911L37.2429 60.9094Z" fill="#231F20"/>
<path d="M16.5664 52.6981C16.4209 52.362 16.2667 52.0237 16.089 51.6854C15.7271 50.9938 15.0184 50.5699 14.4703 50.0068C13.9128 49.4076 13.5421 48.6589 13.4037 47.8523C13.2653 47.0457 13.3651 46.2162 13.691 45.4655C13.9179 44.9645 14.2541 44.4806 14.2583 43.9325C14.2626 43.3843 13.9736 42.9497 13.7894 42.4637C13.6058 41.972 13.485 41.459 13.4297 40.9371C13.3227 39.935 13.4512 38.8516 14.0143 37.9931C14.5453 37.1816 16.4808 35.1818 17.425 34.9634C18.4956 34.7172 19.6282 35.0876 20.5103 35.7342C21.3925 36.3808 22.0541 37.2779 22.6514 38.1922C24.0772 40.3624 25.2279 42.7012 26.0772 45.155C27.0193 47.8785 27.576 50.8396 26.9186 53.6445C26.7045 54.5544 26.6339 55.762 26.0622 56.5071C25.3792 57.3892 24.193 57.9224 23.1032 58.023C21.6044 58.1622 20.1057 57.5841 18.9666 56.6206C17.6284 55.4901 17.1852 54.1262 16.5664 52.6981Z" fill="#231F20"/>
<path d="M22.662 58.1517C21.2764 58.124 19.9443 57.6111 18.898 56.7022C17.714 55.7023 17.2215 54.5311 16.7012 53.2893L16.4743 52.7412C16.3009 52.3386 16.1553 52.0282 16.0011 51.7348C15.7377 51.3032 15.3947 50.9254 14.9905 50.6215C14.7914 50.4502 14.5858 50.2746 14.3996 50.0819C13.825 49.4683 13.443 48.6998 13.3007 47.8713C13.1583 47.0429 13.262 46.1909 13.5988 45.4208C13.6545 45.2966 13.7187 45.1745 13.7808 45.0525C13.992 44.7129 14.121 44.3288 14.1576 43.9305C14.1377 43.569 14.0375 43.2165 13.8643 42.8985C13.8065 42.7679 13.7465 42.6373 13.6951 42.5024C13.508 42.0018 13.3849 41.4795 13.329 40.948C13.2412 40.1237 13.2755 38.9332 13.9307 37.9355C14.4531 37.1369 16.4122 35.09 17.4078 34.8587C18.4034 34.6275 19.5746 34.9123 20.5788 35.6488C21.4909 36.319 22.1632 37.2375 22.7498 38.1346C24.1806 40.3114 25.3357 42.6574 26.1884 45.1189C27.3339 48.4333 27.6101 51.2295 27.0342 53.6683C26.9785 53.8973 26.9357 54.1414 26.8886 54.4005C26.7537 55.1477 26.5995 55.9956 26.152 56.5737C25.4969 57.4302 24.3342 58.0168 23.1202 58.1303C22.9639 58.1431 22.8119 58.1517 22.662 58.1517ZM18.1122 34.9936C17.8888 34.9927 17.6661 35.0178 17.4485 35.0686C16.5706 35.2827 14.6651 37.1947 14.1019 38.0532C13.4832 38.9975 13.4596 40.1365 13.5367 40.9245C13.5893 41.4372 13.708 41.941 13.89 42.4232C13.9392 42.5538 13.997 42.6823 14.0527 42.8086C14.2399 43.1543 14.3468 43.5378 14.3653 43.9305C14.3282 44.3615 14.1911 44.7779 13.9649 45.1467C13.9028 45.2666 13.8429 45.3865 13.7872 45.5064C13.4673 46.238 13.3689 47.0472 13.504 47.8342C13.639 48.6211 14.0018 49.3512 14.5473 49.9342C14.7271 50.1183 14.9284 50.2917 15.1232 50.4609C15.5518 50.7808 15.9152 51.1798 16.1938 51.6364C16.3501 51.934 16.4978 52.2487 16.6734 52.6555C16.7526 52.8396 16.8297 53.0238 16.9068 53.2079C17.4164 54.4241 17.8981 55.5631 19.0479 56.5395C20.2362 57.5436 21.7178 58.0489 23.1031 57.9162C24.2614 57.8091 25.3662 57.246 25.9872 56.4431C26.4025 55.9057 26.5438 55.1221 26.6809 54.362C26.728 54.1008 26.7729 53.8524 26.8286 53.619C27.3981 51.221 27.1241 48.4632 25.9914 45.1895C25.1406 42.7438 23.9899 40.4129 22.5657 38.2502C21.9876 37.3724 21.3324 36.471 20.446 35.8222C19.7753 35.3062 18.9582 35.0161 18.1122 34.9936Z" fill="#231F20"/>
<path d="M56.6989 35.9357C56.7778 36.238 56.806 36.5513 56.7824 36.8628C56.7311 37.3467 56.4763 37.7856 56.3414 38.2545C55.8939 39.8111 56.8017 41.4212 56.8595 43.0399C56.9537 45.6692 54.6585 47.9473 52.0977 48.5446C51.7627 48.6677 51.3978 48.6844 51.053 48.5924C50.7081 48.5004 50.4 48.3043 50.1707 48.0308C48.3551 46.3179 47.5714 43.7721 47.2803 41.2949C47.0897 39.6698 47.0811 38.0019 47.4944 36.4175C47.9076 34.8331 48.7448 33.3257 50.038 32.3216C50.4481 31.9804 50.9307 31.7373 51.449 31.6107C54.3095 31.0134 56.1679 33.5399 56.6989 35.9357Z" fill="#231F20"/>
<path d="M51.4363 48.7414C51.2991 48.743 51.1623 48.7265 51.0295 48.6922C50.6782 48.5768 50.3611 48.376 50.1067 48.1077C48.5201 46.6089 47.5374 44.3265 47.182 41.3076C46.9678 39.4191 47.0299 37.809 47.3961 36.383C47.8393 34.6552 48.7557 33.1714 49.9782 32.2293C50.4008 31.877 50.8991 31.6271 51.4342 31.4992C52.0746 31.3571 52.7408 31.3809 53.3695 31.5682C53.9982 31.7555 54.5687 32.1003 55.0269 32.5698C55.9268 33.4899 56.5448 34.648 56.8083 35.9077C56.888 36.2215 56.9169 36.5461 56.894 36.8691C56.8471 37.18 56.7585 37.4832 56.6306 37.7705C56.5642 37.9375 56.4979 38.1088 56.4486 38.28C56.1831 39.205 56.4079 40.1407 56.6456 41.1298C56.8168 41.7513 56.9258 42.3882 56.971 43.0311C57.0695 45.8146 54.5859 48.0713 52.1257 48.6451C51.9004 48.7035 51.6691 48.7358 51.4363 48.7414ZM52.2157 31.6384C51.966 31.638 51.717 31.6639 51.4727 31.7155C50.9702 31.8384 50.5023 32.0742 50.1046 32.4049C48.9205 33.3277 48.0298 34.7601 47.5995 36.443C47.244 37.8368 47.1712 39.4191 47.3854 41.2819C47.7344 44.2494 48.6957 46.4933 50.2459 47.9535C50.4754 48.1956 50.7606 48.3778 51.0766 48.4845C51.4052 48.5492 51.7445 48.5338 52.0658 48.4395C54.4403 47.8871 56.8383 45.7182 56.7441 43.044C56.6992 42.4155 56.5923 41.793 56.4251 41.1855C56.1917 40.2113 55.9497 39.205 56.2302 38.2265C56.2816 38.0445 56.3523 37.8668 56.4186 37.6955C56.5385 37.4257 56.6227 37.1414 56.6691 36.8498C56.689 36.5503 56.6608 36.2497 56.5856 35.9591C55.9198 32.9059 53.9799 31.6384 52.2157 31.6384Z" fill="#231F20"/>
<path d="M38.08 28.6001C37.9537 28.6001 38.7223 25.8167 38.6817 24.7461C38.641 23.6756 38.08 22.4552 38.08 22.4552C38.08 22.4552 36.0995 22.2539 34.6371 22.4552C33.1748 22.6564 32.8557 22.6564 32.252 23.4187C31.6482 24.1809 31.0337 25.1829 31.0337 25.1829L32.7829 29.0819C32.7829 29.0819 29.6163 31.0816 27.6079 32.3299C25.5996 33.5782 23.4499 36.3188 23.4499 36.3188C22.9275 35.9955 20.6836 29.4822 20.1012 29.9383C19.5189 30.3944 17.5019 30.1695 16.2965 31.7368C15.0911 33.3041 13.815 36.3166 13.7443 38.2971C14.1725 37.8068 14.8149 37.0489 15.5557 37.385C15.9197 37.5499 16.1252 37.9396 16.258 38.3185C16.9003 40.1513 16.4871 42.1618 16.1445 44.0738C16.0246 44.7568 15.9304 45.4912 16.2173 46.1164C16.5042 46.7416 17.1273 47.127 17.3242 47.7629C17.5212 48.3988 17.2215 49.1204 17.0673 49.797C16.9257 50.4458 16.9277 51.1177 17.073 51.7656C17.2184 52.4136 17.5036 53.022 17.9088 53.5481C18.9793 54.9206 20.6922 55.5886 21.8783 56.8433C22.5849 57.5884 23.163 58.4084 23.9466 59.0829C26.1605 60.997 29.0532 61.725 31.7488 60.3311C31.7488 60.3311 38.4419 64.1294 43.2036 58.3421C43.2036 58.3421 47.3038 59.0058 49.841 56.5328C52.3782 54.0599 52.4104 52.9165 52.4104 52.9165C52.4104 52.9165 54.5943 51.1673 54.7656 48.9384C54.9369 46.7095 53.5601 46.9472 53.862 45.3199C54.1639 43.6927 55.1595 41.8235 54.7827 39.9543C54.4059 38.0852 52.7465 38.0852 52.3997 36.6399C52.0528 35.1947 51.631 32.2378 52.7765 31.7561C53.922 31.2743 55.4893 33.1435 55.4893 33.1435C55.4893 33.1435 51.7231 27.7908 50.6996 27.5767C49.6762 27.3626 44.9379 34 44.9379 34C44.9379 34 41.5764 28.8806 38.08 28.6001Z" fill="#C42847"/>
<path d="M53.0699 45.5768C53.0536 45.5768 53.0377 45.5727 53.0234 45.5648C53.0092 45.557 52.9972 45.5456 52.9885 45.5319C50.0895 40.9906 45.5525 34.1841 44.9337 34.0813C44.9102 34.0745 44.89 34.0592 44.8772 34.0383C44.8643 34.0174 44.8597 33.9925 44.8643 33.9684C44.8688 33.9443 44.8822 33.9228 44.9018 33.908C44.9213 33.8933 44.9457 33.8863 44.9701 33.8886C45.8694 34.0513 52.4104 44.2622 53.1534 45.427C53.1666 45.449 53.1708 45.4753 53.1652 45.5004C53.1596 45.5254 53.1447 45.5474 53.1234 45.5619C53.1074 45.572 53.0888 45.5772 53.0699 45.5768Z" fill="#231F20"/>
<path d="M52.0164 51.6C51.998 51.5998 51.9801 51.5945 51.9646 51.5847C51.949 51.5749 51.9366 51.5609 51.9286 51.5443C51.8687 51.418 45.8415 38.9783 42.1459 34.0366C41.0369 32.5208 39.7874 31.1128 38.414 29.8315C38.4045 29.8231 38.3966 29.8128 38.391 29.8014C38.3854 29.7899 38.3821 29.7775 38.3814 29.7648C38.3806 29.752 38.3823 29.7393 38.3864 29.7272C38.3905 29.7152 38.397 29.704 38.4054 29.6945C38.4139 29.6849 38.4241 29.6771 38.4356 29.6715C38.447 29.6659 38.4595 29.6626 38.4722 29.6618C38.4849 29.661 38.4977 29.6627 38.5097 29.6669C38.5218 29.671 38.5329 29.6775 38.5425 29.6859C39.9267 30.9756 41.1856 32.3937 42.3022 33.921C46.0085 38.8776 52.0442 51.3324 52.1042 51.4587C52.1114 51.4736 52.1147 51.4902 52.1138 51.5067C52.113 51.5233 52.1079 51.5394 52.0991 51.5535C52.0904 51.5676 52.0782 51.5793 52.0637 51.5874C52.0493 51.5955 52.033 51.5999 52.0164 51.6Z" fill="#231F20"/>
<path d="M43.5057 56.1069C43.4827 56.1067 43.4604 56.0985 43.4428 56.0836C43.4252 56.0687 43.4134 56.0482 43.4093 56.0255C43.3665 55.8114 39.1978 33.407 36.7463 29.8206C36.7389 29.81 36.7338 29.7979 36.7311 29.7853C36.7285 29.7726 36.7283 29.7595 36.7307 29.7468C36.7331 29.7341 36.738 29.7219 36.745 29.7111C36.7521 29.7002 36.7613 29.6909 36.772 29.6836C36.7825 29.6763 36.7943 29.6712 36.8068 29.6686C36.8193 29.6659 36.8322 29.6658 36.8448 29.6682C36.8573 29.6706 36.8693 29.6755 36.8799 29.6825C36.8906 29.6896 36.8997 29.6987 36.9068 29.7093C39.3841 33.3299 43.4308 55.0684 43.602 55.9912C43.6064 56.0168 43.6006 56.043 43.5857 56.0642C43.5709 56.0855 43.5483 56.1 43.5228 56.1047L43.5057 56.1069Z" fill="#231F20"/>
<path d="M32.4381 58.6271L32.4252 58.6271C32.4125 58.6256 32.4003 58.6215 32.3892 58.6151C32.3781 58.6087 32.3683 58.6002 32.3606 58.5901C32.3528 58.5799 32.3471 58.5683 32.3439 58.5559C32.3407 58.5435 32.3399 58.5306 32.3417 58.5179C32.3717 58.291 35.2707 35.8844 35.0845 29.9386C35.0839 29.9129 35.0934 29.8879 35.111 29.8691C35.1286 29.8503 35.1529 29.8391 35.1787 29.838C35.1915 29.8374 35.2043 29.8394 35.2164 29.8439C35.2284 29.8483 35.2394 29.8551 35.2488 29.8639C35.2582 29.8727 35.2657 29.8832 35.271 29.895C35.2762 29.9067 35.279 29.9194 35.2793 29.9322C35.4677 35.8951 32.5644 58.3167 32.5344 58.5415C32.5318 58.5652 32.5205 58.587 32.5027 58.6028C32.4849 58.6186 32.4619 58.6273 32.4381 58.6271Z" fill="#231F20"/>
<path d="M23.3258 56.1069L23.3087 56.1069C23.296 56.1048 23.2838 56.1002 23.2728 56.0934C23.2619 56.0865 23.2525 56.0775 23.2451 56.0669C23.2377 56.0563 23.2325 56.0444 23.2298 56.0318C23.2271 56.0191 23.227 56.0061 23.2295 55.9934C25.4113 44.3373 33.1213 29.8721 33.1984 29.72C33.2109 29.697 33.232 29.6799 33.2571 29.6725C33.2822 29.6651 33.3092 29.6679 33.3322 29.6804C33.3552 29.6929 33.3723 29.714 33.3798 29.7391C33.3872 29.7642 33.3843 29.7912 33.3719 29.8142C33.2948 29.9577 25.5975 44.4037 23.4222 56.0298C23.4177 56.0519 23.4056 56.0717 23.388 56.0858C23.3704 56.0999 23.3484 56.1073 23.3258 56.1069Z" fill="#231F20"/>
<path d="M27.1135 27.5318C26.5225 27.4976 21.0327 27.1785 20.748 27.2942C20.4632 27.4098 17.3715 30.8805 17.4914 31.2124C17.6113 31.5442 20.0607 29.4331 20.0607 29.4331C20.1206 29.765 20.0907 30.8505 20.4525 30.9319C20.8144 31.0132 20.8807 29.7264 20.8807 29.7264C21.4246 29.3646 21.5231 28.521 21.5231 28.521C21.5231 28.521 26.4668 30.3281 28.2739 29.8464C28.7081 29.7025 29.0867 29.4272 29.3573 29.0584" fill="white"/>
<path d="M17.5449 31.3518C17.5322 31.3541 17.5191 31.3541 17.5064 31.3518C17.4813 31.3456 17.458 31.3333 17.4386 31.3162C17.4193 31.299 17.4043 31.2775 17.3951 31.2533C17.3672 31.1741 17.2923 30.9664 18.8938 29.1122C19.4869 28.4185 20.5103 27.288 20.7202 27.2023C21.0049 27.0889 25.3 27.3265 27.1328 27.4336C27.1469 27.4341 27.1608 27.4375 27.1736 27.4436C27.1865 27.4496 27.1979 27.4582 27.2073 27.4688C27.2167 27.4794 27.2239 27.4918 27.2284 27.5053C27.2328 27.5187 27.2346 27.5329 27.2334 27.5471C27.2326 27.5611 27.229 27.5749 27.2228 27.5876C27.2167 27.6002 27.2081 27.6116 27.1975 27.6209C27.187 27.6303 27.1747 27.6375 27.1614 27.642C27.1481 27.6466 27.134 27.6486 27.1199 27.6477C24.2401 27.4785 21.0328 27.3308 20.7994 27.4015C20.4975 27.5428 17.849 30.566 17.6242 31.1377C17.941 31.037 19.0373 30.1892 19.9965 29.3606C20.0111 29.3483 20.0287 29.34 20.0474 29.3366C20.0662 29.3333 20.0856 29.3349 20.1035 29.3413C20.1211 29.3477 20.1366 29.3586 20.1486 29.3729C20.1606 29.3871 20.1687 29.4043 20.1721 29.4227C20.187 29.5083 20.1977 29.6368 20.2085 29.7781C20.2341 30.1078 20.2855 30.7951 20.4847 30.8486L20.5168 30.8486C20.6645 30.7394 20.7566 30.1399 20.7737 29.7502C20.7747 29.7334 20.7794 29.7169 20.7876 29.7021C20.7957 29.6873 20.8071 29.6745 20.8208 29.6646C21.3154 29.337 21.4075 28.5448 21.4075 28.5362C21.4093 28.5202 21.4147 28.5048 21.4232 28.4911C21.4317 28.4774 21.4432 28.4658 21.4567 28.457C21.4713 28.4497 21.4875 28.4459 21.5038 28.4459C21.5202 28.4459 21.5363 28.4497 21.5509 28.457C21.6002 28.4742 26.4754 30.247 28.2376 29.7802C28.6501 29.6419 29.0093 29.3785 29.2653 29.0266C29.2833 29.0048 29.3091 28.991 29.3371 28.9882C29.3652 28.9854 29.3932 28.9938 29.4152 29.0116C29.4372 29.0292 29.4514 29.0549 29.4546 29.083C29.4578 29.1111 29.4498 29.1393 29.4323 29.1614C29.1488 29.5492 28.7502 29.8377 28.2932 29.9858C26.6125 30.4354 22.3902 28.9837 21.6002 28.7011C21.5334 29.135 21.3158 29.5315 20.9857 29.8209C20.9707 30.0735 20.9043 30.8358 20.6452 31.0285C20.6152 31.0515 20.5804 31.0676 20.5433 31.0753C20.5062 31.0831 20.4679 31.0825 20.4311 31.0734C20.0821 30.9857 20.0329 30.3348 19.9922 29.8145C19.9922 29.7652 19.9922 29.7181 19.9922 29.6732C19.2578 30.2534 17.9218 31.3518 17.5449 31.3518Z" fill="#231F20"/>
<path d="M41.8655 28.975C43.5784 29.1184 48.5693 26.8103 48.5693 26.8103C48.6592 27.1422 49.293 27.3841 49.4728 27.686C49.6527 27.9879 49.8647 28.5896 50.2565 28.5296C50.6483 28.4697 50.0424 27.2621 50.0424 27.2621C50.0424 27.2621 50.886 27.2942 51.0658 27.4762C51.2457 27.6582 51.8495 28.9535 52.2713 28.9535C52.6931 28.9535 52.0315 27.1743 51.6696 26.8424C51.3078 26.5106 49.3487 25.2751 48.9868 25.2152C48.6828 25.166 44.4648 25.9196 43.1074 26.1637" fill="white"/>
<path d="M42.0284 29.0885C41.9684 29.0885 41.9106 29.0885 41.8571 29.0885C41.8289 29.0858 41.8028 29.0722 41.7844 29.0506C41.7661 29.0291 41.7568 29.0012 41.7586 28.9729C41.7597 28.9588 41.7635 28.9451 41.7699 28.9325C41.7763 28.9199 41.7852 28.9087 41.7959 28.8996C41.8066 28.8904 41.8191 28.8835 41.8325 28.8792C41.846 28.8748 41.8601 28.8732 41.8742 28.8744C43.5464 29.0136 48.4752 26.7333 48.5244 26.7205C48.5385 26.714 48.5538 26.7107 48.5693 26.7107C48.5848 26.7107 48.6001 26.7141 48.6141 26.7206C48.6282 26.7272 48.6406 26.7366 48.6506 26.7484C48.6607 26.7602 48.668 26.7741 48.6722 26.789C48.7129 26.9367 48.9163 27.0823 49.1132 27.2172C49.2885 27.3253 49.4417 27.4655 49.565 27.6304C49.6014 27.6904 49.6378 27.7632 49.6785 27.8445C49.8219 28.1229 50.0039 28.4697 50.2416 28.4291C50.247 28.4288 50.2523 28.4271 50.2568 28.424C50.2614 28.421 50.265 28.4168 50.2673 28.4119C50.3465 28.2578 50.126 27.6668 49.9504 27.3178C49.941 27.3015 49.9361 27.2831 49.9361 27.2643C49.9361 27.2455 49.941 27.227 49.9504 27.2108C49.9608 27.1959 49.9746 27.1837 49.9906 27.1752C50.0066 27.1666 50.0243 27.1619 50.0425 27.1615C50.1924 27.1615 50.9396 27.2043 51.1409 27.4056C51.2424 27.5319 51.332 27.6674 51.4085 27.8103C51.6226 28.1743 52.0316 28.8508 52.2649 28.8508C52.2756 28.8508 52.2928 28.8144 52.2949 28.7374C52.2949 28.2792 51.8431 27.1572 51.5905 26.926C51.2115 26.5791 49.2824 25.378 48.9634 25.3245C48.7664 25.2945 46.5289 25.6585 43.1182 26.273C43.0904 26.278 43.0617 26.2718 43.0384 26.2557C43.0152 26.2397 42.9992 26.2151 42.994 26.1873C42.9915 26.1734 42.9919 26.1591 42.995 26.1453C42.998 26.1315 43.0038 26.1185 43.012 26.1069C43.0202 26.0954 43.0305 26.0856 43.0425 26.0781C43.0545 26.0705 43.0678 26.0655 43.0818 26.0631C45.1651 25.6799 48.7129 25.0504 49.019 25.1082C49.4044 25.1724 51.3742 26.4164 51.7575 26.7633C52.0851 27.063 52.6632 28.489 52.5005 28.9044C52.4871 28.9503 52.4588 28.9904 52.42 29.0183C52.3812 29.0463 52.3341 29.0604 52.2864 29.0585C51.9545 29.0585 51.6183 28.5404 51.2415 27.9152C51.1711 27.7881 51.0924 27.6658 51.006 27.5491C50.9182 27.4634 50.5456 27.4035 50.2309 27.3799C50.3679 27.6818 50.5949 28.2578 50.4686 28.504C50.4506 28.539 50.4246 28.5691 50.3925 28.5919C50.3604 28.6146 50.3234 28.6293 50.2844 28.6346C49.8926 28.6945 49.6656 28.2578 49.4986 27.9366C49.4622 27.8659 49.4258 27.7974 49.3916 27.7396C49.2823 27.6019 49.1497 27.4845 48.9998 27.3928C48.8151 27.2822 48.6536 27.1367 48.5244 26.9645C47.8072 27.2771 43.7584 29.0885 42.0284 29.0885Z" fill="#231F20"/>
<path d="M19.2834 43.2497C19.2706 43.2517 19.2576 43.2517 19.2448 43.2497C19.2211 43.2393 19.2024 43.22 19.1928 43.196C19.1832 43.1719 19.1834 43.1451 19.1934 43.1212C20.264 40.5519 23.3407 36.3125 23.3707 36.2697C23.3772 36.2571 23.3863 36.2461 23.3974 36.2374C23.4085 36.2286 23.4214 36.2224 23.4352 36.2191C23.4489 36.2157 23.4632 36.2154 23.4771 36.2181C23.491 36.2208 23.5041 36.2265 23.5156 36.2347C23.5271 36.243 23.5367 36.2536 23.5437 36.2659C23.5508 36.2781 23.5551 36.2918 23.5564 36.3059C23.5576 36.3199 23.5559 36.3341 23.5512 36.3475C23.5465 36.3608 23.539 36.373 23.5292 36.3832C23.4992 36.426 20.4417 40.6418 19.3733 43.194C19.3656 43.2112 19.3529 43.2257 19.3369 43.2356C19.3208 43.2456 19.3022 43.2505 19.2834 43.2497Z" fill="#231F20"/>
<path d="M35.0139 29.4825C34.2468 29.4839 33.4832 29.3802 32.7443 29.1741C32.7198 29.1663 32.6993 29.1491 32.6873 29.1262C32.6753 29.1034 32.6727 29.0768 32.6801 29.0521C32.6884 29.0274 32.7061 29.0069 32.7292 28.9949C32.7524 28.9829 32.7793 28.9804 32.8043 28.9879C32.8321 28.9879 35.789 29.9021 38.0286 28.5168C38.0507 28.5033 38.0774 28.4991 38.1026 28.5051C38.1279 28.5111 38.1497 28.5269 38.1635 28.5489C38.1701 28.5598 38.1745 28.5718 38.1765 28.5843C38.1785 28.5968 38.178 28.6096 38.175 28.622C38.172 28.6343 38.1666 28.6459 38.1591 28.6562C38.1516 28.6664 38.1422 28.6751 38.1313 28.6817C37.1865 29.2323 36.1072 29.5096 35.0139 29.4825Z" fill="#231F20"/>
<path d="M47.9291 27.8017L47.9034 27.8017C47.4624 27.7653 47.4303 26.9795 47.4495 26.517C47.4752 25.9625 47.6529 24.8213 48.0469 24.8213C48.3145 24.8213 48.4194 25.2131 48.4301 25.2495C48.4341 25.2739 48.4286 25.2989 48.415 25.3195C48.4014 25.34 48.3805 25.3548 48.3565 25.3607C48.3326 25.3666 48.3072 25.3633 48.2856 25.3514C48.2639 25.3396 48.2475 25.32 48.2396 25.2966C48.216 25.196 48.1325 25.0076 48.0469 25.0076C47.9313 25.0076 47.685 25.6499 47.6465 26.517C47.6187 27.1487 47.7279 27.5876 47.9184 27.6004C47.9363 27.6021 47.9544 27.5998 47.9714 27.5939C47.9884 27.588 48.0039 27.5786 48.0169 27.5662C48.1647 27.4398 48.231 27.0459 48.231 26.9067C48.2312 26.8938 48.2341 26.8812 48.2396 26.8695C48.245 26.8578 48.2528 26.8474 48.2625 26.8389C48.2721 26.8305 48.2835 26.8241 48.2958 26.8203C48.3081 26.8165 48.321 26.8153 48.3338 26.8168C48.3468 26.8173 48.3596 26.8205 48.3714 26.8261C48.3832 26.8317 48.3937 26.8397 48.4023 26.8495C48.4109 26.8593 48.4175 26.8708 48.4215 26.8832C48.4256 26.8956 48.427 26.9087 48.4259 26.9217C48.4259 26.9817 48.3745 27.5126 48.1368 27.716C48.0799 27.7683 48.0063 27.7987 47.9291 27.8017Z" fill="#231F20"/>
<path d="M31.4383 17.9099C31.4277 17.9119 31.4168 17.9119 31.4062 17.9099C31.3794 17.9015 31.3569 17.8829 31.3437 17.858C31.3304 17.8332 31.3275 17.8041 31.3356 17.7771L31.5775 16.9935C31.5816 16.9794 31.5884 16.9663 31.5975 16.9549C31.6067 16.9435 31.618 16.934 31.6308 16.9269C31.6436 16.9198 31.6577 16.9154 31.6723 16.9138C31.6868 16.9122 31.7016 16.9134 31.7156 16.9175C31.7297 16.9216 31.7428 16.9284 31.7542 16.9375C31.7657 16.9467 31.7752 16.958 31.7822 16.9708C31.7893 16.9836 31.7937 16.9977 31.7954 17.0123C31.797 17.0268 31.7957 17.0415 31.7916 17.0556L31.5518 17.8392C31.5434 17.8619 31.5277 17.8812 31.5072 17.894C31.4866 17.9067 31.4624 17.9124 31.4383 17.9099Z" fill="#231F20"/>
<path d="M31.4384 18.325C31.6619 18.325 31.8431 18.1438 31.8431 17.9203C31.8431 17.6968 31.6619 17.5156 31.4384 17.5156C31.2149 17.5156 31.0338 17.6968 31.0338 17.9203C31.0338 18.1438 31.2149 18.325 31.4384 18.325Z" fill="#C42847"/>
<path d="M22.2016 18.5628C22.1772 18.5629 22.1535 18.5547 22.1344 18.5395C22.1153 18.5243 22.102 18.5031 22.0967 18.4793C21.8461 17.4088 20.6814 17.2675 20.6707 17.2653C20.6472 17.2631 20.625 17.2531 20.6079 17.2367C20.5908 17.2204 20.5798 17.1988 20.5765 17.1754C20.5727 17.1517 20.577 17.1274 20.5886 17.1065C20.6003 17.0855 20.6186 17.0691 20.6407 17.0598C21.5721 16.6829 21.9425 15.561 21.9468 15.5482C21.9546 15.5256 21.9694 15.5062 21.989 15.4927C22.0087 15.4792 22.0322 15.4724 22.056 15.4732C22.0803 15.4753 22.1033 15.4855 22.1211 15.5022C22.139 15.5189 22.1507 15.5411 22.1545 15.5653C22.1934 15.8823 22.3463 16.1744 22.5846 16.3871C22.8229 16.5998 23.1304 16.7187 23.4498 16.7215C23.4782 16.7169 23.5073 16.7239 23.5305 16.7407C23.5538 16.7576 23.5695 16.783 23.574 16.8114C23.5786 16.8398 23.5716 16.8688 23.5548 16.8921C23.5379 16.9154 23.5125 16.931 23.4841 16.9356C22.5656 17.2418 22.3086 18.4686 22.3065 18.4815C22.3013 18.5051 22.2884 18.5264 22.2697 18.5419C22.2511 18.5574 22.2279 18.5662 22.2037 18.5671L22.2016 18.5628ZM20.9983 17.1283C21.2555 17.1971 21.4951 17.32 21.7012 17.4887C21.9072 17.6574 22.0748 17.8681 22.193 18.1068C22.3492 17.6132 22.6647 17.1855 23.0901 16.8906C22.845 16.8353 22.6181 16.7184 22.4307 16.5509C22.2434 16.3834 22.1019 16.171 22.0196 15.9335C21.8005 16.4213 21.446 16.836 20.9983 17.1283Z" fill="#D1D3D4"/>
<path d="M49.0918 21.6375C49.068 21.6376 49.0448 21.6296 49.0261 21.6148C49.0074 21.6 48.9944 21.5793 48.989 21.5561C48.9371 21.3705 48.8305 21.2049 48.6831 21.0808C48.5356 20.9566 48.3543 20.8798 48.1625 20.8602C48.1363 20.8602 48.1109 20.8506 48.0911 20.8333C48.0713 20.8161 48.0583 20.7922 48.0547 20.7662C48.0511 20.7402 48.0569 20.7137 48.0712 20.6916C48.0855 20.6696 48.1073 20.6534 48.1326 20.6461C48.6721 20.432 48.8905 19.7726 48.8927 19.7661C48.9022 19.7416 48.9202 19.7213 48.9433 19.7088C48.9664 19.6962 48.9932 19.6923 49.019 19.6976C49.043 19.7002 49.0654 19.7106 49.0828 19.7273C49.1003 19.7439 49.1117 19.7659 49.1153 19.7897C49.1367 19.9699 49.2231 20.1361 49.3583 20.2571C49.4935 20.3782 49.6683 20.4457 49.8497 20.447C49.8753 20.4471 49.9 20.4562 49.9195 20.4726C49.9391 20.489 49.9523 20.5118 49.9568 20.5369C49.9611 20.5623 49.9561 20.5885 49.9428 20.6105C49.9294 20.6325 49.9085 20.649 49.884 20.6568C49.3573 20.8324 49.2074 21.5454 49.2053 21.5518C49.2008 21.5758 49.1881 21.5975 49.1693 21.6132C49.1505 21.6288 49.1269 21.6374 49.1025 21.6375L49.0918 21.6375ZM48.4666 20.7168C48.7229 20.8049 48.9403 20.9798 49.0811 21.2114C49.1742 20.974 49.3268 20.7646 49.5243 20.6033C49.4062 20.5644 49.2972 20.502 49.2037 20.42C49.1103 20.3379 49.0343 20.2379 48.9804 20.1259C48.8563 20.3593 48.6805 20.5614 48.4666 20.7168Z" fill="#D1D3D4"/>
<path d="M44.2528 16.638C44.2288 16.6378 44.2055 16.6298 44.1866 16.6151C44.1676 16.6004 44.154 16.5798 44.1479 16.5566C43.9552 15.7195 43.0773 15.6145 43.0367 15.6103C43.0226 15.6121 43.0083 15.6111 42.9946 15.6074C42.981 15.6037 42.9681 15.5974 42.9569 15.5887C42.9342 15.5713 42.9194 15.5455 42.9157 15.5171C42.912 15.4887 42.9197 15.46 42.9372 15.4373C42.9547 15.4147 42.9804 15.3998 43.0088 15.3962C43.7347 15.1007 44.0259 14.2207 44.0301 14.2121C44.0311 14.1981 44.0349 14.1843 44.0412 14.1717C44.0474 14.1591 44.0562 14.1479 44.0668 14.1386C44.0774 14.1294 44.0898 14.1223 44.1031 14.1178C44.1165 14.1134 44.1306 14.1116 44.1447 14.1126C44.1587 14.1136 44.1725 14.1173 44.1851 14.1236C44.1977 14.1299 44.2089 14.1386 44.2182 14.1492C44.2274 14.1599 44.2345 14.1722 44.239 14.1856C44.2434 14.1989 44.2452 14.2131 44.2442 14.2271C44.2744 14.4736 44.393 14.7007 44.5782 14.8661C44.7633 15.0316 45.0023 15.1241 45.2506 15.1264C45.279 15.1221 45.3079 15.1293 45.331 15.1464C45.3541 15.1634 45.3694 15.189 45.3737 15.2174C45.3779 15.2458 45.3707 15.2747 45.3537 15.2978C45.3366 15.3209 45.3111 15.3362 45.2827 15.3405C44.5676 15.5781 44.3663 16.5395 44.3641 16.5481C44.3593 16.5719 44.3465 16.5933 44.3278 16.6089C44.3091 16.6245 44.2857 16.6332 44.2614 16.6337L44.2528 16.638ZM43.3514 15.4668C43.5405 15.5228 43.7167 15.6155 43.87 15.7397C44.0232 15.8639 44.1504 16.0171 44.2442 16.1905C44.3681 15.8309 44.598 15.5174 44.9037 15.2912C44.7246 15.2439 44.5592 15.1551 44.4208 15.032C44.2825 14.9089 44.175 14.7549 44.1072 14.5825C43.9377 14.9388 43.677 15.2439 43.3514 15.4668Z" fill="#D1D3D4"/>
<path d="M32.7744 27.6284C39.6388 27.6284 45.2034 28.1153 45.2034 28.716C45.2034 29.3167 39.6388 29.8037 32.7744 29.8037C25.91 29.8037 20.3453 29.3167 20.3453 28.716C20.3453 28.1153 25.91 27.6284 32.7744 27.6284Z" fill="#E6E7E8"/>
<path d="M38.5275 75.9424C38.8957 74.7498 40.0541 74.0154 40.8356 73.0434C41.9553 71.6538 42.2829 69.7589 42.1074 67.984C41.9318 66.209 41.3023 64.5154 40.6771 62.8453C40.084 61.2609 39.3925 59.5459 37.8937 58.728C36.8981 58.1756 35.7098 58.1285 34.5728 58.0857C33.3781 58.0514 32.1705 58.015 30.9994 58.2527C28.4001 58.7772 26.259 60.5629 24.3106 62.3593C23.6683 62.9502 23.0088 63.5947 22.7883 64.4383C22.5592 65.3226 22.8718 66.2796 23.4092 67.0205C23.9466 67.7613 24.6938 68.3222 25.4218 68.8704C26.1091 69.3842 26.8585 69.9923 26.9527 70.8445C27.0469 71.6966 26.4945 72.5359 26.8456 73.2832C27.1968 74.0304 28.2952 74.191 28.7726 74.8868C29.325 75.679 28.9482 76.6532 28.9268 77.5161C28.9024 78.4293 29.1735 79.3259 29.6997 80.0726C30.2457 80.8134 31.2756 81.2802 32.1149 80.899C32.2091 81.612 32.9135 82.128 33.6265 82.2051C34.3395 82.2822 35.0439 82.0103 35.6712 81.6591C36.5277 81.1774 37.7267 80.3745 38.157 79.4559C38.6795 78.3875 38.1849 77.0601 38.5275 75.9424Z" fill="#231F20"/>
<path d="M33.2904 57.9613C32.5186 57.9492 31.7475 58.0145 30.9887 58.1561C28.3231 58.6935 26.1113 60.5713 24.2486 62.2884C23.557 62.9308 22.9168 63.5731 22.6963 64.4295C22.4757 65.286 22.7113 66.243 23.3386 67.1016C23.8996 67.8745 24.6811 68.4591 25.3726 68.9751C26.0642 69.4911 26.7729 70.082 26.8714 70.8764C26.8877 71.2168 26.8509 71.5578 26.7622 71.887C26.6594 72.3773 26.5481 72.8826 26.7622 73.3493C26.9763 73.8161 27.4045 74.0366 27.8113 74.2721C28.1572 74.4365 28.4632 74.6739 28.7085 74.968C29.0853 75.5075 28.9997 76.1606 28.9226 76.7922C28.8857 77.037 28.8614 77.2836 28.8498 77.5309C28.8218 78.4687 29.0999 79.3901 29.642 80.1559C30.1601 80.8539 31.1643 81.3891 32.0636 81.068C32.237 81.7959 32.9864 82.2584 33.6437 82.3291C34.301 82.3997 34.9605 82.2156 35.7527 81.7702C36.6669 81.2585 37.8488 80.4513 38.2834 79.5221C38.5682 78.9119 38.5468 78.2374 38.5254 77.5673C38.4789 77.037 38.5186 76.5026 38.6431 75.985C38.8829 75.2099 39.4589 74.6404 40.0713 74.0388C40.3741 73.7493 40.6601 73.4426 40.9277 73.1202C41.964 71.8356 42.4265 70.0114 42.2124 67.9816C42.0325 66.1788 41.3945 64.4702 40.7757 62.8173C40.1333 61.0808 39.4204 59.4536 37.9516 58.6421C36.911 58.0662 35.6734 58.0298 34.5815 57.9998C34.1597 57.9741 33.725 57.9613 33.2904 57.9613ZM31.4897 80.9395C31.158 80.9216 30.8344 80.8297 30.5428 80.6703C30.2512 80.511 29.999 80.2884 29.8047 80.0188C29.2947 79.2895 29.0314 78.4162 29.0532 77.5266C29.0639 77.2864 29.0875 77.047 29.1238 76.8093C29.2116 76.137 29.3037 75.4433 28.8798 74.8331C28.6169 74.5132 28.2873 74.2545 27.9141 74.0752C27.5116 73.8461 27.1326 73.6298 26.9528 73.2465C26.7729 72.8633 26.8586 72.3901 26.9528 71.9212C27.0463 71.5725 27.0839 71.2112 27.0641 70.8507C26.9656 69.9707 26.2334 69.3519 25.4904 68.8016C24.8117 68.2942 24.043 67.7204 23.5013 66.9731C22.9147 66.1681 22.6941 65.2603 22.8975 64.4809C23.1009 63.7015 23.7197 63.0699 24.3963 62.4554C26.2376 60.7575 28.4216 58.9012 31.0337 58.3745C32.1985 58.139 33.4103 58.1754 34.5815 58.2096C35.652 58.2418 36.8596 58.2782 37.8531 58.8284C39.2598 59.6056 39.9471 61.1836 40.5808 62.8965C41.1953 64.5366 41.8291 66.2323 42.0047 68.0073C42.1995 69.9792 41.7563 71.7478 40.7585 72.9896C40.4929 73.3042 40.2106 73.6044 39.9128 73.8889C39.309 74.4841 38.6838 75.0986 38.4312 75.9229C38.2983 76.4632 38.2549 77.0215 38.3027 77.5758C38.3241 78.2417 38.3434 78.8605 38.0886 79.4322C37.6797 80.31 36.5363 81.0872 35.6478 81.5861C34.8962 82.0143 34.2496 82.1813 33.6672 82.1192C33.0506 82.0529 32.344 81.6054 32.252 80.9074C32.2499 80.8906 32.2438 80.8746 32.2341 80.8608C32.2243 80.847 32.2114 80.8358 32.1963 80.8282C32.1815 80.8203 32.1649 80.8162 32.1481 80.8162C32.1313 80.8162 32.1148 80.8203 32.1 80.8282C31.9069 80.9087 31.6988 80.9467 31.4897 80.9395Z" fill="#231F20"/>
<path d="M46.2763 65.0377C46.2226 65.3208 46.1854 65.6068 46.1649 65.8942C46.1649 66.0205 46.1521 66.1575 46.1521 66.2988C46.1371 66.2646 46.12 66.2325 46.105 66.1982C46.0022 65.7507 45.8909 65.3032 45.8031 64.8557L46.2763 65.0377Z" fill="white"/>
<path d="M45.8073 64.7486C45.782 64.7482 45.7575 64.7574 45.7387 64.7743C45.7236 64.7863 45.7122 64.8023 45.7058 64.8204C45.6994 64.8386 45.6982 64.8582 45.7023 64.877C45.7794 65.2475 45.8651 65.6243 45.9507 65.9883L46.0042 66.2217L46.0535 66.333C46.0643 66.3558 46.0823 66.3744 46.1048 66.386C46.1272 66.3976 46.1528 66.4015 46.1777 66.3972C46.201 66.3929 46.2221 66.3808 46.2377 66.3629C46.2532 66.345 46.2623 66.3224 46.2633 66.2987C46.2633 66.1617 46.2633 66.0268 46.2762 65.9026C46.2947 65.6194 46.3312 65.3376 46.3853 65.059C46.3896 65.0345 46.3854 65.0092 46.3733 64.9874C46.3612 64.9656 46.3421 64.9485 46.319 64.9391C46.1648 64.877 46.0064 64.815 45.8458 64.755C45.8334 64.7508 45.8204 64.7486 45.8073 64.7486ZM46.0856 65.6243C46.0406 65.4252 45.9957 65.2239 45.9528 65.0248L46.167 65.1061C46.1241 65.2624 46.1006 65.4337 46.0813 65.6328L46.0856 65.6243Z" fill="#231F20"/>
<path d="M43.5998 66.7503L42.692 66.5855C42.692 66.5855 40.1226 71.5293 39.0735 72.4028C38.3348 73.0152 36.6498 72.9467 35.7056 72.8524L35.2902 74.5653C35.2902 74.5653 36.4978 75.0899 36.4036 76.1198C36.2695 77.085 36.0757 78.0411 35.8233 78.9824C35.3078 78.7754 34.7411 78.7322 34.2002 78.8586C33.6593 78.985 33.1704 79.2749 32.8001 79.689C33.5966 77.6999 31.858 76.1305 31.858 76.1305L32.5924 72.5206C32.5924 72.5206 32.6074 72.4927 32.6352 72.4499C31.2178 72.2358 29.6377 71.9296 29.2095 71.5507C28.4558 70.8569 27.1583 65.2815 27.1583 65.2815L25.9529 65.3501C26.629 64.6284 27.1707 63.7916 27.5523 62.8792C27.7852 62.8783 28.0175 62.9056 28.2439 62.9606C30.0531 63.4423 31.0273 67.6325 31.0273 67.6325L37.5084 68.369C37.5084 68.369 40.1612 64.196 41.6985 63.8727C41.9411 63.8345 42.1882 63.8345 42.4307 63.8727C42.5956 64.8126 43.2872 65.8468 43.5998 66.7503Z" fill="white"/>
<path d="M27.5609 62.7811C27.5392 62.7812 27.5181 62.7878 27.5002 62.8C27.4822 62.8122 27.4684 62.8295 27.4603 62.8496C27.0844 63.7497 26.5499 64.575 25.8823 65.2862C25.8676 65.3016 25.858 65.3212 25.855 65.3423C25.8519 65.3634 25.8555 65.3849 25.8652 65.4039C25.8736 65.4237 25.8881 65.4404 25.9065 65.4515C25.925 65.4627 25.9465 65.4677 25.9679 65.466L27.0834 65.4018C27.259 66.1426 28.4195 70.9686 29.1453 71.6388C29.4879 71.9535 30.6098 72.2576 32.4811 72.5445L31.7532 76.1244C31.7489 76.1425 31.7497 76.1614 31.7553 76.1791C31.761 76.1969 31.7713 76.2127 31.7853 76.225C31.8024 76.24 33.4596 77.7687 32.7017 79.6658C32.6926 79.6894 32.6923 79.7155 32.7006 79.7394C32.709 79.7633 32.7256 79.7834 32.7474 79.7963C32.7692 79.8091 32.7949 79.8138 32.8198 79.8095C32.8448 79.8052 32.8674 79.7922 32.8837 79.7728C33.237 79.3726 33.7063 79.0924 34.2262 78.9711C34.7461 78.8499 35.2909 78.8936 35.7849 79.0962C35.7986 79.1026 35.8136 79.1058 35.8288 79.1058C35.8439 79.1058 35.8589 79.1026 35.8726 79.0962C35.886 79.0896 35.8979 79.0803 35.9075 79.0689C35.9171 79.0575 35.9242 79.0442 35.9283 79.0298C36.1823 78.083 36.3768 77.1212 36.5107 76.1501C36.5985 75.2059 35.6971 74.6706 35.4144 74.5271L35.7891 72.9791C36.7612 73.0712 38.397 73.114 39.1421 72.4974C40.1463 71.6666 42.4201 67.3459 42.7498 66.7164L43.5806 66.8663C43.5991 66.8696 43.6181 66.868 43.6358 66.8616C43.6534 66.8552 43.6691 66.8443 43.6812 66.8299C43.6931 66.8159 43.7012 66.7991 43.7046 66.7811C43.7079 66.763 43.7065 66.7444 43.7005 66.7271C43.5556 66.3356 43.3876 65.9531 43.1973 65.5816C42.9002 65.0431 42.6769 64.4669 42.5336 63.8688C42.53 63.8461 42.519 63.8252 42.5024 63.8093C42.4857 63.7935 42.4644 63.7835 42.4415 63.781C42.1876 63.7405 41.9289 63.7405 41.675 63.781C40.1912 64.1021 37.7889 67.7548 37.4528 68.2773L31.113 67.5557C30.9695 66.9712 30.0167 63.342 28.2803 62.8796C28.045 62.8212 27.8033 62.7924 27.5609 62.7939L27.5609 62.7811ZM26.2163 65.2369C26.8038 64.5701 27.2815 63.8141 27.6316 62.9973C27.8315 62.9996 28.0305 63.0248 28.2247 63.0723C29.9504 63.5326 30.9117 67.6242 30.9224 67.6649C30.9275 67.6865 30.939 67.7061 30.9554 67.721C30.9719 67.736 30.9925 67.7455 31.0145 67.7484L37.4956 68.485C37.5153 68.4874 37.5353 68.484 37.5532 68.4753C37.5711 68.4665 37.586 68.4528 37.5962 68.4357C37.6241 68.395 40.2426 64.297 41.72 63.978C41.9244 63.9477 42.1322 63.9477 42.3366 63.978C42.4893 64.5683 42.7136 65.1378 43.0046 65.6737C43.1652 66.0056 43.3172 66.316 43.4328 66.6222L42.7092 66.4916C42.6865 66.4875 42.6631 66.4907 42.6423 66.5007C42.6215 66.5107 42.6045 66.527 42.5935 66.5473C42.5678 66.5965 40.0242 71.4718 39.0029 72.3282C38.2942 72.9149 36.6477 72.8464 35.7163 72.7564C35.6904 72.7532 35.6642 72.7597 35.6428 72.7747C35.6214 72.7898 35.6064 72.8123 35.6007 72.8378L35.1725 74.5614C35.1674 74.5858 35.1708 74.6111 35.182 74.6333C35.1933 74.6555 35.2119 74.6732 35.2346 74.6834C35.2346 74.6834 36.3865 75.1802 36.2987 76.1244C36.171 77.0436 35.9858 77.9539 35.7442 78.85C35.2886 78.6867 34.7982 78.6456 34.3219 78.7309C33.8455 78.8161 33.3998 79.0248 33.0293 79.336C33.4425 77.6724 32.2264 76.3556 31.9737 76.103L32.6953 72.5659L32.7252 72.5188C32.7337 72.503 32.7381 72.4853 32.7381 72.4674C32.7381 72.4495 32.7337 72.4318 32.7252 72.416C32.7181 72.3994 32.7069 72.3848 32.6927 72.3736C32.6785 72.3624 32.6617 72.3549 32.6439 72.3518C30.263 71.9985 29.5007 71.6816 29.2824 71.4803C28.7043 70.9494 27.7086 67.1832 27.2633 65.2712C27.2586 65.2462 27.2449 65.2239 27.2247 65.2085C27.2046 65.1931 27.1794 65.1857 27.1541 65.1877L26.2163 65.2369Z" fill="#231F20"/>
<path d="M32.4361 76.3937C32.3137 76.5914 32.1276 76.7415 31.9085 76.8194C31.6894 76.8972 31.4503 76.8981 31.2307 76.8219C30.6954 76.6078 30.8581 75.9655 31.1322 75.6079C31.2158 75.4976 31.3205 75.405 31.4402 75.3355C31.5599 75.266 31.6922 75.221 31.8295 75.2031C31.9667 75.1852 32.1062 75.1947 32.2397 75.2311C32.3733 75.2675 32.4982 75.3301 32.6074 75.4152" fill="white"/>
<path d="M31.9631 75.0963C31.9146 75.093 31.8659 75.093 31.8175 75.0963C31.6662 75.1167 31.5205 75.1667 31.3886 75.2435C31.2567 75.3203 31.1412 75.4223 31.0488 75.5438C30.9416 75.6744 30.8636 75.8264 30.82 75.9896C30.7765 76.1528 30.7683 76.3235 30.7962 76.4901C30.8235 76.5875 30.8734 76.677 30.9419 76.7514C31.0103 76.8258 31.0954 76.883 31.1901 76.9184C31.4343 77.0068 31.7016 77.0077 31.9464 76.921C32.1913 76.8343 32.3984 76.6654 32.5326 76.443C32.5454 76.418 32.5479 76.3889 32.5395 76.3621C32.5311 76.3353 32.5125 76.3128 32.4876 76.2996C32.4753 76.2928 32.4617 76.2885 32.4477 76.287C32.4336 76.2855 32.4195 76.2868 32.4059 76.2907C32.3924 76.2947 32.3798 76.3013 32.3688 76.3102C32.3579 76.3191 32.3488 76.33 32.342 76.3424C32.2332 76.5181 32.0684 76.652 31.8743 76.7227C31.6801 76.7934 31.4678 76.7967 31.2715 76.7321C31.2066 76.7091 31.1482 76.6709 31.1012 76.6206C31.0543 76.5703 31.0201 76.5094 31.0017 76.443C30.9828 76.3081 30.9921 76.1707 31.029 76.0395C31.0658 75.9083 31.1294 75.7862 31.2158 75.6808C31.291 75.5821 31.385 75.4993 31.4923 75.4371C31.5997 75.375 31.7183 75.3346 31.8413 75.3185C31.9643 75.3024 32.0893 75.3108 32.209 75.3432C32.3288 75.3756 32.4409 75.4314 32.539 75.5074C32.5499 75.5163 32.5624 75.523 32.5759 75.527C32.5894 75.531 32.6036 75.5322 32.6176 75.5306C32.6316 75.529 32.6451 75.5246 32.6573 75.5177C32.6696 75.5107 32.6803 75.5014 32.6889 75.4903C32.6978 75.4794 32.7045 75.4668 32.7085 75.4533C32.7125 75.4398 32.7137 75.4257 32.7121 75.4117C32.7105 75.3977 32.7061 75.3842 32.6992 75.3719C32.6922 75.3597 32.6829 75.349 32.6718 75.3404C32.4689 75.183 32.2198 75.0972 31.9631 75.0963Z" fill="#231F20"/>
<path d="M34.2132 77.4326C34.2132 77.4326 35.1617 76.634 35.0546 76.4156C34.9476 76.1972 34.4723 76.1844 34.4723 76.1844" fill="white"/>
<path d="M34.4723 76.0772C34.4439 76.0772 34.4167 76.0885 34.3966 76.1085C34.3765 76.1286 34.3652 76.1558 34.3652 76.1842C34.3652 76.2126 34.3765 76.2399 34.3966 76.2599C34.4167 76.28 34.4439 76.2913 34.4723 76.2913C34.6072 76.2913 34.9005 76.3427 34.9626 76.4626C34.9626 76.5611 34.5879 76.9807 34.1468 77.3511C34.1362 77.3603 34.1274 77.3714 34.121 77.384C34.1146 77.3965 34.1108 77.4101 34.1097 77.4242C34.1086 77.4382 34.1103 77.4523 34.1146 77.4656C34.119 77.479 34.1259 77.4914 34.1351 77.5021C34.1442 77.5128 34.1554 77.5215 34.1679 77.5279C34.1804 77.5343 34.1941 77.5381 34.2081 77.5392C34.2221 77.5403 34.2362 77.5386 34.2496 77.5343C34.263 77.5299 34.2753 77.523 34.286 77.5139C34.7485 77.1242 35.2752 76.6103 35.1553 76.3684C35.0354 76.1264 34.5344 76.0793 34.4787 76.0772L34.4723 76.0772Z" fill="#231F20"/>
<path d="M35.2213 77.4775C35.3093 77.4886 35.3598 77.663 35.3341 77.8672C35.3085 78.0713 35.2164 78.2278 35.1284 78.2168C35.0404 78.2057 34.9898 78.0313 35.0155 77.8271C35.0411 77.623 35.1333 77.4664 35.2213 77.4775Z" fill="#231F20"/>
<path d="M33.4658 77.5171C33.5538 77.5281 33.6044 77.7026 33.5787 77.9067C33.5531 78.1109 33.4609 78.2674 33.373 78.2563C33.285 78.2453 33.2344 78.0708 33.2601 77.8667C33.2857 77.6625 33.3778 77.506 33.4658 77.5171Z" fill="#231F20"/>
<path d="M35.2901 74.5742C34.7324 74.3825 34.1242 74.3984 33.5773 74.6191C33.5773 74.6191 34.2453 73.3409 35.5407 73.5357L35.2901 74.5742Z" fill="#231F20"/>
<path d="M35.2815 73.4113C34.1017 73.4113 33.498 74.5568 33.4915 74.5697C33.4812 74.5883 33.4771 74.6098 33.4798 74.631C33.4825 74.6521 33.4919 74.6719 33.5065 74.6874C33.5204 74.7037 33.5388 74.7155 33.5594 74.7212C33.58 74.7269 33.6019 74.7263 33.6221 74.7195C34.1404 74.512 34.7156 74.4953 35.2451 74.6724C35.2596 74.6788 35.2753 74.682 35.2912 74.6817C35.307 74.6814 35.3226 74.6777 35.3369 74.6708C35.3512 74.6638 35.3637 74.6539 35.3738 74.6416C35.3838 74.6293 35.391 74.615 35.395 74.5996L35.6455 73.5548C35.6514 73.5254 35.646 73.4948 35.6305 73.4691C35.6216 73.4571 35.6104 73.4469 35.5975 73.4391C35.5847 73.4314 35.5704 73.4263 35.5555 73.4242C35.4646 73.4137 35.373 73.4094 35.2815 73.4113ZM33.832 74.4326C34.0029 74.1741 34.2379 73.9642 34.5141 73.8235C34.7903 73.6828 35.0982 73.616 35.4078 73.6297L35.213 74.4348C34.7615 74.308 34.2839 74.3073 33.832 74.4326Z" fill="#231F20"/>
<path d="M34.5535 75.4563C34.345 75.4413 34.1363 75.4832 33.9496 75.5775C33.763 75.6717 33.6054 75.8148 33.4937 75.9915C33.4789 76.0159 33.4744 76.0452 33.4813 76.0729C33.4881 76.1006 33.5057 76.1245 33.5301 76.1393C33.5545 76.154 33.5838 76.1585 33.6115 76.1517C33.6392 76.1448 33.663 76.1273 33.6778 76.1029C34.1531 75.3042 35.4849 75.8652 35.4977 75.8695C35.5106 75.8755 35.5246 75.8788 35.5388 75.8792C35.553 75.8796 35.5671 75.8771 35.5803 75.8719C35.5935 75.8667 35.6055 75.8589 35.6156 75.8489C35.6257 75.8389 35.6337 75.827 35.639 75.8138C35.6498 75.7879 35.65 75.7589 35.6396 75.7329C35.6292 75.7068 35.609 75.6859 35.5834 75.6746C35.2563 75.5397 34.9072 75.4657 34.5535 75.4563Z" fill="#231F20"/>
<path d="M27.2182 33.2616C27.2182 33.2616 26.8264 30.8807 26.3618 30.217C25.8972 29.5532 24.6146 28.29 23.891 28.8617C23.1673 29.4333 22.9874 31.1226 23.1972 31.9363C23.4071 32.7499 25.8201 35.7046 25.8201 35.7046L27.2182 33.2616Z" fill="#231F20"/>
<path d="M24.3298 28.6091C24.1502 28.6058 23.9752 28.6657 23.8352 28.7783C23.0859 29.3714 22.8782 31.0907 23.1051 31.9621C23.3192 32.7907 25.6487 35.6491 25.7472 35.7711C25.7583 35.7845 25.7725 35.795 25.7885 35.8018C25.8046 35.8085 25.822 35.8112 25.8393 35.8096C25.8567 35.8089 25.8736 35.8036 25.8883 35.7942C25.903 35.7848 25.9149 35.7716 25.9228 35.7561L27.3102 33.3153C27.3229 33.294 27.3274 33.2689 27.3231 33.2446C27.306 33.1461 26.9227 30.8316 26.4666 30.1571C26.0748 29.5855 25.2055 28.7312 24.4904 28.622C24.4373 28.6134 24.3836 28.6091 24.3298 28.6091ZM25.8158 35.5142C25.3618 34.9511 23.4905 32.6001 23.3128 31.9086C23.0987 31.1121 23.2935 29.4784 23.968 28.9453C24.0358 28.8929 24.1142 28.8558 24.1977 28.8365C24.2813 28.8173 24.368 28.8164 24.4519 28.834C25.0942 28.9324 25.9271 29.7525 26.2847 30.277C26.6893 30.8701 27.0533 32.9384 27.1047 33.2425L25.8158 35.5142Z" fill="#231F20"/>
<path d="M27.0534 33.5507C27.0534 33.5507 26.5545 31.1827 25.7109 30.9407C24.8673 30.6988 23.5805 30.9107 23.7711 31.8143C23.9616 32.7178 26.1263 35.4927 26.1263 35.4927L27.0534 33.5507Z" fill="white"/>
<path d="M25.0217 30.7331C24.6133 30.7083 24.2099 30.8331 23.8869 31.0842C23.7868 31.1772 23.7141 31.2958 23.6763 31.427C23.6386 31.5583 23.6374 31.6974 23.6728 31.8293C23.8676 32.7457 25.9552 35.4349 26.0451 35.5506C26.056 35.5648 26.0704 35.5761 26.0869 35.5832C26.1034 35.5903 26.1214 35.5931 26.1393 35.5912C26.1575 35.5894 26.1749 35.5829 26.1899 35.5724C26.2049 35.5619 26.217 35.5478 26.2249 35.5313L27.1563 33.5893C27.1638 33.5671 27.1638 33.543 27.1563 33.5208C27.1349 33.4223 26.6339 31.0864 25.7368 30.8294C25.504 30.7646 25.2633 30.7322 25.0217 30.7331ZM26.0922 35.2808C25.664 34.7112 24.0282 32.5423 23.8676 31.7844C23.8412 31.6881 23.8419 31.5864 23.8695 31.4905C23.897 31.3946 23.9505 31.3081 24.0239 31.2405C24.3708 30.9172 25.1351 30.8808 25.6725 31.0264C26.302 31.2063 26.7881 32.8549 26.9315 33.5208L26.0922 35.2808Z" fill="#231F20"/>
<path d="M35.6072 32.298C35.6072 32.206 35.5365 31.3924 35.7528 30.9406C35.969 30.4888 35.9219 28.4098 35.9219 28.4098L36.6306 28.4098C36.6306 28.4098 36.5107 30.3989 36.6306 30.5188C36.7505 30.6387 36.9239 30.8507 37.1252 30.3539C37.3265 29.8572 37.6562 28.4698 38.078 28.4098C38.4998 28.3499 41.4845 27.9816 41.3945 28.4098C41.3046 28.838 39.5853 29.7951 39.5853 29.7951C39.5853 29.7951 37.9559 29.4033 37.7161 31.0005C37.4763 32.5978 37.4442 32.7798 37.4442 32.7798L35.6072 32.298Z" fill="#231F20"/>
<path d="M40.5144 28.1018C39.6942 28.1237 38.8757 28.1909 38.0629 28.3031C37.701 28.3545 37.4612 29.0075 37.1829 29.8554C37.123 30.0416 37.0694 30.2001 37.0245 30.3136C36.9345 30.5405 36.8682 30.5598 36.8617 30.5619C36.8553 30.5641 36.7632 30.502 36.7247 30.4613L36.7076 30.4442C36.6605 30.3307 36.684 29.3201 36.7376 28.4165C36.7385 28.4018 36.7366 28.387 36.7318 28.3731C36.727 28.3591 36.7195 28.3462 36.7097 28.3352C36.6994 28.3248 36.687 28.3166 36.6734 28.3111C36.6598 28.3055 36.6452 28.3028 36.6305 28.3031L35.9218 28.3031C35.9074 28.3029 35.8932 28.3056 35.8799 28.3111C35.8667 28.3167 35.8547 28.3248 35.8447 28.3352C35.825 28.356 35.8142 28.3836 35.8147 28.4123C35.8276 28.9839 35.8147 30.5427 35.6563 30.8959C35.455 31.3242 35.4872 32.0136 35.4979 32.2427C35.4979 32.2684 35.4979 32.2876 35.4979 32.2984C35.498 32.3218 35.5058 32.3445 35.5201 32.3631C35.5344 32.3817 35.5544 32.395 35.5771 32.4011L37.4163 32.8829C37.4303 32.8872 37.445 32.8883 37.4595 32.8861C37.474 32.8839 37.4878 32.8784 37.4998 32.87C37.5251 32.8532 37.5428 32.827 37.549 32.7972C37.549 32.7972 37.579 32.6174 37.8188 31.018C37.8345 30.8336 37.8894 30.6548 37.9799 30.4934C38.0703 30.332 38.1943 30.1919 38.3434 30.0823C38.853 29.7376 39.551 29.8982 39.5574 29.9003C39.5835 29.9065 39.611 29.9027 39.6345 29.8896C39.9299 29.7248 41.4009 28.879 41.4972 28.4315C41.5036 28.4011 41.5024 28.3696 41.4938 28.3398C41.4853 28.3099 41.4695 28.2826 41.448 28.2602C41.3388 28.1425 40.9705 28.1018 40.5144 28.1018ZM36.8575 30.776L36.9046 30.776C37.0287 30.7503 37.1294 30.6304 37.2236 30.3971C37.2707 30.2793 37.3242 30.1144 37.3863 29.926C37.5426 29.4486 37.8359 28.5557 38.0929 28.5193C39.264 28.3523 41.1375 28.2238 41.2938 28.4123C41.2339 28.6456 40.2618 29.2944 39.5681 29.6862C39.1102 29.5904 38.633 29.6667 38.2278 29.9003C38.0534 30.0264 37.9079 30.1882 37.8012 30.3751C37.6945 30.562 37.6289 30.7695 37.609 30.9837C37.4527 32.0264 37.3949 32.4654 37.3585 32.6452L35.7098 32.217C35.6638 31.8028 35.7113 31.3835 35.849 30.9901C36.0481 30.5726 36.0374 28.9839 36.031 28.5193L36.517 28.5193C36.4421 29.804 36.4549 30.4977 36.5556 30.5962L36.5727 30.6155C36.6426 30.7045 36.745 30.7623 36.8575 30.776Z" fill="#231F20"/>
<path d="M39.5852 29.7952C39.299 30.3215 39.1441 30.9091 39.1335 31.5081L37.1251 32.0498C37.1251 32.0498 37.1251 29.3071 38.3541 29.549L39.5852 29.7952Z" fill="white"/>
<path d="M38.2042 29.4333C38.0267 29.4321 37.8548 29.4952 37.7203 29.611C37.0287 30.1827 37.0287 31.9791 37.0287 32.0561C37.0287 32.0726 37.0323 32.0888 37.0393 32.1036C37.0464 32.1184 37.0566 32.1315 37.0694 32.1418C37.0829 32.1513 37.0984 32.1578 37.1146 32.1608C37.1309 32.1637 37.1476 32.1631 37.1636 32.1589L39.172 31.6172C39.195 31.6103 39.2151 31.5961 39.2294 31.5768C39.2436 31.5575 39.2513 31.5342 39.2512 31.5102C39.2595 30.9301 39.4063 30.3605 39.6794 29.8487C39.6879 29.8339 39.6927 29.8173 39.6935 29.8002C39.6943 29.7832 39.691 29.7662 39.6838 29.7507C39.6767 29.7352 39.666 29.7216 39.6526 29.7111C39.6391 29.7006 39.6234 29.6934 39.6066 29.6902L38.3755 29.4483C38.3191 29.4371 38.2617 29.432 38.2042 29.4333ZM37.2429 31.9148C37.26 31.4866 37.3499 30.2019 37.8638 29.7737C37.9291 29.7183 38.0065 29.679 38.0898 29.6589C38.1731 29.6388 38.26 29.6386 38.3434 29.6581L39.4332 29.8722C39.1885 30.3575 39.0519 30.89 39.0328 31.4331L37.2429 31.9148Z" fill="#231F20"/>
<path d="M16.5664 40.1261C16.4209 40.4623 16.2667 40.8006 16.089 41.1388C15.7271 41.8304 15.0184 42.2544 14.4703 42.8175C13.9128 43.4166 13.5421 44.1653 13.4037 44.9719C13.2653 45.7785 13.3651 46.608 13.691 47.3587C13.9179 47.8597 14.2541 48.3436 14.2583 48.8918C14.2626 49.4399 13.9736 49.8745 13.7894 50.3605C13.6058 50.8523 13.485 51.3652 13.4297 51.8871C13.3227 52.8892 13.4512 53.9726 14.0143 54.8312C14.5453 55.6426 16.4808 57.6424 17.425 57.8608C18.4956 58.107 19.6282 57.7366 20.5103 57.09C21.3925 56.4434 22.0541 55.5463 22.6514 54.632C24.0772 52.4619 25.2279 50.123 26.0772 47.6692C27.0193 44.9457 27.576 41.9846 26.9186 39.1797C26.7045 38.2698 26.6339 37.0622 26.0622 36.3171C25.3792 35.435 24.193 34.9018 23.1032 34.8012C21.6044 34.662 20.1057 35.2401 18.9666 36.2036C17.6284 37.3341 17.1852 38.698 16.5664 40.1261Z" fill="#231F20"/>
<path d="M22.662 34.6725C21.2764 34.7002 19.9443 35.2132 18.898 36.122C17.714 37.1219 17.2215 38.2931 16.7012 39.5349L16.4743 40.0831C16.3009 40.4856 16.1553 40.796 16.0011 41.0894C15.7377 41.5211 15.3947 41.8989 14.9905 42.2027C14.7914 42.374 14.5858 42.5496 14.3996 42.7423C13.825 43.3559 13.443 44.1244 13.3007 44.9529C13.1583 45.7813 13.262 46.6333 13.5988 47.4035C13.6545 47.5276 13.7187 47.6497 13.7808 47.7717C13.992 48.1113 14.121 48.4955 14.1576 48.8937C14.1377 49.2552 14.0375 49.6077 13.8643 49.9257C13.8065 50.0563 13.7465 50.1869 13.6951 50.3218C13.508 50.8224 13.3849 51.3447 13.329 51.8762C13.2412 52.7005 13.2755 53.891 13.9307 54.8887C14.4531 55.6874 16.4122 57.7342 17.4078 57.9655C18.4034 58.1967 19.5746 57.912 20.5788 57.1754C21.4909 56.5053 22.1632 55.5867 22.7498 54.6896C24.1806 52.5128 25.3357 50.1668 26.1884 47.7054C27.3339 44.3909 27.6101 41.5947 27.0342 39.156C26.9785 38.9269 26.9357 38.6828 26.8886 38.4237C26.7537 37.6765 26.5995 36.8286 26.152 36.2505C25.4969 35.3941 24.3342 34.8074 23.1202 34.6939C22.9639 34.6811 22.8119 34.6725 22.662 34.6725ZM18.1122 57.8306C17.8888 57.8315 17.6661 57.8064 17.4485 57.7557C16.5706 57.5416 14.6651 55.6296 14.1019 54.771C13.4832 53.8268 13.4596 52.6877 13.5367 51.8998C13.5893 51.387 13.708 50.8832 13.89 50.401C13.9392 50.2704 13.997 50.1419 14.0527 50.0156C14.2399 49.6699 14.3468 49.2864 14.3653 48.8937C14.3282 48.4627 14.1911 48.0463 13.9649 47.6775C13.9028 47.5576 13.8429 47.4377 13.7872 47.3178C13.4673 46.5863 13.3689 45.777 13.504 44.9901C13.639 44.2031 14.0018 43.473 14.5473 42.89C14.7271 42.7059 14.9284 42.5325 15.1232 42.3633C15.5518 42.0434 15.9152 41.6444 16.1938 41.1879C16.3501 40.8903 16.4978 40.5755 16.6734 40.1687C16.7526 39.9846 16.8297 39.8004 16.9068 39.6163C17.4164 38.4002 17.8981 37.2611 19.0479 36.2848C20.2362 35.2806 21.7178 34.7753 23.1031 34.908C24.2614 35.0151 25.3662 35.5782 25.9872 36.3811C26.4025 36.9185 26.5438 37.7022 26.6809 38.4623C26.728 38.7235 26.7729 38.9718 26.8286 39.2052C27.3981 41.6032 27.1241 44.361 25.9914 47.6347C25.1406 50.0805 23.9899 52.4113 22.5657 54.574C21.9876 55.4518 21.3324 56.3532 20.446 57.002C19.7753 57.518 18.9582 57.8081 18.1122 57.8306Z" fill="#231F20"/>
<path d="M56.6988 56.8885C56.7777 56.5862 56.8059 56.2729 56.7823 55.9614C56.731 55.4775 56.4762 55.0386 56.3413 54.5697C55.8938 53.0131 56.8016 51.403 56.8594 49.7843C56.9536 47.1551 54.6584 44.8769 52.0976 44.2796C51.7626 44.1565 51.3977 44.1398 51.0529 44.2318C50.708 44.3238 50.3999 44.5199 50.1706 44.7934C48.355 46.5063 47.5714 49.0521 47.2802 51.5293C47.0896 53.1544 47.081 54.8223 47.4943 56.4067C47.9075 57.9911 48.7447 59.4985 50.0379 60.5026C50.448 60.8438 50.9306 61.0869 51.4489 61.2135C54.3094 61.8109 56.1678 59.2844 56.6988 56.8885Z" fill="#231F20"/>
<path d="M51.4363 44.0828C51.2991 44.0812 51.1623 44.0978 51.0295 44.132C50.6782 44.2474 50.3611 44.4482 50.1067 44.7165C48.5201 46.2153 47.5374 48.4977 47.182 51.5167C46.9678 53.4051 47.0299 55.0152 47.3961 56.4412C47.8393 58.169 48.7557 59.6528 49.9782 60.5949C50.4008 60.9472 50.8991 61.1971 51.4342 61.325C52.0746 61.4671 52.7408 61.4434 53.3695 61.256C53.9982 61.0687 54.5687 60.7239 55.0269 60.2545C55.9268 59.3344 56.5448 58.1762 56.8083 56.9165C56.888 56.6027 56.9169 56.2781 56.894 55.9552C56.8471 55.6442 56.7585 55.341 56.6306 55.0537C56.5642 54.8867 56.4979 54.7155 56.4486 54.5442C56.1831 53.6192 56.4079 52.6836 56.6456 51.6944C56.8168 51.0729 56.9258 50.4361 56.971 49.7931C57.0695 47.0097 54.5859 44.7529 52.1257 44.1791C51.9004 44.1207 51.6691 44.0884 51.4363 44.0828ZM52.2157 61.1858C51.966 61.1862 51.717 61.1604 51.4727 61.1088C50.9702 60.9858 50.5023 60.75 50.1046 60.4193C48.9205 59.4965 48.0298 58.0641 47.5995 56.3812C47.244 54.9874 47.1712 53.4051 47.3854 51.5424C47.7344 48.5748 48.6957 46.3309 50.2459 44.8707C50.4754 44.6287 50.7606 44.4464 51.0766 44.3397C51.4052 44.275 51.7445 44.2904 52.0658 44.3847C54.4403 44.9371 56.8383 47.106 56.7441 49.7802C56.6992 50.4087 56.5923 51.0312 56.4251 51.6387C56.1917 52.6129 55.9497 53.6192 56.2302 54.5977C56.2816 54.7797 56.3523 54.9574 56.4186 55.1287C56.5385 55.3985 56.6227 55.6828 56.6691 55.9744C56.689 56.2739 56.6608 56.5746 56.5856 56.8651C55.9198 59.9183 53.9799 61.1858 52.2157 61.1858Z" fill="#231F20"/>
<path d="M38.08 64.2241C37.9537 64.2241 38.7223 67.0075 38.6817 68.0781C38.641 69.1486 38.08 70.369 38.08 70.369C38.08 70.369 36.0995 70.5703 34.6371 70.369C33.1748 70.1678 32.8557 70.1678 32.252 69.4056C31.6482 68.6433 31.0337 67.6413 31.0337 67.6413L32.7829 63.7424C32.7829 63.7424 29.6163 61.7426 27.6079 60.4943C25.5996 59.2461 23.4499 56.5055 23.4499 56.5055C22.9275 56.8288 20.6836 63.342 20.1012 62.8859C19.5189 62.4299 17.5019 62.6547 16.2965 61.0874C15.0911 59.5201 13.815 56.5076 13.7443 54.5271C14.1725 55.0174 14.8149 55.7753 15.5557 55.4392C15.9197 55.2743 16.1252 54.8846 16.258 54.5057C16.9003 52.6729 16.4871 50.6624 16.1445 48.7504C16.0246 48.0674 15.9304 47.333 16.2173 46.7078C16.5042 46.0826 17.1273 45.6972 17.3242 45.0613C17.5212 44.4254 17.2215 43.7039 17.0673 43.0273C16.9257 42.3785 16.9277 41.7065 17.073 41.0586C17.2184 40.4106 17.5036 39.8022 17.9088 39.2761C18.9793 37.9036 20.6922 37.2356 21.8783 35.9809C22.5849 35.2358 23.163 34.4158 23.9466 33.7413C26.1605 31.8272 29.0532 31.0992 31.7488 32.4931C31.7488 32.4931 38.4419 28.6948 43.2036 34.4822C43.2036 34.4822 47.3038 33.8184 49.841 36.2914C52.3782 38.7644 52.4104 39.9077 52.4104 39.9077C52.4104 39.9077 54.5943 41.657 54.7656 43.8858C54.9369 46.1147 53.5601 45.8771 53.862 47.5043C54.1639 49.1315 55.1595 51.0007 54.7827 52.8699C54.4059 54.7391 52.7465 54.7391 52.3997 56.1843C52.0528 57.6295 51.631 60.5864 52.7765 61.0681C53.922 61.5499 55.4893 59.6807 55.4893 59.6807C55.4893 59.6807 51.7231 65.0334 50.6996 65.2475C49.6762 65.4617 44.9379 58.8243 44.9379 58.8243C44.9379 58.8243 41.5764 63.9436 38.08 64.2241Z" fill="#C42847"/>
<path d="M53.0699 47.2474C53.0536 47.2474 53.0377 47.2515 53.0234 47.2594C53.0092 47.2673 52.9972 47.2786 52.9885 47.2923C50.0895 51.8336 45.5525 58.6401 44.9337 58.7429C44.9102 58.7497 44.89 58.7651 44.8772 58.7859C44.8643 58.8068 44.8597 58.8317 44.8643 58.8558C44.8688 58.8799 44.8822 58.9014 44.9018 58.9162C44.9213 58.931 44.9457 58.9379 44.9701 58.9356C45.8694 58.7729 52.4104 48.562 53.1534 47.3973C53.1666 47.3752 53.1708 47.3489 53.1652 47.3238C53.1596 47.2988 53.1447 47.2768 53.1234 47.2624C53.1074 47.2522 53.0888 47.247 53.0699 47.2474Z" fill="#231F20"/>
<path d="M52.0164 41.2242C51.998 41.2244 51.9801 41.2297 51.9646 41.2395C51.949 41.2493 51.9366 41.2633 51.9286 41.2799C51.8687 41.4062 45.8415 53.846 42.1459 58.7876C41.0369 60.3035 39.7874 61.7114 38.414 62.9927C38.4045 63.0012 38.3966 63.0114 38.391 63.0228C38.3854 63.0343 38.3821 63.0467 38.3814 63.0595C38.3806 63.0722 38.3823 63.0849 38.3864 63.097C38.3905 63.1091 38.397 63.1202 38.4054 63.1297C38.4139 63.1393 38.4241 63.1471 38.4356 63.1527C38.447 63.1583 38.4595 63.1616 38.4722 63.1624C38.4849 63.1632 38.4977 63.1615 38.5097 63.1574C38.5218 63.1532 38.5329 63.1467 38.5425 63.1383C39.9267 61.8486 41.1856 60.4306 42.3022 58.9032C46.0085 53.9466 52.0442 41.4918 52.1042 41.3655C52.1114 41.3506 52.1147 41.334 52.1138 41.3175C52.113 41.3009 52.1079 41.2848 52.0991 41.2707C52.0904 41.2566 52.0782 41.245 52.0637 41.2368C52.0493 41.2287 52.033 41.2244 52.0164 41.2242Z" fill="#231F20"/>
<path d="M43.5057 36.7174C43.4827 36.7175 43.4604 36.7257 43.4428 36.7406C43.4252 36.7555 43.4134 36.776 43.4093 36.7987C43.3665 37.0128 39.1978 59.4173 36.7463 63.0036C36.7389 63.0143 36.7338 63.0263 36.7311 63.039C36.7285 63.0516 36.7283 63.0647 36.7307 63.0774C36.7331 63.0902 36.738 63.1023 36.745 63.1131C36.7521 63.124 36.7613 63.1333 36.772 63.1406C36.7825 63.1479 36.7943 63.153 36.8068 63.1556C36.8193 63.1583 36.8322 63.1584 36.8448 63.156C36.8573 63.1536 36.8693 63.1488 36.8799 63.1417C36.8906 63.1346 36.8997 63.1255 36.9068 63.1149C39.3841 59.4943 43.4308 37.7558 43.602 36.833C43.6064 36.8075 43.6006 36.7812 43.5857 36.76C43.5709 36.7387 43.5483 36.7242 43.5228 36.7195L43.5057 36.7174Z" fill="#231F20"/>
<path d="M32.4381 34.1976L32.4252 34.1976C32.4125 34.1991 32.4003 34.2032 32.3892 34.2096C32.3781 34.216 32.3683 34.2245 32.3606 34.2346C32.3528 34.2448 32.3471 34.2564 32.3439 34.2688C32.3407 34.2812 32.3399 34.2941 32.3417 34.3068C32.3717 34.5337 35.2707 56.9403 35.0845 62.8861C35.0839 62.9119 35.0934 62.9368 35.111 62.9556C35.1286 62.9744 35.1529 62.9856 35.1787 62.9867C35.1915 62.9873 35.2043 62.9853 35.2164 62.9808C35.2284 62.9764 35.2394 62.9696 35.2488 62.9608C35.2582 62.952 35.2657 62.9415 35.271 62.9297C35.2762 62.918 35.279 62.9054 35.2793 62.8925C35.4677 56.9296 32.5644 34.508 32.5344 34.2832C32.5318 34.2596 32.5205 34.2377 32.5027 34.2219C32.4849 34.2061 32.4619 34.1974 32.4381 34.1976Z" fill="#231F20"/>
<path d="M23.3258 36.7173L23.3087 36.7173C23.296 36.7194 23.2838 36.724 23.2728 36.7309C23.2619 36.7377 23.2525 36.7467 23.2451 36.7573C23.2377 36.7679 23.2325 36.7798 23.2298 36.7925C23.2271 36.8051 23.227 36.8181 23.2295 36.8308C25.4113 48.4869 33.1213 62.9522 33.1984 63.1042C33.2109 63.1272 33.232 63.1443 33.2571 63.1517C33.2822 63.1591 33.3092 63.1563 33.3322 63.1438C33.3552 63.1313 33.3723 63.1102 33.3798 63.0851C33.3872 63.06 33.3843 63.033 33.3719 63.01C33.2948 62.8665 25.5975 48.4206 23.4222 36.7944C23.4177 36.7723 23.4056 36.7525 23.388 36.7384C23.3704 36.7243 23.3484 36.7169 23.3258 36.7173Z" fill="#231F20"/>
<path d="M27.1135 65.2924C26.5225 65.3267 21.0327 65.6457 20.748 65.5301C20.4632 65.4144 17.3715 61.9437 17.4914 61.6119C17.6113 61.28 20.0607 63.3911 20.0607 63.3911C20.1206 63.0592 20.0907 61.9737 20.4525 61.8923C20.8144 61.811 20.8807 63.0978 20.8807 63.0978C21.4246 63.4596 21.5231 64.3032 21.5231 64.3032C21.5231 64.3032 26.4668 62.4961 28.2739 62.9779C28.7081 63.1217 29.0867 63.3971 29.3573 63.7658" fill="white"/>
<path d="M17.5449 61.4729C17.5322 61.4706 17.5191 61.4706 17.5064 61.4729C17.4813 61.4792 17.458 61.4914 17.4386 61.5085C17.4193 61.5257 17.4043 61.5472 17.3951 61.5714C17.3672 61.6506 17.2923 61.8583 18.8938 63.7125C19.4869 64.4062 20.5103 65.5367 20.7202 65.6224C21.0049 65.7358 25.3 65.4982 27.1328 65.3911C27.1469 65.3906 27.1608 65.3872 27.1736 65.3811C27.1865 65.3751 27.1979 65.3665 27.2073 65.3559C27.2167 65.3453 27.2239 65.3329 27.2284 65.3194C27.2328 65.306 27.2346 65.2918 27.2334 65.2776C27.2326 65.2636 27.229 65.2498 27.2228 65.2371C27.2167 65.2245 27.2081 65.2131 27.1975 65.2038C27.187 65.1944 27.1747 65.1872 27.1614 65.1827C27.1481 65.1781 27.134 65.1762 27.1199 65.177C24.2401 65.3462 21.0328 65.4939 20.7994 65.4232C20.4975 65.2819 17.849 62.2587 17.6242 61.687C17.941 61.7877 19.0373 62.6355 19.9965 63.4641C20.0111 63.4764 20.0287 63.4847 20.0474 63.4881C20.0662 63.4914 20.0856 63.4898 20.1035 63.4834C20.1211 63.477 20.1366 63.4661 20.1486 63.4518C20.1606 63.4376 20.1687 63.4204 20.1721 63.4021C20.187 63.3164 20.1977 63.1879 20.2085 63.0466C20.2341 62.7169 20.2855 62.0296 20.4847 61.9761L20.5168 61.9761C20.6645 62.0853 20.7566 62.6848 20.7737 63.0745C20.7747 63.0913 20.7794 63.1078 20.7876 63.1226C20.7957 63.1374 20.8071 63.1502 20.8208 63.1601C21.3154 63.4877 21.4075 64.2799 21.4075 64.2885C21.4093 64.3045 21.4147 64.3199 21.4232 64.3336C21.4317 64.3473 21.4432 64.3589 21.4567 64.3677C21.4713 64.375 21.4875 64.3789 21.5038 64.3789C21.5202 64.3789 21.5363 64.375 21.5509 64.3677C21.6002 64.3506 26.4754 62.5777 28.2376 63.0445C28.6501 63.1828 29.0093 63.4463 29.2653 63.7982C29.2833 63.8199 29.3091 63.8337 29.3371 63.8365C29.3652 63.8393 29.3932 63.8309 29.4152 63.8131C29.4372 63.7955 29.4514 63.7698 29.4546 63.7417C29.4578 63.7137 29.4498 63.6855 29.4323 63.6633C29.1488 63.2755 28.7502 62.987 28.2932 62.8389C26.6125 62.3893 22.3902 63.841 21.6002 64.1236C21.5334 63.6897 21.3158 63.2932 20.9857 63.0038C20.9707 62.7512 20.9043 61.9889 20.6452 61.7962C20.6152 61.7732 20.5804 61.7572 20.5433 61.7494C20.5062 61.7416 20.4679 61.7422 20.4311 61.7513C20.0821 61.8391 20.0329 62.4899 19.9922 63.0102C19.9922 63.0595 19.9922 63.1066 19.9922 63.1515C19.2578 62.5713 17.9218 61.4729 17.5449 61.4729Z" fill="#231F20"/>
<path d="M41.8655 63.8493C43.5784 63.7058 48.5693 66.0139 48.5693 66.0139C48.6592 65.682 49.293 65.4401 49.4728 65.1382C49.6527 64.8363 49.8647 64.2347 50.2565 64.2946C50.6483 64.3546 50.0424 65.5621 50.0424 65.5621C50.0424 65.5621 50.886 65.53 51.0658 65.348C51.2457 65.166 51.8495 63.8707 52.2713 63.8707C52.6931 63.8707 52.0315 65.6499 51.6696 65.9818C51.3078 66.3137 49.3487 67.5491 48.9868 67.609C48.6828 67.6583 44.4648 66.9046 43.1074 66.6605" fill="white"/>
<path d="M42.0284 63.7357C41.9684 63.7357 41.9106 63.7357 41.8571 63.7357C41.8289 63.7384 41.8028 63.752 41.7844 63.7736C41.7661 63.7952 41.7568 63.823 41.7586 63.8513C41.7597 63.8654 41.7635 63.8791 41.7699 63.8917C41.7763 63.9043 41.7852 63.9155 41.7959 63.9246C41.8066 63.9338 41.8191 63.9407 41.8325 63.945C41.846 63.9494 41.8601 63.951 41.8742 63.9498C43.5464 63.8106 48.4752 66.0909 48.5244 66.1038C48.5385 66.1102 48.5538 66.1135 48.5693 66.1135C48.5848 66.1135 48.6001 66.1101 48.6141 66.1036C48.6282 66.0971 48.6406 66.0876 48.6506 66.0758C48.6607 66.064 48.668 66.0502 48.6722 66.0352C48.7129 65.8875 48.9163 65.7419 49.1132 65.607C49.2885 65.4989 49.4417 65.3587 49.565 65.1938C49.6014 65.1338 49.6378 65.061 49.6785 64.9797C49.8219 64.7013 50.0039 64.3545 50.2416 64.3952C50.247 64.3954 50.2523 64.3972 50.2568 64.4002C50.2614 64.4032 50.265 64.4074 50.2673 64.4123C50.3465 64.5665 50.126 65.1574 49.9504 65.5064C49.941 65.5227 49.9361 65.5411 49.9361 65.5599C49.9361 65.5787 49.941 65.5972 49.9504 65.6135C49.9608 65.6283 49.9746 65.6405 49.9906 65.6491C50.0066 65.6576 50.0243 65.6623 50.0425 65.6627C50.1924 65.6627 50.9396 65.6199 51.1409 65.4186C51.2424 65.2923 51.332 65.1568 51.4085 65.0139C51.6226 64.65 52.0316 63.9734 52.2649 63.9734C52.2756 63.9734 52.2928 64.0098 52.2949 64.0869C52.2949 64.545 51.8431 65.667 51.5905 65.8982C51.2115 66.2451 49.2824 67.4462 48.9634 67.4998C48.7664 67.5297 46.5289 67.1657 43.1182 66.5513C43.0904 66.5462 43.0617 66.5524 43.0384 66.5685C43.0152 66.5845 42.9992 66.6091 42.994 66.6369C42.9915 66.6508 42.9919 66.6651 42.995 66.6789C42.998 66.6927 43.0038 66.7057 43.012 66.7173C43.0202 66.7288 43.0305 66.7386 43.0425 66.7462C43.0545 66.7537 43.0678 66.7587 43.0818 66.7611C45.1651 67.1443 48.7129 67.7738 49.019 67.716C49.4044 67.6518 51.3742 66.4078 51.7575 66.0609C52.0851 65.7612 52.6632 64.3352 52.5005 63.9198C52.4871 63.8739 52.4588 63.8338 52.42 63.8059C52.3812 63.7779 52.3341 63.7638 52.2864 63.7657C51.9545 63.7657 51.6183 64.2838 51.2415 64.909C51.1711 65.0361 51.0924 65.1584 51.006 65.2752C50.9182 65.3608 50.5456 65.4208 50.2309 65.4443C50.3679 65.1424 50.5949 64.5665 50.4686 64.3202C50.4506 64.2852 50.4246 64.2551 50.3925 64.2324C50.3604 64.2096 50.3234 64.195 50.2844 64.1896C49.8926 64.1297 49.6656 64.5665 49.4986 64.8876C49.4622 64.9583 49.4258 65.0268 49.3916 65.0846C49.2823 65.2223 49.1497 65.3397 48.9998 65.4315C48.8151 65.5421 48.6536 65.6875 48.5244 65.8597C47.8072 65.5471 43.7584 63.7357 42.0284 63.7357Z" fill="#231F20"/>
<path d="M19.2834 49.5745C19.2706 49.5725 19.2576 49.5725 19.2448 49.5745C19.2211 49.5849 19.2024 49.6042 19.1928 49.6282C19.1832 49.6523 19.1834 49.6791 19.1934 49.703C20.264 52.2723 23.3407 56.5117 23.3707 56.5545C23.3772 56.5671 23.3863 56.5781 23.3974 56.5869C23.4085 56.5956 23.4214 56.6018 23.4352 56.6052C23.4489 56.6085 23.4632 56.6088 23.4771 56.6061C23.491 56.6034 23.5041 56.5977 23.5156 56.5895C23.5271 56.5813 23.5367 56.5706 23.5437 56.5584C23.5508 56.5461 23.5551 56.5324 23.5564 56.5184C23.5576 56.5043 23.5559 56.4901 23.5512 56.4767C23.5465 56.4634 23.539 56.4512 23.5292 56.441C23.4992 56.3982 20.4417 52.1824 19.3733 49.6302C19.3656 49.613 19.3529 49.5985 19.3369 49.5886C19.3208 49.5786 19.3022 49.5738 19.2834 49.5745Z" fill="#231F20"/>
<path d="M35.0139 63.3418C34.2468 63.3403 33.4832 63.4441 32.7443 63.6501C32.7198 63.658 32.6993 63.6752 32.6873 63.698C32.6753 63.7208 32.6727 63.7474 32.6801 63.7721C32.6884 63.7968 32.7061 63.8173 32.7292 63.8293C32.7524 63.8413 32.7793 63.8438 32.8043 63.8364C32.8321 63.8364 35.789 62.9221 38.0286 64.3074C38.0507 64.3209 38.0774 64.3251 38.1026 64.3191C38.1279 64.3131 38.1497 64.2973 38.1635 64.2753C38.1701 64.2645 38.1745 64.2524 38.1765 64.2399C38.1785 64.2274 38.178 64.2146 38.175 64.2022C38.172 64.1899 38.1666 64.1783 38.1591 64.168C38.1516 64.1578 38.1422 64.1491 38.1313 64.1425C37.1865 63.5919 36.1072 63.3147 35.0139 63.3418Z" fill="#231F20"/>
<path d="M47.9291 65.0225L47.9034 65.0225C47.4624 65.0589 47.4303 65.8447 47.4495 66.3072C47.4752 66.8617 47.6529 68.0029 48.0469 68.0029C48.3145 68.0029 48.4194 67.6111 48.4301 67.5747C48.4341 67.5503 48.4286 67.5254 48.415 67.5048C48.4014 67.4842 48.3805 67.4695 48.3565 67.4635C48.3326 67.4576 48.3072 67.4609 48.2856 67.4728C48.2639 67.4846 48.2475 67.5042 48.2396 67.5276C48.216 67.6282 48.1325 67.8167 48.0469 67.8167C47.9313 67.8167 47.685 67.1743 47.6465 66.3072C47.6187 65.6756 47.7279 65.2366 47.9184 65.2238C47.9363 65.2222 47.9544 65.2244 47.9714 65.2303C47.9884 65.2362 48.0039 65.2457 48.0169 65.258C48.1647 65.3844 48.231 65.7783 48.231 65.9175C48.2312 65.9304 48.2341 65.943 48.2396 65.9547C48.245 65.9664 48.2528 65.9768 48.2625 65.9853C48.2721 65.9937 48.2835 66.0001 48.2958 66.0039C48.3081 66.0077 48.321 66.0089 48.3338 66.0074C48.3468 66.0069 48.3596 66.0037 48.3714 65.9981C48.3832 65.9925 48.3937 65.9845 48.4023 65.9747C48.4109 65.9649 48.4175 65.9534 48.4215 65.941C48.4256 65.9286 48.427 65.9155 48.4259 65.9025C48.4259 65.8426 48.3745 65.3116 48.1368 65.1082C48.0799 65.0559 48.0063 65.0255 47.9291 65.0225Z" fill="#231F20"/>
<path d="M31.4383 74.9143C31.4277 74.9123 31.4168 74.9123 31.4062 74.9143C31.3794 74.9227 31.3569 74.9414 31.3437 74.9662C31.3304 74.991 31.3275 75.0201 31.3356 75.0471L31.5775 75.8307C31.5816 75.8448 31.5884 75.8579 31.5975 75.8693C31.6067 75.8807 31.618 75.8903 31.6308 75.8973C31.6436 75.9044 31.6577 75.9088 31.6723 75.9105C31.6868 75.9121 31.7016 75.9108 31.7156 75.9067C31.7297 75.9026 31.7428 75.8958 31.7542 75.8867C31.7657 75.8775 31.7752 75.8662 31.7822 75.8534C31.7893 75.8406 31.7937 75.8265 31.7954 75.812C31.797 75.7974 31.7957 75.7827 31.7916 75.7686L31.5518 74.985C31.5434 74.9623 31.5277 74.943 31.5072 74.9303C31.4866 74.9175 31.4624 74.9119 31.4383 74.9143Z" fill="#231F20"/>
<path d="M31.4384 74.4993C31.6619 74.4993 31.8431 74.6804 31.8431 74.9039C31.8431 75.1274 31.6619 75.3086 31.4384 75.3086C31.2149 75.3086 31.0338 75.1274 31.0338 74.9039C31.0338 74.6804 31.2149 74.4993 31.4384 74.4993Z" fill="#C42847"/>
<path d="M22.2016 74.2614C22.1772 74.2613 22.1535 74.2695 22.1344 74.2847C22.1153 74.2999 22.102 74.3211 22.0967 74.3449C21.8461 75.4155 20.6814 75.5568 20.6707 75.5589C20.6472 75.5611 20.625 75.5712 20.6079 75.5875C20.5908 75.6038 20.5798 75.6254 20.5765 75.6488C20.5727 75.6725 20.577 75.6968 20.5886 75.7177C20.6003 75.7387 20.6186 75.7552 20.6407 75.7645C21.5721 76.1413 21.9425 77.2632 21.9468 77.2761C21.9546 77.2986 21.9694 77.318 21.989 77.3315C22.0087 77.345 22.0322 77.3519 22.056 77.351C22.0803 77.3489 22.1033 77.3387 22.1211 77.322C22.139 77.3053 22.1507 77.2831 22.1545 77.2589C22.1934 76.9419 22.3463 76.6498 22.5846 76.4371C22.8229 76.2244 23.1304 76.1056 23.4498 76.1027C23.4782 76.1073 23.5073 76.1004 23.5305 76.0835C23.5538 76.0666 23.5695 76.0412 23.574 76.0128C23.5786 75.9844 23.5716 75.9554 23.5548 75.9321C23.5379 75.9088 23.5125 75.8932 23.4841 75.8886C22.5656 75.5825 22.3086 74.3556 22.3065 74.3428C22.3013 74.3191 22.2884 74.2979 22.2697 74.2824C22.2511 74.2669 22.2279 74.258 22.2037 74.2571L22.2016 74.2614ZM20.9983 75.6959C21.2555 75.6271 21.4951 75.5042 21.7012 75.3355C21.9072 75.1668 22.0748 74.9561 22.193 74.7175C22.3492 75.211 22.6647 75.6387 23.0901 75.9336C22.845 75.9889 22.6181 76.1058 22.4307 76.2733C22.2434 76.4408 22.1019 76.6533 22.0196 76.8907C21.8005 76.4029 21.446 75.9883 20.9983 75.6959Z" fill="#D1D3D4"/>
<path d="M49.0917 71.1868C49.0679 71.1866 49.0448 71.1946 49.0261 71.2094C49.0074 71.2242 48.9943 71.2449 48.989 71.2681C48.9371 71.4537 48.8304 71.6193 48.683 71.7435C48.5356 71.8676 48.3542 71.9444 48.1625 71.964C48.1362 71.964 48.1109 71.9736 48.091 71.9909C48.0712 72.0082 48.0583 72.032 48.0547 72.058C48.051 72.0841 48.0569 72.1105 48.0712 72.1326C48.0855 72.1546 48.1073 72.1708 48.1325 72.1781C48.6721 72.3922 48.8905 73.0516 48.8926 73.0581C48.9022 73.0826 48.9201 73.1029 48.9433 73.1154C48.9664 73.128 48.9932 73.1319 49.019 73.1266C49.0429 73.124 49.0654 73.1136 49.0828 73.097C49.1002 73.0803 49.1117 73.0583 49.1153 73.0345C49.1367 72.8543 49.2231 72.6881 49.3583 72.5671C49.4935 72.4461 49.6682 72.3785 49.8497 72.3772C49.8752 72.3771 49.8999 72.368 49.9195 72.3516C49.9391 72.3352 49.9522 72.3124 49.9568 72.2873C49.9611 72.2619 49.9561 72.2358 49.9427 72.2137C49.9294 72.1917 49.9085 72.1753 49.884 72.1674C49.3572 71.9918 49.2074 71.2788 49.2052 71.2724C49.2007 71.2484 49.188 71.2267 49.1693 71.2111C49.1505 71.1954 49.1269 71.1868 49.1025 71.1868L49.0917 71.1868ZM48.4666 72.1074C48.7229 72.0194 48.9402 71.8444 49.081 71.6128C49.1742 71.8502 49.3268 72.0596 49.5242 72.2209C49.4062 72.2598 49.2971 72.3222 49.2037 72.4042C49.1103 72.4863 49.0343 72.5863 48.9804 72.6984C48.8562 72.4649 48.6805 72.2628 48.4666 72.1074Z" fill="#D1D3D4"/>
<path d="M44.2528 76.1862C44.2288 76.1864 44.2055 76.1944 44.1866 76.2091C44.1676 76.2238 44.154 76.2444 44.1479 76.2676C43.9552 77.1048 43.0773 77.2097 43.0367 77.214C43.0226 77.2121 43.0083 77.2131 42.9946 77.2168C42.981 77.2205 42.9681 77.2268 42.9569 77.2355C42.9342 77.2529 42.9194 77.2787 42.9157 77.3071C42.912 77.3355 42.9197 77.3642 42.9372 77.3869C42.9547 77.4096 42.9804 77.4244 43.0088 77.4281C43.7347 77.7235 44.0259 78.6035 44.0301 78.6121C44.0311 78.6261 44.0349 78.6399 44.0412 78.6525C44.0474 78.6651 44.0562 78.6764 44.0668 78.6856C44.0774 78.6948 44.0898 78.7019 44.1031 78.7064C44.1165 78.7108 44.1306 78.7126 44.1447 78.7117C44.1587 78.7107 44.1725 78.7069 44.1851 78.7006C44.1977 78.6943 44.2089 78.6856 44.2182 78.675C44.2274 78.6644 44.2345 78.652 44.239 78.6386C44.2434 78.6253 44.2452 78.6112 44.2442 78.5971C44.2744 78.3506 44.393 78.1235 44.5782 77.9581C44.7633 77.7927 45.0023 77.7002 45.2506 77.6978C45.279 77.7021 45.3079 77.6949 45.331 77.6778C45.3541 77.6608 45.3694 77.6352 45.3737 77.6068C45.3779 77.5785 45.3707 77.5495 45.3537 77.5264C45.3366 77.5034 45.3111 77.488 45.2827 77.4837C44.5676 77.2461 44.3663 76.2847 44.3641 76.2762C44.3593 76.2523 44.3465 76.2309 44.3278 76.2153C44.3091 76.1997 44.2857 76.191 44.2614 76.1905L44.2528 76.1862ZM43.3514 77.3574C43.5405 77.3015 43.7167 77.2087 43.87 77.0845C44.0232 76.9604 44.1504 76.8072 44.2442 76.6337C44.3681 76.9933 44.598 77.3068 44.9037 77.533C44.7246 77.5803 44.5592 77.6691 44.4208 77.7922C44.2825 77.9153 44.175 78.0693 44.1072 78.2417C43.9377 77.8854 43.677 77.5803 43.3514 77.3574Z" fill="#D1D3D4"/>
<rect x="6.31628" y="29.3594" width="0.629283" height="53.3318" fill="#24133F"/>
<rect x="61.6934" y="9.22168" width="0.629283" height="53.3318" fill="#24133F"/>
<rect x="61.6934" y="64.4414" width="0.629283" height="1.73053" fill="#24133F"/>
<rect x="6.31628" y="23.3809" width="0.629283" height="1.73053" fill="#24133F"/>
<rect x="61.6934" y="66.8018" width="0.629283" height="1.73053" fill="#24133F"/>
<rect x="6.31628" y="25.7407" width="0.629283" height="1.73053" fill="#24133F"/>
<path d="M6.47367 15.5146L9.87977 21.4142L3.06757 21.4142L6.47367 15.5146Z" fill="#000022"/>
<path d="M62.3228 77.1846L65.7289 71.285L58.9167 71.285L62.3228 77.1846Z" fill="#000022"/>
<path d="M21.262 31.7187C21.262 29.5465 23.0228 27.7856 25.195 27.7856L44.7028 27.7856C46.8749 27.7856 48.6358 29.5465 48.6358 31.7187L48.6358 34.8651L21.262 34.8651L21.262 31.7187Z" fill="#C42847"/>
</svg>
