<svg width="456" height="588" viewBox="0 0 456 588" fill="none" xmlns="http://www.w3.org/2000/svg">
<rect x="0.5" y="-0.5" width="454.224" height="587" rx="7.5" transform="matrix(1 0 0 -1 0.0576172 587)" fill="#F7F7F7" stroke="#796894"/>
<rect x="49.1603" y="171" width="4.09191" height="339" fill="#24133F"/>
<rect width="4.09191" height="339" transform="matrix(1 0 0 -1 403.11 418)" fill="#24133F"/>
<rect x="49.1603" y="133" width="4.09191" height="11" fill="#24133F"/>
<rect width="4.09191" height="11" transform="matrix(1 0 0 -1 403.11 456)" fill="#24133F"/>
<rect x="49.1603" y="148" width="4.09191" height="11" fill="#24133F"/>
<rect width="4.09191" height="11" transform="matrix(1 0 0 -1 403.11 441)" fill="#24133F"/>
<rect x="30.7468" y="89" width="36.8271" height="32" fill="black"/>
<rect width="36.8271" height="32" transform="matrix(1 0 0 -1 384.697 500)" fill="black"/>
<path d="M244.931 397.881L164.237 147.784C163.928 146.744 163.225 145.858 162.272 145.305C161.32 144.752 160.187 144.574 159.105 144.806C158.551 144.945 158.032 145.193 157.58 145.535C157.127 145.877 156.751 146.306 156.474 146.795C156.196 147.284 156.024 147.823 155.967 148.379C155.91 148.935 155.97 149.497 156.143 150.03L236.91 400.354C237.246 401.394 237.99 402.261 238.979 402.764C239.969 403.267 241.122 403.366 242.186 403.038C243.249 402.71 244.136 401.982 244.651 401.015C245.166 400.048 245.267 398.921 244.931 397.881Z" fill="#093F68"/>
<path d="M242.674 404.551C241.2 405.006 239.601 404.869 238.23 404.172C236.859 403.474 235.827 402.273 235.362 400.831L154.595 150.507C154.353 149.769 154.268 148.99 154.346 148.219C154.423 147.448 154.661 146.7 155.045 146.022C155.429 145.344 155.951 144.75 156.579 144.277C157.206 143.803 157.926 143.46 158.695 143.269C160.181 142.925 161.745 143.153 163.065 143.904C164.384 144.655 165.358 145.873 165.786 147.306L246.48 397.404C246.945 398.845 246.805 400.408 246.092 401.748C245.378 403.089 244.149 404.097 242.674 404.551ZM159.377 146.387C159.051 146.482 158.749 146.641 158.487 146.853C158.225 147.066 158.009 147.327 157.852 147.622C157.694 147.917 157.599 148.24 157.572 148.571C157.545 148.903 157.585 149.236 157.692 149.552L238.459 399.877C238.665 400.515 239.122 401.047 239.729 401.356C240.337 401.665 241.045 401.726 241.698 401.524C242.351 401.323 242.895 400.876 243.211 400.283C243.527 399.689 243.589 398.997 243.383 398.358L162.689 148.261C162.505 147.61 162.076 147.05 161.487 146.694C160.899 146.339 160.195 146.214 159.517 146.344L159.377 146.387Z" fill="#093F68"/>
<path d="M167.04 423.195C167.14 376.017 167.634 334.809 168.46 294.946C168.511 293.896 168.162 292.865 167.482 292.052C166.801 291.238 165.837 290.7 164.774 290.54C164.19 290.47 163.597 290.52 163.033 290.688C162.47 290.856 161.949 291.138 161.504 291.515C161.06 291.892 160.701 292.357 160.451 292.878C160.202 293.399 160.067 293.966 160.056 294.542C159.212 334.509 158.763 375.854 158.609 423.131C158.607 423.779 158.76 424.418 159.058 424.997C159.356 425.576 159.789 426.077 160.323 426.461C160.857 426.845 161.476 427.1 162.129 427.205C162.783 427.311 163.453 427.264 164.085 427.068C164.933 426.81 165.675 426.297 166.206 425.601C166.737 424.905 167.029 424.063 167.04 423.195Z" fill="#093F68"/>
<path d="M164.588 428.627C163.712 428.898 162.783 428.963 161.877 428.815C160.97 428.668 160.112 428.314 159.373 427.781C158.633 427.248 158.033 426.552 157.621 425.749C157.209 424.946 156.997 424.059 157.002 423.161C157.124 375.627 157.596 334.775 158.448 294.571C158.469 293.774 158.659 292.989 159.007 292.268C159.355 291.547 159.853 290.904 160.47 290.382C161.087 289.86 161.808 289.469 162.588 289.235C163.369 289.001 164.19 288.929 165 289.023C166.457 289.241 167.781 289.974 168.722 291.082C169.663 292.191 170.156 293.598 170.107 295.037C169.286 335.231 168.811 375.918 168.678 423.256C168.671 424.46 168.27 425.631 167.535 426.597C166.799 427.564 165.767 428.275 164.588 428.627ZM163.479 292.222C162.965 292.38 162.515 292.692 162.193 293.114C161.87 293.536 161.692 294.046 161.683 294.572C160.831 334.776 160.384 375.654 160.237 423.162C160.237 423.562 160.333 423.957 160.519 424.313C160.705 424.67 160.976 424.978 161.307 425.212C161.631 425.451 162.01 425.609 162.41 425.674C162.811 425.739 163.221 425.709 163.607 425.585C164.127 425.418 164.582 425.097 164.907 424.665C165.231 424.234 165.41 423.715 165.418 423.179C165.465 375.835 165.931 335.068 166.844 294.895C166.894 294.474 166.835 294.048 166.672 293.655C166.509 293.263 166.248 292.917 165.912 292.649C165.576 292.381 165.177 292.2 164.751 292.123C164.325 292.045 163.885 292.074 163.474 292.206L163.479 292.222Z" fill="#093F68"/>
<path d="M320.272 378.962C320.902 378.766 321.476 378.427 321.947 377.973C322.419 377.52 322.775 376.964 322.986 376.352C323.198 375.739 323.259 375.087 323.165 374.447C323.071 373.807 322.825 373.197 322.446 372.667C294.65 334.007 269.984 300.456 245.866 268.234C245.293 267.439 244.455 266.862 243.496 266.603C242.537 266.343 241.516 266.417 240.606 266.811C240.041 267.067 239.542 267.442 239.144 267.91C238.745 268.377 238.458 268.925 238.303 269.514C238.148 270.104 238.129 270.719 238.246 271.317C238.364 271.914 238.616 272.478 238.984 272.969C263.086 305.196 287.706 338.761 315.548 377.407C316.066 378.121 316.803 378.656 317.651 378.935C318.5 379.215 319.417 379.224 320.272 378.962Z" fill="#093F68"/>
<path d="M320.76 380.476C319.577 380.846 318.304 380.835 317.128 380.446C315.952 380.057 314.934 379.31 314.223 378.314C286.265 339.521 261.942 306.347 237.669 273.907C237.169 273.237 236.827 272.468 236.668 271.654C236.508 270.84 236.535 270.002 236.745 269.199C236.958 268.378 237.354 267.615 237.907 266.963C238.46 266.312 239.154 265.79 239.94 265.435C241.19 264.881 242.599 264.77 243.923 265.121C245.248 265.472 246.406 266.262 247.2 267.357C271.463 299.817 295.802 332.986 323.809 371.881C324.337 372.613 324.682 373.457 324.813 374.344C324.945 375.231 324.861 376.136 324.568 376.986C324.274 377.835 323.78 378.605 323.125 379.232C322.471 379.86 321.674 380.327 320.799 380.597L320.76 380.476ZM241.595 268.136L241.301 268.227C240.952 268.383 240.643 268.614 240.396 268.901C240.149 269.188 239.97 269.525 239.872 269.888C239.775 270.25 239.76 270.63 239.83 270.999C239.9 271.367 240.053 271.716 240.278 272.021C264.572 304.471 288.9 337.66 316.902 376.54C317.222 376.976 317.673 377.302 318.193 377.474C318.712 377.645 319.274 377.652 319.798 377.494C320.186 377.374 320.539 377.166 320.829 376.887C321.119 376.608 321.337 376.266 321.466 375.888C321.595 375.511 321.631 375.109 321.571 374.716C321.511 374.323 321.356 373.949 321.12 373.625C293.158 334.816 268.83 301.627 244.566 269.217C244.247 268.757 243.79 268.406 243.257 268.212C242.725 268.018 242.144 267.992 241.595 268.136Z" fill="#093F68"/>
<path d="M231.588 370.192C290.731 351.957 323.553 290.307 304.9 232.492C286.246 174.678 223.179 142.592 164.036 160.827C104.893 179.062 72.0697 240.712 90.7236 298.527C109.378 356.342 172.445 388.427 231.588 370.192Z" fill="#68E1FD"/>
<path d="M232.081 371.721C210.592 378.35 187.575 378.6 165.94 372.441C144.306 366.282 125.025 353.989 110.537 337.118C96.0496 320.247 87.0051 299.555 84.5478 277.659C82.0905 255.763 86.3308 233.646 96.7322 214.106C107.134 194.566 123.229 178.48 142.983 167.882C162.738 157.284 185.263 152.651 207.711 154.568C230.159 156.484 251.521 164.866 269.097 178.651C286.672 192.437 299.67 211.007 306.448 232.015C315.5 260.181 312.754 290.708 298.813 316.898C284.872 343.088 260.873 362.804 232.081 371.721ZM164.524 162.34C143.645 168.775 125.187 181.117 111.484 197.806C97.7811 214.496 89.449 234.783 87.5414 256.102C85.6339 277.421 90.2367 298.814 100.768 317.576C111.299 336.337 127.285 351.625 146.704 361.504C166.123 371.384 188.104 375.412 209.865 373.08C231.627 370.747 252.192 362.158 268.96 348.4C285.728 334.641 297.945 316.331 304.067 295.784C310.189 275.238 309.94 253.378 303.352 232.969C294.493 205.627 274.903 182.836 248.877 169.595C222.851 156.354 192.515 153.745 164.524 162.34Z" fill="#093F68"/>
<path d="M225.801 352.256C274.81 337.145 302.009 286.058 286.551 238.149C271.093 190.241 218.832 163.653 169.823 178.763C120.814 193.874 93.6147 244.961 109.072 292.87C124.53 340.778 176.791 367.366 225.801 352.256Z" fill="white"/>
<path d="M226.289 353.769C208.432 359.275 189.306 359.481 171.329 354.36C153.352 349.24 137.332 339.024 125.295 325.003C113.258 310.983 105.744 293.788 103.704 275.593C101.663 257.398 105.188 239.021 113.833 222.784C122.477 206.548 135.853 193.182 152.268 184.376C168.683 175.571 187.401 171.721 206.054 173.315C224.707 174.908 242.458 181.873 257.062 193.329C271.666 204.784 282.467 220.216 288.1 237.672C295.625 261.08 293.344 286.451 281.756 308.216C270.168 329.982 250.22 346.364 226.289 353.769ZM170.317 180.292C153.071 185.609 137.826 195.806 126.509 209.593C115.192 223.38 108.312 240.138 106.739 257.748C105.165 275.357 108.969 293.028 117.669 308.524C126.37 324.02 139.575 336.646 155.617 344.806C171.658 352.965 189.814 356.291 207.789 354.363C225.764 352.435 242.75 345.339 256.6 333.974C270.449 322.608 280.54 307.483 285.596 290.512C290.652 273.54 290.445 255.484 285.003 238.627C277.684 216.04 261.499 197.214 239.999 186.278C218.498 175.342 193.439 173.189 170.317 180.292Z" fill="#093F68"/>
<path d="M218.592 329.914C254.979 318.695 275.173 280.766 263.696 245.196C252.22 209.626 213.418 189.885 177.031 201.104C140.644 212.323 120.45 250.253 131.927 285.823C143.403 321.393 182.205 341.133 218.592 329.914Z" fill="#68E1FD"/>
<path d="M219.095 331.473C205.758 335.602 191.468 335.771 178.032 331.96C164.597 328.148 152.619 320.527 143.615 310.06C134.611 299.593 128.985 286.751 127.448 273.158C125.911 259.565 128.533 245.832 134.982 233.695C141.431 221.559 151.416 211.565 163.676 204.978C175.936 198.39 189.919 195.505 203.857 196.687C217.795 197.869 231.061 203.065 241.977 211.618C252.893 220.171 260.969 231.697 265.183 244.737C270.809 262.214 269.116 281.158 260.477 297.417C251.838 313.675 236.957 325.922 219.095 331.473ZM177.53 202.648C164.792 206.559 153.527 214.076 145.162 224.247C136.796 234.419 131.705 246.788 130.533 259.789C129.361 272.789 132.161 285.838 138.578 297.283C144.995 308.728 154.741 318.054 166.583 324.083C178.425 330.111 191.83 332.569 205.102 331.147C218.373 329.725 230.915 324.486 241.14 316.094C251.365 307.701 258.813 296.532 262.541 284C266.27 271.468 266.112 258.136 262.086 245.692C256.69 229.035 244.759 215.149 228.907 207.075C213.056 199.001 194.578 197.398 177.52 202.618L177.53 202.648Z" fill="#093F68"/>
<path d="M212.023 309.557C236.908 301.884 250.719 275.944 242.87 251.617C235.021 227.291 208.485 213.791 183.6 221.463C158.715 229.136 144.904 255.076 152.753 279.402C160.602 303.729 187.138 317.229 212.023 309.557Z" fill="white"/>
<path d="M212.512 311.07C203.294 313.915 193.42 314.024 184.139 311.384C174.858 308.743 166.586 303.471 160.37 296.235C154.154 288.998 150.273 280.122 149.218 270.729C148.163 261.337 149.98 251.849 154.442 243.466C158.903 235.084 165.807 228.182 174.281 223.636C182.754 219.089 192.417 217.101 202.047 217.922C211.676 218.744 220.841 222.339 228.38 228.253C235.919 234.166 241.496 242.133 244.403 251.144C248.288 263.225 247.111 276.319 241.133 287.553C235.154 298.787 224.861 307.245 212.512 311.07ZM184.093 222.991C175.485 225.642 167.875 230.729 162.225 237.608C156.575 244.487 153.139 252.85 152.352 261.639C151.564 270.427 153.461 279.246 157.802 286.981C162.143 294.715 168.733 301.018 176.738 305.091C184.744 309.163 193.805 310.824 202.776 309.862C211.747 308.9 220.225 305.358 227.137 299.686C234.048 294.013 239.084 286.464 241.606 277.994C244.128 269.523 244.024 260.512 241.306 252.099C237.653 240.833 229.579 231.442 218.854 225.985C208.129 220.529 195.629 219.452 184.093 222.991Z" fill="#093F68"/>
<path d="M205.685 289.909C219.47 285.659 227.12 271.289 222.772 257.814C218.425 244.338 203.725 236.86 189.939 241.11C176.154 245.36 168.504 259.73 172.852 273.205C177.2 286.681 191.899 294.16 205.685 289.909Z" fill="#68E1FD"/>
<path d="M206.173 291.423C200.93 293.04 195.315 293.1 190.037 291.597C184.759 290.093 180.055 287.094 176.521 282.977C172.987 278.861 170.781 273.812 170.182 268.47C169.583 263.128 170.618 257.733 173.156 252.966C175.694 248.198 179.621 244.274 184.44 241.689C189.26 239.103 194.756 237.973 200.232 238.441C205.709 238.909 210.921 240.954 215.208 244.317C219.496 247.681 222.667 252.211 224.321 257.337C226.529 264.209 225.859 271.658 222.457 278.048C219.055 284.438 213.199 289.248 206.173 291.423ZM190.428 242.624C185.798 244.051 181.704 246.789 178.666 250.491C175.627 254.193 173.779 258.692 173.357 263.42C172.934 268.149 173.955 272.893 176.291 277.054C178.626 281.215 182.172 284.606 186.479 286.797C190.786 288.988 195.661 289.881 200.487 289.364C205.314 288.847 209.875 286.943 213.594 283.891C217.313 280.84 220.023 276.779 221.381 272.223C222.739 267.666 222.685 262.818 221.224 258.291C219.258 252.227 214.912 247.171 209.139 244.234C203.366 241.297 196.637 240.718 190.428 242.624Z" fill="#093F68"/>
<path d="M77.1298 220.673L56.2001 238.908L100.258 254.681L122.631 237.066L77.1298 220.673Z" fill="#F56132"/>
<path d="M100.746 256.195C100.402 256.3 100.032 256.298 99.6888 256.188L55.6463 240.411C55.3842 240.316 55.1517 240.156 54.9712 239.947C54.7907 239.739 54.6683 239.488 54.616 239.22C54.5636 238.951 54.583 238.674 54.6723 238.415C54.7616 238.157 54.9178 237.925 55.1257 237.742L76.0555 219.506C76.2726 219.322 76.5358 219.198 76.8181 219.146C77.1004 219.094 77.3918 219.116 77.6625 219.211L123.163 235.603C123.436 235.699 123.677 235.864 123.862 236.082C124.047 236.3 124.169 236.561 124.216 236.841C124.263 237.12 124.232 237.406 124.128 237.67C124.023 237.934 123.848 238.166 123.621 238.341L101.249 255.957C101.095 256.061 100.925 256.141 100.746 256.195ZM59.234 238.339L99.892 252.913L119.32 237.621L77.5415 222.476L59.234 238.339Z" fill="#093F68"/>
<path d="M76.1196 219.337L77.6041 194.865L118.511 214.538L122.63 237.066L76.1196 219.337Z" fill="#F56132"/>
<path d="M123.119 238.579C122.765 238.69 122.382 238.679 122.036 238.547L75.463 220.837C75.1412 220.716 74.8672 220.498 74.6808 220.214C74.4944 219.93 74.4052 219.596 74.4262 219.26L75.9156 194.803C75.9316 194.54 76.0141 194.285 76.1559 194.061C76.2977 193.837 76.4941 193.652 76.7277 193.52C76.9734 193.364 77.2579 193.275 77.551 193.264C77.8441 193.252 78.1349 193.319 78.3925 193.456L119.315 213.125C119.543 213.235 119.741 213.395 119.894 213.594C120.047 213.793 120.15 214.024 120.195 214.268L124.298 236.801C124.349 237.079 124.323 237.365 124.223 237.63C124.123 237.895 123.953 238.129 123.729 238.308C123.547 238.439 123.339 238.531 123.119 238.579ZM77.8784 218.245L120.592 234.549L117.147 215.64L79.1537 197.399L77.8784 218.245Z" fill="#093F68"/>
<path d="M199.474 269.291C198.662 269.536 197.789 269.506 196.996 269.206L59.0963 217.546C58.6088 217.39 58.1588 217.138 57.7737 216.807C57.3887 216.476 57.0766 216.071 56.8564 215.619C56.6363 215.166 56.5127 214.674 56.4931 214.173C56.4735 213.672 56.5583 213.172 56.7425 212.704C56.9266 212.236 57.2063 211.809 57.5643 211.45C57.9224 211.091 58.3514 210.807 58.8253 210.615C59.2992 210.423 59.8081 210.327 60.321 210.334C60.8339 210.34 61.3402 210.448 61.809 210.652L199.703 262.347C200.433 262.623 201.058 263.114 201.491 263.752C201.924 264.39 202.144 265.144 202.12 265.91C202.096 266.675 201.83 267.414 201.357 268.025C200.885 268.636 200.231 269.089 199.484 269.321L199.474 269.291Z" fill="#FFBC0E"/>
<path d="M199.963 270.804C198.801 271.159 197.55 271.116 196.416 270.683L58.5169 219.022C57.1864 218.505 56.1202 217.493 55.5524 216.207C54.9845 214.922 54.9614 213.469 55.4881 212.168C56.0043 210.865 57.0258 209.814 58.3306 209.243C59.6353 208.673 61.1178 208.629 62.4555 209.121L200.369 260.827C201.414 261.222 202.307 261.925 202.926 262.838C203.544 263.751 203.857 264.829 203.821 265.924C203.786 267.018 203.403 268.075 202.727 268.947C202.05 269.82 201.113 270.466 200.045 270.796L199.963 270.804ZM59.7931 212.055C59.3681 212.189 58.9962 212.449 58.7284 212.798C58.4607 213.148 58.3103 213.57 58.298 214.006C58.2857 214.442 58.412 214.872 58.6597 215.235C58.9073 215.598 59.2641 215.877 59.6808 216.034L197.574 267.73C198.107 267.914 198.692 267.892 199.209 267.668C199.726 267.444 200.135 267.034 200.352 266.524C200.454 266.265 200.503 265.989 200.496 265.712C200.489 265.434 200.427 265.161 200.312 264.908C200.197 264.654 200.031 264.425 199.826 264.234C199.62 264.043 199.378 263.893 199.113 263.793L61.2101 212.068C60.7514 211.925 60.2576 211.931 59.8029 212.086L59.7931 212.055Z" fill="#093F68"/>
<path d="M183.44 207.303L264.135 457.4C264.492 458.426 264.437 459.545 263.981 460.533C263.525 461.52 262.702 462.301 261.679 462.717C261.144 462.914 260.573 463.002 260.002 462.976C259.431 462.949 258.871 462.81 258.357 462.565C257.843 462.32 257.385 461.975 257.012 461.551C256.639 461.127 256.358 460.634 256.187 460.1L175.42 209.776C175.084 208.736 175.185 207.609 175.7 206.642C176.215 205.675 177.102 204.947 178.165 204.619C179.229 204.291 180.382 204.39 181.371 204.893C182.361 205.396 183.105 206.263 183.44 207.303Z" fill="#093F68"/>
<path d="M177.677 203.105C176.203 203.56 174.974 204.568 174.26 205.909C173.546 207.249 173.406 208.812 173.871 210.253L254.639 460.578C254.874 461.318 255.262 462.003 255.778 462.591C256.294 463.179 256.928 463.658 257.64 463.998C258.353 464.338 259.129 464.532 259.921 464.568C260.712 464.604 261.504 464.481 262.245 464.207C263.664 463.655 264.812 462.591 265.451 461.236C266.091 459.88 266.174 458.336 265.683 456.923L184.989 206.825C184.524 205.384 183.492 204.183 182.121 203.485C180.75 202.787 179.151 202.651 177.677 203.105ZM260.974 461.27C260.651 461.374 260.31 461.414 259.971 461.387C259.632 461.361 259.301 461.268 258.999 461.114C258.698 460.961 258.43 460.75 258.213 460.493C257.996 460.237 257.834 459.941 257.736 459.623L176.968 209.298C176.762 208.66 176.824 207.968 177.14 207.374C177.456 206.781 178.001 206.334 178.654 206.133C179.307 205.931 180.015 205.992 180.622 206.301C181.229 206.61 181.686 207.142 181.892 207.78L262.586 457.878C262.818 458.515 262.795 459.214 262.522 459.835C262.249 460.456 261.746 460.953 261.114 461.227L260.974 461.27Z" fill="#093F68"/>
<path d="M104.788 230.255C132.559 268.84 157.149 302.314 181.222 334.5C181.879 335.331 182.199 336.371 182.119 337.419C182.039 338.467 181.565 339.449 180.789 340.175C180.351 340.561 179.836 340.852 179.276 341.03C178.716 341.209 178.124 341.27 177.539 341.211C176.953 341.151 176.386 340.972 175.876 340.685C175.366 340.398 174.923 340.01 174.576 339.545C150.427 307.282 125.793 273.672 97.9198 235.035C97.5373 234.506 97.288 233.897 97.1923 233.256C97.0966 232.615 97.1571 231.961 97.369 231.347C97.581 230.733 97.9382 230.177 98.4117 229.724C98.8852 229.271 99.4615 228.934 100.094 228.74C100.94 228.476 101.849 228.48 102.692 228.752C103.536 229.024 104.269 229.55 104.788 230.255Z" fill="#093F68"/>
<path d="M99.5904 227.181C98.7139 227.451 97.9151 227.919 97.259 228.548C96.6028 229.176 96.1081 229.948 95.8151 230.799C95.5221 231.651 95.4392 232.558 95.573 233.446C95.7069 234.335 96.0538 235.18 96.5854 235.913C124.583 274.777 148.947 307.971 173.241 340.422C173.726 341.064 174.342 341.6 175.05 341.995C175.759 342.391 176.544 342.638 177.356 342.719C178.167 342.801 178.988 342.717 179.764 342.471C180.54 342.225 181.255 341.823 181.864 341.292C182.928 340.296 183.583 338.953 183.703 337.518C183.823 336.082 183.401 334.653 182.517 333.502C158.254 301.041 133.985 267.984 106.092 229.287C105.38 228.304 104.365 227.57 103.195 227.191C102.025 226.812 100.762 226.809 99.5904 227.181ZM178.74 339.525C178.227 339.684 177.675 339.681 177.163 339.516C176.652 339.351 176.206 339.033 175.89 338.607C151.596 306.156 127.238 272.927 99.2343 234.097C98.9989 233.77 98.8465 233.393 98.7897 232.996C98.7329 232.6 98.7733 232.196 98.9076 231.818C99.0329 231.441 99.2497 231.099 99.5395 230.821C99.8294 230.543 100.184 230.338 100.572 230.223C101.096 230.068 101.657 230.076 102.176 230.247C102.695 230.418 103.147 230.744 103.468 231.178C131.293 269.929 155.601 303.057 179.927 335.448C180.215 335.765 180.417 336.147 180.514 336.56C180.611 336.973 180.6 337.403 180.482 337.811C180.364 338.219 180.144 338.591 179.84 338.893C179.536 339.195 179.16 339.418 178.745 339.541L178.74 339.525Z" fill="#093F68"/>
<path d="M256.252 180.543C256.883 180.351 257.552 180.307 258.204 180.414C258.857 180.521 259.474 180.776 260.007 181.16C260.54 181.543 260.973 182.043 261.272 182.62C261.57 183.196 261.726 183.834 261.727 184.48C261.651 231.734 261.14 273.047 260.298 312.965C260.295 313.938 259.948 314.88 259.315 315.63C258.682 316.381 257.802 316.894 256.825 317.081C256.213 317.188 255.583 317.161 254.983 317.001C254.382 316.841 253.825 316.553 253.353 316.158C252.88 315.762 252.502 315.269 252.248 314.714C251.994 314.159 251.869 313.555 251.882 312.947C252.709 273.034 253.173 231.735 253.296 184.467C253.301 183.592 253.59 182.74 254.121 182.035C254.652 181.33 255.398 180.808 256.252 180.543Z" fill="#093F68"/>
<path d="M255.763 179.03C254.577 179.391 253.541 180.113 252.806 181.092C252.071 182.07 251.675 183.253 251.678 184.467C251.548 231.92 251.096 272.733 250.255 312.916C250.238 313.745 250.41 314.567 250.757 315.323C251.104 316.079 251.618 316.751 252.262 317.29C252.917 317.843 253.69 318.246 254.525 318.469C255.36 318.693 256.236 318.731 257.088 318.582C258.436 318.334 259.655 317.635 260.534 316.604C261.413 315.574 261.898 314.277 261.906 312.936C262.727 272.741 263.194 231.924 263.305 184.36C263.308 183.464 263.094 182.579 262.682 181.779C262.269 180.978 261.669 180.284 260.93 179.753C260.191 179.222 259.335 178.869 258.43 178.722C257.526 178.576 256.599 178.64 255.724 178.909L255.763 179.03ZM256.857 315.441L256.563 315.531C256.186 315.599 255.798 315.584 255.427 315.487C255.056 315.39 254.712 315.215 254.419 314.972C254.126 314.73 253.891 314.427 253.732 314.086C253.573 313.745 253.493 313.373 253.499 312.998C254.351 272.794 254.797 231.967 254.914 184.418C254.919 183.882 255.097 183.361 255.422 182.929C255.747 182.497 256.203 182.177 256.725 182.012C257.113 181.893 257.525 181.865 257.926 181.931C258.327 181.997 258.707 182.155 259.034 182.392C259.361 182.628 259.626 182.937 259.808 183.293C259.989 183.649 260.082 184.042 260.079 184.439C259.954 231.908 259.507 272.736 258.656 312.889C258.665 313.445 258.497 313.989 258.175 314.446C257.852 314.904 257.392 315.251 256.857 315.441Z" fill="#093F68"/>
<path d="M188.763 237.465C247.906 219.23 310.973 251.316 329.627 309.131C348.281 366.945 315.458 428.596 256.315 446.831C197.172 465.066 134.105 432.98 115.451 375.165C96.7967 317.351 129.62 255.7 188.763 237.465Z" fill="#68E1FD"/>
<path d="M188.27 235.936C166.779 242.559 147.78 255.263 133.675 272.441C119.57 289.62 110.994 310.501 109.029 332.445C107.065 354.388 111.802 376.408 122.64 395.72C133.479 415.032 149.932 430.769 169.92 440.939C189.908 451.11 212.532 455.258 234.932 452.859C257.331 450.46 278.5 441.622 295.761 427.462C313.022 413.302 325.599 394.456 331.903 373.308C338.207 352.16 337.954 329.66 331.176 308.653C322.058 280.506 301.893 257.044 275.103 243.412C248.313 229.78 217.085 227.091 188.27 235.936ZM255.827 445.317C234.95 451.757 212.588 452 191.569 446.016C170.55 440.032 151.819 428.089 137.745 411.698C123.67 395.306 114.884 375.203 112.498 353.93C110.111 332.658 114.232 311.171 124.339 292.188C134.446 273.204 150.084 257.577 169.277 247.283C188.47 236.989 210.354 232.489 232.163 234.354C253.972 236.218 274.725 244.363 291.798 257.759C308.871 271.154 321.497 289.198 328.079 309.608C336.871 336.97 334.202 366.624 320.657 392.066C307.112 417.507 283.797 436.658 255.827 445.317Z" fill="#093F68"/>
<path d="M194.55 255.402C243.56 240.291 295.82 266.879 311.278 314.788C326.736 362.697 299.537 413.784 250.528 428.894C201.518 444.005 149.257 417.417 133.8 369.508C118.342 321.6 145.541 270.512 194.55 255.402Z" fill="white"/>
<path d="M194.062 253.888C176.205 259.394 160.419 269.952 148.7 284.228C136.982 298.504 129.857 315.856 128.227 334.091C126.596 352.325 130.534 370.622 139.542 386.669C148.55 402.716 162.223 415.791 178.833 424.241C195.442 432.691 214.242 436.137 232.855 434.142C251.468 432.148 269.058 424.803 283.4 413.036C297.743 401.269 308.194 385.609 313.432 368.036C318.67 350.463 318.459 331.766 312.827 314.31C305.252 290.917 288.493 271.417 266.227 260.089C243.962 248.762 218.008 246.531 194.062 253.888ZM250.035 427.365C232.789 432.682 214.318 432.881 196.957 427.936C179.597 422.99 164.126 413.124 152.502 399.583C140.878 386.042 133.622 369.436 131.653 351.865C129.684 334.293 133.09 316.545 141.439 300.866C149.789 285.186 162.707 272.28 178.561 263.777C194.415 255.275 212.492 251.56 230.506 253.101C248.52 254.643 265.662 261.371 279.764 272.436C293.865 283.502 304.294 298.406 309.73 315.265C316.992 337.869 314.785 362.366 303.594 383.381C292.403 404.396 273.141 420.215 250.035 427.365Z" fill="#093F68"/>
<path d="M201.759 277.743C238.146 266.524 276.947 286.265 288.424 321.834C299.901 357.404 279.707 395.334 243.32 406.553C206.932 417.772 168.131 398.032 156.654 362.462C145.178 326.892 165.372 288.962 201.759 277.743Z" fill="#68E1FD"/>
<path d="M201.256 276.184C187.909 280.283 176.105 288.159 167.338 298.816C158.571 309.473 153.234 322.433 152.003 336.055C150.771 349.678 153.7 363.352 160.419 375.347C167.139 387.342 177.346 397.12 189.751 403.443C202.156 409.766 216.2 412.351 230.108 410.871C244.016 409.39 257.162 403.911 267.884 395.126C278.605 386.341 286.421 374.645 290.342 361.517C294.263 348.39 294.113 334.42 289.911 321.376C284.261 303.907 271.756 289.34 255.138 280.869C238.519 272.398 219.143 270.713 201.256 276.184ZM242.821 405.009C230.093 408.95 216.456 409.111 203.634 405.472C190.812 401.833 179.383 394.558 170.792 384.567C162.202 374.576 156.837 362.318 155.376 349.345C153.915 336.372 156.423 323.267 162.584 311.689C168.745 300.11 178.281 290.578 189.986 284.299C201.691 278.021 215.038 275.278 228.338 276.417C241.638 277.556 254.294 282.527 264.703 290.7C275.112 298.873 282.807 309.881 286.814 322.331C292.17 339 290.548 357.066 282.304 372.568C274.06 388.071 259.866 399.748 242.831 405.039L242.821 405.009Z" fill="#093F68"/>
<path d="M208.327 298.101C233.212 290.428 259.749 303.929 267.598 328.255C275.446 352.581 261.636 378.522 236.751 386.194C211.865 393.867 185.329 380.366 177.48 356.04C169.631 331.714 183.442 305.773 208.327 298.101Z" fill="white"/>
<path d="M207.839 296.588C198.62 299.427 190.469 304.875 184.417 312.243C178.365 319.612 174.684 328.569 173.84 337.982C172.996 347.395 175.027 356.841 179.675 365.126C184.324 373.411 191.381 380.162 199.955 384.526C208.529 388.89 218.234 390.67 227.843 389.642C237.452 388.613 246.533 384.822 253.938 378.748C261.343 372.674 266.738 364.59 269.443 355.518C272.147 346.447 272.039 336.794 269.131 327.783C265.222 315.71 256.574 305.645 245.084 299.797C233.593 293.949 220.199 292.795 207.839 296.588ZM236.258 384.666C227.652 387.323 218.433 387.425 209.768 384.959C201.103 382.493 193.381 377.571 187.578 370.814C181.775 364.058 178.152 355.771 177.168 347.001C176.184 338.232 177.882 329.374 182.049 321.548C186.215 313.722 192.662 307.28 200.575 303.037C208.487 298.794 217.509 296.94 226.499 297.709C235.49 298.479 244.044 301.838 251.082 307.361C258.119 312.884 263.323 320.323 266.034 328.738C269.655 340.014 268.553 352.234 262.972 362.718C257.39 373.202 247.783 381.095 236.258 384.666Z" fill="#093F68"/>
<path d="M214.666 317.748C228.452 313.498 243.151 320.976 247.499 334.452C251.847 347.927 244.197 362.297 230.412 366.547C216.626 370.798 201.926 363.319 197.579 349.843C193.231 336.368 200.881 321.998 214.666 317.748Z" fill="#68E1FD"/>
<path d="M214.178 316.234C208.935 317.851 204.301 320.951 200.86 325.142C197.419 329.334 195.328 334.428 194.849 339.782C194.37 345.136 195.526 350.508 198.171 355.219C200.816 359.93 204.83 363.769 209.707 366.25C214.584 368.731 220.103 369.743 225.568 369.158C231.033 368.572 236.197 366.415 240.408 362.961C244.619 359.506 247.688 354.908 249.226 349.749C250.764 344.589 250.702 339.1 249.048 333.974C246.823 327.107 241.903 321.382 235.366 318.056C228.829 314.731 221.209 314.075 214.178 316.234ZM229.924 365.034C225.293 366.461 220.334 366.515 215.672 365.187C211.011 363.859 206.857 361.21 203.735 357.575C200.614 353.939 198.666 349.48 198.137 344.762C197.608 340.044 198.522 335.279 200.763 331.069C203.005 326.859 206.473 323.393 210.73 321.109C214.986 318.826 219.84 317.828 224.677 318.241C229.513 318.654 234.116 320.46 237.903 323.431C241.69 326.401 244.491 330.403 245.951 334.929C247.901 340.999 247.308 347.577 244.304 353.22C241.299 358.864 236.128 363.112 229.924 365.034Z" fill="#093F68"/>
<path d="M150.011 446.555L122.166 443.358L148.994 405.73L177.657 407.61L150.011 446.555Z" fill="#F56132"/>
<path d="M148.505 404.216C148.161 404.323 147.86 404.532 147.643 404.815L120.83 442.438C120.671 442.663 120.575 442.924 120.549 443.196C120.524 443.468 120.571 443.742 120.685 443.991C120.8 444.24 120.979 444.456 121.204 444.618C121.429 444.78 121.693 444.883 121.97 444.916L149.815 448.113C150.101 448.142 150.39 448.096 150.651 447.98C150.913 447.865 151.139 447.683 151.305 447.454L178.951 408.509C179.118 408.277 179.219 408.007 179.242 407.725C179.266 407.443 179.213 407.16 179.087 406.905C178.961 406.65 178.768 406.432 178.528 406.275C178.287 406.118 178.008 406.026 177.719 406.009L149.056 404.129C148.869 404.13 148.683 404.16 148.505 404.216ZM124.985 442.122L149.731 407.383L174.619 409.012L149.289 444.847L124.985 442.122Z" fill="#093F68"/>
<path d="M149.968 448.216L165.547 467.427L187.505 428.371L177.656 407.61L149.968 448.216Z" fill="#F56132"/>
<path d="M177.168 406.096C176.813 406.204 176.507 406.428 176.3 406.73L148.549 447.355C148.357 447.635 148.26 447.967 148.274 448.304C148.288 448.641 148.411 448.965 148.626 449.229L164.2 468.425C164.367 468.631 164.584 468.793 164.832 468.897C165.079 469.001 165.349 469.043 165.618 469.02C165.911 469.01 166.196 468.923 166.443 468.768C166.689 468.613 166.888 468.395 167.019 468.138L188.992 429.078C189.115 428.86 189.183 428.617 189.191 428.368C189.2 428.12 189.149 427.873 189.042 427.648L179.178 406.891C179.056 406.635 178.867 406.415 178.63 406.254C178.392 406.093 178.115 405.997 177.827 405.976C177.601 405.971 177.377 406.012 177.168 406.096ZM152.049 448.123L177.465 410.814L185.741 428.233L165.328 464.482L152.049 448.123Z" fill="#093F68"/>
<path d="M221.681 338.119C220.872 338.374 220.174 338.888 219.701 339.578L137.076 459.23C136.768 459.632 136.547 460.09 136.426 460.577C136.305 461.064 136.287 461.571 136.372 462.065C136.458 462.56 136.645 463.032 136.923 463.453C137.201 463.875 137.564 464.236 137.99 464.516C138.415 464.796 138.895 464.989 139.399 465.082C139.903 465.176 140.421 465.168 140.922 465.059C141.422 464.95 141.895 464.743 142.312 464.451C142.728 464.158 143.079 463.785 143.344 463.356L225.944 343.678C226.38 343.042 226.604 342.289 226.584 341.524C226.564 340.758 226.302 340.017 225.833 339.404C225.364 338.791 224.712 338.334 223.966 338.099C223.221 337.863 222.419 337.859 221.672 338.088L221.681 338.119Z" fill="#FFBC0E"/>
<path d="M221.193 336.605C220.034 336.966 219.034 337.703 218.36 338.693L135.735 458.346C134.949 459.516 134.67 460.943 134.959 462.314C135.248 463.685 136.082 464.888 137.277 465.658C138.465 466.436 139.918 466.724 141.322 466.46C142.725 466.195 143.965 465.4 144.772 464.246L227.383 344.549C228.006 343.639 228.325 342.562 228.296 341.468C228.266 340.373 227.89 339.314 227.218 338.438C226.547 337.561 225.613 336.911 224.547 336.575C223.481 336.24 222.334 336.236 221.266 336.566L221.193 336.605ZM140.869 463.336C140.443 463.465 139.986 463.461 139.561 463.325C139.137 463.189 138.766 462.928 138.5 462.577C138.234 462.227 138.085 461.804 138.075 461.368C138.065 460.931 138.193 460.502 138.442 460.14L221.042 340.462C221.37 340.012 221.862 339.702 222.417 339.596C222.972 339.49 223.547 339.596 224.025 339.892C224.26 340.047 224.462 340.245 224.619 340.476C224.776 340.707 224.885 340.966 224.94 341.238C224.995 341.511 224.994 341.791 224.938 342.063C224.881 342.334 224.771 342.593 224.613 342.823L142.023 462.531C141.731 462.906 141.323 463.178 140.86 463.306L140.869 463.336Z" fill="#093F68"/>
<path d="M208.504 130.571L289.199 380.669C289.508 381.709 290.21 382.595 291.163 383.148C292.116 383.701 293.248 383.879 294.33 383.646C294.884 383.507 295.403 383.259 295.856 382.917C296.308 382.576 296.685 382.147 296.962 381.658C297.239 381.169 297.411 380.63 297.468 380.074C297.525 379.518 297.465 378.956 297.293 378.423L216.525 128.099C216.19 127.059 215.445 126.192 214.456 125.689C213.467 125.185 212.314 125.087 211.25 125.415C210.186 125.743 209.3 126.47 208.785 127.437C208.27 128.404 208.169 129.532 208.504 130.571Z" fill="#093F68"/>
<path d="M210.761 123.901C212.235 123.447 213.834 123.583 215.205 124.281C216.577 124.978 217.608 126.18 218.073 127.621L298.841 377.946C299.082 378.684 299.167 379.462 299.09 380.234C299.012 381.005 298.774 381.752 298.39 382.43C298.006 383.108 297.484 383.702 296.857 384.176C296.229 384.65 295.509 384.993 294.741 385.184C293.255 385.527 291.69 385.3 290.371 384.549C289.051 383.797 288.077 382.579 287.65 381.146L206.956 131.049C206.491 129.608 206.63 128.045 207.344 126.705C208.058 125.364 209.287 124.356 210.761 123.901ZM294.058 382.066C294.384 381.97 294.687 381.811 294.949 381.599C295.211 381.387 295.427 381.126 295.584 380.831C295.741 380.536 295.836 380.213 295.864 379.881C295.891 379.55 295.85 379.216 295.744 378.9L214.976 128.576C214.77 127.938 214.314 127.406 213.706 127.097C213.099 126.788 212.391 126.727 211.738 126.928C211.085 127.13 210.541 127.576 210.224 128.17C209.908 128.764 209.847 129.456 210.052 130.094L290.747 380.191C290.931 380.843 291.36 381.403 291.948 381.758C292.536 382.114 293.24 382.239 293.919 382.109L294.058 382.066Z" fill="#093F68"/>
<path d="M286.395 105.258C286.295 152.436 285.801 193.644 284.975 233.507C284.925 234.557 285.273 235.588 285.954 236.401C286.634 237.214 287.599 237.753 288.661 237.912C289.246 237.983 289.839 237.932 290.402 237.765C290.965 237.597 291.486 237.315 291.931 236.938C292.376 236.561 292.735 236.096 292.984 235.575C293.234 235.054 293.369 234.487 293.38 233.911C294.223 193.943 294.673 152.599 294.826 105.322C294.829 104.674 294.675 104.035 294.377 103.456C294.08 102.877 293.646 102.376 293.112 101.992C292.579 101.608 291.96 101.353 291.306 101.248C290.652 101.142 289.982 101.189 289.351 101.385C288.503 101.643 287.76 102.156 287.229 102.852C286.698 103.548 286.406 104.39 286.395 105.258Z" fill="#093F68"/>
<path d="M288.847 99.8257C289.723 99.5548 290.652 99.4903 291.559 99.6374C292.465 99.7844 293.323 100.139 294.063 100.672C294.802 101.205 295.403 101.901 295.815 102.704C296.226 103.507 296.438 104.394 296.433 105.292C296.312 152.826 295.839 193.678 294.987 233.882C294.967 234.679 294.777 235.464 294.428 236.185C294.08 236.906 293.582 237.549 292.965 238.071C292.348 238.593 291.627 238.984 290.847 239.218C290.067 239.452 289.245 239.524 288.435 239.43C286.979 239.211 285.655 238.479 284.713 237.371C283.772 236.262 283.279 234.855 283.328 233.416C284.149 193.222 284.624 152.535 284.758 105.197C284.765 103.993 285.165 102.822 285.901 101.855C286.636 100.889 287.669 100.178 288.847 99.8257ZM289.957 236.231C290.471 236.073 290.92 235.761 291.243 235.339C291.565 234.917 291.743 234.407 291.752 233.881C292.604 193.677 293.051 152.799 293.198 105.291C293.199 104.891 293.102 104.496 292.916 104.14C292.73 103.783 292.46 103.475 292.128 103.241C291.804 103.002 291.425 102.843 291.025 102.779C290.625 102.714 290.214 102.744 289.829 102.868C289.308 103.035 288.853 103.356 288.529 103.787C288.204 104.219 288.025 104.738 288.017 105.274C287.971 152.618 287.505 193.385 286.592 233.558C286.541 233.979 286.601 234.405 286.764 234.797C286.926 235.19 287.188 235.536 287.523 235.804C287.859 236.072 288.259 236.253 288.685 236.33C289.111 236.408 289.55 236.379 289.962 236.246L289.957 236.231Z" fill="#093F68"/>
<path d="M133.164 149.49C132.534 149.687 131.96 150.026 131.488 150.479C131.017 150.933 130.661 151.488 130.449 152.101C130.238 152.713 130.177 153.366 130.27 154.006C130.364 154.646 130.611 155.256 130.99 155.785C158.785 194.446 183.451 227.996 207.57 260.218C208.143 261.014 208.98 261.59 209.939 261.85C210.898 262.11 211.92 262.036 212.83 261.642C213.394 261.386 213.894 261.011 214.292 260.543C214.69 260.075 214.977 259.527 215.132 258.938C215.287 258.349 215.307 257.734 215.189 257.136C215.072 256.539 214.82 255.974 214.452 255.484C190.349 223.257 165.73 189.692 137.888 151.046C137.369 150.332 136.633 149.797 135.784 149.517C134.936 149.238 134.018 149.228 133.164 149.49Z" fill="#093F68"/>
<path d="M132.675 147.977C133.858 147.607 135.131 147.618 136.308 148.007C137.484 148.396 138.502 149.143 139.212 150.138C167.17 188.932 191.493 222.106 215.767 254.546C216.267 255.215 216.608 255.985 216.768 256.799C216.928 257.613 216.901 258.451 216.69 259.254C216.478 260.074 216.081 260.838 215.528 261.489C214.976 262.14 214.281 262.663 213.495 263.018C212.245 263.571 210.837 263.682 209.512 263.332C208.188 262.981 207.029 262.19 206.236 261.096C181.973 228.636 157.634 195.467 129.626 156.572C129.098 155.839 128.754 154.995 128.622 154.108C128.49 153.221 128.575 152.316 128.868 151.467C129.161 150.618 129.655 149.848 130.31 149.22C130.965 148.593 131.762 148.125 132.636 147.856L132.675 147.977ZM211.841 260.316L212.135 260.226C212.484 260.069 212.793 259.839 213.039 259.552C213.286 259.265 213.465 258.928 213.563 258.565C213.661 258.202 213.675 257.823 213.605 257.454C213.535 257.085 213.382 256.736 213.158 256.432C188.864 223.981 164.536 190.792 136.533 151.913C136.214 151.477 135.763 151.15 135.243 150.979C134.723 150.808 134.162 150.801 133.638 150.959C133.25 151.079 132.896 151.287 132.607 151.566C132.317 151.845 132.099 152.187 131.97 152.564C131.841 152.942 131.805 153.343 131.865 153.737C131.925 154.13 132.079 154.504 132.315 154.828C160.278 193.636 184.606 226.825 208.87 259.235C209.188 259.695 209.646 260.047 210.178 260.241C210.711 260.435 211.292 260.461 211.841 260.316Z" fill="#093F68"/>
<path d="M221.848 158.261C162.705 176.496 129.882 238.146 148.536 295.961C167.19 353.775 230.257 385.861 289.4 367.626C348.543 349.391 381.366 287.741 362.712 229.926C344.058 172.111 280.991 140.026 221.848 158.261Z" fill="#68E1FD"/>
<path d="M221.354 156.732C242.843 150.103 265.86 149.852 287.495 156.012C309.13 162.171 328.41 174.463 342.898 191.334C357.386 208.205 366.43 228.897 368.887 250.793C371.345 272.69 367.104 294.806 356.703 314.346C346.301 333.887 330.206 349.973 310.452 360.571C290.698 371.169 268.172 375.802 245.724 373.885C223.276 371.968 201.914 363.587 184.338 349.801C166.763 336.016 153.765 317.445 146.987 296.438C137.935 268.271 140.681 237.745 154.622 211.555C168.563 185.364 192.562 165.648 221.354 156.732ZM288.911 366.112C309.79 359.678 328.248 347.336 341.951 330.646C355.654 313.957 363.986 293.67 365.894 272.351C367.801 251.032 363.198 229.639 352.667 210.877C342.137 192.115 326.15 176.828 306.731 166.948C287.312 157.069 265.331 153.04 243.57 155.373C221.808 157.706 201.243 166.294 184.475 180.053C167.707 193.811 155.49 212.122 149.368 232.669C143.247 253.215 143.495 275.075 150.084 295.483C158.942 322.825 178.532 345.617 204.558 358.857C230.584 372.098 260.92 374.707 288.911 366.112Z" fill="#093F68"/>
<path d="M227.635 176.197C178.625 191.308 151.427 242.395 166.884 290.304C182.342 338.212 234.603 364.8 283.612 349.69C332.622 334.579 359.821 283.492 344.363 235.583C328.905 187.675 276.644 161.087 227.635 176.197Z" fill="white"/>
<path d="M227.146 174.684C245.003 169.178 264.13 168.972 282.106 174.092C300.083 179.213 316.103 189.429 328.14 203.449C340.177 217.47 347.691 234.665 349.732 252.859C351.772 271.054 348.247 289.432 339.602 305.668C330.958 321.905 317.583 335.271 301.167 344.076C284.752 352.882 266.034 356.731 247.381 355.138C228.728 353.544 210.977 346.579 196.373 335.124C181.769 323.669 170.968 308.237 165.335 290.781C157.81 267.373 160.091 242.002 171.679 220.236C183.267 198.471 203.215 182.088 227.146 174.684ZM283.119 348.161C300.364 342.844 315.609 332.647 326.926 318.86C338.243 305.073 345.123 288.315 346.696 270.705C348.27 253.095 344.466 235.425 335.766 219.929C327.066 204.433 313.86 191.806 297.819 183.647C281.777 175.488 263.621 172.162 245.646 174.09C227.671 176.018 210.685 183.113 196.835 194.479C182.986 205.844 172.895 220.969 167.839 237.941C162.783 254.913 162.99 272.969 168.432 289.826C175.751 312.412 191.936 331.238 213.436 342.174C234.937 353.11 259.997 355.263 283.119 348.161Z" fill="#093F68"/>
<path d="M234.843 198.539C198.456 209.757 178.262 247.687 189.739 283.257C201.216 318.827 240.017 338.567 276.404 327.349C312.791 316.13 332.985 278.2 321.508 242.63C310.032 207.06 271.231 187.32 234.843 198.539Z" fill="#68E1FD"/>
<path d="M234.34 196.979C247.677 192.851 261.967 192.681 275.403 196.493C288.839 200.305 300.816 207.926 309.82 218.393C318.824 228.86 324.45 241.702 325.987 255.295C327.524 268.888 324.902 282.621 318.453 294.757C312.005 306.893 302.019 316.887 289.759 323.475C277.499 330.063 263.516 332.948 249.578 331.766C235.641 330.584 222.375 325.388 211.458 316.835C200.542 308.281 192.466 296.756 188.252 283.715C182.627 266.239 184.319 247.295 192.958 231.036C201.598 214.777 216.479 202.53 234.34 196.979ZM275.905 325.804C288.643 321.894 299.908 314.377 308.274 304.205C316.639 294.034 321.73 281.665 322.902 268.664C324.074 255.663 321.275 242.615 314.857 231.17C308.44 219.725 298.694 210.398 286.852 204.37C275.01 198.342 261.605 195.883 248.334 197.305C235.062 198.728 222.52 203.966 212.295 212.359C202.071 220.752 194.623 231.921 190.894 244.453C187.165 256.985 187.324 270.316 191.349 282.76C196.746 299.417 208.677 313.304 224.528 321.378C240.379 329.452 258.858 331.054 275.915 325.835L275.905 325.804Z" fill="#093F68"/>
<path d="M241.412 218.896C216.527 226.569 202.716 252.509 210.565 276.836C218.414 301.162 244.95 314.662 269.835 306.99C294.72 299.317 308.531 273.377 300.682 249.051C292.833 224.724 266.297 211.224 241.412 218.896Z" fill="white"/>
<path d="M240.924 217.383C250.141 214.538 260.015 214.429 269.296 217.069C278.578 219.71 286.849 224.982 293.065 232.218C299.281 239.455 303.162 248.331 304.218 257.723C305.273 267.116 303.455 276.604 298.994 284.987C294.532 293.369 287.628 300.271 279.155 304.817C270.681 309.364 261.018 311.352 251.389 310.53C241.759 309.709 232.595 306.114 225.055 300.2C217.516 294.287 211.94 286.32 209.032 277.309C205.148 265.228 206.324 252.134 212.303 240.9C218.281 229.666 228.574 221.208 240.924 217.383ZM269.342 305.461C277.95 302.811 285.56 297.724 291.21 290.845C296.86 283.966 300.296 275.603 301.084 266.814C301.871 258.026 299.974 249.206 295.633 241.472C291.292 233.737 284.702 227.435 276.697 223.362C268.691 219.289 259.63 217.629 250.659 218.591C241.688 219.553 233.211 223.094 226.299 228.767C219.387 234.44 214.351 241.989 211.829 250.459C209.307 258.93 209.411 267.941 212.129 276.354C215.782 287.62 223.856 297.011 234.581 302.467C245.306 307.924 257.806 309 269.342 305.461Z" fill="#093F68"/>
<path d="M247.751 238.543C233.966 242.794 226.315 257.163 230.663 270.639C235.011 284.114 249.711 291.593 263.496 287.343C277.281 283.092 284.932 268.723 280.584 255.247C276.236 241.772 261.536 234.293 247.751 238.543Z" fill="#68E1FD"/>
<path d="M247.262 237.03C252.505 235.413 258.121 235.353 263.399 236.856C268.677 238.36 273.38 241.359 276.914 245.476C280.449 249.592 282.655 254.64 283.254 259.982C283.853 265.325 282.818 270.72 280.28 275.487C277.742 280.254 273.815 284.179 268.995 286.764C264.176 289.349 258.68 290.48 253.203 290.012C247.727 289.544 242.515 287.499 238.227 284.136C233.939 280.772 230.768 276.242 229.114 271.116C226.906 264.244 227.576 256.795 230.978 250.405C234.381 244.015 240.237 239.205 247.262 237.03ZM263.007 285.829C267.638 284.402 271.731 281.664 274.77 277.962C277.809 274.26 279.656 269.761 280.079 265.032C280.502 260.304 279.48 255.56 277.145 251.399C274.809 247.238 271.263 243.847 266.957 241.656C262.65 239.465 257.775 238.571 252.948 239.089C248.122 239.606 243.561 241.51 239.842 244.562C236.123 247.613 233.413 251.673 232.054 256.23C230.696 260.787 230.751 265.635 232.211 270.162C234.177 276.226 238.523 281.282 244.296 284.219C250.069 287.156 256.798 287.735 263.007 285.829Z" fill="#093F68"/>
<path d="M376.306 307.78L397.235 289.544L353.177 273.772L330.805 291.387L376.306 307.78Z" fill="#F56132"/>
<path d="M352.689 272.258C353.033 272.153 353.403 272.155 353.746 272.265L397.789 288.042C398.051 288.137 398.283 288.297 398.464 288.505C398.644 288.714 398.767 288.965 398.819 289.233C398.871 289.501 398.852 289.779 398.763 290.037C398.673 290.296 398.517 290.528 398.309 290.711L377.38 308.947C377.162 309.13 376.899 309.255 376.617 309.307C376.335 309.359 376.043 309.336 375.773 309.242L330.272 292.849C329.999 292.754 329.758 292.588 329.573 292.371C329.388 292.153 329.266 291.891 329.219 291.612C329.172 291.333 329.203 291.047 329.308 290.783C329.412 290.519 329.587 290.287 329.814 290.112L352.187 272.496C352.341 272.392 352.51 272.312 352.689 272.258ZM394.201 290.114L353.543 275.539L334.115 290.832L375.894 305.977L394.201 290.114Z" fill="#093F68"/>
<path d="M377.316 309.116L375.831 333.588L334.924 313.915L330.805 291.387L377.316 309.116Z" fill="#F56132"/>
<path d="M330.317 289.873C330.671 289.762 331.053 289.774 331.4 289.906L377.972 307.615C378.294 307.737 378.568 307.955 378.755 308.239C378.941 308.522 379.03 308.857 379.009 309.193L377.52 333.65C377.504 333.913 377.421 334.168 377.279 334.391C377.138 334.615 376.941 334.801 376.708 334.932C376.462 335.089 376.177 335.178 375.884 335.189C375.591 335.2 375.3 335.134 375.043 334.996L334.12 315.328C333.892 315.218 333.694 315.057 333.541 314.859C333.388 314.66 333.285 314.429 333.241 314.184L329.137 291.652C329.086 291.374 329.112 291.087 329.212 290.823C329.312 290.558 329.483 290.324 329.706 290.145C329.888 290.014 330.096 289.921 330.317 289.873ZM375.557 310.207L332.843 293.904L336.288 312.812L374.282 331.054L375.557 310.207Z" fill="#093F68"/>
<path d="M253.961 259.162C254.773 258.917 255.646 258.947 256.44 259.246L394.339 310.907C394.826 311.063 395.276 311.314 395.661 311.645C396.046 311.977 396.358 312.381 396.579 312.834C396.799 313.287 396.922 313.779 396.942 314.28C396.962 314.781 396.877 315.281 396.693 315.749C396.508 316.217 396.229 316.643 395.871 317.003C395.513 317.362 395.084 317.646 394.61 317.838C394.136 318.03 393.627 318.125 393.114 318.119C392.601 318.113 392.095 318.004 391.626 317.801L253.733 266.106C253.002 265.829 252.377 265.338 251.944 264.7C251.511 264.062 251.291 263.308 251.315 262.543C251.339 261.778 251.606 261.038 252.078 260.427C252.55 259.816 253.204 259.364 253.951 259.132L253.961 259.162Z" fill="#FFBC0E"/>
<path d="M253.473 257.649C254.635 257.294 255.885 257.337 257.019 257.77L394.918 309.43C396.249 309.948 397.315 310.96 397.883 312.245C398.451 313.531 398.474 314.983 397.947 316.285C397.431 317.588 396.409 318.639 395.105 319.21C393.8 319.78 392.318 319.824 390.98 319.332L253.066 267.626C252.021 267.231 251.128 266.528 250.51 265.615C249.891 264.702 249.578 263.624 249.614 262.529C249.65 261.435 250.032 260.378 250.709 259.505C251.385 258.633 252.322 257.987 253.39 257.657L253.473 257.649ZM393.642 316.398C394.067 316.263 394.439 316.004 394.707 315.655C394.975 315.305 395.125 314.883 395.137 314.447C395.15 314.011 395.023 313.581 394.776 313.218C394.528 312.855 394.171 312.576 393.754 312.419L255.861 260.723C255.328 260.539 254.743 260.561 254.226 260.785C253.709 261.009 253.3 261.419 253.083 261.929C252.981 262.188 252.932 262.464 252.939 262.741C252.946 263.018 253.009 263.292 253.124 263.545C253.239 263.799 253.404 264.028 253.609 264.219C253.815 264.41 254.057 264.56 254.322 264.659L392.225 316.385C392.684 316.528 393.178 316.522 393.632 316.367L393.642 316.398Z" fill="#093F68"/>
<path d="M28.5773 73.256V41.448L30.6493 43.016L22.9213 47.104L21.2973 41.84L31.7693 36.24H34.6813V73.256H28.5773ZM22.3613 76V70.176H41.0653V76H22.3613ZM64.1373 76V44.416L65.5373 44.752L52.6573 60.488L52.4333 59.816H76.7933V65.36H48.6813L46.1053 60.32L65.3133 36.8H69.9613V76H64.1373ZM96.1199 76.56C93.1332 76.56 90.5572 75.7387 88.3919 74.096C86.2639 72.4533 84.6212 70.1387 83.4639 67.152C82.3065 64.128 81.7279 60.544 81.7279 56.4C81.7279 52.256 82.3065 48.6907 83.4639 45.704C84.6212 42.68 86.2639 40.3467 88.3919 38.704C90.5572 37.0613 93.1332 36.24 96.1199 36.24C99.1065 36.24 101.683 37.0613 103.848 38.704C106.013 40.3467 107.675 42.68 108.832 45.704C109.989 48.6907 110.568 52.256 110.568 56.4C110.568 60.544 109.989 64.128 108.832 67.152C107.675 70.1387 106.013 72.4533 103.848 74.096C101.683 75.7387 99.1065 76.56 96.1199 76.56ZM96.1199 71.072C98.8452 71.072 100.955 69.8027 102.448 67.264C103.941 64.688 104.688 61.0667 104.688 56.4C104.688 51.7333 103.941 48.1307 102.448 45.592C100.955 43.016 98.8452 41.728 96.1199 41.728C93.3945 41.728 91.2852 43.016 89.7919 45.592C88.2985 48.1307 87.5519 51.7333 87.5519 56.4C87.5519 61.0667 88.2985 64.688 89.7919 67.264C91.2852 69.8027 93.3945 71.072 96.1199 71.072Z" fill="black"/>
<path d="M351.838 553.256V521.448L353.91 523.016L346.182 527.104L344.558 521.84L355.03 516.24H357.942V553.256H351.838ZM345.622 556V550.176H364.326V556H345.622ZM387.398 556V524.416L388.798 524.752L375.918 540.488L375.694 539.816H400.054V545.36H371.942L369.366 540.32L388.574 516.8H393.222V556H387.398ZM419.38 556.56C416.393 556.56 413.817 555.739 411.652 554.096C409.524 552.453 407.881 550.139 406.724 547.152C405.567 544.128 404.988 540.544 404.988 536.4C404.988 532.256 405.567 528.691 406.724 525.704C407.881 522.68 409.524 520.347 411.652 518.704C413.817 517.061 416.393 516.24 419.38 516.24C422.367 516.24 424.943 517.061 427.108 518.704C429.273 520.347 430.935 522.68 432.092 525.704C433.249 528.691 433.828 532.256 433.828 536.4C433.828 540.544 433.249 544.128 432.092 547.152C430.935 550.139 429.273 552.453 427.108 554.096C424.943 555.739 422.367 556.56 419.38 556.56ZM419.38 551.072C422.105 551.072 424.215 549.803 425.708 547.264C427.201 544.688 427.948 541.067 427.948 536.4C427.948 531.733 427.201 528.131 425.708 525.592C424.215 523.016 422.105 521.728 419.38 521.728C416.655 521.728 414.545 523.016 413.052 525.592C411.559 528.131 410.812 531.733 410.812 536.4C410.812 541.067 411.559 544.688 413.052 547.264C414.545 549.803 416.655 551.072 419.38 551.072Z" fill="black"/>
</svg>
