<svg width="71" height="94" viewBox="0 0 71 94" fill="none" xmlns="http://www.w3.org/2000/svg">
<rect x="0.0809326" y="0.782227" width="70.0078" height="92.5047" rx="0.629284" fill="#F7F7F7"/>
<rect x="0.159593" y="0.860887" width="69.8505" height="92.3473" rx="0.550623" stroke="#361D5F" stroke-opacity="0.5" stroke-width="0.157321"/>
<path d="M6.6431 15.2886L6.6431 10.3198L6.86335 10.3726L4.83706 12.8482L4.80182 12.7425L8.63415 12.7425L8.63415 13.6147L4.21155 13.6147L3.80629 12.8218L6.82811 9.1216L7.55934 9.1216L7.55934 15.2886L6.6431 15.2886Z" fill="#232020"/>
<path d="M62.492 89.2207L62.492 84.2519L62.7122 84.3047L60.6859 86.7803L60.6507 86.6746L64.483 86.6746L64.483 87.5468L60.0604 87.5468L59.6552 86.7539L62.677 83.0537L63.4082 83.0537L63.4082 89.2207L62.492 89.2207Z" fill="black"/>
<path d="M37.2048 48.8722C37.2048 48.8722 36.8611 42.0975 37.8113 40.5529C38.7615 39.0083 41.4038 38.0622 43.0212 36.4145C44.962 34.4352 45.423 32.7491 46.8463 32.084C48.0836 31.5078 48.7022 32.3205 48.7022 32.3205C48.7022 32.3205 48.5243 26.9165 48.781 26.3161C49.0378 25.7156 50.2185 24.3874 51.4477 26.3585C52.6769 28.3297 52.6809 34.5727 51.852 38.323C51.0231 42.0732 46.638 44.3254 46.2863 45.2696C45.9345 46.2137 46.0477 48.8722 46.0477 48.8722L37.2048 48.8722Z" fill="#FFC9B0"/>
<path d="M46.0377 49.0742L37.2049 49.0742C37.1513 49.0742 37.0998 49.0529 37.0619 49.015C37.024 48.9771 37.0027 48.9257 37.0027 48.8721C36.9886 48.5931 36.6671 42.0165 37.6315 40.4375C38.1793 39.5439 39.2488 38.8606 40.3668 38.1368C41.2503 37.5687 42.1641 36.9824 42.8697 36.2627C43.5563 35.5472 44.1793 34.7734 44.7317 33.9499C45.3827 33.0239 45.8962 32.2921 46.7534 31.8897C47.5621 31.5177 48.1342 31.6876 48.4799 31.8776C48.4415 30.519 48.3566 26.7667 48.5891 26.2168C48.769 25.7983 49.2866 25.1534 49.978 25.1009C50.5643 25.0584 51.1142 25.4385 51.6095 26.235C52.8832 28.277 52.8832 34.524 52.0361 38.3491C51.4518 40.9773 49.1956 42.8696 47.7016 44.117C47.0951 44.6305 46.5553 45.0753 46.4623 45.33C46.1287 46.2236 46.2358 48.8276 46.2379 48.8519C46.2391 48.8793 46.2347 48.9068 46.225 48.9325C46.2153 48.9582 46.2004 48.9817 46.1813 49.0015C46.1636 49.0228 46.1417 49.0402 46.117 49.0528C46.0923 49.0653 46.0653 49.0726 46.0377 49.0742ZM37.3969 48.6699L45.8295 48.6699C45.8093 48.0128 45.7789 46.0215 46.0862 45.1986C46.2156 44.8509 46.7312 44.4203 47.4448 43.8239C48.8964 42.6108 51.0839 40.7792 51.6439 38.2783C52.4708 34.5584 52.4526 28.372 51.2699 26.4655C50.8655 25.8085 50.4349 25.491 50.0104 25.5234C49.4827 25.5638 49.0763 26.1299 48.9611 26.3947C48.7872 26.7991 48.8297 30.236 48.8984 32.3123C48.8996 32.3549 48.8873 32.3968 48.8632 32.432C48.8391 32.4672 48.8045 32.4938 48.7644 32.5082C48.7243 32.5225 48.6806 32.5238 48.6397 32.5119C48.5988 32.4999 48.5627 32.4754 48.5365 32.4417C48.5143 32.4154 47.9927 31.7705 46.9192 32.2678C46.157 32.6216 45.6698 33.315 45.0531 34.1925C44.4887 35.0339 43.8521 35.8247 43.1507 36.5558C42.4128 37.3079 41.4808 37.9084 40.5771 38.4886C39.4914 39.1841 38.4664 39.8431 37.9691 40.6579C37.1644 41.9902 37.3525 47.56 37.3969 48.6699Z" fill="#093F68"/>
<path d="M44.408 40.4698C44.357 40.4697 44.3078 40.4502 44.2706 40.4152C44.2329 40.3774 44.2118 40.3261 44.2118 40.2727C44.2118 40.2193 44.2329 40.1681 44.2706 40.1302C45.7201 38.5593 47.2121 36.853 48.1118 34.7828C48.4527 34.0225 48.586 33.1853 48.4979 32.3567C48.4933 32.3306 48.4938 32.3038 48.4995 32.2778C48.5052 32.2519 48.516 32.2273 48.5312 32.2055C48.5464 32.1838 48.5658 32.1652 48.5882 32.1509C48.6106 32.1366 48.6355 32.1268 48.6617 32.1222C48.688 32.1176 48.7149 32.1182 48.741 32.124C48.7671 32.1299 48.7917 32.1408 48.8135 32.1562C48.8353 32.1716 48.8539 32.1912 48.868 32.2138C48.8822 32.2365 48.8918 32.2617 48.8962 32.288C49.0026 33.1954 48.8593 34.1146 48.4818 34.9465C47.5457 37.0754 46.0294 38.81 44.5576 40.4051C44.5386 40.4257 44.5154 40.4421 44.4896 40.4532C44.4639 40.4644 44.4361 40.47 44.408 40.4698Z" fill="#093F68"/>
<path d="M36.665 44.3257L47.8673 44.3257L47.8673 50.3746L36.665 50.3746L36.665 44.3257Z" fill="#68E1FD"/>
<path d="M47.8673 50.5763L36.665 50.5763C36.6114 50.5763 36.56 50.555 36.522 50.5171C36.4841 50.4792 36.4628 50.4278 36.4628 50.3742L36.4628 44.3252C36.4628 44.2716 36.4841 44.2202 36.522 44.1823C36.56 44.1443 36.6114 44.123 36.665 44.123L47.8673 44.123C47.9209 44.123 47.9723 44.1443 48.0102 44.1823C48.0481 44.2202 48.0694 44.2716 48.0694 44.3252L48.0694 50.3742C48.0694 50.4278 48.0481 50.4792 48.0102 50.5171C47.9723 50.555 47.9209 50.5763 47.8673 50.5763ZM36.8672 50.172L47.6651 50.172L47.6651 44.5274L36.8672 44.5274L36.8672 50.172Z" fill="#093F68"/>
<path d="M32.8095 48.8722C32.8095 48.8722 33.1532 42.0975 32.203 40.5529C31.2528 39.0083 28.6105 38.0622 26.9931 36.4145C25.0523 34.4352 24.5913 32.7491 23.168 32.084C21.9307 31.5078 21.3121 32.3205 21.3121 32.3205C21.3121 32.3205 21.49 26.9165 21.2333 26.3161C20.9765 25.7156 19.7958 24.3874 18.5666 26.3585C17.3374 28.3297 17.3334 34.5727 18.1623 38.323C18.9912 42.0732 23.3763 44.3254 23.728 45.2696C24.0798 46.2137 23.9666 48.8722 23.9666 48.8722L32.8095 48.8722Z" fill="#FFC9B0"/>
<path d="M32.8097 49.0742L23.9768 49.0742C23.9496 49.0741 23.9227 49.0685 23.8977 49.0577C23.8727 49.0469 23.8501 49.0312 23.8313 49.0115C23.8122 48.9917 23.7973 48.9683 23.7876 48.9425C23.7778 48.9168 23.7734 48.8894 23.7747 48.8619C23.7747 48.8376 23.8838 46.2337 23.5503 45.3401C23.4573 45.0934 22.9256 44.6487 22.311 44.1271C20.8169 42.8797 18.5607 40.9934 17.9764 38.3591C17.1293 34.5422 17.1293 28.287 18.403 26.2451C18.8983 25.4485 19.4442 25.0664 20.0345 25.1109C20.7259 25.1635 21.2475 25.8084 21.4234 26.2269C21.6559 26.7687 21.571 30.521 21.5326 31.8877C21.8783 31.6855 22.4585 31.5278 23.2591 31.8998C24.1184 32.3041 24.6319 33.034 25.2808 33.9599C25.8332 34.7834 26.4563 35.5573 27.1428 36.2727C27.8484 36.9925 28.7602 37.5788 29.6457 38.1469C30.7718 38.8706 31.8332 39.5621 32.3811 40.4476C33.3454 42.0265 33.024 48.6031 33.0098 48.8821C33.0072 48.9336 32.9851 48.9822 32.9479 49.0179C32.9107 49.0536 32.8612 49.0737 32.8097 49.0742ZM24.1851 48.6698L32.6176 48.6698C32.6621 47.5599 32.8501 41.9982 32.0374 40.6578C31.54 39.8491 30.515 39.184 29.4294 38.4885C28.5257 37.9083 27.5937 37.3079 26.8558 36.5558C26.1543 35.8246 25.5178 35.0338 24.9533 34.1924C24.3367 33.315 23.8495 32.6215 23.0873 32.2677C22.0219 31.7704 21.5003 32.4153 21.4699 32.4436C21.4435 32.4771 21.4072 32.5014 21.3662 32.513C21.3252 32.5247 21.2815 32.523 21.2415 32.5083C21.2004 32.4936 21.1652 32.4659 21.1411 32.4294C21.1171 32.393 21.1055 32.3497 21.108 32.3062C21.1768 30.2359 21.2192 26.797 21.0454 26.3886C20.9301 26.1218 20.5238 25.5577 19.9961 25.5173C19.5715 25.4849 19.147 25.8023 18.7366 26.4594C17.5478 28.3719 17.5357 34.5462 18.3626 38.2722C18.9185 40.7731 21.1101 42.6067 22.5616 43.8177C23.2753 44.4142 23.7908 44.8448 23.9202 45.1925C24.2356 46.0234 24.2053 48.0128 24.1851 48.6698Z" fill="#093F68"/>
<path d="M25.6063 40.4699C25.5781 40.4698 25.5502 40.4639 25.5245 40.4524C25.4987 40.4409 25.4756 40.4241 25.4567 40.4032C23.9849 38.8081 22.4686 37.0734 21.5326 34.9446C21.1585 34.1117 21.0187 33.1925 21.1282 32.286C21.1326 32.2597 21.1422 32.2345 21.1564 32.2119C21.1706 32.1893 21.1891 32.1697 21.211 32.1543C21.2328 32.1389 21.2574 32.1279 21.2835 32.1221C21.3095 32.1162 21.3365 32.1156 21.3628 32.1203C21.3889 32.1249 21.4139 32.1346 21.4363 32.1489C21.4587 32.1632 21.478 32.1818 21.4932 32.2036C21.5085 32.2254 21.5192 32.2499 21.5249 32.2759C21.5306 32.3018 21.5312 32.3286 21.5265 32.3548C21.4385 33.1834 21.5717 34.0205 21.9127 34.7808C22.8224 36.8511 24.3145 38.5574 25.7539 40.1282C25.7916 40.1661 25.8127 40.2174 25.8127 40.2708C25.8127 40.3242 25.7916 40.3754 25.7539 40.4133C25.7344 40.4322 25.7112 40.4469 25.6859 40.4566C25.6605 40.4663 25.6335 40.4709 25.6063 40.4699Z" fill="#093F68"/>
<path d="M22.1998 44.3257L33.402 44.3257L33.402 50.3746L22.1998 50.3746L22.1998 44.3257Z" fill="#68E1FD"/>
<path d="M33.4019 50.5763L22.1996 50.5763C22.146 50.5763 22.0946 50.555 22.0567 50.5171C22.0188 50.4792 21.9975 50.4278 21.9975 50.3742L21.9975 44.3252C21.9975 44.2716 22.0188 44.2202 22.0567 44.1823C22.0946 44.1443 22.146 44.123 22.1996 44.123L33.4019 44.123C33.4555 44.123 33.507 44.1443 33.5449 44.1823C33.5828 44.2202 33.6041 44.2716 33.6041 44.3252L33.6041 50.3742C33.6041 50.4278 33.5828 50.4792 33.5449 50.5171C33.507 50.555 33.4555 50.5763 33.4019 50.5763ZM22.4018 50.172L33.1997 50.172L33.1997 44.5274L22.4018 44.5274L22.4018 50.172Z" fill="#093F68"/>
<path d="M35.0072 37.5648C34.5099 37.1039 34.0287 36.6409 33.5313 36.2002C32.1458 34.9737 30.7569 33.7512 29.3646 32.5328C28.4252 31.7369 27.5289 30.8913 26.6798 29.9996C25.9166 29.2077 25.3004 28.2863 24.8602 27.2784C24.581 26.5896 24.3934 25.867 24.3023 25.1293C24.2124 24.4689 24.18 23.8019 24.2052 23.1359C24.3023 20.819 25.7276 18.858 27.8605 18.1544C30.1652 17.3963 32.1768 17.9219 33.9175 19.5959C34.3119 19.9834 34.6563 20.4188 34.9425 20.8918L35.0072 20.9909L35.086 20.8676C35.7088 19.8397 36.6 19.0009 37.6637 18.4415C38.5966 17.956 39.6484 17.7456 40.6963 17.835C41.8665 17.916 42.9795 18.3719 43.8703 19.135C44.8613 19.9686 45.5187 21.1313 45.7222 22.4101C45.8189 23.0736 45.8358 23.7462 45.7728 24.4136C45.7323 25.1286 45.6109 25.8367 45.4109 26.5243C45.0892 27.572 44.5621 28.5452 43.8602 29.387C43.1331 30.253 42.3358 31.0577 41.4767 31.7929C40.205 32.9149 38.9192 34.0167 37.6516 35.1449C36.7843 35.9151 35.9372 36.7117 35.082 37.4941L35.0072 37.5648Z" fill="#F56132"/>
<path d="M35.0073 37.7669C34.9562 37.7668 34.9071 37.7473 34.8698 37.7124L34.4007 37.2757C34.0732 36.9684 33.7336 36.651 33.3899 36.3517C32.2416 35.3328 31.0905 34.322 29.9368 33.3192L29.2333 32.6803C28.2892 31.8788 27.3876 31.0285 26.5323 30.133C25.7527 29.3246 25.1254 28.3822 24.6804 27.3511C24.3933 26.6464 24.2009 25.9068 24.1082 25.1515C24.0175 24.4817 23.9843 23.8053 24.0092 23.1298C24.1103 20.7179 25.5982 18.682 27.8039 17.9643C30.1309 17.1961 32.2355 17.6975 34.0591 19.4523C34.418 19.8036 34.736 20.1942 35.0073 20.6168C35.6404 19.6208 36.5255 18.8097 37.5728 18.2656C38.5379 17.7672 39.6241 17.5513 40.7064 17.6429C41.9192 17.7211 43.0746 18.1875 44.0018 18.9732C45.0288 19.8385 45.7111 21.0437 45.9245 22.3696C46.0231 23.0485 46.0408 23.7366 45.977 24.4196C45.9347 25.1496 45.8106 25.8725 45.6071 26.5748C45.2795 27.6493 44.7391 28.6469 44.018 29.5083C43.283 30.3807 42.4784 31.192 41.6122 31.9343C41.034 32.4438 40.4537 32.9519 39.8715 33.4587C39.176 34.0652 38.4785 34.6717 37.7871 35.2782C37.1907 35.8079 36.5923 36.3598 36.0141 36.8956C35.7492 37.1402 35.4864 37.3848 35.2195 37.6274L35.1427 37.6982C35.1082 37.7379 35.0596 37.7625 35.0073 37.7669ZM29.8438 18.0209C29.193 18.0269 28.5474 18.1368 27.9313 18.3464C25.8873 19.0197 24.5065 20.9019 24.4135 23.1439C24.3889 23.7985 24.4207 24.4539 24.5085 25.103C24.5972 25.8228 24.7808 26.5278 25.0544 27.1995C25.4809 28.1867 26.0822 29.0887 26.8295 29.8621C27.6739 30.7463 28.564 31.5858 29.4961 32.3771L30.2118 33.0038C31.3641 34.0174 32.5158 35.0322 33.6669 36.0485C34.0106 36.3538 34.3502 36.6732 34.6777 36.9805L35.0073 37.2898L35.7371 36.6146C36.3173 36.0808 36.9157 35.5269 37.5162 34.9972C38.2096 34.3907 38.9071 33.7842 39.6046 33.1655C40.1855 32.6601 40.7651 32.1527 41.3433 31.6432C42.1921 30.9128 42.9804 30.115 43.7006 29.2576C44.3877 28.4388 44.9027 27.4899 45.2149 26.4676C45.4135 25.7915 45.5343 25.0949 45.5747 24.3913C45.6367 23.7401 45.6211 23.0839 45.5282 22.4363C45.33 21.2019 44.6959 20.0794 43.741 19.2724C42.8745 18.5448 41.7974 18.1146 40.668 18.0452C39.6604 17.9603 38.6492 18.1614 37.7507 18.6254C36.7175 19.1646 35.8529 19.9782 35.2519 20.9767L35.171 21.1C35.1527 21.1285 35.1276 21.1519 35.098 21.1681C35.0683 21.1844 35.035 21.1929 35.0012 21.193C34.9679 21.1906 34.9354 21.1811 34.9061 21.165C34.8768 21.149 34.8513 21.1268 34.8314 21.1L34.7647 20.9969C34.4891 20.5391 34.1577 20.1174 33.7781 19.7414C32.5812 18.5971 31.2711 18.0209 29.8438 18.0209Z" fill="#093F68"/>
<path d="M37.4778 31.4106L37.4637 31.4106C37.4213 31.4077 37.3809 31.3914 37.3482 31.3642C37.3155 31.337 37.2923 31.3002 37.2817 31.259L35.2904 23.1782L32.5226 29.6477C32.5078 29.6823 32.4836 29.7122 32.4528 29.7338C32.4219 29.7555 32.3856 29.7681 32.348 29.7702C32.3103 29.7723 32.2729 29.7638 32.2398 29.7457C32.2067 29.7277 32.1793 29.7007 32.1608 29.6679L30.505 26.7526L25.202 26.7526C25.1484 26.7526 25.097 26.7313 25.0591 26.6934C25.0212 26.6555 24.9999 26.604 24.9999 26.5504C24.9999 26.4968 25.0212 26.4454 25.0591 26.4075C25.097 26.3695 25.1484 26.3482 25.202 26.3482L30.6222 26.3482C30.6581 26.3483 30.6932 26.3579 30.7241 26.376C30.755 26.3941 30.7806 26.4201 30.7981 26.4513L32.3124 29.1139L35.1569 22.4565C35.1737 22.4176 35.2022 22.385 35.2385 22.3633C35.2748 22.3415 35.3169 22.3317 35.3591 22.3352C35.4012 22.3385 35.4411 22.3549 35.4734 22.3821C35.5057 22.4093 35.5286 22.4459 35.539 22.4868L37.5243 30.5372L39.7826 24.8623C39.7976 24.8247 39.8235 24.7924 39.857 24.7697C39.8906 24.747 39.9301 24.7349 39.9706 24.7349L45.1159 24.7349C45.1695 24.7349 45.2209 24.7562 45.2588 24.7941C45.2967 24.832 45.318 24.8835 45.318 24.9371C45.318 24.9907 45.2967 25.0421 45.2588 25.08C45.2209 25.118 45.1695 25.1393 45.1159 25.1393L40.1081 25.1393L37.6659 31.2731C37.6525 31.3126 37.6273 31.347 37.5936 31.3717C37.56 31.3963 37.5195 31.4099 37.4778 31.4106Z" fill="white"/>
<path d="M37.2048 45.2777C37.2048 45.2777 36.8611 52.0524 37.8113 53.597C38.7615 55.1416 41.4038 56.0877 43.0212 57.7354C44.962 59.7147 45.423 61.4008 46.8463 62.0659C48.0836 62.6421 48.7022 61.8294 48.7022 61.8294C48.7022 61.8294 48.5243 67.2334 48.781 67.8338C49.0378 68.4343 50.2185 69.7625 51.4477 67.7914C52.6769 65.8202 52.6809 59.5772 51.852 55.8269C51.0231 52.0767 46.638 49.8245 46.2863 48.8803C45.9345 47.9362 46.0477 45.2777 46.0477 45.2777L37.2048 45.2777Z" fill="#FFC9B0"/>
<path d="M46.0377 45.0757L37.2049 45.0757C37.1513 45.0757 37.0998 45.097 37.0619 45.1349C37.024 45.1728 37.0027 45.2242 37.0027 45.2778C36.9886 45.5568 36.6671 52.1334 37.6315 53.7124C38.1793 54.606 39.2488 55.2893 40.3668 56.0131C41.2503 56.5812 42.1641 57.1675 42.8697 57.8872C43.5563 58.6027 44.1793 59.3765 44.7317 60.2C45.3827 61.126 45.8962 61.8578 46.7534 62.2602C47.5621 62.6322 48.1342 62.4623 48.4799 62.2723C48.4415 63.6309 48.3566 67.3832 48.5891 67.9331C48.769 68.3516 49.2866 68.9965 49.978 69.049C50.5643 69.0915 51.1142 68.7114 51.6095 67.9149C52.8832 65.8729 52.8832 59.6259 52.0361 55.8008C51.4518 53.1726 49.1956 51.2803 47.7016 50.0329C47.0951 49.5194 46.5553 49.0746 46.4623 48.8199C46.1287 47.9263 46.2358 45.3223 46.2379 45.298C46.2391 45.2706 46.2347 45.2431 46.225 45.2174C46.2153 45.1917 46.2004 45.1682 46.1813 45.1484C46.1636 45.1271 46.1417 45.1097 46.117 45.0972C46.0923 45.0846 46.0653 45.0773 46.0377 45.0757ZM37.3969 45.48L45.8295 45.48C45.8093 46.1371 45.7789 48.1284 46.0862 48.9513C46.2156 49.299 46.7312 49.7296 47.4448 50.326C48.8964 51.5391 51.0839 53.3707 51.6439 55.8716C52.4708 59.5915 52.4526 65.7779 51.2699 67.6844C50.8655 68.3414 50.4349 68.6589 50.0104 68.6265C49.4827 68.5861 49.0763 68.02 48.9611 67.7552C48.7872 67.3508 48.8297 63.9139 48.8984 61.8376C48.8996 61.795 48.8873 61.7531 48.8632 61.7179C48.8391 61.6827 48.8045 61.6561 48.7644 61.6417C48.7243 61.6274 48.6806 61.6261 48.6397 61.638C48.5988 61.65 48.5627 61.6745 48.5365 61.7082C48.5143 61.7345 47.9927 62.3794 46.9192 61.8821C46.157 61.5283 45.6698 60.8349 45.0531 59.9574C44.4887 59.116 43.8521 58.3252 43.1507 57.5941C42.4128 56.842 41.4808 56.2415 40.5771 55.6613C39.4914 54.9658 38.4664 54.3068 37.9691 53.492C37.1644 52.1597 37.3525 46.5899 37.3969 45.48Z" fill="#093F68"/>
<path d="M44.408 53.6801C44.357 53.6802 44.3078 53.6997 44.2706 53.7347C44.2329 53.7725 44.2118 53.8238 44.2118 53.8772C44.2118 53.9306 44.2329 53.9818 44.2706 54.0197C45.7201 55.5906 47.2121 57.2969 48.1118 59.3671C48.4527 60.1274 48.586 60.9646 48.4979 61.7932C48.4933 61.8193 48.4938 61.8461 48.4995 61.8721C48.5052 61.898 48.516 61.9226 48.5312 61.9444C48.5464 61.9661 48.5658 61.9847 48.5882 61.999C48.6106 62.0133 48.6355 62.0231 48.6617 62.0277C48.688 62.0323 48.7149 62.0317 48.741 62.0259C48.7671 62.02 48.7917 62.0091 48.8135 61.9937C48.8353 61.9783 48.8539 61.9587 48.868 61.9361C48.8822 61.9135 48.8918 61.8882 48.8962 61.8619C49.0026 60.9545 48.8593 60.0353 48.4818 59.2034C47.5457 57.0745 46.0294 55.3399 44.5576 53.7448C44.5386 53.7242 44.5154 53.7078 44.4896 53.6967C44.4639 53.6855 44.4361 53.6799 44.408 53.6801Z" fill="#093F68"/>
<path d="M36.665 49.8247L47.8673 49.8247L47.8673 43.7758L36.665 43.7758L36.665 49.8247Z" fill="#68E1FD"/>
<path d="M47.8673 43.5736L36.665 43.5736C36.6114 43.5736 36.56 43.5949 36.522 43.6328C36.4841 43.6707 36.4628 43.7221 36.4628 43.7757L36.4628 49.8247C36.4628 49.8783 36.4841 49.9297 36.522 49.9676C36.56 50.0056 36.6114 50.0269 36.665 50.0269L47.8673 50.0269C47.9209 50.0269 47.9723 50.0056 48.0102 49.9676C48.0481 49.9297 48.0694 49.8783 48.0694 49.8247L48.0694 43.7757C48.0694 43.7221 48.0481 43.6707 48.0102 43.6328C47.9723 43.5949 47.9209 43.5736 47.8673 43.5736ZM36.8672 43.9779L47.6651 43.9779L47.6651 49.6225L36.8672 49.6225L36.8672 43.9779Z" fill="#093F68"/>
<path d="M32.8095 45.2777C32.8095 45.2777 33.1532 52.0524 32.203 53.597C31.2528 55.1416 28.6105 56.0877 26.9931 57.7354C25.0523 59.7147 24.5913 61.4008 23.168 62.0659C21.9307 62.6421 21.3121 61.8294 21.3121 61.8294C21.3121 61.8294 21.49 67.2334 21.2333 67.8338C20.9765 68.4343 19.7958 69.7625 18.5666 67.7914C17.3374 65.8202 17.3334 59.5772 18.1623 55.8269C18.9912 52.0767 23.3763 49.8245 23.728 48.8803C24.0798 47.9362 23.9666 45.2777 23.9666 45.2777L32.8095 45.2777Z" fill="#FFC9B0"/>
<path d="M32.8097 45.0757L23.9768 45.0757C23.9496 45.0758 23.9227 45.0814 23.8977 45.0922C23.8727 45.103 23.8501 45.1187 23.8313 45.1384C23.8122 45.1582 23.7973 45.1816 23.7876 45.2074C23.7778 45.2331 23.7734 45.2605 23.7747 45.288C23.7747 45.3123 23.8838 47.9162 23.5503 48.8098C23.4573 49.0565 22.9256 49.5012 22.311 50.0228C20.8169 51.2702 18.5607 53.1565 17.9764 55.7908C17.1293 59.6077 17.1293 65.8629 18.403 67.9048C18.8983 68.7014 19.4442 69.0835 20.0345 69.039C20.7259 68.9864 21.2475 68.3415 21.4234 67.923C21.6559 67.3812 21.571 63.6289 21.5326 62.2622C21.8783 62.4644 22.4585 62.6221 23.2591 62.2501C24.1184 61.8458 24.6319 61.1159 25.2808 60.19C25.8332 59.3665 26.4563 58.5926 27.1428 57.8772C27.8484 57.1574 28.7602 56.5711 29.6457 56.003C30.7718 55.2793 31.8332 54.5878 32.3811 53.7023C33.3454 52.1234 33.024 45.5468 33.0098 45.2678C33.0072 45.2163 32.9851 45.1677 32.9479 45.132C32.9107 45.0963 32.8612 45.0762 32.8097 45.0757ZM24.1851 45.4801L32.6176 45.4801C32.6621 46.59 32.8501 52.1517 32.0374 53.4921C31.54 54.3008 30.515 54.9659 29.4294 55.6614C28.5257 56.2416 27.5937 56.842 26.8558 57.5941C26.1543 58.3253 25.5178 59.1161 24.9533 59.9575C24.3367 60.8349 23.8495 61.5284 23.0873 61.8822C22.0219 62.3795 21.5003 61.7346 21.4699 61.7063C21.4435 61.6728 21.4072 61.6485 21.3662 61.6369C21.3252 61.6252 21.2815 61.6269 21.2415 61.6416C21.2004 61.6563 21.1652 61.684 21.1411 61.7205C21.1171 61.7569 21.1055 61.8002 21.108 61.8437C21.1768 63.914 21.2192 67.3529 21.0454 67.7613C20.9301 68.0281 20.5238 68.5922 19.9961 68.6326C19.5715 68.665 19.147 68.3476 18.7366 67.6905C17.5478 65.778 17.5357 59.6037 18.3626 55.8777C18.9185 53.3768 21.1101 51.5432 22.5616 50.3322C23.2753 49.7358 23.7908 49.3051 23.9202 48.9574C24.2356 48.1265 24.2053 46.1371 24.1851 45.4801Z" fill="#093F68"/>
<path d="M25.6063 53.68C25.5781 53.6801 25.5502 53.686 25.5245 53.6975C25.4987 53.709 25.4756 53.7258 25.4567 53.7467C23.9849 55.3418 22.4686 57.0765 21.5326 59.2053C21.1585 60.0382 21.0187 60.9574 21.1282 61.8639C21.1326 61.8902 21.1422 61.9154 21.1564 61.938C21.1706 61.9606 21.1891 61.9802 21.211 61.9956C21.2328 62.011 21.2574 62.022 21.2835 62.0278C21.3095 62.0337 21.3365 62.0343 21.3628 62.0296C21.3889 62.025 21.4139 62.0153 21.4363 62.001C21.4587 61.9867 21.478 61.9681 21.4932 61.9463C21.5085 61.9245 21.5192 61.9 21.5249 61.874C21.5306 61.8481 21.5312 61.8213 21.5265 61.7951C21.4385 60.9665 21.5717 60.1294 21.9127 59.3691C22.8224 57.2989 24.3145 55.5925 25.7539 54.0217C25.7916 53.9838 25.8127 53.9325 25.8127 53.8791C25.8127 53.8257 25.7916 53.7745 25.7539 53.7366C25.7344 53.7177 25.7112 53.703 25.6859 53.6933C25.6605 53.6836 25.6335 53.679 25.6063 53.68Z" fill="#093F68"/>
<path d="M22.1998 49.8247L33.402 49.8247L33.402 43.7758L22.1998 43.7758L22.1998 49.8247Z" fill="#68E1FD"/>
<path d="M33.4019 43.5736L22.1996 43.5736C22.146 43.5736 22.0946 43.5949 22.0567 43.6328C22.0188 43.6707 21.9975 43.7221 21.9975 43.7757L21.9975 49.8247C21.9975 49.8783 22.0188 49.9297 22.0567 49.9676C22.0946 50.0056 22.146 50.0269 22.1996 50.0269L33.4019 50.0269C33.4555 50.0269 33.507 50.0056 33.5449 49.9676C33.5828 49.9297 33.6041 49.8783 33.6041 49.8247L33.6041 43.7757C33.6041 43.7221 33.5828 43.6707 33.5449 43.6328C33.507 43.5949 33.4555 43.5736 33.4019 43.5736ZM22.4018 43.9779L33.1997 43.9779L33.1997 49.6225L22.4018 49.6225L22.4018 43.9779Z" fill="#093F68"/>
<path d="M35.0072 56.5851C34.5099 57.046 34.0287 57.509 33.5313 57.9497C32.1458 59.1762 30.7569 60.3987 29.3646 61.6171C28.4252 62.413 27.5289 63.2587 26.6798 64.1503C25.9166 64.9422 25.3004 65.8636 24.8602 66.8715C24.581 67.5604 24.3934 68.2829 24.3023 69.0206C24.2124 69.681 24.18 70.348 24.2052 71.014C24.3023 73.3309 25.7276 75.2919 27.8605 75.9955C30.1652 76.7536 32.1768 76.228 33.9175 74.554C34.3119 74.1665 34.6563 73.7311 34.9425 73.2581L35.0072 73.159L35.086 73.2823C35.7088 74.3102 36.6 75.149 37.6637 75.7084C38.5966 76.1939 39.6484 76.4043 40.6963 76.3149C41.8665 76.2339 42.9795 75.778 43.8703 75.0149C44.8613 74.1813 45.5187 73.0186 45.7222 71.7398C45.8189 71.0763 45.8358 70.4037 45.7728 69.7363C45.7323 69.0213 45.6109 68.3132 45.4109 67.6256C45.0892 66.5779 44.5621 65.6047 43.8602 64.7629C43.1331 63.8969 42.3358 63.0922 41.4767 62.357C40.205 61.235 38.9192 60.1332 37.6516 59.005C36.7843 58.2348 35.9372 57.4382 35.082 56.6558L35.0072 56.5851Z" fill="#F56132"/>
<path d="M35.0073 56.383C34.9562 56.3831 34.9071 56.4026 34.8698 56.4375L34.4007 56.8742C34.0732 57.1815 33.7336 57.4989 33.3899 57.7982C32.2416 58.8171 31.0905 59.8279 29.9368 60.8307L29.2333 61.4696C28.2892 62.2711 27.3876 63.1214 26.5323 64.0169C25.7527 64.8253 25.1254 65.7677 24.6804 66.7988C24.3933 67.5035 24.2009 68.2431 24.1082 68.9984C24.0175 69.6682 23.9843 70.3446 24.0092 71.0201C24.1103 73.432 25.5982 75.4679 27.8039 76.1856C30.1309 76.9538 32.2355 76.4524 34.0591 74.6976C34.418 74.3463 34.736 73.9557 35.0073 73.5331C35.6404 74.5291 36.5255 75.3402 37.5728 75.8843C38.5379 76.3827 39.6241 76.5986 40.7064 76.507C41.9192 76.4288 43.0746 75.9624 44.0018 75.1767C45.0288 74.3114 45.7111 73.1062 45.9245 71.7803C46.0231 71.1014 46.0408 70.4133 45.977 69.7303C45.9347 69.0003 45.8106 68.2774 45.6071 67.5751C45.2795 66.5006 44.7391 65.503 44.018 64.6416C43.283 63.7692 42.4784 62.9579 41.6122 62.2156C41.034 61.7061 40.4537 61.198 39.8715 60.6912C39.176 60.0847 38.4785 59.4782 37.7871 58.8717C37.1907 58.342 36.5923 57.7901 36.0141 57.2543C35.7492 57.0097 35.4864 56.7651 35.2195 56.5225L35.1427 56.4517C35.1082 56.412 35.0596 56.3874 35.0073 56.383ZM29.8438 76.129C29.193 76.123 28.5474 76.0131 27.9313 75.8035C25.8873 75.1302 24.5065 73.248 24.4135 71.006C24.3889 70.3514 24.4207 69.696 24.5085 69.0469C24.5972 68.3271 24.7808 67.6221 25.0544 66.9504C25.4809 65.9632 26.0822 65.0612 26.8295 64.2878C27.6739 63.4036 28.564 62.5641 29.4961 61.7728L30.2118 61.1461C31.3641 60.1325 32.5158 59.1177 33.6669 58.1014C34.0106 57.7961 34.3502 57.4767 34.6777 57.1694L35.0073 56.8601L35.7371 57.5353C36.3173 58.0691 36.9157 58.623 37.5162 59.1527C38.2096 59.7592 38.9071 60.3657 39.6046 60.9844C40.1855 61.4898 40.7651 61.9972 41.3433 62.5067C42.1921 63.2371 42.9804 64.0349 43.7006 64.8923C44.3877 65.7111 44.9027 66.66 45.2149 67.6823C45.4135 68.3584 45.5343 69.055 45.5747 69.7586C45.6367 70.4098 45.6211 71.066 45.5282 71.7136C45.33 72.948 44.6959 74.0705 43.741 74.8775C42.8745 75.6051 41.7974 76.0353 40.668 76.1047C39.6604 76.1896 38.6492 75.9885 37.7507 75.5245C36.7175 74.9853 35.8529 74.1717 35.2519 73.1732L35.171 73.0499C35.1527 73.0214 35.1276 72.998 35.098 72.9818C35.0683 72.9655 35.035 72.957 35.0012 72.9569C34.9679 72.9593 34.9354 72.9688 34.9061 72.9849C34.8768 73.0009 34.8513 73.0231 34.8314 73.0499L34.7647 73.153C34.4891 73.6108 34.1577 74.0325 33.7781 74.4085C32.5812 75.5528 31.2711 76.129 29.8438 76.129Z" fill="#093F68"/>
<path d="M37.4778 62.7393L37.4637 62.7393C37.4213 62.7422 37.3809 62.7585 37.3482 62.7857C37.3155 62.8129 37.2923 62.8497 37.2817 62.8909L35.2904 70.9717L32.5226 64.5022C32.5078 64.4676 32.4836 64.4377 32.4528 64.4161C32.4219 64.3944 32.3856 64.3818 32.348 64.3797C32.3103 64.3776 32.2729 64.3861 32.2398 64.4042C32.2067 64.4223 32.1793 64.4492 32.1608 64.482L30.505 67.3973L25.202 67.3973C25.1484 67.3973 25.097 67.4186 25.0591 67.4565C25.0212 67.4944 24.9999 67.5459 24.9999 67.5995C24.9999 67.6531 25.0212 67.7045 25.0591 67.7424C25.097 67.7804 25.1484 67.8017 25.202 67.8017L30.6222 67.8017C30.6581 67.8016 30.6932 67.792 30.7241 67.7739C30.755 67.7558 30.7806 67.7298 30.7981 67.6986L32.3124 65.036L35.1569 71.6934C35.1737 71.7323 35.2022 71.7649 35.2385 71.7866C35.2748 71.8084 35.3169 71.8182 35.3591 71.8147C35.4012 71.8114 35.4411 71.795 35.4734 71.7678C35.5057 71.7406 35.5286 71.704 35.539 71.6631L37.5243 63.6127L39.7826 69.2876C39.7976 69.3252 39.8235 69.3575 39.857 69.3802C39.8906 69.4029 39.9301 69.415 39.9706 69.415L45.1159 69.415C45.1695 69.415 45.2209 69.3937 45.2588 69.3558C45.2967 69.3179 45.318 69.2664 45.318 69.2128C45.318 69.1592 45.2967 69.1078 45.2588 69.0699C45.2209 69.0319 45.1695 69.0106 45.1159 69.0106L40.1081 69.0106L37.6659 62.8768C37.6525 62.8373 37.6273 62.8029 37.5936 62.7783C37.56 62.7536 37.5195 62.74 37.4778 62.7393Z" fill="white"/>
<rect x="6.68848" y="31.1426" width="0.629283" height="53.3318" fill="#232020"/>
<rect x="62.5375" y="10.5361" width="0.629283" height="53.3318" fill="#232020"/>
<path fill-rule="evenodd" clip-rule="evenodd" d="M6.87316 23.6028L7.18978 23.8981C8.00117 24.6547 9.27272 24.6099 10.0294 23.7985C10.786 22.9871 10.742 21.7155 9.93063 20.9589L6.71489 17.9602L6.70583 17.9699L3.6628 21.1689C2.90082 21.9699 2.93243 23.237 3.73341 23.9991C4.53439 24.7611 5.80142 24.7295 6.56341 23.9285L6.87316 23.6028Z" fill="#24133F"/>
<path fill-rule="evenodd" clip-rule="evenodd" d="M59.5116 76.3526L62.5637 79.5612L62.5638 79.5613L65.7796 76.5626C66.591 75.806 66.635 74.5344 65.8783 73.723C65.1217 72.9116 63.8501 72.8668 63.0387 73.6234L62.722 73.9187L62.4122 73.593C61.6502 72.792 60.3832 72.7604 59.5822 73.5224C58.7812 74.2845 58.7496 75.5516 59.5116 76.3526Z" fill="#24133F"/>
<rect x="6.68848" y="25.1646" width="0.629283" height="1.73053" fill="#232020"/>
<rect x="62.5375" y="65.7559" width="0.629283" height="1.73053" fill="#232020"/>
<rect x="6.68848" y="27.5244" width="0.629283" height="1.73053" fill="#232020"/>
<rect x="62.5375" y="68.1152" width="0.629283" height="1.73053" fill="#232020"/>
</svg>
