<svg width="459" height="607" viewBox="0 0 459 607" fill="none" xmlns="http://www.w3.org/2000/svg">
<rect width="459" height="606.499" rx="4.12584" fill="#F7F7F7"/>
<rect x="0.51573" y="0.51573" width="457.969" height="605.467" rx="3.61011" stroke="#361D5F" stroke-opacity="0.5" stroke-width="1.03146"/>
<path d="M44.3322 94L44.3322 61.4223L45.7762 61.7689L32.491 78L32.2599 77.3068L57.3863 77.3068L57.3863 83.0253L28.3899 83.0253L25.7329 77.8267L45.5452 53.5667L50.3394 53.5667L50.3394 94L44.3322 94ZM77.3209 94.5776C74.2403 94.5776 71.5832 93.7304 69.3498 92.0361C67.1548 90.3418 65.4605 87.9543 64.2667 84.8736C63.073 81.7545 62.4761 78.0577 62.4761 73.7834C62.4761 69.509 63.073 65.8315 64.2667 62.7509C65.4605 59.6317 67.1548 57.225 69.3498 55.5306C71.5832 53.8363 74.2403 52.9891 77.3209 52.9891C80.4015 52.9891 83.0586 53.8363 85.292 55.5306C87.5255 57.225 89.2391 59.6317 90.4328 62.7509C91.6266 65.8315 92.2235 69.509 92.2235 73.7834C92.2235 78.0577 91.6266 81.7545 90.4328 84.8736C89.2391 87.9543 87.5255 90.3418 85.292 92.0361C83.0586 93.7304 80.4015 94.5776 77.3209 94.5776ZM77.3209 88.917C80.132 88.917 82.3077 87.6077 83.848 84.9892C85.3883 82.3321 86.1585 78.5969 86.1585 73.7834C86.1585 68.9699 85.3883 65.2539 83.848 62.6353C82.3077 59.9783 80.132 58.6498 77.3209 58.6498C74.5098 58.6498 72.3341 59.9783 70.7938 62.6353C69.2535 65.2539 68.4833 68.9699 68.4833 73.7834C68.4833 78.5969 69.2535 82.3321 70.7938 84.9892C72.3341 87.6077 74.5098 88.917 77.3209 88.917Z" fill="#232020"/>
<path d="M384.332 556L384.332 523.422L385.776 523.769L372.491 540L372.26 539.307L397.386 539.307L397.386 545.025L368.39 545.025L365.733 539.827L385.545 515.567L390.339 515.567L390.339 556L384.332 556ZM417.321 556.578C414.24 556.578 411.583 555.73 409.35 554.036C407.155 552.342 405.46 549.954 404.267 546.874C403.073 543.754 402.476 540.058 402.476 535.783C402.476 531.509 403.073 527.831 404.267 524.751C405.46 521.632 407.155 519.225 409.35 517.531C411.583 515.836 414.24 514.989 417.321 514.989C420.402 514.989 423.059 515.836 425.292 517.531C427.525 519.225 429.239 521.632 430.433 524.751C431.627 527.831 432.223 531.509 432.223 535.783C432.223 540.058 431.627 543.754 430.433 546.874C429.239 549.954 427.525 552.342 425.292 554.036C423.059 555.73 420.402 556.578 417.321 556.578ZM417.321 550.917C420.132 550.917 422.308 549.608 423.848 546.989C425.388 544.332 426.158 540.597 426.158 535.783C426.158 530.97 425.388 527.254 423.848 524.635C422.308 521.978 420.132 520.65 417.321 520.65C414.51 520.65 412.334 521.978 410.794 524.635C409.254 527.254 408.483 530.97 408.483 535.783C408.483 540.597 409.254 544.332 410.794 546.989C412.334 549.608 414.51 550.917 417.321 550.917Z" fill="black"/>
<path d="M243.399 315.3C243.399 315.3 241.146 270.882 247.376 260.755C253.605 250.628 270.93 244.424 281.534 233.621C294.259 220.645 297.281 209.59 306.613 205.229C314.725 201.451 318.781 206.78 318.781 206.78C318.781 206.78 317.615 171.349 319.298 167.412C320.981 163.475 328.722 154.767 336.781 167.69C344.841 180.614 344.867 221.546 339.432 246.134C333.998 270.723 305.247 285.489 302.941 291.679C300.635 297.869 301.377 315.3 301.377 315.3L243.399 315.3Z" fill="#FFC9B0"/>
<path d="M301.311 316.624L243.4 316.624C243.048 316.624 242.711 316.484 242.462 316.236C242.214 315.987 242.074 315.65 242.074 315.298C241.981 313.469 239.874 270.35 246.197 259.998C249.789 254.139 256.801 249.659 264.131 244.914C269.923 241.189 275.915 237.345 280.541 232.626C285.042 227.935 289.127 222.861 292.749 217.462C297.017 211.391 300.384 206.593 306.004 203.955C311.306 201.516 315.057 202.63 317.324 203.876C317.072 194.968 316.515 170.367 318.039 166.761C319.219 164.018 322.612 159.789 327.146 159.445C330.99 159.166 334.595 161.658 337.843 166.881C346.193 180.268 346.193 221.227 340.639 246.305C336.809 263.537 322.016 275.944 312.22 284.122C308.244 287.489 304.705 290.405 304.095 292.075C301.908 297.934 302.61 315.007 302.624 315.166C302.632 315.346 302.603 315.526 302.539 315.695C302.475 315.863 302.378 316.017 302.252 316.147C302.137 316.287 301.993 316.401 301.831 316.483C301.67 316.565 301.493 316.613 301.311 316.624ZM244.659 313.973L299.946 313.973C299.814 309.665 299.615 296.609 301.63 291.214C302.478 288.934 305.858 286.111 310.537 282.2C320.054 274.247 334.396 262.238 338.068 245.842C343.489 221.452 343.37 180.891 335.616 168.392C332.965 164.084 330.141 162.003 327.358 162.215C323.898 162.48 321.234 166.191 320.478 167.928C319.338 170.579 319.617 193.113 320.067 206.726C320.075 207.005 319.994 207.28 319.836 207.51C319.679 207.741 319.452 207.916 319.189 208.01C318.925 208.104 318.639 208.113 318.371 208.034C318.103 207.956 317.866 207.795 317.695 207.574C317.549 207.402 314.129 203.173 307.091 206.434C302.093 208.754 298.899 213.3 294.856 219.053C291.155 224.57 286.982 229.754 282.383 234.548C277.545 239.479 271.434 243.416 265.509 247.22C258.391 251.78 251.671 256.101 248.41 261.443C243.135 270.178 244.367 306.696 244.659 313.973Z" fill="#093F68"/>
<path d="M290.625 260.21C290.291 260.209 289.969 260.081 289.724 259.852C289.477 259.604 289.339 259.268 289.339 258.918C289.339 258.568 289.477 258.232 289.724 257.983C299.228 247.684 309.01 236.497 314.909 222.923C317.144 217.938 318.018 212.45 317.441 207.017C317.41 206.846 317.414 206.67 317.451 206.5C317.488 206.33 317.559 206.169 317.659 206.026C317.758 205.883 317.885 205.761 318.032 205.668C318.179 205.574 318.343 205.51 318.514 205.48C318.687 205.449 318.863 205.453 319.034 205.492C319.205 205.53 319.367 205.602 319.51 205.703C319.653 205.804 319.774 205.932 319.867 206.08C319.96 206.229 320.023 206.394 320.052 206.567C320.749 212.516 319.81 218.542 317.335 223.997C311.197 237.955 301.256 249.328 291.606 259.786C291.481 259.921 291.329 260.028 291.16 260.101C290.992 260.174 290.809 260.211 290.625 260.21Z" fill="#093F68"/>
<path d="M239.86 285.489L313.306 285.489L313.306 325.148L239.86 325.148L239.86 285.489Z" fill="#68E1FD"/>
<path d="M313.307 326.472L239.86 326.472C239.508 326.472 239.171 326.333 238.923 326.084C238.674 325.835 238.534 325.498 238.534 325.147L238.534 285.487C238.534 285.136 238.674 284.799 238.923 284.55C239.171 284.302 239.508 284.162 239.86 284.162L313.307 284.162C313.658 284.162 313.995 284.302 314.244 284.55C314.493 284.799 314.632 285.136 314.632 285.487L314.632 325.147C314.632 325.498 314.493 325.835 314.244 326.084C313.995 326.333 313.658 326.472 313.307 326.472ZM241.185 323.821L311.981 323.821L311.981 286.813L241.185 286.813L241.185 323.821Z" fill="#093F68"/>
<path d="M214.581 315.3C214.581 315.3 216.835 270.882 210.605 260.755C204.375 250.628 187.05 244.424 176.446 233.621C163.721 220.645 160.699 209.59 151.367 205.229C143.255 201.451 139.199 206.78 139.199 206.78C139.199 206.78 140.366 171.349 138.682 167.412C136.999 163.475 129.258 154.767 121.199 167.69C113.14 180.614 113.113 221.546 118.548 246.134C123.982 270.723 152.733 285.489 155.039 291.679C157.346 297.869 156.603 315.3 156.603 315.3L214.581 315.3Z" fill="#FFC9B0"/>
<path d="M214.582 316.625L156.67 316.625C156.492 316.625 156.315 316.588 156.151 316.517C155.987 316.447 155.839 316.344 155.716 316.214C155.59 316.085 155.493 315.931 155.429 315.762C155.365 315.594 155.337 315.414 155.345 315.233C155.345 315.074 156.06 298.002 153.873 292.143C153.264 290.526 149.777 287.61 145.748 284.19C135.952 276.011 121.16 263.644 117.329 246.373C111.775 221.347 111.775 180.336 120.126 166.948C123.373 161.726 126.952 159.22 130.823 159.512C135.356 159.857 138.776 164.085 139.929 166.829C141.453 170.381 140.897 194.983 140.645 203.943C142.911 202.618 146.716 201.584 151.965 204.023C157.598 206.674 160.965 211.459 165.22 217.53C168.841 222.929 172.926 228.003 177.428 232.694C182.054 237.413 188.032 241.257 193.838 244.981C201.221 249.727 208.18 254.26 211.772 260.066C218.094 270.418 215.987 313.537 215.894 315.366C215.877 315.704 215.732 316.022 215.488 316.256C215.244 316.49 214.92 316.622 214.582 316.625ZM158.035 313.974L213.323 313.974C213.614 306.697 214.847 270.232 209.518 261.444C206.258 256.142 199.537 251.781 192.419 247.221C186.494 243.417 180.384 239.48 175.545 234.549C170.947 229.755 166.773 224.571 163.072 219.054C159.03 213.301 155.835 208.755 150.838 206.435C143.852 203.175 140.433 207.403 140.234 207.588C140.061 207.808 139.823 207.967 139.554 208.044C139.285 208.12 138.998 208.109 138.736 208.013C138.467 207.916 138.236 207.734 138.078 207.495C137.92 207.256 137.844 206.973 137.861 206.687C138.312 193.114 138.59 170.567 137.45 167.889C136.695 166.14 134.03 162.441 130.571 162.176C127.787 161.964 125.004 164.045 122.313 168.353C114.519 180.893 114.439 221.374 119.861 245.803C123.506 262.2 137.874 274.222 147.392 282.162C152.071 286.072 155.451 288.895 156.299 291.175C158.367 296.623 158.168 309.666 158.035 313.974Z" fill="#093F68"/>
<path d="M167.354 260.21C167.169 260.21 166.986 260.171 166.818 260.095C166.649 260.02 166.497 259.91 166.373 259.773C156.724 249.315 146.782 237.942 140.645 223.984C138.193 218.523 137.276 212.497 137.994 206.554C138.023 206.381 138.086 206.216 138.179 206.067C138.272 205.919 138.393 205.791 138.536 205.69C138.679 205.589 138.841 205.517 139.012 205.479C139.183 205.44 139.359 205.436 139.532 205.467C139.703 205.497 139.867 205.561 140.014 205.655C140.161 205.748 140.288 205.87 140.387 206.013C140.487 206.156 140.558 206.317 140.595 206.487C140.632 206.657 140.636 206.833 140.605 207.004C140.028 212.437 140.902 217.925 143.137 222.91C149.102 236.484 158.884 247.671 168.322 257.97C168.569 258.219 168.707 258.555 168.707 258.905C168.707 259.255 168.569 259.591 168.322 259.839C168.194 259.963 168.042 260.06 167.876 260.123C167.71 260.187 167.532 260.217 167.354 260.21Z" fill="#093F68"/>
<path d="M145.019 285.489L218.466 285.489L218.466 325.148L145.019 325.148L145.019 285.489Z" fill="#68E1FD"/>
<path d="M218.466 326.472L145.019 326.472C144.668 326.472 144.33 326.333 144.082 326.084C143.833 325.835 143.694 325.498 143.694 325.147L143.694 285.487C143.694 285.136 143.833 284.799 144.082 284.55C144.33 284.302 144.668 284.162 145.019 284.162L218.466 284.162C218.817 284.162 219.155 284.302 219.403 284.55C219.652 284.799 219.791 285.136 219.791 285.487L219.791 325.147C219.791 325.498 219.652 325.835 219.403 326.084C219.155 326.333 218.817 326.472 218.466 326.472ZM146.345 323.821L217.14 323.821L217.14 286.813L146.345 286.813L146.345 323.821Z" fill="#093F68"/>
<path d="M228.991 241.164C225.73 238.141 222.575 235.106 219.315 232.216C210.23 224.175 201.124 216.16 191.996 208.171C185.836 202.953 179.96 197.409 174.393 191.563C169.389 186.371 165.349 180.329 162.463 173.721C160.632 169.205 159.402 164.468 158.805 159.631C158.216 155.301 158.003 150.928 158.169 146.562C158.805 131.371 168.15 118.514 182.134 113.901C197.245 108.93 210.434 112.377 221.846 123.352C224.432 125.892 226.69 128.747 228.567 131.848L228.991 132.498L229.508 131.689C233.591 124.95 239.434 119.451 246.408 115.783C252.525 112.6 259.42 111.221 266.291 111.807C273.963 112.338 281.26 115.326 287.101 120.33C293.598 125.795 297.909 133.418 299.243 141.803C299.877 146.153 299.988 150.563 299.574 154.939C299.309 159.626 298.513 164.269 297.202 168.777C295.093 175.647 291.637 182.027 287.035 187.546C282.267 193.224 277.04 198.5 271.407 203.32C263.07 210.677 254.64 217.901 246.329 225.297C240.642 230.347 235.088 235.57 229.481 240.7L228.991 241.164Z" fill="#F56132"/>
<path d="M228.991 242.489C228.656 242.487 228.334 242.36 228.09 242.131L225.014 239.268C222.867 237.253 220.64 235.172 218.387 233.21C210.858 226.529 203.311 219.902 195.747 213.327L191.134 209.139C184.944 203.884 179.033 198.309 173.425 192.437C168.314 187.137 164.201 180.958 161.284 174.198C159.401 169.578 158.14 164.728 157.532 159.777C156.937 155.385 156.72 150.95 156.883 146.521C157.546 130.708 167.301 117.36 181.763 112.655C197.019 107.618 210.818 110.905 222.774 122.41C225.127 124.713 227.213 127.274 228.991 130.045C233.142 123.515 238.945 118.197 245.812 114.63C252.139 111.362 259.261 109.947 266.357 110.547C274.309 111.06 281.884 114.118 287.963 119.269C294.696 124.942 299.17 132.844 300.569 141.537C301.216 145.988 301.331 150.5 300.913 154.978C300.636 159.764 299.822 164.504 298.488 169.108C296.34 176.153 292.797 182.694 288.069 188.341C283.25 194.061 277.975 199.381 272.295 204.248C268.504 207.588 264.7 210.919 260.883 214.242C256.323 218.218 251.75 222.195 247.217 226.172C243.306 229.644 239.383 233.263 235.592 236.776C233.856 238.38 232.132 239.983 230.383 241.574L229.879 242.038C229.653 242.298 229.334 242.46 228.991 242.489ZM195.137 113.026C190.87 113.065 186.637 113.785 182.598 115.16C169.197 119.574 160.144 131.914 159.534 146.614C159.373 150.906 159.581 155.203 160.157 159.458C160.738 164.178 161.942 168.8 163.736 173.204C166.532 179.677 170.475 185.591 175.374 190.661C180.91 196.458 186.746 201.962 192.857 207.15L197.55 211.26C205.105 217.905 212.656 224.559 220.203 231.222C222.456 233.223 224.683 235.318 226.83 237.332L228.991 239.36L233.776 234.933C237.58 231.434 241.504 227.802 245.441 224.329C249.987 220.353 254.56 216.376 259.133 212.32C262.942 209.006 266.742 205.679 270.532 202.339C276.098 197.55 281.266 192.32 285.988 186.698C290.493 181.329 293.87 175.108 295.916 168.406C297.219 163.973 298.01 159.405 298.276 154.793C298.682 150.523 298.579 146.22 297.971 141.975C296.671 133.882 292.514 126.522 286.253 121.231C280.572 116.46 273.51 113.64 266.105 113.185C259.499 112.628 252.869 113.946 246.978 116.989C240.204 120.524 234.535 125.858 230.595 132.405L230.065 133.213C229.945 133.4 229.78 133.554 229.586 133.66C229.391 133.767 229.173 133.823 228.951 133.823C228.733 133.807 228.52 133.745 228.328 133.64C228.136 133.534 227.969 133.389 227.838 133.213L227.4 132.537C225.594 129.536 223.421 126.771 220.932 124.306C213.085 116.803 204.495 113.026 195.137 113.026Z" fill="#093F68"/>
<path d="M245.19 200.815L245.097 200.815C244.819 200.796 244.554 200.69 244.34 200.511C244.125 200.333 243.973 200.091 243.904 199.821L230.848 146.84L212.701 189.257C212.604 189.484 212.446 189.68 212.243 189.822C212.041 189.964 211.803 190.046 211.556 190.06C211.309 190.074 211.064 190.018 210.847 189.9C210.63 189.781 210.45 189.605 210.329 189.389L199.473 170.276L164.704 170.276C164.353 170.276 164.016 170.136 163.767 169.887C163.519 169.639 163.379 169.302 163.379 168.95C163.379 168.598 163.519 168.261 163.767 168.013C164.016 167.764 164.353 167.625 164.704 167.625L200.241 167.625C200.476 167.625 200.707 167.688 200.91 167.807C201.112 167.925 201.28 168.096 201.395 168.301L211.323 185.758L229.973 142.108C230.083 141.854 230.27 141.64 230.508 141.497C230.745 141.355 231.022 141.29 231.298 141.313C231.574 141.335 231.836 141.443 232.048 141.621C232.259 141.799 232.41 142.039 232.478 142.307L245.494 195.089L260.3 157.882C260.399 157.635 260.569 157.424 260.789 157.275C261.008 157.126 261.268 157.047 261.533 157.047L295.268 157.047C295.619 157.047 295.956 157.187 296.205 157.435C296.453 157.684 296.593 158.021 296.593 158.372C296.593 158.724 296.453 159.061 296.205 159.31C295.956 159.558 295.619 159.698 295.268 159.698L262.435 159.698L246.422 199.914C246.335 200.173 246.17 200.399 245.949 200.56C245.728 200.721 245.463 200.811 245.19 200.815Z" fill="white"/>
<path d="M243.399 291.73C243.399 291.73 241.146 336.148 247.376 346.275C253.605 356.402 270.93 362.606 281.534 373.409C294.259 386.385 297.281 397.44 306.613 401.801C314.725 405.579 318.781 400.25 318.781 400.25C318.781 400.25 317.615 435.681 319.298 439.618C320.981 443.555 328.722 452.264 336.781 439.34C344.841 426.416 344.867 385.484 339.432 360.896C333.998 336.308 305.247 321.541 302.941 315.351C300.635 309.161 301.377 291.73 301.377 291.73L243.399 291.73Z" fill="#FFC9B0"/>
<path d="M301.311 290.406L243.399 290.406C243.048 290.406 242.711 290.546 242.462 290.794C242.214 291.043 242.074 291.38 242.074 291.732C241.981 293.561 239.874 336.68 246.196 347.032C249.788 352.891 256.8 357.371 264.13 362.116C269.923 365.841 275.914 369.685 280.54 374.404C285.042 379.095 289.127 384.169 292.748 389.568C297.016 395.639 300.383 400.437 306.003 403.075C311.306 405.514 315.057 404.4 317.323 403.154C317.072 412.062 316.515 436.663 318.039 440.269C319.219 443.012 322.612 447.241 327.145 447.585C330.989 447.864 334.595 445.372 337.842 440.149C346.193 426.762 346.193 385.803 340.639 360.725C336.808 343.493 322.016 331.086 312.22 322.908C308.244 319.541 304.704 316.625 304.095 314.955C301.908 309.096 302.61 292.023 302.623 291.864C302.632 291.684 302.603 291.504 302.539 291.335C302.475 291.167 302.378 291.013 302.252 290.883C302.136 290.743 301.993 290.629 301.831 290.547C301.669 290.465 301.492 290.417 301.311 290.406ZM244.659 293.057L299.946 293.057C299.813 297.365 299.614 310.421 301.629 315.816C302.478 318.096 305.858 320.919 310.537 324.83C320.054 332.783 334.396 344.792 338.068 361.188C343.489 385.578 343.37 426.139 335.615 438.638C332.964 442.946 330.141 445.027 327.357 444.815C323.898 444.55 321.234 440.839 320.478 439.102C319.338 436.451 319.616 413.917 320.067 400.304C320.075 400.025 319.994 399.75 319.836 399.52C319.678 399.289 319.452 399.114 319.188 399.02C318.925 398.926 318.639 398.917 318.371 398.996C318.102 399.074 317.866 399.235 317.694 399.456C317.549 399.628 314.129 403.857 307.09 400.596C302.093 398.276 298.899 393.73 294.856 387.977C291.155 382.46 286.982 377.276 282.383 372.482C277.545 367.551 271.434 363.614 265.509 359.81C258.391 355.25 251.671 350.929 248.41 345.587C243.134 336.852 244.367 300.334 244.659 293.057Z" fill="#093F68"/>
<path d="M290.625 346.82C290.291 346.821 289.969 346.949 289.724 347.178C289.477 347.426 289.339 347.762 289.339 348.113C289.339 348.463 289.477 348.799 289.724 349.047C299.228 359.346 309.01 370.534 314.909 384.107C317.144 389.092 318.018 394.58 317.441 400.013C317.41 400.185 317.414 400.36 317.451 400.53C317.488 400.701 317.559 400.862 317.659 401.004C317.758 401.147 317.885 401.269 318.032 401.363C318.179 401.456 318.343 401.52 318.514 401.551C318.687 401.581 318.863 401.577 319.034 401.539C319.205 401.5 319.367 401.429 319.51 401.328C319.653 401.227 319.774 401.098 319.867 400.95C319.96 400.802 320.023 400.636 320.052 400.464C320.749 394.515 319.81 388.488 317.335 383.033C311.197 369.076 301.256 357.703 291.606 347.244C291.481 347.109 291.329 347.002 291.16 346.929C290.992 346.856 290.809 346.819 290.625 346.82Z" fill="#093F68"/>
<path d="M239.86 321.543L313.306 321.543L313.306 281.883L239.86 281.883L239.86 321.543Z" fill="#68E1FD"/>
<path d="M313.307 280.556L239.86 280.556C239.508 280.556 239.171 280.696 238.923 280.944C238.674 281.193 238.534 281.53 238.534 281.882L238.534 321.541C238.534 321.892 238.674 322.23 238.923 322.478C239.171 322.727 239.508 322.866 239.86 322.866L313.307 322.866C313.658 322.866 313.995 322.727 314.244 322.478C314.493 322.23 314.632 321.892 314.632 321.541L314.632 281.882C314.632 281.53 314.493 281.193 314.244 280.944C313.995 280.696 313.658 280.556 313.307 280.556ZM241.185 283.207L311.981 283.207L311.981 320.215L241.185 320.215L241.185 283.207Z" fill="#093F68"/>
<path d="M214.581 291.73C214.581 291.73 216.835 336.148 210.605 346.275C204.375 356.402 187.05 362.606 176.446 373.409C163.721 386.385 160.699 397.44 151.367 401.801C143.255 405.579 139.199 400.25 139.199 400.25C139.199 400.25 140.366 435.681 138.682 439.618C136.999 443.555 129.258 452.264 121.199 439.34C113.14 426.416 113.113 385.484 118.548 360.896C123.982 336.308 152.733 321.541 155.039 315.351C157.346 309.161 156.603 291.73 156.603 291.73L214.581 291.73Z" fill="#FFC9B0"/>
<path d="M214.582 290.405L156.67 290.405C156.492 290.405 156.315 290.442 156.151 290.513C155.987 290.583 155.839 290.686 155.716 290.816C155.59 290.945 155.493 291.099 155.429 291.268C155.365 291.437 155.337 291.616 155.345 291.797C155.345 291.956 156.06 309.028 153.873 314.887C153.264 316.504 149.777 319.42 145.748 322.84C135.952 331.019 121.16 343.386 117.329 360.657C111.775 385.683 111.775 426.694 120.126 440.082C123.373 445.304 126.952 447.81 130.823 447.518C135.356 447.173 138.776 442.945 139.929 440.201C141.453 436.649 140.897 412.047 140.645 403.087C142.911 404.412 146.716 405.446 151.965 403.007C157.598 400.356 160.965 395.571 165.22 389.5C168.841 384.101 172.926 379.027 177.428 374.336C182.054 369.617 188.032 365.774 193.838 362.049C201.221 357.303 208.18 352.77 211.772 346.964C218.094 336.612 215.987 293.493 215.894 291.664C215.877 291.326 215.732 291.008 215.488 290.774C215.244 290.54 214.92 290.408 214.582 290.405ZM158.035 293.056L213.323 293.056C213.614 300.333 214.847 336.798 209.518 345.586C206.258 350.888 199.537 355.249 192.419 359.809C186.494 363.613 180.384 367.55 175.545 372.481C170.947 377.275 166.773 382.459 163.072 387.976C159.03 393.729 155.835 398.275 150.838 400.595C143.852 403.856 140.433 399.627 140.234 399.442C140.061 399.222 139.823 399.063 139.554 398.986C139.285 398.91 138.998 398.921 138.736 399.017C138.467 399.114 138.236 399.296 138.078 399.535C137.92 399.774 137.844 400.057 137.861 400.343C138.312 413.916 138.59 436.463 137.45 439.141C136.695 440.89 134.03 444.589 130.571 444.854C127.787 445.066 125.004 442.985 122.313 438.677C114.519 426.137 114.439 385.656 119.861 361.227C123.506 344.83 137.874 332.808 147.392 324.868C152.071 320.958 155.451 318.135 156.299 315.855C158.367 310.407 158.168 297.364 158.035 293.056Z" fill="#093F68"/>
<path d="M167.354 346.82C167.169 346.82 166.986 346.859 166.818 346.935C166.649 347.01 166.497 347.12 166.373 347.257C156.724 357.715 146.782 369.088 140.645 383.046C138.193 388.507 137.276 394.533 137.994 400.476C138.023 400.649 138.086 400.814 138.179 400.963C138.272 401.111 138.393 401.239 138.536 401.34C138.679 401.441 138.841 401.513 139.012 401.551C139.183 401.59 139.359 401.594 139.532 401.563C139.703 401.533 139.867 401.469 140.014 401.375C140.161 401.282 140.288 401.16 140.387 401.017C140.487 400.874 140.558 400.713 140.595 400.543C140.632 400.373 140.636 400.197 140.605 400.026C140.028 394.593 140.902 389.105 143.137 384.12C149.102 370.546 158.884 359.359 168.322 349.06C168.569 348.811 168.707 348.475 168.707 348.125C168.707 347.775 168.569 347.439 168.322 347.191C168.194 347.067 168.042 346.97 167.876 346.907C167.71 346.843 167.532 346.813 167.354 346.82Z" fill="#093F68"/>
<path d="M145.019 321.543L218.466 321.543L218.466 281.883L145.019 281.883L145.019 321.543Z" fill="#68E1FD"/>
<path d="M218.466 280.556L145.019 280.556C144.668 280.556 144.33 280.696 144.082 280.944C143.833 281.193 143.694 281.53 143.694 281.882L143.694 321.541C143.694 321.892 143.833 322.23 144.082 322.478C144.33 322.727 144.668 322.866 145.019 322.866L218.466 322.866C218.817 322.866 219.155 322.727 219.403 322.478C219.652 322.23 219.791 321.892 219.791 321.541L219.791 281.882C219.791 281.53 219.652 281.193 219.403 280.944C219.155 280.696 218.817 280.556 218.466 280.556ZM146.345 283.207L217.14 283.207L217.14 320.215L146.345 320.215L146.345 283.207Z" fill="#093F68"/>
<path d="M228.991 365.867C225.73 368.889 222.575 371.924 219.315 374.814C210.23 382.855 201.124 390.87 191.996 398.859C185.836 404.077 179.96 409.621 174.393 415.467C169.389 420.659 165.349 426.701 162.463 433.309C160.632 437.825 159.402 442.562 158.805 447.399C158.216 451.729 158.003 456.102 158.169 460.468C158.805 475.659 168.15 488.516 182.134 493.129C197.245 498.1 210.434 494.653 221.846 483.678C224.432 481.138 226.69 478.283 228.567 475.182L228.991 474.532L229.508 475.341C233.591 482.08 239.434 487.579 246.408 491.247C252.525 494.43 259.42 495.809 266.291 495.223C273.963 494.692 281.26 491.704 287.101 486.7C293.598 481.235 297.909 473.612 299.243 465.227C299.877 460.877 299.988 456.467 299.574 452.091C299.309 447.404 298.513 442.761 297.202 438.253C295.093 431.383 291.637 425.003 287.035 419.484C282.267 413.806 277.04 408.53 271.407 403.71C263.07 396.353 254.64 389.129 246.329 381.733C240.642 376.683 235.088 371.46 229.481 366.33L228.991 365.867Z" fill="#F56132"/>
<path d="M228.991 364.541C228.656 364.543 228.334 364.67 228.09 364.899L225.014 367.762C222.867 369.777 220.64 371.858 218.387 373.82C210.858 380.501 203.311 387.128 195.747 393.703L191.134 397.891C184.944 403.146 179.033 408.721 173.425 414.593C168.314 419.893 164.201 426.072 161.284 432.832C159.401 437.452 158.14 442.302 157.532 447.253C156.937 451.645 156.72 456.08 156.883 460.509C157.546 476.322 167.301 489.67 181.763 494.375C197.019 499.412 210.818 496.125 222.774 484.62C225.127 482.317 227.213 479.756 228.991 476.985C233.142 483.515 238.945 488.833 245.812 492.4C252.139 495.668 259.261 497.083 266.357 496.483C274.309 495.97 281.884 492.912 287.963 487.761C294.696 482.088 299.17 474.186 300.569 465.493C301.216 461.042 301.331 456.53 300.913 452.052C300.636 447.266 299.822 442.526 298.488 437.922C296.34 430.877 292.797 424.336 288.069 418.689C283.25 412.969 277.975 407.649 272.295 402.782C268.504 399.442 264.7 396.111 260.883 392.788C256.323 388.812 251.75 384.835 247.217 380.858C243.306 377.386 239.383 373.767 235.592 370.254C233.856 368.65 232.132 367.047 230.383 365.456L229.879 364.992C229.653 364.732 229.334 364.57 228.991 364.541ZM195.137 494.004C190.87 493.965 186.637 493.245 182.598 491.87C169.197 487.456 160.144 475.116 159.534 460.416C159.373 456.124 159.581 451.827 160.157 447.572C160.738 442.852 161.942 438.23 163.736 433.826C166.532 427.353 170.475 421.439 175.374 416.369C180.91 410.572 186.746 405.068 192.857 399.88L197.55 395.77C205.105 389.125 212.656 382.471 220.203 375.808C222.456 373.807 224.683 371.712 226.83 369.698L228.991 367.67L233.776 372.097C237.58 375.596 241.504 379.228 245.441 382.701C249.987 386.677 254.56 390.654 259.133 394.71C262.942 398.024 266.742 401.351 270.532 404.691C276.098 409.48 281.266 414.71 285.988 420.332C290.493 425.701 293.87 431.922 295.916 438.624C297.219 443.057 298.01 447.625 298.276 452.237C298.682 456.507 298.579 460.81 297.971 465.055C296.671 473.148 292.514 480.508 286.253 485.799C280.572 490.57 273.51 493.39 266.105 493.845C259.499 494.402 252.869 493.084 246.978 490.041C240.204 486.506 234.535 481.172 230.595 474.625L230.065 473.817C229.945 473.63 229.78 473.476 229.586 473.37C229.391 473.263 229.173 473.207 228.951 473.207C228.733 473.223 228.52 473.285 228.328 473.39C228.136 473.496 227.969 473.641 227.838 473.817L227.4 474.493C225.594 477.494 223.421 480.259 220.932 482.724C213.085 490.227 204.495 494.004 195.137 494.004Z" fill="#093F68"/>
<path d="M245.19 406.216L245.097 406.216C244.819 406.236 244.554 406.342 244.34 406.52C244.125 406.699 243.973 406.94 243.904 407.21L230.848 460.191L212.701 417.775C212.604 417.548 212.446 417.352 212.243 417.21C212.041 417.068 211.803 416.986 211.556 416.972C211.309 416.958 211.064 417.013 210.847 417.132C210.63 417.25 210.45 417.427 210.329 417.642L199.473 436.756L164.704 436.756C164.353 436.756 164.016 436.896 163.767 437.144C163.519 437.393 163.379 437.73 163.379 438.082C163.379 438.433 163.519 438.77 163.767 439.019C164.016 439.268 164.353 439.407 164.704 439.407L200.241 439.407C200.476 439.407 200.707 439.344 200.91 439.225C201.112 439.106 201.28 438.936 201.395 438.731L211.323 421.274L229.973 464.923C230.083 465.178 230.27 465.392 230.508 465.534C230.745 465.677 231.022 465.741 231.298 465.719C231.574 465.697 231.836 465.589 232.048 465.411C232.259 465.233 232.41 464.993 232.478 464.725L245.494 411.943L260.3 449.15C260.399 449.396 260.569 449.608 260.789 449.757C261.008 449.906 261.268 449.985 261.533 449.985L295.268 449.985C295.619 449.985 295.956 449.845 296.205 449.597C296.453 449.348 296.593 449.011 296.593 448.659C296.593 448.308 296.453 447.971 296.205 447.722C295.956 447.473 295.619 447.334 295.268 447.334L262.435 447.334L246.422 407.118C246.335 406.859 246.17 406.633 245.949 406.472C245.728 406.31 245.463 406.221 245.19 406.216Z" fill="white"/>
<rect x="43.321" y="199.055" width="4.12584" height="349.665" fill="#232020"/>
<rect x="409.491" y="78.9507" width="4.12584" height="349.665" fill="#232020"/>
<path fill-rule="evenodd" clip-rule="evenodd" d="M44.5329 149.622L46.6082 151.558C51.9281 156.518 60.2649 156.224 65.2257 150.905C70.1865 145.585 69.8982 137.248 64.5784 132.287L43.4946 112.626L43.3829 112.746L23.4844 133.664C18.4885 138.916 18.6958 147.224 23.9473 152.22C29.1989 157.217 37.5061 157.009 42.5019 151.757L44.5329 149.622Z" fill="#24133F"/>
<path fill-rule="evenodd" clip-rule="evenodd" d="M410.702 479.513L412.778 477.577C418.098 472.616 426.435 472.91 431.396 478.23C436.357 483.549 436.068 491.886 430.748 496.847L409.665 516.508L409.633 516.474L389.653 495.47C384.657 490.218 384.864 481.91 390.116 476.914C395.367 471.918 403.675 472.125 408.67 477.377L410.702 479.513Z" fill="#24133F"/>
<rect x="43.321" y="159.861" width="4.12584" height="11.3461" fill="#232020"/>
<rect x="409.491" y="440.992" width="4.12584" height="11.3461" fill="#232020"/>
<rect x="43.321" y="175.333" width="4.12584" height="11.3461" fill="#232020"/>
<rect x="409.491" y="456.465" width="4.12584" height="11.3461" fill="#232020"/>
</svg>
