<svg width="71" height="93" viewBox="0 0 71 93" fill="none" xmlns="http://www.w3.org/2000/svg">
<rect x="0.417328" y="0.0522461" width="70.0078" height="92.5047" rx="0.629284" fill="#F7F7F7"/>
<rect x="0.495988" y="0.130907" width="69.8505" height="92.3473" rx="0.550623" stroke="#361D5F" stroke-opacity="0.5" stroke-width="0.157321"/>
<path d="M6.14273 14.6198C5.73747 14.6198 5.37039 14.5287 5.04149 14.3467C4.71258 14.1587 4.43947 13.8915 4.22216 13.545L4.75076 12.9547C5.0268 13.2601 5.26761 13.4686 5.47318 13.5802C5.67874 13.6918 5.90193 13.7476 6.14273 13.7476C6.38354 13.7476 6.60085 13.6947 6.79467 13.589C6.98849 13.4833 7.1412 13.3394 7.25279 13.1573C7.37026 12.9752 7.42899 12.7726 7.42899 12.5494C7.42899 12.3145 7.37319 12.106 7.2616 11.9239C7.15588 11.736 7.01198 11.5891 6.82991 11.4834C6.64784 11.3718 6.44227 11.316 6.21321 11.316C6.10162 11.316 5.9959 11.3248 5.89605 11.3425C5.79621 11.3542 5.6758 11.3865 5.53484 11.4394C5.39389 11.4922 5.20888 11.5745 4.97982 11.6861L4.47765 11.0077L4.83886 8.39113L8.16903 8.39113L8.16903 9.27212L5.43794 9.27212L5.62294 9.10473L5.33222 11.0605L5.11197 10.8051C5.1707 10.7463 5.27055 10.6905 5.41151 10.6377C5.55246 10.5789 5.70811 10.5319 5.87843 10.4967C6.05463 10.4556 6.22202 10.435 6.3806 10.435C6.75649 10.435 7.09127 10.5231 7.38494 10.6993C7.68448 10.8697 7.91941 11.1075 8.08974 11.4129C8.26594 11.7184 8.35403 12.0678 8.35403 12.4613C8.35403 12.8666 8.25713 13.2337 8.06331 13.5626C7.86949 13.8856 7.60519 14.144 7.27041 14.3379C6.93563 14.5258 6.55974 14.6198 6.14273 14.6198Z" fill="#080705"/>
<path d="M62.7783 88.5524C62.373 88.5524 62.0059 88.4614 61.677 88.2793C61.3481 88.0913 61.075 87.8241 60.8577 87.4776L61.3863 86.8873C61.6623 87.1927 61.9031 87.4012 62.1087 87.5128C62.3143 87.6244 62.5375 87.6802 62.7783 87.6802C63.0191 87.6802 63.2364 87.6273 63.4302 87.5216C63.624 87.4159 63.7767 87.272 63.8883 87.0899C64.0058 86.9079 64.0645 86.7052 64.0645 86.482C64.0645 86.2471 64.0087 86.0386 63.8971 85.8565C63.7914 85.6686 63.6475 85.5218 63.4654 85.416C63.2834 85.3045 63.0778 85.2487 62.8487 85.2487C62.7371 85.2487 62.6314 85.2575 62.5316 85.2751C62.4317 85.2868 62.3113 85.3191 62.1704 85.372C62.0294 85.4249 61.8444 85.5071 61.6153 85.6187L61.1132 84.9403L61.4744 82.3237L64.8046 82.3237L64.8046 83.2047L62.0735 83.2047L62.2585 83.0374L61.9677 84.9932L61.7475 84.7377C61.8062 84.6789 61.9061 84.6231 62.047 84.5703C62.188 84.5116 62.3436 84.4646 62.514 84.4293C62.6902 84.3882 62.8576 84.3677 63.0161 84.3677C63.392 84.3677 63.7268 84.4558 64.0205 84.632C64.32 84.8023 64.5549 85.0402 64.7253 85.3456C64.9015 85.651 64.9896 86.0004 64.9896 86.3939C64.9896 86.7992 64.8927 87.1663 64.6988 87.4952C64.505 87.8182 64.2407 88.0767 63.9059 88.2705C63.5712 88.4584 63.1953 88.5524 62.7783 88.5524Z" fill="#080705"/>
<rect x="7.02496" y="30.4126" width="0.629283" height="53.3318" fill="#080705"/>
<rect x="62.8739" y="9.80615" width="0.629283" height="53.3318" fill="#080705"/>
<path fill-rule="evenodd" clip-rule="evenodd" d="M3.99902 20.4389L7.05115 17.2303L7.05119 17.2304L7.05137 17.2302L10.2671 20.2289C11.0785 20.9855 11.1225 22.2571 10.3658 23.0685C9.6092 23.8799 8.33765 23.9247 7.52626 23.1681L7.2095 22.8727L6.89962 23.1985C6.13763 23.9995 4.8706 24.0311 4.06962 23.2691C3.26864 22.507 3.23703 21.2399 3.99902 20.4389Z" fill="#080705"/>
<path fill-rule="evenodd" clip-rule="evenodd" d="M63.0584 73.1887L63.375 72.8934C64.1864 72.1368 65.458 72.1816 66.2146 72.993C66.9712 73.8044 66.9273 75.076 66.1159 75.8326L62.9001 78.8313L62.8955 78.8264L59.848 75.6226C59.086 74.8216 59.1176 73.5545 59.9186 72.7924C60.7195 72.0304 61.9866 72.062 62.7486 72.863L63.0584 73.1887Z" fill="#080705"/>
<rect x="7.02496" y="24.4346" width="0.629283" height="1.73053" fill="#080705"/>
<rect x="62.8739" y="65.0254" width="0.629283" height="1.73053" fill="#080705"/>
<rect x="7.02496" y="26.7944" width="0.629283" height="1.73053" fill="#080705"/>
<rect x="62.8739" y="67.3857" width="0.629283" height="1.73053" fill="#080705"/>
<path d="M28.2137 22.4883C28.3282 22.178 28.5313 21.9081 28.7978 21.7122C29.0642 21.5162 29.3824 21.4028 29.7127 21.386C30.043 21.3691 30.371 21.4497 30.656 21.6175C30.941 21.7854 31.1705 22.0332 31.3159 22.3303C31.4813 22.1726 31.6902 22.0682 31.9155 22.0304C32.1409 21.9927 32.3724 22.0234 32.5802 22.1185C32.787 22.2246 32.9591 22.3876 33.0762 22.5884C33.1932 22.7892 33.2503 23.0194 33.2407 23.2516C33.7148 22.9545 34.4133 23.3733 34.4117 23.9422L26.251 23.9422C26.2324 23.8285 26.2452 23.7118 26.2881 23.6049C26.331 23.4979 26.4023 23.4047 26.4944 23.3354C26.5924 23.2709 26.7068 23.2358 26.8241 23.2341C26.9414 23.2325 27.0567 23.2643 27.1565 23.3259C26.9574 22.7301 27.7491 22.3809 28.2137 22.4883Z" fill="white"/>
<path d="M34.4102 24.0209L26.251 24.0209C26.2328 24.021 26.2151 24.015 26.2008 24.0038C26.1864 23.9926 26.1763 23.9769 26.172 23.9592C26.1488 23.8301 26.162 23.697 26.2103 23.575C26.2586 23.453 26.34 23.3469 26.4454 23.2686C26.5312 23.207 26.6309 23.1675 26.7356 23.1534C26.8403 23.1394 26.9469 23.1512 27.0459 23.188C27.0389 23.1041 27.0493 23.0197 27.0765 22.94C27.1037 22.8603 27.1471 22.7871 27.2039 22.725C27.3271 22.6024 27.4763 22.5092 27.6405 22.4523C27.8046 22.3954 27.9795 22.3763 28.1521 22.3963C28.2785 22.0899 28.4885 21.8251 28.7581 21.6323C29.0278 21.4394 29.3462 21.3263 29.677 21.3057C30.0079 21.2851 30.3378 21.3579 30.6293 21.5158C30.9208 21.6737 31.162 21.9104 31.3254 22.1988C31.5026 22.0566 31.7159 21.9665 31.9414 21.9386C32.1669 21.9107 32.3957 21.946 32.6023 22.0407C32.8033 22.1428 32.9741 22.2957 33.0977 22.4843C33.2213 22.6728 33.2935 22.8903 33.3071 23.1153C33.4211 23.0751 33.5425 23.0601 33.6629 23.0716C33.7833 23.0831 33.8997 23.1206 34.004 23.1817C34.1433 23.2539 34.2607 23.362 34.344 23.4948C34.4274 23.6276 34.4737 23.7803 34.4781 23.9371C34.4791 23.957 34.4728 23.9766 34.4602 23.992C34.4477 24.0075 34.4298 24.0178 34.4102 24.0209ZM26.3205 23.8628L34.3233 23.8628C34.3046 23.7505 34.2601 23.644 34.1932 23.5518C34.1262 23.4596 34.0388 23.3843 33.9377 23.3319C33.839 23.2722 33.7259 23.2406 33.6105 23.2406C33.4952 23.2406 33.3821 23.2722 33.2834 23.3319C33.2709 23.3401 33.2563 23.3447 33.2413 23.3452C33.2262 23.3456 33.2114 23.3418 33.1984 23.3343C33.1854 23.3267 33.1748 23.3157 33.1678 23.3024C33.1607 23.2891 33.1575 23.2741 33.1586 23.2592C33.1682 23.0428 33.1154 22.8281 33.0064 22.6409C32.8974 22.4538 32.7368 22.3019 32.5438 22.2035C32.3515 22.1148 32.137 22.086 31.9281 22.1209C31.7192 22.1559 31.5257 22.2529 31.3728 22.3995C31.3635 22.408 31.3525 22.4144 31.3405 22.4182C31.3285 22.422 31.3158 22.4232 31.3033 22.4216C31.2906 22.4192 31.2786 22.414 31.2682 22.4064C31.2578 22.3987 31.2492 22.3888 31.2432 22.3773C31.104 22.0949 30.8849 21.8595 30.6131 21.7003C30.3413 21.5412 30.0288 21.4653 29.7143 21.4822C29.3998 21.499 29.0972 21.6078 28.8439 21.795C28.5907 21.9822 28.3979 22.2396 28.2896 22.5354C28.2825 22.5537 28.2689 22.5688 28.2515 22.5778C28.234 22.5868 28.2139 22.5892 28.1948 22.5844C28.0401 22.5571 27.8811 22.567 27.7311 22.6135C27.581 22.6599 27.4442 22.7415 27.3319 22.8514C27.273 22.9115 27.2324 22.9871 27.2151 23.0694C27.1977 23.1518 27.2043 23.2373 27.234 23.316C27.2392 23.3315 27.2396 23.3481 27.2352 23.3637C27.2308 23.3794 27.2218 23.3934 27.2093 23.4038C27.1968 23.4142 27.1815 23.4206 27.1653 23.4222C27.1491 23.4237 27.1328 23.4203 27.1186 23.4124C27.0329 23.3572 26.933 23.3278 26.831 23.3278C26.729 23.3278 26.6291 23.3572 26.5434 23.4124C26.4754 23.4655 26.4202 23.533 26.3817 23.6101C26.3431 23.6872 26.3222 23.7719 26.3205 23.8581L26.3205 23.8628Z" fill="#D1D3D4"/>
<path d="M34.0435 34.5617C33.9961 33.879 33.5362 33.2611 32.9705 33.1394C32.8207 33.0972 32.6609 33.109 32.519 33.1729C32.3771 33.2368 32.2622 33.3485 32.1945 33.4886C32.0744 32.452 30.9919 31.7629 30.2034 32.2244C30.0027 31.2509 29.2725 30.4086 28.4334 30.3976C27.5943 30.3865 26.7994 31.3789 26.9827 32.3571C26.6793 32.0695 26.1404 32.4283 26.1925 32.8881C25.8148 32.3698 25.2633 31.9826 24.6912 32.0395C24.1191 32.0964 23.5771 32.7159 23.6435 33.3986C23.1567 33.0319 22.4045 33.4618 22.3366 34.1445C22.2315 34.1637 22.1348 34.2146 22.0594 34.2903C21.984 34.3659 21.9335 34.4628 21.9146 34.568L34.0435 34.5617Z" fill="white"/>
<path d="M34.0435 34.6407L21.9083 34.6407C21.8954 34.6406 21.8827 34.6376 21.8712 34.6319C21.8597 34.6261 21.8496 34.6178 21.8419 34.6075C21.8348 34.5973 21.83 34.5856 21.8278 34.5733C21.8256 34.5611 21.8261 34.5485 21.8292 34.5364C21.8511 34.4261 21.9025 34.3237 21.9779 34.2402C22.0533 34.1568 22.1499 34.0953 22.2575 34.0623C22.2864 33.8857 22.3583 33.719 22.4669 33.5768C22.5755 33.4346 22.7174 33.3213 22.8801 33.2469C22.9846 33.1972 23.0986 33.1709 23.2143 33.1695C23.33 33.1681 23.4446 33.1918 23.5502 33.239C23.566 32.5515 24.127 32 24.6754 31.9463C25.17 31.8957 25.6994 32.1628 26.1229 32.6637C26.1477 32.568 26.1927 32.4787 26.2548 32.4019C26.317 32.325 26.3949 32.2623 26.4833 32.2181C26.5437 32.1861 26.6101 32.1668 26.6783 32.1613C26.7465 32.1559 26.8151 32.1645 26.8799 32.1865C26.85 31.7073 27.0076 31.2353 27.3192 30.8701C27.4523 30.6995 27.6212 30.5603 27.814 30.4623C28.0068 30.3642 28.2188 30.3098 28.4349 30.3027C29.2409 30.3154 30.0153 31.0755 30.2602 32.0916C30.4334 32.0159 30.6216 31.9805 30.8105 31.9881C30.9994 31.9958 31.1841 32.0463 31.3506 32.1359C31.5706 32.2489 31.7638 32.4078 31.917 32.6019C32.0703 32.796 32.18 33.0208 32.2388 33.2611C32.335 33.1647 32.4546 33.0948 32.5859 33.0583C32.7171 33.0217 32.8556 33.0197 32.9878 33.0525C33.5852 33.1805 34.0751 33.8253 34.1257 34.549C34.1265 34.5603 34.1251 34.5716 34.1213 34.5822C34.1176 34.5928 34.1116 34.6026 34.1039 34.6107C34.0961 34.6189 34.0868 34.6254 34.0763 34.6298C34.0659 34.6341 34.0547 34.6362 34.0435 34.636L34.0435 34.6407ZM22.0252 34.4827L33.955 34.4827C33.8775 33.8648 33.4588 33.3306 32.9531 33.2184C32.8221 33.1808 32.6821 33.1903 32.5574 33.2451C32.4327 33.3 32.3312 33.3968 32.2704 33.5187C32.263 33.5351 32.2506 33.5487 32.235 33.5575C32.2193 33.5663 32.2013 33.5699 32.1834 33.5677C32.1657 33.565 32.1493 33.5567 32.1367 33.5438C32.1241 33.531 32.1161 33.5144 32.1139 33.4965C32.0844 33.2421 31.9927 32.9989 31.8469 32.7883C31.7011 32.5778 31.5057 32.4063 31.2779 32.2892C31.1196 32.202 30.9419 32.1563 30.7612 32.1563C30.5805 32.1563 30.4027 32.202 30.2444 32.2892C30.2334 32.2961 30.2208 32.3003 30.2078 32.3012C30.1949 32.3021 30.1818 32.2998 30.17 32.2945C30.1581 32.2892 30.1477 32.281 30.1397 32.2707C30.1318 32.2604 30.1265 32.2483 30.1243 32.2355C29.9189 31.2414 29.1919 30.4829 28.4334 30.4718C28.2411 30.4782 28.0526 30.5272 27.8816 30.6151C27.7105 30.7031 27.5611 30.828 27.4441 30.9807C27.285 31.1649 27.1685 31.3819 27.1027 31.6162C27.0368 31.8506 27.0234 32.0965 27.0632 32.3366C27.0659 32.3534 27.0634 32.3705 27.0559 32.3858C27.0484 32.401 27.0364 32.4136 27.0215 32.4217C27.0066 32.4299 26.9896 32.4332 26.9727 32.4312C26.9558 32.4293 26.94 32.4222 26.9273 32.4109C26.8776 32.3657 26.8149 32.3375 26.7481 32.3304C26.6813 32.3233 26.614 32.3376 26.556 32.3714C26.4635 32.417 26.3867 32.4892 26.3354 32.5787C26.2842 32.6683 26.2608 32.771 26.2683 32.8739C26.2701 32.8917 26.266 32.9095 26.2566 32.9247C26.2471 32.9399 26.2329 32.9515 26.2162 32.9577C26.1997 32.9646 26.1813 32.9657 26.1641 32.9608C26.1468 32.9559 26.1318 32.9454 26.1214 32.9308C25.7136 32.3714 25.1732 32.0664 24.6991 32.1138C24.225 32.1612 23.6608 32.7301 23.7256 33.378C23.7265 33.3939 23.723 33.4096 23.7155 33.4236C23.708 33.4376 23.6967 33.4491 23.6829 33.457C23.6699 33.4659 23.6545 33.4706 23.6387 33.4706C23.6229 33.4706 23.6075 33.4659 23.5944 33.457C23.5025 33.3905 23.3942 33.3503 23.2811 33.3408C23.168 33.3313 23.0545 33.3529 22.9528 33.4033C22.8066 33.4696 22.6804 33.5731 22.5867 33.7034C22.4929 33.8337 22.435 33.9864 22.4187 34.1461C22.4166 34.1646 22.4083 34.182 22.3951 34.1952C22.3819 34.2084 22.3646 34.2167 22.346 34.2188C22.2741 34.2291 22.2064 34.2586 22.1499 34.3042C22.0935 34.3498 22.0504 34.4098 22.0252 34.4779L22.0252 34.4827Z" fill="#D1D3D4"/>
<path d="M48.429 24.1316C48.4045 23.8902 48.3036 23.6629 48.141 23.4827C47.9785 23.3025 47.7627 23.1789 47.5251 23.1297C47.2801 23.0854 46.9846 23.1518 46.8724 23.3746C46.7697 22.6445 45.8594 22.1594 45.1973 22.4818C45.0282 21.7959 44.4071 21.2033 43.707 21.1954C43.007 21.1875 42.3306 21.886 42.4854 22.575C42.2294 22.3727 41.7775 22.6256 41.8154 22.9495C41.4993 22.5845 41.0252 22.3174 40.5511 22.3506C40.0771 22.3838 39.614 22.8247 39.6693 23.3083C39.5644 23.2515 39.4476 23.2202 39.3284 23.217C39.2092 23.2139 39.0909 23.2388 38.9831 23.2899C38.8753 23.3411 38.7812 23.4169 38.7082 23.5112C38.6352 23.6055 38.5855 23.7158 38.5631 23.8329C38.4817 23.8426 38.4049 23.8761 38.3425 23.9292C38.2801 23.9823 38.2348 24.0528 38.2123 24.1316L48.429 24.1316Z" fill="white"/>
<path d="M48.4291 24.2119L38.2124 24.2119C38.1994 24.2118 38.1866 24.2086 38.175 24.2025C38.1635 24.1965 38.1535 24.1878 38.146 24.1771C38.1385 24.1665 38.1336 24.1542 38.1317 24.1413C38.1298 24.1284 38.1309 24.1152 38.135 24.1029C38.1602 24.0192 38.2069 23.9435 38.2704 23.8834C38.3339 23.8232 38.4119 23.7807 38.4969 23.7599C38.5261 23.6412 38.5822 23.5307 38.6608 23.437C38.7394 23.3433 38.8385 23.2689 38.9504 23.2195C39.0476 23.1705 39.1535 23.1414 39.262 23.1338C39.3706 23.1262 39.4795 23.1403 39.5825 23.1752C39.5968 22.9888 39.6699 22.8118 39.7911 22.6695C39.8834 22.5565 39.997 22.4629 40.1256 22.394C40.2541 22.3251 40.3951 22.2823 40.5402 22.2681C40.7664 22.2602 40.9917 22.3006 41.201 22.3867C41.4103 22.4728 41.5988 22.6027 41.7539 22.7675C41.8023 22.6457 41.8925 22.5452 42.0084 22.4841C42.1243 22.423 42.2582 22.4052 42.386 22.4341C42.3736 22.1397 42.4723 21.8515 42.6626 21.6265C42.7871 21.4707 42.9441 21.344 43.1225 21.255C43.301 21.166 43.4967 21.117 43.6961 21.1113L43.7087 21.1113C44.3867 21.1113 45.0346 21.6534 45.2527 22.3756C45.4213 22.3169 45.6005 22.2945 45.7783 22.3101C45.9562 22.3256 46.1288 22.3786 46.2846 22.4657C46.5823 22.6176 46.809 22.8795 46.9168 23.1958C47.0058 23.1281 47.1083 23.0804 47.2173 23.0558C47.3264 23.0313 47.4395 23.0305 47.5489 23.0535C47.8043 23.1059 48.0363 23.2386 48.2108 23.4322C48.3854 23.6259 48.4935 23.8703 48.5192 24.1297C48.5206 24.1409 48.5194 24.1522 48.5159 24.1629C48.5123 24.1735 48.5064 24.1832 48.4987 24.1914C48.4892 24.1995 48.4781 24.2055 48.4661 24.2091C48.4541 24.2126 48.4415 24.2136 48.4291 24.2119ZM38.3452 24.0539L48.3359 24.0539C48.297 23.848 48.1978 23.6583 48.051 23.5089C47.9041 23.3595 47.7161 23.2571 47.511 23.2147C47.3055 23.1768 47.0369 23.2242 46.9452 23.4154C46.9398 23.4344 46.9276 23.4507 46.911 23.4613C46.8944 23.4719 46.8744 23.476 46.855 23.4729C46.8355 23.4698 46.8179 23.4596 46.8054 23.4444C46.7929 23.4291 46.7864 23.4098 46.7872 23.3901C46.7529 23.225 46.6827 23.0695 46.5815 22.9346C46.4803 22.7997 46.3507 22.6887 46.2019 22.6095C46.053 22.5304 45.8885 22.4849 45.7201 22.4764C45.5517 22.468 45.3835 22.4966 45.2274 22.5605C45.2165 22.5656 45.2047 22.5682 45.1927 22.5682C45.1806 22.5682 45.1688 22.5656 45.1579 22.5605C45.1469 22.5553 45.1371 22.5478 45.1292 22.5386C45.1212 22.5293 45.1154 22.5185 45.1121 22.5067C44.943 21.8161 44.3361 21.2883 43.7008 21.2804L43.6898 21.2804C43.5173 21.287 43.3482 21.3305 43.1939 21.4079C43.0396 21.4853 42.9037 21.5949 42.7953 21.7292C42.6983 21.8413 42.6278 21.9738 42.5892 22.117C42.5506 22.2601 42.5449 22.4101 42.5725 22.5557C42.5763 22.5722 42.5749 22.5895 42.5683 22.6051C42.5618 22.6207 42.5506 22.6338 42.5361 22.6427C42.5224 22.6519 42.5061 22.6568 42.4895 22.6568C42.4729 22.6568 42.4567 22.6519 42.4429 22.6427C42.3891 22.6114 42.3281 22.5946 42.2659 22.5941C42.2037 22.5935 42.1424 22.6091 42.088 22.6394C42.0337 22.6697 41.9881 22.7136 41.9559 22.7668C41.9236 22.82 41.9057 22.8807 41.904 22.9429C41.9064 22.9601 41.9031 22.9777 41.8945 22.9928C41.886 23.008 41.8726 23.0199 41.8566 23.0267C41.8407 23.0337 41.8229 23.0356 41.8058 23.0319C41.7888 23.0282 41.7734 23.0192 41.7618 23.0061C41.4204 22.6142 40.9716 22.4009 40.5655 22.4356C40.3182 22.4621 40.0911 22.5847 39.9334 22.777C39.8715 22.8487 39.8247 22.9321 39.7957 23.0222C39.7666 23.1123 39.7559 23.2073 39.7643 23.3016C39.7662 23.3169 39.7638 23.3324 39.7574 23.3464C39.751 23.3603 39.7408 23.3722 39.7279 23.3807C39.7148 23.3884 39.6998 23.3926 39.6845 23.3926C39.6692 23.3926 39.6542 23.3884 39.641 23.3807C39.5473 23.3327 39.4438 23.3071 39.3385 23.306C39.2332 23.3048 39.1292 23.3282 39.0345 23.3742C38.9398 23.4201 38.857 23.4875 38.7928 23.5709C38.7286 23.6543 38.6846 23.7515 38.6644 23.8548C38.6623 23.8732 38.6539 23.8903 38.6407 23.9032C38.6274 23.9162 38.6101 23.9242 38.5917 23.9259C38.5441 23.9263 38.4972 23.9374 38.4545 23.9585C38.4118 23.9796 38.3744 24.01 38.3452 24.0476L38.3452 24.0539Z" fill="#D1D3D4"/>
<path d="M52.462 46.0698C52.3758 45.9384 52.266 45.8243 52.138 45.7332C51.9589 45.6112 51.7518 45.5363 51.5361 45.5156C51.3204 45.4949 51.1029 45.529 50.9038 45.6147C51.0444 45.218 50.7742 44.7581 50.3886 44.5906C50.1907 44.5186 49.98 44.4888 49.7699 44.5029C49.5598 44.5171 49.355 44.5749 49.1686 44.6728C49.5052 44.0549 49.0106 43.2505 48.3547 42.9913C47.8364 42.7875 47.0067 42.8333 46.7902 43.4417C46.6516 43.0805 46.3953 42.7765 46.0626 42.5789C45.73 42.3812 45.3404 42.3014 44.9569 42.3524C44.5733 42.4034 44.2181 42.5821 43.9486 42.8597C43.6791 43.1374 43.5111 43.4977 43.4716 43.8826C43.2769 43.7012 43.0407 43.5702 42.7836 43.5013C42.5265 43.4325 42.2565 43.4277 41.9971 43.4876C41.5341 43.5982 40.518 44.3409 40.9036 44.9509C40.7598 44.7249 40.3915 44.7455 40.2051 44.9367C40.1206 45.0412 40.0593 45.1624 40.0253 45.2924C39.9912 45.4223 39.9852 45.558 40.0075 45.6905C39.9048 45.4772 39.5682 45.4914 39.4054 45.6636C39.3066 45.7786 39.243 45.9196 39.2221 46.0698L52.462 46.0698Z" fill="#231F20"/>
<path d="M52.4619 46.1482L39.2157 46.1482C39.2043 46.1478 39.193 46.1451 39.1827 46.1402C39.1724 46.1353 39.1632 46.1284 39.1556 46.1198C39.1485 46.1107 39.1433 46.1003 39.1403 46.0892C39.1373 46.078 39.1366 46.0664 39.1382 46.055C39.1595 45.8892 39.2306 45.7338 39.3421 45.6094C39.3993 45.5492 39.4699 45.5035 39.5482 45.476C39.6265 45.4485 39.7103 45.44 39.7925 45.4513C39.8354 45.4572 39.877 45.47 39.9158 45.4892C39.9118 45.2629 39.9924 45.0431 40.1417 44.8729C40.2047 44.8105 40.2807 44.7627 40.3643 44.7332C40.448 44.7037 40.5371 44.6931 40.6253 44.7023C40.6634 44.7066 40.7009 44.7146 40.7375 44.726C40.725 44.608 40.743 44.4889 40.7897 44.3799C40.9777 43.9058 41.6162 43.487 41.9717 43.4017C42.2194 43.3447 42.4766 43.3435 42.7248 43.3982C42.9729 43.4529 43.2059 43.562 43.4067 43.7177C43.4741 43.3448 43.6574 43.0026 43.9307 42.74C44.2039 42.4774 44.5531 42.3077 44.9284 42.2552C45.3037 42.2026 45.6861 42.2699 46.0209 42.4474C46.3558 42.6249 46.6261 42.9035 46.7933 43.2436C46.8877 43.0944 47.0248 42.9771 47.1868 42.907C47.3847 42.8289 47.5962 42.791 47.8089 42.7956C48.0216 42.8001 48.2312 42.847 48.4256 42.9335C48.6199 43.0201 48.7951 43.1444 48.9409 43.2994C49.0866 43.4544 49.2 43.6369 49.2744 43.8362C49.3619 44.0563 49.3736 44.2994 49.3076 44.5268C49.6618 44.3838 50.0571 44.3804 50.4138 44.5174C50.6008 44.5981 50.7583 44.7347 50.8646 44.9084C50.971 45.0821 51.0211 45.2844 51.008 45.4877C51.2038 45.4287 51.4102 45.4142 51.6123 45.4454C51.8144 45.4766 52.0069 45.5526 52.1758 45.6678C52.3126 45.7641 52.43 45.8852 52.5219 46.025C52.53 46.0369 52.5347 46.0509 52.5354 46.0653C52.5361 46.0797 52.5329 46.094 52.526 46.1067C52.5192 46.1194 52.509 46.13 52.4966 46.1373C52.4842 46.1446 52.47 46.1484 52.4555 46.1482L52.4619 46.1482ZM39.3152 45.9902L52.3038 45.9902C52.2419 45.917 52.1707 45.8522 52.0921 45.7974C51.9242 45.683 51.7302 45.6128 51.5281 45.5932C51.3259 45.5736 51.122 45.6052 50.9353 45.6852C50.9213 45.6916 50.9056 45.6937 50.8904 45.6911C50.8752 45.6886 50.8611 45.6816 50.85 45.671C50.8385 45.6607 50.8303 45.6473 50.8264 45.6324C50.8225 45.6175 50.823 45.6018 50.8278 45.5872C50.959 45.2206 50.6856 44.805 50.3537 44.6627C50.1662 44.5946 49.9664 44.5668 49.7674 44.5809C49.5684 44.5951 49.3745 44.651 49.1985 44.7449C49.1835 44.7518 49.1667 44.7539 49.1504 44.7507C49.1342 44.7476 49.1193 44.7394 49.108 44.7273C49.0966 44.7153 49.0893 44.7 49.0871 44.6836C49.085 44.6672 49.088 44.6505 49.0958 44.6359C49.1543 44.5212 49.1876 44.3952 49.1933 44.2665C49.199 44.1379 49.1771 44.0094 49.129 43.89C49.0576 43.7048 48.9492 43.5361 48.8103 43.3942C48.6714 43.2524 48.5051 43.1404 48.3214 43.065C47.9764 42.9304 47.5934 42.9304 47.2484 43.065C47.159 43.1023 47.0784 43.1578 47.0118 43.228C46.9451 43.2982 46.8938 43.3816 46.8612 43.4728C46.8557 43.488 46.8456 43.5012 46.8323 43.5106C46.819 43.5199 46.8032 43.5249 46.787 43.5249C46.7709 43.5253 46.7551 43.5206 46.7417 43.5115C46.7284 43.5024 46.7183 43.4895 46.7127 43.4744C46.5812 43.1292 46.3373 42.8385 46.0204 42.6489C45.7034 42.4594 45.3318 42.3821 44.9656 42.4296C44.5993 42.477 44.2598 42.6465 44.0016 42.9106C43.7434 43.1747 43.5817 43.518 43.5426 43.8852C43.5418 43.9001 43.5365 43.9144 43.5275 43.9262C43.5185 43.938 43.5061 43.9469 43.492 43.9516C43.4782 43.9569 43.4632 43.9583 43.4487 43.9555C43.4341 43.9527 43.4207 43.9459 43.4098 43.9358C43.2234 43.7647 42.9979 43.6418 42.753 43.5778C42.5081 43.5139 42.2512 43.511 42.0049 43.5692C41.6889 43.6466 41.101 44.0433 40.9319 44.4526C40.8971 44.5256 40.8816 44.6064 40.8868 44.6872C40.8921 44.768 40.9179 44.8461 40.9619 44.914C40.9727 44.9319 40.976 44.9533 40.9713 44.9736C40.9666 44.994 40.9542 45.0117 40.9366 45.0231C40.9279 45.0288 40.9181 45.0327 40.9078 45.0345C40.8975 45.0364 40.8869 45.0361 40.8767 45.0337C40.8665 45.0314 40.8569 45.027 40.8485 45.0208C40.84 45.0146 40.8329 45.0068 40.8276 44.9978C40.8025 44.9617 40.7696 44.9317 40.7312 44.9101C40.6929 44.8884 40.6503 44.8758 40.6064 44.8729C40.5418 44.8671 40.4768 44.8752 40.4157 44.8967C40.3546 44.9183 40.2989 44.9527 40.2524 44.9978C40.1763 45.0942 40.1214 45.2054 40.0912 45.3244C40.061 45.4434 40.0561 45.5674 40.077 45.6884C40.0787 45.7069 40.0738 45.7254 40.0633 45.7407C40.0527 45.756 40.0371 45.767 40.0191 45.7719C40.0012 45.7769 39.9821 45.7753 39.9652 45.7675C39.9484 45.7597 39.9348 45.7463 39.9268 45.7295C39.9113 45.7 39.8887 45.6748 39.8612 45.6561C39.8336 45.6373 39.8019 45.6256 39.7688 45.622C39.7119 45.6129 39.6536 45.6174 39.5987 45.6349C39.5438 45.6525 39.4938 45.6827 39.4527 45.7231C39.3864 45.7996 39.3402 45.8914 39.3184 45.9902L39.3152 45.9902Z" fill="#231F20"/>
<path d="M33.9027 46.0693C33.7242 45.7545 33.441 45.5121 33.1023 45.3845C32.7636 45.2569 32.3909 45.2521 32.049 45.3708C31.9605 44.8304 31.4169 44.459 30.8701 44.3911C30.3233 44.3231 29.7828 44.4843 29.2582 44.6471C29.3877 44.0149 29.0116 43.3623 28.4791 43.002C27.9465 42.6416 27.2859 42.5279 26.6443 42.4789C26.4468 42.4647 25.222 42.8755 25.6139 43.2185C25.4477 43.0715 25.2423 42.9762 25.0228 42.9443C24.8032 42.9123 24.5791 42.945 24.3779 43.0384C24.1767 43.1318 24.007 43.2818 23.8898 43.4702C23.7725 43.6585 23.7126 43.8769 23.7176 44.0987C23.5741 44.0004 23.4084 43.9393 23.2355 43.9208C23.0626 43.9024 22.8877 43.9271 22.7267 43.9928C22.2795 44.1809 22.2431 44.6091 21.9366 44.9173C21.9366 44.6281 21.6205 44.5001 21.3676 44.4985C21.0772 44.4995 20.79 44.5588 20.5229 44.6728C20.2558 44.7868 20.0143 44.9532 19.8126 45.1622C19.5503 44.7909 18.9292 44.8841 18.629 45.2255C18.436 45.4696 18.3121 45.761 18.2702 46.0693L33.9027 46.0693Z" fill="#231F20"/>
<path d="M33.9028 46.1482L18.2735 46.1482C18.262 46.1482 18.2507 46.1457 18.2403 46.1407C18.2299 46.1358 18.2207 46.1287 18.2134 46.1198C18.2057 46.1111 18.2 46.1007 18.197 46.0894C18.194 46.0782 18.1937 46.0664 18.1961 46.055C18.2378 45.732 18.3679 45.4268 18.5722 45.1731C18.6716 45.0637 18.794 44.9775 18.9306 44.9207C19.0672 44.8638 19.2146 44.8378 19.3623 44.8444C19.5367 44.8502 19.7025 44.9213 19.8269 45.0436C20.2426 44.6443 20.7946 44.4183 21.3709 44.4114C21.4931 44.403 21.6152 44.4291 21.7233 44.4866C21.8315 44.5442 21.9212 44.6309 21.9825 44.737C22.0398 44.6562 22.0926 44.5723 22.1405 44.4857C22.2518 44.2344 22.449 44.031 22.6968 43.9121C22.8486 43.8507 23.0119 43.8228 23.1755 43.8301C23.3392 43.8375 23.4993 43.88 23.645 43.9547C23.6622 43.7505 23.7309 43.5539 23.8445 43.3833C23.9582 43.2126 24.1131 43.0735 24.295 42.9789C24.4768 42.8843 24.6796 42.8372 24.8846 42.842C25.0895 42.8469 25.2899 42.9034 25.4671 43.0065C25.4711 42.9931 25.4758 42.9799 25.4813 42.967C25.6204 42.6367 26.4911 42.376 26.6507 42.3871C27.2118 42.4281 27.934 42.5245 28.5234 42.9244C28.9975 43.2483 29.4289 43.8568 29.3562 44.5205C29.8303 44.3767 30.355 44.2329 30.8797 44.2992C31.4043 44.3656 31.9653 44.7117 32.1076 45.2474C32.4591 45.1489 32.8335 45.1708 33.1712 45.3097C33.5088 45.4486 33.7903 45.6965 33.9708 46.0139C33.9774 46.0257 33.9809 46.039 33.9809 46.0526C33.9809 46.0662 33.9774 46.0795 33.9708 46.0913C33.9661 46.1063 33.9572 46.1196 33.9451 46.1297C33.9331 46.1398 33.9184 46.1462 33.9028 46.1482ZM18.3699 45.9902L33.7637 45.9902C33.5808 45.7285 33.3175 45.5336 33.0137 45.4352C32.7099 45.3368 32.3823 45.3402 32.0807 45.445C32.07 45.4496 32.0584 45.452 32.0467 45.452C32.035 45.452 32.0235 45.4496 32.0127 45.445C32.0026 45.4387 31.9939 45.4304 31.9871 45.4206C31.9803 45.4108 31.9756 45.3998 31.9732 45.3881C31.8879 44.8697 31.3411 44.5347 30.867 44.4731C30.3313 44.4035 29.7782 44.5758 29.2867 44.7259C29.2738 44.7302 29.26 44.731 29.2467 44.7282C29.2333 44.7254 29.221 44.7192 29.2109 44.7101C29.2004 44.7008 29.1926 44.6889 29.1881 44.6755C29.1837 44.6622 29.1828 44.648 29.1856 44.6343C29.2993 44.0875 28.9912 43.4459 28.4397 43.0729C27.8881 42.7 27.1865 42.5988 26.6444 42.5625C26.5022 42.553 25.7294 42.8106 25.6314 43.046C25.6172 43.0777 25.6141 43.1124 25.6725 43.1646C25.6882 43.1786 25.6977 43.1983 25.6989 43.2194C25.7001 43.2404 25.6929 43.2611 25.6789 43.2768C25.6648 43.2925 25.6451 43.302 25.6241 43.3032C25.603 43.3044 25.5824 43.2971 25.5666 43.2831C25.4122 43.1456 25.221 43.0562 25.0164 43.026C24.8119 42.9958 24.603 43.0261 24.4154 43.1131C24.2278 43.2001 24.0697 43.34 23.9607 43.5156C23.8516 43.6913 23.7962 43.895 23.8014 44.1017C23.8021 44.1162 23.7986 44.1307 23.7914 44.1433C23.7841 44.1559 23.7733 44.1662 23.7604 44.1728C23.748 44.1805 23.7338 44.1846 23.7193 44.1846C23.7047 44.1846 23.6905 44.1805 23.6782 44.1728C23.5453 44.0823 23.3921 44.026 23.2322 44.0089C23.0723 43.9918 22.9106 44.0144 22.7616 44.0748C22.5483 44.1822 22.3803 44.3621 22.2875 44.5821C22.211 44.7276 22.1159 44.8625 22.0046 44.9835C21.9936 44.9943 21.9796 45.0016 21.9645 45.0047C21.9494 45.0078 21.9337 45.0065 21.9193 45.0009C21.9049 44.995 21.8925 44.9849 21.8838 44.972C21.8751 44.959 21.8704 44.9438 21.8703 44.9282C21.8703 44.6785 21.5764 44.5884 21.3804 44.5869C21.102 44.5882 20.8267 44.6447 20.5703 44.7532C20.314 44.8617 20.0817 45.02 19.887 45.219C19.8792 45.2273 19.8696 45.2338 19.8589 45.2379C19.8482 45.242 19.8368 45.2436 19.8254 45.2427C19.8137 45.2421 19.8022 45.239 19.7919 45.2335C19.7815 45.2281 19.7724 45.2204 19.7653 45.2111C19.7187 45.1479 19.658 45.0965 19.5881 45.0608C19.5181 45.0251 19.4408 45.0062 19.3623 45.0056C19.2396 45.0008 19.1172 45.0229 19.0039 45.0704C18.8906 45.1179 18.7891 45.1896 18.7065 45.2806C18.5334 45.4831 18.4172 45.728 18.3699 45.9902Z" fill="#231F20"/>
<path d="M35.8702 14.2357C35.8512 14.2353 35.8332 14.2275 35.8199 14.2139C35.8066 14.2003 35.7991 14.182 35.7991 14.163L35.7991 10.7274C35.7976 10.7171 35.7983 10.7065 35.8012 10.6965C35.8041 10.6865 35.8092 10.6772 35.816 10.6693C35.8228 10.6613 35.8313 10.655 35.8408 10.6506C35.8503 10.6463 35.8606 10.644 35.871 10.644C35.8815 10.644 35.8918 10.6463 35.9013 10.6506C35.9108 10.655 35.9193 10.6613 35.9261 10.6693C35.9329 10.6772 35.9379 10.6865 35.9409 10.6965C35.9438 10.7065 35.9445 10.7171 35.9429 10.7274L35.9429 14.163C35.9429 14.1823 35.9353 14.2008 35.9216 14.2144C35.908 14.2281 35.8895 14.2357 35.8702 14.2357Z" fill="#231F20"/>
<path d="M34.4102 32.855L37.4365 32.855L37.4365 34.5159L34.4102 34.5159L34.4102 32.855Z" fill="#231F20"/>
<path d="M37.4365 34.5948L34.4102 34.5948C34.3892 34.5948 34.3691 34.5865 34.3543 34.5717C34.3395 34.5569 34.3311 34.5368 34.3311 34.5158L34.3311 32.8549C34.3311 32.8339 34.3395 32.8138 34.3543 32.799C34.3691 32.7842 34.3892 32.7759 34.4102 32.7759L37.4365 32.7759C37.4574 32.7759 37.4775 32.7842 37.4923 32.799C37.5072 32.8138 37.5155 32.8339 37.5155 32.8549L37.5155 34.5158C37.5155 34.5368 37.5072 34.5569 37.4923 34.5717C37.4775 34.5865 37.4574 34.5948 37.4365 34.5948ZM34.4892 34.4368L37.3574 34.4368L37.3574 32.9339L34.4892 32.9339L34.4892 34.4368Z" fill="#231F20"/>
<path d="M38.8048 36.1768C36.6698 30.3629 36.6698 17.3174 36.6698 17.3174L35.178 17.3174C35.178 17.3174 35.178 30.3629 33.0414 36.1768C31.7374 39.6575 30.038 42.9768 27.9765 46.0696L30.5382 46.0696L30.5761 46.0127C30.7937 44.7521 31.4495 43.6088 32.428 42.7847C33.4065 41.9606 34.6446 41.5086 35.9239 41.5086C37.2032 41.5086 38.4414 41.9606 39.4198 42.7847C40.3983 43.6088 41.0542 44.7521 41.2717 46.0127L41.3081 46.0664L43.8697 46.0664C41.8085 42.9746 40.1091 39.6564 38.8048 36.1768ZM33.9296 39.5729C34.794 36.5024 35.9445 31.1499 35.8986 28.4349L35.9461 28.4349C35.9018 31.1499 37.0523 36.5024 37.9183 39.5729L33.9296 39.5729Z" fill="#700548"/>
<path d="M43.8699 46.1425L41.3082 46.1425C41.2964 46.1423 41.2849 46.1393 41.2745 46.1338C41.264 46.1283 41.255 46.1205 41.2482 46.1109L41.2118 46.0572C41.2059 46.0487 41.2021 46.039 41.2008 46.0287C40.9868 44.7843 40.3399 43.6556 39.3744 42.8419C38.4088 42.0282 37.1868 41.5819 35.9241 41.5819C34.6614 41.5819 33.4394 42.0282 32.4738 42.8419C31.5083 43.6556 30.8614 44.7843 30.6474 46.0287C30.6449 46.0389 30.6406 46.0485 30.6348 46.0572L30.5969 46.1141C30.5904 46.1237 30.5817 46.1316 30.5715 46.1371C30.5613 46.1426 30.55 46.1456 30.5384 46.1457L27.9767 46.1457C27.9633 46.1455 27.9503 46.1418 27.9389 46.1348C27.9275 46.1279 27.9182 46.118 27.9119 46.1062C27.9049 46.095 27.9012 46.0822 27.9012 46.069C27.9012 46.0559 27.9049 46.043 27.9119 46.0319C29.9695 42.9436 31.6662 39.6297 32.9689 36.1549C35.0755 30.42 35.1007 17.4503 35.1007 17.3207C35.1007 17.3112 35.1026 17.3017 35.1063 17.2929C35.1099 17.2841 35.1153 17.2761 35.122 17.2693C35.1288 17.2626 35.1368 17.2572 35.1456 17.2536C35.1544 17.2499 35.1639 17.248 35.1734 17.248L36.6653 17.248C36.6843 17.2485 36.7023 17.2563 36.7156 17.2699C36.7289 17.2835 36.7364 17.3017 36.7364 17.3207C36.7364 17.4503 36.7617 30.42 38.8666 36.1549C40.1693 39.6297 41.8661 42.9436 43.9236 46.0319C43.9307 46.043 43.9344 46.0559 43.9344 46.069C43.9344 46.0822 43.9307 46.095 43.9236 46.1062C43.918 46.1159 43.9103 46.1242 43.9009 46.1305C43.8916 46.1368 43.881 46.1409 43.8699 46.1425ZM41.3414 45.9971L43.7293 45.9971C41.6998 42.9298 40.0235 39.643 38.7323 36.1992C36.6984 30.6681 36.5973 18.4428 36.5926 17.3934L35.2446 17.3934C35.2446 18.4491 35.1387 30.6681 33.1032 36.1992C31.8127 39.6433 30.1364 42.9302 28.1063 45.9971L30.4941 45.9971L30.502 45.986C30.7259 44.712 31.3916 43.5577 32.3823 42.7259C33.3729 41.8942 34.625 41.4382 35.9186 41.4382C37.2121 41.4382 38.4642 41.8942 39.4549 42.7259C40.4455 43.5577 41.1112 44.712 41.3351 45.986L41.3414 45.9971ZM37.9137 39.6458L33.9297 39.6458C33.9185 39.6458 33.9074 39.6433 33.8972 39.6383C33.8871 39.6334 33.8782 39.6263 33.8713 39.6174C33.8649 39.6083 33.8606 39.5979 33.8587 39.587C33.8568 39.5761 33.8573 39.5649 33.8602 39.5542C34.6504 36.7633 35.8751 31.2765 35.8261 28.4367C35.8262 28.4173 35.8335 28.3987 35.8467 28.3845C35.8604 28.3705 35.8792 28.3626 35.8988 28.3624L35.9462 28.3624C35.956 28.3623 35.9656 28.3642 35.9746 28.368C35.9836 28.3718 35.9917 28.3775 35.9984 28.3845C36.0115 28.3987 36.0188 28.4173 36.0189 28.4367C35.9731 31.2812 37.201 36.7633 37.988 39.5542C37.9905 39.565 37.9907 39.5763 37.9886 39.5872C37.9864 39.5981 37.9819 39.6084 37.9753 39.6174C37.9686 39.626 37.9599 39.6331 37.9501 39.638C37.9403 39.6429 37.9294 39.6456 37.9184 39.6458L37.9137 39.6458ZM34.0198 39.5004L37.8126 39.5004C37.133 37.0683 36.1453 32.7051 35.9162 29.7436C35.6918 32.7114 34.7041 37.0668 34.0246 39.5004L34.0198 39.5004Z" fill="#231F20"/>
<path d="M40.3252 38.9663L31.5213 38.9663C31.3476 38.9663 31.2068 39.1071 31.2068 39.2808L31.2068 39.4831C31.2068 39.6568 31.3476 39.7976 31.5213 39.7976L40.3252 39.7976C40.4989 39.7976 40.6397 39.6568 40.6397 39.4831L40.6397 39.2808C40.6397 39.1071 40.4989 38.9663 40.3252 38.9663Z" fill="white"/>
<path d="M40.3254 39.8749L31.5198 39.8749C31.4159 39.8749 31.3162 39.8336 31.2427 39.7601C31.1692 39.6866 31.1279 39.5869 31.1279 39.483L31.1279 39.2791C31.1279 39.1752 31.1692 39.0755 31.2427 39.002C31.3162 38.9285 31.4159 38.8872 31.5198 38.8872L40.3254 38.8872C40.4294 38.8872 40.5293 38.9284 40.603 39.0019C40.6768 39.0754 40.7184 39.175 40.7189 39.2791L40.7189 39.483C40.7184 39.5871 40.6768 39.6868 40.603 39.7602C40.5293 39.8337 40.4294 39.8749 40.3254 39.8749ZM31.5198 39.0452C31.4578 39.0452 31.3983 39.0699 31.3545 39.1137C31.3106 39.1576 31.286 39.2171 31.286 39.2791L31.286 39.483C31.286 39.545 31.3106 39.6045 31.3545 39.6484C31.3983 39.6922 31.4578 39.7169 31.5198 39.7169L40.3254 39.7169C40.3875 39.7169 40.4472 39.6923 40.4913 39.6485C40.5354 39.6046 40.5604 39.5452 40.5608 39.483L40.5608 39.2791C40.5604 39.217 40.5354 39.1575 40.4913 39.1136C40.4472 39.0698 40.3875 39.0452 40.3254 39.0452L31.5198 39.0452Z" fill="#231F20"/>
<path d="M38.2297 32.0239L33.6183 32.0239C33.4307 32.0239 33.2786 32.176 33.2786 32.3637L33.2786 32.5154C33.2786 32.7031 33.4307 32.8552 33.6183 32.8552L38.2297 32.8552C38.4173 32.8552 38.5695 32.7031 38.5695 32.5154L38.5695 32.3637C38.5695 32.176 38.4173 32.0239 38.2297 32.0239Z" fill="white"/>
<path d="M38.2282 32.9336L33.6169 32.9336C33.5061 32.9332 33.4 32.8889 33.3218 32.8104C33.2436 32.7319 33.1997 32.6256 33.1997 32.5148L33.1997 32.3568C33.1997 32.246 33.2436 32.1397 33.3218 32.0612C33.4 31.9827 33.5061 31.9384 33.6169 31.938L38.2282 31.938C38.2832 31.938 38.3377 31.9488 38.3885 31.9699C38.4393 31.9909 38.4855 32.0218 38.5244 32.0606C38.5632 32.0995 38.5941 32.1457 38.6151 32.1965C38.6362 32.2473 38.647 32.3018 38.647 32.3568L38.647 32.5148C38.647 32.5698 38.6362 32.6243 38.6151 32.6751C38.5941 32.7259 38.5632 32.772 38.5244 32.8109C38.4855 32.8498 38.4393 32.8807 38.3885 32.9017C38.3377 32.9228 38.2832 32.9336 38.2282 32.9336ZM33.6169 32.1023C33.5827 32.1023 33.5489 32.1091 33.5173 32.1222C33.4858 32.1353 33.4571 32.1546 33.4331 32.1788C33.409 32.203 33.3899 32.2318 33.377 32.2634C33.3641 32.2951 33.3575 32.3289 33.3577 32.3631L33.3577 32.5211C33.3575 32.5553 33.3641 32.5892 33.377 32.6208C33.3899 32.6524 33.409 32.6812 33.4331 32.7054C33.4571 32.7296 33.4858 32.7489 33.5173 32.762C33.5489 32.7751 33.5827 32.7819 33.6169 32.7819L38.2282 32.7819C38.2974 32.7819 38.3637 32.7544 38.4126 32.7055C38.4615 32.6566 38.489 32.5903 38.489 32.5211L38.489 32.3631C38.489 32.2939 38.4615 32.2276 38.4126 32.1787C38.3637 32.1298 38.2974 32.1023 38.2282 32.1023L33.6169 32.1023Z" fill="#231F20"/>
<path d="M34.6313 15.7241L37.2136 15.7241L37.2136 16.5459C37.2136 16.75 37.1325 16.9458 36.9882 17.0901C36.8438 17.2344 36.6481 17.3155 36.444 17.3155L35.4025 17.3155C35.3013 17.3157 35.2011 17.296 35.1075 17.2574C35.014 17.2188 34.929 17.1621 34.8573 17.0906C34.7857 17.0192 34.7289 16.9342 34.6901 16.8408C34.6513 16.7473 34.6313 16.6471 34.6313 16.5459L34.6313 15.7241Z" fill="#700548"/>
<path d="M36.4441 17.3897L35.4026 17.3897C35.1791 17.3893 34.9649 17.3002 34.8069 17.142C34.649 16.9838 34.5603 16.7694 34.5603 16.5458L34.5603 15.7225C34.5603 15.7036 34.5678 15.6855 34.5812 15.6722C34.5945 15.6589 34.6126 15.6514 34.6314 15.6514L37.2153 15.6514C37.2341 15.6514 37.2522 15.6589 37.2655 15.6722C37.2789 15.6855 37.2864 15.7036 37.2864 15.7225L37.2864 16.5458C37.2864 16.7694 37.1977 16.9838 37.0398 17.142C36.8818 17.3002 36.6676 17.3893 36.4441 17.3897ZM34.7057 15.7952L34.7057 16.5458C34.7057 16.7311 34.7793 16.9087 34.9103 17.0397C35.0413 17.1707 35.219 17.2443 35.4042 17.2443L36.4456 17.2443C36.6306 17.2439 36.8079 17.1701 36.9385 17.0392C37.0692 16.9082 37.1426 16.7308 37.1426 16.5458L37.1426 15.7952L34.7057 15.7952Z" fill="#231F20"/>
<path d="M35.4231 14.5879L36.297 14.5879C36.3671 14.5881 36.4366 14.6021 36.5013 14.6292C36.566 14.6562 36.6248 14.6957 36.6742 14.7455C36.7237 14.7952 36.7629 14.8542 36.7895 14.9191C36.8162 14.984 36.8298 15.0535 36.8296 15.1236L36.8296 15.7241L34.8937 15.7241L34.8937 15.1236C34.8937 14.982 34.95 14.8461 35.0501 14.7459C35.1503 14.6457 35.2862 14.5895 35.4278 14.5895L35.4231 14.5879Z" fill="#700548"/>
<path d="M36.8298 15.7956L34.894 15.7956C34.8747 15.7956 34.8562 15.7879 34.8426 15.7743C34.8289 15.7606 34.8213 15.7421 34.8213 15.7229L34.8213 15.1239C34.8213 14.963 34.8852 14.8086 34.999 14.6948C35.1128 14.581 35.2672 14.5171 35.4281 14.5171L36.302 14.5171C36.4619 14.5188 36.6146 14.5834 36.727 14.697C36.8395 14.8107 36.9025 14.9641 36.9025 15.1239L36.9025 15.7244C36.9025 15.7339 36.9006 15.7433 36.897 15.752C36.8933 15.7608 36.8879 15.7687 36.8811 15.7753C36.8744 15.7819 36.8663 15.7871 36.8575 15.7906C36.8487 15.7941 36.8393 15.7958 36.8298 15.7956ZM34.9603 15.6518L36.7587 15.6518L36.7587 15.1239C36.7587 15.0015 36.7101 14.8842 36.6236 14.7976C36.537 14.7111 36.4197 14.6625 36.2973 14.6625L35.4234 14.6625C35.3008 14.6625 35.1833 14.711 35.0965 14.7975C35.0097 14.884 34.9607 15.0014 34.9603 15.1239L34.9603 15.6518Z" fill="#231F20"/>
<path d="M35.4452 13.7378L36.2954 13.7378L36.2954 14.588L35.4452 14.588L35.4452 13.7378Z" fill="#700548"/>
<path d="M36.2968 14.6606L35.445 14.6606C35.426 14.6602 35.4079 14.6524 35.3946 14.6388C35.3813 14.6252 35.3739 14.607 35.3739 14.5879L35.3739 13.7377C35.3739 13.7187 35.3813 13.7005 35.3946 13.6869C35.4079 13.6733 35.426 13.6655 35.445 13.665L36.2968 13.665C36.3158 13.6655 36.3339 13.6733 36.3472 13.6869C36.3605 13.7005 36.3679 13.7187 36.3679 13.7377L36.3679 14.5879C36.3679 14.607 36.3605 14.6252 36.3472 14.6388C36.3339 14.6524 36.3158 14.6602 36.2968 14.6606ZM35.5256 14.5152L36.232 14.5152L36.232 13.8104L35.5256 13.8104L35.5256 14.5152Z" fill="#231F20"/>
<path d="M22.9827 44.2745C24.1129 44.2745 25.0292 43.1792 25.0292 41.8282C25.0292 40.4771 24.1129 39.3818 22.9827 39.3818C21.8524 39.3818 20.9362 40.4771 20.9362 41.8282C20.9362 43.1792 21.8524 44.2745 22.9827 44.2745Z" fill="#700548"/>
<path d="M22.9828 44.3471C21.8149 44.3471 20.8636 43.2172 20.8636 41.8281C20.8636 40.439 21.8118 39.3091 22.9828 39.3091C24.1538 39.3091 25.0957 40.439 25.0957 41.8313C25.0957 43.2235 24.1475 44.3471 22.9828 44.3471ZM22.9828 39.4482C21.8939 39.4482 21.009 40.5133 21.009 41.8186C21.009 43.124 21.8939 44.1891 22.9828 44.1891C24.0716 44.1891 24.9582 43.124 24.9582 41.8186C24.9582 40.5133 24.0716 39.4608 22.9828 39.4608L22.9828 39.4482Z" fill="#231F20"/>
<path d="M22.9828 46.1483C22.9619 46.1483 22.9418 46.14 22.927 46.1252C22.9121 46.1104 22.9038 46.0903 22.9038 46.0693L22.9038 40.682C22.9038 40.6611 22.9121 40.641 22.927 40.6262C22.9418 40.6114 22.9619 40.603 22.9828 40.603C23.0038 40.603 23.0239 40.6114 23.0387 40.6262C23.0535 40.641 23.0618 40.6611 23.0618 40.682L23.0618 46.0693C23.0618 46.0903 23.0535 46.1104 23.0387 46.1252C23.0239 46.14 23.0038 46.1483 22.9828 46.1483Z" fill="white"/>
<path d="M22.983 43.1632C22.9617 43.1631 22.9412 43.1546 22.9261 43.1395L21.9479 42.1154C21.9406 42.1082 21.9347 42.0996 21.9307 42.0901C21.9267 42.0806 21.9247 42.0704 21.9247 42.0601C21.9247 42.0498 21.9267 42.0396 21.9307 42.0301C21.9347 42.0206 21.9406 42.012 21.9479 42.0048C21.9553 41.9974 21.964 41.9915 21.9736 41.9875C21.9833 41.9835 21.9936 41.9814 22.004 41.9814C22.0145 41.9814 22.0248 41.9835 22.0344 41.9875C22.044 41.9915 22.0528 41.9974 22.0601 42.0048L23.0383 43.0289C23.0459 43.036 23.0519 43.0445 23.056 43.054C23.0602 43.0635 23.0623 43.0738 23.0623 43.0842C23.0623 43.0945 23.0602 43.1048 23.056 43.1143C23.0519 43.1238 23.0459 43.1324 23.0383 43.1395C23.0313 43.1471 23.0227 43.1531 23.0132 43.1572C23.0037 43.1613 22.9934 43.1633 22.983 43.1632Z" fill="white"/>
<path d="M22.9829 42.4065C22.9691 42.4063 22.9557 42.4026 22.9438 42.3956C22.9319 42.3887 22.922 42.3789 22.915 42.367C22.9046 42.349 22.9018 42.3276 22.9071 42.3075C22.9124 42.2873 22.9255 42.2701 22.9434 42.2596L24.1002 41.5753C24.1182 41.565 24.1395 41.5623 24.1595 41.5676C24.1796 41.5729 24.1967 41.5858 24.2073 41.6037C24.2178 41.6215 24.221 41.6427 24.216 41.6629C24.2111 41.683 24.1984 41.7003 24.1808 41.7112L23.024 42.3955C23.0116 42.403 22.9974 42.4069 22.9829 42.4065Z" fill="white"/>
<path d="M46.329 44.2745C47.4592 44.2745 48.3755 43.1792 48.3755 41.8282C48.3755 40.4771 47.4592 39.3818 46.329 39.3818C45.1987 39.3818 44.2825 40.4771 44.2825 41.8282C44.2825 43.1792 45.1987 44.2745 46.329 44.2745Z" fill="#700548"/>
<path d="M46.3287 44.3471C45.1656 44.3471 44.2174 43.2172 44.2174 41.8312C44.2174 40.4453 45.1656 39.3027 46.3287 39.3027C47.4918 39.3027 48.4479 40.4327 48.4479 41.8218C48.4479 43.2109 47.4965 44.3471 46.3287 44.3471ZM46.3287 39.4481C45.2398 39.4481 44.3533 40.5133 44.3533 41.8186C44.3533 43.1239 45.2398 44.1891 46.3287 44.1891C47.4175 44.1891 48.3025 43.1239 48.3025 41.8186C48.3025 40.5133 47.4175 39.4608 46.3287 39.4608L46.3287 39.4481Z" fill="#231F20"/>
<path d="M46.3289 46.1483C46.308 46.1483 46.2879 46.14 46.2731 46.1252C46.2582 46.1104 46.2499 46.0903 46.2499 46.0693L46.2499 40.682C46.2499 40.6611 46.2582 40.641 46.2731 40.6262C46.2879 40.6114 46.308 40.603 46.3289 40.603C46.3499 40.603 46.37 40.6114 46.3848 40.6262C46.3996 40.641 46.4079 40.6611 46.4079 40.682L46.4079 46.0693C46.4079 46.0903 46.3996 46.1104 46.3848 46.1252C46.37 46.14 46.3499 46.1483 46.3289 46.1483Z" fill="white"/>
<path d="M46.3289 43.1632C46.3075 43.1631 46.2871 43.1546 46.272 43.1395L45.2922 42.1154C45.2848 42.1082 45.279 42.0996 45.275 42.0901C45.271 42.0806 45.269 42.0704 45.269 42.0601C45.269 42.0498 45.271 42.0396 45.275 42.0301C45.279 42.0206 45.2848 42.012 45.2922 42.0048C45.2995 41.9974 45.3083 41.9915 45.3179 41.9875C45.3275 41.9835 45.3379 41.9814 45.3483 41.9814C45.3587 41.9814 45.3691 41.9835 45.3787 41.9875C45.3883 41.9915 45.3971 41.9974 45.4044 42.0048L46.3826 43.0289C46.39 43.0361 46.3958 43.0447 46.3998 43.0542C46.4038 43.0637 46.4059 43.0739 46.4059 43.0842C46.4059 43.0945 46.4038 43.1047 46.3998 43.1142C46.3958 43.1237 46.39 43.1323 46.3826 43.1395C46.3759 43.147 46.3676 43.1531 46.3583 43.1571C46.349 43.1612 46.339 43.1633 46.3289 43.1632Z" fill="white"/>
<path d="M46.3289 42.4062C46.3151 42.4062 46.3015 42.4025 46.2896 42.3955C46.2777 42.3886 46.2678 42.3787 46.2609 42.3667C46.2504 42.3489 46.2473 42.3276 46.2524 42.3075C46.2574 42.2874 46.2701 42.2701 46.2878 42.2593L47.4446 41.575C47.4627 41.5644 47.4842 41.5613 47.5045 41.5663C47.5249 41.5713 47.5425 41.5841 47.5536 41.6019C47.5641 41.6201 47.5669 41.6418 47.5616 41.6622C47.5563 41.6826 47.5432 41.7 47.5252 41.7109L46.3684 42.3952C46.3566 42.4027 46.3428 42.4065 46.3289 42.4062Z" fill="white"/>
<path d="M50.2622 44.6647C51.039 44.6647 51.6687 43.8071 51.6687 42.7493C51.6687 41.6915 51.039 40.834 50.2622 40.834C49.4854 40.834 48.8557 41.6915 48.8557 42.7493C48.8557 43.8071 49.4854 44.6647 50.2622 44.6647Z" fill="#700548"/>
<path d="M50.2623 44.7372C49.4468 44.7372 48.7847 43.8459 48.7847 42.7491C48.7847 41.6524 49.4468 40.7627 50.2623 40.7627C51.0777 40.7627 51.7414 41.654 51.7414 42.7491C51.7414 43.8443 51.0777 44.7372 50.2623 44.7372ZM50.2623 40.9065C49.5274 40.9065 48.9285 41.733 48.9285 42.7491C48.9285 43.7653 49.5274 44.5918 50.2623 44.5918C50.9971 44.5918 51.596 43.7653 51.596 42.7491C51.596 41.733 50.9987 40.9065 50.2623 40.9065Z" fill="#231F20"/>
<path d="M50.2623 46.1487C50.2413 46.1487 50.2213 46.1404 50.2064 46.1256C50.1916 46.1108 50.1833 46.0907 50.1833 46.0697L50.1833 41.8534C50.1833 41.8325 50.1916 41.8124 50.2064 41.7976C50.2213 41.7827 50.2413 41.7744 50.2623 41.7744C50.2833 41.7744 50.3034 41.7827 50.3182 41.7976C50.333 41.8124 50.3413 41.8325 50.3413 41.8534L50.3413 46.0697C50.3413 46.0907 50.333 46.1108 50.3182 46.1256C50.3034 46.1404 50.2833 46.1487 50.2623 46.1487Z" fill="white"/>
<path d="M50.2622 43.8127C50.2507 43.8127 50.2394 43.8101 50.229 43.8052C50.2186 43.8003 50.2095 43.7931 50.2022 43.7842L49.529 42.983C49.5222 42.9752 49.5171 42.9661 49.5139 42.9562C49.5107 42.9464 49.5095 42.936 49.5104 42.9257C49.5112 42.9154 49.5142 42.9054 49.519 42.8962C49.5238 42.887 49.5305 42.8789 49.5385 42.8724C49.5547 42.859 49.5755 42.8525 49.5965 42.8543C49.6175 42.8561 49.6369 42.866 49.6507 42.8819L50.3223 43.6831C50.3291 43.6909 50.3342 43.7 50.3374 43.7099C50.3406 43.7197 50.3418 43.7301 50.3409 43.7404C50.34 43.7507 50.3371 43.7608 50.3323 43.7699C50.3274 43.7791 50.3208 43.7872 50.3128 43.7937C50.2989 43.8062 50.2809 43.8129 50.2622 43.8127Z" fill="white"/>
<path d="M50.2623 43.2206C50.2494 43.2206 50.2368 43.2174 50.2255 43.2114C50.2142 43.2053 50.2046 43.1965 50.1975 43.1858C50.1915 43.1772 50.1873 43.1675 50.1851 43.1573C50.1829 43.1471 50.1827 43.1365 50.1846 43.1262C50.1865 43.1159 50.1905 43.1061 50.1962 43.0973C50.2019 43.0886 50.2094 43.081 50.218 43.0752L51.0082 42.5395C51.0258 42.5279 51.0473 42.5238 51.068 42.5279C51.0887 42.5321 51.1069 42.5441 51.1188 42.5616C51.1302 42.579 51.1343 42.6002 51.1302 42.6207C51.126 42.6411 51.114 42.659 51.0967 42.6706L50.3065 43.2063C50.2937 43.2157 50.2782 43.2207 50.2623 43.2206Z" fill="white"/>
<path d="M28.3262 69.8574C28.4407 70.1677 28.6438 70.4376 28.9102 70.6335C29.1767 70.8295 29.4948 70.9429 29.8251 70.9597C30.1555 70.9766 30.4835 70.896 30.7685 70.7282C31.0535 70.5603 31.2829 70.3125 31.4284 70.0154C31.5937 70.1731 31.8026 70.2775 32.028 70.3153C32.2534 70.353 32.4849 70.3224 32.6926 70.2272C32.8994 70.1211 33.0716 69.9581 33.1886 69.7573C33.3057 69.5565 33.3628 69.3263 33.3532 69.0941C33.8273 69.3912 34.5258 68.9724 34.5242 68.4035L26.3635 68.4035C26.3449 68.5172 26.3577 68.6339 26.4006 68.7408C26.4435 68.8478 26.5148 68.941 26.6068 69.0103C26.7048 69.0748 26.8192 69.1099 26.9365 69.1116C27.0538 69.1132 27.1691 69.0814 27.269 69.0198C27.0699 69.6156 27.8616 69.9648 28.3262 69.8574Z" fill="white"/>
<path d="M34.5227 68.3248L26.3636 68.3248C26.3454 68.3247 26.3277 68.3307 26.3133 68.3419C26.299 68.3531 26.2888 68.3688 26.2845 68.3865C26.2613 68.5156 26.2746 68.6487 26.3229 68.7707C26.3712 68.8927 26.4526 68.9988 26.5579 69.0771C26.6438 69.1387 26.7434 69.1782 26.8481 69.1923C26.9529 69.2064 27.0594 69.1945 27.1585 69.1577C27.1514 69.2416 27.1618 69.326 27.189 69.4057C27.2162 69.4854 27.2596 69.5586 27.3165 69.6207C27.4396 69.7433 27.5889 69.8365 27.753 69.8934C27.9172 69.9503 28.0921 69.9694 28.2647 69.9494C28.3911 70.2558 28.6011 70.5206 28.8707 70.7134C29.1403 70.9063 29.4587 71.0194 29.7896 71.04C30.1204 71.0606 30.4504 70.9878 30.7418 70.8299C31.0333 70.672 31.2745 70.4353 31.4379 70.1469C31.6152 70.2891 31.8285 70.3792 32.054 70.4071C32.2795 70.435 32.5083 70.3997 32.7148 70.305C32.9158 70.2029 33.0866 70.05 33.2103 69.8615C33.3339 69.6729 33.4061 69.4554 33.4197 69.2304C33.5337 69.2706 33.6551 69.2856 33.7754 69.2741C33.8958 69.2627 34.0122 69.2251 34.1166 69.164C34.2558 69.0918 34.3732 68.9837 34.4566 68.8509C34.54 68.7181 34.5863 68.5654 34.5907 68.4086C34.5917 68.3887 34.5853 68.3691 34.5728 68.3537C34.5602 68.3382 34.5424 68.3279 34.5227 68.3248ZM26.4331 68.4829L34.4358 68.4829C34.4172 68.5952 34.3726 68.7017 34.3057 68.7939C34.2388 68.8861 34.1513 68.9614 34.0502 69.0139C33.9515 69.0735 33.8384 69.1051 33.7231 69.1051C33.6078 69.1051 33.4946 69.0735 33.396 69.0139C33.3834 69.0056 33.3688 69.001 33.3538 69.0005C33.3388 69.0001 33.3239 69.0039 33.311 69.0114C33.298 69.019 33.2874 69.03 33.2803 69.0433C33.2733 69.0566 33.2701 69.0716 33.2711 69.0865C33.2808 69.303 33.228 69.5176 33.119 69.7048C33.0099 69.892 32.8494 70.0438 32.6564 70.1422C32.4641 70.231 32.2495 70.2597 32.0406 70.2248C31.8318 70.1898 31.6383 70.0928 31.4854 69.9462C31.4761 69.9377 31.465 69.9313 31.453 69.9275C31.441 69.9237 31.4283 69.9225 31.4158 69.9241C31.4031 69.9265 31.3911 69.9317 31.3807 69.9393C31.3703 69.947 31.3618 69.9569 31.3558 69.9684C31.2165 70.2508 30.9974 70.4863 30.7256 70.6454C30.4539 70.8045 30.1413 70.8804 29.8268 70.8635C29.5124 70.8467 29.2097 70.7379 28.9565 70.5507C28.7032 70.3635 28.5105 70.1061 28.4022 69.8103C28.3951 69.792 28.3815 69.7769 28.364 69.7679C28.3466 69.7589 28.3264 69.7565 28.3073 69.7613C28.1526 69.7886 27.9937 69.7787 27.8436 69.7322C27.6935 69.6858 27.5567 69.6042 27.4445 69.4943C27.3855 69.4342 27.345 69.3586 27.3276 69.2763C27.3103 69.194 27.3168 69.1084 27.3465 69.0297C27.3517 69.0143 27.3522 68.9976 27.3478 68.982C27.3434 68.9663 27.3344 68.9523 27.3219 68.9419C27.3094 68.9315 27.294 68.9251 27.2779 68.9235C27.2617 68.922 27.2454 68.9254 27.2312 68.9333C27.1454 68.9885 27.0455 69.0179 26.9435 69.0179C26.8415 69.0179 26.7417 68.9885 26.6559 68.9333C26.588 68.8802 26.5328 68.8127 26.4942 68.7356C26.4557 68.6585 26.4348 68.5738 26.4331 68.4876L26.4331 68.4829Z" fill="#D1D3D4"/>
<path d="M34.156 57.784C34.1086 58.4667 33.6487 59.0846 33.0829 59.2063C32.9332 59.2485 32.7733 59.2367 32.6314 59.1728C32.4896 59.109 32.3747 58.9972 32.307 58.8571C32.1869 59.8937 31.1044 60.5828 30.3158 60.1213C30.1151 61.0948 29.385 61.9371 28.5459 61.9482C27.7067 61.9592 26.9118 60.9668 27.0951 59.9886C26.7917 60.2762 26.2528 59.9174 26.305 59.4576C25.9273 59.9759 25.3758 60.3631 24.8037 60.3062C24.2316 60.2493 23.6896 59.6298 23.7559 58.9471C23.2692 59.3138 22.517 58.8839 22.449 58.2012C22.3439 58.182 22.2472 58.1311 22.1718 58.0554C22.0964 57.9798 22.0459 57.8829 22.0271 57.7777L34.156 57.784Z" fill="white"/>
<path d="M34.156 57.705L22.0208 57.705C22.0079 57.7051 21.9952 57.7081 21.9837 57.7139C21.9722 57.7196 21.9622 57.7279 21.9544 57.7382C21.9473 57.7485 21.9425 57.7601 21.9404 57.7724C21.9382 57.7846 21.9387 57.7972 21.9418 57.8093C21.9637 57.9197 22.0151 58.022 22.0905 58.1055C22.1659 58.1889 22.2625 58.2504 22.37 58.2834C22.399 58.46 22.4709 58.6267 22.5795 58.7689C22.6881 58.9111 22.83 59.0244 22.9927 59.0988C23.0972 59.1485 23.2112 59.1748 23.3269 59.1762C23.4425 59.1776 23.5571 59.1539 23.6627 59.1067C23.6785 59.7942 24.2396 60.3457 24.7879 60.3994C25.2826 60.45 25.812 60.1829 26.2355 59.682C26.2602 59.7777 26.3052 59.867 26.3674 59.9438C26.4295 60.0207 26.5074 60.0834 26.5958 60.1276C26.6563 60.1596 26.7227 60.1789 26.7909 60.1844C26.8591 60.1898 26.9277 60.1812 26.9925 60.1592C26.9626 60.6384 27.1201 61.1104 27.4318 61.4756C27.5648 61.6462 27.7337 61.7854 27.9265 61.8834C28.1193 61.9815 28.3313 62.0359 28.5475 62.043C29.3535 62.0303 30.1278 61.2702 30.3728 60.2541C30.546 60.3298 30.7342 60.3652 30.9231 60.3576C31.112 60.3499 31.2967 60.2994 31.4632 60.2098C31.6832 60.0969 31.8764 59.9379 32.0296 59.7438C32.1828 59.5497 32.2925 59.3249 32.3513 59.0846C32.4476 59.181 32.5672 59.2509 32.6984 59.2874C32.8297 59.324 32.9681 59.326 33.1004 59.2932C33.6977 59.1652 34.1876 58.5205 34.2382 57.7967C34.2391 57.7854 34.2376 57.7741 34.2339 57.7635C34.2301 57.7529 34.2242 57.7431 34.2164 57.735C34.2087 57.7268 34.1993 57.7203 34.1889 57.7159C34.1785 57.7116 34.1673 57.7095 34.156 57.7097L34.156 57.705ZM22.1377 57.863L34.0675 57.863C33.9901 58.4809 33.5713 59.0151 33.0656 59.1273C32.9347 59.1649 32.7947 59.1554 32.67 59.1006C32.5453 59.0457 32.4437 58.9489 32.3829 58.827C32.3756 58.8106 32.3632 58.797 32.3475 58.7882C32.3319 58.7794 32.3138 58.7758 32.296 58.778C32.2782 58.7807 32.2618 58.789 32.2492 58.8019C32.2367 58.8147 32.2287 58.8313 32.2265 58.8492C32.197 59.1036 32.1053 59.3468 31.9595 59.5574C31.8137 59.7679 31.6182 59.9394 31.3905 60.0565C31.2322 60.1437 31.0544 60.1894 30.8737 60.1894C30.693 60.1894 30.5152 60.1437 30.357 60.0565C30.3459 60.0496 30.3334 60.0454 30.3204 60.0445C30.3074 60.0436 30.2944 60.0459 30.2825 60.0512C30.2706 60.0565 30.2602 60.0647 30.2523 60.075C30.2443 60.0853 30.239 60.0974 30.2368 60.1102C30.0314 61.1043 29.3045 61.8628 28.5459 61.8739C28.3536 61.8675 28.1652 61.8185 27.9941 61.7306C27.8231 61.6426 27.6736 61.5177 27.5566 61.365C27.3976 61.1808 27.281 60.9638 27.2152 60.7295C27.1494 60.4951 27.1359 60.2492 27.1758 60.0091C27.1785 59.9923 27.1759 59.9752 27.1684 59.9599C27.161 59.9447 27.1489 59.9321 27.134 59.924C27.1192 59.9158 27.1021 59.9125 27.0852 59.9145C27.0684 59.9164 27.0525 59.9235 27.0399 59.9348C26.9902 59.98 26.9274 60.0082 26.8606 60.0153C26.7939 60.0224 26.7266 60.0081 26.6685 59.9743C26.576 59.9287 26.4992 59.8565 26.448 59.767C26.3967 59.6774 26.3734 59.5747 26.3809 59.4718C26.3827 59.454 26.3786 59.4362 26.3691 59.421C26.3597 59.4058 26.3455 59.3943 26.3287 59.388C26.3122 59.3811 26.2938 59.38 26.2766 59.3849C26.2594 59.3898 26.2443 59.4004 26.2339 59.4149C25.8262 59.9743 25.2857 60.2793 24.8116 60.2319C24.3375 60.1845 23.7734 59.6156 23.8382 58.9677C23.8391 58.9518 23.8356 58.9361 23.8281 58.9221C23.8205 58.9081 23.8092 58.8966 23.7955 58.8887C23.7824 58.8798 23.767 58.8751 23.7512 58.8751C23.7355 58.8751 23.7201 58.8798 23.707 58.8887C23.6151 58.9552 23.5068 58.9954 23.3937 59.0049C23.2806 59.0144 23.1671 58.9928 23.0654 58.9424C22.9192 58.8761 22.7929 58.7726 22.6992 58.6423C22.6055 58.512 22.5476 58.3593 22.5312 58.1996C22.5292 58.1811 22.5209 58.1637 22.5077 58.1505C22.4944 58.1373 22.4771 58.129 22.4585 58.127C22.3867 58.1167 22.3189 58.0871 22.2625 58.0415C22.206 57.9959 22.1629 57.9359 22.1377 57.8678L22.1377 57.863Z" fill="#D1D3D4"/>
<path d="M48.5417 68.2141C48.5172 68.4555 48.4163 68.6828 48.2538 68.863C48.0912 69.0432 47.8754 69.1668 47.6378 69.216C47.3928 69.2603 47.0973 69.1939 46.9851 68.9711C46.8824 69.7012 45.9722 70.1863 45.31 69.8639C45.1409 70.5498 44.5198 71.1424 43.8198 71.1503C43.1197 71.1582 42.4433 70.4597 42.5982 69.7707C42.3422 69.973 41.8902 69.7201 41.9281 69.3962C41.6121 69.7612 41.138 70.0283 40.6639 69.9951C40.1898 69.9619 39.7268 69.521 39.7821 69.0374C39.6772 69.0942 39.5604 69.1255 39.4411 69.1287C39.3219 69.1318 39.2036 69.1069 39.0958 69.0558C38.9881 69.0046 38.8939 68.9288 38.8209 68.8345C38.7479 68.7402 38.6982 68.6299 38.6758 68.5128C38.5944 68.5031 38.5177 68.4697 38.4553 68.4165C38.3928 68.3634 38.3475 68.2929 38.325 68.2141L48.5417 68.2141Z" fill="white"/>
<path d="M48.5415 68.1333L38.3247 68.1333C38.3117 68.1334 38.2989 68.1366 38.2874 68.1427C38.2758 68.1487 38.2659 68.1574 38.2584 68.1681C38.2509 68.1787 38.246 68.191 38.244 68.2039C38.2421 68.2168 38.2432 68.23 38.2473 68.2424C38.2726 68.3261 38.3193 68.4017 38.3827 68.4619C38.4462 68.522 38.5243 68.5645 38.6092 68.5853C38.6384 68.7041 38.6945 68.8145 38.7731 68.9082C38.8518 69.0019 38.9508 69.0764 39.0627 69.1257C39.1599 69.1747 39.2658 69.2038 39.3744 69.2114C39.4829 69.219 39.5918 69.2049 39.6949 69.17C39.7091 69.3564 39.7822 69.5334 39.9035 69.6757C39.9957 69.7887 40.1094 69.8823 40.2379 69.9512C40.3665 70.0201 40.5074 70.0629 40.6525 70.0771C40.8787 70.085 41.104 70.0446 41.3133 69.9585C41.5226 69.8724 41.7111 69.7426 41.8662 69.5777C41.9146 69.6995 42.0049 69.8 42.1207 69.8611C42.2366 69.9223 42.3705 69.94 42.4984 69.9112C42.486 70.2055 42.5847 70.4938 42.7749 70.7187C42.8994 70.8745 43.0564 71.0012 43.2349 71.0902C43.4134 71.1792 43.6091 71.2282 43.8084 71.2339L43.8211 71.2339C44.499 71.2339 45.147 70.6918 45.365 69.9696C45.5337 70.0283 45.7128 70.0507 45.8907 70.0351C46.0685 70.0196 46.2411 69.9666 46.397 69.8796C46.6946 69.7277 46.9214 69.4658 47.0291 69.1495C47.1181 69.2171 47.2206 69.2649 47.3297 69.2894C47.4388 69.3139 47.5518 69.3147 47.6612 69.2917C47.9166 69.2393 48.1486 69.1066 48.3232 68.913C48.4978 68.7194 48.6058 68.4749 48.6315 68.2155C48.6329 68.2043 48.6318 68.193 48.6282 68.1824C48.6247 68.1717 48.6188 68.162 48.611 68.1539C48.6015 68.1457 48.5904 68.1397 48.5784 68.1361C48.5664 68.1326 48.5539 68.1316 48.5415 68.1333ZM38.4575 68.2913L48.4482 68.2913C48.4093 68.4972 48.3102 68.6869 48.1633 68.8363C48.0164 68.9857 47.8285 69.0881 47.6233 69.1305C47.4179 69.1684 47.1492 69.121 47.0576 68.9298C47.0521 68.9108 47.04 68.8945 47.0233 68.8839C47.0067 68.8734 46.9868 68.8692 46.9673 68.8723C46.9479 68.8755 46.9302 68.8856 46.9177 68.9008C46.9052 68.9161 46.8988 68.9354 46.8995 68.9551C46.8652 69.1202 46.795 69.2757 46.6938 69.4106C46.5927 69.5455 46.4631 69.6565 46.3142 69.7357C46.1653 69.8149 46.0008 69.8603 45.8324 69.8688C45.664 69.8773 45.4958 69.8486 45.3398 69.7847C45.3289 69.7797 45.317 69.777 45.305 69.777C45.293 69.777 45.2811 69.7797 45.2702 69.7847C45.2592 69.7899 45.2494 69.7974 45.2415 69.8066C45.2336 69.8159 45.2278 69.8268 45.2244 69.8385C45.0553 70.5291 44.4485 71.0569 43.8132 71.0648L43.8021 71.0648C43.6296 71.0582 43.4605 71.0147 43.3063 70.9373C43.152 70.8599 43.0161 70.7503 42.9077 70.616C42.8106 70.5039 42.7401 70.3714 42.7015 70.2283C42.663 70.0851 42.6572 69.9351 42.6848 69.7895C42.6886 69.773 42.6872 69.7558 42.6807 69.7402C42.6742 69.7246 42.6629 69.7114 42.6485 69.7026C42.6347 69.6933 42.6185 69.6884 42.6019 69.6884C42.5853 69.6884 42.569 69.6933 42.5552 69.7026C42.5014 69.7338 42.4404 69.7506 42.3782 69.7511C42.316 69.7517 42.2547 69.7361 42.2003 69.7058C42.146 69.6755 42.1004 69.6316 42.0682 69.5784C42.0359 69.5252 42.0181 69.4645 42.0164 69.4023C42.0188 69.3851 42.0154 69.3675 42.0069 69.3524C41.9983 69.3372 41.985 69.3253 41.9689 69.3185C41.953 69.3115 41.9352 69.3096 41.9182 69.3133C41.9011 69.317 41.8857 69.326 41.8741 69.3391C41.5328 69.731 41.084 69.9444 40.6778 69.9096C40.4305 69.8831 40.2035 69.7605 40.0457 69.5682C39.9839 69.4965 39.937 69.4132 39.908 69.323C39.879 69.2329 39.8683 69.1379 39.8766 69.0436C39.8786 69.0283 39.8762 69.0128 39.8697 68.9989C39.8633 68.9849 39.8531 68.973 39.8403 68.9646C39.8271 68.9568 39.8121 68.9527 39.7968 68.9527C39.7815 68.9527 39.7665 68.9568 39.7533 68.9646C39.6597 69.0125 39.5561 69.0381 39.4508 69.0392C39.3456 69.0404 39.2415 69.017 39.1468 68.9711C39.0521 68.9251 38.9694 68.8577 38.9052 68.7743C38.8409 68.6909 38.797 68.5938 38.7767 68.4905C38.7746 68.4721 38.7662 68.4549 38.753 68.442C38.7398 68.429 38.7225 68.421 38.704 68.4193C38.6564 68.4189 38.6095 68.4078 38.5668 68.3867C38.5241 68.3656 38.4868 68.3352 38.4575 68.2977L38.4575 68.2913Z" fill="#D1D3D4"/>
<path d="M52.5745 46.2764C52.4884 46.4078 52.3785 46.5219 52.2506 46.613C52.0714 46.735 51.8644 46.8099 51.6486 46.8306C51.4329 46.8513 51.2154 46.8172 51.0163 46.7315C51.157 47.1282 50.8867 47.5881 50.5011 47.7556C50.3033 47.8276 50.0926 47.8574 49.8825 47.8433C49.6724 47.8291 49.4676 47.7713 49.2811 47.6734C49.6178 48.2913 49.1231 49.0957 48.4673 49.3549C47.9489 49.5587 47.1193 49.5129 46.9028 48.9045C46.7641 49.2657 46.5078 49.5697 46.1752 49.7673C45.8425 49.965 45.453 50.0448 45.0694 49.9938C44.6859 49.9428 44.3307 49.7641 44.0612 49.4865C43.7917 49.2088 43.6236 48.8485 43.5841 48.4636C43.3894 48.645 43.1532 48.776 42.8961 48.8448C42.6391 48.9137 42.369 48.9185 42.1097 48.8586C41.6467 48.748 40.6305 48.0053 41.0161 47.3953C40.8723 47.6213 40.5041 47.6007 40.3176 47.4095C40.2332 47.305 40.1719 47.1838 40.1378 47.0538C40.1038 46.9239 40.0977 46.7881 40.1201 46.6557C40.0174 46.869 39.6807 46.8548 39.518 46.6825C39.4192 46.5676 39.3555 46.4266 39.3347 46.2764L52.5745 46.2764Z" fill="#080705"/>
<path d="M52.5744 46.1975L39.3282 46.1975C39.3168 46.1979 39.3056 46.2006 39.2953 46.2055C39.2849 46.2104 39.2757 46.2173 39.2682 46.2259C39.2611 46.235 39.2558 46.2454 39.2529 46.2565C39.2499 46.2677 39.2492 46.2793 39.2508 46.2907C39.272 46.4565 39.3431 46.6119 39.4547 46.7363C39.5118 46.7965 39.5825 46.8423 39.6608 46.8697C39.7391 46.8972 39.8228 46.9057 39.905 46.8944C39.9479 46.8885 39.9895 46.8757 40.0283 46.8565C40.0244 47.0829 40.1049 47.3026 40.2543 47.4728C40.3172 47.5352 40.3933 47.583 40.4769 47.6125C40.5605 47.642 40.6497 47.6526 40.7379 47.6434C40.7759 47.6391 40.8135 47.6311 40.8501 47.6197C40.8376 47.7377 40.8555 47.8568 40.9022 47.9658C41.0903 48.4399 41.7287 48.8587 42.0843 48.944C42.332 49.001 42.5892 49.0022 42.8373 48.9475C43.0855 48.8928 43.3184 48.7837 43.5192 48.628C43.5866 49.0009 43.77 49.3431 44.0432 49.6057C44.3165 49.8683 44.6656 50.038 45.041 50.0905C45.4163 50.1431 45.7986 50.0758 46.1335 49.8983C46.4683 49.7208 46.7386 49.4422 46.9058 49.1021C47.0002 49.2513 47.1373 49.3686 47.2993 49.4387C47.4972 49.5168 47.7087 49.5547 47.9214 49.5501C48.1341 49.5456 48.3438 49.4987 48.5381 49.4122C48.7325 49.3257 48.9077 49.2013 49.0534 49.0463C49.1991 48.8913 49.3125 48.7088 49.3869 48.5095C49.4745 48.2894 49.4861 48.0463 49.4201 47.8189C49.7744 47.9619 50.1697 47.9653 50.5263 47.8283C50.7133 47.7476 50.8708 47.611 50.9772 47.4373C51.0836 47.2636 51.1336 47.0613 51.1205 46.858C51.3163 46.917 51.5228 46.9315 51.7249 46.9003C51.927 46.8692 52.1195 46.7931 52.2884 46.6779C52.4252 46.5816 52.5426 46.4605 52.6345 46.3207C52.6425 46.3088 52.6472 46.2948 52.6479 46.2804C52.6486 46.266 52.6454 46.2517 52.6386 46.239C52.6317 46.2263 52.6216 46.2157 52.6091 46.2084C52.5967 46.2011 52.5825 46.1973 52.5681 46.1975L52.5744 46.1975ZM39.4278 46.3555L52.4164 46.3555C52.3545 46.4287 52.2833 46.4935 52.2046 46.5483C52.0368 46.6627 51.8428 46.7329 51.6406 46.7525C51.4384 46.7721 51.2346 46.7405 51.0478 46.6605C51.0338 46.6541 51.0182 46.652 51.003 46.6546C50.9878 46.6571 50.9737 46.6641 50.9625 46.6747C50.9511 46.685 50.9429 46.6984 50.9389 46.7133C50.935 46.7282 50.9355 46.7439 50.9404 46.7585C51.0715 47.1251 50.7981 47.5407 50.4663 47.683C50.2787 47.7511 50.079 47.7789 49.8799 47.7648C49.6809 47.7506 49.4871 47.6947 49.3111 47.6008C49.296 47.5939 49.2792 47.5918 49.263 47.595C49.2467 47.5981 49.2319 47.6063 49.2205 47.6184C49.2092 47.6304 49.2019 47.6457 49.1997 47.6621C49.1975 47.6785 49.2005 47.6952 49.2084 47.7098C49.2669 47.8246 49.3001 47.9505 49.3059 48.0792C49.3116 48.2078 49.2897 48.3363 49.2415 48.4557C49.1701 48.6409 49.0617 48.8096 48.9228 48.9515C48.784 49.0933 48.6176 49.2053 48.434 49.2807C48.089 49.4153 47.706 49.4153 47.361 49.2807C47.2716 49.2434 47.191 49.1879 47.1243 49.1177C47.0577 49.0475 47.0064 48.9641 46.9738 48.8729C46.9683 48.8577 46.9582 48.8445 46.9449 48.8351C46.9316 48.8258 46.9158 48.8208 46.8995 48.8208C46.8834 48.8204 46.8676 48.8251 46.8543 48.8342C46.841 48.8433 46.8308 48.8562 46.8252 48.8714C46.6938 49.2165 46.4499 49.5072 46.1329 49.6968C45.816 49.8863 45.4444 49.9636 45.0781 49.9161C44.7119 49.8687 44.3723 49.6992 44.1141 49.4351C43.856 49.171 43.6943 48.8277 43.6551 48.4605C43.6543 48.4456 43.6491 48.4313 43.64 48.4195C43.631 48.4077 43.6187 48.3988 43.6046 48.3941C43.5908 48.3888 43.5757 48.3874 43.5612 48.3902C43.5467 48.393 43.5332 48.3998 43.5224 48.4099C43.3359 48.581 43.1104 48.7039 42.8655 48.7679C42.6206 48.8318 42.3638 48.8347 42.1175 48.7765C41.8014 48.6991 41.2135 48.3024 41.0445 47.8931C41.0096 47.8201 40.9941 47.7393 40.9994 47.6585C41.0046 47.5777 41.0305 47.4996 41.0745 47.4317C41.0852 47.4138 41.0886 47.3924 41.0839 47.3721C41.0791 47.3517 41.0667 47.334 41.0492 47.3226C41.0404 47.3169 41.0306 47.313 41.0203 47.3112C41.01 47.3093 40.9995 47.3096 40.9893 47.312C40.9791 47.3143 40.9695 47.3188 40.961 47.3249C40.9526 47.3311 40.9455 47.3389 40.9402 47.3479C40.915 47.384 40.8821 47.414 40.8438 47.4356C40.8055 47.4573 40.7628 47.4699 40.7189 47.4728C40.6544 47.4786 40.5894 47.4705 40.5283 47.449C40.4672 47.4274 40.4115 47.393 40.3649 47.3479C40.2889 47.2515 40.234 47.1403 40.2038 47.0213C40.1736 46.9023 40.1687 46.7783 40.1895 46.6573C40.1912 46.6388 40.1864 46.6203 40.1758 46.605C40.1652 46.5897 40.1496 46.5787 40.1317 46.5738C40.1138 46.5688 40.0947 46.5704 40.0778 46.5782C40.0609 46.586 40.0473 46.5994 40.0394 46.6162C40.0238 46.6457 40.0013 46.6709 39.9737 46.6896C39.9462 46.7084 39.9145 46.7201 39.8813 46.7237C39.8244 46.7328 39.7662 46.7283 39.7113 46.7108C39.6564 46.6932 39.6064 46.663 39.5653 46.6226C39.4989 46.5461 39.4528 46.4543 39.431 46.3555L39.4278 46.3555Z" fill="#080705"/>
<path d="M34.0154 46.2759C33.8369 46.5907 33.5537 46.8331 33.215 46.9607C32.8763 47.0883 32.5036 47.0932 32.1617 46.9744C32.0732 47.5148 31.5296 47.8862 30.9828 47.9542C30.436 48.0221 29.8955 47.8609 29.3709 47.6981C29.5005 48.3303 29.1244 48.9829 28.5918 49.3433C28.0592 49.7036 27.3987 49.8174 26.757 49.8663C26.5595 49.8806 25.3348 49.4697 25.7267 49.1268C25.5605 49.2737 25.355 49.369 25.1355 49.4009C24.916 49.4329 24.6919 49.4002 24.4906 49.3068C24.2894 49.2134 24.1198 49.0634 24.0025 48.8751C23.8852 48.6867 23.8254 48.4683 23.8303 48.2465C23.6868 48.3448 23.5212 48.4059 23.3482 48.4244C23.1753 48.4428 23.0005 48.4181 22.8394 48.3524C22.3922 48.1643 22.3559 47.7361 22.0493 47.4279C22.0493 47.7171 21.7332 47.8451 21.4804 47.8467C21.19 47.8457 20.9027 47.7864 20.6356 47.6724C20.3685 47.5584 20.127 47.392 19.9254 47.183C19.663 47.5543 19.042 47.4611 18.7417 47.1198C18.5487 46.8756 18.4249 46.5842 18.383 46.2759L34.0154 46.2759Z" fill="#080705"/>
<path d="M34.0152 46.197L18.3859 46.197C18.3744 46.197 18.363 46.1995 18.3526 46.2045C18.3422 46.2094 18.3331 46.2166 18.3258 46.2255C18.318 46.2341 18.3124 46.2445 18.3094 46.2558C18.3064 46.267 18.306 46.2788 18.3084 46.2902C18.3501 46.6132 18.4803 46.9184 18.6845 47.1721C18.784 47.2815 18.9064 47.3678 19.043 47.4246C19.1795 47.4814 19.3269 47.5074 19.4747 47.5008C19.6491 47.495 19.8149 47.424 19.9393 47.3016C20.3549 47.7009 20.907 47.9269 21.4833 47.9338C21.6055 47.9422 21.7276 47.9162 21.8357 47.8586C21.9438 47.8011 22.0336 47.7143 22.0949 47.6082C22.1522 47.689 22.2049 47.7729 22.2529 47.8595C22.3642 48.1108 22.5614 48.3142 22.8092 48.4332C22.961 48.4945 23.1243 48.5225 23.2879 48.5151C23.4515 48.5077 23.6116 48.4652 23.7574 48.3905C23.7746 48.5948 23.8432 48.7913 23.9569 48.962C24.0705 49.1326 24.2255 49.2717 24.4073 49.3663C24.5892 49.4609 24.792 49.508 24.9969 49.5032C25.2019 49.4984 25.4023 49.4418 25.5795 49.3387C25.5834 49.3521 25.5882 49.3653 25.5937 49.3782C25.7327 49.7085 26.6035 49.9692 26.7631 49.9582C27.3241 49.9171 28.0463 49.8207 28.6358 49.4209C29.1099 49.0969 29.5413 48.4885 29.4686 47.8247C29.9427 47.9685 30.4674 48.1124 30.992 48.046C31.5167 47.9796 32.0777 47.6335 32.2199 47.0978C32.5715 47.1963 32.9459 47.1744 33.2835 47.0355C33.6212 46.8966 33.9027 46.6487 34.0831 46.3313C34.0898 46.3195 34.0933 46.3062 34.0933 46.2926C34.0933 46.2791 34.0898 46.2657 34.0831 46.2539C34.0784 46.2389 34.0695 46.2256 34.0575 46.2155C34.0454 46.2054 34.0307 46.199 34.0152 46.197ZM18.4823 46.355L33.8761 46.355C33.6932 46.6168 33.4298 46.8116 33.1261 46.91C32.8223 47.0084 32.4947 47.005 32.1931 46.9003C32.1823 46.8956 32.1708 46.8932 32.1591 46.8932C32.1474 46.8932 32.1358 46.8956 32.1251 46.9003C32.115 46.9065 32.1062 46.9148 32.0994 46.9246C32.0927 46.9344 32.0879 46.9455 32.0856 46.9571C32.0003 47.4755 31.4535 47.8105 30.9794 47.8721C30.4437 47.9417 29.8906 47.7694 29.3991 47.6193C29.3862 47.615 29.3723 47.6143 29.359 47.617C29.3457 47.6198 29.3334 47.626 29.3232 47.6351C29.3128 47.6444 29.3049 47.6564 29.3005 47.6697C29.2961 47.683 29.2952 47.6972 29.2979 47.711C29.4117 48.2577 29.1036 48.8993 28.552 49.2723C28.0005 49.6453 27.2988 49.7464 26.7568 49.7827C26.6146 49.7922 25.8418 49.5346 25.7438 49.2992C25.7296 49.2676 25.7264 49.2328 25.7849 49.1806C25.8006 49.1666 25.8101 49.1469 25.8113 49.1259C25.8125 49.1048 25.8053 49.0842 25.7912 49.0684C25.7772 49.0527 25.7575 49.0432 25.7364 49.042C25.7154 49.0409 25.6947 49.0481 25.679 49.0621C25.5246 49.1996 25.3333 49.289 25.1288 49.3192C24.9242 49.3494 24.7153 49.3191 24.5277 49.2322C24.3402 49.1452 24.1821 49.0052 24.073 48.8296C23.964 48.6539 23.9086 48.4502 23.9138 48.2435C23.9145 48.229 23.911 48.2145 23.9037 48.2019C23.8964 48.1893 23.8857 48.1791 23.8727 48.1724C23.8604 48.1647 23.8462 48.1606 23.8316 48.1606C23.8171 48.1606 23.8029 48.1647 23.7905 48.1724C23.6576 48.2629 23.5044 48.3192 23.3445 48.3363C23.1846 48.3534 23.023 48.3308 22.874 48.2704C22.6607 48.163 22.4926 47.9831 22.3999 47.7631C22.3234 47.6176 22.2283 47.4827 22.117 47.3617C22.1059 47.3509 22.092 47.3436 22.0769 47.3405C22.0617 47.3374 22.046 47.3387 22.0317 47.3443C22.0172 47.3502 22.0049 47.3603 21.9962 47.3732C21.9874 47.3862 21.9827 47.4014 21.9827 47.417C21.9827 47.6667 21.6887 47.7568 21.4928 47.7584C21.2144 47.7571 20.9391 47.7005 20.6827 47.592C20.4263 47.4835 20.1941 47.3252 19.9994 47.1262C19.9915 47.1179 19.9819 47.1114 19.9713 47.1073C19.9606 47.1032 19.9491 47.1016 19.9377 47.1025C19.926 47.1031 19.9146 47.1062 19.9042 47.1117C19.8938 47.1172 19.8848 47.1248 19.8777 47.1341C19.8311 47.1973 19.7704 47.2488 19.7004 47.2844C19.6305 47.3201 19.5532 47.339 19.4747 47.3396C19.3519 47.3445 19.2296 47.3224 19.1163 47.2748C19.003 47.2273 18.9015 47.1556 18.8189 47.0646C18.6458 46.8621 18.5296 46.6172 18.4823 46.355Z" fill="#080705"/>
<path d="M35.9828 78.11C35.9638 78.1104 35.9457 78.1182 35.9324 78.1318C35.9191 78.1454 35.9117 78.1637 35.9117 78.1827L35.9117 81.6183C35.9101 81.6286 35.9109 81.6392 35.9138 81.6492C35.9167 81.6592 35.9217 81.6685 35.9285 81.6764C35.9354 81.6844 35.9438 81.6907 35.9533 81.6951C35.9628 81.6994 35.9731 81.7017 35.9836 81.7017C35.994 81.7017 36.0044 81.6994 36.0139 81.6951C36.0234 81.6907 36.0318 81.6844 36.0386 81.6764C36.0455 81.6685 36.0505 81.6592 36.0534 81.6492C36.0563 81.6392 36.057 81.6286 36.0555 81.6183L36.0555 78.1827C36.0555 78.1634 36.0478 78.1449 36.0342 78.1313C36.0206 78.1176 36.0021 78.11 35.9828 78.11Z" fill="#080705"/>
<path d="M34.5226 59.4907L37.5489 59.4907L37.5489 57.8298L34.5226 57.8298L34.5226 59.4907Z" fill="#080705"/>
<path d="M37.549 57.7509L34.5227 57.7509C34.5017 57.7509 34.4816 57.7592 34.4668 57.774C34.452 57.7888 34.4437 57.8089 34.4437 57.8299L34.4437 59.4908C34.4437 59.5118 34.452 59.5319 34.4668 59.5467C34.4816 59.5615 34.5017 59.5698 34.5227 59.5698L37.549 59.5698C37.5699 59.5698 37.59 59.5615 37.6049 59.5467C37.6197 59.5319 37.628 59.5118 37.628 59.4908L37.628 57.8299C37.628 57.8089 37.6197 57.7888 37.6049 57.774C37.59 57.7592 37.5699 57.7509 37.549 57.7509ZM34.6017 57.9089L37.47 57.9089L37.47 59.4118L34.6017 59.4118L34.6017 57.9089Z" fill="#080705"/>
<path d="M38.9175 56.1689C36.7825 61.9828 36.7825 75.0283 36.7825 75.0283L35.2907 75.0283C35.2907 75.0283 35.2907 61.9828 33.1541 56.1689C31.8501 52.6882 30.1506 49.3689 28.0892 46.2761L30.6509 46.2761L30.6888 46.333C30.9063 47.5936 31.5622 48.7369 32.5407 49.561C33.5191 50.3852 34.7573 50.8371 36.0366 50.8371C37.3159 50.8371 38.554 50.3852 39.5325 49.561C40.511 48.7369 41.1668 47.5936 41.3843 46.333L41.4207 46.2793L43.9824 46.2793C41.9211 49.3711 40.2217 52.6893 38.9175 56.1689ZM34.0422 52.7728C34.9066 55.8433 36.0571 61.1958 36.0113 63.9108L36.0587 63.9108C36.0144 61.1958 37.1649 55.8433 38.0309 52.7728L34.0422 52.7728Z" fill="#700548"/>
<path d="M43.9823 46.2037L41.4206 46.2037C41.4088 46.2039 41.3973 46.2069 41.3868 46.2124C41.3764 46.2179 41.3674 46.2257 41.3605 46.2353L41.3242 46.289C41.3182 46.2975 41.3144 46.3072 41.3131 46.3175C41.0992 47.5619 40.4523 48.6906 39.4867 49.5043C38.5212 50.318 37.2991 50.7643 36.0365 50.7643C34.7738 50.7643 33.5517 50.318 32.5862 49.5043C31.6207 48.6906 30.9738 47.5619 30.7598 46.3175C30.7572 46.3073 30.753 46.2977 30.7471 46.289L30.7092 46.2321C30.7028 46.2225 30.6941 46.2146 30.6839 46.2091C30.6737 46.2036 30.6623 46.2006 30.6507 46.2005L28.0891 46.2005C28.0757 46.2007 28.0626 46.2044 28.0512 46.2114C28.0398 46.2183 28.0305 46.2282 28.0243 46.24C28.0172 46.2512 28.0135 46.264 28.0135 46.2772C28.0135 46.2903 28.0172 46.3032 28.0243 46.3143C30.0818 49.4026 31.7786 52.7165 33.0813 56.1913C35.1878 61.9262 35.2131 74.8959 35.2131 75.0255C35.2131 75.035 35.215 75.0444 35.2186 75.0533C35.2223 75.0621 35.2277 75.0701 35.2344 75.0769C35.2412 75.0836 35.2492 75.089 35.258 75.0926C35.2668 75.0963 35.2763 75.0981 35.2858 75.0981L36.7776 75.0981C36.7966 75.0977 36.8147 75.0899 36.828 75.0763C36.8413 75.0627 36.8487 75.0445 36.8487 75.0255C36.8487 74.8959 36.874 61.9262 38.979 56.1913C40.2817 52.7165 41.9784 49.4026 44.036 46.3143C44.043 46.3032 44.0468 46.2903 44.0468 46.2772C44.0468 46.264 44.043 46.2512 44.036 46.24C44.0304 46.2303 44.0226 46.222 44.0133 46.2157C44.004 46.2094 43.9934 46.2053 43.9823 46.2037ZM41.4538 46.3491L43.8416 46.3491C41.8122 49.4164 40.1359 52.7032 38.8447 56.147C36.8108 61.6781 36.7097 73.9034 36.7049 74.9528L35.3569 74.9528C35.3569 73.8971 35.251 61.6781 33.2156 56.147C31.9251 52.7029 30.2487 49.416 28.2186 46.3491L30.6065 46.3491L30.6144 46.3601C30.8382 47.6341 31.504 48.7885 32.4946 49.6203C33.4853 50.452 34.7374 50.908 36.0309 50.908C37.3244 50.908 38.5766 50.452 39.5672 49.6203C40.5579 48.7885 41.2236 47.6341 41.4474 46.3601L41.4538 46.3491ZM38.0261 52.7004L34.0421 52.7004C34.0308 52.7004 34.0197 52.7029 34.0096 52.7078C33.9995 52.7128 33.9906 52.7199 33.9836 52.7288C33.9773 52.7379 33.973 52.7483 33.9711 52.7592C33.9692 52.7701 33.9697 52.7813 33.9726 52.792C34.7627 55.5829 35.9875 61.0697 35.9385 63.9095C35.9386 63.9289 35.9459 63.9475 35.959 63.9617C35.9728 63.9756 35.9915 63.9836 36.0112 63.9838L36.0586 63.9838C36.0683 63.9839 36.078 63.982 36.087 63.9782C36.0959 63.9743 36.104 63.9687 36.1107 63.9617C36.1239 63.9475 36.1312 63.9289 36.1313 63.9095C36.0854 61.065 37.3134 55.5829 38.1003 52.792C38.1029 52.7812 38.1031 52.7699 38.1009 52.759C38.0987 52.7481 38.0942 52.7378 38.0877 52.7288C38.0809 52.7201 38.0723 52.7131 38.0625 52.7082C38.0526 52.7033 38.0418 52.7006 38.0308 52.7004L38.0261 52.7004ZM34.1322 52.8457L37.9249 52.8457C37.2454 55.2779 36.2577 59.6411 36.0286 62.6026C35.8042 59.6348 34.8165 55.2794 34.1369 52.8457L34.1322 52.8457Z" fill="#080705"/>
<path d="M40.4376 53.3799L31.6337 53.3799C31.46 53.3799 31.3192 53.2391 31.3192 53.0654L31.3192 52.8631C31.3192 52.6894 31.46 52.5486 31.6337 52.5486L40.4376 52.5486C40.6113 52.5486 40.7521 52.6894 40.7521 52.8631L40.7521 53.0654C40.7521 53.2391 40.6113 53.3799 40.4376 53.3799Z" fill="white"/>
<path d="M40.4377 52.4713L31.6322 52.4713C31.5283 52.4713 31.4286 52.5126 31.3551 52.5861C31.2816 52.6596 31.2403 52.7593 31.2403 52.8632L31.2403 53.0671C31.2403 53.171 31.2816 53.2707 31.3551 53.3442C31.4286 53.4177 31.5283 53.459 31.6322 53.459L40.4377 53.459C40.5418 53.459 40.6417 53.4177 40.7154 53.3443C40.7892 53.2708 40.8308 53.1712 40.8312 53.0671L40.8312 52.8632C40.8308 52.7591 40.7892 52.6594 40.7154 52.586C40.6417 52.5125 40.5418 52.4713 40.4377 52.4713ZM31.6322 53.301C31.5702 53.301 31.5107 53.2763 31.4668 53.2324C31.423 53.1886 31.3983 53.1291 31.3983 53.0671L31.3983 52.8632C31.3983 52.8012 31.423 52.7417 31.4668 52.6978C31.5107 52.654 31.5702 52.6293 31.6322 52.6293L40.4377 52.6293C40.4999 52.6293 40.5596 52.6539 40.6037 52.6977C40.6478 52.7415 40.6728 52.801 40.6732 52.8632L40.6732 53.0671C40.6728 53.1292 40.6478 53.1887 40.6037 53.2325C40.5596 53.2764 40.4999 53.301 40.4377 53.301L31.6322 53.301Z" fill="#080705"/>
<path d="M38.3424 60.3218L33.7311 60.3218C33.5434 60.3218 33.3913 60.1697 33.3913 59.982L33.3913 59.8303C33.3913 59.6427 33.5434 59.4905 33.7311 59.4905L38.3424 59.4905C38.5301 59.4905 38.6822 59.6427 38.6822 59.8303L38.6822 59.982C38.6822 60.1697 38.5301 60.3218 38.3424 60.3218Z" fill="white"/>
<path d="M38.3406 59.4116L33.7292 59.4116C33.6185 59.412 33.5123 59.4564 33.4341 59.5348C33.3559 59.6133 33.312 59.7196 33.312 59.8304L33.312 59.9884C33.312 60.0992 33.3559 60.2055 33.4341 60.284C33.5123 60.3625 33.6185 60.4068 33.7292 60.4072L38.3406 60.4072C38.3956 60.4072 38.4501 60.3964 38.5009 60.3753C38.5517 60.3543 38.5978 60.3235 38.6367 60.2846C38.6756 60.2457 38.7065 60.1995 38.7275 60.1487C38.7486 60.0979 38.7594 60.0434 38.7594 59.9884L38.7594 59.8304C38.7594 59.7754 38.7486 59.721 38.7275 59.6701C38.7065 59.6193 38.6756 59.5732 38.6367 59.5343C38.5978 59.4954 38.5517 59.4646 38.5009 59.4435C38.4501 59.4225 38.3956 59.4116 38.3406 59.4116ZM33.7292 60.2429C33.6951 60.2429 33.6612 60.2361 33.6297 60.223C33.5982 60.2099 33.5695 60.1906 33.5454 60.1664C33.5213 60.1422 33.5023 60.1134 33.4893 60.0818C33.4764 60.0502 33.4699 60.0163 33.4701 59.9821L33.4701 59.8241C33.4699 59.7899 33.4764 59.7561 33.4893 59.7244C33.5023 59.6928 33.5213 59.664 33.5454 59.6398C33.5695 59.6156 33.5982 59.5963 33.6297 59.5832C33.6612 59.5701 33.6951 59.5633 33.7292 59.5633L38.3406 59.5633C38.4098 59.5633 38.4761 59.5908 38.525 59.6397C38.5739 59.6886 38.6014 59.7549 38.6014 59.8241L38.6014 59.9821C38.6014 60.0513 38.5739 60.1176 38.525 60.1665C38.4761 60.2154 38.4098 60.2429 38.3406 60.2429L33.7292 60.2429Z" fill="#080705"/>
<path d="M34.7439 76.6211L37.3261 76.6211L37.3261 75.7993C37.3261 75.5952 37.245 75.3995 37.1007 75.2551C36.9564 75.1108 36.7606 75.0297 36.5565 75.0297L35.5151 75.0297C35.4139 75.0295 35.3136 75.0493 35.2201 75.0878C35.1265 75.1264 35.0415 75.1831 34.9699 75.2546C34.8982 75.3261 34.8414 75.411 34.8026 75.5044C34.7639 75.5979 34.7439 75.6981 34.7439 75.7993L34.7439 76.6211Z" fill="#700548"/>
<path d="M36.5564 74.9555L35.515 74.9555C35.2915 74.9559 35.0772 75.045 34.9193 75.2032C34.7614 75.3614 34.6727 75.5759 34.6727 75.7994L34.6727 76.6227C34.6727 76.6416 34.6802 76.6597 34.6935 76.673C34.7069 76.6864 34.725 76.6938 34.7438 76.6938L37.3276 76.6938C37.3465 76.6938 37.3646 76.6864 37.3779 76.673C37.3912 76.6597 37.3987 76.6416 37.3987 76.6227L37.3987 75.7994C37.3987 75.5759 37.31 75.3614 37.1521 75.2032C36.9942 75.045 36.78 74.9559 36.5564 74.9555ZM34.8181 76.55L34.8181 75.7994C34.8181 75.6141 34.8917 75.4365 35.0227 75.3055C35.1537 75.1745 35.3313 75.1009 35.5166 75.1009L36.558 75.1009C36.743 75.1013 36.9203 75.1751 37.0509 75.306C37.1816 75.437 37.2549 75.6144 37.2549 75.7994L37.2549 76.55L34.8181 76.55Z" fill="#080705"/>
<path d="M35.5356 77.7573L36.4095 77.7573C36.4797 77.7571 36.5491 77.7431 36.6138 77.7161C36.6786 77.689 36.7373 77.6495 36.7868 77.5998C36.8362 77.55 36.8754 77.491 36.9021 77.4261C36.9287 77.3612 36.9423 77.2917 36.9421 77.2216L36.9421 76.6211L35.0062 76.6211L35.0062 77.2216C35.0062 77.3633 35.0625 77.4991 35.1627 77.5993C35.2628 77.6995 35.3987 77.7557 35.5404 77.7557L35.5356 77.7573Z" fill="#700548"/>
<path d="M36.9422 76.5506L35.0063 76.5506C34.987 76.5506 34.9685 76.5583 34.9549 76.5719C34.9413 76.5856 34.9336 76.604 34.9336 76.6233L34.9336 77.2223C34.9336 77.3832 34.9976 77.5376 35.1114 77.6514C35.2252 77.7652 35.3795 77.8291 35.5405 77.8291L36.4144 77.8291C36.5742 77.8274 36.727 77.7628 36.8394 77.6491C36.9518 77.5355 37.0149 77.3821 37.0149 77.2223L37.0149 76.6217C37.0149 76.6123 37.013 76.6029 37.0093 76.5942C37.0057 76.5854 37.0003 76.5775 36.9935 76.5709C36.9867 76.5643 36.9787 76.5591 36.9699 76.5556C36.9611 76.5521 36.9517 76.5504 36.9422 76.5506ZM35.0727 76.6944L36.8711 76.6944L36.8711 77.2223C36.8711 77.3446 36.8225 77.462 36.7359 77.5486C36.6494 77.6351 36.532 77.6837 36.4096 77.6837L35.5357 77.6837C35.4132 77.6837 35.2957 77.6351 35.2089 77.5487C35.1221 77.4622 35.0731 77.3448 35.0727 77.2223L35.0727 76.6944Z" fill="#080705"/>
<path d="M35.5577 78.6079L36.4079 78.6079L36.4079 77.7577L35.5577 77.7577L35.5577 78.6079Z" fill="#700548"/>
<path d="M36.4094 77.6851L35.5577 77.6851C35.5387 77.6855 35.5206 77.6933 35.5073 77.7069C35.494 77.7205 35.4865 77.7388 35.4865 77.7578L35.4865 78.608C35.4865 78.627 35.494 78.6452 35.5073 78.6588C35.5206 78.6724 35.5387 78.6803 35.5577 78.6807L36.4094 78.6807C36.4285 78.6803 36.4465 78.6724 36.4598 78.6588C36.4731 78.6452 36.4806 78.627 36.4806 78.608L36.4806 77.7578C36.4806 77.7388 36.4731 77.7205 36.4598 77.7069C36.4465 77.6933 36.4285 77.6855 36.4094 77.6851ZM35.6383 77.8305L36.3447 77.8305L36.3447 78.5353L35.6383 78.5353L35.6383 77.8305Z" fill="#080705"/>
<path d="M23.0954 48.0712C24.2257 48.0712 25.1419 49.1665 25.1419 50.5175C25.1419 51.8686 24.2257 52.9639 23.0954 52.9639C21.9652 52.9639 21.0489 51.8686 21.0489 50.5175C21.0489 49.1665 21.9652 48.0712 23.0954 48.0712Z" fill="#700548"/>
<path d="M23.0954 47.9986C21.9276 47.9986 20.9762 49.1285 20.9762 50.5176C20.9762 51.9067 21.9244 53.0366 23.0954 53.0366C24.2664 53.0366 25.2083 51.9067 25.2083 50.5144C25.2083 49.1222 24.2601 47.9986 23.0954 47.9986ZM23.0954 52.8976C22.0066 52.8976 21.1216 51.8324 21.1216 50.5271C21.1216 49.2217 22.0066 48.1566 23.0954 48.1566C24.1843 48.1566 25.0708 49.2217 25.0708 50.5271C25.0708 51.8324 24.1843 52.8849 23.0954 52.8849L23.0954 52.8976Z" fill="#080705"/>
<path d="M23.0952 46.1974C23.0742 46.1974 23.0541 46.2057 23.0393 46.2205C23.0245 46.2353 23.0162 46.2554 23.0162 46.2764L23.0162 51.6637C23.0162 51.6846 23.0245 51.7047 23.0393 51.7195C23.0541 51.7343 23.0742 51.7427 23.0952 51.7427C23.1161 51.7427 23.1362 51.7343 23.1511 51.7195C23.1659 51.7047 23.1742 51.6846 23.1742 51.6637L23.1742 46.2764C23.1742 46.2554 23.1659 46.2353 23.1511 46.2205C23.1362 46.2057 23.1161 46.1974 23.0952 46.1974Z" fill="white"/>
<path d="M23.0954 49.1825C23.074 49.1826 23.0536 49.1911 23.0385 49.2062L22.0603 50.2303C22.0529 50.2375 22.0471 50.2461 22.0431 50.2556C22.0391 50.2651 22.037 50.2753 22.037 50.2856C22.037 50.2959 22.0391 50.3061 22.0431 50.3156C22.0471 50.3251 22.0529 50.3337 22.0603 50.3409C22.0676 50.3483 22.0764 50.3542 22.086 50.3582C22.0956 50.3622 22.106 50.3643 22.1164 50.3643C22.1268 50.3643 22.1372 50.3622 22.1468 50.3582C22.1564 50.3542 22.1651 50.3483 22.1725 50.3409L23.1507 49.3168C23.1583 49.3097 23.1643 49.3012 23.1684 49.2917C23.1725 49.2822 23.1747 49.2719 23.1747 49.2615C23.1747 49.2512 23.1725 49.2409 23.1684 49.2314C23.1643 49.2219 23.1583 49.2133 23.1507 49.2062C23.1437 49.1986 23.1351 49.1926 23.1256 49.1885C23.116 49.1844 23.1058 49.1824 23.0954 49.1825Z" fill="white"/>
<path d="M23.0954 49.9392C23.0816 49.9394 23.0681 49.9431 23.0562 49.9501C23.0443 49.957 23.0344 49.9668 23.0274 49.9787C23.017 49.9967 23.0142 50.0181 23.0195 50.0382C23.0249 50.0584 23.0379 50.0756 23.0559 50.0861L24.2126 50.7704C24.2306 50.7807 24.252 50.7834 24.272 50.7781C24.292 50.7728 24.3092 50.7599 24.3197 50.7421C24.3303 50.7242 24.3334 50.703 24.3285 50.6829C24.3235 50.6627 24.3109 50.6454 24.2932 50.6345L23.1364 49.9502C23.1241 49.9427 23.1098 49.9388 23.0954 49.9392Z" fill="white"/>
<path d="M46.4413 48.0712C47.5716 48.0712 48.4878 49.1665 48.4878 50.5175C48.4878 51.8686 47.5716 52.9639 46.4413 52.9639C45.3111 52.9639 44.3948 51.8686 44.3948 50.5175C44.3948 49.1665 45.3111 48.0712 46.4413 48.0712Z" fill="#700548"/>
<path d="M46.4412 47.9986C45.2781 47.9986 44.3299 49.1285 44.3299 50.5145C44.3299 51.9004 45.2781 53.043 46.4412 53.043C47.6043 53.043 48.5604 51.913 48.5604 50.5239C48.5604 49.1349 47.6091 47.9986 46.4412 47.9986ZM46.4412 52.8976C45.3524 52.8976 44.4658 51.8324 44.4658 50.5271C44.4658 49.2218 45.3524 48.1566 46.4412 48.1566C47.5301 48.1566 48.415 49.2218 48.415 50.5271C48.415 51.8324 47.5301 52.8849 46.4412 52.8849L46.4412 52.8976Z" fill="#080705"/>
<path d="M46.4413 46.1974C46.4203 46.1974 46.4002 46.2057 46.3854 46.2205C46.3706 46.2353 46.3623 46.2554 46.3623 46.2764L46.3623 51.6637C46.3623 51.6846 46.3706 51.7047 46.3854 51.7195C46.4002 51.7343 46.4203 51.7427 46.4413 51.7427C46.4622 51.7427 46.4823 51.7343 46.4972 51.7195C46.512 51.7047 46.5203 51.6846 46.5203 51.6637L46.5203 46.2764C46.5203 46.2554 46.512 46.2353 46.4972 46.2205C46.4823 46.2057 46.4622 46.1974 46.4413 46.1974Z" fill="white"/>
<path d="M46.4411 49.1825C46.4197 49.1826 46.3992 49.1911 46.3842 49.2062L45.4044 50.2303C45.397 50.2375 45.3912 50.2461 45.3872 50.2556C45.3832 50.2651 45.3811 50.2753 45.3811 50.2856C45.3811 50.2959 45.3832 50.3061 45.3872 50.3156C45.3912 50.3251 45.397 50.3337 45.4044 50.3409C45.4117 50.3483 45.4205 50.3542 45.4301 50.3582C45.4397 50.3622 45.45 50.3643 45.4605 50.3643C45.4709 50.3643 45.4812 50.3622 45.4909 50.3582C45.5005 50.3542 45.5092 50.3483 45.5166 50.3409L46.4948 49.3168C46.5022 49.3096 46.508 49.301 46.512 49.2915C46.516 49.282 46.518 49.2718 46.518 49.2615C46.518 49.2512 46.516 49.241 46.512 49.2315C46.508 49.222 46.5022 49.2134 46.4948 49.2062C46.488 49.1987 46.4798 49.1927 46.4705 49.1886C46.4612 49.1845 46.4512 49.1824 46.4411 49.1825Z" fill="white"/>
<path d="M46.4413 49.9395C46.4275 49.9396 46.414 49.9432 46.4021 49.9502C46.3902 49.9571 46.3803 49.967 46.3734 49.979C46.3629 49.9968 46.3598 50.0181 46.3648 50.0382C46.3698 50.0583 46.3826 50.0756 46.4002 50.0864L47.557 50.7707C47.5751 50.7813 47.5966 50.7844 47.617 50.7794C47.6373 50.7744 47.655 50.7616 47.6661 50.7438C47.6765 50.7256 47.6794 50.7039 47.6741 50.6835C47.6688 50.6631 47.6557 50.6457 47.6376 50.6348L46.4808 49.9505C46.469 49.943 46.4553 49.9392 46.4413 49.9395Z" fill="white"/>
<path d="M50.3748 47.681C51.1515 47.681 51.7812 48.5386 51.7812 49.5964C51.7812 50.6542 51.1515 51.5117 50.3748 51.5117C49.598 51.5117 48.9683 50.6542 48.9683 49.5964C48.9683 48.5386 49.598 47.681 50.3748 47.681Z" fill="#700548"/>
<path d="M50.3746 47.608C49.5592 47.608 48.897 48.4993 48.897 49.5961C48.897 50.6928 49.5592 51.5825 50.3746 51.5825C51.19 51.5825 51.8538 50.6912 51.8538 49.5961C51.8538 48.5009 51.19 47.608 50.3746 47.608ZM50.3746 51.4387C49.6398 51.4387 49.0408 50.6122 49.0408 49.5961C49.0408 48.5799 49.6398 47.7534 50.3746 47.7534C51.1094 47.7534 51.7084 48.5799 51.7084 49.5961C51.7084 50.6122 51.111 51.4387 50.3746 51.4387Z" fill="#080705"/>
<path d="M50.3747 46.197C50.3537 46.197 50.3336 46.2053 50.3188 46.2201C50.304 46.2349 50.2957 46.255 50.2957 46.276L50.2957 50.4923C50.2957 50.5132 50.304 50.5333 50.3188 50.5481C50.3336 50.563 50.3537 50.5713 50.3747 50.5713C50.3956 50.5713 50.4157 50.563 50.4305 50.5481C50.4454 50.5333 50.4537 50.5132 50.4537 50.4923L50.4537 46.276C50.4537 46.255 50.4454 46.2349 50.4305 46.2201C50.4157 46.2053 50.3956 46.197 50.3747 46.197Z" fill="white"/>
<path d="M50.3746 48.533C50.3631 48.533 50.3518 48.5356 50.3414 48.5405C50.331 48.5454 50.3218 48.5526 50.3146 48.5615L49.6413 49.3627C49.6346 49.3705 49.6294 49.3796 49.6262 49.3895C49.623 49.3993 49.6218 49.4097 49.6227 49.42C49.6236 49.4303 49.6265 49.4403 49.6314 49.4495C49.6362 49.4587 49.6428 49.4668 49.6508 49.4733C49.6671 49.4867 49.6879 49.4932 49.7089 49.4914C49.7298 49.4896 49.7493 49.4797 49.763 49.4638L50.4347 48.6626C50.4414 48.6548 50.4466 48.6457 50.4498 48.6358C50.453 48.626 50.4542 48.6156 50.4533 48.6053C50.4524 48.595 50.4495 48.585 50.4446 48.5758C50.4398 48.5666 50.4332 48.5585 50.4252 48.552C50.4113 48.5395 50.3932 48.5328 50.3746 48.533Z" fill="white"/>
<path d="M50.3746 49.1256C50.3618 49.1256 50.3492 49.1288 50.3379 49.1348C50.3265 49.1409 50.3169 49.1497 50.3098 49.1604C50.3039 49.169 50.2996 49.1787 50.2974 49.1889C50.2952 49.1991 50.2951 49.2097 50.297 49.22C50.2989 49.2303 50.3028 49.2401 50.3086 49.2489C50.3143 49.2576 50.3217 49.2651 50.3304 49.271L51.1205 49.8067C51.1382 49.8183 51.1597 49.8224 51.1804 49.8183C51.2011 49.8141 51.2193 49.802 51.2312 49.7846C51.2426 49.7672 51.2467 49.746 51.2426 49.7255C51.2384 49.7051 51.2264 49.6872 51.209 49.6756L50.4189 49.1398C50.406 49.1305 50.3905 49.1255 50.3746 49.1256Z" fill="white"/>
</svg>
