<svg width="71" height="94" viewBox="0 0 71 94" fill="none" xmlns="http://www.w3.org/2000/svg">
<rect x="0.0786604" y="-0.0786604" width="69.8505" height="92.3473" rx="1.17991" transform="matrix(1 0 0 -1 0.875183 93.3998)" fill="#F7F7F7" stroke="#796894" stroke-width="0.157321"/>
<rect x="8.11197" y="28.1113" width="0.629283" height="53.3318" fill="#24133F"/>
<rect x="8.11197" y="24.4932" width="0.629283" height="1.73053" fill="#24133F"/>
<rect x="63.0171" y="70.7451" width="0.629283" height="1.73053" fill="#24133F"/>
<rect x="8.11197" y="22.1333" width="0.629283" height="1.73053" fill="#24133F"/>
<rect x="63.0171" y="68.3857" width="0.629283" height="1.73053" fill="#24133F"/>
<rect width="0.629283" height="53.3318" transform="matrix(1 0 0 -1 63.0171 66.4976)" fill="#24133F"/>
<path d="M6.89611 15.0864L9.451 9.51853L9.55672 9.80044L6.43799 9.80044L6.43799 8.91945L10.2527 8.91945L10.376 9.52734L7.91807 15.0864L6.89611 15.0864Z" fill="#24133F"/>
<path d="M61.9587 86.5103L64.5136 80.9424L64.6193 81.2243L61.5006 81.2243L61.5006 80.3433L65.3153 80.3433L65.4386 80.9512L62.9807 86.5103L61.9587 86.5103Z" fill="#24133F"/>
<circle cx="8.42655" cy="18.987" r="1.88785" fill="#24133F"/>
<circle cx="63.3316" cy="75.6222" r="1.88785" fill="#24133F"/>
<path opacity="0.18" d="M23.0788 70.4466C26.0863 71.6607 29.4298 71.5218 32.6637 71.3634C36.6921 71.1676 41.0539 70.8328 44.0543 68.0824C46.77 65.5931 47.7077 61.7217 48.844 58.1753C50.9374 51.6256 54.199 45.0149 53.1196 38.2152C52.4251 33.884 49.9247 29.9389 46.5186 27.2857C43.1125 24.6325 38.8313 23.2406 34.5515 23.0892C32.7317 23.0253 30.8439 23.1948 29.2437 24.0852C28.1213 24.7103 27.2045 25.6549 26.3266 26.6106C22.748 30.5351 19.6347 34.8598 17.0487 39.4987C15.0693 43.0437 13.3732 46.861 12.9564 50.9186C12.2799 57.4599 16.6945 67.8782 23.0788 70.4466Z" fill="#68E1FD"/>
<path d="M37.4839 35.1384C37.4839 34.1924 37.7853 33.2451 37.6145 32.3158C37.4311 31.3114 36.7116 30.371 36.9296 29.3695C37.0686 28.7471 37.5422 28.2582 37.9993 27.8192L38.8786 26.9608C38.9735 26.8548 39.0875 26.7676 39.2147 26.7038C39.3529 26.6554 39.499 26.6337 39.6453 26.6399C40.5584 26.6232 41.4711 26.6325 42.3833 26.6677C43.1389 26.6954 43.9905 26.7899 44.4572 27.3844C44.8739 27.9234 44.8309 28.6874 44.6836 29.3556C44.5364 30.0237 44.31 30.7044 44.4433 31.3753C44.6128 32.2269 45.3504 33.0159 45.0934 33.8452C44.9823 34.2077 44.6934 34.4911 44.5572 34.8453C44.4447 35.137 44.4294 35.4829 44.2072 35.7024C44.0472 35.8342 43.8557 35.9223 43.6515 35.958C42.193 36.3442 40.7344 36.8304 39.2703 37.1776C38.0659 37.4652 37.4797 36.2136 37.4839 35.1384Z" fill="url(#paint0_linear_382_5241)"/>
<path d="M32.7054 68.8353C38.3166 68.8353 42.8653 68.0106 42.8653 66.9933C42.8653 65.976 38.3166 65.1514 32.7054 65.1514C27.0943 65.1514 22.5455 65.976 22.5455 66.9933C22.5455 68.0106 27.0943 68.8353 32.7054 68.8353Z" fill="url(#paint1_linear_382_5241)"/>
<path d="M31.422 64.7651C31.422 64.7651 31.6415 66.2029 31.5234 66.3668C31.4053 66.5307 30.7149 66.4751 30.2899 66.3821C29.8648 66.289 29.762 65.7375 29.762 65.7375L29.7328 65.2847L31.422 64.7651Z" fill="#F7AF81"/>
<path d="M37.1757 64.2666C37.1757 64.2666 37.4536 66.0252 37.3591 66.178C37.2646 66.3308 36.6132 66.3072 36.2339 66.2614C35.8547 66.2155 35.8061 65.2543 35.8061 65.2543L35.7422 64.8611L37.1757 64.2666Z" fill="#F7AF81"/>
<path d="M31.5554 30.3406C31.5869 30.4135 31.626 30.4829 31.6721 30.5475C31.8179 30.8045 31.7471 31.1546 31.9277 31.3893C31.9721 31.2004 32.3444 29.8724 32.168 29.7863C32.1263 29.7655 31.9068 29.9488 31.8554 29.9725C31.6971 30.0405 31.4762 30.0947 31.5554 30.3406Z" fill="#7D3B3D"/>
<path d="M36.2381 47.1L36.5992 54.4706L37.2938 64.6833C37.2938 64.6833 36.8951 65.1612 35.7477 65.1764L33.6835 54.7832L32.7111 49.5045L31.8777 54.6567L31.529 65.389C31.529 65.389 30.7192 65.4056 29.6662 65.5001L28.9842 54.9179L29.6593 46.7222L36.2381 47.1Z" fill="#68E1FD"/>
<path d="M36.2381 47.1L36.5992 54.4706L37.2938 64.6833C37.2938 64.6833 36.8951 65.1612 35.7477 65.1764L33.6835 54.7832L32.7111 49.5045L31.8777 54.6567L31.529 65.389C31.529 65.389 30.7192 65.4056 29.6662 65.5001L28.9842 54.9179L29.6593 46.7222L36.2381 47.1Z" fill="url(#paint2_linear_382_5241)"/>
<path d="M30.3566 35.165L29.7246 38.6586C29.6676 38.6961 27.8562 39.9255 27.6409 40.2089C27.4256 40.4923 26.5074 40.8729 26.1935 40.9284C25.8795 40.984 25.1808 40.3867 25.2933 39.4754C25.4058 38.5642 29.0439 35.5443 29.4245 35.3289C29.8051 35.1136 30.3566 35.165 30.3566 35.165Z" fill="white"/>
<path d="M29.9482 36.9648L29.7246 38.6582C29.6676 38.6957 27.8562 39.925 27.6409 40.2084C27.4256 40.4918 26.5074 40.8724 26.1935 40.928C25.8795 40.9835 25.1808 40.3862 25.2933 39.475L27.2381 39.1971L29.9482 36.9648Z" fill="url(#paint3_linear_382_5241)"/>
<path d="M37.4508 51.1615C37.4508 51.2171 37.3966 51.2657 37.3119 51.3074C36.716 51.5935 34.36 51.5394 32.9056 51.3921C32.7667 51.3782 32.725 49.3765 32.725 49.3765C32.725 49.3765 32.2139 51.306 32.0972 51.2824C30.8386 51.0434 28.6897 50.7962 28.6897 50.7962C29.2052 48.736 29.5179 46.6302 29.6232 44.5091C29.8079 40.2626 29.3731 35.3549 29.5107 35.2438C29.7593 35.0437 32.1652 34.2964 32.1652 34.2964L34.6656 34.5131L34.9726 34.652C35.5005 34.8854 36.5395 35.3466 36.6979 35.4855C36.7062 35.4855 36.7118 35.516 36.7173 35.5563C36.734 35.6813 36.7423 35.9633 36.7465 36.3675C36.7562 37.3121 36.7465 38.9221 36.7548 40.7627L36.7548 41.3544C36.766 42.6769 36.7924 44.0924 36.8451 45.4481C36.9452 47.9763 37.4647 50.9712 37.4508 51.1615Z" fill="white"/>
<path d="M37.4508 51.1618C37.4508 51.2174 37.3966 51.266 37.3119 51.3077C36.6848 51.3855 36.0543 51.4319 35.4227 51.4466L35.7477 49.6213L35.3824 40.1754L36.3159 38.8779L36.7493 40.7643C36.7493 42.2521 36.7798 43.8912 36.8423 45.4498C36.9451 47.9766 37.4647 50.9715 37.4508 51.1618Z" fill="url(#paint4_linear_382_5241)"/>
<path d="M38.7885 42.2216C38.5537 42.5689 38.0495 42.6634 37.6633 42.4994C37.4737 42.409 37.3048 42.2804 37.1671 42.1217C37.0294 41.963 36.926 41.7776 36.8632 41.5771C36.8336 41.4968 36.7964 41.4196 36.7521 41.3465C36.559 41.0159 36.2492 40.6672 36.2353 40.3297C36.1978 39.5281 35.9005 38.728 35.8991 37.9251C35.8991 37.307 36.3159 36.6402 36.5395 36.0054C36.5942 35.8565 36.6356 35.7031 36.6631 35.547C36.6793 35.5449 36.6956 35.5449 36.7118 35.547C37.0174 35.5859 37.3924 36.2735 37.5077 36.5013C37.7026 36.906 37.8427 37.3348 37.9245 37.7765C38.1023 38.6641 38.2717 39.0878 38.619 39.9213C38.7426 40.213 38.7843 40.995 38.869 41.3006C38.9225 41.4509 38.943 41.611 38.9291 41.7699C38.9152 41.9288 38.8672 42.0829 38.7885 42.2216Z" fill="white"/>
<path d="M38.6272 39.9252L37.9674 40.7586C37.9674 40.7586 37.5423 39.5404 37.4229 38.9625C37.3145 38.4513 36.9686 36.9886 36.7422 36.3621C36.7192 36.2944 36.6923 36.2281 36.6616 36.1635C36.629 36.1061 36.5883 36.0537 36.5408 36.0079C36.0879 35.5536 34.7141 34.8563 34.7141 34.8563L34.9683 34.6479C35.4962 34.8813 36.5352 35.3425 36.6936 35.4814C36.7019 35.4814 36.7075 35.512 36.713 35.5523C37.0186 35.5912 37.3937 36.2788 37.509 36.5066C37.7038 36.9113 37.844 37.3401 37.9257 37.7818C38.1035 38.668 38.273 39.0917 38.6272 39.9252Z" fill="url(#paint5_linear_382_5241)"/>
<path d="M34.7407 32.6855C34.7407 32.6855 34.581 33.8496 34.7088 34.2802C34.8366 34.7108 34.2448 36.0013 33.3683 36.086C32.4918 36.1707 32.357 34.6747 32.3404 34.4997C32.3237 34.3246 32.5807 34.2121 32.4529 33.7815C32.3251 33.3509 34.606 32.1673 34.7407 32.6855Z" fill="#F7AF81"/>
<path d="M32.4529 33.7754C32.5237 34.1285 32.5114 34.4933 32.4167 34.8408C32.6487 35.0173 32.8627 35.3201 33.1113 35.2965C33.6364 35.2492 34.3865 34.0754 34.6657 33.2559C34.6657 33.2406 34.6754 33.2253 34.6796 33.21C34.7046 32.9155 34.7352 32.685 34.7352 32.685C34.606 32.1668 32.3265 33.3448 32.4529 33.7754Z" fill="#F69771"/>
<path d="M31.8775 30.132C31.8775 30.132 31.6789 32.4199 31.8483 33.0367C32.0178 33.6534 32.5429 34.1882 33.0694 34.1938C33.5958 34.1993 34.3946 33.7673 34.7544 32.9783C35.1141 32.1893 35.31 30.2557 35.2253 29.9903C35.1405 29.725 34.6168 28.8874 33.2097 29.0013C32.2415 29.0791 31.8817 29.7806 31.8775 30.132Z" fill="#F7AF81"/>
<path d="M34.8935 31.4351C34.8935 31.4351 34.9338 30.9003 35.3005 31.0448C35.6673 31.1892 35.3158 32.1922 35.1477 32.295C35.0739 32.351 34.9858 32.3851 34.8935 32.3936" fill="#F7AF81"/>
<path d="M26.7755 40.3837C26.7755 40.3837 27.5909 40.1629 27.3061 38.9307C27.0214 37.6986 25.992 34.0688 25.992 34.0688L25.0599 34.8176C25.0599 34.8176 24.7363 39.8003 25.4169 40.2351C25.617 40.362 25.8434 40.4414 26.0789 40.4672C26.3145 40.493 26.5527 40.4644 26.7755 40.3837Z" fill="#F7AF81"/>
<path d="M25.992 34.0732C25.992 34.0732 26.131 33.4287 26.0643 33.2564C25.9976 33.0842 25.3169 31.8493 25.0488 32.0285C24.7807 32.2077 24.3973 33.3981 24.3668 33.4787C24.3362 33.5593 25.06 34.8178 25.06 34.8178L25.992 34.0732Z" fill="#F7AF81"/>
<path d="M38.9969 42.0991L41.3125 38.9472L41.2445 37.0469L37.3967 41.0086C37.2941 41.1184 37.2184 41.2505 37.1755 41.3945C37.1326 41.5385 37.1236 41.6905 37.1493 41.8386C37.175 41.9866 37.2347 42.1267 37.3236 42.2478C37.4126 42.3689 37.5284 42.4678 37.662 42.5366L37.9481 42.5658C38.1485 42.5869 38.351 42.5549 38.5351 42.473C38.7192 42.3911 38.8785 42.2621 38.9969 42.0991Z" fill="#F7AF81"/>
<path d="M41.0001 39.0707C41.2164 39.0262 41.4284 38.9625 41.6335 38.8804C41.803 38.7901 42.3419 36.8662 42.1891 36.7384C42.0363 36.6106 41.4029 36.2495 41.2265 36.3661C41.0501 36.4828 40.0985 37.3969 40.0985 37.3969C40.0985 37.3969 40.368 39.2624 41.0001 39.0707Z" fill="#F7AF81"/>
<path d="M32.1666 34.2967L32.4013 34.123C32.4013 34.123 32.6791 35.533 33.182 35.6747C33.182 35.6747 33.9835 35.9886 34.6725 34.1467L34.9364 34.6787C34.9364 34.6787 34.4489 35.8344 34.1863 35.9567C33.9238 36.0789 33.1639 36.8151 32.4819 35.8344C32.1582 35.3635 32.1666 34.2967 32.1666 34.2967Z" fill="#68E1FD"/>
<path d="M32.1666 34.2967L32.4013 34.123C32.4013 34.123 32.6791 35.533 33.182 35.6747C33.182 35.6747 33.9835 35.9886 34.6725 34.1467L34.9364 34.6787C34.9364 34.6787 34.4489 35.8344 34.1863 35.9567C33.9238 36.0789 33.1639 36.8151 32.4819 35.8344C32.1582 35.3635 32.1666 34.2967 32.1666 34.2967Z" fill="url(#paint6_linear_382_5241)"/>
<path d="M26.4226 32.6254C26.553 32.5087 26.6649 32.3729 26.7546 32.2226C26.7682 32.1996 26.7722 32.1721 26.7657 32.1462C26.7573 32.1302 26.7442 32.1171 26.7282 32.1087C26.6691 32.0752 26.6023 32.0576 26.5344 32.0576C26.4665 32.0576 26.3997 32.0752 26.3406 32.1087C26.2222 32.1771 26.1303 32.2832 26.0795 32.4101C26.0619 32.4642 26.0346 32.5146 25.9989 32.5588C25.953 32.5925 25.8997 32.615 25.8435 32.6244C25.7873 32.6338 25.7297 32.6299 25.6752 32.6129C25.6482 32.6038 25.6189 32.6038 25.5919 32.6129C25.5488 32.6352 25.5433 32.6935 25.5474 32.7421C25.5599 32.8935 25.7516 33.4089 25.9739 33.37C26.0656 33.3533 26.1128 33.0922 26.1503 33.0186C26.2227 32.8757 26.3143 32.7434 26.4226 32.6254Z" fill="#F7AF81"/>
<path d="M31.854 29.9556C31.854 29.9556 33.7988 29.2944 35.2837 30.8766L35.4435 28.7693C35.687 28.7457 35.926 28.6877 36.1533 28.5971C36.5992 28.4346 36.8479 27.4622 36.2742 27.2997C36.1007 27.2553 35.9196 27.2506 35.7441 27.2857C35.5685 27.3208 35.4031 27.3949 35.2601 27.5025C35.2601 27.5025 35.7477 26.4884 34.4392 26.4884C34.4392 26.4884 33.8002 26.6093 33.6793 27.0357C33.6793 27.0357 33.2529 26.1537 32.5236 26.4884C31.7943 26.8232 31.8846 27.2177 31.8846 27.2177C31.8846 27.2177 31.3665 27.0052 31.215 27.2788C31.0636 27.5525 30.997 27.9831 31.4929 28.0401C32.2833 28.1304 32.1221 28.2929 32.1221 28.2929L31.854 29.9556Z" fill="white"/>
<path d="M34.7352 31.9143C34.9304 31.6407 35.087 31.3416 35.2006 31.0253C35.2441 31.1002 35.3124 31.1577 35.3936 31.1878C35.4343 31.2017 35.4785 31.2018 35.5192 31.188C35.5599 31.1741 35.5949 31.1472 35.6187 31.1114C35.6353 31.0761 35.6407 31.0366 35.6343 30.9981C35.6278 30.9596 35.6098 30.924 35.5826 30.8961C35.5277 30.8404 35.4558 30.8047 35.3784 30.7947C35.3565 30.793 35.3357 30.7848 35.3186 30.7711C35.2825 30.7322 35.3186 30.6641 35.2978 30.6197C35.2808 30.5999 35.2579 30.5863 35.2325 30.5808C35.1061 30.5391 34.9088 30.4418 34.7866 30.4141C34.7227 30.6183 34.863 30.9141 34.8477 31.1378C34.829 31.399 34.7914 31.6585 34.7352 31.9143Z" fill="#7D3B3D"/>
<path d="M34.9962 33.1187C34.9913 33.1784 34.9787 33.2372 34.9587 33.2937C34.9009 33.4069 34.8142 33.5028 34.7073 33.5715C34.6925 33.5844 34.6749 33.5934 34.6559 33.5979C34.6367 33.5977 34.6182 33.5906 34.6039 33.5778C34.5896 33.5651 34.5804 33.5475 34.5781 33.5285C34.5742 33.4899 34.5809 33.451 34.5975 33.416L34.867 32.652C34.8885 32.5956 34.9052 32.5375 34.917 32.4783C34.9192 32.4506 34.9258 32.4234 34.9365 32.3978C34.9559 32.3602 35.024 32.3061 35.0754 32.3311C35.1268 32.3561 35.0837 32.4978 35.0754 32.545L34.9962 33.1187Z" fill="#7D3B3D"/>
<path d="M37.2004 38.0666L45.5628 36.1302L44.1668 36.0371L38.1117 37.4832L37.2004 38.0666Z" fill="#68E1FD"/>
<path d="M37.2004 38.0666L45.5628 36.1302L44.1668 36.0371L38.1117 37.4832L37.2004 38.0666Z" fill="url(#paint7_linear_382_5241)"/>
<path d="M38.1173 37.4844C38.1173 37.4844 37.4533 34.5104 40.0621 33.9436C43.2862 33.2491 44.1613 36.0384 44.1613 36.0384L38.1173 37.4844Z" fill="#68E1FD"/>
<path d="M44.1669 36.0387L38.1173 37.4847C38.1173 37.4847 37.4533 34.5106 40.0621 33.9439C40.2163 33.9105 40.3649 33.8855 40.508 33.8675C43.1473 33.5313 44.0238 35.6553 44.1461 35.9928L44.1669 36.0387Z" fill="url(#paint8_linear_382_5241)"/>
<path d="M44.1502 35.9924L39.2688 37.1592C39.2688 37.1592 38.7382 34.7686 40.519 33.8671C43.1458 33.5309 44.0279 35.6507 44.1502 35.9924Z" fill="url(#paint9_linear_382_5241)"/>
<path d="M39.9662 33.9823C40.1227 33.9823 40.2496 33.8554 40.2496 33.6989C40.2496 33.5424 40.1227 33.4155 39.9662 33.4155C39.8097 33.4155 39.6828 33.5424 39.6828 33.6989C39.6828 33.8554 39.8097 33.9823 39.9662 33.9823Z" fill="#68E1FD"/>
<path d="M27.8448 66.25C27.6031 66.3417 27.3475 66.4834 27.3475 66.7931C27.349 66.9158 27.391 67.0344 27.467 67.1307C27.7629 67.528 28.3102 67.5474 28.7908 67.528C29.6879 67.4821 30.5796 67.3613 31.4565 67.1668C31.5164 67.1582 31.5732 67.1348 31.6218 67.0987C31.6682 67.0468 31.6973 66.9818 31.7052 66.9126C31.7671 66.6104 31.7765 66.2998 31.7329 65.9944C31.7291 65.9663 31.7178 65.9396 31.7003 65.9172C31.6828 65.8948 31.6597 65.8775 31.6333 65.8669C31.6069 65.8563 31.5782 65.8529 31.5501 65.857C31.522 65.8611 31.4954 65.8726 31.4732 65.8902C31.299 66.0333 31.0773 66.1057 30.8522 66.093C30.3174 66.0583 30.1132 65.5902 29.5673 65.7499C28.9992 65.9152 28.3935 66.0389 27.8448 66.25Z" fill="#68E1FD"/>
<path d="M33.6097 66.0834C33.3679 66.175 33.1124 66.3167 33.111 66.6251C33.1136 66.7482 33.156 66.8671 33.2318 66.964C33.5263 67.3613 34.075 67.3808 34.5556 67.3599C35.4527 67.3141 36.3444 67.1933 37.2213 66.9988C37.2814 66.9908 37.3383 66.9673 37.3866 66.9307C37.4335 66.8791 37.4627 66.8139 37.47 66.7446C37.5322 66.4391 37.5411 66.1252 37.4964 65.8166C37.4926 65.7894 37.4817 65.7637 37.4647 65.742C37.4477 65.7204 37.4253 65.7036 37.3998 65.6934C37.3742 65.6833 37.3464 65.6801 37.3192 65.6841C37.292 65.6882 37.2664 65.6994 37.2449 65.7166C37.0711 65.8665 36.8464 65.9441 36.6171 65.9333C36.0823 65.8972 35.8767 65.4305 35.3321 65.5888C34.764 65.7486 34.1639 65.8722 33.6097 66.0834Z" fill="#68E1FD"/>
<path d="M27.8448 66.25C27.6031 66.3417 27.3475 66.4834 27.3475 66.7931C27.349 66.9158 27.391 67.0344 27.467 67.1307C27.7629 67.528 28.3102 67.5474 28.7908 67.528C29.6879 67.4821 30.5796 67.3613 31.4565 67.1668C31.5164 67.1582 31.5732 67.1348 31.6218 67.0987C31.6682 67.0468 31.6973 66.9818 31.7052 66.9126C31.7671 66.6104 31.7765 66.2998 31.7329 65.9944C31.7291 65.9663 31.7178 65.9396 31.7003 65.9172C31.6828 65.8948 31.6597 65.8775 31.6333 65.8669C31.6069 65.8563 31.5782 65.8529 31.5501 65.857C31.522 65.8611 31.4954 65.8726 31.4732 65.8902C31.299 66.0333 31.0773 66.1057 30.8522 66.093C30.3174 66.0583 30.1132 65.5902 29.5673 65.7499C28.9992 65.9152 28.3935 66.0389 27.8448 66.25Z" fill="url(#paint10_linear_382_5241)"/>
<path d="M33.6097 66.0834C33.3679 66.175 33.1124 66.3167 33.111 66.6251C33.1136 66.7482 33.156 66.8671 33.2318 66.964C33.5263 67.3613 34.075 67.3808 34.5556 67.3599C35.4527 67.3141 36.3444 67.1933 37.2213 66.9988C37.2814 66.9908 37.3383 66.9673 37.3866 66.9307C37.4335 66.8791 37.4627 66.8139 37.47 66.7446C37.5322 66.4391 37.5411 66.1252 37.4964 65.8166C37.4926 65.7894 37.4817 65.7637 37.4647 65.742C37.4477 65.7204 37.4253 65.7036 37.3998 65.6934C37.3742 65.6833 37.3464 65.6801 37.3192 65.6841C37.292 65.6882 37.2664 65.6994 37.2449 65.7166C37.0711 65.8665 36.8464 65.9441 36.6171 65.9333C36.0823 65.8972 35.8767 65.4305 35.3321 65.5888C34.764 65.7486 34.1639 65.8722 33.6097 66.0834Z" fill="url(#paint11_linear_382_5241)"/>
<path d="M32.554 37.7957C32.6491 37.7957 32.7262 37.7186 32.7262 37.6234C32.7262 37.5283 32.6491 37.4512 32.554 37.4512C32.4589 37.4512 32.3817 37.5283 32.3817 37.6234C32.3817 37.7186 32.4589 37.7957 32.554 37.7957Z" fill="#68E1FD"/>
<path d="M32.2192 40.0569C32.3144 40.0569 32.3915 39.9798 32.3915 39.8847C32.3915 39.7895 32.3144 39.7124 32.2192 39.7124C32.1241 39.7124 32.047 39.7895 32.047 39.8847C32.047 39.9798 32.1241 40.0569 32.2192 40.0569Z" fill="#68E1FD"/>
<path d="M32.158 42.7742C32.2532 42.7742 32.3303 42.6971 32.3303 42.6019C32.3303 42.5068 32.2532 42.4297 32.158 42.4297C32.0629 42.4297 31.9858 42.5068 31.9858 42.6019C31.9858 42.6971 32.0629 42.7742 32.158 42.7742Z" fill="#68E1FD"/>
<path d="M32.2595 45.0149C32.3547 45.0149 32.4318 44.9378 32.4318 44.8427C32.4318 44.7475 32.3547 44.6704 32.2595 44.6704C32.1644 44.6704 32.0873 44.7475 32.0873 44.8427C32.0873 44.9378 32.1644 45.0149 32.2595 45.0149Z" fill="#68E1FD"/>
<path d="M32.2998 48.3611C32.3949 48.3611 32.472 48.284 32.472 48.1889C32.472 48.0937 32.3949 48.0166 32.2998 48.0166C32.2046 48.0166 32.1275 48.0937 32.1275 48.1889C32.1275 48.284 32.2046 48.3611 32.2998 48.3611Z" fill="#68E1FD"/>
<path d="M36.2393 45.3507C36.4444 45.3284 36.6519 45.3565 36.8436 45.4326C37.0283 45.5257 37.1659 45.7466 37.0909 45.9383C37.0385 46.0355 36.972 46.1244 36.8936 46.2022C36.7047 46.4481 36.6977 46.7828 36.7005 47.094L36.7672 56.2107C36.7672 56.5219 36.7366 56.8955 36.4616 57.0442C36.3374 57.0981 36.2021 57.1215 36.0671 57.1122C33.7288 57.1419 31.3909 57.1664 29.0535 57.1859C28.8104 57.1859 28.5228 57.1664 28.3992 56.9567C28.3495 56.8533 28.3261 56.7393 28.3312 56.6247C28.207 53.0093 28.5483 49.393 29.3466 45.8646C29.3649 45.7269 29.4222 45.5972 29.5119 45.491C29.6508 45.3521 30.4259 45.5201 30.6343 45.516C31.2663 45.5049 31.897 45.4799 32.5276 45.4618L36.2393 45.3507Z" fill="#68E1FD"/>
<path d="M36.2393 45.3507C36.4444 45.3284 36.6519 45.3565 36.8436 45.4326C37.0283 45.5257 37.1659 45.7466 37.0909 45.9383C37.0385 46.0355 36.972 46.1244 36.8936 46.2022C36.7047 46.4481 36.6977 46.7828 36.7005 47.094L36.7672 56.2107C36.7672 56.5219 36.7366 56.8955 36.4616 57.0442C36.3374 57.0981 36.2021 57.1215 36.0671 57.1122C33.7288 57.1419 31.3909 57.1664 29.0535 57.1859C28.8104 57.1859 28.5228 57.1664 28.3992 56.9567C28.3495 56.8533 28.3261 56.7393 28.3312 56.6247C28.207 53.0093 28.5483 49.393 29.3466 45.8646C29.3649 45.7269 29.4222 45.5972 29.5119 45.491C29.6508 45.3521 30.4259 45.5201 30.6343 45.516C31.2663 45.5049 31.897 45.4799 32.5276 45.4618L36.2393 45.3507Z" fill="url(#paint12_linear_382_5241)"/>
<path opacity="0.18" d="M50.8096 70.4466C47.8021 71.6607 44.4586 71.5218 41.2247 71.3634C37.1963 71.1676 32.8345 70.8328 29.8341 68.0824C27.1184 65.5931 26.1807 61.7217 25.0444 58.1753C22.951 51.6256 19.6894 45.0149 20.7687 38.2152C21.4633 33.884 23.9637 29.9389 27.3698 27.2857C30.7759 24.6325 35.0571 23.2406 39.3369 23.0892C41.1567 23.0253 43.0445 23.1948 44.6447 24.0852C45.7671 24.7103 46.6839 25.6549 47.5618 26.6106C51.1404 30.5351 54.2537 34.8598 56.8397 39.4987C58.8191 43.0437 60.5152 46.861 60.932 50.9186C61.6085 57.4599 57.1939 67.8782 50.8096 70.4466Z" fill="#68E1FD"/>
<path d="M36.4046 35.1384C36.4046 34.1924 36.1032 33.2451 36.274 32.3158C36.4574 31.3114 37.1769 30.371 36.9588 29.3695C36.8199 28.7471 36.3463 28.2582 35.8892 27.8192L35.0099 26.9608C34.915 26.8548 34.8009 26.7676 34.6738 26.7038C34.5356 26.6554 34.3894 26.6337 34.2431 26.6399C33.33 26.6232 32.4174 26.6325 31.5052 26.6677C30.7495 26.6954 29.898 26.7899 29.4313 27.3844C29.0145 27.9234 29.0576 28.6874 29.2049 29.3556C29.3521 30.0237 29.5785 30.7044 29.4452 31.3753C29.2757 32.2269 28.5381 33.0159 28.7951 33.8452C28.9062 34.2077 29.1951 34.4911 29.3313 34.8453C29.4438 35.137 29.4591 35.4829 29.6813 35.7024C29.8413 35.8342 30.0328 35.9223 30.237 35.958C31.6955 36.3442 33.1541 36.8304 34.6182 37.1776C35.8226 37.4652 36.4088 36.2136 36.4046 35.1384Z" fill="url(#paint13_linear_382_5241)"/>
<path d="M41.1831 68.8353C35.5719 68.8353 31.0232 68.0106 31.0232 66.9933C31.0232 65.976 35.5719 65.1514 41.1831 65.1514C46.7943 65.1514 51.343 65.976 51.343 66.9933C51.343 68.0106 46.7943 68.8353 41.1831 68.8353Z" fill="url(#paint14_linear_382_5241)"/>
<path d="M42.4667 64.7656C42.4667 64.7656 42.2472 66.2033 42.3653 66.3673C42.4833 66.5312 43.1737 66.4756 43.5988 66.3825C44.0239 66.2895 44.1267 65.738 44.1267 65.738L44.1558 65.2851L42.4667 64.7656Z" fill="#F7AF81"/>
<path d="M36.7129 64.2666C36.7129 64.2666 36.4351 66.0252 36.5296 66.178C36.624 66.3308 37.2755 66.3072 37.6547 66.2614C38.034 66.2155 38.0826 65.2543 38.0826 65.2543L38.1465 64.8611L36.7129 64.2666Z" fill="#F7AF81"/>
<path d="M42.3331 30.3406C42.3016 30.4135 42.2625 30.4829 42.2164 30.5475C42.0706 30.8045 42.1414 31.1546 41.9608 31.3893C41.9164 31.2004 41.5441 29.8724 41.7205 29.7863C41.7622 29.7655 41.9817 29.9488 42.0331 29.9725C42.1914 30.0405 42.4123 30.0947 42.3331 30.3406Z" fill="#7D3B3D"/>
<path d="M37.6507 47.1L37.2895 54.4706L36.595 64.6833C36.595 64.6833 36.9936 65.1612 38.141 65.1764L40.2053 54.7832L41.1776 49.5045L42.0111 54.6567L42.3598 65.389C42.3598 65.389 43.1696 65.4056 44.2226 65.5001L44.9046 54.9179L44.2295 46.7222L37.6507 47.1Z" fill="#68E1FD"/>
<path d="M37.6507 47.1L37.2895 54.4706L36.595 64.6833C36.595 64.6833 36.9936 65.1612 38.141 65.1764L40.2053 54.7832L41.1776 49.5045L42.0111 54.6567L42.3598 65.389C42.3598 65.389 43.1696 65.4056 44.2226 65.5001L44.9046 54.9179L44.2295 46.7222L37.6507 47.1Z" fill="url(#paint15_linear_382_5241)"/>
<path d="M43.5321 35.165L44.1641 38.6586C44.221 38.6961 46.0324 39.9255 46.2478 40.2089C46.4631 40.4923 47.3813 40.8729 47.6952 40.9284C48.0091 40.984 48.7079 40.3867 48.5953 39.4754C48.4828 38.5642 44.8448 35.5443 44.4641 35.3289C44.0835 35.1136 43.5321 35.165 43.5321 35.165Z" fill="white"/>
<path d="M43.9404 36.9653L44.1641 38.6587C44.221 38.6962 46.0324 39.9255 46.2478 40.2089C46.4631 40.4923 47.3813 40.8729 47.6952 40.9285C48.0091 40.984 48.7079 40.3867 48.5953 39.4754L46.6506 39.1976L43.9404 36.9653Z" fill="url(#paint16_linear_382_5241)"/>
<path d="M36.4379 51.162C36.4379 51.2176 36.4921 51.2662 36.5768 51.3079C37.1727 51.594 39.5286 51.5398 40.983 51.3926C41.1219 51.3787 41.1636 49.377 41.1636 49.377C41.1636 49.377 41.6748 51.3065 41.7915 51.2829C43.05 51.0439 45.199 50.7967 45.199 50.7967C44.6834 48.7365 44.3708 46.6307 44.2655 44.5096C44.0807 40.2631 44.5155 35.3554 44.378 35.2442C44.1294 35.0442 41.7234 34.2969 41.7234 34.2969L39.223 34.5136L38.916 34.6525C38.3882 34.8859 37.3491 35.347 37.1908 35.4859C37.1824 35.4859 37.1769 35.5165 37.1713 35.5568C37.1547 35.6818 37.1463 35.9638 37.1422 36.368C37.1324 37.3126 37.1422 38.9226 37.1338 40.7632L37.1338 41.3549C37.1227 42.6774 37.0963 44.0928 37.0435 45.4486C36.9435 47.9768 36.424 50.9717 36.4379 51.162Z" fill="white"/>
<path d="M36.4379 51.1618C36.4379 51.2174 36.4921 51.266 36.5768 51.3077C37.2038 51.3855 37.8343 51.4319 38.466 51.4466L38.141 49.6213L38.5063 40.1754L37.5728 38.8779L37.1394 40.7643C37.1394 42.2521 37.1088 43.8912 37.0463 45.4498C36.9435 47.9766 36.424 50.9715 36.4379 51.1618Z" fill="url(#paint17_linear_382_5241)"/>
<path d="M35.1 42.2216C35.3348 42.5689 35.839 42.6634 36.2252 42.4994C36.4148 42.409 36.5837 42.2804 36.7214 42.1217C36.8591 41.963 36.9625 41.7776 37.0253 41.5771C37.0549 41.4968 37.0921 41.4196 37.1364 41.3465C37.3295 41.0159 37.6393 40.6672 37.6532 40.3297C37.6907 39.5281 37.988 38.728 37.9893 37.9251C37.9893 37.307 37.5726 36.6402 37.349 36.0054C37.2943 35.8565 37.2529 35.7031 37.2253 35.547C37.2092 35.5449 37.1929 35.5449 37.1767 35.547C36.8711 35.5859 36.4961 36.2735 36.3808 36.5013C36.1859 36.906 36.0458 37.3348 35.964 37.7765C35.7862 38.6641 35.6168 39.0878 35.2695 39.9213C35.1458 40.213 35.1042 40.995 35.0194 41.3006C34.966 41.4509 34.9455 41.611 34.9594 41.7699C34.9733 41.9288 35.0213 42.0829 35.1 42.2216Z" fill="white"/>
<path d="M35.2613 39.9252L35.9211 40.7586C35.9211 40.7586 36.3462 39.5404 36.4656 38.9625C36.574 38.4513 36.9199 36.9886 37.1463 36.3621C37.1693 36.2944 37.1962 36.2281 37.2268 36.1635C37.2595 36.1061 37.3002 36.0537 37.3477 36.0079C37.8006 35.5536 39.1744 34.8563 39.1744 34.8563L38.9202 34.6479C38.3923 34.8813 37.3533 35.3425 37.1949 35.4814C37.1866 35.4814 37.181 35.512 37.1755 35.5523C36.8699 35.5912 36.4948 36.2788 36.3795 36.5066C36.1847 36.9113 36.0445 37.3401 35.9628 37.7818C35.785 38.668 35.6155 39.0917 35.2613 39.9252Z" fill="url(#paint18_linear_382_5241)"/>
<path d="M39.1478 32.6855C39.1478 32.6855 39.3075 33.8496 39.1797 34.2802C39.0519 34.7108 39.6437 36.0013 40.5202 36.086C41.3967 36.1707 41.5315 34.6747 41.5481 34.4997C41.5648 34.3246 41.3078 34.2121 41.4356 33.7815C41.5634 33.3509 39.2825 32.1673 39.1478 32.6855Z" fill="#F7AF81"/>
<path d="M41.4356 33.7759C41.3647 34.129 41.3771 34.4938 41.4717 34.8413C41.2398 35.0177 41.0258 35.3206 40.7772 35.297C40.2521 35.2497 39.502 34.0759 39.2228 33.2564C39.2228 33.2411 39.2131 33.2258 39.2089 33.2105C39.1839 32.916 39.1533 32.6854 39.1533 32.6854C39.2825 32.1673 41.562 33.3453 41.4356 33.7759Z" fill="#F69771"/>
<path d="M42.0111 30.1325C42.0111 30.1325 42.2097 32.4204 42.0402 33.0371C41.8708 33.6539 41.3457 34.1887 40.8192 34.1943C40.2927 34.1998 39.494 33.7678 39.1342 32.9788C38.7744 32.1898 38.5786 30.2562 38.6633 29.9908C38.7481 29.7255 39.2717 28.8879 40.6789 29.0018C41.6471 29.0796 42.0069 29.7811 42.0111 30.1325Z" fill="#F7AF81"/>
<path d="M38.9951 31.4351C38.9951 31.4351 38.9549 30.9003 38.5881 31.0448C38.2214 31.1892 38.5729 32.1922 38.7409 32.295C38.8148 32.351 38.9029 32.3851 38.9951 32.3936" fill="#F7AF81"/>
<path d="M47.113 40.3837C47.113 40.3837 46.2976 40.1629 46.5824 38.9307C46.8671 37.6986 47.8965 34.0688 47.8965 34.0688L48.8286 34.8176C48.8286 34.8176 49.1522 39.8003 48.4716 40.2351C48.2715 40.362 48.045 40.4414 47.8095 40.4672C47.574 40.493 47.3358 40.4644 47.113 40.3837Z" fill="#F7AF81"/>
<path d="M47.8966 34.0732C47.8966 34.0732 47.7577 33.4287 47.8244 33.2564C47.8911 33.0842 48.5717 31.8493 48.8398 32.0285C49.1079 32.2077 49.4913 33.3981 49.5219 33.4787C49.5524 33.5593 48.8287 34.8178 48.8287 34.8178L47.8966 34.0732Z" fill="#F7AF81"/>
<path d="M34.8918 42.0991L32.5761 38.9472L32.6442 37.0469L36.492 41.0086C36.5946 41.1184 36.6703 41.2505 36.7132 41.3945C36.7561 41.5385 36.7651 41.6905 36.7394 41.8386C36.7137 41.9866 36.654 42.1267 36.565 42.2478C36.4761 42.3689 36.3603 42.4678 36.2267 42.5366L35.9405 42.5658C35.7401 42.5869 35.5377 42.5549 35.3536 42.473C35.1695 42.3911 35.0102 42.2621 34.8918 42.0991Z" fill="#F7AF81"/>
<path d="M32.8884 39.0712C32.6721 39.0266 32.4601 38.963 32.255 38.8809C32.0855 38.7906 31.5465 36.8667 31.6993 36.7389C31.8521 36.6111 32.4856 36.2499 32.662 36.3666C32.8384 36.4833 33.7899 37.3973 33.7899 37.3973C33.7899 37.3973 33.5205 39.2629 32.8884 39.0712Z" fill="#F7AF81"/>
<path d="M41.722 34.2967L41.4873 34.123C41.4873 34.123 41.2094 35.533 40.7066 35.6747C40.7066 35.6747 39.9051 35.9886 39.2161 34.1467L38.9521 34.6787C38.9521 34.6787 39.4397 35.8344 39.7023 35.9567C39.9648 36.0789 40.7246 36.8151 41.4067 35.8344C41.7304 35.3635 41.722 34.2967 41.722 34.2967Z" fill="#68E1FD"/>
<path d="M41.722 34.2967L41.4873 34.123C41.4873 34.123 41.2094 35.533 40.7066 35.6747C40.7066 35.6747 39.9051 35.9886 39.2161 34.1467L38.9521 34.6787C38.9521 34.6787 39.4397 35.8344 39.7023 35.9567C39.9648 36.0789 40.7246 36.8151 41.4067 35.8344C41.7304 35.3635 41.722 34.2967 41.722 34.2967Z" fill="url(#paint19_linear_382_5241)"/>
<path d="M47.4657 32.6254C47.3353 32.5087 47.2234 32.3729 47.1337 32.2226C47.1201 32.1996 47.1161 32.1721 47.1226 32.1462C47.131 32.1302 47.1441 32.1171 47.1601 32.1087C47.2192 32.0752 47.286 32.0576 47.3539 32.0576C47.4218 32.0576 47.4886 32.0752 47.5477 32.1087C47.6661 32.1771 47.758 32.2832 47.8088 32.4101C47.8264 32.4642 47.8537 32.5146 47.8894 32.5588C47.9353 32.5925 47.9886 32.615 48.0448 32.6244C48.101 32.6338 48.1586 32.6299 48.2131 32.6129C48.2401 32.6038 48.2694 32.6038 48.2964 32.6129C48.3395 32.6352 48.345 32.6935 48.3409 32.7421C48.3284 32.8935 48.1367 33.4089 47.9144 33.37C47.8227 33.3533 47.7755 33.0922 47.738 33.0186C47.6656 32.8757 47.574 32.7434 47.4657 32.6254Z" fill="#F7AF81"/>
<path d="M42.0346 29.9556C42.0346 29.9556 40.0898 29.2944 38.6048 30.8766L38.4451 28.7693C38.2016 28.7457 37.9626 28.6877 37.7353 28.5971C37.2894 28.4346 37.0407 27.4622 37.6144 27.2997C37.7878 27.2553 37.969 27.2506 38.1445 27.2857C38.32 27.3208 38.4854 27.3949 38.6285 27.5025C38.6285 27.5025 38.1409 26.4884 39.4494 26.4884C39.4494 26.4884 40.0884 26.6093 40.2093 27.0357C40.2093 27.0357 40.6357 26.1537 41.365 26.4884C42.0943 26.8232 42.004 27.2177 42.004 27.2177C42.004 27.2177 42.5221 27.0052 42.6735 27.2788C42.825 27.5525 42.8916 27.9831 42.3957 28.0401C41.6053 28.1304 41.7665 28.2929 41.7665 28.2929L42.0346 29.9556Z" fill="white"/>
<path d="M39.1536 31.9143C38.9584 31.6407 38.8018 31.3416 38.6882 31.0253C38.6446 31.1002 38.5764 31.1577 38.4951 31.1878C38.4544 31.2017 38.4103 31.2018 38.3696 31.188C38.3289 31.1741 38.2939 31.1472 38.2701 31.1114C38.2535 31.0761 38.2481 31.0366 38.2545 30.9981C38.261 30.9596 38.279 30.924 38.3062 30.8961C38.3611 30.8404 38.4329 30.8047 38.5104 30.7947C38.5322 30.793 38.5531 30.7848 38.5701 30.7711C38.6063 30.7322 38.5701 30.6641 38.591 30.6197C38.6079 30.5999 38.6308 30.5863 38.6563 30.5808C38.7827 30.5391 38.9799 30.4418 39.1022 30.4141C39.1661 30.6183 39.0258 30.9141 39.041 31.1378C39.0597 31.399 39.0973 31.6585 39.1536 31.9143Z" fill="#7D3B3D"/>
<path d="M38.8923 33.1187C38.8972 33.1784 38.9098 33.2372 38.9298 33.2937C38.9876 33.4069 39.0743 33.5028 39.1813 33.5715C39.196 33.5844 39.2136 33.5934 39.2327 33.5979C39.2518 33.5977 39.2703 33.5906 39.2846 33.5778C39.2989 33.5651 39.3081 33.5475 39.3104 33.5285C39.3143 33.4899 39.3076 33.451 39.291 33.416L39.0215 32.652C39 32.5956 38.9833 32.5375 38.9715 32.4783C38.9693 32.4506 38.9628 32.4234 38.9521 32.3978C38.9326 32.3602 38.8645 32.3061 38.8131 32.3311C38.7617 32.3561 38.8048 32.4978 38.8131 32.545L38.8923 33.1187Z" fill="#7D3B3D"/>
<path d="M36.6881 38.0666L28.3257 36.1302L29.7217 36.0371L35.7768 37.4832L36.6881 38.0666Z" fill="#68E1FD"/>
<path d="M36.6881 38.0666L28.3257 36.1302L29.7217 36.0371L35.7768 37.4832L36.6881 38.0666Z" fill="url(#paint20_linear_382_5241)"/>
<path d="M35.7712 37.4844C35.7712 37.4844 36.4351 34.5104 33.8264 33.9436C30.6023 33.2491 29.7272 36.0384 29.7272 36.0384L35.7712 37.4844Z" fill="#68E1FD"/>
<path d="M29.7216 36.0387L35.7712 37.4847C35.7712 37.4847 36.4351 34.5106 33.8264 33.9439C33.6722 33.9105 33.5236 33.8855 33.3805 33.8675C30.7412 33.5313 29.8647 35.6553 29.7424 35.9928L29.7216 36.0387Z" fill="url(#paint21_linear_382_5241)"/>
<path d="M29.7383 35.9924L34.6196 37.1592C34.6196 37.1592 35.1503 34.7686 33.3694 33.8671C30.7426 33.5309 29.8606 35.6507 29.7383 35.9924Z" fill="url(#paint22_linear_382_5241)"/>
<path d="M33.9221 33.9823C33.7656 33.9823 33.6387 33.8554 33.6387 33.6989C33.6387 33.5424 33.7656 33.4155 33.9221 33.4155C34.0786 33.4155 34.2055 33.5424 34.2055 33.6989C34.2055 33.8554 34.0786 33.9823 33.9221 33.9823Z" fill="#68E1FD"/>
<path d="M46.0437 66.25C46.2854 66.3417 46.541 66.4834 46.541 66.7931C46.5395 66.9158 46.4975 67.0344 46.4215 67.1307C46.1256 67.528 45.5783 67.5474 45.0977 67.528C44.2006 67.4821 43.3089 67.3613 42.432 67.1668C42.3721 67.1582 42.3153 67.1348 42.2667 67.0987C42.2203 67.0468 42.1912 66.9818 42.1833 66.9126C42.1214 66.6104 42.112 66.2998 42.1555 65.9944C42.1594 65.9663 42.1707 65.9396 42.1882 65.9172C42.2057 65.8948 42.2288 65.8775 42.2552 65.8669C42.2816 65.8563 42.3103 65.8529 42.3384 65.857C42.3665 65.8611 42.393 65.8726 42.4153 65.8902C42.5895 66.0333 42.8112 66.1057 43.0362 66.093C43.571 66.0583 43.7752 65.5902 44.3212 65.7499C44.8893 65.9152 45.495 66.0389 46.0437 66.25Z" fill="#68E1FD"/>
<path d="M40.2788 66.0834C40.5205 66.175 40.7761 66.3167 40.7775 66.6251C40.7749 66.7482 40.7325 66.8671 40.6567 66.964C40.3622 67.3613 39.8135 67.3808 39.3329 67.3599C38.4358 67.3141 37.5441 67.1933 36.6672 66.9988C36.6071 66.9908 36.5501 66.9673 36.5019 66.9307C36.455 66.8791 36.4258 66.8139 36.4185 66.7446C36.3563 66.4391 36.3473 66.1252 36.3921 65.8166C36.3959 65.7894 36.4068 65.7637 36.4238 65.742C36.4408 65.7204 36.4632 65.7036 36.4887 65.6934C36.5143 65.6833 36.5421 65.6801 36.5693 65.6841C36.5965 65.6882 36.6221 65.6994 36.6435 65.7166C36.8174 65.8665 37.0421 65.9441 37.2714 65.9333C37.8062 65.8972 38.0118 65.4305 38.5563 65.5888C39.1245 65.7486 39.7246 65.8722 40.2788 66.0834Z" fill="#68E1FD"/>
<path d="M46.0437 66.25C46.2854 66.3417 46.541 66.4834 46.541 66.7931C46.5395 66.9158 46.4975 67.0344 46.4215 67.1307C46.1256 67.528 45.5783 67.5474 45.0977 67.528C44.2006 67.4821 43.3089 67.3613 42.432 67.1668C42.3721 67.1582 42.3153 67.1348 42.2667 67.0987C42.2203 67.0468 42.1912 66.9818 42.1833 66.9126C42.1214 66.6104 42.112 66.2998 42.1555 65.9944C42.1594 65.9663 42.1707 65.9396 42.1882 65.9172C42.2057 65.8948 42.2288 65.8775 42.2552 65.8669C42.2816 65.8563 42.3103 65.8529 42.3384 65.857C42.3665 65.8611 42.393 65.8726 42.4153 65.8902C42.5895 66.0333 42.8112 66.1057 43.0362 66.093C43.571 66.0583 43.7752 65.5902 44.3212 65.7499C44.8893 65.9152 45.495 66.0389 46.0437 66.25Z" fill="url(#paint23_linear_382_5241)"/>
<path d="M40.2788 66.0834C40.5205 66.175 40.7761 66.3167 40.7775 66.6251C40.7749 66.7482 40.7325 66.8671 40.6567 66.964C40.3622 67.3613 39.8135 67.3808 39.3329 67.3599C38.4358 67.3141 37.5441 67.1933 36.6672 66.9988C36.6071 66.9908 36.5501 66.9673 36.5019 66.9307C36.455 66.8791 36.4258 66.8139 36.4185 66.7446C36.3563 66.4391 36.3473 66.1252 36.3921 65.8166C36.3959 65.7894 36.4068 65.7637 36.4238 65.742C36.4408 65.7204 36.4632 65.7036 36.4887 65.6934C36.5143 65.6833 36.5421 65.6801 36.5693 65.6841C36.5965 65.6882 36.6221 65.6994 36.6435 65.7166C36.8174 65.8665 37.0421 65.9441 37.2714 65.9333C37.8062 65.8972 38.0118 65.4305 38.5563 65.5888C39.1245 65.7486 39.7246 65.8722 40.2788 66.0834Z" fill="url(#paint24_linear_382_5241)"/>
<path d="M41.3345 37.7957C41.2394 37.7957 41.1622 37.7186 41.1622 37.6234C41.1622 37.5283 41.2394 37.4512 41.3345 37.4512C41.4296 37.4512 41.5067 37.5283 41.5067 37.6234C41.5067 37.7186 41.4296 37.7957 41.3345 37.7957Z" fill="#68E1FD"/>
<path d="M41.6692 40.0569C41.5741 40.0569 41.497 39.9798 41.497 39.8847C41.497 39.7895 41.5741 39.7124 41.6692 39.7124C41.7644 39.7124 41.8415 39.7895 41.8415 39.8847C41.8415 39.9798 41.7644 40.0569 41.6692 40.0569Z" fill="#68E1FD"/>
<path d="M41.7305 42.7742C41.6353 42.7742 41.5582 42.6971 41.5582 42.6019C41.5582 42.5068 41.6353 42.4297 41.7305 42.4297C41.8256 42.4297 41.9027 42.5068 41.9027 42.6019C41.9027 42.6971 41.8256 42.7742 41.7305 42.7742Z" fill="#68E1FD"/>
<path d="M41.629 45.0149C41.5338 45.0149 41.4567 44.9378 41.4567 44.8427C41.4567 44.7475 41.5338 44.6704 41.629 44.6704C41.7241 44.6704 41.8012 44.7475 41.8012 44.8427C41.8012 44.9378 41.7241 45.0149 41.629 45.0149Z" fill="#68E1FD"/>
<path d="M41.5886 48.3611C41.4934 48.3611 41.4163 48.284 41.4163 48.1889C41.4163 48.0937 41.4934 48.0166 41.5886 48.0166C41.6837 48.0166 41.7608 48.0937 41.7608 48.1889C41.7608 48.284 41.6837 48.3611 41.5886 48.3611Z" fill="#68E1FD"/>
<path d="M37.6492 45.3507C37.4441 45.3284 37.2366 45.3565 37.0449 45.4326C36.8601 45.5257 36.7226 45.7466 36.7976 45.9383C36.85 46.0355 36.9165 46.1244 36.9949 46.2022C37.1838 46.4481 37.1907 46.7828 37.188 47.094L37.1213 56.2107C37.1213 56.5219 37.1519 56.8955 37.4269 57.0442C37.551 57.0981 37.6863 57.1215 37.8214 57.1122C40.1597 57.1419 42.4976 57.1664 44.835 57.1859C45.0781 57.1859 45.3656 57.1664 45.4893 56.9567C45.539 56.8533 45.5624 56.7393 45.5573 56.6247C45.6815 53.0093 45.3402 49.393 44.5419 45.8646C44.5236 45.7269 44.4662 45.5972 44.3766 45.491C44.2377 45.3521 43.4626 45.5201 43.2542 45.516C42.6222 45.5049 41.9915 45.4799 41.3608 45.4618L37.6492 45.3507Z" fill="#68E1FD"/>
<path d="M37.6492 45.3507C37.4441 45.3284 37.2366 45.3565 37.0449 45.4326C36.8601 45.5257 36.7226 45.7466 36.7976 45.9383C36.85 46.0355 36.9165 46.1244 36.9949 46.2022C37.1838 46.4481 37.1907 46.7828 37.188 47.094L37.1213 56.2107C37.1213 56.5219 37.1519 56.8955 37.4269 57.0442C37.551 57.0981 37.6863 57.1215 37.8214 57.1122C40.1597 57.1419 42.4976 57.1664 44.835 57.1859C45.0781 57.1859 45.3656 57.1664 45.4893 56.9567C45.539 56.8533 45.5624 56.7393 45.5573 56.6247C45.6815 53.0093 45.3402 49.393 44.5419 45.8646C44.5236 45.7269 44.4662 45.5972 44.3766 45.491C44.2377 45.3521 43.4626 45.5201 43.2542 45.516C42.6222 45.5049 41.9915 45.4799 41.3608 45.4618L37.6492 45.3507Z" fill="url(#paint25_linear_382_5241)"/>
<defs>
<linearGradient id="paint0_linear_382_5241" x1="40.8122" y1="28.4221" x2="41.3595" y2="36.9387" gradientUnits="userSpaceOnUse">
<stop offset="0.02" stop-color="white" stop-opacity="0"/>
<stop offset="0.39" stop-color="white" stop-opacity="0.39"/>
<stop offset="1" stop-color="white"/>
</linearGradient>
<linearGradient id="paint1_linear_382_5241" x1="33.7514" y1="52.9731" x2="32.2929" y2="72.5261" gradientUnits="userSpaceOnUse">
<stop offset="0.01"/>
<stop offset="0.83" stop-opacity="0.07"/>
<stop offset="1" stop-opacity="0"/>
</linearGradient>
<linearGradient id="paint2_linear_382_5241" x1="31.8499" y1="42.5743" x2="34.7698" y2="78.8953" gradientUnits="userSpaceOnUse">
<stop offset="0.01"/>
<stop offset="0.83" stop-opacity="0.07"/>
<stop offset="1" stop-opacity="0"/>
</linearGradient>
<linearGradient id="paint3_linear_382_5241" x1="29.4106" y1="43.8368" x2="27.1395" y2="37.0218" gradientUnits="userSpaceOnUse">
<stop offset="0.01"/>
<stop offset="0.83" stop-opacity="0.07"/>
<stop offset="1" stop-opacity="0"/>
</linearGradient>
<linearGradient id="paint4_linear_382_5241" x1="47.801" y1="45.7943" x2="32.9556" y2="45.0025" gradientUnits="userSpaceOnUse">
<stop offset="0.01"/>
<stop offset="0.83" stop-opacity="0.07"/>
<stop offset="1" stop-opacity="0"/>
</linearGradient>
<linearGradient id="paint5_linear_382_5241" x1="41.4096" y1="34.1729" x2="35.4476" y2="38.4319" gradientUnits="userSpaceOnUse">
<stop offset="0.01"/>
<stop offset="0.83" stop-opacity="0.07"/>
<stop offset="1" stop-opacity="0"/>
</linearGradient>
<linearGradient id="paint6_linear_382_5241" x1="33.6307" y1="31.3129" x2="33.4487" y2="38.5529" gradientUnits="userSpaceOnUse">
<stop offset="0.01"/>
<stop offset="0.83" stop-opacity="0.07"/>
<stop offset="1" stop-opacity="0"/>
</linearGradient>
<linearGradient id="paint7_linear_382_5241" x1="40.5926" y1="34.7605" x2="41.6872" y2="38.0055" gradientUnits="userSpaceOnUse">
<stop offset="0.01"/>
<stop offset="0.83" stop-opacity="0.07"/>
<stop offset="1" stop-opacity="0"/>
</linearGradient>
<linearGradient id="paint8_linear_382_5241" x1="40.0982" y1="32.8034" x2="41.3151" y2="37.4278" gradientUnits="userSpaceOnUse">
<stop offset="0.02" stop-color="white" stop-opacity="0"/>
<stop offset="0.39" stop-color="white" stop-opacity="0.39"/>
<stop offset="1" stop-color="white"/>
</linearGradient>
<linearGradient id="paint9_linear_382_5241" x1="40.6955" y1="32.7224" x2="41.8762" y2="37.212" gradientUnits="userSpaceOnUse">
<stop offset="0.02" stop-color="white" stop-opacity="0"/>
<stop offset="0.39" stop-color="white" stop-opacity="0.39"/>
<stop offset="1" stop-color="white"/>
</linearGradient>
<linearGradient id="paint10_linear_382_5241" x1="29.0436" y1="61.7215" x2="30.3827" y2="74.336" gradientUnits="userSpaceOnUse">
<stop offset="0.01"/>
<stop offset="0.83" stop-opacity="0.07"/>
<stop offset="1" stop-opacity="0"/>
</linearGradient>
<linearGradient id="paint11_linear_382_5241" x1="34.7918" y1="61.3951" x2="36.1295" y2="74.0096" gradientUnits="userSpaceOnUse">
<stop offset="0.01"/>
<stop offset="0.83" stop-opacity="0.07"/>
<stop offset="1" stop-opacity="0"/>
</linearGradient>
<linearGradient id="paint12_linear_382_5241" x1="32.7388" y1="60.478" x2="32.6791" y2="40.5221" gradientUnits="userSpaceOnUse">
<stop offset="0.01"/>
<stop offset="0.83" stop-opacity="0.07"/>
<stop offset="1" stop-opacity="0"/>
</linearGradient>
<linearGradient id="paint13_linear_382_5241" x1="33.0763" y1="28.4221" x2="32.529" y2="36.9387" gradientUnits="userSpaceOnUse">
<stop offset="0.02" stop-color="white" stop-opacity="0"/>
<stop offset="0.39" stop-color="white" stop-opacity="0.39"/>
<stop offset="1" stop-color="white"/>
</linearGradient>
<linearGradient id="paint14_linear_382_5241" x1="40.1371" y1="52.9731" x2="41.5957" y2="72.5261" gradientUnits="userSpaceOnUse">
<stop offset="0.01"/>
<stop offset="0.83" stop-opacity="0.07"/>
<stop offset="1" stop-opacity="0"/>
</linearGradient>
<linearGradient id="paint15_linear_382_5241" x1="42.0389" y1="42.5743" x2="39.119" y2="78.8953" gradientUnits="userSpaceOnUse">
<stop offset="0.01"/>
<stop offset="0.83" stop-opacity="0.07"/>
<stop offset="1" stop-opacity="0"/>
</linearGradient>
<linearGradient id="paint16_linear_382_5241" x1="44.478" y1="43.8372" x2="46.7492" y2="37.0223" gradientUnits="userSpaceOnUse">
<stop offset="0.01"/>
<stop offset="0.83" stop-opacity="0.07"/>
<stop offset="1" stop-opacity="0"/>
</linearGradient>
<linearGradient id="paint17_linear_382_5241" x1="26.0877" y1="45.7943" x2="40.9331" y2="45.0025" gradientUnits="userSpaceOnUse">
<stop offset="0.01"/>
<stop offset="0.83" stop-opacity="0.07"/>
<stop offset="1" stop-opacity="0"/>
</linearGradient>
<linearGradient id="paint18_linear_382_5241" x1="32.4789" y1="34.1729" x2="38.4409" y2="38.4319" gradientUnits="userSpaceOnUse">
<stop offset="0.01"/>
<stop offset="0.83" stop-opacity="0.07"/>
<stop offset="1" stop-opacity="0"/>
</linearGradient>
<linearGradient id="paint19_linear_382_5241" x1="40.2579" y1="31.3129" x2="40.4399" y2="38.5529" gradientUnits="userSpaceOnUse">
<stop offset="0.01"/>
<stop offset="0.83" stop-opacity="0.07"/>
<stop offset="1" stop-opacity="0"/>
</linearGradient>
<linearGradient id="paint20_linear_382_5241" x1="33.2959" y1="34.7605" x2="32.2013" y2="38.0055" gradientUnits="userSpaceOnUse">
<stop offset="0.01"/>
<stop offset="0.83" stop-opacity="0.07"/>
<stop offset="1" stop-opacity="0"/>
</linearGradient>
<linearGradient id="paint21_linear_382_5241" x1="33.7903" y1="32.8034" x2="32.5734" y2="37.4278" gradientUnits="userSpaceOnUse">
<stop offset="0.02" stop-color="white" stop-opacity="0"/>
<stop offset="0.39" stop-color="white" stop-opacity="0.39"/>
<stop offset="1" stop-color="white"/>
</linearGradient>
<linearGradient id="paint22_linear_382_5241" x1="33.193" y1="32.7224" x2="32.0123" y2="37.212" gradientUnits="userSpaceOnUse">
<stop offset="0.02" stop-color="white" stop-opacity="0"/>
<stop offset="0.39" stop-color="white" stop-opacity="0.39"/>
<stop offset="1" stop-color="white"/>
</linearGradient>
<linearGradient id="paint23_linear_382_5241" x1="44.8449" y1="61.7215" x2="43.5058" y2="74.336" gradientUnits="userSpaceOnUse">
<stop offset="0.01"/>
<stop offset="0.83" stop-opacity="0.07"/>
<stop offset="1" stop-opacity="0"/>
</linearGradient>
<linearGradient id="paint24_linear_382_5241" x1="39.0967" y1="61.3951" x2="37.759" y2="74.0096" gradientUnits="userSpaceOnUse">
<stop offset="0.01"/>
<stop offset="0.83" stop-opacity="0.07"/>
<stop offset="1" stop-opacity="0"/>
</linearGradient>
<linearGradient id="paint25_linear_382_5241" x1="41.1497" y1="60.478" x2="41.2094" y2="40.5221" gradientUnits="userSpaceOnUse">
<stop offset="0.01"/>
<stop offset="0.83" stop-opacity="0.07"/>
<stop offset="1" stop-opacity="0"/>
</linearGradient>
</defs>
</svg>
