<svg width="456" height="588" viewBox="0 0 456 588" fill="none" xmlns="http://www.w3.org/2000/svg">
<rect x="0.5" y="-0.5" width="454.224" height="587" rx="7.5" transform="matrix(1 0 0 -1 0 587)" fill="#F7F7F7" stroke="#796894"/>
<rect x="47.0569" y="172" width="4.09191" height="339" fill="#24133F"/>
<rect x="47.0569" y="149" width="4.09191" height="11" fill="#24133F"/>
<rect x="404.076" y="443" width="4.09191" height="11" fill="#24133F"/>
<rect x="47.0569" y="134" width="4.09191" height="11" fill="#24133F"/>
<rect x="404.076" y="428" width="4.09191" height="11" fill="#24133F"/>
<rect width="4.09191" height="339" transform="matrix(1 0 0 -1 404.076 416)" fill="#24133F"/>
<path d="M39.0074 88L55.2474 52.608L55.9194 54.4H36.0954V48.8H60.3434L61.1274 52.664L45.5034 88H39.0074ZM80.0549 88.56C77.0682 88.56 74.4922 87.7387 72.3269 86.096C70.1989 84.4533 68.5562 82.1387 67.3989 79.152C66.2416 76.128 65.6629 72.544 65.6629 68.4C65.6629 64.256 66.2416 60.6907 67.3989 57.704C68.5562 54.68 70.1989 52.3467 72.3269 50.704C74.4922 49.0613 77.0682 48.24 80.0549 48.24C83.0416 48.24 85.6176 49.0613 87.7829 50.704C89.9482 52.3467 91.6096 54.68 92.7669 57.704C93.9242 60.6907 94.5029 64.256 94.5029 68.4C94.5029 72.544 93.9242 76.128 92.7669 79.152C91.6096 82.1387 89.9482 84.4533 87.7829 86.096C85.6176 87.7387 83.0416 88.56 80.0549 88.56ZM80.0549 83.072C82.7802 83.072 84.8896 81.8027 86.3829 79.264C87.8762 76.688 88.6229 73.0667 88.6229 68.4C88.6229 63.7333 87.8762 60.1307 86.3829 57.592C84.8896 55.016 82.7802 53.728 80.0549 53.728C77.3296 53.728 75.2202 55.016 73.7269 57.592C72.2336 60.1307 71.4869 63.7333 71.4869 68.4C71.4869 73.0667 72.2336 76.688 73.7269 79.264C75.2202 81.8027 77.3296 83.072 80.0549 83.072Z" fill="#24133F"/>
<path d="M362.268 542L378.508 506.608L379.18 508.4H359.356V502.8H383.604L384.388 506.664L368.764 542H362.268ZM403.315 542.56C400.329 542.56 397.753 541.739 395.587 540.096C393.459 538.453 391.817 536.139 390.659 533.152C389.502 530.128 388.923 526.544 388.923 522.4C388.923 518.256 389.502 514.691 390.659 511.704C391.817 508.68 393.459 506.347 395.587 504.704C397.753 503.061 400.329 502.24 403.315 502.24C406.302 502.24 408.878 503.061 411.043 504.704C413.209 506.347 414.87 508.68 416.027 511.704C417.185 514.691 417.763 518.256 417.763 522.4C417.763 526.544 417.185 530.128 416.027 533.152C414.87 536.139 413.209 538.453 411.043 540.096C408.878 541.739 406.302 542.56 403.315 542.56ZM403.315 537.072C406.041 537.072 408.15 535.803 409.643 533.264C411.137 530.688 411.883 527.067 411.883 522.4C411.883 517.733 411.137 514.131 409.643 511.592C408.15 509.016 406.041 507.728 403.315 507.728C400.59 507.728 398.481 509.016 396.987 511.592C395.494 514.131 394.747 517.733 394.747 522.4C394.747 527.067 395.494 530.688 396.987 533.264C398.481 535.803 400.59 537.072 403.315 537.072Z" fill="#24133F"/>
<ellipse cx="49.1029" cy="114" rx="12.2757" ry="12" fill="#24133F"/>
<ellipse cx="406.121" cy="474" rx="12.2757" ry="12" fill="#24133F"/>
<path opacity="0.18" d="M318.194 441.101C298.638 448.818 276.897 447.935 255.869 446.929C229.674 445.684 201.312 443.556 181.801 426.073C164.142 410.25 158.045 385.641 150.657 363.099C137.045 321.467 115.836 279.446 122.854 236.224C127.371 208.693 143.629 183.616 165.777 166.752C187.925 149.887 215.764 141.039 243.594 140.077C255.426 139.671 267.702 140.748 278.107 146.408C285.406 150.381 291.367 156.385 297.076 162.46C320.345 187.406 340.589 214.895 357.405 244.383C370.276 266.916 381.305 291.181 384.015 316.972C388.414 358.552 359.708 424.775 318.194 441.101Z" fill="#68E1FD"/>
<path d="M224.526 216.666C224.526 210.653 222.565 204.631 223.676 198.724C224.869 192.34 229.548 186.362 228.13 179.996C227.226 176.04 224.146 172.932 221.174 170.142L215.457 164.685C214.839 164.012 214.098 163.457 213.271 163.052C212.372 162.744 211.422 162.606 210.471 162.646C204.533 162.54 198.599 162.598 192.667 162.822C187.754 162.999 182.217 163.599 179.182 167.378C176.472 170.804 176.752 175.661 177.709 179.908C178.667 184.155 180.139 188.481 179.272 192.746C178.17 198.159 173.374 203.174 175.045 208.446C175.767 210.75 177.646 212.551 178.531 214.803C179.263 216.657 179.362 218.856 180.808 220.251C181.848 221.089 183.093 221.649 184.421 221.876C193.905 224.33 203.389 227.421 212.91 229.628C220.741 231.456 224.553 223.5 224.526 216.666Z" fill="url(#paint0_linear_553_59)"/>
<path d="M255.598 430.858C219.111 430.858 189.533 425.616 189.533 419.15C189.533 412.684 219.111 407.442 255.598 407.442C292.084 407.442 321.662 412.684 321.662 419.15C321.662 425.616 292.084 430.858 255.598 430.858Z" fill="url(#paint1_linear_553_59)"/>
<path d="M263.944 404.988C263.944 404.988 262.517 414.126 263.285 415.168C264.052 416.21 268.542 415.857 271.306 415.265C274.07 414.674 274.738 411.168 274.738 411.168L274.928 408.29L263.944 404.988Z" fill="#F7AF81"/>
<path d="M226.531 401.817C226.531 401.817 224.724 412.996 225.339 413.967C225.953 414.938 230.189 414.788 232.655 414.497C235.121 414.206 235.437 408.095 235.437 408.095L235.853 405.597L226.531 401.817Z" fill="#F7AF81"/>
<path d="M263.077 186.168C262.872 186.632 262.618 187.073 262.318 187.484C261.37 189.117 261.83 191.343 260.656 192.835C260.367 191.634 257.946 183.193 259.093 182.645C259.364 182.513 260.791 183.678 261.126 183.828C262.155 184.261 263.592 184.605 263.077 186.168Z" fill="#7D3B3D"/>
<path d="M232.628 292.699L230.279 339.55L225.763 404.466C225.763 404.466 228.355 407.504 235.816 407.601L249.239 341.536L255.562 307.983L260.981 340.733L263.249 408.952C263.249 408.952 268.515 409.058 275.361 409.658L279.796 342.393L275.407 290.297L232.628 292.699Z" fill="#68E1FD"/>
<path d="M232.628 292.699L230.279 339.55L225.763 404.466C225.763 404.466 228.355 407.504 235.816 407.601L249.239 341.536L255.562 307.983L260.981 340.733L263.249 408.952C263.249 408.952 268.515 409.058 275.361 409.658L279.796 342.393L275.407 290.297L232.628 292.699Z" fill="url(#paint2_linear_553_59)"/>
<path d="M270.872 216.834L274.982 239.041C275.352 239.279 287.131 247.094 288.531 248.895C289.931 250.696 295.902 253.116 297.943 253.469C299.984 253.822 304.528 250.025 303.796 244.233C303.064 238.441 279.408 219.245 276.933 217.876C274.458 216.507 270.872 216.834 270.872 216.834Z" fill="white"/>
<path d="M273.528 228.277L274.982 239.041C275.352 239.279 287.131 247.094 288.531 248.895C289.931 250.696 295.902 253.115 297.943 253.469C299.984 253.822 304.528 250.025 303.796 244.233L291.15 242.467L273.528 228.277Z" fill="url(#paint3_linear_553_59)"/>
<path d="M224.742 318.517C224.742 318.871 225.095 319.18 225.646 319.444C229.521 321.263 244.84 320.919 254.297 319.983C255.2 319.895 255.471 307.171 255.471 307.171C255.471 307.171 258.795 319.436 259.554 319.286C267.738 317.767 281.711 316.195 281.711 316.195C278.359 303.099 276.326 289.714 275.641 276.232C274.44 249.239 277.267 218.043 276.373 217.337C274.756 216.066 259.112 211.315 259.112 211.315L242.853 212.693L240.857 213.576C237.424 215.059 230.668 217.99 229.638 218.873C229.584 218.873 229.548 219.068 229.512 219.324C229.403 220.118 229.349 221.911 229.322 224.48C229.259 230.485 229.322 240.718 229.268 252.418V256.179C229.195 264.585 229.024 273.583 228.681 282.201C228.03 298.271 224.652 317.308 224.742 318.517Z" fill="white"/>
<path d="M224.742 318.517C224.742 318.871 225.094 319.18 225.645 319.445C229.722 319.939 233.822 320.234 237.93 320.327L235.816 308.725L238.192 248.683L232.122 240.436L229.304 252.427C229.304 261.883 229.105 272.302 228.698 282.209C228.03 298.271 224.652 317.308 224.742 318.517Z" fill="url(#paint4_linear_553_59)"/>
<path d="M216.044 261.689C217.57 263.897 220.849 264.497 223.36 263.455C224.593 262.88 225.692 262.062 226.587 261.054C227.482 260.045 228.155 258.867 228.563 257.592C228.756 257.082 228.998 256.591 229.286 256.126C230.541 254.025 232.556 251.809 232.646 249.663C232.89 244.568 234.823 239.482 234.832 234.379C234.832 230.449 232.122 226.211 230.668 222.176C230.312 221.23 230.043 220.255 229.864 219.262C229.759 219.249 229.653 219.249 229.548 219.262C227.561 219.509 225.122 223.88 224.372 225.328C223.105 227.901 222.194 230.626 221.662 233.434C220.506 239.076 219.404 241.769 217.146 247.067C216.342 248.921 216.071 253.892 215.52 255.835C215.172 256.79 215.039 257.808 215.13 258.818C215.22 259.828 215.532 260.807 216.044 261.689Z" fill="white"/>
<path d="M217.092 247.094L221.382 252.391C221.382 252.391 224.146 244.648 224.923 240.975C225.627 237.725 227.877 228.427 229.349 224.445C229.499 224.015 229.673 223.593 229.873 223.183C230.085 222.818 230.35 222.485 230.659 222.194C233.603 219.306 242.537 214.874 242.537 214.874L240.884 213.549C237.451 215.033 230.695 217.964 229.665 218.847C229.611 218.847 229.575 219.041 229.539 219.297C227.551 219.545 225.113 223.915 224.363 225.364C223.096 227.936 222.185 230.662 221.653 233.469C220.497 239.103 219.395 241.796 217.092 247.094Z" fill="url(#paint5_linear_553_59)"/>
<path d="M242.365 201.073C242.365 201.073 243.404 208.472 242.573 211.209C241.742 213.947 245.59 222.15 251.289 222.688C256.989 223.227 257.865 213.717 257.973 212.605C258.082 211.492 256.411 210.777 257.242 208.04C258.073 205.302 243.241 197.779 242.365 201.073Z" fill="#F7AF81"/>
<path d="M257.242 208.004C256.781 210.249 256.861 212.568 257.476 214.777C255.968 215.898 254.577 217.823 252.96 217.673C249.546 217.373 244.668 209.911 242.853 204.702C242.853 204.605 242.789 204.508 242.762 204.41C242.6 202.539 242.401 201.073 242.401 201.073C243.241 197.779 258.064 205.267 257.242 208.004Z" fill="#F69771"/>
<path d="M260.981 184.844C260.981 184.844 262.273 199.386 261.171 203.307C260.069 207.227 256.655 210.627 253.231 210.662C249.808 210.697 244.614 207.951 242.275 202.936C239.935 197.921 238.662 185.63 239.213 183.943C239.764 182.257 243.169 176.932 252.319 177.656C258.615 178.151 260.954 182.61 260.981 184.844Z" fill="#F7AF81"/>
<path d="M241.371 193.126C241.371 193.126 241.11 189.727 238.725 190.645C236.34 191.563 238.626 197.938 239.719 198.592C240.199 198.948 240.771 199.165 241.371 199.219" fill="#F7AF81"/>
<path d="M294.158 250.007C294.158 250.007 288.856 248.603 290.708 240.771C292.559 232.939 299.252 209.867 299.252 209.867L305.313 214.626C305.313 214.626 307.418 246.299 302.992 249.063C301.691 249.869 300.219 250.374 298.687 250.538C297.156 250.702 295.606 250.52 294.158 250.007Z" fill="#F7AF81"/>
<path d="M299.253 209.894C299.253 209.894 298.35 205.797 298.783 204.702C299.217 203.607 303.643 195.757 305.386 196.896C307.129 198.035 309.622 205.602 309.821 206.115C310.02 206.627 305.314 214.626 305.314 214.626L299.253 209.894Z" fill="#F7AF81"/>
<path d="M214.689 260.912L199.631 240.877L200.074 228.798L225.094 253.981C225.761 254.679 226.253 255.519 226.533 256.434C226.812 257.349 226.87 258.316 226.703 259.257C226.535 260.198 226.147 261.088 225.569 261.858C224.991 262.628 224.238 263.256 223.369 263.694L221.508 263.879C220.205 264.013 218.889 263.81 217.692 263.289C216.495 262.768 215.459 261.949 214.689 260.912Z" fill="#F7AF81"/>
<path d="M201.664 241.663C200.257 241.38 198.879 240.975 197.545 240.453C196.443 239.88 192.938 227.65 193.932 226.838C194.926 226.026 199.044 223.73 200.192 224.472C201.339 225.213 207.526 231.023 207.526 231.023C207.526 231.023 205.774 242.882 201.664 241.663Z" fill="#F7AF81"/>
<path d="M259.102 211.315L257.576 210.211C257.576 210.211 255.769 219.174 252.5 220.074C252.5 220.074 247.288 222.07 242.808 210.362L241.091 213.743C241.091 213.743 244.262 221.09 245.969 221.867C247.676 222.644 252.617 227.324 257.052 221.09C259.157 218.096 259.102 211.315 259.102 211.315Z" fill="#68E1FD"/>
<path d="M259.102 211.315L257.576 210.211C257.576 210.211 255.769 219.174 252.5 220.074C252.5 220.074 247.288 222.07 242.808 210.362L241.091 213.743C241.091 213.743 244.262 221.09 245.969 221.867C247.676 222.644 252.617 227.324 257.052 221.09C259.157 218.096 259.102 211.315 259.102 211.315Z" fill="url(#paint6_linear_553_59)"/>
<path d="M296.453 200.693C295.604 199.951 294.877 199.088 294.294 198.132C294.205 197.986 294.179 197.812 294.221 197.647C294.276 197.545 294.361 197.462 294.465 197.408C294.85 197.196 295.284 197.084 295.725 197.084C296.167 197.084 296.601 197.196 296.985 197.408C297.755 197.843 298.353 198.518 298.684 199.324C298.798 199.668 298.975 199.988 299.207 200.269C299.506 200.484 299.852 200.627 300.218 200.686C300.583 200.746 300.958 200.721 301.312 200.614C301.488 200.556 301.678 200.556 301.854 200.614C302.134 200.755 302.17 201.126 302.143 201.435C302.062 202.397 300.815 205.673 299.37 205.426C298.774 205.32 298.467 203.66 298.223 203.192C297.752 202.284 297.157 201.443 296.453 200.693Z" fill="#F7AF81"/>
<path d="M261.135 183.722C261.135 183.722 248.489 179.519 238.833 189.576L237.794 176.182C236.211 176.031 234.657 175.663 233.179 175.087C230.279 174.054 228.662 167.873 232.393 166.84C233.521 166.558 234.699 166.528 235.84 166.751C236.981 166.974 238.057 167.445 238.987 168.129C238.987 168.129 235.816 161.683 244.325 161.683C244.325 161.683 248.48 162.451 249.266 165.162C249.266 165.162 252.039 159.555 256.781 161.683C261.523 163.811 260.936 166.319 260.936 166.319C260.936 166.319 264.305 164.968 265.29 166.707C266.274 168.447 266.708 171.184 263.483 171.546C258.344 172.12 259.391 173.153 259.391 173.153L261.135 183.722Z" fill="white"/>
<path d="M242.401 196.172C241.132 194.433 240.114 192.532 239.375 190.521C239.092 190.997 238.648 191.363 238.12 191.554C237.855 191.643 237.568 191.643 237.303 191.555C237.039 191.467 236.811 191.296 236.656 191.069C236.548 190.844 236.513 190.593 236.555 190.348C236.597 190.104 236.714 189.878 236.891 189.7C237.248 189.346 237.715 189.119 238.219 189.055C238.361 189.045 238.496 188.992 238.607 188.905C238.842 188.658 238.607 188.225 238.743 187.943C238.853 187.817 239.002 187.731 239.167 187.696C239.989 187.431 241.272 186.813 242.067 186.636C242.482 187.934 241.57 189.815 241.669 191.236C241.791 192.897 242.035 194.546 242.401 196.172Z" fill="#7D3B3D"/>
<path d="M240.703 203.827C240.735 204.207 240.817 204.581 240.947 204.94C241.322 205.66 241.887 206.269 242.582 206.706C242.678 206.787 242.792 206.845 242.916 206.874C243.041 206.873 243.161 206.827 243.254 206.746C243.347 206.665 243.407 206.553 243.422 206.432C243.447 206.187 243.404 205.94 243.295 205.717L241.543 200.861C241.403 200.502 241.295 200.133 241.218 199.757C241.204 199.581 241.161 199.408 241.091 199.245C240.965 199.006 240.522 198.662 240.188 198.821C239.854 198.98 240.134 199.881 240.188 200.181L240.703 203.827Z" fill="#7D3B3D"/>
<path d="M226.368 235.279L171.992 222.97L181.07 222.379L220.443 231.571L226.368 235.279Z" fill="#68E1FD"/>
<path d="M226.368 235.279L171.992 222.97L181.07 222.379L220.443 231.571L226.368 235.279Z" fill="url(#paint7_linear_553_59)"/>
<path d="M220.407 231.579C220.407 231.579 224.724 212.675 207.761 209.072C186.796 204.657 181.106 222.388 181.106 222.388L220.407 231.579Z" fill="#68E1FD"/>
<path d="M181.07 222.388L220.407 231.58C220.407 231.58 224.724 212.675 207.761 209.072C206.758 208.861 205.792 208.702 204.862 208.587C187.7 206.45 182 219.951 181.205 222.096L181.07 222.388Z" fill="url(#paint8_linear_553_59)"/>
<path d="M181.178 222.096L212.919 229.513C212.919 229.513 216.369 214.317 204.789 208.587C187.708 206.45 181.973 219.924 181.178 222.096Z" fill="url(#paint9_linear_553_59)"/>
<path d="M208.384 209.32C207.366 209.32 206.541 208.513 206.541 207.519C206.541 206.524 207.366 205.717 208.384 205.717C209.402 205.717 210.227 206.524 210.227 207.519C210.227 208.513 209.402 209.32 208.384 209.32Z" fill="#68E1FD"/>
<path d="M287.203 414.426C288.775 415.009 290.437 415.91 290.437 417.879C290.427 418.658 290.154 419.413 289.66 420.024C287.736 422.55 284.177 422.673 281.052 422.55C275.218 422.258 269.42 421.49 263.718 420.254C263.329 420.199 262.959 420.051 262.643 419.821C262.342 419.491 262.152 419.078 262.101 418.638C261.698 416.717 261.637 414.743 261.921 412.802C261.946 412.623 262.019 412.454 262.133 412.311C262.247 412.169 262.397 412.059 262.568 411.991C262.74 411.924 262.927 411.902 263.109 411.928C263.292 411.954 263.465 412.027 263.61 412.139C264.742 413.049 266.184 413.509 267.647 413.429C271.125 413.208 272.453 410.232 276.002 411.248C279.697 412.298 283.635 413.084 287.203 414.426Z" fill="#68E1FD"/>
<path d="M249.717 413.367C251.289 413.95 252.951 414.85 252.96 416.811C252.943 417.593 252.668 418.349 252.174 418.965C250.259 421.49 246.692 421.614 243.566 421.482C237.733 421.19 231.935 420.422 226.233 419.186C225.842 419.135 225.472 418.986 225.158 418.753C224.853 418.425 224.663 418.011 224.616 417.57C224.211 415.628 224.153 413.633 224.444 411.672C224.469 411.499 224.54 411.335 224.65 411.197C224.76 411.06 224.906 410.953 225.072 410.889C225.238 410.824 225.419 410.804 225.596 410.829C225.773 410.855 225.94 410.927 226.079 411.036C227.21 411.989 228.671 412.482 230.162 412.413C233.639 412.184 234.976 409.217 238.517 410.224C242.211 411.239 246.113 412.025 249.717 413.367Z" fill="#68E1FD"/>
<path d="M287.203 414.426C288.775 415.009 290.437 415.91 290.437 417.879C290.427 418.658 290.154 419.413 289.66 420.024C287.736 422.55 284.177 422.673 281.052 422.55C275.218 422.258 269.42 421.49 263.718 420.254C263.329 420.199 262.959 420.051 262.643 419.821C262.342 419.491 262.152 419.078 262.101 418.638C261.698 416.717 261.637 414.743 261.921 412.802C261.946 412.623 262.019 412.454 262.133 412.311C262.247 412.169 262.397 412.059 262.568 411.991C262.74 411.924 262.927 411.902 263.109 411.928C263.292 411.954 263.465 412.027 263.61 412.139C264.742 413.049 266.184 413.509 267.647 413.429C271.125 413.208 272.453 410.232 276.002 411.248C279.697 412.298 283.635 413.084 287.203 414.426Z" fill="url(#paint10_linear_553_59)"/>
<path d="M249.717 413.367C251.289 413.95 252.951 414.85 252.96 416.811C252.943 417.593 252.668 418.349 252.174 418.965C250.259 421.49 246.692 421.614 243.566 421.482C237.733 421.19 231.935 420.422 226.233 419.186C225.842 419.135 225.472 418.986 225.158 418.753C224.853 418.425 224.663 418.011 224.616 417.57C224.211 415.628 224.153 413.633 224.444 411.672C224.469 411.499 224.54 411.335 224.65 411.197C224.76 411.06 224.906 410.953 225.072 410.889C225.238 410.824 225.419 410.804 225.596 410.829C225.773 410.855 225.94 410.927 226.079 411.036C227.21 411.989 228.671 412.482 230.162 412.413C233.639 412.184 234.976 409.217 238.517 410.224C242.211 411.239 246.113 412.025 249.717 413.367Z" fill="url(#paint11_linear_553_59)"/>
<path d="M256.582 233.558C255.964 233.558 255.462 233.068 255.462 232.463C255.462 231.858 255.964 231.368 256.582 231.368C257.201 231.368 257.702 231.858 257.702 232.463C257.702 233.068 257.201 233.558 256.582 233.558Z" fill="#68E1FD"/>
<path d="M258.759 247.932C258.14 247.932 257.639 247.442 257.639 246.838C257.639 246.233 258.14 245.743 258.759 245.743C259.377 245.743 259.879 246.233 259.879 246.838C259.879 247.442 259.377 247.932 258.759 247.932Z" fill="#68E1FD"/>
<path d="M259.157 265.203C258.538 265.203 258.036 264.713 258.036 264.108C258.036 263.504 258.538 263.013 259.157 263.013C259.775 263.013 260.277 263.504 260.277 264.108C260.277 264.713 259.775 265.203 259.157 265.203Z" fill="#68E1FD"/>
<path d="M258.497 279.446C257.879 279.446 257.377 278.955 257.377 278.351C257.377 277.746 257.879 277.256 258.497 277.256C259.116 277.256 259.617 277.746 259.617 278.351C259.617 278.955 259.116 279.446 258.497 279.446Z" fill="#68E1FD"/>
<path d="M258.235 300.717C257.616 300.717 257.115 300.227 257.115 299.622C257.115 299.017 257.616 298.527 258.235 298.527C258.854 298.527 259.355 299.017 259.355 299.622C259.355 300.227 258.854 300.717 258.235 300.717Z" fill="#68E1FD"/>
<path d="M232.619 281.582C231.285 281.441 229.936 281.619 228.689 282.103C227.488 282.695 226.594 284.099 227.082 285.317C227.422 285.935 227.854 286.501 228.364 286.995C229.593 288.558 229.638 290.686 229.62 292.664L229.186 350.613C229.186 352.591 229.385 354.966 231.173 355.911C231.981 356.254 232.86 356.403 233.739 356.344C248.944 356.532 264.146 356.688 279.344 356.812C280.925 356.812 282.795 356.688 283.599 355.355C283.922 354.698 284.074 353.973 284.041 353.245C284.849 330.264 282.629 307.277 277.439 284.849C277.32 283.973 276.947 283.149 276.364 282.474C275.46 281.591 270.42 282.66 269.065 282.633C264.955 282.562 260.855 282.403 256.754 282.289L232.619 281.582Z" fill="#68E1FD"/>
<path d="M232.619 281.582C231.285 281.441 229.936 281.619 228.689 282.103C227.488 282.695 226.594 284.099 227.082 285.317C227.422 285.935 227.854 286.501 228.364 286.995C229.593 288.558 229.638 290.686 229.62 292.664L229.186 350.613C229.186 352.591 229.385 354.966 231.173 355.911C231.981 356.254 232.86 356.403 233.739 356.344C248.944 356.532 264.146 356.688 279.344 356.812C280.925 356.812 282.795 356.688 283.599 355.355C283.922 354.698 284.074 353.973 284.041 353.245C284.849 330.264 282.629 307.277 277.439 284.849C277.32 283.973 276.947 283.149 276.364 282.474C275.46 281.591 270.42 282.66 269.065 282.633C264.955 282.562 260.855 282.403 256.754 282.289L232.619 281.582Z" fill="url(#paint12_linear_553_59)"/>
<defs>
<linearGradient id="paint0_linear_553_59" x1="202.883" y1="173.974" x2="199.482" y2="228.119" gradientUnits="userSpaceOnUse">
<stop offset="0.02" stop-color="white" stop-opacity="0"/>
<stop offset="0.39" stop-color="white" stop-opacity="0.39"/>
<stop offset="1" stop-color="white"/>
</linearGradient>
<linearGradient id="paint1_linear_553_59" x1="248.796" y1="330.031" x2="257.861" y2="454.35" gradientUnits="userSpaceOnUse">
<stop offset="0.01"/>
<stop offset="0.83" stop-opacity="0.07"/>
<stop offset="1" stop-opacity="0"/>
</linearGradient>
<linearGradient id="paint2_linear_553_59" x1="261.162" y1="263.932" x2="243.014" y2="494.869" gradientUnits="userSpaceOnUse">
<stop offset="0.01"/>
<stop offset="0.83" stop-opacity="0.07"/>
<stop offset="1" stop-opacity="0"/>
</linearGradient>
<linearGradient id="paint3_linear_553_59" x1="277.023" y1="271.958" x2="291.199" y2="228.446" gradientUnits="userSpaceOnUse">
<stop offset="0.01"/>
<stop offset="0.83" stop-opacity="0.07"/>
<stop offset="1" stop-opacity="0"/>
</linearGradient>
<linearGradient id="paint4_linear_553_59" x1="157.44" y1="284.399" x2="253.959" y2="279.133" gradientUnits="userSpaceOnUse">
<stop offset="0.01"/>
<stop offset="0.83" stop-opacity="0.07"/>
<stop offset="1" stop-opacity="0"/>
</linearGradient>
<linearGradient id="paint5_linear_553_59" x1="198.999" y1="210.53" x2="237.168" y2="238.422" gradientUnits="userSpaceOnUse">
<stop offset="0.01"/>
<stop offset="0.83" stop-opacity="0.07"/>
<stop offset="1" stop-opacity="0"/>
</linearGradient>
<linearGradient id="paint6_linear_553_59" x1="249.582" y1="192.349" x2="250.713" y2="238.371" gradientUnits="userSpaceOnUse">
<stop offset="0.01"/>
<stop offset="0.83" stop-opacity="0.07"/>
<stop offset="1" stop-opacity="0"/>
</linearGradient>
<linearGradient id="paint7_linear_553_59" x1="204.31" y1="214.264" x2="197.478" y2="234.985" gradientUnits="userSpaceOnUse">
<stop offset="0.01"/>
<stop offset="0.83" stop-opacity="0.07"/>
<stop offset="1" stop-opacity="0"/>
</linearGradient>
<linearGradient id="paint8_linear_553_59" x1="207.526" y1="201.823" x2="199.943" y2="231.302" gradientUnits="userSpaceOnUse">
<stop offset="0.02" stop-color="white" stop-opacity="0"/>
<stop offset="0.39" stop-color="white" stop-opacity="0.39"/>
<stop offset="1" stop-color="white"/>
</linearGradient>
<linearGradient id="paint9_linear_553_59" x1="203.642" y1="201.311" x2="196.284" y2="229.931" gradientUnits="userSpaceOnUse">
<stop offset="0.02" stop-color="white" stop-opacity="0"/>
<stop offset="0.39" stop-color="white" stop-opacity="0.39"/>
<stop offset="1" stop-color="white"/>
</linearGradient>
<linearGradient id="paint10_linear_553_59" x1="279.408" y1="385.641" x2="271.083" y2="465.864" gradientUnits="userSpaceOnUse">
<stop offset="0.01"/>
<stop offset="0.83" stop-opacity="0.07"/>
<stop offset="1" stop-opacity="0"/>
</linearGradient>
<linearGradient id="paint11_linear_553_59" x1="242.031" y1="383.567" x2="233.715" y2="463.789" gradientUnits="userSpaceOnUse">
<stop offset="0.01"/>
<stop offset="0.83" stop-opacity="0.07"/>
<stop offset="1" stop-opacity="0"/>
</linearGradient>
<linearGradient id="paint12_linear_553_59" x1="255.381" y1="377.738" x2="255.752" y2="250.89" gradientUnits="userSpaceOnUse">
<stop offset="0.01"/>
<stop offset="0.83" stop-opacity="0.07"/>
<stop offset="1" stop-opacity="0"/>
</linearGradient>
</defs>
</svg>
