<svg width="456" height="588" viewBox="0 0 456 588" fill="none" xmlns="http://www.w3.org/2000/svg">
<rect x="0.248535" width="455.224" height="588" rx="4" fill="#F7F7F7"/>
<rect x="0.748535" y="0.5" width="454.224" height="587" rx="3.5" stroke="#361D5F" stroke-opacity="0.5"/>
<path d="M37.146 91.392C34.57 91.392 32.2366 90.8133 30.146 89.656C28.0553 88.4613 26.3193 86.7627 24.938 84.56L28.298 80.808C30.0526 82.7493 31.5833 84.0747 32.89 84.784C34.1966 85.4933 35.6153 85.848 37.146 85.848C38.6766 85.848 40.058 85.512 41.29 84.84C42.522 84.168 43.4926 83.2533 44.202 82.096C44.9486 80.9387 45.322 79.6507 45.322 78.232C45.322 76.7387 44.9673 75.4133 44.258 74.256C43.586 73.0613 42.6713 72.128 41.514 71.456C40.3566 70.7467 39.05 70.392 37.594 70.392C36.8846 70.392 36.2126 70.448 35.578 70.56C34.9433 70.6347 34.178 70.84 33.282 71.176C32.386 71.512 31.21 72.0347 29.754 72.744L26.562 68.432L28.858 51.8H50.026V57.4H32.666L33.842 56.336L31.994 68.768L30.594 67.144C30.9673 66.7707 31.602 66.416 32.498 66.08C33.394 65.7067 34.3833 65.408 35.466 65.184C36.586 64.9227 37.65 64.792 38.658 64.792C41.0473 64.792 43.1753 65.352 45.042 66.472C46.946 67.5547 48.4393 69.0667 49.522 71.008C50.642 72.9493 51.202 75.1707 51.202 77.672C51.202 80.248 50.586 82.5813 49.354 84.672C48.122 86.7253 46.442 88.368 44.314 89.6C42.186 90.7947 39.7966 91.392 37.146 91.392ZM71.5501 91.56C68.5634 91.56 65.9874 90.7387 63.8221 89.096C61.6941 87.4533 60.0514 85.1387 58.8941 82.152C57.7368 79.128 57.1581 75.544 57.1581 71.4C57.1581 67.256 57.7368 63.6907 58.8941 60.704C60.0514 57.68 61.6941 55.3467 63.8221 53.704C65.9874 52.0613 68.5634 51.24 71.5501 51.24C74.5368 51.24 77.1128 52.0613 79.2781 53.704C81.4434 55.3467 83.1048 57.68 84.2621 60.704C85.4194 63.6907 85.9981 67.256 85.9981 71.4C85.9981 75.544 85.4194 79.128 84.2621 82.152C83.1048 85.1387 81.4434 87.4533 79.2781 89.096C77.1128 90.7387 74.5368 91.56 71.5501 91.56ZM71.5501 86.072C74.2754 86.072 76.3848 84.8027 77.8781 82.264C79.3714 79.688 80.1181 76.0667 80.1181 71.4C80.1181 66.7333 79.3714 63.1307 77.8781 60.592C76.3848 58.016 74.2754 56.728 71.5501 56.728C68.8248 56.728 66.7154 58.016 65.2221 60.592C63.7288 63.1307 62.9821 66.7333 62.9821 71.4C62.9821 76.0667 63.7288 79.688 65.2221 82.264C66.7154 84.8027 68.8248 86.072 71.5501 86.072Z" fill="#080705"/>
<path d="M379.843 561.338C377.267 561.338 374.934 560.759 372.843 559.602C370.752 558.407 369.016 556.708 367.635 554.506L370.995 550.754C372.75 552.695 374.28 554.02 375.587 554.73C376.894 555.439 378.312 555.794 379.843 555.794C381.374 555.794 382.755 555.458 383.987 554.786C385.219 554.114 386.19 553.199 386.899 552.042C387.646 550.884 388.019 549.596 388.019 548.178C388.019 546.684 387.664 545.359 386.955 544.202C386.283 543.007 385.368 542.074 384.211 541.402C383.054 540.692 381.747 540.338 380.291 540.338C379.582 540.338 378.91 540.394 378.275 540.506C377.64 540.58 376.875 540.786 375.979 541.122C375.083 541.458 373.907 541.98 372.451 542.69L369.259 538.378L371.555 521.746H392.723V527.346H375.363L376.539 526.282L374.691 538.714L373.291 537.09C373.664 536.716 374.299 536.362 375.195 536.026C376.091 535.652 377.08 535.354 378.163 535.13C379.283 534.868 380.347 534.738 381.355 534.738C383.744 534.738 385.872 535.298 387.739 536.418C389.643 537.5 391.136 539.012 392.219 540.954C393.339 542.895 393.899 545.116 393.899 547.618C393.899 550.194 393.283 552.527 392.051 554.618C390.819 556.671 389.139 558.314 387.011 559.546C384.883 560.74 382.494 561.338 379.843 561.338ZM414.247 561.506C411.261 561.506 408.685 560.684 406.519 559.042C404.391 557.399 402.749 555.084 401.591 552.098C400.434 549.074 399.855 545.49 399.855 541.346C399.855 537.202 400.434 533.636 401.591 530.65C402.749 527.626 404.391 525.292 406.519 523.65C408.685 522.007 411.261 521.186 414.247 521.186C417.234 521.186 419.81 522.007 421.975 523.65C424.141 525.292 425.802 527.626 426.959 530.65C428.117 533.636 428.695 537.202 428.695 541.346C428.695 545.49 428.117 549.074 426.959 552.098C425.802 555.084 424.141 557.399 421.975 559.042C419.81 560.684 417.234 561.506 414.247 561.506ZM414.247 556.018C416.973 556.018 419.082 554.748 420.575 552.21C422.069 549.634 422.815 546.012 422.815 541.346C422.815 536.679 422.069 533.076 420.575 530.538C419.082 527.962 416.973 526.674 414.247 526.674C411.522 526.674 409.413 527.962 407.919 530.538C406.426 533.076 405.679 536.679 405.679 541.346C405.679 546.012 406.426 549.634 407.919 552.21C409.413 554.748 411.522 556.018 414.247 556.018Z" fill="#080705"/>
<rect x="43.2135" y="192.986" width="4.09191" height="339" fill="#080705"/>
<rect x="406.37" y="62" width="4.09191" height="339" fill="#080705"/>
<path fill-rule="evenodd" clip-rule="evenodd" d="M44.4125 145.058L46.5883 147.041C51.8 151.792 59.9709 151.507 64.8386 146.404L65.0335 146.2C69.9012 141.097 69.6223 133.109 64.4107 128.358L43.3838 109.191L43.3621 109.214L23.4725 129.653C18.5532 134.708 18.8332 142.775 23.996 147.577C29.1588 152.378 37.4144 152.249 42.3336 147.194L44.4125 145.058Z" fill="#080705"/>
<path fill-rule="evenodd" clip-rule="evenodd" d="M407.569 464.888L409.745 462.905C414.957 458.154 423.128 458.439 427.995 463.542L428.19 463.746C433.058 468.849 432.779 476.837 427.567 481.587L406.54 500.755L406.522 500.736L386.629 480.293C381.71 475.238 381.99 467.17 387.153 462.369C392.315 457.567 400.571 457.696 405.49 462.752L407.569 464.888Z" fill="#080705"/>
<rect x="43.2135" y="154.986" width="4.09191" height="11" fill="#080705"/>
<rect x="406.37" y="413" width="4.09191" height="11" fill="#080705"/>
<rect x="43.2135" y="169.986" width="4.09191" height="11" fill="#080705"/>
<rect x="406.37" y="428" width="4.09191" height="11" fill="#080705"/>
<path d="M180.995 142.614C181.739 140.641 183.06 138.926 184.792 137.68C186.525 136.435 188.593 135.714 190.741 135.607C192.889 135.5 195.022 136.012 196.875 137.079C198.728 138.146 200.22 139.721 201.166 141.609C202.242 140.607 203.6 139.943 205.065 139.703C206.531 139.463 208.036 139.658 209.387 140.263C210.732 140.937 211.851 141.974 212.612 143.25C213.373 144.527 213.745 145.99 213.682 147.466C216.765 145.577 221.307 148.239 221.297 151.855H168.232C168.111 151.133 168.194 150.391 168.473 149.711C168.752 149.031 169.216 148.439 169.814 147.998C170.452 147.589 171.195 147.365 171.958 147.355C172.721 147.344 173.471 147.546 174.12 147.938C172.825 144.151 177.973 141.931 180.995 142.614Z" fill="white"/>
<path d="M221.286 152.358H168.231C168.113 152.359 167.998 152.321 167.905 152.25C167.811 152.178 167.746 152.079 167.718 151.966C167.567 151.145 167.653 150.299 167.967 149.524C168.281 148.748 168.81 148.074 169.495 147.576C170.054 147.185 170.702 146.933 171.382 146.844C172.063 146.755 172.756 146.83 173.4 147.064C173.354 146.531 173.422 145.994 173.599 145.487C173.776 144.981 174.058 144.516 174.428 144.121C175.229 143.342 176.199 142.749 177.266 142.388C178.334 142.026 179.471 141.904 180.593 142.031C181.415 140.084 182.781 138.401 184.534 137.175C186.287 135.949 188.358 135.23 190.509 135.099C192.66 134.968 194.806 135.431 196.701 136.435C198.596 137.438 200.165 138.943 201.228 140.776C202.38 139.872 203.767 139.299 205.233 139.122C206.7 138.944 208.188 139.169 209.531 139.771C210.837 140.42 211.948 141.392 212.752 142.59C213.556 143.789 214.025 145.172 214.114 146.602C214.855 146.346 215.644 146.251 216.427 146.324C217.21 146.397 217.967 146.636 218.645 147.024C219.551 147.482 220.314 148.17 220.856 149.014C221.398 149.858 221.699 150.829 221.728 151.825C221.735 151.952 221.693 152.076 221.612 152.175C221.53 152.273 221.414 152.338 221.286 152.358ZM168.684 151.353H220.721C220.6 150.639 220.31 149.962 219.875 149.376C219.44 148.79 218.871 148.312 218.214 147.978C217.572 147.599 216.837 147.398 216.087 147.398C215.337 147.398 214.601 147.599 213.96 147.978C213.878 148.031 213.783 148.06 213.685 148.063C213.588 148.066 213.491 148.042 213.407 147.994C213.322 147.945 213.253 147.875 213.208 147.791C213.162 147.707 213.141 147.611 213.148 147.516C213.211 146.141 212.867 144.776 212.158 143.586C211.45 142.397 210.405 141.431 209.15 140.806C207.9 140.242 206.505 140.059 205.147 140.281C203.788 140.503 202.53 141.12 201.536 142.052C201.475 142.106 201.404 142.146 201.326 142.171C201.248 142.195 201.165 142.202 201.084 142.192C201.001 142.177 200.923 142.144 200.855 142.095C200.788 142.047 200.732 141.984 200.693 141.911C199.788 140.115 198.363 138.619 196.596 137.608C194.829 136.596 192.796 136.114 190.751 136.221C188.706 136.328 186.739 137.019 185.092 138.209C183.445 139.399 182.192 141.036 181.487 142.915C181.441 143.032 181.353 143.128 181.239 143.185C181.126 143.243 180.995 143.257 180.871 143.227C179.865 143.053 178.831 143.117 177.855 143.412C176.88 143.707 175.99 144.226 175.26 144.924C174.877 145.306 174.613 145.787 174.5 146.31C174.387 146.833 174.43 147.377 174.623 147.878C174.657 147.976 174.66 148.081 174.631 148.181C174.603 148.28 174.544 148.369 174.463 148.435C174.382 148.502 174.282 148.542 174.177 148.552C174.071 148.562 173.966 148.541 173.873 148.491C173.315 148.139 172.666 147.952 172.003 147.952C171.339 147.952 170.69 148.139 170.133 148.491C169.691 148.828 169.332 149.257 169.081 149.747C168.83 150.237 168.695 150.775 168.684 151.323V151.353Z" fill="#D1D3D4"/>
<path d="M218.902 219.359C218.594 215.019 215.604 211.092 211.925 210.318C210.951 210.05 209.912 210.125 208.989 210.531C208.066 210.937 207.32 211.648 206.879 212.538C206.098 205.949 199.059 201.569 193.932 204.502C192.627 198.314 187.879 192.96 182.423 192.89C176.966 192.82 171.797 199.128 172.989 205.346C171.016 203.518 167.512 205.798 167.851 208.721C165.395 205.426 161.809 202.965 158.089 203.327C154.369 203.689 150.845 207.626 151.276 211.966C148.111 209.635 143.22 212.368 142.778 216.707C142.095 216.829 141.466 217.153 140.975 217.634C140.485 218.115 140.157 218.731 140.034 219.399L218.902 219.359Z" fill="white"/>
<path d="M218.902 219.862H139.993C139.91 219.861 139.827 219.842 139.752 219.805C139.678 219.769 139.612 219.716 139.562 219.651C139.516 219.585 139.485 219.511 139.47 219.433C139.456 219.355 139.459 219.275 139.48 219.199C139.622 218.497 139.956 217.847 140.446 217.316C140.937 216.785 141.565 216.395 142.264 216.185C142.452 215.063 142.92 214.003 143.626 213.099C144.332 212.195 145.255 211.475 146.313 211.002C146.993 210.686 147.734 210.519 148.486 210.51C149.238 210.501 149.983 210.652 150.67 210.952C150.773 206.582 154.421 203.076 157.987 202.735C161.203 202.413 164.645 204.111 167.399 207.295C167.56 206.687 167.853 206.119 168.257 205.631C168.661 205.142 169.167 204.744 169.742 204.462C170.136 204.259 170.567 204.136 171.011 204.102C171.454 204.067 171.9 204.122 172.322 204.261C172.127 201.216 173.152 198.215 175.178 195.894C176.043 194.81 177.142 193.925 178.395 193.302C179.649 192.679 181.027 192.332 182.433 192.288C187.674 192.368 192.709 197.2 194.302 203.659C195.428 203.177 196.652 202.952 197.88 203.001C199.109 203.049 200.31 203.371 201.392 203.94C202.823 204.658 204.079 205.668 205.075 206.902C206.072 208.136 206.785 209.565 207.167 211.092C207.793 210.479 208.571 210.035 209.424 209.803C210.278 209.571 211.178 209.558 212.038 209.766C215.922 210.58 219.108 214.678 219.437 219.279C219.443 219.35 219.433 219.422 219.409 219.49C219.384 219.557 219.346 219.619 219.295 219.671C219.245 219.723 219.184 219.764 219.116 219.792C219.049 219.82 218.976 219.833 218.902 219.831V219.862ZM140.754 218.857H218.327C217.824 214.929 215.1 211.534 211.812 210.821C210.961 210.582 210.05 210.642 209.24 210.991C208.429 211.339 207.768 211.955 207.373 212.729C207.325 212.834 207.245 212.92 207.143 212.976C207.041 213.033 206.924 213.055 206.808 213.041C206.692 213.024 206.585 212.971 206.504 212.889C206.422 212.808 206.37 212.702 206.356 212.589C206.164 210.972 205.567 209.426 204.619 208.087C203.671 206.749 202.401 205.659 200.92 204.914C199.89 204.36 198.734 204.07 197.559 204.07C196.384 204.07 195.228 204.36 194.199 204.914C194.127 204.959 194.046 204.985 193.961 204.991C193.877 204.997 193.792 204.982 193.715 204.948C193.638 204.914 193.57 204.862 193.518 204.797C193.467 204.731 193.432 204.654 193.418 204.573C192.082 198.254 187.355 193.433 182.423 193.362C181.173 193.403 179.947 193.714 178.835 194.273C177.722 194.833 176.751 195.626 175.99 196.597C174.956 197.768 174.198 199.147 173.77 200.637C173.342 202.126 173.254 203.689 173.514 205.216C173.531 205.322 173.514 205.431 173.466 205.528C173.417 205.625 173.339 205.705 173.242 205.757C173.145 205.809 173.034 205.83 172.925 205.817C172.815 205.805 172.712 205.76 172.63 205.688C172.307 205.401 171.899 205.221 171.464 205.176C171.03 205.131 170.593 205.222 170.215 205.437C169.613 205.727 169.114 206.186 168.781 206.755C168.448 207.324 168.296 207.977 168.345 208.631C168.357 208.744 168.33 208.858 168.268 208.954C168.207 209.05 168.115 209.124 168.006 209.163C167.898 209.208 167.779 209.215 167.667 209.184C167.555 209.153 167.457 209.085 167.389 208.993C164.738 205.437 161.224 203.498 158.141 203.799C155.058 204.101 151.389 207.717 151.811 211.835C151.817 211.936 151.794 212.036 151.745 212.125C151.696 212.214 151.623 212.287 151.533 212.338C151.448 212.394 151.348 212.424 151.246 212.424C151.143 212.424 151.043 212.394 150.958 212.338C150.36 211.915 149.656 211.659 148.92 211.599C148.185 211.539 147.447 211.676 146.786 211.996C145.835 212.418 145.014 213.075 144.405 213.904C143.795 214.732 143.419 215.702 143.312 216.717C143.299 216.836 143.245 216.946 143.159 217.03C143.073 217.114 142.961 217.167 142.84 217.18C142.373 217.245 141.932 217.433 141.565 217.723C141.198 218.013 140.917 218.394 140.754 218.827V218.857Z" fill="#D1D3D4"/>
<path d="M312.444 153.061C312.285 151.526 311.629 150.081 310.572 148.936C309.515 147.791 308.112 147.005 306.566 146.692C304.974 146.411 303.052 146.833 302.323 148.249C301.655 143.608 295.736 140.524 291.43 142.574C290.33 138.214 286.292 134.447 281.74 134.397C277.188 134.347 272.789 138.787 273.796 143.166C272.132 141.881 269.193 143.488 269.439 145.547C267.384 143.227 264.301 141.529 261.219 141.74C258.136 141.951 255.125 144.753 255.485 147.827C254.803 147.466 254.043 147.268 253.268 147.247C252.493 147.227 251.723 147.386 251.023 147.711C250.322 148.036 249.709 148.518 249.235 149.117C248.76 149.717 248.437 150.418 248.292 151.162C247.762 151.224 247.263 151.436 246.857 151.774C246.451 152.112 246.157 152.56 246.01 153.061H312.444Z" fill="white"/>
<path d="M312.445 153.573H246.01C245.926 153.572 245.842 153.552 245.767 153.513C245.692 153.475 245.628 153.42 245.579 153.352C245.53 153.284 245.498 153.206 245.486 153.124C245.473 153.042 245.481 152.959 245.507 152.88C245.671 152.348 245.975 151.867 246.388 151.485C246.8 151.102 247.308 150.832 247.86 150.7C248.05 149.945 248.415 149.243 248.926 148.647C249.437 148.052 250.082 147.579 250.809 147.265C251.441 146.954 252.13 146.769 252.836 146.72C253.541 146.672 254.25 146.762 254.92 146.983C255.013 145.799 255.487 144.673 256.276 143.769C256.876 143.051 257.615 142.456 258.451 142.018C259.287 141.58 260.203 141.308 261.147 141.218C262.618 141.167 264.083 141.424 265.444 141.971C266.805 142.519 268.03 143.344 269.039 144.392C269.353 143.618 269.94 142.979 270.694 142.59C271.447 142.202 272.318 142.089 273.149 142.272C273.069 140.401 273.711 138.569 274.948 137.139C275.757 136.149 276.778 135.343 277.939 134.778C279.099 134.212 280.372 133.901 281.668 133.865H281.75C286.159 133.865 290.372 137.31 291.79 141.901C292.886 141.527 294.051 141.386 295.208 141.484C296.364 141.583 297.486 141.92 298.5 142.473C300.435 143.439 301.91 145.103 302.61 147.114C303.189 146.684 303.856 146.381 304.565 146.225C305.274 146.069 306.009 146.064 306.721 146.21C308.382 146.543 309.89 147.386 311.025 148.617C312.16 149.848 312.863 151.402 313.03 153.051C313.039 153.122 313.032 153.194 313.009 153.261C312.985 153.329 312.947 153.391 312.897 153.443C312.835 153.494 312.763 153.533 312.685 153.555C312.607 153.578 312.525 153.584 312.445 153.573ZM246.874 152.569H311.838C311.585 151.26 310.941 150.054 309.986 149.105C309.03 148.155 307.808 147.504 306.474 147.235C305.138 146.994 303.391 147.295 302.795 148.51C302.76 148.631 302.681 148.735 302.573 148.802C302.465 148.869 302.335 148.895 302.209 148.876C302.082 148.856 301.967 148.791 301.886 148.694C301.805 148.597 301.763 148.475 301.768 148.35C301.545 147.3 301.088 146.312 300.43 145.454C299.773 144.597 298.93 143.891 297.962 143.388C296.994 142.884 295.924 142.596 294.829 142.542C293.734 142.488 292.64 142.67 291.625 143.076C291.555 143.108 291.478 143.125 291.399 143.125C291.321 143.125 291.244 143.108 291.173 143.076C291.102 143.043 291.038 142.996 290.986 142.937C290.935 142.878 290.897 142.809 290.875 142.734C289.776 138.345 285.83 134.99 281.699 134.939H281.627C280.505 134.981 279.406 135.258 278.403 135.75C277.399 136.242 276.516 136.938 275.811 137.792C275.18 138.504 274.721 139.347 274.471 140.257C274.22 141.166 274.182 142.12 274.362 143.046C274.387 143.15 274.377 143.26 274.335 143.359C274.292 143.458 274.219 143.542 274.125 143.598C274.036 143.657 273.93 143.688 273.822 143.688C273.714 143.688 273.609 143.657 273.519 143.598C273.169 143.399 272.773 143.293 272.368 143.289C271.964 143.286 271.565 143.385 271.211 143.578C270.858 143.77 270.562 144.049 270.352 144.388C270.142 144.726 270.026 145.111 270.015 145.507C270.031 145.616 270.009 145.728 269.953 145.824C269.898 145.92 269.811 145.996 269.707 146.039C269.603 146.084 269.488 146.096 269.377 146.072C269.266 146.049 269.166 145.992 269.09 145.909C266.871 143.417 263.952 142.061 261.311 142.282C259.703 142.451 258.227 143.23 257.201 144.452C256.799 144.908 256.494 145.438 256.306 146.011C256.117 146.584 256.047 147.188 256.101 147.787C256.114 147.884 256.099 147.983 256.057 148.071C256.015 148.16 255.949 148.236 255.865 148.289C255.78 148.339 255.682 148.365 255.583 148.365C255.483 148.365 255.385 148.339 255.3 148.289C254.691 147.984 254.017 147.822 253.333 147.815C252.648 147.807 251.972 147.956 251.356 148.248C250.74 148.54 250.202 148.968 249.785 149.498C249.367 150.029 249.081 150.646 248.949 151.303C248.936 151.42 248.881 151.529 248.795 151.611C248.709 151.693 248.597 151.744 248.477 151.755C248.167 151.758 247.862 151.828 247.585 151.962C247.307 152.096 247.064 152.29 246.874 152.528V152.569Z" fill="#D1D3D4"/>
<path d="M338.669 292.508C338.109 291.673 337.394 290.947 336.562 290.368C335.398 289.592 334.051 289.117 332.648 288.985C331.246 288.853 329.831 289.07 328.537 289.615C329.451 287.093 327.694 284.17 325.187 283.105C323.9 282.648 322.53 282.458 321.164 282.548C319.798 282.638 318.466 283.006 317.254 283.628C319.443 279.7 316.226 274.587 311.962 272.94C308.591 271.644 303.196 271.935 301.788 275.803C300.887 273.506 299.22 271.574 297.057 270.318C294.894 269.061 292.361 268.554 289.867 268.878C287.373 269.202 285.063 270.338 283.311 272.103C281.559 273.868 280.466 276.158 280.209 278.605C278.943 277.452 277.407 276.619 275.735 276.181C274.064 275.744 272.308 275.714 270.621 276.094C267.611 276.797 261.003 281.518 263.511 285.396C262.575 283.959 260.181 284.09 258.969 285.305C258.419 285.969 258.021 286.74 257.799 287.566C257.578 288.392 257.539 289.255 257.684 290.097C257.016 288.741 254.827 288.831 253.769 289.926C253.126 290.657 252.713 291.553 252.577 292.508H338.669Z" fill="#231F20"/>
<path d="M338.669 293.01H252.536C252.462 293.008 252.389 292.99 252.321 292.959C252.254 292.928 252.194 292.884 252.145 292.829C252.099 292.772 252.065 292.705 252.046 292.635C252.026 292.564 252.022 292.49 252.032 292.417C252.17 291.364 252.633 290.376 253.358 289.585C253.729 289.202 254.189 288.912 254.698 288.737C255.207 288.562 255.752 288.508 256.286 288.58C256.565 288.618 256.836 288.699 257.088 288.821C257.062 287.382 257.586 285.985 258.557 284.904C258.967 284.507 259.461 284.203 260.005 284.016C260.549 283.828 261.128 283.761 261.702 283.819C261.949 283.847 262.194 283.897 262.432 283.969C262.35 283.22 262.467 282.462 262.771 281.77C263.993 278.756 268.145 276.094 270.457 275.552C272.067 275.19 273.74 275.182 275.354 275.53C276.967 275.877 278.482 276.571 279.788 277.561C280.226 275.19 281.418 273.015 283.195 271.346C284.972 269.677 287.242 268.598 289.683 268.264C292.123 267.93 294.609 268.358 296.787 269.486C298.964 270.614 300.722 272.385 301.809 274.547C302.423 273.599 303.314 272.853 304.368 272.407C305.655 271.911 307.03 271.67 308.413 271.699C309.796 271.728 311.159 272.026 312.423 272.576C313.687 273.126 314.826 273.917 315.774 274.902C316.721 275.887 317.458 277.047 317.942 278.314C318.512 279.713 318.587 281.258 318.158 282.704C320.462 281.794 323.032 281.773 325.351 282.643C326.567 283.157 327.591 284.025 328.283 285.129C328.975 286.233 329.3 287.519 329.215 288.811C330.488 288.436 331.831 288.344 333.145 288.542C334.459 288.741 335.711 289.224 336.809 289.956C337.698 290.568 338.462 291.338 339.059 292.227C339.112 292.303 339.142 292.391 339.147 292.483C339.152 292.574 339.131 292.665 339.086 292.746C339.042 292.827 338.975 292.894 338.895 292.941C338.814 292.987 338.722 293.011 338.628 293.01H338.669ZM253.183 292.006H337.641C337.239 291.54 336.776 291.129 336.264 290.78C335.173 290.053 333.911 289.607 332.597 289.482C331.282 289.357 329.956 289.558 328.742 290.067C328.651 290.107 328.55 290.121 328.451 290.104C328.352 290.088 328.26 290.044 328.187 289.976C328.113 289.911 328.06 289.826 328.034 289.731C328.009 289.637 328.012 289.537 328.044 289.444C328.896 287.114 327.119 284.472 324.961 283.568C323.741 283.135 322.442 282.958 321.148 283.048C319.854 283.138 318.594 283.493 317.449 284.09C317.351 284.134 317.242 284.147 317.136 284.127C317.031 284.107 316.934 284.055 316.86 283.978C316.786 283.902 316.739 283.804 316.725 283.7C316.711 283.596 316.73 283.49 316.781 283.397C317.162 282.668 317.378 281.867 317.415 281.049C317.452 280.231 317.31 279.415 316.997 278.656C316.533 277.478 315.828 276.406 314.925 275.504C314.022 274.603 312.94 273.891 311.746 273.412C309.502 272.556 307.012 272.556 304.768 273.412C304.187 273.649 303.663 274.002 303.23 274.448C302.796 274.894 302.463 275.424 302.251 276.004C302.215 276.101 302.149 276.185 302.063 276.244C301.976 276.303 301.874 276.335 301.768 276.335C301.663 276.337 301.56 276.307 301.474 276.25C301.387 276.192 301.321 276.11 301.285 276.014C300.43 273.82 298.844 271.972 296.783 270.767C294.722 269.562 292.306 269.071 289.924 269.373C287.543 269.674 285.335 270.751 283.656 272.43C281.977 274.109 280.926 276.291 280.671 278.625C280.666 278.72 280.632 278.811 280.573 278.886C280.515 278.961 280.434 279.017 280.343 279.047C280.253 279.081 280.155 279.09 280.061 279.072C279.966 279.054 279.879 279.011 279.808 278.947C278.596 277.859 277.129 277.078 275.537 276.672C273.944 276.265 272.274 276.246 270.673 276.616C268.618 277.109 264.795 279.63 263.695 282.232C263.469 282.696 263.368 283.21 263.402 283.723C263.437 284.237 263.605 284.733 263.891 285.165C263.96 285.279 263.982 285.415 263.952 285.544C263.921 285.673 263.84 285.786 263.726 285.858C263.669 285.894 263.606 285.919 263.539 285.931C263.472 285.942 263.403 285.941 263.337 285.926C263.27 285.911 263.208 285.883 263.153 285.843C263.098 285.804 263.052 285.754 263.017 285.697C262.854 285.468 262.64 285.277 262.391 285.14C262.142 285.002 261.864 284.922 261.579 284.904C261.159 284.866 260.736 284.918 260.339 285.055C259.942 285.192 259.58 285.411 259.277 285.697C258.782 286.31 258.425 287.017 258.229 287.774C258.032 288.53 258.001 289.318 258.136 290.087C258.147 290.205 258.116 290.322 258.047 290.419C257.978 290.517 257.877 290.587 257.76 290.618C257.644 290.649 257.52 290.639 257.41 290.59C257.3 290.541 257.212 290.455 257.16 290.348C257.059 290.161 256.912 290.001 256.733 289.882C256.554 289.763 256.348 289.688 256.132 289.665C255.762 289.607 255.383 289.636 255.026 289.747C254.67 289.859 254.344 290.051 254.077 290.308C253.646 290.794 253.345 291.377 253.204 292.006H253.183Z" fill="#231F20"/>
<path d="M217.988 292.508C216.827 290.506 214.985 288.966 212.783 288.155C210.581 287.343 208.157 287.313 205.934 288.068C205.359 284.632 201.824 282.272 198.268 281.84C194.713 281.408 191.198 282.432 187.787 283.467C188.629 279.449 186.184 275.3 182.721 273.01C179.258 270.72 174.962 269.997 170.79 269.685C169.506 269.595 161.542 272.206 164.09 274.386C163.009 273.452 161.674 272.847 160.246 272.643C158.819 272.44 157.361 272.648 156.053 273.242C154.744 273.835 153.641 274.789 152.879 275.986C152.116 277.183 151.727 278.572 151.759 279.981C150.826 279.357 149.749 278.968 148.624 278.851C147.5 278.733 146.363 278.891 145.316 279.308C142.408 280.504 142.172 283.226 140.178 285.185C140.178 283.347 138.123 282.533 136.479 282.523C134.59 282.529 132.723 282.906 130.986 283.631C129.249 284.355 127.678 285.413 126.367 286.742C124.661 284.381 120.623 284.974 118.671 287.144C117.416 288.695 116.61 290.548 116.338 292.508H217.988Z" fill="#231F20"/>
<path d="M217.988 293.01H116.359C116.284 293.01 116.21 292.994 116.142 292.963C116.075 292.932 116.015 292.886 115.968 292.829C115.918 292.774 115.881 292.708 115.861 292.637C115.842 292.565 115.84 292.49 115.855 292.418C116.126 290.365 116.973 288.425 118.301 286.812C118.948 286.116 119.743 285.568 120.631 285.207C121.519 284.846 122.478 284.681 123.439 284.723C124.573 284.759 125.651 285.211 126.46 285.989C129.162 283.451 132.752 282.014 136.499 281.971C137.294 281.917 138.088 282.083 138.791 282.448C139.494 282.814 140.078 283.366 140.476 284.04C140.849 283.527 141.192 282.993 141.504 282.443C142.227 280.845 143.51 279.552 145.121 278.796C146.108 278.406 147.17 278.229 148.234 278.275C149.298 278.322 150.339 278.592 151.287 279.068C151.399 277.769 151.845 276.52 152.584 275.435C153.323 274.351 154.33 273.466 155.513 272.865C156.695 272.263 158.014 271.964 159.347 271.995C160.68 272.025 161.983 272.385 163.135 273.04C163.161 272.955 163.191 272.871 163.227 272.789C164.132 270.69 169.794 269.032 170.831 269.103C174.479 269.364 179.176 269.977 183.008 272.518C186.091 274.577 188.897 278.445 188.424 282.664C191.507 281.75 194.918 280.835 198.33 281.257C201.742 281.679 205.39 283.879 206.314 287.284C208.6 286.658 211.035 286.798 213.23 287.681C215.426 288.563 217.256 290.139 218.43 292.156C218.473 292.232 218.496 292.316 218.496 292.402C218.496 292.489 218.473 292.573 218.43 292.649C218.399 292.744 218.341 292.829 218.263 292.893C218.185 292.957 218.089 292.998 217.988 293.01ZM116.985 292.006H217.084C215.894 290.342 214.182 289.104 212.206 288.478C210.231 287.853 208.101 287.874 206.14 288.54C206.07 288.57 205.995 288.585 205.919 288.585C205.843 288.585 205.768 288.57 205.698 288.54C205.632 288.5 205.575 288.448 205.531 288.385C205.487 288.323 205.456 288.253 205.441 288.179C204.886 284.884 201.331 282.754 198.248 282.362C194.764 281.92 191.168 283.015 187.972 283.97C187.888 283.997 187.798 284.002 187.711 283.984C187.625 283.966 187.544 283.927 187.479 283.869C187.411 283.81 187.36 283.734 187.331 283.649C187.302 283.565 187.296 283.474 187.314 283.387C188.054 279.911 186.05 275.833 182.464 273.462C178.878 271.092 174.315 270.449 170.79 270.218C169.866 270.157 164.841 271.795 164.203 273.292C164.111 273.492 164.09 273.713 164.471 274.045C164.573 274.134 164.635 274.259 164.642 274.393C164.65 274.527 164.603 274.658 164.512 274.758C164.42 274.858 164.292 274.918 164.155 274.926C164.019 274.934 163.884 274.888 163.782 274.798C162.778 273.924 161.534 273.356 160.204 273.164C158.874 272.972 157.516 273.165 156.296 273.718C155.076 274.27 154.049 275.16 153.339 276.276C152.63 277.393 152.27 278.688 152.304 280.002C152.308 280.094 152.286 280.186 152.238 280.266C152.191 280.346 152.121 280.411 152.037 280.454C151.957 280.503 151.864 280.529 151.77 280.529C151.675 280.529 151.582 280.503 151.502 280.454C150.638 279.878 149.642 279.52 148.602 279.412C147.562 279.303 146.511 279.447 145.542 279.831C144.155 280.514 143.063 281.657 142.46 283.055C141.962 283.98 141.344 284.838 140.62 285.607C140.548 285.675 140.458 285.722 140.359 285.742C140.261 285.761 140.159 285.753 140.065 285.717C139.971 285.68 139.891 285.616 139.834 285.534C139.778 285.451 139.747 285.355 139.747 285.255C139.747 283.668 137.835 283.096 136.561 283.086C134.751 283.094 132.961 283.453 131.294 284.143C129.627 284.833 128.116 285.839 126.85 287.104C126.799 287.157 126.737 287.198 126.668 287.224C126.598 287.25 126.524 287.26 126.45 287.254C126.373 287.251 126.299 287.231 126.232 287.196C126.164 287.161 126.105 287.113 126.059 287.053C125.756 286.652 125.361 286.325 124.907 286.098C124.452 285.872 123.949 285.751 123.439 285.748C122.64 285.717 121.845 285.857 121.108 286.159C120.371 286.461 119.711 286.917 119.174 287.495C118.049 288.783 117.293 290.339 116.985 292.006Z" fill="#231F20"/>
<path d="M230.781 90.1582C230.658 90.1555 230.54 90.1057 230.454 90.0193C230.367 89.9329 230.319 89.8169 230.319 89.6961V67.8579C230.309 67.7922 230.313 67.7252 230.332 67.6614C230.351 67.5976 230.384 67.5385 230.428 67.4882C230.473 67.4379 230.528 67.3975 230.59 67.3699C230.651 67.3422 230.718 67.3279 230.786 67.3279C230.854 67.3279 230.922 67.3422 230.983 67.3699C231.045 67.3975 231.1 67.4379 231.144 67.4882C231.189 67.5385 231.222 67.5976 231.24 67.6614C231.259 67.7252 231.264 67.7922 231.254 67.8579V89.6961C231.254 89.8186 231.204 89.9362 231.116 90.0228C231.027 90.1095 230.907 90.1582 230.781 90.1582Z" fill="#231F20"/>
<path d="M221.286 208.51H240.965V219.068H221.286V208.51Z" fill="#231F20"/>
<path d="M240.965 219.57H221.286C221.15 219.57 221.019 219.517 220.923 219.423C220.827 219.328 220.773 219.201 220.773 219.068V208.51C220.773 208.377 220.827 208.249 220.923 208.155C221.019 208.061 221.15 208.008 221.286 208.008H240.965C241.101 208.008 241.232 208.061 241.328 208.155C241.424 208.249 241.479 208.377 241.479 208.51V219.068C241.479 219.201 241.424 219.328 241.328 219.423C241.232 219.517 241.101 219.57 240.965 219.57ZM221.8 218.565H240.451V209.012H221.8V218.565Z" fill="#231F20"/>
<path d="M249.864 229.625C235.981 192.669 235.981 109.746 235.981 109.746H226.28C226.28 109.746 226.28 192.669 212.387 229.625C203.908 251.749 192.858 272.849 179.453 292.508H196.11L196.357 292.146C197.771 284.133 202.036 276.866 208.399 271.627C214.761 266.389 222.812 263.516 231.131 263.516C239.449 263.516 247.5 266.389 253.863 271.627C260.225 276.866 264.49 284.133 265.905 292.146L266.141 292.488H282.798C269.395 272.835 258.344 251.742 249.864 229.625ZM218.162 251.212C223.783 231.694 231.264 197.671 230.966 180.414H231.275C230.987 197.671 238.468 231.694 244.099 251.212H218.162Z" fill="#700548"/>
<path d="M282.798 292.97H266.141C266.064 292.968 265.989 292.949 265.921 292.914C265.854 292.879 265.795 292.83 265.75 292.769L265.514 292.427C265.475 292.374 265.451 292.312 265.442 292.246C264.051 284.336 259.844 277.162 253.566 271.989C247.288 266.817 239.341 263.981 231.131 263.981C222.92 263.981 214.974 266.817 208.695 271.989C202.417 277.162 198.211 284.336 196.819 292.246C196.803 292.311 196.775 292.372 196.737 292.427L196.49 292.789C196.449 292.85 196.392 292.9 196.326 292.935C196.26 292.97 196.186 292.989 196.11 292.99H179.453C179.366 292.989 179.281 292.965 179.207 292.921C179.133 292.877 179.072 292.814 179.032 292.739C178.986 292.668 178.962 292.586 178.962 292.503C178.962 292.419 178.986 292.337 179.032 292.267C192.411 272.636 203.444 251.571 211.915 229.484C225.613 193.03 225.777 110.59 225.777 109.766C225.777 109.705 225.789 109.645 225.813 109.589C225.837 109.533 225.871 109.482 225.915 109.439C225.959 109.396 226.011 109.362 226.069 109.339C226.126 109.316 226.188 109.304 226.25 109.304H235.95C236.074 109.307 236.191 109.356 236.278 109.443C236.364 109.529 236.413 109.645 236.413 109.766C236.413 110.59 236.577 193.03 250.265 229.484C258.735 251.571 269.768 272.636 283.148 292.267C283.193 292.337 283.217 292.419 283.217 292.503C283.217 292.586 283.193 292.668 283.148 292.739C283.111 292.8 283.061 292.853 283 292.893C282.94 292.933 282.871 292.96 282.798 292.97ZM266.357 292.046H281.884C268.687 272.548 257.787 251.656 249.391 229.766C236.166 194.607 235.508 116.898 235.477 110.228H226.712C226.712 116.938 226.024 194.607 212.788 229.766C204.396 251.658 193.496 272.551 180.296 292.046H195.822L195.874 291.975C197.329 283.877 201.658 276.54 208.1 271.253C214.542 265.965 222.684 263.067 231.095 263.067C239.506 263.067 247.648 265.965 254.089 271.253C260.531 276.54 264.86 283.877 266.316 291.975L266.357 292.046ZM244.068 251.674H218.162C218.089 251.674 218.017 251.658 217.951 251.626C217.885 251.595 217.827 251.55 217.782 251.493C217.741 251.435 217.713 251.37 217.701 251.3C217.688 251.231 217.692 251.159 217.71 251.091C222.848 233.352 230.812 198.475 230.494 180.424C230.494 180.301 230.542 180.183 230.627 180.092C230.717 180.003 230.839 179.953 230.966 179.952H231.275C231.338 179.951 231.401 179.963 231.459 179.987C231.517 180.012 231.57 180.047 231.614 180.092C231.699 180.183 231.747 180.301 231.747 180.424C231.449 198.505 239.434 233.352 244.551 251.091C244.568 251.16 244.569 251.232 244.555 251.301C244.541 251.37 244.511 251.436 244.469 251.493C244.425 251.548 244.369 251.593 244.305 251.624C244.241 251.656 244.17 251.673 244.099 251.674H244.068ZM218.748 250.75H243.41C238.992 235.29 232.569 207.556 231.079 188.731C229.62 207.596 223.198 235.28 218.779 250.75H218.748Z" fill="#231F20"/>
<path d="M259.749 247.355H202.502C201.373 247.355 200.457 248.25 200.457 249.354V250.64C200.457 251.744 201.373 252.639 202.502 252.639H259.749C260.879 252.639 261.794 251.744 261.794 250.64V249.354C261.794 248.25 260.879 247.355 259.749 247.355Z" fill="white"/>
<path d="M259.75 253.131H202.492C201.816 253.131 201.168 252.868 200.69 252.401C200.212 251.934 199.943 251.3 199.943 250.64V249.344C199.943 248.683 200.212 248.049 200.69 247.582C201.168 247.115 201.816 246.853 202.492 246.853H259.75C260.426 246.853 261.076 247.115 261.555 247.582C262.035 248.048 262.306 248.682 262.308 249.344V250.64C262.306 251.301 262.035 251.935 261.555 252.402C261.076 252.869 260.426 253.131 259.75 253.131ZM202.492 247.857C202.089 247.857 201.702 248.014 201.416 248.292C201.131 248.571 200.971 248.949 200.971 249.344V250.64C200.971 251.034 201.131 251.412 201.416 251.691C201.702 251.97 202.089 252.126 202.492 252.126H259.75C260.154 252.126 260.542 251.97 260.829 251.691C261.115 251.413 261.278 251.035 261.281 250.64V249.344C261.278 248.949 261.115 248.57 260.829 248.292C260.542 248.013 260.154 247.857 259.75 247.857H202.492Z" fill="#231F20"/>
<path d="M246.123 203.226H216.138C214.918 203.226 213.929 204.193 213.929 205.386V206.35C213.929 207.543 214.918 208.51 216.138 208.51H246.123C247.344 208.51 248.333 207.543 248.333 206.35V205.386C248.333 204.193 247.344 203.226 246.123 203.226Z" fill="white"/>
<path d="M246.113 209.012H216.128C215.407 209.01 214.717 208.728 214.209 208.229C213.701 207.73 213.415 207.055 213.415 206.35V205.346C213.415 204.642 213.701 203.966 214.209 203.467C214.717 202.968 215.407 202.686 216.128 202.684H246.113C246.471 202.684 246.825 202.753 247.155 202.886C247.486 203.02 247.786 203.216 248.039 203.464C248.292 203.711 248.492 204.004 248.629 204.327C248.766 204.65 248.836 204.996 248.836 205.346V206.35C248.836 206.7 248.766 207.046 248.629 207.369C248.492 207.692 248.292 207.985 248.039 208.233C247.786 208.48 247.486 208.676 247.155 208.81C246.825 208.943 246.471 209.012 246.113 209.012ZM216.128 203.729C215.906 203.729 215.686 203.771 215.481 203.855C215.275 203.938 215.089 204.061 214.933 204.215C214.776 204.369 214.652 204.551 214.568 204.752C214.484 204.954 214.441 205.169 214.443 205.386V206.391C214.441 206.608 214.484 206.823 214.568 207.024C214.652 207.225 214.776 207.408 214.933 207.562C215.089 207.716 215.275 207.838 215.481 207.922C215.686 208.005 215.906 208.048 216.128 208.048H246.113C246.563 208.048 246.994 207.873 247.312 207.563C247.63 207.252 247.809 206.83 247.809 206.391V205.386C247.809 204.946 247.63 204.525 247.312 204.214C246.994 203.903 246.563 203.729 246.113 203.729H216.128Z" fill="#231F20"/>
<path d="M222.725 99.6208H239.516V104.844C239.516 106.142 238.989 107.386 238.05 108.303C237.112 109.221 235.839 109.736 234.512 109.736H227.74C227.082 109.738 226.43 109.612 225.822 109.367C225.213 109.122 224.66 108.761 224.194 108.307C223.729 107.853 223.359 107.313 223.107 106.719C222.855 106.125 222.725 105.488 222.725 104.844V99.6208Z" fill="#700548"/>
<path d="M234.512 110.208H227.74C226.286 110.206 224.893 109.639 223.866 108.634C222.839 107.628 222.263 106.265 222.263 104.844V99.6107C222.263 99.4908 222.311 99.3759 222.398 99.2911C222.485 99.2063 222.602 99.1587 222.725 99.1587H239.526C239.649 99.1587 239.767 99.2063 239.853 99.2911C239.94 99.3759 239.989 99.4908 239.989 99.6107V104.844C239.989 106.265 239.412 107.628 238.385 108.634C237.358 109.639 235.965 110.206 234.512 110.208ZM223.208 100.073V104.844C223.208 106.022 223.687 107.151 224.538 107.984C225.39 108.816 226.545 109.284 227.75 109.284H234.522C235.725 109.282 236.877 108.813 237.727 107.98C238.577 107.148 239.054 106.02 239.054 104.844V100.073H223.208Z" fill="#231F20"/>
<path d="M227.873 92.3982H233.556C234.012 92.3995 234.464 92.4886 234.884 92.6605C235.305 92.8323 235.687 93.0835 236.009 93.3997C236.331 93.716 236.585 94.091 236.759 94.5034C236.932 94.9159 237.02 95.3576 237.019 95.8035V99.6207H224.431V95.8035C224.431 94.903 224.797 94.0394 225.448 93.4027C226.1 92.766 226.983 92.4082 227.904 92.4082L227.873 92.3982Z" fill="#700548"/>
<path d="M237.019 100.073H224.431C224.306 100.073 224.186 100.024 224.097 99.9372C224.008 99.8506 223.958 99.7331 223.958 99.6105V95.8034C223.958 94.7804 224.374 93.7992 225.114 93.0758C225.854 92.3524 226.858 91.946 227.904 91.946H233.587C234.626 91.9566 235.62 92.3677 236.351 93.0899C237.082 93.8122 237.492 94.7873 237.492 95.8034V99.6206C237.492 99.6808 237.48 99.7404 237.456 99.7959C237.432 99.8514 237.397 99.9017 237.353 99.9438C237.309 99.9859 237.257 100.019 237.199 100.041C237.142 100.063 237.081 100.074 237.019 100.073ZM224.863 99.1585H236.557V95.8034C236.557 95.0255 236.241 94.2794 235.678 93.7293C235.115 93.1792 234.352 92.8702 233.556 92.8702H227.874C227.077 92.8702 226.313 93.1789 225.748 93.7287C225.184 94.2785 224.865 95.0245 224.863 95.8034V99.1585Z" fill="#231F20"/>
<path d="M228.017 86.9939H233.546V92.3982H228.017V86.9939Z" fill="#700548"/>
<path d="M233.556 92.8604H228.017C227.894 92.8578 227.776 92.808 227.689 92.7216C227.603 92.6352 227.555 92.5192 227.555 92.3984V86.9941C227.555 86.8732 227.603 86.7572 227.689 86.6708C227.776 86.5844 227.894 86.5346 228.017 86.532H233.556C233.679 86.5346 233.797 86.5844 233.883 86.6708C233.97 86.7572 234.018 86.8732 234.018 86.9941V92.3984C234.018 92.5192 233.97 92.6352 233.883 92.7216C233.797 92.808 233.679 92.8578 233.556 92.8604ZM228.541 91.9363H233.135V87.4561H228.541V91.9363Z" fill="#231F20"/>
<path d="M146.981 281.096C154.33 281.096 160.288 274.134 160.288 265.546C160.288 256.959 154.33 249.997 146.981 249.997C139.631 249.997 133.673 256.959 133.673 265.546C133.673 274.134 139.631 281.096 146.981 281.096Z" fill="#700548"/>
<path d="M146.981 281.559C139.387 281.559 133.201 274.376 133.201 265.547C133.201 256.717 139.366 249.535 146.981 249.535C154.595 249.535 160.72 256.717 160.72 265.567C160.72 274.417 154.554 281.559 146.981 281.559ZM146.981 250.419C139.901 250.419 134.146 257.189 134.146 265.486C134.146 273.784 139.901 280.554 146.981 280.554C154.061 280.554 159.826 273.784 159.826 265.486C159.826 257.189 154.061 250.499 146.981 250.499V250.419Z" fill="#231F20"/>
<path d="M146.981 293.01C146.845 293.01 146.714 292.957 146.617 292.863C146.521 292.769 146.467 292.641 146.467 292.508V258.264C146.467 258.131 146.521 258.003 146.617 257.909C146.714 257.815 146.845 257.762 146.981 257.762C147.117 257.762 147.248 257.815 147.344 257.909C147.44 258.003 147.495 258.131 147.495 258.264V292.508C147.495 292.641 147.44 292.769 147.344 292.863C147.248 292.957 147.117 293.01 146.981 293.01Z" fill="white"/>
<path d="M146.981 274.035C146.842 274.035 146.709 273.98 146.611 273.884L140.25 267.375C140.202 267.329 140.164 267.274 140.138 267.214C140.112 267.154 140.099 267.089 140.099 267.023C140.099 266.958 140.112 266.893 140.138 266.833C140.164 266.772 140.202 266.718 140.25 266.672C140.298 266.625 140.355 266.587 140.417 266.562C140.48 266.536 140.547 266.523 140.615 266.523C140.683 266.523 140.75 266.536 140.812 266.562C140.875 266.587 140.932 266.625 140.98 266.672L147.341 273.181C147.39 273.226 147.429 273.281 147.456 273.341C147.482 273.402 147.496 273.467 147.496 273.533C147.496 273.598 147.482 273.664 147.456 273.724C147.429 273.785 147.39 273.839 147.341 273.884C147.295 273.932 147.239 273.971 147.177 273.997C147.115 274.023 147.048 274.036 146.981 274.035Z" fill="white"/>
<path d="M146.981 269.223C146.891 269.222 146.804 269.198 146.726 269.154C146.649 269.11 146.584 269.047 146.539 268.972C146.471 268.857 146.453 268.721 146.488 268.593C146.522 268.465 146.607 268.356 146.724 268.289L154.246 263.939C154.363 263.874 154.501 263.857 154.632 263.89C154.762 263.924 154.873 264.006 154.942 264.12C155.011 264.233 155.031 264.368 154.999 264.496C154.967 264.624 154.885 264.734 154.77 264.803L147.248 269.153C147.168 269.201 147.075 269.225 146.981 269.223Z" fill="white"/>
<path d="M298.788 281.096C306.137 281.096 312.095 274.134 312.095 265.546C312.095 256.959 306.137 249.997 298.788 249.997C291.439 249.997 285.481 256.959 285.481 265.546C285.481 274.134 291.439 281.096 298.788 281.096Z" fill="#700548"/>
<path d="M298.788 281.559C291.225 281.559 285.059 274.376 285.059 265.567C285.059 256.757 291.225 249.495 298.788 249.495C306.351 249.495 312.568 256.677 312.568 265.507C312.568 274.336 306.382 281.559 298.788 281.559ZM298.788 250.419C291.708 250.419 285.943 257.189 285.943 265.487C285.943 273.784 291.708 280.554 298.788 280.554C305.868 280.554 311.622 273.784 311.622 265.487C311.622 257.189 305.868 250.499 298.788 250.499V250.419Z" fill="#231F20"/>
<path d="M298.788 293.01C298.651 293.01 298.521 292.957 298.424 292.863C298.328 292.769 298.274 292.641 298.274 292.508V258.264C298.274 258.131 298.328 258.003 298.424 257.909C298.521 257.815 298.651 257.762 298.788 257.762C298.924 257.762 299.055 257.815 299.151 257.909C299.247 258.003 299.301 258.131 299.301 258.264V292.508C299.301 292.641 299.247 292.769 299.151 292.863C299.055 292.957 298.924 293.01 298.788 293.01Z" fill="white"/>
<path d="M298.788 274.035C298.649 274.035 298.516 273.98 298.418 273.884L292.047 267.375C291.999 267.329 291.961 267.274 291.935 267.214C291.909 267.154 291.896 267.089 291.896 267.023C291.896 266.958 291.909 266.893 291.935 266.833C291.961 266.772 291.999 266.718 292.047 266.672C292.095 266.625 292.151 266.587 292.214 266.562C292.277 266.536 292.344 266.523 292.412 266.523C292.479 266.523 292.547 266.536 292.609 266.562C292.672 266.587 292.729 266.625 292.776 266.672L299.137 273.181C299.185 273.227 299.223 273.282 299.249 273.342C299.275 273.402 299.288 273.467 299.288 273.533C299.288 273.598 299.275 273.663 299.249 273.723C299.223 273.784 299.185 273.838 299.137 273.884C299.093 273.932 299.039 273.97 298.979 273.996C298.919 274.022 298.854 274.036 298.788 274.035Z" fill="white"/>
<path d="M298.788 269.223C298.698 269.223 298.61 269.199 298.533 269.155C298.455 269.111 298.391 269.048 298.346 268.972C298.278 268.859 298.258 268.723 298.29 268.596C298.323 268.468 298.406 268.358 298.521 268.289L306.043 263.939C306.16 263.872 306.3 263.852 306.432 263.884C306.565 263.916 306.679 263.997 306.752 264.11C306.819 264.226 306.838 264.364 306.804 264.494C306.769 264.623 306.684 264.734 306.567 264.803L299.045 269.153C298.968 269.201 298.879 269.225 298.788 269.223Z" fill="white"/>
<path d="M324.364 283.577C329.415 283.577 333.51 278.127 333.51 271.403C333.51 264.679 329.415 259.228 324.364 259.228C319.313 259.228 315.219 264.679 315.219 271.403C315.219 278.127 319.313 283.577 324.364 283.577Z" fill="#700548"/>
<path d="M324.365 284.04C319.062 284.04 314.757 278.374 314.757 271.403C314.757 264.432 319.062 258.776 324.365 258.776C329.667 258.776 333.983 264.442 333.983 271.403C333.983 278.364 329.667 284.04 324.365 284.04ZM324.365 259.69C319.586 259.69 315.692 264.944 315.692 271.403C315.692 277.862 319.586 283.116 324.365 283.116C329.143 283.116 333.038 277.862 333.038 271.403C333.038 264.944 329.153 259.69 324.365 259.69Z" fill="#231F20"/>
<path d="M324.365 293.01C324.228 293.01 324.098 292.957 324.001 292.863C323.905 292.769 323.851 292.641 323.851 292.508V265.707C323.851 265.574 323.905 265.446 324.001 265.352C324.098 265.258 324.228 265.205 324.365 265.205C324.501 265.205 324.632 265.258 324.728 265.352C324.824 265.446 324.878 265.574 324.878 265.707V292.508C324.878 292.641 324.824 292.769 324.728 292.863C324.632 292.957 324.501 293.01 324.365 293.01Z" fill="white"/>
<path d="M324.364 278.163C324.29 278.163 324.216 278.147 324.148 278.116C324.081 278.085 324.021 278.039 323.974 277.983L319.596 272.89C319.552 272.84 319.519 272.782 319.498 272.719C319.477 272.657 319.469 272.591 319.475 272.525C319.481 272.46 319.5 272.396 319.531 272.338C319.563 272.28 319.606 272.228 319.658 272.186C319.764 272.101 319.899 272.06 320.035 272.071C320.172 272.083 320.298 272.146 320.388 272.247L324.755 277.34C324.799 277.389 324.832 277.447 324.853 277.51C324.874 277.572 324.882 277.638 324.876 277.704C324.87 277.77 324.851 277.833 324.82 277.891C324.788 277.95 324.745 278.001 324.693 278.043C324.603 278.122 324.486 278.165 324.364 278.163Z" fill="white"/>
<path d="M324.364 274.397C324.281 274.397 324.199 274.377 324.125 274.338C324.052 274.3 323.989 274.244 323.943 274.176C323.904 274.121 323.877 274.06 323.862 273.995C323.848 273.929 323.847 273.862 323.859 273.797C323.872 273.731 323.898 273.669 323.935 273.613C323.972 273.558 324.02 273.51 324.077 273.473L329.215 270.067C329.33 269.994 329.469 269.968 329.604 269.994C329.738 270.02 329.857 270.097 329.934 270.208C330.008 270.319 330.035 270.454 330.008 270.583C329.981 270.713 329.903 270.827 329.79 270.901L324.652 274.306C324.569 274.366 324.468 274.397 324.364 274.397Z" fill="white"/>
<path d="M181.724 443.714C182.468 445.686 183.789 447.402 185.521 448.647C187.254 449.893 189.323 450.614 191.47 450.721C193.618 450.828 195.751 450.316 197.604 449.249C199.458 448.182 200.95 446.607 201.895 444.719C202.971 445.721 204.329 446.385 205.794 446.625C207.26 446.865 208.765 446.67 210.116 446.065C211.461 445.39 212.58 444.354 213.341 443.078C214.103 441.801 214.474 440.338 214.411 438.862C217.494 440.751 222.036 438.089 222.026 434.472H168.961C168.84 435.195 168.923 435.937 169.202 436.617C169.481 437.297 169.945 437.889 170.543 438.33C171.181 438.739 171.925 438.963 172.687 438.973C173.45 438.984 174.2 438.782 174.849 438.39C173.554 442.177 178.702 444.397 181.724 443.714Z" fill="white"/>
<path d="M222.016 433.97H168.961C168.843 433.969 168.727 434.007 168.634 434.078C168.541 434.149 168.475 434.249 168.447 434.362C168.296 435.182 168.382 436.028 168.696 436.804C169.01 437.579 169.54 438.254 170.225 438.751C170.783 439.143 171.431 439.394 172.112 439.484C172.793 439.573 173.486 439.497 174.13 439.264C174.084 439.797 174.152 440.334 174.328 440.84C174.505 441.347 174.787 441.812 175.157 442.207C175.958 442.986 176.928 443.578 177.996 443.94C179.063 444.302 180.201 444.424 181.323 444.296C182.145 446.244 183.51 447.927 185.263 449.153C187.017 450.378 189.087 451.098 191.238 451.229C193.39 451.36 195.535 450.897 197.431 449.893C199.326 448.889 200.894 447.385 201.957 445.552C203.109 446.456 204.496 447.028 205.963 447.206C207.429 447.383 208.917 447.158 210.26 446.556C211.567 445.907 212.677 444.935 213.481 443.737C214.285 442.539 214.755 441.156 214.843 439.726C215.584 439.982 216.374 440.077 217.157 440.004C217.939 439.931 218.696 439.692 219.375 439.304C220.28 438.845 221.044 438.158 221.586 437.314C222.128 436.469 222.429 435.499 222.458 434.502C222.464 434.376 222.423 434.251 222.341 434.153C222.26 434.055 222.144 433.989 222.016 433.97ZM169.413 434.974H221.45C221.329 435.689 221.04 436.365 220.605 436.951C220.169 437.537 219.601 438.016 218.943 438.349C218.301 438.729 217.566 438.929 216.816 438.929C216.066 438.929 215.331 438.729 214.689 438.349C214.607 438.297 214.512 438.267 214.415 438.265C214.317 438.262 214.221 438.286 214.136 438.334C214.052 438.382 213.983 438.452 213.937 438.537C213.891 438.621 213.87 438.716 213.877 438.812C213.94 440.187 213.597 441.551 212.888 442.741C212.179 443.931 211.135 444.896 209.88 445.522C208.629 446.086 207.234 446.269 205.876 446.047C204.518 445.824 203.26 445.207 202.265 444.276C202.205 444.222 202.133 444.181 202.055 444.157C201.977 444.133 201.894 444.125 201.813 444.135C201.73 444.15 201.652 444.183 201.585 444.232C201.517 444.281 201.462 444.344 201.423 444.417C200.517 446.212 199.092 447.709 197.325 448.72C195.558 449.732 193.526 450.214 191.481 450.107C189.436 450 187.468 449.308 185.821 448.118C184.174 446.928 182.921 445.292 182.217 443.412C182.171 443.296 182.082 443.2 181.969 443.142C181.855 443.085 181.724 443.07 181.6 443.101C180.594 443.274 179.561 443.211 178.585 442.916C177.609 442.62 176.719 442.102 175.99 441.403C175.606 441.022 175.343 440.541 175.23 440.018C175.117 439.494 175.159 438.95 175.352 438.45C175.386 438.352 175.389 438.246 175.361 438.147C175.332 438.047 175.273 437.958 175.192 437.892C175.111 437.826 175.011 437.785 174.906 437.775C174.801 437.766 174.695 437.787 174.602 437.837C174.045 438.188 173.395 438.375 172.732 438.375C172.069 438.375 171.42 438.188 170.862 437.837C170.42 437.5 170.061 437.071 169.81 436.581C169.56 436.091 169.424 435.552 169.413 435.004V434.974Z" fill="#D1D3D4"/>
<path d="M219.632 366.969C219.324 371.308 216.333 375.236 212.654 376.009C211.681 376.278 210.641 376.202 209.719 375.796C208.796 375.39 208.049 374.68 207.609 373.789C206.828 380.379 199.789 384.759 194.661 381.825C193.356 388.013 188.609 393.367 183.152 393.438C177.696 393.508 172.527 387.2 173.719 380.982C171.746 382.81 168.242 380.53 168.581 377.606C166.125 380.901 162.539 383.362 158.819 383.001C155.099 382.639 151.574 378.701 152.006 374.362C148.841 376.692 143.949 373.96 143.508 369.621C142.824 369.498 142.195 369.175 141.705 368.694C141.215 368.213 140.886 367.597 140.764 366.928L219.632 366.969Z" fill="white"/>
<path d="M219.632 366.466H140.722C140.639 366.467 140.556 366.486 140.481 366.523C140.407 366.559 140.341 366.612 140.291 366.677C140.245 366.742 140.214 366.817 140.199 366.895C140.185 366.973 140.188 367.053 140.209 367.129C140.351 367.831 140.685 368.481 141.176 369.012C141.666 369.542 142.294 369.933 142.993 370.143C143.181 371.265 143.649 372.325 144.355 373.229C145.061 374.133 145.984 374.853 147.042 375.326C147.722 375.641 148.463 375.809 149.215 375.818C149.967 375.827 150.712 375.676 151.399 375.376C151.502 379.746 155.15 383.252 158.716 383.593C161.932 383.915 165.374 382.217 168.128 379.033C168.289 379.641 168.582 380.209 168.986 380.697C169.39 381.186 169.897 381.584 170.471 381.866C170.865 382.069 171.296 382.192 171.74 382.226C172.183 382.261 172.629 382.206 173.051 382.066C172.856 385.112 173.881 388.113 175.907 390.434C176.772 391.518 177.871 392.403 179.124 393.026C180.378 393.649 181.756 393.996 183.162 394.04C188.403 393.96 193.438 389.128 195.031 382.669C196.157 383.151 197.381 383.376 198.609 383.327C199.838 383.278 201.039 382.957 202.121 382.388C203.552 381.67 204.808 380.66 205.804 379.426C206.801 378.192 207.514 376.763 207.896 375.236C208.522 375.849 209.3 376.293 210.153 376.525C211.007 376.757 211.907 376.77 212.767 376.562C216.652 375.748 219.837 371.65 220.166 367.049C220.172 366.978 220.162 366.906 220.138 366.838C220.113 366.771 220.075 366.709 220.024 366.657C219.974 366.605 219.913 366.563 219.845 366.536C219.778 366.508 219.705 366.495 219.632 366.496V366.466ZM141.483 367.471H219.056C218.553 371.398 215.829 374.794 212.541 375.507C211.69 375.746 210.78 375.686 209.969 375.337C209.158 374.988 208.497 374.373 208.102 373.598C208.054 373.494 207.974 373.408 207.872 373.351C207.77 373.295 207.653 373.273 207.537 373.287C207.421 373.304 207.314 373.357 207.233 373.439C207.151 373.52 207.099 373.626 207.085 373.739C206.893 375.356 206.296 376.902 205.348 378.241C204.4 379.579 203.13 380.669 201.649 381.414C200.619 381.968 199.463 382.258 198.288 382.258C197.113 382.258 195.957 381.968 194.928 381.414C194.857 381.369 194.775 381.343 194.69 381.337C194.606 381.331 194.521 381.346 194.444 381.38C194.367 381.414 194.299 381.466 194.247 381.531C194.196 381.596 194.161 381.673 194.147 381.755C192.811 388.073 188.084 392.895 183.152 392.965C181.902 392.925 180.676 392.614 179.564 392.054C178.452 391.495 177.48 390.702 176.719 389.731C175.685 388.56 174.927 387.181 174.499 385.691C174.071 384.202 173.984 382.638 174.243 381.112C174.26 381.006 174.243 380.896 174.195 380.8C174.146 380.703 174.068 380.623 173.971 380.571C173.874 380.519 173.764 380.498 173.654 380.511C173.544 380.523 173.441 380.568 173.359 380.64C173.036 380.927 172.628 381.106 172.193 381.152C171.759 381.197 171.322 381.106 170.944 380.891C170.343 380.601 169.843 380.142 169.51 379.573C169.177 379.004 169.025 378.351 169.074 377.697C169.086 377.584 169.059 377.47 168.997 377.374C168.936 377.278 168.844 377.204 168.735 377.164C168.627 377.12 168.508 377.113 168.396 377.144C168.284 377.175 168.186 377.243 168.118 377.335C165.467 380.891 161.953 382.83 158.87 382.529C155.787 382.227 152.119 378.611 152.54 374.492C152.546 374.392 152.523 374.291 152.474 374.203C152.425 374.114 152.352 374.04 152.262 373.99C152.177 373.934 152.077 373.904 151.975 373.904C151.872 373.904 151.772 373.934 151.687 373.99C151.089 374.413 150.385 374.669 149.65 374.729C148.914 374.789 148.176 374.652 147.515 374.332C146.564 373.91 145.743 373.252 145.134 372.424C144.524 371.596 144.148 370.626 144.042 369.61C144.028 369.492 143.974 369.382 143.888 369.298C143.802 369.214 143.69 369.161 143.569 369.148C143.102 369.083 142.661 368.895 142.294 368.605C141.927 368.315 141.647 367.934 141.483 367.501V367.471Z" fill="#D1D3D4"/>
<path d="M313.174 433.267C313.014 434.802 312.358 436.247 311.301 437.392C310.244 438.537 308.841 439.323 307.296 439.636C305.703 439.917 303.781 439.495 303.052 438.079C302.384 442.72 296.465 445.803 292.159 443.754C291.06 448.114 287.021 451.881 282.469 451.931C277.917 451.981 273.519 447.541 274.526 443.162C272.861 444.447 269.922 442.84 270.169 440.781C268.114 443.101 265.031 444.799 261.948 444.588C258.865 444.377 255.854 441.574 256.214 438.501C255.532 438.862 254.773 439.06 253.997 439.08C253.222 439.101 252.453 438.942 251.752 438.617C251.051 438.292 250.439 437.81 249.964 437.211C249.49 436.611 249.166 435.91 249.021 435.166C248.491 435.104 247.992 434.891 247.586 434.554C247.181 434.216 246.886 433.768 246.74 433.267H313.174Z" fill="white"/>
<path d="M313.174 432.755H246.74C246.655 432.756 246.572 432.776 246.496 432.814C246.421 432.853 246.357 432.908 246.308 432.976C246.259 433.044 246.227 433.122 246.215 433.204C246.202 433.285 246.21 433.369 246.236 433.448C246.4 433.98 246.704 434.461 247.117 434.843C247.529 435.225 248.037 435.496 248.589 435.628C248.779 436.383 249.144 437.085 249.655 437.681C250.167 438.276 250.811 438.749 251.538 439.063C252.17 439.374 252.859 439.559 253.565 439.607C254.27 439.656 254.979 439.566 255.649 439.344C255.742 440.529 256.217 441.655 257.005 442.559C257.605 443.277 258.344 443.872 259.18 444.31C260.016 444.748 260.932 445.02 261.876 445.11C263.347 445.161 264.812 444.904 266.173 444.356C267.534 443.809 268.759 442.984 269.768 441.936C270.083 442.71 270.669 443.349 271.423 443.737C272.177 444.126 273.047 444.239 273.878 444.056C273.798 445.927 274.44 447.759 275.677 449.189C276.486 450.179 277.507 450.985 278.668 451.55C279.828 452.116 281.101 452.427 282.397 452.463H282.479C286.888 452.463 291.101 449.018 292.519 444.427C293.615 444.8 294.78 444.942 295.937 444.844C297.093 444.745 298.215 444.408 299.229 443.855C301.165 442.889 302.639 441.224 303.34 439.214C303.918 439.644 304.585 439.947 305.294 440.103C306.003 440.259 306.739 440.264 307.45 440.118C309.111 439.785 310.619 438.942 311.754 437.711C312.889 436.48 313.592 434.926 313.759 433.277C313.768 433.206 313.761 433.134 313.738 433.067C313.715 432.999 313.676 432.937 313.626 432.885C313.564 432.834 313.492 432.795 313.414 432.773C313.336 432.75 313.254 432.744 313.174 432.755ZM247.603 433.759H312.567C312.315 435.068 311.67 436.274 310.715 437.223C309.76 438.173 308.537 438.824 307.203 439.093C305.867 439.334 304.121 439.033 303.525 437.818C303.489 437.697 303.41 437.593 303.302 437.526C303.194 437.459 303.064 437.433 302.938 437.452C302.811 437.472 302.696 437.537 302.615 437.634C302.534 437.73 302.492 437.853 302.497 437.978C302.274 439.028 301.817 440.016 301.159 440.874C300.502 441.731 299.659 442.437 298.691 442.94C297.723 443.443 296.653 443.732 295.558 443.786C294.463 443.84 293.369 443.658 292.355 443.252C292.284 443.22 292.207 443.203 292.128 443.203C292.05 443.203 291.973 443.22 291.902 443.252C291.831 443.285 291.767 443.332 291.716 443.391C291.664 443.45 291.626 443.519 291.604 443.594C290.505 447.983 286.559 451.338 282.428 451.389H282.356C281.234 451.346 280.135 451.07 279.132 450.578C278.129 450.086 277.245 449.39 276.54 448.536C275.909 447.824 275.451 446.981 275.2 446.071C274.949 445.161 274.912 444.208 275.091 443.282C275.116 443.177 275.106 443.068 275.064 442.969C275.022 442.869 274.948 442.786 274.855 442.73C274.765 442.671 274.659 442.64 274.551 442.64C274.443 442.64 274.338 442.671 274.248 442.73C273.899 442.928 273.502 443.035 273.097 443.038C272.693 443.042 272.294 442.943 271.941 442.75C271.587 442.558 271.291 442.279 271.081 441.94C270.871 441.602 270.755 441.216 270.744 440.821C270.76 440.711 270.738 440.6 270.683 440.504C270.627 440.407 270.54 440.332 270.436 440.289C270.332 440.244 270.217 440.232 270.106 440.256C269.995 440.279 269.895 440.336 269.819 440.419C267.6 442.91 264.681 444.267 262.04 444.046C260.432 443.877 258.956 443.098 257.93 441.876C257.528 441.42 257.224 440.89 257.035 440.317C256.846 439.744 256.776 439.14 256.831 438.541C256.843 438.444 256.828 438.345 256.786 438.257C256.744 438.168 256.678 438.092 256.594 438.039C256.509 437.989 256.411 437.963 256.312 437.963C256.212 437.963 256.115 437.989 256.029 438.039C255.42 438.344 254.746 438.506 254.062 438.513C253.378 438.52 252.701 438.372 252.085 438.08C251.469 437.788 250.931 437.36 250.514 436.829C250.096 436.299 249.81 435.682 249.678 435.025C249.665 434.908 249.61 434.799 249.524 434.717C249.438 434.635 249.326 434.584 249.206 434.573C248.896 434.57 248.591 434.499 248.314 434.366C248.036 434.232 247.793 434.038 247.603 433.799V433.759Z" fill="#D1D3D4"/>
<path d="M339.398 293.82C338.838 294.655 338.123 295.381 337.291 295.96C336.127 296.735 334.78 297.211 333.378 297.343C331.975 297.474 330.56 297.258 329.266 296.713C330.18 299.235 328.423 302.158 325.916 303.223C324.629 303.68 323.259 303.87 321.893 303.78C320.527 303.69 319.195 303.322 317.983 302.7C320.172 306.628 316.955 311.741 312.691 313.388C309.32 314.684 303.925 314.393 302.518 310.525C301.616 312.822 299.949 314.754 297.786 316.01C295.623 317.266 293.09 317.774 290.596 317.45C288.102 317.126 285.793 315.99 284.04 314.225C282.288 312.46 281.195 310.169 280.938 307.723C279.672 308.876 278.136 309.709 276.464 310.146C274.793 310.584 273.037 310.614 271.351 310.234C268.34 309.531 261.732 304.81 264.24 300.932C263.305 302.369 260.91 302.238 259.698 301.023C259.149 300.359 258.75 299.588 258.529 298.762C258.307 297.936 258.268 297.073 258.413 296.231C257.745 297.587 255.556 297.497 254.498 296.402C253.856 295.671 253.442 294.775 253.306 293.82H339.398Z" fill="#080705"/>
<path d="M339.398 293.318H253.265C253.191 293.32 253.118 293.338 253.051 293.369C252.984 293.4 252.924 293.444 252.875 293.499C252.828 293.556 252.794 293.622 252.775 293.693C252.756 293.764 252.751 293.838 252.762 293.91C252.9 294.964 253.362 295.952 254.087 296.743C254.459 297.126 254.918 297.416 255.427 297.591C255.937 297.766 256.481 297.819 257.016 297.748C257.295 297.71 257.565 297.629 257.817 297.507C257.792 298.946 258.316 300.342 259.287 301.424C259.696 301.821 260.19 302.125 260.734 302.312C261.278 302.5 261.858 302.567 262.431 302.509C262.679 302.481 262.923 302.431 263.161 302.358C263.08 303.108 263.196 303.865 263.5 304.558C264.723 307.572 268.874 310.234 271.186 310.776C272.797 311.138 274.469 311.146 276.083 310.798C277.697 310.451 279.211 309.757 280.517 308.767C280.955 311.138 282.148 313.313 283.924 314.982C285.701 316.651 287.972 317.73 290.412 318.064C292.853 318.398 295.339 317.97 297.516 316.842C299.693 315.714 301.451 313.943 302.538 311.781C303.152 312.729 304.044 313.475 305.097 313.92C306.384 314.417 307.759 314.658 309.142 314.629C310.525 314.6 311.888 314.302 313.152 313.752C314.416 313.202 315.555 312.411 316.503 311.426C317.451 310.441 318.188 309.281 318.672 308.014C319.241 306.615 319.317 305.07 318.887 303.624C321.191 304.534 323.761 304.555 326.081 303.684C327.297 303.171 328.321 302.303 329.012 301.199C329.704 300.095 330.029 298.809 329.944 297.517C331.217 297.892 332.56 297.984 333.874 297.786C335.188 297.587 336.44 297.104 337.538 296.372C338.428 295.76 339.191 294.99 339.789 294.101C339.841 294.025 339.871 293.937 339.876 293.845C339.881 293.754 339.86 293.663 339.815 293.582C339.771 293.501 339.705 293.434 339.624 293.387C339.543 293.341 339.451 293.317 339.357 293.318H339.398ZM253.912 294.322H338.371C337.968 294.787 337.505 295.199 336.994 295.548C335.902 296.275 334.641 296.721 333.326 296.846C332.011 296.971 330.686 296.769 329.472 296.261C329.38 296.22 329.279 296.207 329.18 296.223C329.081 296.24 328.99 296.284 328.917 296.351C328.842 296.417 328.789 296.502 328.763 296.597C328.738 296.691 328.741 296.791 328.773 296.884C329.626 299.214 327.848 301.856 325.69 302.76C324.471 303.193 323.172 303.37 321.877 303.28C320.583 303.19 319.323 302.835 318.178 302.238C318.081 302.194 317.971 302.181 317.865 302.201C317.76 302.221 317.663 302.273 317.589 302.35C317.516 302.426 317.468 302.524 317.454 302.628C317.44 302.732 317.46 302.838 317.51 302.931C317.891 303.66 318.107 304.461 318.144 305.279C318.182 306.097 318.039 306.913 317.726 307.672C317.262 308.85 316.557 309.922 315.654 310.824C314.751 311.725 313.669 312.437 312.475 312.916C310.232 313.772 307.741 313.772 305.498 312.916C304.917 312.679 304.393 312.326 303.959 311.88C303.526 311.434 303.192 310.904 302.98 310.324C302.944 310.227 302.879 310.143 302.792 310.084C302.706 310.025 302.603 309.993 302.497 309.993C302.393 309.991 302.29 310.02 302.203 310.078C302.117 310.136 302.051 310.218 302.014 310.314C301.159 312.508 299.573 314.356 297.512 315.561C295.451 316.766 293.035 317.257 290.654 316.955C288.272 316.654 286.064 315.576 284.385 313.898C282.707 312.219 281.655 310.037 281.401 307.702C281.395 307.608 281.361 307.517 281.303 307.442C281.244 307.367 281.164 307.311 281.072 307.281C280.982 307.247 280.884 307.238 280.79 307.256C280.695 307.274 280.608 307.317 280.537 307.381C279.325 308.469 277.859 309.25 276.266 309.656C274.674 310.063 273.004 310.082 271.402 309.712C269.347 309.219 265.524 306.698 264.425 304.096C264.198 303.632 264.098 303.118 264.132 302.605C264.166 302.091 264.334 301.595 264.62 301.163C264.69 301.049 264.712 300.913 264.681 300.784C264.65 300.655 264.57 300.542 264.456 300.47C264.399 300.434 264.335 300.409 264.268 300.397C264.201 300.385 264.132 300.387 264.066 300.402C264 300.417 263.937 300.445 263.882 300.484C263.827 300.524 263.781 300.573 263.747 300.631C263.583 300.86 263.369 301.051 263.12 301.188C262.871 301.326 262.593 301.406 262.308 301.424C261.888 301.462 261.466 301.41 261.068 301.273C260.671 301.136 260.309 300.917 260.006 300.631C259.512 300.018 259.155 299.311 258.958 298.554C258.762 297.798 258.73 297.01 258.865 296.241C258.877 296.123 258.845 296.006 258.776 295.908C258.708 295.811 258.606 295.741 258.49 295.71C258.373 295.678 258.249 295.688 258.139 295.738C258.029 295.787 257.941 295.873 257.889 295.98C257.788 296.167 257.642 296.327 257.462 296.446C257.283 296.565 257.077 296.64 256.862 296.663C256.492 296.72 256.113 296.692 255.756 296.581C255.399 296.469 255.074 296.277 254.806 296.02C254.375 295.534 254.075 294.951 253.933 294.322H253.912Z" fill="#080705"/>
<path d="M218.717 293.82C217.556 295.822 215.715 297.362 213.512 298.173C211.31 298.984 208.887 299.015 206.663 298.26C206.088 301.696 202.553 304.056 198.997 304.488C195.442 304.92 191.928 303.895 188.516 302.861C189.359 306.879 186.913 311.027 183.45 313.318C179.987 315.608 175.692 316.331 171.52 316.643C170.235 316.733 162.271 314.121 164.82 311.942C163.739 312.876 162.403 313.481 160.975 313.685C159.548 313.888 158.091 313.68 156.782 313.086C155.474 312.492 154.371 311.539 153.608 310.342C152.846 309.145 152.456 307.756 152.488 306.346C151.555 306.971 150.478 307.359 149.354 307.477C148.229 307.594 147.093 307.437 146.045 307.019C143.137 305.824 142.901 303.102 140.907 301.143C140.907 302.981 138.852 303.795 137.208 303.805C135.32 303.799 133.452 303.422 131.715 302.697C129.978 301.972 128.408 300.915 127.097 299.586C125.391 301.947 121.352 301.354 119.4 299.184C118.145 297.633 117.34 295.78 117.067 293.82H218.717Z" fill="#080705"/>
<path d="M218.717 293.318H117.088C117.013 293.318 116.939 293.334 116.872 293.365C116.804 293.396 116.745 293.442 116.697 293.498C116.647 293.554 116.61 293.62 116.59 293.691C116.571 293.763 116.569 293.838 116.584 293.91C116.855 295.963 117.702 297.903 119.03 299.516C119.677 300.211 120.472 300.759 121.36 301.121C122.248 301.482 123.207 301.647 124.168 301.605C125.302 301.568 126.38 301.117 127.189 300.339C129.892 302.877 133.481 304.314 137.229 304.357C138.023 304.411 138.817 304.245 139.52 303.879C140.223 303.514 140.807 302.962 141.205 302.288C141.578 302.801 141.921 303.334 142.233 303.885C142.957 305.483 144.239 306.775 145.85 307.532C146.838 307.922 147.899 308.099 148.963 308.052C150.027 308.006 151.068 307.735 152.016 307.26C152.128 308.559 152.574 309.808 153.313 310.893C154.052 311.977 155.06 312.862 156.242 313.463C157.425 314.065 158.743 314.364 160.076 314.333C161.409 314.302 162.712 313.943 163.864 313.287C163.89 313.373 163.921 313.457 163.956 313.539C164.861 315.638 170.523 317.295 171.561 317.225C175.209 316.964 179.905 316.351 183.738 313.81C186.82 311.751 189.626 307.883 189.153 303.664C192.236 304.578 195.647 305.492 199.059 305.071C202.471 304.649 206.119 302.449 207.044 299.043C209.329 299.67 211.764 299.53 213.96 298.647C216.155 297.764 217.985 296.189 219.159 294.171C219.202 294.096 219.225 294.012 219.225 293.925C219.225 293.839 219.202 293.754 219.159 293.679C219.128 293.584 219.07 293.499 218.992 293.435C218.914 293.371 218.818 293.33 218.717 293.318ZM117.715 294.322H217.813C216.623 295.986 214.911 297.224 212.936 297.85C210.96 298.475 208.83 298.454 206.869 297.788C206.799 297.758 206.724 297.743 206.648 297.743C206.572 297.743 206.497 297.758 206.427 297.788C206.361 297.828 206.304 297.88 206.26 297.942C206.216 298.005 206.185 298.075 206.17 298.149C205.615 301.444 202.06 303.574 198.977 303.966C195.493 304.408 191.897 303.313 188.701 302.358C188.617 302.331 188.527 302.326 188.441 302.344C188.354 302.362 188.274 302.401 188.208 302.459C188.14 302.518 188.089 302.594 188.06 302.679C188.031 302.763 188.025 302.854 188.043 302.941C188.783 306.417 186.779 310.495 183.193 312.866C179.607 315.236 175.044 315.879 171.52 316.11C170.595 316.17 165.57 314.533 164.933 313.036C164.84 312.835 164.82 312.614 165.2 312.283C165.302 312.194 165.364 312.068 165.371 311.935C165.379 311.801 165.332 311.67 165.241 311.57C165.15 311.47 165.021 311.409 164.885 311.402C164.748 311.394 164.613 311.44 164.511 311.53C163.507 312.404 162.264 312.971 160.933 313.164C159.603 313.356 158.245 313.163 157.025 312.61C155.805 312.057 154.778 311.168 154.068 310.051C153.359 308.935 152.999 307.64 153.033 306.326C153.038 306.234 153.015 306.142 152.967 306.062C152.92 305.982 152.85 305.916 152.766 305.874C152.686 305.825 152.593 305.799 152.499 305.799C152.404 305.799 152.312 305.825 152.232 305.874C151.367 306.45 150.371 306.807 149.331 306.916C148.292 307.025 147.241 306.881 146.271 306.497C144.885 305.814 143.792 304.671 143.189 303.272C142.691 302.348 142.073 301.49 141.349 300.721C141.277 300.653 141.187 300.606 141.088 300.586C140.99 300.567 140.888 300.575 140.794 300.61C140.701 300.648 140.62 300.712 140.564 300.794C140.507 300.877 140.476 300.973 140.476 301.073C140.476 302.66 138.564 303.232 137.29 303.242C135.48 303.234 133.69 302.875 132.023 302.185C130.356 301.495 128.846 300.489 127.579 299.224C127.529 299.171 127.466 299.13 127.397 299.104C127.327 299.078 127.253 299.067 127.179 299.074C127.103 299.077 127.028 299.097 126.961 299.132C126.893 299.167 126.834 299.215 126.788 299.274C126.485 299.676 126.091 300.003 125.636 300.23C125.181 300.456 124.678 300.576 124.168 300.58C123.37 300.611 122.574 300.471 121.837 300.169C121.1 299.867 120.44 299.411 119.903 298.832C118.778 297.545 118.022 295.989 117.715 294.322Z" fill="#080705"/>
<path d="M231.511 496.17C231.387 496.172 231.269 496.222 231.183 496.309C231.097 496.395 231.048 496.511 231.048 496.632V518.47C231.038 518.536 231.043 518.603 231.062 518.667C231.081 518.73 231.113 518.789 231.158 518.84C231.202 518.89 231.257 518.93 231.319 518.958C231.381 518.986 231.448 519 231.516 519C231.584 519 231.651 518.986 231.713 518.958C231.774 518.93 231.829 518.89 231.874 518.84C231.918 518.789 231.951 518.73 231.97 518.667C231.989 518.603 231.993 518.536 231.983 518.47V496.632C231.983 496.509 231.934 496.392 231.845 496.305C231.756 496.218 231.636 496.17 231.511 496.17Z" fill="#080705"/>
<path d="M222.016 377.818H241.694V367.26H222.016V377.818Z" fill="#080705"/>
<path d="M241.694 366.758H222.016C221.879 366.758 221.749 366.811 221.652 366.905C221.556 366.999 221.502 367.127 221.502 367.26V377.818C221.502 377.951 221.556 378.079 221.652 378.173C221.749 378.267 221.879 378.32 222.016 378.32H241.694C241.83 378.32 241.961 378.267 242.057 378.173C242.154 378.079 242.208 377.951 242.208 377.818V367.26C242.208 367.127 242.154 366.999 242.057 366.905C241.961 366.811 241.83 366.758 241.694 366.758ZM222.529 367.763H241.18V377.316H222.529V367.763Z" fill="#080705"/>
<path d="M250.593 356.703C236.71 393.659 236.71 476.582 236.71 476.582H227.01C227.01 476.582 227.01 393.659 213.117 356.703C204.638 334.578 193.587 313.479 180.182 293.82H196.84L197.086 294.182C198.501 302.195 202.765 309.462 209.128 314.701C215.49 319.939 223.542 322.812 231.86 322.812C240.179 322.812 248.23 319.939 254.592 314.701C260.955 309.462 265.22 302.195 266.634 294.182L266.87 293.84H283.528C270.124 313.493 259.074 334.585 250.593 356.703ZM218.892 335.116C224.513 354.634 231.994 388.656 231.696 405.914H232.004C231.716 388.656 239.197 354.634 244.828 335.116H218.892Z" fill="#700548"/>
<path d="M283.527 293.358H266.87C266.793 293.36 266.718 293.379 266.65 293.414C266.583 293.448 266.524 293.498 266.479 293.559L266.243 293.901C266.204 293.954 266.18 294.016 266.171 294.081C264.78 301.991 260.573 309.166 254.295 314.338C248.017 319.511 240.07 322.347 231.86 322.347C223.649 322.347 215.703 319.511 209.425 314.338C203.146 309.166 198.94 301.991 197.548 294.081C197.532 294.017 197.504 293.956 197.466 293.901L197.22 293.539C197.178 293.478 197.121 293.427 197.055 293.392C196.989 293.357 196.915 293.339 196.839 293.338H180.182C180.095 293.339 180.01 293.363 179.936 293.407C179.862 293.451 179.801 293.514 179.761 293.589C179.715 293.66 179.691 293.742 179.691 293.825C179.691 293.909 179.715 293.991 179.761 294.061C193.14 313.692 204.173 334.757 212.644 356.844C226.342 393.298 226.506 475.738 226.506 476.562C226.506 476.623 226.518 476.683 226.542 476.739C226.566 476.795 226.601 476.846 226.644 476.889C226.688 476.931 226.74 476.966 226.798 476.989C226.855 477.012 226.917 477.024 226.979 477.024H236.679C236.803 477.021 236.92 476.971 237.007 476.885C237.093 476.799 237.142 476.683 237.142 476.562C237.142 475.738 237.306 393.298 250.994 356.844C259.464 334.757 270.497 313.692 283.877 294.061C283.922 293.991 283.947 293.909 283.947 293.825C283.947 293.742 283.922 293.66 283.877 293.589C283.84 293.527 283.79 293.474 283.729 293.434C283.669 293.394 283.6 293.368 283.527 293.358ZM267.086 294.282H282.613C269.416 313.779 258.516 334.672 250.12 356.562C236.895 391.72 236.237 469.43 236.207 476.1H227.441C227.441 469.39 226.753 391.72 213.517 356.562C205.126 334.67 194.225 313.777 181.025 294.282H196.552L196.603 294.353C198.058 302.451 202.387 309.788 208.829 315.075C215.271 320.362 223.413 323.261 231.824 323.261C240.235 323.261 248.377 320.362 254.819 315.075C261.26 309.788 265.589 302.451 267.045 294.353L267.086 294.282ZM244.797 334.654H218.892C218.818 334.654 218.746 334.67 218.68 334.701C218.614 334.733 218.557 334.778 218.511 334.835C218.47 334.892 218.442 334.958 218.43 335.028C218.417 335.097 218.421 335.168 218.439 335.236C223.577 352.976 231.541 387.853 231.223 405.904C231.223 406.027 231.271 406.145 231.356 406.236C231.446 406.324 231.568 406.375 231.695 406.376H232.004C232.067 406.377 232.13 406.365 232.188 406.34C232.246 406.316 232.299 406.281 232.343 406.236C232.428 406.145 232.476 406.027 232.476 405.904C232.178 387.823 240.163 352.976 245.28 335.236C245.297 335.168 245.298 335.096 245.284 335.027C245.27 334.957 245.24 334.892 245.198 334.835C245.154 334.78 245.098 334.735 245.034 334.704C244.97 334.672 244.9 334.655 244.828 334.654H244.797ZM219.477 335.578H244.14C239.721 351.037 233.298 378.772 231.808 397.597C230.349 378.732 223.927 351.048 219.508 335.578H219.477Z" fill="#080705"/>
<path d="M260.479 338.973H203.231C202.102 338.973 201.186 338.078 201.186 336.974V335.688C201.186 334.584 202.102 333.689 203.231 333.689H260.479C261.608 333.689 262.524 334.584 262.524 335.688V336.974C262.524 338.078 261.608 338.973 260.479 338.973Z" fill="white"/>
<path d="M260.479 333.197H203.221C202.545 333.197 201.897 333.46 201.419 333.927C200.941 334.394 200.673 335.028 200.673 335.688V336.984C200.673 337.645 200.941 338.278 201.419 338.746C201.897 339.213 202.545 339.475 203.221 339.475H260.479C261.155 339.475 261.805 339.213 262.284 338.746C262.764 338.279 263.035 337.646 263.037 336.984V335.688C263.035 335.027 262.764 334.393 262.284 333.926C261.805 333.459 261.155 333.197 260.479 333.197ZM203.221 338.471C202.818 338.471 202.431 338.314 202.146 338.035C201.86 337.757 201.7 337.378 201.7 336.984V335.688C201.7 335.294 201.86 334.916 202.146 334.637C202.431 334.358 202.818 334.202 203.221 334.202H260.479C260.883 334.202 261.271 334.358 261.558 334.636C261.845 334.915 262.007 335.293 262.01 335.688V336.984C262.007 337.379 261.845 337.757 261.558 338.036C261.271 338.315 260.883 338.471 260.479 338.471H203.221Z" fill="#080705"/>
<path d="M246.853 383.102H216.868C215.647 383.102 214.658 382.135 214.658 380.942V379.978C214.658 378.785 215.647 377.818 216.868 377.818H246.853C248.073 377.818 249.062 378.785 249.062 379.978V380.942C249.062 382.135 248.073 383.102 246.853 383.102Z" fill="white"/>
<path d="M246.843 377.316H216.857C216.137 377.318 215.447 377.6 214.938 378.099C214.43 378.598 214.144 379.273 214.144 379.978V380.982C214.144 381.686 214.43 382.362 214.938 382.861C215.447 383.36 216.137 383.641 216.857 383.644H246.843C247.2 383.644 247.554 383.575 247.885 383.441C248.215 383.308 248.515 383.112 248.768 382.864C249.021 382.617 249.222 382.324 249.358 382.001C249.495 381.678 249.566 381.332 249.566 380.982V379.978C249.566 379.628 249.495 379.282 249.358 378.959C249.222 378.636 249.021 378.342 248.768 378.095C248.515 377.848 248.215 377.652 247.885 377.518C247.554 377.384 247.2 377.316 246.843 377.316ZM216.857 382.599C216.635 382.599 216.415 382.556 216.21 382.473C216.005 382.39 215.819 382.267 215.662 382.113C215.505 381.959 215.381 381.776 215.297 381.575C215.213 381.374 215.171 381.159 215.172 380.942V379.937C215.171 379.72 215.213 379.505 215.297 379.304C215.381 379.103 215.505 378.92 215.662 378.766C215.819 378.612 216.005 378.49 216.21 378.406C216.415 378.323 216.635 378.28 216.857 378.28H246.843C247.292 378.28 247.724 378.455 248.041 378.765C248.359 379.076 248.538 379.498 248.538 379.937V380.942C248.538 381.381 248.359 381.803 248.041 382.114C247.724 382.425 247.292 382.599 246.843 382.599H216.857Z" fill="#080705"/>
<path d="M223.454 486.707H240.245V481.484C240.245 480.186 239.718 478.942 238.779 478.024C237.841 477.107 236.568 476.592 235.241 476.592H228.469C227.811 476.59 227.159 476.716 226.551 476.961C225.942 477.206 225.389 477.566 224.924 478.021C224.458 478.475 224.088 479.015 223.836 479.609C223.584 480.203 223.454 480.84 223.454 481.484V486.707Z" fill="#700548"/>
<path d="M235.241 476.12H228.469C227.016 476.122 225.623 476.688 224.596 477.694C223.569 478.7 222.992 480.063 222.992 481.484V486.717C222.992 486.837 223.041 486.952 223.128 487.037C223.214 487.122 223.332 487.169 223.454 487.169H240.256C240.378 487.169 240.496 487.122 240.583 487.037C240.669 486.952 240.718 486.837 240.718 486.717V481.484C240.718 480.063 240.141 478.7 239.115 477.694C238.088 476.688 236.695 476.122 235.241 476.12ZM223.937 486.255V481.484C223.937 480.306 224.416 479.177 225.268 478.344C226.12 477.511 227.275 477.044 228.479 477.044H235.251C236.454 477.046 237.607 477.515 238.456 478.348C239.306 479.18 239.783 480.308 239.783 481.484V486.255H223.937Z" fill="#080705"/>
<path d="M228.603 493.93H234.285C234.741 493.928 235.193 493.839 235.614 493.667C236.034 493.496 236.417 493.244 236.738 492.928C237.06 492.612 237.314 492.237 237.488 491.824C237.661 491.412 237.75 490.97 237.748 490.524V486.707H225.16V490.524C225.16 491.425 225.526 492.288 226.177 492.925C226.829 493.562 227.712 493.92 228.633 493.92L228.603 493.93Z" fill="#700548"/>
<path d="M237.748 486.255H225.16C225.035 486.255 224.915 486.304 224.826 486.391C224.737 486.477 224.688 486.595 224.688 486.717V490.524C224.688 491.548 225.103 492.529 225.843 493.252C226.583 493.975 227.587 494.382 228.634 494.382H234.316C235.356 494.371 236.349 493.96 237.08 493.238C237.811 492.516 238.221 491.541 238.221 490.524V486.707C238.221 486.647 238.209 486.588 238.185 486.532C238.161 486.476 238.126 486.426 238.082 486.384C238.038 486.342 237.986 486.309 237.928 486.287C237.871 486.265 237.81 486.254 237.748 486.255ZM225.592 487.169H237.286V490.524C237.286 491.302 236.97 492.048 236.407 492.599C235.844 493.149 235.081 493.458 234.285 493.458H228.603C227.806 493.458 227.042 493.149 226.477 492.599C225.913 492.049 225.595 491.303 225.592 490.524V487.169Z" fill="#080705"/>
<path d="M228.746 499.334H234.275V493.93H228.746V499.334Z" fill="#700548"/>
<path d="M234.285 493.467H228.746C228.623 493.47 228.505 493.52 228.419 493.606C228.332 493.693 228.284 493.809 228.284 493.93V499.334C228.284 499.455 228.332 499.571 228.419 499.657C228.505 499.743 228.623 499.793 228.746 499.796H234.285C234.409 499.793 234.526 499.743 234.613 499.657C234.699 499.571 234.748 499.455 234.748 499.334V493.93C234.748 493.809 234.699 493.693 234.613 493.606C234.526 493.52 234.409 493.47 234.285 493.467ZM229.271 494.392H233.864V498.872H229.271V494.392Z" fill="#080705"/>
<path d="M147.71 305.231C155.06 305.231 161.018 312.193 161.018 320.781C161.018 329.369 155.06 336.331 147.71 336.331C140.361 336.331 134.403 329.369 134.403 320.781C134.403 312.193 140.361 305.231 147.71 305.231Z" fill="#700548"/>
<path d="M147.71 304.769C140.116 304.769 133.93 311.951 133.93 320.781C133.93 329.611 140.096 336.793 147.71 336.793C155.325 336.793 161.449 329.611 161.449 320.761C161.449 311.911 155.283 304.769 147.71 304.769ZM147.71 335.909C140.63 335.909 134.875 329.139 134.875 320.841C134.875 312.544 140.63 305.774 147.71 305.774C154.79 305.774 160.555 312.544 160.555 320.841C160.555 329.139 154.79 335.829 147.71 335.829V335.909Z" fill="#080705"/>
<path d="M147.71 293.318C147.574 293.318 147.443 293.371 147.347 293.465C147.25 293.559 147.196 293.687 147.196 293.82V328.064C147.196 328.197 147.25 328.325 147.347 328.419C147.443 328.513 147.574 328.566 147.71 328.566C147.846 328.566 147.977 328.513 148.073 328.419C148.17 328.325 148.224 328.197 148.224 328.064V293.82C148.224 293.687 148.17 293.559 148.073 293.465C147.977 293.371 147.846 293.318 147.71 293.318Z" fill="white"/>
<path d="M147.71 312.293C147.571 312.293 147.438 312.348 147.34 312.444L140.979 318.953C140.932 318.999 140.894 319.053 140.868 319.114C140.842 319.174 140.828 319.239 140.828 319.305C140.828 319.37 140.842 319.435 140.868 319.495C140.894 319.556 140.932 319.61 140.979 319.656C141.027 319.703 141.084 319.741 141.147 319.766C141.209 319.792 141.276 319.805 141.344 319.805C141.412 319.805 141.479 319.792 141.542 319.766C141.604 319.741 141.661 319.703 141.709 319.656L148.07 313.147C148.119 313.102 148.158 313.047 148.185 312.987C148.212 312.926 148.226 312.861 148.226 312.795C148.226 312.729 148.212 312.664 148.185 312.604C148.158 312.543 148.119 312.489 148.07 312.444C148.024 312.395 147.968 312.357 147.906 312.331C147.844 312.305 147.778 312.292 147.71 312.293Z" fill="white"/>
<path d="M147.71 317.104C147.621 317.106 147.533 317.13 147.456 317.174C147.378 317.218 147.314 317.28 147.268 317.356C147.201 317.47 147.182 317.606 147.217 317.734C147.252 317.862 147.337 317.972 147.453 318.039L154.975 322.388C155.092 322.453 155.231 322.471 155.361 322.437C155.491 322.404 155.603 322.321 155.672 322.208C155.74 322.095 155.761 321.96 155.729 321.832C155.696 321.704 155.614 321.593 155.499 321.524L147.977 317.175C147.897 317.127 147.804 317.103 147.71 317.104Z" fill="white"/>
<path d="M299.517 305.231C306.867 305.231 312.825 312.193 312.825 320.781C312.825 329.369 306.867 336.331 299.517 336.331C292.168 336.331 286.21 329.369 286.21 320.781C286.21 312.193 292.168 305.231 299.517 305.231Z" fill="#700548"/>
<path d="M299.517 304.769C291.954 304.769 285.788 311.951 285.788 320.761C285.788 329.571 291.954 336.833 299.517 336.833C307.08 336.833 313.297 329.651 313.297 320.821C313.297 311.992 307.111 304.769 299.517 304.769ZM299.517 335.909C292.437 335.909 286.672 329.139 286.672 320.841C286.672 312.544 292.437 305.774 299.517 305.774C306.597 305.774 312.352 312.544 312.352 320.841C312.352 329.139 306.597 335.829 299.517 335.829V335.909Z" fill="#080705"/>
<path d="M299.517 293.318C299.381 293.318 299.25 293.371 299.154 293.465C299.057 293.559 299.003 293.687 299.003 293.82V328.064C299.003 328.197 299.057 328.325 299.154 328.419C299.25 328.513 299.381 328.566 299.517 328.566C299.653 328.566 299.784 328.513 299.88 328.419C299.977 328.325 300.031 328.197 300.031 328.064V293.82C300.031 293.687 299.977 293.559 299.88 293.465C299.784 293.371 299.653 293.318 299.517 293.318Z" fill="white"/>
<path d="M299.517 312.293C299.378 312.293 299.245 312.348 299.147 312.444L292.776 318.953C292.728 318.999 292.69 319.053 292.664 319.114C292.638 319.174 292.625 319.239 292.625 319.305C292.625 319.37 292.638 319.435 292.664 319.495C292.69 319.556 292.728 319.61 292.776 319.656C292.824 319.703 292.881 319.741 292.943 319.766C293.006 319.792 293.073 319.805 293.141 319.805C293.209 319.805 293.276 319.792 293.338 319.766C293.401 319.741 293.458 319.703 293.506 319.656L299.866 313.147C299.914 313.101 299.952 313.046 299.978 312.986C300.004 312.926 300.017 312.861 300.017 312.795C300.017 312.73 300.004 312.665 299.978 312.605C299.952 312.544 299.914 312.49 299.866 312.444C299.822 312.396 299.769 312.357 299.708 312.331C299.648 312.305 299.583 312.292 299.517 312.293Z" fill="white"/>
<path d="M299.517 317.105C299.427 317.105 299.34 317.129 299.262 317.173C299.184 317.217 299.12 317.28 299.075 317.356C299.007 317.469 298.987 317.604 299.02 317.732C299.052 317.86 299.135 317.97 299.25 318.039L306.772 322.388C306.89 322.456 307.03 322.476 307.162 322.444C307.294 322.412 307.409 322.331 307.481 322.218C307.549 322.101 307.568 321.964 307.533 321.834C307.498 321.705 307.413 321.594 307.296 321.525L299.774 317.175C299.697 317.127 299.608 317.103 299.517 317.105Z" fill="white"/>
<path d="M325.094 302.75C330.145 302.75 334.239 308.201 334.239 314.925C334.239 321.649 330.145 327.1 325.094 327.1C320.043 327.1 315.948 321.649 315.948 314.925C315.948 308.201 320.043 302.75 325.094 302.75Z" fill="#700548"/>
<path d="M325.094 302.288C319.791 302.288 315.486 307.953 315.486 314.925C315.486 321.896 319.791 327.552 325.094 327.552C330.396 327.552 334.712 321.886 334.712 314.925C334.712 307.963 330.396 302.288 325.094 302.288ZM325.094 326.637C320.316 326.637 316.421 321.384 316.421 314.925C316.421 308.466 320.316 303.212 325.094 303.212C329.872 303.212 333.767 308.466 333.767 314.925C333.767 321.384 329.882 326.637 325.094 326.637Z" fill="#080705"/>
<path d="M325.094 293.318C324.957 293.318 324.827 293.371 324.73 293.465C324.634 293.559 324.58 293.687 324.58 293.82V320.621C324.58 320.754 324.634 320.881 324.73 320.976C324.827 321.07 324.957 321.123 325.094 321.123C325.23 321.123 325.361 321.07 325.457 320.976C325.553 320.881 325.607 320.754 325.607 320.621V293.82C325.607 293.687 325.553 293.559 325.457 293.465C325.361 293.371 325.23 293.318 325.094 293.318Z" fill="white"/>
<path d="M325.094 308.165C325.019 308.164 324.945 308.181 324.878 308.212C324.81 308.243 324.751 308.289 324.703 308.345L320.326 313.438C320.282 313.488 320.248 313.546 320.228 313.608C320.207 313.671 320.199 313.737 320.205 313.803C320.21 313.868 320.23 313.932 320.261 313.99C320.292 314.048 320.335 314.1 320.387 314.141C320.493 314.226 320.628 314.268 320.765 314.256C320.901 314.245 321.028 314.182 321.117 314.081L325.484 308.988C325.528 308.939 325.562 308.881 325.583 308.818C325.603 308.756 325.611 308.689 325.605 308.624C325.6 308.558 325.581 308.495 325.549 308.436C325.518 308.378 325.475 308.327 325.423 308.285C325.332 308.206 325.215 308.163 325.094 308.165Z" fill="white"/>
<path d="M325.094 311.931C325.01 311.931 324.928 311.951 324.854 311.99C324.781 312.028 324.718 312.084 324.672 312.152C324.633 312.207 324.606 312.268 324.592 312.333C324.577 312.398 324.576 312.466 324.589 312.531C324.601 312.596 324.627 312.659 324.664 312.714C324.701 312.77 324.75 312.818 324.806 312.855L329.944 316.261C330.059 316.334 330.198 316.36 330.333 316.334C330.467 316.308 330.586 316.231 330.663 316.12C330.738 316.009 330.764 315.874 330.737 315.744C330.71 315.615 330.632 315.5 330.519 315.427L325.381 312.022C325.298 311.962 325.197 311.93 325.094 311.931Z" fill="white"/>
</svg>
