<svg width="58" height="58" viewBox="0 0 58 58" fill="none" xmlns="http://www.w3.org/2000/svg">
<rect width="58" height="58" rx="17.8462" fill="#F3F7F6"/>
<rect x="0.557692" y="0.557692" width="56.8846" height="56.8846" rx="17.2885" stroke="#24133F" stroke-opacity="0.2" stroke-width="1.11538"/>
<path opacity="0.15" d="M19.2273 42.6893C19.2273 43.0275 20.2569 43.3519 22.0896 43.5911C23.9224 43.8302 26.4081 43.9646 28.9999 43.9646C31.5918 43.9646 34.0775 43.8302 35.9102 43.5911C37.7429 43.3519 38.7726 43.0275 38.7726 42.6893C38.7726 42.3511 37.7429 42.0267 35.9102 41.7876C34.0775 41.5484 31.5918 41.4141 28.9999 41.4141C26.4081 41.4141 23.9224 41.5484 22.0896 41.7876C20.2569 42.0267 19.2273 42.3511 19.2273 42.6893Z" fill="#45413C"/>
<path d="M29 26.918V42.3382C29.525 42.3371 30.0454 42.2401 30.5355 42.0519L40.5489 38.148C41.0276 37.962 41.439 37.6357 41.7292 37.212C42.0195 36.7883 42.175 36.2868 42.1755 35.7732V23.5672C42.1741 23.0092 41.9889 22.4672 41.6485 22.0251L29 26.918ZM16.3515 22.0251C16.0111 22.4672 15.8259 23.0092 15.8245 23.5672V35.7992C15.825 36.3128 15.9806 36.8143 16.2708 37.238C16.561 37.6618 16.9724 37.988 17.4511 38.1741L27.4645 42.0779C27.9563 42.2572 28.4766 42.3454 29 42.3382V26.918L16.3515 22.0251Z" fill="#DAEDF7"/>
<path d="M29 26.918V42.3382C29.525 42.3371 30.0454 42.2401 30.5355 42.0519L40.5489 38.148C41.0276 37.962 41.439 37.6357 41.7292 37.212C42.0195 36.7883 42.175 36.2868 42.1755 35.7732V23.5672C42.1741 23.0092 41.9889 22.4672 41.6485 22.0251L29 26.918ZM16.3515 22.0251C16.0111 22.4672 15.8259 23.0092 15.8245 23.5672V35.7992C15.825 36.3128 15.9806 36.8143 16.2708 37.238C16.561 37.6618 16.9724 37.988 17.4511 38.1741L27.4645 42.0779C27.9563 42.2572 28.4766 42.3454 29 42.3382V26.918L16.3515 22.0251Z" fill="white"/>
<path d="M40.5489 35.7666L30.5355 39.6704C30.0437 39.8498 29.5234 39.938 29 39.9307V42.3381C29.525 42.337 30.0454 42.24 30.5355 42.0518L40.5489 38.1479C41.0276 37.9619 41.439 37.6357 41.7292 37.2119C42.0195 36.7882 42.175 36.2867 42.1755 35.7731V33.3853C42.1745 33.8995 42.0189 34.4017 41.7288 34.8263C41.4387 35.251 41.0276 35.5786 40.5489 35.7666ZM17.4511 35.7666C16.9724 35.5786 16.5613 35.251 16.2712 34.8263C15.9811 34.4017 15.8255 33.8995 15.8245 33.3853V35.7991C15.825 36.3127 15.9806 36.8142 16.2708 37.2379C16.561 37.6617 16.9724 37.9879 17.4511 38.174L27.4645 42.0778C27.9563 42.2572 28.4766 42.3453 29 42.3381V39.9307C28.475 39.9297 27.9546 39.8326 27.4645 39.6444L17.4511 35.7666Z" fill="#DAEDF7"/>
<path d="M29 26.918V42.3382M29 26.918L41.6485 22.0251C41.9889 22.4672 42.1741 23.0092 42.1755 23.5672V35.7732C42.175 36.2868 42.0195 36.7883 41.7292 37.212C41.439 37.6357 41.0276 37.962 40.5489 38.148L30.5355 42.0519C30.0454 42.2401 29.525 42.3371 29 42.3382M29 26.918L16.3515 22.0251C16.0111 22.4672 15.8259 23.0092 15.8245 23.5672V35.7992C15.825 36.3128 15.9806 36.8143 16.2708 37.238C16.561 37.6618 16.9724 37.988 17.4511 38.1741L27.4645 42.0779C27.9563 42.2572 28.4766 42.3454 29 42.3382" stroke="#45413C" stroke-width="1.11538" stroke-linecap="round" stroke-linejoin="round"/>
<path d="M29 26.9179L41.6485 22.025C41.3635 21.6536 40.9837 21.3659 40.5489 21.1922L30.5355 17.2884C29.5479 16.9042 28.4521 16.9042 27.4645 17.2884L17.4511 21.1922C17.0156 21.3677 16.6357 21.6577 16.3516 22.0315L29 26.9179Z" fill="white"/>
<path d="M40.5489 21.1923L39.7161 20.8734L30.3013 24.504C29.452 24.8357 28.509 24.8357 27.6597 24.504L18.284 20.8669L17.4511 21.1923C17.0156 21.3677 16.6357 21.6577 16.3516 22.0316L29 26.9179L41.6485 22.0251C41.3635 21.6536 40.9837 21.3659 40.5489 21.1923Z" fill="#DAEDF7"/>
<path d="M29 26.9179L41.6485 22.025C41.3635 21.6536 40.9837 21.3659 40.5489 21.1922L30.5355 17.2884C29.5479 16.9042 28.4521 16.9042 27.4645 17.2884L17.4511 21.1922C17.0156 21.3677 16.6357 21.6577 16.3516 22.0315L29 26.9179Z" stroke="#45413C" stroke-width="1.11538" stroke-linecap="round" stroke-linejoin="round"/>
<path d="M26.0265 21.7714C26.0265 22.1096 26.3398 22.4339 26.8974 22.6731C27.455 22.9122 28.2113 23.0466 28.9999 23.0466C29.7885 23.0466 30.5448 22.9122 31.1025 22.6731C31.6601 22.4339 31.9733 22.1096 31.9733 21.7714C31.9733 21.4331 31.6601 21.1088 31.1025 20.8696C30.5448 20.6305 29.7885 20.4961 28.9999 20.4961C28.2113 20.4961 27.455 20.6305 26.8974 20.8696C26.3398 21.1088 26.0265 21.4331 26.0265 21.7714Z" fill="#FF6242" stroke="#45413C" stroke-width="1.11538" stroke-linecap="round" stroke-linejoin="round"/>
<path d="M20.9125 29.052C21.0622 30.0995 20.7173 31.0039 20.1383 31.1015C19.5592 31.1991 18.9606 30.4053 18.837 29.3578C18.7134 28.3103 19.0322 27.4059 19.6112 27.3148C20.1903 27.2237 20.7629 28.011 20.9125 29.052ZM38.3367 26.9179C38.187 27.9589 38.5319 28.8698 39.1175 28.9609C39.703 29.052 40.2886 28.2647 40.4187 27.2172C40.5489 26.1696 40.2235 25.2653 39.6445 25.1742C39.0654 25.0831 38.4863 25.8704 38.3367 26.9179ZM31.1601 37.1134C31.0105 38.161 31.3553 39.0653 31.9409 39.1629C32.5265 39.2605 33.112 38.4668 33.2422 37.4192C33.3723 36.3717 33.047 35.4673 32.4679 35.3762C31.8888 35.2851 31.3098 36.0724 31.1601 37.1134ZM34.9338 32.0449C34.7842 33.086 35.1355 33.9969 35.7146 34.0879C36.2937 34.179 36.8858 33.3918 37.0159 32.3507C37.146 31.3097 36.8142 30.3988 36.2351 30.3012C35.656 30.2036 35.09 30.9974 34.9338 32.0449ZM24.7643 35.0184C24.914 36.0659 24.5691 36.9703 23.9835 37.0614C23.398 37.1525 22.8124 36.3652 22.6823 35.3242C22.5521 34.2831 22.8775 33.3722 23.4565 33.2746C24.0356 33.177 24.6147 33.9708 24.7643 35.0184Z" fill="#656769" stroke="#45413C" stroke-width="1.11538" stroke-linecap="round" stroke-linejoin="round"/>
</svg>
