<svg width="35" height="34" viewBox="0 0 35 34" fill="none" xmlns="http://www.w3.org/2000/svg">
<path d="M19.6963 17.6605C18.9108 17.6605 18.2501 17.3926 17.7143 16.8568C17.1785 16.321 16.9106 15.6604 16.9106 14.8748C16.9106 14.0892 17.1785 13.4285 17.7143 12.8927C18.2501 12.357 18.9108 12.0891 19.6963 12.0891C20.4819 12.0891 21.1426 12.357 21.6784 12.8927C22.2142 13.4285 22.482 14.0892 22.482 14.8748C22.482 15.6604 22.2142 16.321 21.6784 16.8568C21.1426 17.3926 20.4819 17.6605 19.6963 17.6605ZM11.0718 22.1065C10.4524 22.1065 9.92266 21.8864 9.48251 21.4463C9.04144 21.0052 8.82091 20.4755 8.82091 19.857V9.89253C8.82091 9.2741 9.04144 8.74482 9.48251 8.30467C9.92266 7.8636 10.4519 7.64307 11.0704 7.64307H28.3209C28.9403 7.64307 29.47 7.86314 29.9102 8.30328C30.3503 8.74342 30.5708 9.27317 30.5718 9.89253V19.857C30.5718 20.4755 30.3512 21.0047 29.9102 21.4449C29.47 21.886 28.9407 22.1065 28.3223 22.1065H11.0718ZM12.4646 20.7136H26.928C26.928 20.0915 27.1486 19.5608 27.5897 19.1216C28.0298 18.6833 28.5591 18.4642 29.1775 18.4642V11.2854C28.5554 11.2854 28.0247 11.0653 27.5855 10.6252C27.1472 10.1841 26.928 9.65435 26.928 9.03592H12.4646C12.4646 9.65807 12.2441 10.1887 11.803 10.628C11.3629 11.0662 10.8336 11.2854 10.2152 11.2854V18.4642C10.8373 18.4642 11.368 18.6847 11.8072 19.1258C12.2455 19.5659 12.4646 20.0952 12.4646 20.7136ZM26.4461 26.2851H6.89319C6.27383 26.2851 5.74408 26.065 5.30394 25.6249C4.86287 25.1838 4.64233 24.654 4.64233 24.0356V11.7673H6.03519V24.0356C6.03519 24.2492 6.1248 24.4456 6.30401 24.6248C6.4823 24.8031 6.67869 24.8922 6.89319 24.8922H26.4461V26.2851ZM11.0718 20.7136H10.2138V9.03592H11.0718C10.8396 9.03592 10.6386 9.12042 10.4687 9.28942C10.2987 9.45935 10.2138 9.66039 10.2138 9.89253V19.857C10.2138 20.0892 10.2987 20.2902 10.4687 20.4601C10.6386 20.6291 10.8396 20.7136 11.0718 20.7136Z" fill="#9C7BD3"/>
</svg>
